<?xml version="1.0" encoding="UTF-8"?>
<svg id="Layer_2" data-name="Layer 2" xmlns="http://www.w3.org/2000/svg" viewBox="0 0 548.45 114.54">
  <defs>
    <style>
      .cls-1 {
        fill: #99938d;
      }
    </style>
  </defs>
  <g id="OBJECTS">
    <g>
      <path class="cls-1" d="M400.59,5.43c-8,.08-9.89,9.57-9.98,15.98,2.13-1.32,2.35-4.04,5.24-5.22,7.04-2.87,14.4,2.48,15.72,9.22-9.05-7.54-17.28,2.3-17.71,11.75-.16,3.6,1.68,8.13,1.63,11.61-.21,14.43-13.74,28.92-27.81,31.12-7.69,1.2-16.26-2.51-19.27,6.7-1.04,3.2.09,6.4-2.28,8.72-4.54-2.19-8.32-6.68-7.49-11.98-4.58,2.66-14.18.63-12.98,7.99-1.75.35-2.6-.88-3.23-2.25-4.8-10.37,8.72-20.59,18.21-20.2l-1.99-7.5c-9.06,2.76-13.63.68-19.49-5.98-4.02-4.56-6.94-13.16-14.48-12,2.16-12.77,18.53-14.4,28.38-9.05,5.7-10.58,22.76-24.51,32.56-11.43-6.43,2.72-9.34,7.43-8.98,14.49,10.03-3.22,23.79,2.57,24.96,13.98-15.38-.95-19.88,23.75-36.95,10.99.72,14.5,20.83,14,30.64,9.17,11.63-5.74,18.23-22.89,9.32-33.64-5.33-6.43-11.48-1.22-17.99-4.5,3.61-8.85,11.69-10.17,17.97-2.98-4.27-13.69-23.09-21.9-36.49-21.01-8.42.56-18.84,7.65-17.45,17.01-5.71-1.21-7.57-8.58-3.99-12.97-19.1,2.32-39.52,39.13-19.93,51.37,5.43,3.39,13.61-1.74,12.97,4.01-.69,6.23-12.24,9.65-17.01,4.53,4.01,19.11,37.03,37.06,54.61,29.13,3.54-1.6,8.04-5.64,8.31-9.74.14-2.19-3.18-5.74-.47-6.41,5.98-1.47,11.8,8.71,8.48,13.97,9.34-5.36,16.43-15.97,16.98-26.96,8.47,5.96,2.48,15.7-3,21.47-.16.74,1.05.68,1.48.49,1.86-.85,7.82-6.64,9.47-8.51,4.03-4.57,7.58-10.77,10.14-16.31h3.25s1.64,2.31,1.64,2.31c-2.59,6.94-7.34,12.84-11.99,18.52,9.22-3.89,19.52-6.03,28.99-1.5,8.19,3.91,12.11,15.67,20.96,18.51-.05,4.76-8.54,3.09-11.8,2.29-4.45-1.08-8.16-4.54-11.68-7.3l-3.99,6.96c-5.74-10.83-18.86-10.18-29.71-8.71-7.41,1-15.2,5.57-22.53,7.44-21.92,5.58-46.04-.47-62.65-15.68-1.62,2.53-1.4,5.63-2.59,8.39-3.75,8.68-16.7,11.22-19.89,1.12,3.57-2.77,7.01-.66,9.86-5.15,7.68-12.11-4.45-29.44-3.86-42.3-8.13,4.3-13.48-.75-14.98-8.98,1.24-1.06,7.04,7.46,13.03,1.53,3.14-3.11,6.01-14.72,9.14-19.81,3.44-5.6,8.27-9.51,12.78-14.18-27.18,1.93-48.25,23.57-54.93,49.43,6.58-6.21,14.63-7.12,16.96,3-6.7-3.24-15.09.89-16.96,7.99,10.24-7.7,22.24-2.82,22.96,9.98-2.86-.14-4.63-2.46-7.55-2.92-8.87-1.41-13.13,2.29-20.41,5.94l8.69,2.78c7.36,4.18,9.23,13.08,1.78,18.17-3.6-1.26-1.71-4.73-5.53-7.44-12.26-8.68-28.72,6.33-40.71,9.14-18.02,4.23-37.28.85-51.14-11.68,1.36,6.77-4.02,16.43-11.48,16.05-1.52-.08-8.31-2.15-6.51-4.05,7.74-1.59,9.79-8.91,9.98-15.99-7.31,9.09-17.1,6.38-20.96-3.99.82-.78,8.25,5.98,13.83-1.66,6.69-9.17,1.72-18.97,3.6-29.35,2.38-13.1,18.19-24.4,31.06-24.93,6.59-.27,11.32,3.78,14.49-5.43,1.19-3.47.08-6.91,2.44-9.51,4.56,2.64,8.34,6.2,7.5,11.96.39.41,10.45-2.23,10.98-2.51,2.11-1.12,2.35-7.16,4.5-4.5,7.01,8.69-6.49,23.27-16.49,20.98l1.01,7.99c19.06-6.21,19.53,14.61,33.52,19.95-3.84,11.56-18.66,12.56-28.04,7.14-4.69,9.77-15.57,19.61-27.28,16.18-1.35-.4-7.79-3.85-6.16-5.31,6.37.53,10.52-7.27,9.99-12.99-10.71,1.26-21.86-2.23-24.92-13.41,2.04-2.48,5.17-1.1,8.31-2.69,5.03-2.54,9.2-10.63,15.57-12.39,5.9-1.62,7.89.98,13.01,2.52-2.36-17.18-28.2-13.38-37.45-3.98-7.67,7.79-9.97,27.41,1.94,32.03,4.67,1.81,9.59-2.4,13.53,2.44-4.27,7.92-11.51,7.79-17.97,2.46,7.85,20.64,50.68,31.5,54.95,3,4.36,2.82,6.96,9.25,2.99,13.49-.16.75.96.64,1.47.48,36.74-11.62,34.17-68.92-.16-85.68-14.26-6.96-42.08-11.82-39.28,11.8-7.57,1.17-12.66-7.94-7.99-13.96-2.2-1.69-12.61,11.51-14.15,14.3-1.98,3.61-4.72,8.61-2.83,12.64-10.83-4.38-2.25-17.65,3.99-22.46.16-.74-1.05-.68-1.48-.49-2.29,1.04-11.08,9.61-13.01,11.96-3.4,4.13-5.22,9.2-8.04,12.96-2.08,2.77-4.09,1.55-6.41-.46l11.96-18.47c-10.74,4.04-22.74,5.12-32.46-2.01l-16.5-17.46c8.8-3.75,17.65.64,23.49,7.47,1.1-2.56,1.47-6.41,4.98-6.98,3.66,8.61,12.57,9.31,21.05,9.03,13.68-.46,25.01-8.61,38.03-9.91,18.28-1.83,36.81,2.49,51.32,13.86-2.02-5.48-7.87-9.24-13-11.45-.98-.42-9.23-1.42-6.97-3.51,11.31-5.3,19.4,1.09,24.48,10.98,3.2-15.08,21.09-16.99,27.47-3.02-28.26-3.96-12.25,20.35-11.98,35.96,3.72-3.58,8.71-18.62,6.5-22.98-1.21-2.39-5.33-1.17-4.5-3.46,2.3-6.34,14.75-.65,13.47,6.47,2.62-2.63,6.23-8.95,6.47-12.6.27-4.11-2.51-5.76-2.96-9.36,7.05.79,10.43,6.23,8.5,12.99,11.31-6.84,24.01-10.9,37.09-12.86,15.81-2.37,35.28-4.26,50,2.68l12.3,8.16c-1.11-7.05,4.42-16.51,12.25-15.77,2.22.21,6.06,2.04,5.73,4.78ZM343.65,51.37v-14.48c0-1.79,3.86-7.58,4.99-9.48-2.06-2.05-5.56,7.32-5.89,8.59-1.02,3.99-2.85,12.67.89,15.37ZM335.65,54.38c-5.36,2.32-15.68-16.05-17.98-13.98,5.18,5.53,6.68,13.01,14.72,14.74,1.01.22,3.5,1.01,3.25-.76ZM367.62,46.39c-4.84.86-8.29,5.64-12.28,8.18l-7.69,2.78c9.72,2.1,13.5-5.74,19.97-10.96ZM198.79,57.37l-7.51,1.96-10.46,9c4.64.11,7.3-4.49,10.65-6.82l7.32-4.15ZM231.76,75.33c-5.67-4.78-8.28-15.95-16.98-14.96.83,1.72,3.23,1.86,5.02,3.46,1.63,1.46,10.19,13.07,11.96,11.5ZM204.79,63.36v15.48c0,2.67-4.39,7.31-5.99,9.48,7.47-1.96,8.77-15.14,8.02-21.5-.18-1.5-.19-3.08-2.03-3.45Z"/>
      <path class="cls-1" d="M26.98,15.42C44.22,2.33,71.64.08,90.22,11.61c15.29,9.48,15.42,25.33,37.92,21.54,4.74-.8,2.35,4.26.24,6.26-5.95,5.63-14.03,2.59-19.49-2.01,5.2,16.93-2.62,34.68-19.2,41.23-9.04,3.57-11.08,1.68-19.3,1.68-6.59,0-10.47,9.27-10.47,15.01-5.77-.05-8.5-6.82-8-11.99-4.66,2.48-13.16-.07-12.99,6.99-1.43.27-2.92-.83-3.47-2.01-4.64-9.99,11.02-21.6,20.46-18.97l-2-7.98c-8.14,3.04-14.58-.57-19.41-7.05-3.75-5.02-5.05-13.72-13.55-12.93,3.42-12.79,19.62-13.48,29.42-6.99,4.88-9.29,15.93-17.24,26.82-14.76,1.5.34,7.92,4.14,6.7,5.77-6.81.64-10.26,6.63-10.98,12.99,11.5-1.23,22.64,4.09,24.97,15.97-12.36-2.89-18.43,14.48-29.99,12.59-3.13-.51-5.05-3.12-7.97-3.59,1.19,13.27,17.87,13.64,27.66,10.17,21.07-7.47,19.7-31.71,10.29-48.11l-.15,7.24c-2.78,8.1-10.35,5.7-16.36,2.76.58-5.25,5.88-6.59,10.54-6.01-.97-23.41-34.76-20.73-50.95-15.97,2.45,2.76,9.59,7.15,8.99,11.46-.4,2.83-4.36-.85-5.76-1.22-29.74-7.79-34.5,30.24-27.2,50.66l2.72-6.75c4.3-6.27,12.93-5.14,18.24-.72,1.24,2.56-6.2.72-8.56,2.41-5.52,3.95-2.59,19.59,2.08,24.03,8.06,7.67,29.65,13.71,40.48,12.53.8-.09,2.27-.38,1.96-1.52-8.19-1.35-10.57-15.18-3.48-17.98,1.99-.78,3.91,8.42,7.14,8.81l11.32,4.15c-3.27-2.97-6.85-10.41-2.03-13.51,3.81-2.45,3.01,2.53,5.5,4.57,4.16,3.41,13.01,1.63,17.53-.52,3.66-1.74,7.15-6.26,9.39-9.59,2.46-3.65,4.91-13.09,9.95-11.96,2.86.64-1.92,9.8-2.27,12.65-.75,6.16-.88,17.17,5.85,19.89,1.53.62,6.66.09,6.02,2.95-9.87,12.92-22.05,1.38-22.47-11.46-14.31,15.31-35.22,21.76-55.83,18.85-5.84-.82-13.86-4.41-19.1-3.93-5.95.55-12.26,8.88-19.47,7.03-2.38-2.27,8.3-13.04,11.98-12.47-8.29-7.06-19.27-12.76-29.96-7.5-.33-7.11,3.42-11.72,10.67-10.16,3.34.72-.44-3.12-.88-4.12-4.37-10.14-6.95-20.88-5.7-32.04.51-4.56,3.71-10.36,3.96-14.1.28-4.21-1.93-17.1-4.61-20.42L0,7.95c8-7.39,17.08-.68,18.47,8.47,4.22-5.29-.65-11.13-2.49-15.97,9.75-1.07,14.01,6.13,10.99,14.97ZM65.93,28.42c-2.18-2.03-6.32,7.45-6.71,8.76-1.66,5.49-1.37,10.52-1.27,16.19,3.35-2.23,1.53-8.07,2-11.47.77-5.6,2.56-9.09,5.99-13.48ZM48.94,53.38c-4.41.71-13.35-17.31-15.98-14.98,5.16,3.73,6.99,13.86,12.73,15.71.95.31,3.49,1.05,3.25-.73ZM84.9,48.39c-5.26.16-9.18,4.44-13.28,7.18l-7.69,2.79,9.26-1.21,11.71-8.75Z"/>
      <path class="cls-1" d="M438.55,58.86c1.62-10.36,15.54-22.52,25.71-24.23,13-2.18,22.88,4.61,24.25-15.21,5.22.46,9.6,7.3,6.99,11.97,6.43-1.53,12.95.56,15.48-6.96,8.61,12.16-6.88,22.51-18.47,21.44l1.99,7.51c20.42-5.4,18.25,17.4,32.97,20.97-4.44,13.04-18.8,11.29-29.31,7.06-6.52,8.47-16.22,17.73-27.61,13.38-1.11-.42-8.31-3.91-5.43-5.46,6.7-.5,10.29-6.86,10.4-12.99-10.05,2.51-24.85-4.06-23.96-15.98,14.78,2.57,21.06-21.82,36.95-7.99-.5-15.5-21.11-14.26-31.49-9.02-16.66,8.41-15.44,32.51-5.96,45.96.82-2.08-.89-3.54-.35-6.24,1.55-7.64,12.52-7.31,16.81-2.24-4.16,7.45-15.11,1.05-9.53,12.54,7.2,14.82,37.45,13.07,50.5,7.92l-7.01-4.46-2.97-7.51c4.89,1.19,7.03,3.18,12.5,3.06,24.91-.54,26.75-33.02,20.45-50.99l-2.98,6.48c-5.01,6.47-12.48,5.21-17.98-.01l7.37-1.61c1.98-1.13,2.59-2.63,3.34-4.63,9.1-24.32-30.47-33.92-47.68-32.18,1.26,1.8,3.56,2.08,5.53,3.95,5.29,5.01,4.21,10.53-1.06,15.01l-5.54-7.42c-3.49-2.52-7.42-4.79-11.93-4.54,4.03,5.06,5.19,9.71-.5,13.95-3.48-10.56-19.43-8.33-26.01-2.01-3.58,3.43-10.59,19.11-13.96,18.77l-2.2-2.24c4.16-6.28,5.94-24.07.47-29.22-1.65-1.55-9.4-1.74-8.73-4.72,9.61-12.84,21.91-.75,22.46,11.45,14.57-13.73,31.7-20.5,51.94-18.95,6,.46,18.84,5.17,22.77,4.76,3.64-.37,17-10.45,19.7-7.77.16,6.47-6.04,11.45-11.98,12.47,8.17,7.71,18.83,12.49,29.96,8.5.67,4.3-2.02,9.32-6.58,9.96-2.17.31-6.17-1.92-5.38.5,2.68,8.21,7.06,12.47,7.96,23,1.25,14.59-5.49,24.06-2.74,38.69,1.18,6.3,4.37,10.78,10.76,12.23-3.69,7.64-11.96,4.73-16-1-1.46-2.07-1.35-4.51-2.98-5.49-2.01,4.76-.56,9.81,2.97,13.47-8.51,5.41-14.56-4.64-10.97-12.48-.69-.69-8.38,4.74-10,5.47-14.96,6.7-34.1,7.34-48.97.06-16.16-7.91-23.41-31.45-44.91-23.51,1.2-11.68,13.96-12.15,21.48-4.99,1.59-.67-.51-2.3-.51-2.49,0-4.67-.66-11.73,0-15.98ZM483.5,56.38l-8.04,1.43-10.93,8.53c4.64.2,7.68-4.09,11.28-6.19,2.44-1.43,6.14-1.66,7.69-3.78ZM515.48,76.33c-6.54-5.33-7.87-17.29-17.98-15.96.97,1.65,3.42,1.48,5.5,2.98,4.96,3.57,5.97,12.12,12.48,12.98ZM481.51,87.31c9.81-3.67,9.1-17.29,8.98-25.95-1.47-.08-1.76,3.58-1.87,4.61-.92,8.63.36,14.7-7.11,21.34Z"/>
      <path class="cls-1" d="M415.66,53.28l3.32,1.02c1.85-.37.59-8.6,9.85-7.71,13.58,1.31,7.21,22.79-5.26,13.76-1.86,15.59-22.82,8.49-14-3.98-18.1-1.75-7.31-23.66,4.54-13.04,6.09,5.47-.27,7.48,1.54,9.94Z"/>
      <path class="cls-1" d="M138.85,59.35c15.45-1.13,9.83,20.78-1.37,14.86-.82-.43-5.94-5.29-6.19-5.86-.33-.74,2.81-4.83,1.57-6.99l-4.95.05c.08,12.41-19.76,6.46-15.27-3.79,4.15-9.47,12.67-2.67,13.22-3.25.64-16.06,22.26-7.82,12.99,4.98Z"/>
      <path class="cls-1" d="M27.96,102.29c-6.39-1.23-16.62-3.05-18.99,4.99-2.9,2.02-5.68-7.11,1.64-10.85,6.99-3.57,19.71,3.64,17.35,5.86Z"/>
    </g>
  </g>
</svg>