<?xml version="1.0" encoding="UTF-8"?>
<svg id="Layer_1" xmlns="http://www.w3.org/2000/svg" version="1.1" viewBox="0 0 556.5 276">
  <!-- Generator: Adobe Illustrator 29.8.5, SVG Export Plug-In . SVG Version: 2.1.1 Build 2)  -->
  <defs>
    <style>
      .st0 {
        fill: #554b41;
      }

      .st1 {
        fill: none;
        stroke: #a6a29c;
        stroke-miterlimit: 10;
        stroke-width: 2.8px;
      }
    </style>
  </defs>
  <path class="st0" d="M548.3,151.9c0-.9-.3-1.8-1-2.5s-1.5-1.3-2.5-1.9c-1-.6-2.1-1.2-3.3-1.7-1.2-.6-2.3-1.3-3.3-2-1-.8-1.8-1.7-2.5-2.8s-1-2.4-1-3.9.3-2.1.8-3,1.2-1.7,2.1-2.3c.9-.6,1.9-1.1,3.1-1.4,1.2-.4,2.6-.5,4-.5s3.8.2,5.5.5,3.2.7,4.5,1.3c0,1.2-.4,2.4-.9,3.8-.4,1.3-.9,2.5-1.3,3.6h-1.9l-2.3-5.6c-.4-.2-.9-.3-1.4-.3s-1-.1-1.6-.1c-1.1,0-1.9.3-2.5,1-.5.6-.8,1.3-.8,2.1s.3,1.7,1,2.4,1.5,1.3,2.5,1.9c1,.6,2.1,1.2,3.3,1.7,1.2.6,2.3,1.3,3.3,2s1.9,1.6,2.5,2.6c.7,1,1,2.2,1,3.7,0,2.5-1,4.5-3.1,6-2,1.4-4.8,2.1-8.2,2.1s-3.6-.2-5.4-.5c-1.9-.4-3.5-.9-4.8-1.5,0-1.3.4-2.6.9-4,.5-1.3,1.1-2.6,1.7-3.6h1.9l2.7,6c.4.3.8.5,1.3.5h1.4c1.1,0,2-.3,2.9-.9.9-.6,1.3-1.5,1.3-2.6h0Z"/>
  <path class="st0" d="M527.8,149.9v2.1c0,.6,0,1.2.2,1.9l3.8.5v1.9c-.4.2-1,.4-1.8.7-.7.2-1.5.4-2.4.7-.8.2-1.6.3-2.4.4-.8.1-1.5.3-2.1.3h-1.9c-.4-.8-.6-1.7-.7-2.5,0-.8,0-1.9-.2-3.1h-.3c-.2.7-.5,1.4-.9,2.1-.4.7-1,1.3-1.7,1.8s-1.4.9-2.4,1.3c-.9.3-1.9.5-3.1.5s-2.3-.2-3.3-.5c-1-.4-1.9-.9-2.7-1.5-.8-.7-1.4-1.4-1.8-2.4-.4-.9-.7-2-.7-3.2s.3-3,.9-4c.6-1.1,1.6-1.9,2.9-2.6,1.3-.7,3.1-1.2,5.1-1.5,2.1-.3,4.7-.6,7.7-.7.3-3.1.2-5.4-.4-6.9-.5-1.5-1.7-2.2-3.6-2.2s-2.2.2-3.1.5l-2.6,6.6h-2.4c-.3-.4-.6-.9-.9-1.5-.3-.6-.5-1.2-.8-1.8-.2-.7-.4-1.3-.6-2,0-.7-.3-1.3-.3-1.9,1.4-.9,3.2-1.7,5.4-2.2s4.5-.8,6.9-.8,3.8.2,5.1.7c1.3.4,2.3,1.1,3.1,1.9.8.8,1.3,1.7,1.6,2.7.3,1.1.4,2.2.4,3.4,0,2.2,0,4.2-.2,6,0,1.7,0,3.6,0,5.4h.3ZM515.5,154.1c.8,0,1.4-.1,2-.4.5-.3,1-.6,1.4-1s.7-.8.9-1.3.4-.9.5-1.3v-5.5c-1.7,0-3.1.1-4.2.3-1.1.2-1.9.5-2.6.9-.6.4-1.1.9-1.3,1.6-.2.6-.3,1.4-.3,2.3,0,1.4.3,2.5,1,3.2.7.8,1.6,1.1,2.7,1.1h-.1Z"/>
  <path class="st0" d="M500.7,157.8h-15.1v-2.1c1.2-.6,2.4-1,3.6-1.3v-33.1l-4.2-.4v-2.1c.5-.2,1.1-.4,2-.7.8-.2,1.7-.4,2.7-.5,1-.2,2-.3,2.9-.4,1,0,1.9-.3,2.6-.3h1.9v37.7c1.2.3,2.4.7,3.6,1.3v2.1-.2Z"/>
  <path class="st0" d="M453.2,144.2c0-2.2.3-4.2,1-6s1.7-3.3,2.9-4.5c1.3-1.2,2.8-2.2,4.6-2.8,1.8-.7,3.8-1,6.1-1s4.7.4,6.6,1.1c1.9.7,3.4,1.7,4.5,3,1.2,1.2,2.1,2.8,2.6,4.5.5,1.8.8,3.7.8,5.7s-.3,4.2-1,6c-.7,1.7-1.6,3.2-2.9,4.5-1.2,1.2-2.8,2.2-4.6,2.8-1.8.7-3.8,1-6.1,1s-4.6-.3-6.5-1c-1.8-.7-3.3-1.7-4.5-3s-2.1-2.8-2.7-4.5c-.6-1.8-.9-3.7-.9-5.8h.1ZM461.6,144.2c0,1.6,0,3.2.3,4.5.2,1.3.6,2.5,1.1,3.4s1.2,1.7,2.1,2.2c.9.5,2,.8,3.4.8s1.5-.2,2.2-.5c.7-.4,1.2-1,1.7-1.9s.8-2,1-3.4c.3-1.4.4-3.2.4-5.2s0-3.2-.3-4.5-.5-2.5-1-3.4-1.1-1.7-2-2.2c-.8-.5-1.9-.8-3.2-.8s-1.8.2-2.5.6c-.7.4-1.3,1-1.8,1.9-.5.8-.8,2-1.1,3.4-.2,1.4-.3,3.1-.3,5.1h0Z"/>
  <path class="st0" d="M450.8,157.8h-14.5v-2.1c.4-.3.9-.5,1.4-.7s1-.4,1.6-.6v-11c0-3.1-.3-5.4-.9-6.9s-1.7-2.2-3.5-2.2-2.7.5-3.7,1.5-1.7,2.1-2.2,3.4v15.2c.6.1,1.1.3,1.5.5.5.2,1,.5,1.5.8v2.1h-14.5v-2.1c1.1-.6,2.3-1,3.6-1.3v-33.1l-4.2-.4v-2.1c.5-.2,1.2-.4,2.1-.7.9-.2,1.8-.4,2.7-.5.9-.2,1.9-.3,2.8-.4s1.8-.3,2.5-.3h1.9v19.3h0c.4-.8.9-1.6,1.5-2.4.6-.8,1.3-1.4,2.1-2,.8-.6,1.7-1,2.6-1.4.9-.3,1.9-.5,2.9-.5,1.5,0,2.8.2,3.9.5,1.2.3,2.1.9,2.9,1.8s1.3,2.1,1.8,3.6c.4,1.5.6,3.3.6,5.6v13.1c.6.1,1.2.3,1.9.5s1.2.5,1.7.8v2.1h0Z"/>
  <path class="st0" d="M414.9,153.4c-.3.7-.7,1.4-1.3,2-.6.6-1.3,1.1-2.1,1.6-.8.5-1.7.8-2.8,1.1-1,.3-2.1.4-3.2.4-2.4,0-4.5-.3-6.2-1s-3.1-1.7-4.3-2.9c-1.1-1.3-2-2.8-2.5-4.5-.5-1.8-.8-3.8-.8-5.9,0-4.6,1.3-8.2,3.8-10.6,2.6-2.5,6.2-3.7,10.8-3.7s3.4.2,4.9.6c1.5.4,2.7.8,3.7,1.3,0,.6-.2,1.3-.3,2.1-.1.7-.3,1.5-.4,2.2s-.3,1.5-.5,2.2-.4,1.3-.7,1.7h-2.7l-2.3-6.5c-.3-.2-.5-.3-.8-.4-.3-.1-.7-.2-1.3-.2-.9,0-1.8.2-2.5.5s-1.3.9-1.8,1.8c-.5.8-.8,1.9-1.1,3.3-.2,1.4-.3,3.1-.3,5.1s.2,2.9.5,4.2c.3,1.2.8,2.3,1.5,3.3.7.9,1.5,1.6,2.6,2.2,1,.5,2.2.8,3.6.8s2.4-.2,3.3-.5c.9-.4,1.7-.8,2.4-1.3l.9,1.1h-.1Z"/>
  <path class="st0" d="M388.6,157.8h-15.1v-2.1c.5-.3,1.1-.5,1.7-.7s1.2-.4,1.9-.6v-20l-3.6-.4v-2.1c.5-.2,1.2-.4,2-.7.8-.2,1.7-.4,2.6-.5.9-.2,1.8-.3,2.7-.4.9-.1,1.6-.3,2.3-.3h1.9v24.6c.7.2,1.4.4,2,.6.6.2,1.1.4,1.6.7v2.1-.2ZM376.2,121.5c0-1.3.4-2.3,1.3-3s2-1.1,3.4-1.1,2.5.4,3.4,1.1,1.3,1.7,1.3,3-.4,2.2-1.3,3c-.9.7-2,1.1-3.4,1.1s-2.5-.4-3.4-1.1-1.3-1.7-1.3-3Z"/>
  <path class="st0" d="M357.2,119.6h13.6v2.1c-.7.5-1.5,1-2.3,1.5-.8.4-1.6.7-2.4.9v34.5h-4.6l-19.3-27.9-2.2-4.2h-.2l.5,4.4v22.8c.7.2,1.5.5,2.4.9s1.7.8,2.3,1.3v2.1h-13.5v-2.1c.7-.4,1.4-.8,2.1-1.2.8-.4,1.6-.7,2.5-1v-29.9c-.7-.3-1.5-.6-2.2-1s-1.4-.7-2-1.1v-2h11.8l15.7,22.7,2.5,4.7h.2l-.3-4.7v-18.3c-.9-.3-1.7-.6-2.6-1-.8-.4-1.5-.9-2.1-1.4v-2.1h.1Z"/>
  <path class="st0" d="M304.9,154c0-1.3.4-2.4,1.3-3.2.8-.8,2-1.2,3.3-1.2s2.5.4,3.4,1.2,1.3,1.9,1.3,3.2-.4,2.4-1.3,3.2-2,1.1-3.4,1.1-2.5-.4-3.3-1.1c-.8-.8-1.3-1.9-1.3-3.2Z"/>
  <path class="st0" d="M280,131.8c1.4-.9,2.8-1.5,4.4-1.9v-4.4c.2-.2.6-.4,1.1-.6s1.1-.4,1.7-.5c.6-.2,1.2-.3,1.8-.5.6,0,1.1-.3,1.4-.3h1.9v6.9h7.2v3.4h-7.2v14.2c0,2.3.3,3.8.8,4.7.6.9,1.5,1.3,2.8,1.3s1.4,0,2.2-.1c.8-.1,1.6-.3,2.3-.5l.4,1.8c-.3.3-.8.7-1.5,1-.6.4-1.3.7-2.2,1-.8.3-1.7.6-2.7.8-.9.2-2,.3-3,.3-2.4,0-4.1-.6-5.3-1.9-1.2-1.2-1.7-3.2-1.7-6v-16.7h-4.4v-2.1h0Z"/>
  <path class="st0" d="M257.7,153.3c.4.4,1,.8,1.7,1.1s1.7.5,2.9.5c2,0,3.7-.5,5-1.5,1.3-1.1,2-2.5,2-4.4s-.4-2.5-1.3-3.4c-.8-.9-1.9-1.7-3.2-2.5-1.3-.8-2.7-1.5-4.2-2.2-1.5-.8-2.9-1.7-4.2-2.7-1.3-1-2.4-2.2-3.3-3.6-.8-1.4-1.3-3.2-1.3-5.2s.3-3.3,1-4.6c.7-1.3,1.5-2.4,2.7-3.2,1.2-.9,2.5-1.5,4.1-1.9s3.3-.7,5.1-.7,4.3.2,6.2.5c1.9.3,3.7.8,5.2,1.4,0,.7-.1,1.6-.2,2.5,0,.9-.2,1.9-.3,2.8-.1.9-.3,1.8-.5,2.6-.1.8-.3,1.5-.4,2h-2.2l-2.5-7.5c-.4-.2-1.1-.4-2-.6-.8-.2-1.7-.3-2.6-.3-1.5,0-2.8.4-3.9,1.2-1.1.8-1.6,2-1.6,3.5s.4,2.6,1.3,3.6c.9.9,2,1.8,3.3,2.6s2.7,1.6,4.3,2.4,3,1.7,4.3,2.7,2.4,2.2,3.3,3.6c.9,1.3,1.3,3,1.3,5,0,3.6-1.2,6.5-3.7,8.5-2.4,2-6.1,3-10.8,3s-2.4,0-3.6-.2c-1.2-.1-2.3-.3-3.3-.6-1.1-.3-2-.5-2.8-.8s-1.4-.6-1.8-.9c0-.8.1-1.7.3-2.7.1-1,.3-2,.4-2.9.2-1,.4-1.9.5-2.8.2-.9.4-1.6.5-2.3h2.2l2.2,8h-.1Z"/>
  <path class="st0" d="M231.5,116.7c1.5,0,2.8,0,4,.4s2.1.5,2.7.8c-.1,1.2-.3,2.4-.7,3.7-.4,1.3-.7,2.3-1,3.2h-1.9l-2.4-5.2c-.9,0-1.7,0-2.4.3-.6.2-1.1.6-1.5,1.1-.4.6-.6,1.4-.8,2.5-.2,1.1-.3,2.4-.3,4.2v2.7h5.8v3.4h-5.8v20.5c1.9.2,3.6.7,5.2,1.3v2.1h-16.7v-2.1c1.1-.7,2.3-1.1,3.6-1.3v-20.5h-4.2v-2.1c1.3-.8,2.7-1.4,4.2-1.8v-1.9c0-2.3.3-4.1.9-5.6.7-1.5,1.5-2.7,2.6-3.5,1.1-.9,2.4-1.5,3.8-1.8,1.5-.3,3.1-.5,4.8-.5h0Z"/>
  <path class="st0" d="M183.2,144.2c0-2.2.3-4.2,1-6s1.7-3.3,2.9-4.5c1.3-1.2,2.8-2.2,4.6-2.8,1.8-.7,3.8-1,6.1-1s4.7.4,6.6,1.1c1.9.7,3.4,1.7,4.5,3,1.2,1.2,2.1,2.8,2.6,4.5.5,1.8.8,3.7.8,5.7s-.3,4.2-1,6c-.7,1.7-1.6,3.2-2.9,4.5-1.2,1.2-2.8,2.2-4.6,2.8-1.8.7-3.8,1-6.1,1s-4.6-.3-6.5-1c-1.8-.7-3.3-1.7-4.5-3s-2.1-2.8-2.7-4.5c-.6-1.8-.9-3.7-.9-5.8h0ZM191.7,144.2c0,1.6,0,3.2.3,4.5.2,1.3.6,2.5,1.1,3.4s1.2,1.7,2.1,2.2c.9.5,2,.8,3.4.8s1.5-.2,2.2-.5c.7-.4,1.2-1,1.7-1.9.5-.9.8-2,1-3.4.3-1.4.4-3.2.4-5.2s-.1-3.2-.3-4.5c-.2-1.3-.5-2.5-1-3.4s-1.1-1.7-2-2.2c-.8-.5-1.9-.8-3.2-.8s-1.8.2-2.5.6c-.7.4-1.3,1-1.7,1.9-.5.8-.8,2-1.1,3.4-.2,1.4-.3,3.1-.3,5.1h-.1Z"/>
  <path class="st0" d="M166.2,157.8h-14.5v-2.1c.4-.3.9-.5,1.4-.7s1-.4,1.6-.6v-11c0-3.1-.3-5.4-.9-6.9-.6-1.5-1.7-2.2-3.5-2.2s-2.7.5-3.7,1.5-1.7,2.1-2.2,3.4v15.2c.6.1,1.1.3,1.5.5.5.2,1,.5,1.5.8v2.1h-14.5v-2.1c1.1-.6,2.3-1,3.6-1.3v-33.1l-4.2-.4v-2.1c.5-.2,1.2-.4,2.1-.7.9-.2,1.8-.4,2.7-.5.9-.2,1.9-.3,2.8-.4.9,0,1.8-.3,2.5-.3h1.9v19.3h0c.4-.8.9-1.6,1.5-2.4.6-.8,1.3-1.4,2.1-2s1.7-1,2.6-1.4c.9-.3,1.9-.5,2.9-.5,1.5,0,2.8.2,3.9.5,1.2.3,2.1.9,2.9,1.8s1.3,2.1,1.8,3.6c.4,1.5.6,3.3.6,5.6v13.1c.6.1,1.2.3,1.9.5s1.2.5,1.8.8v2.1h-.1Z"/>
  <path class="st0" d="M122.8,151.9c0-.9-.3-1.8-1-2.5s-1.5-1.3-2.5-1.9c-1-.6-2.1-1.2-3.3-1.7-1.2-.6-2.3-1.3-3.3-2-1-.8-1.8-1.7-2.5-2.8s-1-2.4-1-3.9.3-2.1.8-3,1.2-1.7,2.1-2.3c.9-.6,1.9-1.1,3.1-1.4,1.2-.4,2.6-.5,4-.5s3.8.2,5.5.5,3.2.7,4.5,1.3c-.1,1.2-.4,2.4-.9,3.8-.4,1.3-.9,2.5-1.3,3.6h-1.9l-2.3-5.6c-.4-.2-.9-.3-1.4-.3s-1-.1-1.6-.1c-1.1,0-1.9.3-2.5,1-.5.6-.8,1.3-.8,2.1s.3,1.7,1,2.4,1.5,1.3,2.5,1.9c1,.6,2.1,1.2,3.3,1.7,1.2.6,2.3,1.3,3.3,2s1.9,1.6,2.5,2.6c.7,1,1,2.2,1,3.7,0,2.5-1,4.5-3.1,6-2,1.4-4.8,2.1-8.2,2.1s-3.6-.2-5.4-.5c-1.9-.4-3.5-.9-4.8-1.5,0-1.3.4-2.6.9-4,.5-1.3,1.1-2.6,1.7-3.6h1.9l2.7,6c.4.3.8.5,1.3.5h1.4c1.1,0,2-.3,2.9-.9.9-.6,1.3-1.5,1.3-2.6h.1Z"/>
  <path class="st0" d="M105.7,157.8h-15.1v-2.1c.5-.3,1.1-.5,1.7-.7.6-.2,1.2-.4,1.9-.6v-20l-3.6-.4v-2.1c.5-.2,1.2-.4,2-.7.8-.2,1.7-.4,2.6-.5.9-.2,1.8-.3,2.7-.4.9-.1,1.6-.3,2.3-.3h1.9v24.6c.7.2,1.4.4,2,.6.6.2,1.1.4,1.6.7v2.1-.2ZM93.3,121.5c0-1.3.4-2.3,1.3-3,.9-.7,2-1.1,3.4-1.1s2.5.4,3.4,1.1,1.3,1.7,1.3,3-.4,2.2-1.3,3c-.9.7-2,1.1-3.4,1.1s-2.5-.4-3.4-1.1-1.3-1.7-1.3-3Z"/>
  <path class="st0" d="M81.2,136.8c-.4.2-.9.6-1.5,1.1s-1.1,1.3-1.6,2.5v14c.7,0,1.5.2,2.2.4s1.5.5,2.2.9v2.1h-15.9v-2.1c.7-.4,1.3-.6,1.9-.8s1.2-.3,1.8-.5v-20l-3.6-.4v-2.1c.6-.3,1.3-.5,2.1-.7.9-.2,1.8-.4,2.7-.5.9-.2,1.8-.3,2.6-.4.9-.1,1.6-.2,2.2-.3h1.9v7.3h.2c.3-.8.7-1.6,1.3-2.5s1.3-1.7,2-2.4c.8-.7,1.6-1.3,2.5-1.7s1.9-.6,2.8-.6c.4.5.7,1.2,1,2.2.3.9.5,1.8.7,2.6v2.1h-7.5v-.2Z"/>
  <path class="st0" d="M60.6,149.9v2.1c0,.6,0,1.2.2,1.9l3.8.5v1.9c-.4.2-1,.4-1.8.7-.7.2-1.5.4-2.4.7-.8.2-1.6.3-2.4.4-.8.1-1.5.3-2.1.3h-1.9c-.4-.8-.6-1.7-.7-2.5,0-.8,0-1.9-.2-3.1h-.3c-.2.7-.5,1.4-.9,2.1-.4.7-1,1.3-1.7,1.8s-1.4.9-2.4,1.3c-.9.3-1.9.5-3.1.5s-2.3-.2-3.3-.5c-1-.4-1.9-.9-2.7-1.5-.8-.7-1.4-1.4-1.8-2.4-.4-.9-.7-2-.7-3.2s.3-3,.9-4c.6-1.1,1.6-1.9,2.9-2.6,1.3-.7,3.1-1.2,5.1-1.5,2.1-.3,4.7-.6,7.7-.7.3-3.1.2-5.4-.4-6.9-.5-1.5-1.7-2.2-3.6-2.2s-2.2.2-3.1.5l-2.6,6.6h-2.4c-.3-.4-.6-.9-.9-1.5s-.5-1.2-.8-1.8c-.2-.7-.4-1.3-.6-2,0-.7-.3-1.3-.3-1.9,1.4-.9,3.2-1.7,5.4-2.2,2.2-.5,4.5-.8,6.9-.8s3.8.2,5.1.7c1.3.4,2.3,1.1,3.1,1.9.8.8,1.3,1.7,1.6,2.7.3,1.1.4,2.2.4,3.4,0,2.2,0,4.2-.2,6,0,1.7,0,3.6,0,5.4h.3ZM48.3,154.1c.8,0,1.4-.1,2-.4.5-.3,1-.6,1.4-1s.7-.8.9-1.3c.2-.5.4-.9.5-1.3v-5.5c-1.7,0-3.1.1-4.2.3s-2,.5-2.6.9-1.1.9-1.3,1.6c-.2.6-.3,1.4-.3,2.3,0,1.4.3,2.5,1,3.2.7.8,1.6,1.1,2.7,1.1h0Z"/>
  <path class="st0" d="M14.1,154.2c1,.1,2,.4,2.9.7,1,.3,1.9.6,2.6.9v2.1H1.4v-2.1c.7-.4,1.4-.7,2.2-1s1.6-.5,2.3-.6v-30.9c-.8,0-1.6-.3-2.4-.6-.8-.3-1.5-.6-2.1-1v-2.1h6.9c1.5,0,3.1,0,5-.2,1.9,0,3.6-.2,5.2-.2s3.8.2,5.6.6c1.9.4,3.5,1,4.9,1.9,1.5.9,2.6,2.1,3.5,3.7.9,1.5,1.3,3.4,1.3,5.6s-.4,4-1.3,5.6c-.8,1.6-2,2.9-3.4,3.9s-3.1,1.8-4.9,2.3c-1.9.5-3.8.7-5.7.7h-3.5c-.4,0-.7,0-.9-.1v10.9h0ZM17,122.7c-.7,0-1.3,0-1.7,0-.4,0-.8,0-1.2.2v16.6c.3.1.8.2,1.5.2h1.6c1,0,1.9-.2,2.8-.5s1.7-.8,2.4-1.5c.7-.7,1.3-1.6,1.7-2.7.4-1.1.7-2.4.7-3.9,0-2.9-.7-5.1-2.1-6.5s-3.3-2.1-5.6-2.1h-.1Z"/>
  <g>
    <polyline class="st1" points="289.1 173.6 289.1 214.1 313.4 225.6 303.7 246 289.1 239.1 289.1 270.1 266.6 270.1 266.6 228.4 243 217.3 252.7 196.9 266.6 203.4 266.6 173.6"/>
    <polygon class="st0" points="281.5 173.6 274.3 173.6 274.3 215.6 256.3 207.1 253.2 213.6 274.3 223.6 274.3 262.5 281.5 262.5 281.5 227 300.1 235.8 303.1 229.2 281.5 219 281.5 173.6"/>
    <polyline class="st1" points="266.6 101.5 266.6 69.9 215.4 69.9 215.4 47.4 266.6 47.4 266.6 5.9 289.1 5.9 289.1 47.4 341.2 47.4 341.2 69.9 289.1 69.9 289.1 101.5"/>
    <polygon class="st0" points="281.5 55 281.5 13.5 274.3 13.5 274.3 55 223.1 55 223.1 62.2 274.3 62.2 274.3 101.5 281.5 101.5 281.5 62.2 333.6 62.2 333.6 55 281.5 55"/>
  </g>
</svg>