<svg width="276" height="44" viewBox="0 0 276 44" fill="none" xmlns="http://www.w3.org/2000/svg">
<path d="M10.8218 0V4.78685H6.59688V9.5737H10.8218V14.0638H0V18.8506H10.8218V25.7724L6.29469 23.1349V28.6622L10.8218 31.2998V43.0817H15.5657V34.0632L20.0928 36.7008V31.1734L15.5657 28.5359V18.8506H26.3875V14.0638H15.5657V9.5737H19.7911V4.78685H15.5657V0H10.8218Z" fill="#554B41"/>
<path d="M273.57 38.2351V30.8794H271.808C271.331 30.8794 270.967 30.9895 270.719 31.2098C270.47 31.4301 270.347 31.6912 270.351 31.9931C270.347 32.2991 270.466 32.5582 270.706 32.7703C270.951 32.9784 271.31 33.0824 271.783 33.0824H274.439V34.8448H271.783C270.98 34.8448 270.284 34.7225 269.697 34.4777C269.109 34.2329 268.656 33.8922 268.338 33.4557C268.02 33.0151 267.863 32.5031 267.867 31.9197C267.863 31.3077 268.02 30.7713 268.338 30.3103C268.656 29.8452 269.111 29.4841 269.703 29.2271C270.298 28.966 271 28.8354 271.808 28.8354H276V38.2351H273.57ZM267.598 38.2351L270.211 33.3394H272.701L270.094 38.2351H267.598Z" fill="#554B41"/>
<path d="M260.746 38.4119C260.146 38.4119 259.612 38.3079 259.143 38.0998C258.673 37.8877 258.302 37.5756 258.029 37.1635C257.76 36.7474 257.625 36.2293 257.625 35.6091C257.625 35.0869 257.721 34.6484 257.913 34.2934C258.104 33.9385 258.365 33.6529 258.696 33.4367C259.026 33.2205 259.402 33.0573 259.822 32.9471C260.246 32.837 260.691 32.7595 261.156 32.7146C261.703 32.6575 262.143 32.6044 262.478 32.5555C262.812 32.5024 263.055 32.4249 263.206 32.3229C263.357 32.2209 263.432 32.07 263.432 31.8701V31.8334C263.432 31.4458 263.31 31.1459 263.065 30.9338C262.825 30.7217 262.482 30.6156 262.037 30.6156C261.568 30.6156 261.195 30.7196 260.917 30.9277C260.64 31.1317 260.456 31.3887 260.367 31.6987L257.955 31.5029C258.078 30.9318 258.319 30.4381 258.678 30.022C259.037 29.6018 259.5 29.2795 260.067 29.0551C260.638 28.8266 261.299 28.7124 262.049 28.7124C262.572 28.7124 263.071 28.7736 263.549 28.896C264.03 29.0184 264.456 29.2081 264.828 29.4651C265.203 29.7221 265.499 30.0526 265.715 30.4565C265.931 30.8563 266.039 31.3356 266.039 31.8946V38.2344H263.567V36.931H263.494C263.343 37.2247 263.141 37.4838 262.888 37.7081C262.635 37.9284 262.331 38.1018 261.976 38.2283C261.621 38.3507 261.211 38.4119 260.746 38.4119ZM261.493 36.6127C261.876 36.6127 262.215 36.5373 262.508 36.3863C262.802 36.2313 263.033 36.0232 263.2 35.7621C263.367 35.501 263.451 35.2052 263.451 34.8748V33.8773C263.369 33.9303 263.257 33.9793 263.114 34.0242C262.976 34.065 262.818 34.1037 262.643 34.1404C262.468 34.1731 262.292 34.2037 262.117 34.2322C261.941 34.2567 261.782 34.2792 261.639 34.2996C261.333 34.3444 261.066 34.4158 260.838 34.5137C260.609 34.6116 260.432 34.7442 260.305 34.9115C260.179 35.0747 260.116 35.2787 260.116 35.5235C260.116 35.8784 260.244 36.1497 260.501 36.3374C260.762 36.521 261.093 36.6127 261.493 36.6127Z" fill="#554B41"/>
<path d="M247.098 38.2351L247.086 36.1667H247.398C247.618 36.1667 247.808 36.1136 247.967 36.0076C248.13 35.8974 248.265 35.7199 248.371 35.4752C248.477 35.2304 248.561 34.906 248.622 34.5022C248.683 34.0942 248.724 33.5924 248.744 32.9967L248.897 28.8354H256.045V38.2351H253.56V30.8855H251.241L251.094 33.7556C251.058 34.543 250.962 35.2202 250.807 35.7873C250.656 36.3543 250.446 36.8194 250.176 37.1825C249.907 37.5415 249.583 37.8067 249.203 37.9781C248.824 38.1494 248.383 38.2351 247.881 38.2351H247.098Z" fill="#554B41"/>
<path d="M241.328 38.418C240.377 38.418 239.555 38.2161 238.861 37.8122C238.172 37.4042 237.64 36.8371 237.264 36.1109C236.889 35.3807 236.701 34.5341 236.701 33.5713C236.701 32.6004 236.889 31.7518 237.264 31.0256C237.64 30.2953 238.172 29.7282 238.861 29.3244C239.555 28.9164 240.377 28.7124 241.328 28.7124C242.278 28.7124 243.098 28.9164 243.788 29.3244C244.481 29.7282 245.016 30.2953 245.391 31.0256C245.766 31.7518 245.954 32.6004 245.954 33.5713C245.954 34.5341 245.766 35.3807 245.391 36.1109C245.016 36.8371 244.481 37.4042 243.788 37.8122C243.098 38.2161 242.278 38.418 241.328 38.418ZM241.34 36.3986C241.772 36.3986 242.133 36.2762 242.423 36.0314C242.713 35.7825 242.931 35.4439 243.078 35.0155C243.229 34.5872 243.304 34.0996 243.304 33.553C243.304 33.0063 243.229 32.5188 243.078 32.0904C242.931 31.662 242.713 31.3234 242.423 31.0745C242.133 30.8257 241.772 30.7013 241.34 30.7013C240.903 30.7013 240.536 30.8257 240.238 31.0745C239.945 31.3234 239.722 31.662 239.571 32.0904C239.424 32.5188 239.351 33.0063 239.351 33.553C239.351 34.0996 239.424 34.5872 239.571 35.0155C239.722 35.4439 239.945 35.7825 240.238 36.0314C240.536 36.2762 240.903 36.3986 241.34 36.3986Z" fill="#554B41"/>
<path d="M227.37 38.2351V28.8354H229.977V32.4827H230.711L233.269 28.8354H236.329L233.006 33.4985L236.366 38.2351H233.269L230.95 34.8999H229.977V38.2351H227.37Z" fill="#554B41"/>
<path d="M219.327 34.7959L222.711 28.8354H225.281V38.2351H222.796V32.2563L219.425 38.2351H216.836V28.8354H219.327V34.7959Z" fill="#554B41"/>
<path d="M204.027 38.235V25.7021H206.677V30.8732H212.056V25.7021H214.7V38.235H212.056V33.0579H206.677V38.235H204.027Z" fill="#554B41"/>
<path d="M195.535 38.2351V30.8794H193.773C193.295 30.8794 192.932 30.9895 192.683 31.2098C192.435 31.4301 192.312 31.6912 192.316 31.9931C192.312 32.2991 192.431 32.5582 192.671 32.7703C192.916 32.9784 193.275 33.0824 193.748 33.0824H196.404V34.8448H193.748C192.945 34.8448 192.249 34.7225 191.662 34.4777C191.074 34.2329 190.621 33.8922 190.303 33.4557C189.985 33.0151 189.828 32.5031 189.832 31.9197C189.828 31.3077 189.985 30.7713 190.303 30.3103C190.621 29.8452 191.076 29.4841 191.668 29.2271C192.263 28.966 192.965 28.8354 193.773 28.8354H197.965V38.2351H195.535ZM189.562 38.2351L192.176 33.3394H194.666L192.059 38.2351H189.562Z" fill="#554B41"/>
<path d="M179.06 38.2351L179.048 36.1667H179.36C179.58 36.1667 179.77 36.1136 179.929 36.0076C180.092 35.8974 180.227 35.7199 180.333 35.4752C180.439 35.2304 180.523 34.906 180.584 34.5022C180.645 34.0942 180.686 33.5924 180.706 32.9967L180.859 28.8354H188.007V38.2351H185.522V30.8855H183.203L183.056 33.7556C183.019 34.543 182.924 35.2202 182.769 35.7873C182.618 36.3543 182.407 36.8194 182.138 37.1825C181.869 37.5415 181.545 37.8067 181.165 37.9781C180.786 38.1494 180.345 38.2351 179.843 38.2351H179.06Z" fill="#554B41"/>
<path d="M173.595 38.418C172.628 38.418 171.796 38.2222 171.098 37.8305C170.404 37.4348 169.87 36.8759 169.495 36.1538C169.119 35.4276 168.932 34.5688 168.932 33.5774C168.932 32.6106 169.119 31.762 169.495 31.0317C169.87 30.3014 170.398 29.7323 171.08 29.3244C171.765 28.9164 172.569 28.7124 173.491 28.7124C174.111 28.7124 174.688 28.8124 175.223 29.0123C175.761 29.2081 176.23 29.5039 176.63 29.8996C177.034 30.2953 177.348 30.7931 177.572 31.3928C177.797 31.9884 177.909 32.686 177.909 33.4857V34.2016H169.972V32.5861H175.455C175.455 32.2107 175.373 31.8783 175.21 31.5886C175.047 31.2989 174.821 31.0725 174.531 30.9093C174.245 30.7421 173.913 30.6584 173.534 30.6584C173.138 30.6584 172.787 30.7502 172.481 30.9338C172.179 31.1133 171.942 31.356 171.771 31.662C171.6 31.9639 171.512 32.3005 171.508 32.6718V34.2078C171.508 34.6728 171.594 35.0747 171.765 35.4133C171.94 35.7519 172.187 36.013 172.505 36.1966C172.824 36.3802 173.201 36.472 173.638 36.472C173.927 36.472 174.192 36.4312 174.433 36.3496C174.674 36.268 174.88 36.1456 175.051 35.9824C175.223 35.8192 175.353 35.6193 175.443 35.3827L177.854 35.5418C177.732 36.1211 177.481 36.627 177.101 37.0595C176.726 37.4878 176.24 37.8224 175.645 38.0631C175.053 38.2997 174.37 38.418 173.595 38.418Z" fill="#554B41"/>
<path d="M159.549 30.8855V28.8354H168.067V30.8855H165.038V38.2351H162.554V30.8855H159.549Z" fill="#554B41"/>
<path d="M152.449 34.7959L155.833 28.8354H158.403V38.2351H155.918V32.2563L152.547 38.2351H149.958V28.8354H152.449V34.7959Z" fill="#554B41"/>
<path d="M139.859 30.8855V28.8354H148.378V30.8855H145.349V38.2351H142.864V30.8855H139.859Z" fill="#554B41"/>
<path d="M136.349 38.2351V30.8794H134.586C134.109 30.8794 133.746 30.9895 133.497 31.2098C133.248 31.4301 133.126 31.6912 133.13 31.9931C133.126 32.2991 133.244 32.5582 133.485 32.7703C133.729 32.9784 134.089 33.0824 134.562 33.0824H137.218V34.8448H134.562C133.758 34.8448 133.062 34.7225 132.475 34.4777C131.888 34.2329 131.435 33.8922 131.116 33.4557C130.798 33.0151 130.641 32.5031 130.645 31.9197C130.641 31.3077 130.798 30.7713 131.116 30.3103C131.435 29.8452 131.89 29.4841 132.481 29.2271C133.077 28.966 133.778 28.8354 134.586 28.8354H138.778V38.2351H136.349ZM130.376 38.2351L132.989 33.3394H135.48L132.873 38.2351H130.376Z" fill="#554B41"/>
<path d="M120.911 38.2351V28.8354H124.919C126.078 28.8354 126.994 29.0558 127.667 29.4964C128.34 29.937 128.677 30.5632 128.677 31.3751C128.677 31.885 128.487 32.3093 128.108 32.6479C127.728 32.9865 127.202 33.215 126.529 33.3333C127.092 33.3741 127.571 33.5026 127.967 33.7189C128.367 33.931 128.671 34.2064 128.879 34.545C129.091 34.8836 129.197 35.2589 129.197 35.671C129.197 36.2054 129.054 36.6644 128.769 37.0479C128.487 37.4314 128.073 37.7251 127.526 37.9291C126.984 38.1331 126.321 38.2351 125.538 38.2351H120.911ZM123.341 36.2829H125.538C125.901 36.2829 126.184 36.1973 126.388 36.0259C126.596 35.8505 126.7 35.6118 126.7 35.3099C126.7 34.9754 126.596 34.7123 126.388 34.5205C126.184 34.3288 125.901 34.2329 125.538 34.2329H123.341V36.2829ZM123.341 32.703H124.975C125.236 32.703 125.458 32.6663 125.642 32.5929C125.829 32.5153 125.972 32.4052 126.07 32.2624C126.172 32.1196 126.223 31.9503 126.223 31.7545C126.223 31.4648 126.107 31.2384 125.874 31.0752C125.642 30.912 125.323 30.8304 124.919 30.8304H123.341V32.703Z" fill="#554B41"/>
<path d="M119.061 30.0893H116.38C116.331 29.7426 116.231 29.4345 116.08 29.1653C115.929 28.8919 115.736 28.6594 115.499 28.4677C115.262 28.2759 114.989 28.129 114.679 28.0271C114.373 27.9251 114.04 27.8741 113.681 27.8741C113.033 27.8741 112.468 28.0352 111.986 28.3575C111.505 28.6757 111.132 29.1408 110.866 29.7528C110.601 30.3606 110.469 31.0991 110.469 31.968C110.469 32.8615 110.601 33.6122 110.866 34.22C111.136 34.8279 111.511 35.2869 111.992 35.5969C112.474 35.907 113.031 36.062 113.663 36.062C114.018 36.062 114.346 36.0151 114.648 35.9213C114.954 35.8274 115.226 35.6908 115.462 35.5113C115.699 35.3277 115.895 35.1053 116.05 34.8442C116.209 34.5831 116.319 34.2853 116.38 33.9508L119.061 33.963C118.991 34.5383 118.818 35.0931 118.54 35.6275C118.267 36.1579 117.898 36.6332 117.433 37.0534C116.972 37.4695 116.421 37.8 115.78 38.0448C115.144 38.2855 114.424 38.4058 113.62 38.4058C112.502 38.4058 111.503 38.1529 110.622 37.647C109.745 37.1411 109.051 36.4088 108.541 35.4501C108.035 34.4913 107.782 33.3307 107.782 31.968C107.782 30.6013 108.039 29.4386 108.553 28.4799C109.067 27.5212 109.765 26.7909 110.646 26.2891C111.527 25.7832 112.519 25.5303 113.62 25.5303C114.346 25.5303 115.02 25.6323 115.64 25.8363C116.264 26.0402 116.817 26.3381 117.298 26.7297C117.78 27.1173 118.171 27.5926 118.473 28.1556C118.779 28.7186 118.975 29.3632 119.061 30.0893Z" fill="#554B41"/>
<path d="M91.6689 40.9889V36.1667H92.3911C92.5991 36.0361 92.7664 35.8281 92.8929 35.5425C93.0234 35.2569 93.1295 34.9203 93.2111 34.5328C93.2967 34.1452 93.362 33.727 93.4069 33.2782C93.4559 32.8254 93.4987 32.3685 93.5354 31.9075L93.7802 28.8354H100.989V36.1667H102.445V40.9889H99.9609V38.2351H94.2147V40.9889H91.6689ZM94.9857 36.1667H98.529V30.8427H95.9955L95.8976 31.9075C95.8282 32.9111 95.7283 33.7637 95.5977 34.4654C95.4671 35.1631 95.2632 35.7301 94.9857 36.1667Z" fill="#554B41"/>
<path d="M86.0824 38.418C85.1319 38.418 84.3098 38.2161 83.6163 37.8122C82.9268 37.4042 82.3944 36.8371 82.0191 36.1109C81.6437 35.3807 81.4561 34.5341 81.4561 33.5713C81.4561 32.6004 81.6437 31.7518 82.0191 31.0256C82.3944 30.2953 82.9268 29.7282 83.6163 29.3244C84.3098 28.9164 85.1319 28.7124 86.0824 28.7124C87.033 28.7124 87.853 28.9164 88.5425 29.3244C89.236 29.7282 89.7705 30.2953 90.1458 31.0256C90.5212 31.7518 90.7088 32.6004 90.7088 33.5713C90.7088 34.5341 90.5212 35.3807 90.1458 36.1109C89.7705 36.8371 89.236 37.4042 88.5425 37.8122C87.853 38.2161 87.033 38.418 86.0824 38.418ZM86.0947 36.3986C86.5271 36.3986 86.8882 36.2762 87.1778 36.0314C87.4675 35.7825 87.6858 35.4439 87.8326 35.0155C87.9836 34.5872 88.0591 34.0996 88.0591 33.553C88.0591 33.0063 87.9836 32.5188 87.8326 32.0904C87.6858 31.662 87.4675 31.3234 87.1778 31.0745C86.8882 30.8257 86.5271 30.7013 86.0947 30.7013C85.6581 30.7013 85.291 30.8257 84.9932 31.0745C84.6994 31.3234 84.4771 31.662 84.3261 32.0904C84.1793 32.5188 84.1058 33.0063 84.1058 33.553C84.1058 34.0996 84.1793 34.5872 84.3261 35.0155C84.4771 35.4439 84.6994 35.7825 84.9932 36.0314C85.291 36.2762 85.6581 36.3986 86.0947 36.3986Z" fill="#554B41"/>
<path d="M74.4556 28.8354L76.1813 32.1216L77.9498 28.8354H80.6241L77.9009 33.5353L80.6975 38.2351H78.0355L76.1813 34.9856L74.3576 38.2351H71.665L74.4556 33.5353L71.763 28.8354H74.4556Z" fill="#554B41"/>
<path d="M64.2319 34.7959L67.616 28.8354H70.1862V38.2351H67.7017V32.2563L64.3298 38.2351H61.7412V28.8354H64.2319V34.7959Z" fill="#554B41"/>
<path d="M50.8369 41.7593V28.8348H53.4071V30.4136H53.5234C53.6376 30.1607 53.8029 29.9037 54.0191 29.6426C54.2394 29.3774 54.525 29.1571 54.8758 28.9817C55.2308 28.8022 55.6714 28.7124 56.1976 28.7124C56.883 28.7124 57.5154 28.8919 58.0947 29.2509C58.674 29.6059 59.1371 30.1423 59.4838 30.8604C59.8306 31.5743 60.004 32.4698 60.004 33.5468C60.004 34.5953 59.8347 35.4806 59.4961 36.2027C59.1615 36.9208 58.7046 37.4654 58.1253 37.8367C57.5501 38.2038 56.9055 38.3874 56.1915 38.3874C55.6856 38.3874 55.2552 38.3038 54.9003 38.1365C54.5494 37.9692 54.2618 37.7591 54.0374 37.5062C53.8131 37.2492 53.6417 36.9901 53.5234 36.729H53.4438V41.7593H50.8369ZM53.3888 33.5346C53.3888 34.0935 53.4663 34.5811 53.6213 34.9972C53.7763 35.4133 54.0007 35.7376 54.2945 35.9702C54.5882 36.1987 54.9452 36.3129 55.3654 36.3129C55.7897 36.3129 56.1487 36.1966 56.4424 35.9641C56.7362 35.7274 56.9585 35.4011 57.1095 34.9849C57.2645 34.5647 57.342 34.0813 57.342 33.5346C57.342 32.992 57.2665 32.5147 57.1156 32.1026C56.9646 31.6906 56.7423 31.3683 56.4485 31.1357C56.1548 30.9032 55.7938 30.7869 55.3654 30.7869C54.9411 30.7869 54.5821 30.8991 54.2883 31.1235C53.9987 31.3479 53.7763 31.6661 53.6213 32.0782C53.4663 32.4902 53.3888 32.9757 53.3888 33.5346Z" fill="#554B41"/>
<path d="M48.3629 25.7021V38.235H45.7438V27.8562H40.6768V38.235H38.0576V25.7021H48.3629Z" fill="#554B41"/>
<path d="M213.768 10.5127L211.382 10.6596C211.341 10.4556 211.253 10.272 211.118 10.1088C210.984 9.94156 210.806 9.80897 210.586 9.71105C210.37 9.60906 210.111 9.55807 209.809 9.55807C209.405 9.55807 209.064 9.64374 208.787 9.81509C208.509 9.98235 208.371 10.2067 208.371 10.4882C208.371 10.7126 208.46 10.9023 208.64 11.0574C208.819 11.2124 209.128 11.3368 209.564 11.4306L211.265 11.7733C212.179 11.961 212.86 12.2629 213.309 12.679C213.758 13.0952 213.982 13.6418 213.982 14.3191C213.982 14.9351 213.801 15.4757 213.438 15.9408C213.079 16.4058 212.585 16.7689 211.957 17.03C211.333 17.2871 210.613 17.4156 209.797 17.4156C208.552 17.4156 207.561 17.1565 206.822 16.6384C206.088 16.1162 205.658 15.4063 205.531 14.5088L208.095 14.3742C208.173 14.7536 208.361 15.0432 208.658 15.2431C208.956 15.439 209.338 15.5369 209.803 15.5369C210.26 15.5369 210.627 15.4492 210.904 15.2737C211.186 15.0942 211.329 14.8637 211.333 14.5822C211.329 14.3456 211.229 14.1518 211.033 14.0009C210.837 13.8458 210.535 13.7275 210.127 13.6459L208.499 13.3216C207.581 13.138 206.898 12.8198 206.449 12.3669C206.005 11.9141 205.782 11.3368 205.782 10.6351C205.782 10.0313 205.945 9.51115 206.272 9.07462C206.602 8.63809 207.065 8.30152 207.661 8.06489C208.261 7.82827 208.962 7.70996 209.766 7.70996C210.953 7.70996 211.887 7.96086 212.569 8.46267C213.254 8.96447 213.654 9.64782 213.768 10.5127Z" fill="#554B41"/>
<path d="M198.631 17.4095C198.031 17.4095 197.497 17.3054 197.027 17.0974C196.558 16.8852 196.187 16.5731 195.914 16.1611C195.644 15.7449 195.51 15.2268 195.51 14.6067C195.51 14.0845 195.606 13.6459 195.797 13.291C195.989 12.9361 196.25 12.6505 196.581 12.4343C196.911 12.218 197.286 12.0548 197.707 11.9447C198.131 11.8345 198.576 11.757 199.041 11.7121C199.587 11.655 200.028 11.602 200.363 11.553C200.697 11.5 200.94 11.4225 201.091 11.3205C201.242 11.2185 201.317 11.0676 201.317 10.8677V10.8309C201.317 10.4434 201.195 10.1435 200.95 9.93136C200.709 9.71921 200.367 9.61314 199.922 9.61314C199.453 9.61314 199.079 9.71717 198.802 9.92524C198.525 10.1292 198.341 10.3862 198.251 10.6963L195.84 10.5005C195.963 9.92932 196.203 9.43567 196.562 9.01955C196.921 8.59934 197.384 8.27704 197.951 8.05266C198.523 7.82419 199.184 7.70996 199.934 7.70996C200.456 7.70996 200.956 7.77116 201.433 7.89355C201.915 8.01594 202.341 8.20564 202.712 8.46267C203.088 8.71969 203.384 9.05014 203.6 9.45403C203.816 9.85384 203.924 10.3332 203.924 10.8921V17.232H201.452V15.9285H201.378C201.227 16.2223 201.026 16.4813 200.773 16.7057C200.52 16.926 200.216 17.0994 199.861 17.2259C199.506 17.3483 199.096 17.4095 198.631 17.4095ZM199.377 15.6103C199.761 15.6103 200.099 15.5348 200.393 15.3839C200.687 15.2289 200.917 15.0208 201.085 14.7597C201.252 14.4986 201.336 14.2028 201.336 13.8724V12.8749C201.254 12.9279 201.142 12.9769 200.999 13.0217C200.86 13.0625 200.703 13.1013 200.528 13.138C200.352 13.1706 200.177 13.2012 200.002 13.2298C199.826 13.2543 199.667 13.2767 199.524 13.2971C199.218 13.342 198.951 13.4134 198.723 13.5113C198.494 13.6092 198.317 13.7418 198.19 13.9091C198.064 14.0723 198 14.2762 198 14.521C198 14.876 198.129 15.1473 198.386 15.3349C198.647 15.5185 198.977 15.6103 199.377 15.6103Z" fill="#554B41"/>
<path d="M193.863 4.69971V17.2326H191.256V4.69971H193.863Z" fill="#554B41"/>
<path d="M184.935 17.4156C183.984 17.4156 183.162 17.2136 182.469 16.8097C181.779 16.4018 181.247 15.8347 180.872 15.1085C180.496 14.3782 180.309 13.5317 180.309 12.5689C180.309 11.5979 180.496 10.7493 180.872 10.0232C181.247 9.29289 181.779 8.72581 182.469 8.32192C183.162 7.91395 183.984 7.70996 184.935 7.70996C185.886 7.70996 186.706 7.91395 187.395 8.32192C188.089 8.72581 188.623 9.29289 188.998 10.0232C189.374 10.7493 189.561 11.5979 189.561 12.5689C189.561 13.5317 189.374 14.3782 188.998 15.1085C188.623 15.8347 188.089 16.4018 187.395 16.8097C186.706 17.2136 185.886 17.4156 184.935 17.4156ZM184.947 15.3961C185.38 15.3961 185.741 15.2737 186.03 15.0289C186.32 14.7801 186.538 14.4415 186.685 14.0131C186.836 13.5847 186.912 13.0972 186.912 12.5505C186.912 12.0038 186.836 11.5163 186.685 11.088C186.538 10.6596 186.32 10.321 186.03 10.0721C185.741 9.82325 185.38 9.69882 184.947 9.69882C184.511 9.69882 184.144 9.82325 183.846 10.0721C183.552 10.321 183.33 10.6596 183.179 11.088C183.032 11.5163 182.958 12.0038 182.958 12.5505C182.958 13.0972 183.032 13.5847 183.179 14.0131C183.33 14.4415 183.552 14.7801 183.846 15.0289C184.144 15.2737 184.511 15.3961 184.947 15.3961Z" fill="#554B41"/>
<path d="M172.541 11.7984V17.2326H169.934V4.69971H172.467V9.49132H172.577C172.789 8.93648 173.132 8.50199 173.605 8.18785C174.079 7.86964 174.672 7.71053 175.386 7.71053C176.039 7.71053 176.608 7.85332 177.093 8.1389C177.583 8.4204 177.962 8.82633 178.232 9.35669C178.505 9.88297 178.64 10.5133 178.636 11.2476V17.2326H176.029V11.7127C176.033 11.1334 175.886 10.6826 175.588 10.3603C175.294 10.038 174.882 9.87685 174.352 9.87685C173.997 9.87685 173.683 9.95232 173.409 10.1033C173.14 10.2542 172.928 10.4745 172.773 10.7642C172.622 11.0498 172.545 11.3945 172.541 11.7984Z" fill="#554B41"/>
<path d="M164.067 17.4156C163.104 17.4156 162.276 17.2116 161.582 16.8036C160.893 16.3916 160.362 15.8204 159.991 15.0901C159.624 14.3599 159.44 13.5195 159.44 12.5689C159.44 11.6061 159.626 10.7616 159.997 10.0354C160.373 9.30512 160.905 8.73601 161.595 8.32804C162.284 7.91599 163.104 7.70996 164.055 7.70996C164.875 7.70996 165.593 7.85887 166.209 8.15669C166.825 8.45451 167.312 8.87268 167.671 9.4112C168.03 9.94972 168.228 10.5821 168.265 11.3083H165.805C165.735 10.8391 165.552 10.4617 165.254 10.1761C164.96 9.88648 164.575 9.74165 164.097 9.74165C163.694 9.74165 163.341 9.8518 163.039 10.0721C162.741 10.2883 162.508 10.6045 162.341 11.0206C162.174 11.4368 162.09 11.9406 162.09 12.5322C162.09 13.1319 162.172 13.6418 162.335 14.0621C162.502 14.4823 162.737 14.8025 163.039 15.0228C163.341 15.2431 163.694 15.3533 164.097 15.3533C164.395 15.3533 164.662 15.2921 164.899 15.1697C165.14 15.0473 165.338 14.8698 165.493 14.6373C165.652 14.4007 165.756 14.1171 165.805 13.7867H168.265C168.224 14.5047 168.028 15.1371 167.677 15.6837C167.331 16.2263 166.851 16.6506 166.239 16.9566C165.627 17.2626 164.903 17.4156 164.067 17.4156Z" fill="#554B41"/>
<path d="M155.124 17.2317V7.83211H157.731V17.2317H155.124ZM156.434 6.62044C156.046 6.62044 155.714 6.49193 155.436 6.23491C155.163 5.9738 155.026 5.66171 155.026 5.29861C155.026 4.9396 155.163 4.63158 155.436 4.37456C155.714 4.11346 156.046 3.98291 156.434 3.98291C156.821 3.98291 157.152 4.11346 157.425 4.37456C157.703 4.63158 157.841 4.9396 157.841 5.29861C157.841 5.66171 157.703 5.9738 157.425 6.23491C157.152 6.49193 156.821 6.62044 156.434 6.62044Z" fill="#554B41"/>
<path d="M152.984 4.69971V17.2326H150.695L145.243 9.34445H145.151V17.2326H142.501V4.69971H144.826L150.236 12.5817H150.346V4.69971H152.984Z" fill="#554B41"/>
<path d="M135.443 17.391C135.039 17.391 134.693 17.2482 134.403 16.9626C134.117 16.6729 133.975 16.3262 133.975 15.9223C133.975 15.5225 134.117 15.1798 134.403 14.8942C134.693 14.6086 135.039 14.4658 135.443 14.4658C135.835 14.4658 136.178 14.6086 136.471 14.8942C136.765 15.1798 136.912 15.5225 136.912 15.9223C136.912 16.1915 136.843 16.4384 136.704 16.6627C136.569 16.883 136.392 17.0605 136.172 17.1951C135.951 17.3257 135.708 17.391 135.443 17.391Z" fill="#554B41"/>
<path d="M132.222 7.83256V9.79082H126.562V7.83256H132.222ZM127.847 5.58057H130.454V14.3438C130.454 14.5845 130.49 14.7721 130.564 14.9068C130.637 15.0373 130.739 15.1291 130.87 15.1821C131.004 15.2352 131.159 15.2617 131.335 15.2617C131.457 15.2617 131.58 15.2515 131.702 15.2311C131.824 15.2066 131.918 15.1883 131.983 15.176L132.393 17.1159C132.263 17.1567 132.079 17.2036 131.843 17.2567C131.606 17.3138 131.318 17.3485 130.98 17.3607C130.352 17.3852 129.801 17.3016 129.328 17.1098C128.858 16.9181 128.493 16.6202 128.232 16.2164C127.971 15.8125 127.843 15.3025 127.847 14.6865V5.58057Z" fill="#554B41"/>
<path d="M122.778 8.30409C122.729 7.81044 122.519 7.42695 122.148 7.15361C121.776 6.88027 121.273 6.7436 120.636 6.7436C120.204 6.7436 119.838 6.80479 119.541 6.92719C119.243 7.0455 119.014 7.21073 118.855 7.42287C118.7 7.63501 118.623 7.87572 118.623 8.14498C118.615 8.36936 118.661 8.56519 118.763 8.73245C118.87 8.89972 119.014 9.04455 119.198 9.16694C119.382 9.28525 119.594 9.38929 119.834 9.47904C120.075 9.56471 120.332 9.63815 120.605 9.69934L121.731 9.9686C122.278 10.091 122.78 10.2542 123.237 10.4582C123.694 10.6622 124.09 10.9131 124.424 11.2109C124.759 11.5087 125.018 11.8595 125.201 12.2634C125.389 12.6673 125.485 13.1304 125.489 13.6526C125.485 14.4196 125.289 15.0846 124.901 15.6476C124.518 16.2065 123.963 16.641 123.237 16.951C122.515 17.257 121.644 17.41 120.624 17.41C119.612 17.41 118.731 17.255 117.98 16.9449C117.234 16.6348 116.65 16.1759 116.23 15.568C115.814 14.956 115.596 14.1993 115.575 13.2976H118.139C118.168 13.7179 118.288 14.0687 118.5 14.3502C118.717 14.6276 119.004 14.8377 119.363 14.9805C119.726 15.1192 120.136 15.1886 120.593 15.1886C121.042 15.1886 121.432 15.1233 121.762 14.9928C122.097 14.8622 122.356 14.6807 122.539 14.4481C122.723 14.2156 122.815 13.9484 122.815 13.6465C122.815 13.365 122.731 13.1283 122.564 12.9366C122.401 12.7448 122.16 12.5817 121.842 12.447C121.527 12.3124 121.142 12.19 120.685 12.0799L119.32 11.7372C118.264 11.4801 117.429 11.0783 116.817 10.5316C116.206 9.98492 115.902 9.24854 115.906 8.32244C115.902 7.56362 116.104 6.90067 116.511 6.33359C116.924 5.76651 117.489 5.32386 118.207 5.00565C118.925 4.68743 119.741 4.52832 120.654 4.52832C121.585 4.52832 122.396 4.68743 123.09 5.00565C123.788 5.32386 124.33 5.76651 124.718 6.33359C125.105 6.90067 125.305 7.5575 125.318 8.30409H122.778Z" fill="#554B41"/>
<path d="M110.35 7.83299V9.79125H104.549V7.83299H110.35ZM105.877 17.2326V7.15372C105.877 6.47241 106.009 5.90737 106.275 5.45861C106.544 5.00984 106.911 4.67326 107.376 4.44888C107.841 4.2245 108.369 4.1123 108.961 4.1123C109.361 4.1123 109.726 4.1429 110.056 4.2041C110.391 4.26529 110.64 4.32037 110.803 4.36933L110.338 6.32758C110.236 6.29495 110.109 6.26435 109.959 6.23579C109.812 6.20723 109.661 6.19295 109.506 6.19295C109.122 6.19295 108.855 6.28271 108.704 6.46221C108.553 6.63764 108.478 6.88446 108.478 7.20268V17.2326H105.877Z" fill="#554B41"/>
<path d="M98.974 17.4156C98.0235 17.4156 97.2014 17.2136 96.5079 16.8097C95.8184 16.4018 95.286 15.8347 94.9107 15.1085C94.5353 14.3782 94.3477 13.5317 94.3477 12.5689C94.3477 11.5979 94.5353 10.7493 94.9107 10.0232C95.286 9.29289 95.8184 8.72581 96.5079 8.32192C97.2014 7.91395 98.0235 7.70996 98.974 7.70996C99.9246 7.70996 100.745 7.91395 101.434 8.32192C102.128 8.72581 102.662 9.29289 103.037 10.0232C103.413 10.7493 103.6 11.5979 103.6 12.5689C103.6 13.5317 103.413 14.3782 103.037 15.1085C102.662 15.8347 102.128 16.4018 101.434 16.8097C100.745 17.2136 99.9246 17.4156 98.974 17.4156ZM98.9863 15.3961C99.4187 15.3961 99.7798 15.2737 100.069 15.0289C100.359 14.7801 100.577 14.4415 100.724 14.0131C100.875 13.5847 100.951 13.0972 100.951 12.5505C100.951 12.0038 100.875 11.5163 100.724 11.088C100.577 10.6596 100.359 10.321 100.069 10.0721C99.7798 9.82325 99.4187 9.69882 98.9863 9.69882C98.5498 9.69882 98.1826 9.82325 97.8848 10.0721C97.591 10.321 97.3687 10.6596 97.2177 11.088C97.0709 11.5163 96.9974 12.0038 96.9974 12.5505C96.9974 13.0972 97.0709 13.5847 97.2177 14.0131C97.3687 14.4415 97.591 14.7801 97.8848 15.0289C98.1826 15.2737 98.5498 15.3961 98.9863 15.3961Z" fill="#554B41"/>
<path d="M82.5903 11.7984V17.2326H79.9834V4.69971H82.5169V9.49132H82.627C82.8392 8.93648 83.1819 8.50199 83.6551 8.18785C84.1284 7.86964 84.722 7.71053 85.4359 7.71053C86.0887 7.71053 86.6578 7.85332 87.1433 8.1389C87.6328 8.4204 88.0123 8.82633 88.2815 9.35669C88.5549 9.88297 88.6895 10.5133 88.6854 11.2476V17.2326H86.0785V11.7127C86.0826 11.1334 85.9357 10.6826 85.6379 10.3603C85.3441 10.038 84.9321 9.87685 84.4017 9.87685C84.0468 9.87685 83.7326 9.95232 83.4593 10.1033C83.19 10.2542 82.9779 10.4745 82.8229 10.7642C82.6719 11.0498 82.5944 11.3945 82.5903 11.7984Z" fill="#554B41"/>
<path d="M78.1285 10.5127L75.7419 10.6596C75.7011 10.4556 75.6134 10.272 75.4788 10.1088C75.3441 9.94156 75.1667 9.80897 74.9464 9.71105C74.7301 9.60906 74.4711 9.55807 74.1692 9.55807C73.7653 9.55807 73.4246 9.64374 73.1472 9.81509C72.8698 9.98235 72.7311 10.2067 72.7311 10.4882C72.7311 10.7126 72.8208 10.9023 73.0003 11.0574C73.1798 11.2124 73.4879 11.3368 73.9244 11.4306L75.6256 11.7733C76.5395 11.961 77.2208 12.2629 77.6696 12.679C78.1183 13.0952 78.3427 13.6418 78.3427 14.3191C78.3427 14.9351 78.1612 15.4757 77.7981 15.9408C77.4391 16.4058 76.9454 16.7689 76.3171 17.03C75.6929 17.2871 74.9729 17.4156 74.1569 17.4156C72.9126 17.4156 71.9213 17.1565 71.1828 16.6384C70.4485 16.1162 70.0181 15.4063 69.8916 14.5088L72.4557 14.3742C72.5332 14.7536 72.7209 15.0432 73.0187 15.2431C73.3165 15.439 73.698 15.5369 74.1631 15.5369C74.62 15.5369 74.9872 15.4492 75.2646 15.2737C75.5461 15.0942 75.6889 14.8637 75.6929 14.5822C75.6889 14.3456 75.5889 14.1518 75.3931 14.0009C75.1973 13.8458 74.8954 13.7275 74.4874 13.6459L72.8596 13.3216C71.9417 13.138 71.2583 12.8198 70.8095 12.3669C70.3648 11.9141 70.1425 11.3368 70.1425 10.6351C70.1425 10.0313 70.3057 9.51115 70.6321 9.07462C70.9625 8.63809 71.4256 8.30152 72.0212 8.06489C72.6209 7.82827 73.3226 7.70996 74.1263 7.70996C75.3135 7.70996 76.2478 7.96086 76.9291 8.46267C77.6145 8.96447 78.0143 9.64782 78.1285 10.5127Z" fill="#554B41"/>
<path d="M65.6126 17.2317V7.83211H68.2195V17.2317H65.6126ZM66.9221 6.62044C66.5346 6.62044 66.2021 6.49193 65.9247 6.23491C65.6513 5.9738 65.5146 5.66171 65.5146 5.29861C65.5146 4.9396 65.6513 4.63158 65.9247 4.37456C66.2021 4.11346 66.5346 3.98291 66.9221 3.98291C67.3097 3.98291 67.6402 4.11346 67.9135 4.37456C68.1909 4.63158 68.3296 4.9396 68.3296 5.29861C68.3296 5.66171 68.1909 5.9738 67.9135 6.23491C67.6402 6.49193 67.3097 6.62044 66.9221 6.62044Z" fill="#554B41"/>
<path d="M58.5615 17.2325V7.83287H61.0889V9.47291H61.1868C61.3582 8.88951 61.6458 8.44891 62.0497 8.15109C62.4536 7.84919 62.9186 7.69824 63.4449 7.69824C63.5755 7.69824 63.7162 7.7064 63.8672 7.72272C64.0181 7.73904 64.1507 7.76148 64.2649 7.79004V10.1032C64.1426 10.0665 63.9732 10.0339 63.757 10.0053C63.5408 9.97676 63.3429 9.96248 63.1634 9.96248C62.7799 9.96248 62.4372 10.0461 62.1353 10.2134C61.8375 10.3766 61.6009 10.605 61.4255 10.8988C61.2541 11.1925 61.1685 11.5311 61.1685 11.9146V17.2325H58.5615Z" fill="#554B41"/>
<path d="M51.245 17.4095C50.6453 17.4095 50.1108 17.3054 49.6417 17.0974C49.1725 16.8852 48.8013 16.5731 48.5279 16.1611C48.2587 15.7449 48.124 15.2268 48.124 14.6067C48.124 14.0845 48.2199 13.6459 48.4116 13.291C48.6034 12.9361 48.8645 12.6505 49.1949 12.4343C49.5254 12.218 49.9007 12.0548 50.3209 11.9447C50.7452 11.8345 51.1899 11.757 51.655 11.7121C52.2017 11.655 52.6423 11.602 52.9768 11.553C53.3114 11.5 53.5541 11.4225 53.7051 11.3205C53.856 11.2185 53.9315 11.0676 53.9315 10.8677V10.8309C53.9315 10.4434 53.8091 10.1435 53.5643 9.93136C53.3236 9.71921 52.9809 9.61314 52.5362 9.61314C52.0671 9.61314 51.6938 9.71717 51.4163 9.92524C51.1389 10.1292 50.9553 10.3862 50.8656 10.6963L48.4545 10.5005C48.5769 9.92932 48.8176 9.43567 49.1766 9.01955C49.5356 8.59934 49.9986 8.27704 50.5657 8.05266C51.1369 7.82419 51.7978 7.70996 52.5485 7.70996C53.0707 7.70996 53.5704 7.77116 54.0478 7.89355C54.5292 8.01594 54.9555 8.20564 55.3267 8.46267C55.7021 8.71969 55.9978 9.05014 56.2141 9.45403C56.4303 9.85384 56.5384 10.3332 56.5384 10.8921V17.232H54.0661V15.9285H53.9927C53.8417 16.2223 53.6398 16.4813 53.3868 16.7057C53.1339 16.926 52.83 17.0994 52.475 17.2259C52.1201 17.3483 51.7101 17.4095 51.245 17.4095ZM51.9916 15.6103C52.3751 15.6103 52.7137 15.5348 53.0074 15.3839C53.3012 15.2289 53.5317 15.0208 53.6989 14.7597C53.8662 14.4986 53.9498 14.2028 53.9498 13.8724V12.8749C53.8682 12.9279 53.7561 12.9769 53.6133 13.0217C53.4746 13.0625 53.3175 13.1013 53.1421 13.138C52.9666 13.1706 52.7912 13.2012 52.6158 13.2298C52.4403 13.2543 52.2812 13.2767 52.1385 13.2971C51.8325 13.342 51.5653 13.4134 51.3368 13.5113C51.1083 13.6092 50.9309 13.7418 50.8044 13.9091C50.6779 14.0723 50.6147 14.2762 50.6147 14.521C50.6147 14.876 50.7432 15.1473 51.0002 15.3349C51.2613 15.5185 51.5918 15.6103 51.9916 15.6103Z" fill="#554B41"/>
<path d="M37.709 17.2326V4.69971H42.6536C43.6042 4.69971 44.414 4.88125 45.083 5.24435C45.7521 5.60336 46.2621 6.10312 46.6129 6.74364C46.9679 7.38007 47.1453 8.11442 47.1453 8.94668C47.1453 9.77894 46.9658 10.5133 46.6068 11.1497C46.2478 11.7861 45.7276 12.2818 45.0463 12.6368C44.3691 12.9917 43.5491 13.1692 42.5863 13.1692H39.4347V11.0457H42.1579C42.6679 11.0457 43.0881 10.958 43.4185 10.7825C43.7531 10.603 44.0019 10.3562 44.1651 10.0421C44.3324 9.72386 44.416 9.35873 44.416 8.94668C44.416 8.53055 44.3324 8.16745 44.1651 7.8574C44.0019 7.54326 43.7531 7.30052 43.4185 7.12917C43.084 6.95374 42.6597 6.86603 42.1457 6.86603H40.3588V17.2326H37.709Z" fill="#554B41"/>
</svg>
