<svg width="276" height="44" viewBox="0 0 276 44" fill="none" xmlns="http://www.w3.org/2000/svg">
<path d="M10.8218 0V4.78685H6.59688V9.5737H10.8218V14.0638H0V18.8506H10.8218V25.7724L6.29469 23.1349V28.6622L10.8218 31.2998V43.0817H15.5657V34.0632L20.0928 36.7008V31.1734L15.5657 28.5359V18.8506H26.3875V14.0638H15.5657V9.5737H19.7911V4.78685H15.5657V0H10.8218Z" fill="black"/>
<path d="M273.57 38.2356V30.8799H271.808C271.331 30.8799 270.967 30.99 270.719 31.2103C270.47 31.4306 270.347 31.6917 270.351 31.9936C270.347 32.2996 270.466 32.5587 270.706 32.7708C270.951 32.9789 271.31 33.0829 271.783 33.0829H274.439V34.8453H271.783C270.98 34.8453 270.284 34.7229 269.697 34.4782C269.109 34.2334 268.656 33.8927 268.338 33.4562C268.02 33.0156 267.863 32.5036 267.867 31.9202C267.863 31.3082 268.02 30.7718 268.338 30.3107C268.656 29.8457 269.111 29.4846 269.703 29.2276C270.298 28.9665 271 28.8359 271.808 28.8359H276V38.2356H273.57ZM267.598 38.2356L270.211 33.3399H272.701L270.094 38.2356H267.598Z" fill="black"/>
<path d="M260.746 38.4124C260.146 38.4124 259.612 38.3083 259.143 38.1003C258.673 37.8881 258.302 37.576 258.029 37.164C257.76 36.7479 257.625 36.2297 257.625 35.6096C257.625 35.0874 257.721 34.6489 257.913 34.2939C258.104 33.939 258.365 33.6534 258.696 33.4372C259.026 33.221 259.402 33.0578 259.822 32.9476C260.246 32.8375 260.691 32.76 261.156 32.7151C261.703 32.658 262.143 32.6049 262.478 32.556C262.812 32.5029 263.055 32.4254 263.206 32.3234C263.357 32.2214 263.432 32.0705 263.432 31.8706V31.8339C263.432 31.4463 263.31 31.1464 263.065 30.9343C262.825 30.7221 262.482 30.6161 262.037 30.6161C261.568 30.6161 261.195 30.7201 260.917 30.9282C260.64 31.1322 260.456 31.3892 260.367 31.6992L257.955 31.5034C258.078 30.9322 258.319 30.4386 258.678 30.0225C259.037 29.6023 259.5 29.28 260.067 29.0556C260.638 28.8271 261.299 28.7129 262.049 28.7129C262.572 28.7129 263.071 28.7741 263.549 28.8965C264.03 29.0189 264.456 29.2086 264.828 29.4656C265.203 29.7226 265.499 30.0531 265.715 30.457C265.931 30.8568 266.039 31.3361 266.039 31.8951V38.2349H263.567V36.9314H263.494C263.343 37.2252 263.141 37.4842 262.888 37.7086C262.635 37.9289 262.331 38.1023 261.976 38.2288C261.621 38.3512 261.211 38.4124 260.746 38.4124ZM261.493 36.6132C261.876 36.6132 262.215 36.5378 262.508 36.3868C262.802 36.2318 263.033 36.0237 263.2 35.7626C263.367 35.5015 263.451 35.2057 263.451 34.8753V33.8778C263.369 33.9308 263.257 33.9798 263.114 34.0247C262.976 34.0655 262.818 34.1042 262.643 34.1409C262.468 34.1736 262.292 34.2042 262.117 34.2327C261.941 34.2572 261.782 34.2796 261.639 34.3C261.333 34.3449 261.066 34.4163 260.838 34.5142C260.609 34.6121 260.432 34.7447 260.305 34.912C260.179 35.0752 260.116 35.2792 260.116 35.524C260.116 35.8789 260.244 36.1502 260.501 36.3379C260.762 36.5214 261.093 36.6132 261.493 36.6132Z" fill="black"/>
<path d="M247.098 38.2356L247.086 36.1672H247.398C247.618 36.1672 247.808 36.1141 247.967 36.0081C248.13 35.8979 248.265 35.7204 248.371 35.4757C248.477 35.2309 248.561 34.9065 248.622 34.5026C248.683 34.0947 248.724 33.5929 248.744 32.9972L248.897 28.8359H256.045V38.2356H253.56V30.886H251.241L251.094 33.7561C251.058 34.5434 250.962 35.2207 250.807 35.7877C250.656 36.3548 250.446 36.8199 250.176 37.183C249.907 37.542 249.583 37.8072 249.203 37.9785C248.824 38.1499 248.383 38.2356 247.881 38.2356H247.098Z" fill="black"/>
<path d="M241.328 38.4185C240.377 38.4185 239.555 38.2166 238.861 37.8127C238.172 37.4047 237.64 36.8376 237.264 36.1114C236.889 35.3812 236.701 34.5346 236.701 33.5718C236.701 32.6008 236.889 31.7523 237.264 31.0261C237.64 30.2958 238.172 29.7287 238.861 29.3248C239.555 28.9169 240.377 28.7129 241.328 28.7129C242.278 28.7129 243.098 28.9169 243.788 29.3248C244.481 29.7287 245.016 30.2958 245.391 31.0261C245.766 31.7523 245.954 32.6008 245.954 33.5718C245.954 34.5346 245.766 35.3812 245.391 36.1114C245.016 36.8376 244.481 37.4047 243.788 37.8127C243.098 38.2166 242.278 38.4185 241.328 38.4185ZM241.34 36.399C241.772 36.399 242.133 36.2767 242.423 36.0319C242.713 35.783 242.931 35.4444 243.078 35.016C243.229 34.5877 243.304 34.1001 243.304 33.5535C243.304 33.0068 243.229 32.5193 243.078 32.0909C242.931 31.6625 242.713 31.3239 242.423 31.075C242.133 30.8262 241.772 30.7017 241.34 30.7017C240.903 30.7017 240.536 30.8262 240.238 31.075C239.945 31.3239 239.722 31.6625 239.571 32.0909C239.424 32.5193 239.351 33.0068 239.351 33.5535C239.351 34.1001 239.424 34.5877 239.571 35.016C239.722 35.4444 239.945 35.783 240.238 36.0319C240.536 36.2767 240.903 36.399 241.34 36.399Z" fill="black"/>
<path d="M227.37 38.2356V28.8359H229.977V32.4832H230.711L233.269 28.8359H236.329L233.006 33.499L236.366 38.2356H233.269L230.95 34.9004H229.977V38.2356H227.37Z" fill="black"/>
<path d="M219.327 34.7964L222.711 28.8359H225.281V38.2356H222.796V32.2568L219.425 38.2356H216.836V28.8359H219.327V34.7964Z" fill="black"/>
<path d="M204.027 38.236V25.7031H206.677V30.8741H212.056V25.7031H214.7V38.236H212.056V33.0588H206.677V38.236H204.027Z" fill="black"/>
<path d="M195.535 38.2356V30.8799H193.773C193.295 30.8799 192.932 30.99 192.683 31.2103C192.435 31.4306 192.312 31.6917 192.316 31.9936C192.312 32.2996 192.431 32.5587 192.671 32.7708C192.916 32.9789 193.275 33.0829 193.748 33.0829H196.404V34.8453H193.748C192.945 34.8453 192.249 34.7229 191.662 34.4782C191.074 34.2334 190.621 33.8927 190.303 33.4562C189.985 33.0156 189.828 32.5036 189.832 31.9202C189.828 31.3082 189.985 30.7718 190.303 30.3107C190.621 29.8457 191.076 29.4846 191.668 29.2276C192.263 28.9665 192.965 28.8359 193.773 28.8359H197.965V38.2356H195.535ZM189.562 38.2356L192.176 33.3399H194.666L192.059 38.2356H189.562Z" fill="black"/>
<path d="M179.06 38.2356L179.048 36.1672H179.36C179.58 36.1672 179.77 36.1141 179.929 36.0081C180.092 35.8979 180.227 35.7204 180.333 35.4757C180.439 35.2309 180.523 34.9065 180.584 34.5026C180.645 34.0947 180.686 33.5929 180.706 32.9972L180.859 28.8359H188.007V38.2356H185.522V30.886H183.203L183.056 33.7561C183.019 34.5434 182.924 35.2207 182.769 35.7877C182.618 36.3548 182.407 36.8199 182.138 37.183C181.869 37.542 181.545 37.8072 181.165 37.9785C180.786 38.1499 180.345 38.2356 179.843 38.2356H179.06Z" fill="black"/>
<path d="M173.595 38.4185C172.628 38.4185 171.796 38.2227 171.098 37.831C170.404 37.4353 169.87 36.8764 169.495 36.1543C169.119 35.4281 168.932 34.5693 168.932 33.5779C168.932 32.611 169.119 31.7625 169.495 31.0322C169.87 30.3019 170.398 29.7328 171.08 29.3248C171.765 28.9169 172.569 28.7129 173.491 28.7129C174.111 28.7129 174.688 28.8128 175.223 29.0127C175.761 29.2086 176.23 29.5044 176.63 29.9001C177.034 30.2958 177.348 30.7935 177.572 31.3933C177.797 31.9889 177.909 32.6865 177.909 33.4861V34.2021H169.972V32.5866H175.455C175.455 32.2112 175.373 31.8787 175.21 31.5891C175.047 31.2994 174.821 31.073 174.531 30.9098C174.245 30.7425 173.913 30.6589 173.534 30.6589C173.138 30.6589 172.787 30.7507 172.481 30.9343C172.179 31.1138 171.942 31.3565 171.771 31.6625C171.6 31.9644 171.512 32.301 171.508 32.6722V34.2082C171.508 34.6733 171.594 35.0752 171.765 35.4138C171.94 35.7524 172.187 36.0135 172.505 36.1971C172.824 36.3807 173.201 36.4725 173.638 36.4725C173.927 36.4725 174.192 36.4317 174.433 36.3501C174.674 36.2685 174.88 36.1461 175.051 35.9829C175.223 35.8197 175.353 35.6198 175.443 35.3832L177.854 35.5423C177.732 36.1216 177.481 36.6275 177.101 37.06C176.726 37.4883 176.24 37.8229 175.645 38.0636C175.053 38.3002 174.37 38.4185 173.595 38.4185Z" fill="black"/>
<path d="M159.549 30.886V28.8359H168.067V30.886H165.038V38.2356H162.554V30.886H159.549Z" fill="black"/>
<path d="M152.449 34.7964L155.833 28.8359H158.403V38.2356H155.918V32.2568L152.547 38.2356H149.958V28.8359H152.449V34.7964Z" fill="black"/>
<path d="M139.859 30.886V28.8359H148.378V30.886H145.349V38.2356H142.864V30.886H139.859Z" fill="black"/>
<path d="M136.349 38.2356V30.8799H134.586C134.109 30.8799 133.746 30.99 133.497 31.2103C133.248 31.4306 133.126 31.6917 133.13 31.9936C133.126 32.2996 133.244 32.5587 133.485 32.7708C133.729 32.9789 134.089 33.0829 134.562 33.0829H137.218V34.8453H134.562C133.758 34.8453 133.062 34.7229 132.475 34.4782C131.888 34.2334 131.435 33.8927 131.116 33.4562C130.798 33.0156 130.641 32.5036 130.645 31.9202C130.641 31.3082 130.798 30.7718 131.116 30.3107C131.435 29.8457 131.89 29.4846 132.481 29.2276C133.077 28.9665 133.778 28.8359 134.586 28.8359H138.778V38.2356H136.349ZM130.376 38.2356L132.989 33.3399H135.48L132.873 38.2356H130.376Z" fill="black"/>
<path d="M120.911 38.2356V28.8359H124.919C126.078 28.8359 126.994 29.0562 127.667 29.4968C128.34 29.9375 128.677 30.5637 128.677 31.3756C128.677 31.8855 128.487 32.3098 128.108 32.6484C127.728 32.987 127.202 33.2155 126.529 33.3338C127.092 33.3746 127.571 33.5031 127.967 33.7193C128.367 33.9315 128.671 34.2069 128.879 34.5455C129.091 34.8841 129.197 35.2594 129.197 35.6715C129.197 36.2059 129.054 36.6649 128.769 37.0484C128.487 37.4319 128.073 37.7256 127.526 37.9296C126.984 38.1336 126.321 38.2356 125.538 38.2356H120.911ZM123.341 36.2834H125.538C125.901 36.2834 126.184 36.1978 126.388 36.0264C126.596 35.851 126.7 35.6123 126.7 35.3104C126.7 34.9759 126.596 34.7127 126.388 34.521C126.184 34.3293 125.901 34.2334 125.538 34.2334H123.341V36.2834ZM123.341 32.7035H124.975C125.236 32.7035 125.458 32.6668 125.642 32.5933C125.829 32.5158 125.972 32.4057 126.07 32.2629C126.172 32.1201 126.223 31.9508 126.223 31.755C126.223 31.4653 126.107 31.2389 125.874 31.0757C125.642 30.9125 125.323 30.8309 124.919 30.8309H123.341V32.7035Z" fill="black"/>
<path d="M119.061 30.0903H116.38C116.331 29.7435 116.231 29.4355 116.08 29.1663C115.929 28.8929 115.736 28.6604 115.499 28.4686C115.262 28.2769 114.989 28.13 114.679 28.028C114.373 27.926 114.04 27.875 113.681 27.875C113.033 27.875 112.468 28.0362 111.986 28.3585C111.505 28.6767 111.132 29.1418 110.866 29.7537C110.601 30.3616 110.469 31.1 110.469 31.969C110.469 32.8625 110.601 33.6131 110.866 34.221C111.136 34.8289 111.511 35.2879 111.992 35.5979C112.474 35.908 113.031 36.063 113.663 36.063C114.018 36.063 114.346 36.0161 114.648 35.9223C114.954 35.8284 115.226 35.6918 115.462 35.5122C115.699 35.3287 115.895 35.1063 116.05 34.8452C116.209 34.5841 116.319 34.2863 116.38 33.9518L119.061 33.964C118.991 34.5392 118.818 35.0941 118.54 35.6285C118.267 36.1589 117.898 36.6342 117.433 37.0544C116.972 37.4705 116.421 37.801 115.78 38.0457C115.144 38.2864 114.424 38.4068 113.62 38.4068C112.502 38.4068 111.503 38.1539 110.622 37.648C109.745 37.1421 109.051 36.4098 108.541 35.451C108.035 34.4923 107.782 33.3316 107.782 31.969C107.782 30.6023 108.039 29.4396 108.553 28.4809C109.067 27.5221 109.765 26.7919 110.646 26.2901C111.527 25.7842 112.519 25.5312 113.62 25.5312C114.346 25.5312 115.02 25.6332 115.64 25.8372C116.264 26.0412 116.817 26.339 117.298 26.7307C117.78 27.1183 118.171 27.5935 118.473 28.1565C118.779 28.7195 118.975 29.3641 119.061 30.0903Z" fill="black"/>
<path d="M91.6689 40.9894V36.1672H92.3911C92.5991 36.0366 92.7664 35.8285 92.8929 35.543C93.0234 35.2574 93.1295 34.9208 93.2111 34.5332C93.2967 34.1457 93.362 33.7275 93.4069 33.2787C93.4559 32.8259 93.4987 32.369 93.5354 31.908L93.7802 28.8359H100.989V36.1672H102.445V40.9894H99.9609V38.2356H94.2147V40.9894H91.6689ZM94.9857 36.1672H98.529V30.8432H95.9955L95.8976 31.908C95.8282 32.9116 95.7283 33.7642 95.5977 34.4659C95.4671 35.1636 95.2632 35.7306 94.9857 36.1672Z" fill="black"/>
<path d="M86.0824 38.4185C85.1319 38.4185 84.3098 38.2166 83.6163 37.8127C82.9268 37.4047 82.3944 36.8376 82.0191 36.1114C81.6437 35.3812 81.4561 34.5346 81.4561 33.5718C81.4561 32.6008 81.6437 31.7523 82.0191 31.0261C82.3944 30.2958 82.9268 29.7287 83.6163 29.3248C84.3098 28.9169 85.1319 28.7129 86.0824 28.7129C87.033 28.7129 87.853 28.9169 88.5425 29.3248C89.236 29.7287 89.7705 30.2958 90.1458 31.0261C90.5212 31.7523 90.7088 32.6008 90.7088 33.5718C90.7088 34.5346 90.5212 35.3812 90.1458 36.1114C89.7705 36.8376 89.236 37.4047 88.5425 37.8127C87.853 38.2166 87.033 38.4185 86.0824 38.4185ZM86.0947 36.399C86.5271 36.399 86.8882 36.2767 87.1778 36.0319C87.4675 35.783 87.6858 35.4444 87.8326 35.016C87.9836 34.5877 88.0591 34.1001 88.0591 33.5535C88.0591 33.0068 87.9836 32.5193 87.8326 32.0909C87.6858 31.6625 87.4675 31.3239 87.1778 31.075C86.8882 30.8262 86.5271 30.7017 86.0947 30.7017C85.6581 30.7017 85.291 30.8262 84.9932 31.075C84.6994 31.3239 84.4771 31.6625 84.3261 32.0909C84.1793 32.5193 84.1058 33.0068 84.1058 33.5535C84.1058 34.1001 84.1793 34.5877 84.3261 35.016C84.4771 35.4444 84.6994 35.783 84.9932 36.0319C85.291 36.2767 85.6581 36.399 86.0947 36.399Z" fill="black"/>
<path d="M74.4556 28.8359L76.1813 32.1221L77.9498 28.8359H80.6241L77.9009 33.5358L80.6975 38.2356H78.0355L76.1813 34.9861L74.3576 38.2356H71.665L74.4556 33.5358L71.763 28.8359H74.4556Z" fill="black"/>
<path d="M64.2319 34.7964L67.616 28.8359H70.1862V38.2356H67.7017V32.2568L64.3298 38.2356H61.7412V28.8359H64.2319V34.7964Z" fill="black"/>
<path d="M50.8369 41.7598V28.8353H53.4071V30.4141H53.5234C53.6376 30.1612 53.8029 29.9042 54.0191 29.6431C54.2394 29.3779 54.525 29.1576 54.8758 28.9822C55.2308 28.8026 55.6714 28.7129 56.1976 28.7129C56.883 28.7129 57.5154 28.8924 58.0947 29.2514C58.674 29.6063 59.1371 30.1428 59.4838 30.8609C59.8306 31.5748 60.004 32.4703 60.004 33.5473C60.004 34.5958 59.8347 35.4811 59.4961 36.2032C59.1615 36.9213 58.7046 37.4659 58.1253 37.8371C57.5501 38.2043 56.9055 38.3879 56.1915 38.3879C55.6856 38.3879 55.2552 38.3043 54.9003 38.137C54.5494 37.9697 54.2618 37.7596 54.0374 37.5067C53.8131 37.2497 53.6417 36.9906 53.5234 36.7295H53.4438V41.7598H50.8369ZM53.3888 33.5351C53.3888 34.094 53.4663 34.5815 53.6213 34.9977C53.7763 35.4138 54.0007 35.7381 54.2945 35.9707C54.5882 36.1991 54.9452 36.3134 55.3654 36.3134C55.7897 36.3134 56.1487 36.1971 56.4424 35.9646C56.7362 35.7279 56.9585 35.4016 57.1095 34.9854C57.2645 34.5652 57.342 34.0818 57.342 33.5351C57.342 32.9925 57.2665 32.5152 57.1156 32.1031C56.9646 31.6911 56.7423 31.3688 56.4485 31.1362C56.1548 30.9037 55.7938 30.7874 55.3654 30.7874C54.9411 30.7874 54.5821 30.8996 54.2883 31.124C53.9987 31.3484 53.7763 31.6666 53.6213 32.0786C53.4663 32.4907 53.3888 32.9762 53.3888 33.5351Z" fill="black"/>
<path d="M48.3629 25.7031V38.236H45.7438V27.8572H40.6768V38.236H38.0576V25.7031H48.3629Z" fill="black"/>
<path d="M213.768 10.5137L211.382 10.6606C211.341 10.4566 211.253 10.273 211.118 10.1098C210.984 9.94253 210.806 9.80994 210.586 9.71203C210.37 9.61004 210.111 9.55904 209.809 9.55904C209.405 9.55904 209.064 9.64472 208.787 9.81606C208.509 9.98333 208.371 10.2077 208.371 10.4892C208.371 10.7136 208.46 10.9033 208.64 11.0583C208.819 11.2134 209.128 11.3378 209.564 11.4316L211.265 11.7743C212.179 11.962 212.86 12.2639 213.309 12.68C213.758 13.0961 213.982 13.6428 213.982 14.3201C213.982 14.9361 213.801 15.4767 213.438 15.9417C213.079 16.4068 212.585 16.7699 211.957 17.031C211.333 17.288 210.613 17.4165 209.797 17.4165C208.552 17.4165 207.561 17.1575 206.822 16.6394C206.088 16.1172 205.658 15.4073 205.531 14.5098L208.095 14.3751C208.173 14.7545 208.361 15.0442 208.658 15.2441C208.956 15.4399 209.338 15.5378 209.803 15.5378C210.26 15.5378 210.627 15.4501 210.904 15.2747C211.186 15.0952 211.329 14.8647 211.333 14.5832C211.329 14.3466 211.229 14.1528 211.033 14.0018C210.837 13.8468 210.535 13.7285 210.127 13.6469L208.499 13.3226C207.581 13.139 206.898 12.8208 206.449 12.3679C206.005 11.9151 205.782 11.3378 205.782 10.6361C205.782 10.0323 205.945 9.51213 206.272 9.0756C206.602 8.63907 207.065 8.30249 207.661 8.06587C208.261 7.82925 208.962 7.71094 209.766 7.71094C210.953 7.71094 211.887 7.96184 212.569 8.46364C213.254 8.96545 213.654 9.6488 213.768 10.5137Z" fill="black"/>
<path d="M198.631 17.4104C198.031 17.4104 197.497 17.3064 197.027 17.0983C196.558 16.8862 196.187 16.5741 195.914 16.162C195.644 15.7459 195.51 15.2278 195.51 14.6077C195.51 14.0855 195.606 13.6469 195.797 13.292C195.989 12.937 196.25 12.6515 196.581 12.4352C196.911 12.219 197.286 12.0558 197.707 11.9457C198.131 11.8355 198.576 11.758 199.041 11.7131C199.587 11.656 200.028 11.603 200.363 11.554C200.697 11.501 200.94 11.4235 201.091 11.3215C201.242 11.2195 201.317 11.0685 201.317 10.8686V10.8319C201.317 10.4443 201.195 10.1445 200.95 9.93233C200.709 9.72019 200.367 9.61412 199.922 9.61412C199.453 9.61412 199.079 9.71815 198.802 9.92622C198.525 10.1302 198.341 10.3872 198.251 10.6973L195.84 10.5015C195.963 9.9303 196.203 9.43665 196.562 9.02052C196.921 8.60031 197.384 8.27802 197.951 8.05363C198.523 7.82517 199.184 7.71094 199.934 7.71094C200.456 7.71094 200.956 7.77213 201.433 7.89452C201.915 8.01691 202.341 8.20662 202.712 8.46364C203.088 8.72066 203.384 9.05112 203.6 9.45501C203.816 9.85482 203.924 10.3342 203.924 10.8931V17.233H201.452V15.9295H201.378C201.227 16.2232 201.026 16.4823 200.773 16.7067C200.52 16.927 200.216 17.1004 199.861 17.2268C199.506 17.3492 199.096 17.4104 198.631 17.4104ZM199.377 15.6113C199.761 15.6113 200.099 15.5358 200.393 15.3849C200.687 15.2298 200.917 15.0218 201.085 14.7607C201.252 14.4996 201.336 14.2038 201.336 13.8733V12.8758C201.254 12.9289 201.142 12.9778 200.999 13.0227C200.86 13.0635 200.703 13.1023 200.528 13.139C200.352 13.1716 200.177 13.2022 200.002 13.2308C199.826 13.2553 199.667 13.2777 199.524 13.2981C199.218 13.343 198.951 13.4144 198.723 13.5123C198.494 13.6102 198.317 13.7428 198.19 13.91C198.064 14.0732 198 14.2772 198 14.522C198 14.8769 198.129 15.1482 198.386 15.3359C198.647 15.5195 198.977 15.6113 199.377 15.6113Z" fill="black"/>
<path d="M193.863 4.70117V17.234H191.256V4.70117H193.863Z" fill="black"/>
<path d="M184.935 17.4165C183.984 17.4165 183.162 17.2146 182.469 16.8107C181.779 16.4027 181.247 15.8357 180.872 15.1095C180.496 14.3792 180.309 13.5327 180.309 12.5699C180.309 11.5989 180.496 10.7503 180.872 10.0241C181.247 9.29386 181.779 8.72678 182.469 8.32289C183.162 7.91492 183.984 7.71094 184.935 7.71094C185.886 7.71094 186.706 7.91492 187.395 8.32289C188.089 8.72678 188.623 9.29386 188.998 10.0241C189.374 10.7503 189.561 11.5989 189.561 12.5699C189.561 13.5327 189.374 14.3792 188.998 15.1095C188.623 15.8357 188.089 16.4027 187.395 16.8107C186.706 17.2146 185.886 17.4165 184.935 17.4165ZM184.947 15.3971C185.38 15.3971 185.741 15.2747 186.03 15.0299C186.32 14.7811 186.538 14.4424 186.685 14.0141C186.836 13.5857 186.912 13.0982 186.912 12.5515C186.912 12.0048 186.836 11.5173 186.685 11.0889C186.538 10.6606 186.32 10.3219 186.03 10.0731C185.741 9.82422 185.38 9.69979 184.947 9.69979C184.511 9.69979 184.144 9.82422 183.846 10.0731C183.552 10.3219 183.33 10.6606 183.179 11.0889C183.032 11.5173 182.958 12.0048 182.958 12.5515C182.958 13.0982 183.032 13.5857 183.179 14.0141C183.33 14.4424 183.552 14.7811 183.846 15.0299C184.144 15.2747 184.511 15.3971 184.947 15.3971Z" fill="black"/>
<path d="M172.541 11.7999V17.234H169.934V4.70117H172.467V9.49278H172.577C172.789 8.93794 173.132 8.50345 173.605 8.18932C174.079 7.8711 174.672 7.71199 175.386 7.71199C176.039 7.71199 176.608 7.85478 177.093 8.14036C177.583 8.42186 177.962 8.82779 178.232 9.35815C178.505 9.88443 178.64 10.5147 178.636 11.2491V17.234H176.029V11.7142C176.033 11.1349 175.886 10.6841 175.588 10.3618C175.294 10.0395 174.882 9.87831 174.352 9.87831C173.997 9.87831 173.683 9.95379 173.409 10.1047C173.14 10.2557 172.928 10.476 172.773 10.7657C172.622 11.0512 172.545 11.396 172.541 11.7999Z" fill="black"/>
<path d="M164.067 17.4165C163.104 17.4165 162.276 17.2126 161.582 16.8046C160.893 16.3925 160.362 15.8214 159.991 15.0911C159.624 14.3609 159.44 13.5204 159.44 12.5699C159.44 11.6071 159.626 10.7626 159.997 10.0364C160.373 9.3061 160.905 8.73698 161.595 8.32901C162.284 7.91696 163.104 7.71094 164.055 7.71094C164.875 7.71094 165.593 7.85985 166.209 8.15766C166.825 8.45548 167.312 8.87365 167.671 9.41217C168.03 9.95069 168.228 10.583 168.265 11.3092H165.805C165.735 10.8401 165.552 10.4627 165.254 10.1771C164.96 9.88746 164.575 9.74263 164.097 9.74263C163.694 9.74263 163.341 9.85278 163.039 10.0731C162.741 10.2893 162.508 10.6055 162.341 11.0216C162.174 11.4377 162.09 11.9416 162.09 12.5331C162.09 13.1329 162.172 13.6428 162.335 14.063C162.502 14.4832 162.737 14.8035 163.039 15.0238C163.341 15.2441 163.694 15.3543 164.097 15.3543C164.395 15.3543 164.662 15.2931 164.899 15.1707C165.14 15.0483 165.338 14.8708 165.493 14.6383C165.652 14.4016 165.756 14.1181 165.805 13.7877H168.265C168.224 14.5057 168.028 15.138 167.677 15.6847C167.331 16.2273 166.851 16.6516 166.239 16.9576C165.627 17.2636 164.903 17.4165 164.067 17.4165Z" fill="black"/>
<path d="M155.124 17.2332V7.83357H157.731V17.2332H155.124ZM156.434 6.6219C156.046 6.6219 155.714 6.49339 155.436 6.23637C155.163 5.97527 155.026 5.66317 155.026 5.30008C155.026 4.94107 155.163 4.63305 155.436 4.37603C155.714 4.11493 156.046 3.98438 156.434 3.98438C156.821 3.98438 157.152 4.11493 157.425 4.37603C157.703 4.63305 157.841 4.94107 157.841 5.30008C157.841 5.66317 157.703 5.97527 157.425 6.23637C157.152 6.49339 156.821 6.6219 156.434 6.6219Z" fill="black"/>
<path d="M152.984 4.70117V17.234H150.695L145.243 9.34591H145.151V17.234H142.501V4.70117H144.826L150.236 12.5832H150.346V4.70117H152.984Z" fill="black"/>
<path d="M135.443 17.3919C135.039 17.3919 134.693 17.2492 134.403 16.9636C134.117 16.6739 133.975 16.3271 133.975 15.9233C133.975 15.5234 134.117 15.1807 134.403 14.8952C134.693 14.6096 135.039 14.4668 135.443 14.4668C135.835 14.4668 136.178 14.6096 136.471 14.8952C136.765 15.1807 136.912 15.5234 136.912 15.9233C136.912 16.1925 136.843 16.4393 136.704 16.6637C136.569 16.884 136.392 17.0615 136.172 17.1961C135.951 17.3267 135.708 17.3919 135.443 17.3919Z" fill="black"/>
<path d="M132.222 7.83305V9.79131H126.562V7.83305H132.222ZM127.847 5.58105H130.454V14.3443C130.454 14.585 130.49 14.7726 130.564 14.9073C130.637 15.0378 130.739 15.1296 130.87 15.1826C131.004 15.2357 131.159 15.2622 131.335 15.2622C131.457 15.2622 131.58 15.252 131.702 15.2316C131.824 15.2071 131.918 15.1888 131.983 15.1765L132.393 17.1164C132.263 17.1572 132.079 17.2041 131.843 17.2572C131.606 17.3143 131.318 17.349 130.98 17.3612C130.352 17.3857 129.801 17.302 129.328 17.1103C128.858 16.9185 128.493 16.6207 128.232 16.2168C127.971 15.8129 127.843 15.303 127.847 14.687V5.58105Z" fill="black"/>
<path d="M122.778 8.30506C122.729 7.81142 122.519 7.42793 122.148 7.15459C121.776 6.88125 121.273 6.74458 120.636 6.74458C120.204 6.74458 119.838 6.80577 119.541 6.92816C119.243 7.04647 119.014 7.2117 118.855 7.42385C118.7 7.63599 118.623 7.87669 118.623 8.14595C118.615 8.37034 118.661 8.56616 118.763 8.73343C118.87 8.9007 119.014 9.04553 119.198 9.16792C119.382 9.28623 119.594 9.39026 119.834 9.48002C120.075 9.56569 120.332 9.63913 120.605 9.70032L121.731 9.96958C122.278 10.092 122.78 10.2552 123.237 10.4591C123.694 10.6631 124.09 10.914 124.424 11.2118C124.759 11.5097 125.018 11.8605 125.201 12.2644C125.389 12.6683 125.485 13.1314 125.489 13.6536C125.485 14.4205 125.289 15.0855 124.901 15.6485C124.518 16.2074 123.963 16.6419 123.237 16.952C122.515 17.258 121.644 17.411 120.624 17.411C119.612 17.411 118.731 17.2559 117.98 16.9459C117.234 16.6358 116.65 16.1768 116.23 15.569C115.814 14.957 115.596 14.2002 115.575 13.2986H118.139C118.168 13.7188 118.288 14.0697 118.5 14.3512C118.717 14.6286 119.004 14.8387 119.363 14.9815C119.726 15.1202 120.136 15.1896 120.593 15.1896C121.042 15.1896 121.432 15.1243 121.762 14.9937C122.097 14.8632 122.356 14.6816 122.539 14.4491C122.723 14.2166 122.815 13.9493 122.815 13.6474C122.815 13.3659 122.731 13.1293 122.564 12.9376C122.401 12.7458 122.16 12.5826 121.842 12.448C121.527 12.3134 121.142 12.191 120.685 12.0808L119.32 11.7381C118.264 11.4811 117.429 11.0793 116.817 10.5326C116.206 9.9859 115.902 9.24951 115.906 8.32342C115.902 7.5646 116.104 6.90164 116.511 6.33457C116.924 5.76749 117.489 5.32484 118.207 5.00662C118.925 4.68841 119.741 4.5293 120.654 4.5293C121.585 4.5293 122.396 4.68841 123.09 5.00662C123.788 5.32484 124.33 5.76749 124.718 6.33457C125.105 6.90164 125.305 7.55848 125.318 8.30506H122.778Z" fill="black"/>
<path d="M110.35 7.83397V9.79223H104.549V7.83397H110.35ZM105.877 17.2336V7.1547C105.877 6.47339 106.009 5.90835 106.275 5.45958C106.544 5.01082 106.911 4.67424 107.376 4.44986C107.841 4.22547 108.369 4.11328 108.961 4.11328C109.361 4.11328 109.726 4.14388 110.056 4.20508C110.391 4.26627 110.64 4.32135 110.803 4.3703L110.338 6.32856C110.236 6.29592 110.109 6.26532 109.959 6.23677C109.812 6.20821 109.661 6.19393 109.506 6.19393C109.122 6.19393 108.855 6.28368 108.704 6.46319C108.553 6.63862 108.478 6.88544 108.478 7.20366V17.2336H105.877Z" fill="black"/>
<path d="M98.974 17.4165C98.0235 17.4165 97.2014 17.2146 96.5079 16.8107C95.8184 16.4027 95.286 15.8357 94.9107 15.1095C94.5353 14.3792 94.3477 13.5327 94.3477 12.5699C94.3477 11.5989 94.5353 10.7503 94.9107 10.0241C95.286 9.29386 95.8184 8.72678 96.5079 8.32289C97.2014 7.91492 98.0235 7.71094 98.974 7.71094C99.9246 7.71094 100.745 7.91492 101.434 8.32289C102.128 8.72678 102.662 9.29386 103.037 10.0241C103.413 10.7503 103.6 11.5989 103.6 12.5699C103.6 13.5327 103.413 14.3792 103.037 15.1095C102.662 15.8357 102.128 16.4027 101.434 16.8107C100.745 17.2146 99.9246 17.4165 98.974 17.4165ZM98.9863 15.3971C99.4187 15.3971 99.7798 15.2747 100.069 15.0299C100.359 14.7811 100.577 14.4424 100.724 14.0141C100.875 13.5857 100.951 13.0982 100.951 12.5515C100.951 12.0048 100.875 11.5173 100.724 11.0889C100.577 10.6606 100.359 10.3219 100.069 10.0731C99.7798 9.82422 99.4187 9.69979 98.9863 9.69979C98.5498 9.69979 98.1826 9.82422 97.8848 10.0731C97.591 10.3219 97.3687 10.6606 97.2177 11.0889C97.0709 11.5173 96.9974 12.0048 96.9974 12.5515C96.9974 13.0982 97.0709 13.5857 97.2177 14.0141C97.3687 14.4424 97.591 14.7811 97.8848 15.0299C98.1826 15.2747 98.5498 15.3971 98.9863 15.3971Z" fill="black"/>
<path d="M82.5903 11.7999V17.234H79.9834V4.70117H82.5169V9.49278H82.627C82.8392 8.93794 83.1819 8.50345 83.6551 8.18932C84.1284 7.8711 84.722 7.71199 85.4359 7.71199C86.0887 7.71199 86.6578 7.85478 87.1433 8.14036C87.6328 8.42186 88.0123 8.82779 88.2815 9.35815C88.5549 9.88443 88.6895 10.5147 88.6854 11.2491V17.234H86.0785V11.7142C86.0826 11.1349 85.9357 10.6841 85.6379 10.3618C85.3441 10.0395 84.9321 9.87831 84.4017 9.87831C84.0468 9.87831 83.7326 9.95379 83.4593 10.1047C83.19 10.2557 82.9779 10.476 82.8229 10.7657C82.6719 11.0512 82.5944 11.396 82.5903 11.7999Z" fill="black"/>
<path d="M78.1285 10.5137L75.7419 10.6606C75.7011 10.4566 75.6134 10.273 75.4788 10.1098C75.3441 9.94253 75.1667 9.80994 74.9464 9.71203C74.7301 9.61004 74.4711 9.55904 74.1692 9.55904C73.7653 9.55904 73.4246 9.64472 73.1472 9.81606C72.8698 9.98333 72.7311 10.2077 72.7311 10.4892C72.7311 10.7136 72.8208 10.9033 73.0003 11.0583C73.1798 11.2134 73.4879 11.3378 73.9244 11.4316L75.6256 11.7743C76.5395 11.962 77.2208 12.2639 77.6696 12.68C78.1183 13.0961 78.3427 13.6428 78.3427 14.3201C78.3427 14.9361 78.1612 15.4767 77.7981 15.9417C77.4391 16.4068 76.9454 16.7699 76.3171 17.031C75.6929 17.288 74.9729 17.4165 74.1569 17.4165C72.9126 17.4165 71.9213 17.1575 71.1828 16.6394C70.4485 16.1172 70.0181 15.4073 69.8916 14.5098L72.4557 14.3751C72.5332 14.7545 72.7209 15.0442 73.0187 15.2441C73.3165 15.4399 73.698 15.5378 74.1631 15.5378C74.62 15.5378 74.9872 15.4501 75.2646 15.2747C75.5461 15.0952 75.6889 14.8647 75.6929 14.5832C75.6889 14.3466 75.5889 14.1528 75.3931 14.0018C75.1973 13.8468 74.8954 13.7285 74.4874 13.6469L72.8596 13.3226C71.9417 13.139 71.2583 12.8208 70.8095 12.3679C70.3648 11.9151 70.1425 11.3378 70.1425 10.6361C70.1425 10.0323 70.3057 9.51213 70.6321 9.0756C70.9625 8.63907 71.4256 8.30249 72.0212 8.06587C72.6209 7.82925 73.3226 7.71094 74.1263 7.71094C75.3135 7.71094 76.2478 7.96184 76.9291 8.46364C77.6145 8.96545 78.0143 9.6488 78.1285 10.5137Z" fill="black"/>
<path d="M65.6126 17.2332V7.83357H68.2195V17.2332H65.6126ZM66.9221 6.6219C66.5346 6.6219 66.2021 6.49339 65.9247 6.23637C65.6513 5.97527 65.5146 5.66317 65.5146 5.30008C65.5146 4.94107 65.6513 4.63305 65.9247 4.37603C66.2021 4.11493 66.5346 3.98438 66.9221 3.98438C67.3097 3.98438 67.6402 4.11493 67.9135 4.37603C68.1909 4.63305 68.3296 4.94107 68.3296 5.30008C68.3296 5.66317 68.1909 5.97527 67.9135 6.23637C67.6402 6.49339 67.3097 6.6219 66.9221 6.6219Z" fill="black"/>
<path d="M58.5615 17.2335V7.83385H61.0889V9.47389H61.1868C61.3582 8.89049 61.6458 8.44988 62.0497 8.15207C62.4536 7.85017 62.9186 7.69922 63.4449 7.69922C63.5755 7.69922 63.7162 7.70738 63.8672 7.7237C64.0181 7.74002 64.1507 7.76245 64.2649 7.79101V10.1042C64.1426 10.0675 63.9732 10.0348 63.757 10.0063C63.5408 9.97773 63.3429 9.96345 63.1634 9.96345C62.7799 9.96345 62.4372 10.0471 62.1353 10.2144C61.8375 10.3775 61.6009 10.606 61.4255 10.8997C61.2541 11.1935 61.1685 11.5321 61.1685 11.9156V17.2335H58.5615Z" fill="black"/>
<path d="M51.245 17.4104C50.6453 17.4104 50.1108 17.3064 49.6417 17.0983C49.1725 16.8862 48.8013 16.5741 48.5279 16.162C48.2587 15.7459 48.124 15.2278 48.124 14.6077C48.124 14.0855 48.2199 13.6469 48.4116 13.292C48.6034 12.937 48.8645 12.6515 49.1949 12.4352C49.5254 12.219 49.9007 12.0558 50.3209 11.9457C50.7452 11.8355 51.1899 11.758 51.655 11.7131C52.2017 11.656 52.6423 11.603 52.9768 11.554C53.3114 11.501 53.5541 11.4235 53.7051 11.3215C53.856 11.2195 53.9315 11.0685 53.9315 10.8686V10.8319C53.9315 10.4443 53.8091 10.1445 53.5643 9.93233C53.3236 9.72019 52.9809 9.61412 52.5362 9.61412C52.0671 9.61412 51.6938 9.71815 51.4163 9.92622C51.1389 10.1302 50.9553 10.3872 50.8656 10.6973L48.4545 10.5015C48.5769 9.9303 48.8176 9.43665 49.1766 9.02052C49.5356 8.60031 49.9986 8.27802 50.5657 8.05363C51.1369 7.82517 51.7978 7.71094 52.5485 7.71094C53.0707 7.71094 53.5704 7.77213 54.0478 7.89452C54.5292 8.01691 54.9555 8.20662 55.3267 8.46364C55.7021 8.72066 55.9978 9.05112 56.2141 9.45501C56.4303 9.85482 56.5384 10.3342 56.5384 10.8931V17.233H54.0661V15.9295H53.9927C53.8417 16.2232 53.6398 16.4823 53.3868 16.7067C53.1339 16.927 52.83 17.1004 52.475 17.2268C52.1201 17.3492 51.7101 17.4104 51.245 17.4104ZM51.9916 15.6113C52.3751 15.6113 52.7137 15.5358 53.0074 15.3849C53.3012 15.2298 53.5317 15.0218 53.6989 14.7607C53.8662 14.4996 53.9498 14.2038 53.9498 13.8733V12.8758C53.8682 12.9289 53.7561 12.9778 53.6133 13.0227C53.4746 13.0635 53.3175 13.1023 53.1421 13.139C52.9666 13.1716 52.7912 13.2022 52.6158 13.2308C52.4403 13.2553 52.2812 13.2777 52.1385 13.2981C51.8325 13.343 51.5653 13.4144 51.3368 13.5123C51.1083 13.6102 50.9309 13.7428 50.8044 13.91C50.6779 14.0732 50.6147 14.2772 50.6147 14.522C50.6147 14.8769 50.7432 15.1482 51.0002 15.3359C51.2613 15.5195 51.5918 15.6113 51.9916 15.6113Z" fill="black"/>
<path d="M37.709 17.234V4.70117H42.6536C43.6042 4.70117 44.414 4.88272 45.083 5.24581C45.7521 5.60483 46.2621 6.10459 46.6129 6.7451C46.9679 7.38154 47.1453 8.11588 47.1453 8.94814C47.1453 9.7804 46.9658 10.5147 46.6068 11.1512C46.2478 11.7876 45.7276 12.2833 45.0463 12.6382C44.3691 12.9932 43.5491 13.1706 42.5863 13.1706H39.4347V11.0471H42.1579C42.6679 11.0471 43.0881 10.9594 43.4185 10.784C43.7531 10.6045 44.0019 10.3577 44.1651 10.0435C44.3324 9.72533 44.416 9.36019 44.416 8.94814C44.416 8.53201 44.3324 8.16892 44.1651 7.85886C44.0019 7.54472 43.7531 7.30198 43.4185 7.13064C43.084 6.95521 42.6597 6.86749 42.1457 6.86749H40.3588V17.234H37.709Z" fill="black"/>
</svg>
