<svg width="276" height="44" viewBox="0 0 276 44" fill="none" xmlns="http://www.w3.org/2000/svg">
<path d="M10.8218 0V4.78685H6.59688V9.5737H10.8218V14.0638H0V18.8506H10.8218V25.7724L6.29469 23.1349V28.6622L10.8218 31.2998V43.0817H15.5657V34.0632L20.0928 36.7008V31.1734L15.5657 28.5359V18.8506H26.3875V14.0638H15.5657V9.5737H19.7911V4.78685H15.5657V0H10.8218Z" fill="white"/>
<path d="M273.57 38.2346V30.8789H271.808C271.331 30.8789 270.967 30.989 270.719 31.2093C270.47 31.4296 270.347 31.6908 270.351 31.9927C270.347 32.2986 270.466 32.5577 270.706 32.7698C270.951 32.9779 271.31 33.0819 271.783 33.0819H274.439V34.8444H271.783C270.98 34.8444 270.284 34.722 269.697 34.4772C269.109 34.2324 268.656 33.8918 268.338 33.4552C268.02 33.0146 267.863 32.5026 267.867 31.9192C267.863 31.3073 268.02 30.7708 268.338 30.3098C268.656 29.8447 269.111 29.4836 269.703 29.2266C270.298 28.9655 271 28.835 271.808 28.835H276V38.2346H273.57ZM267.598 38.2346L270.211 33.339H272.701L270.094 38.2346H267.598Z" fill="white"/>
<path d="M260.746 38.4124C260.146 38.4124 259.612 38.3083 259.143 38.1003C258.673 37.8881 258.302 37.576 258.029 37.164C257.76 36.7479 257.625 36.2297 257.625 35.6096C257.625 35.0874 257.721 34.6489 257.913 34.2939C258.104 33.939 258.365 33.6534 258.696 33.4372C259.026 33.221 259.402 33.0578 259.822 32.9476C260.246 32.8375 260.691 32.76 261.156 32.7151C261.703 32.658 262.143 32.6049 262.478 32.556C262.812 32.5029 263.055 32.4254 263.206 32.3234C263.357 32.2214 263.432 32.0705 263.432 31.8706V31.8339C263.432 31.4463 263.31 31.1464 263.065 30.9343C262.825 30.7221 262.482 30.6161 262.037 30.6161C261.568 30.6161 261.195 30.7201 260.917 30.9282C260.64 31.1322 260.456 31.3892 260.367 31.6992L257.955 31.5034C258.078 30.9322 258.319 30.4386 258.678 30.0225C259.037 29.6023 259.5 29.28 260.067 29.0556C260.638 28.8271 261.299 28.7129 262.049 28.7129C262.572 28.7129 263.071 28.7741 263.549 28.8965C264.03 29.0189 264.456 29.2086 264.828 29.4656C265.203 29.7226 265.499 30.0531 265.715 30.457C265.931 30.8568 266.039 31.3361 266.039 31.8951V38.2349H263.567V36.9314H263.494C263.343 37.2252 263.141 37.4842 262.888 37.7086C262.635 37.9289 262.331 38.1023 261.976 38.2288C261.621 38.3512 261.211 38.4124 260.746 38.4124ZM261.493 36.6132C261.876 36.6132 262.215 36.5378 262.508 36.3868C262.802 36.2318 263.033 36.0237 263.2 35.7626C263.367 35.5015 263.451 35.2057 263.451 34.8753V33.8778C263.369 33.9308 263.257 33.9798 263.114 34.0247C262.976 34.0655 262.818 34.1042 262.643 34.1409C262.468 34.1736 262.292 34.2042 262.117 34.2327C261.941 34.2572 261.782 34.2796 261.639 34.3C261.333 34.3449 261.066 34.4163 260.838 34.5142C260.609 34.6121 260.432 34.7447 260.305 34.912C260.179 35.0752 260.116 35.2792 260.116 35.524C260.116 35.8789 260.244 36.1502 260.501 36.3379C260.762 36.5214 261.093 36.6132 261.493 36.6132Z" fill="white"/>
<path d="M247.098 38.2346L247.086 36.1662H247.398C247.618 36.1662 247.808 36.1131 247.967 36.0071C248.13 35.8969 248.265 35.7195 248.371 35.4747C248.477 35.2299 248.561 34.9056 248.622 34.5017C248.683 34.0937 248.724 33.5919 248.744 32.9963L248.897 28.835H256.045V38.2346H253.56V30.885H251.241L251.094 33.7551C251.058 34.5425 250.962 35.2197 250.807 35.7868C250.656 36.3539 250.446 36.8189 250.176 37.182C249.907 37.541 249.583 37.8062 249.203 37.9776C248.824 38.1489 248.383 38.2346 247.881 38.2346H247.098Z" fill="white"/>
<path d="M241.328 38.4185C240.377 38.4185 239.555 38.2166 238.861 37.8127C238.172 37.4047 237.64 36.8376 237.264 36.1114C236.889 35.3812 236.701 34.5346 236.701 33.5718C236.701 32.6008 236.889 31.7523 237.264 31.0261C237.64 30.2958 238.172 29.7287 238.861 29.3248C239.555 28.9169 240.377 28.7129 241.328 28.7129C242.278 28.7129 243.098 28.9169 243.788 29.3248C244.481 29.7287 245.016 30.2958 245.391 31.0261C245.766 31.7523 245.954 32.6008 245.954 33.5718C245.954 34.5346 245.766 35.3812 245.391 36.1114C245.016 36.8376 244.481 37.4047 243.788 37.8127C243.098 38.2166 242.278 38.4185 241.328 38.4185ZM241.34 36.399C241.772 36.399 242.133 36.2767 242.423 36.0319C242.713 35.783 242.931 35.4444 243.078 35.016C243.229 34.5877 243.304 34.1001 243.304 33.5535C243.304 33.0068 243.229 32.5193 243.078 32.0909C242.931 31.6625 242.713 31.3239 242.423 31.075C242.133 30.8262 241.772 30.7017 241.34 30.7017C240.903 30.7017 240.536 30.8262 240.238 31.075C239.945 31.3239 239.722 31.6625 239.571 32.0909C239.424 32.5193 239.351 33.0068 239.351 33.5535C239.351 34.1001 239.424 34.5877 239.571 35.016C239.722 35.4444 239.945 35.783 240.238 36.0319C240.536 36.2767 240.903 36.399 241.34 36.399Z" fill="white"/>
<path d="M227.37 38.2346V28.835H229.977V32.4822H230.711L233.269 28.835H236.329L233.006 33.4981L236.366 38.2346H233.269L230.95 34.8994H229.977V38.2346H227.37Z" fill="white"/>
<path d="M219.327 34.7954L222.711 28.835H225.281V38.2346H222.796V32.2558L219.425 38.2346H216.836V28.835H219.327V34.7954Z" fill="white"/>
<path d="M204.027 38.235V25.7021H206.677V30.8732H212.056V25.7021H214.7V38.235H212.056V33.0579H206.677V38.235H204.027Z" fill="white"/>
<path d="M195.535 38.2346V30.8789H193.773C193.295 30.8789 192.932 30.989 192.683 31.2093C192.435 31.4296 192.312 31.6908 192.316 31.9927C192.312 32.2986 192.431 32.5577 192.671 32.7698C192.916 32.9779 193.275 33.0819 193.748 33.0819H196.404V34.8444H193.748C192.945 34.8444 192.249 34.722 191.662 34.4772C191.074 34.2324 190.621 33.8918 190.303 33.4552C189.985 33.0146 189.828 32.5026 189.832 31.9192C189.828 31.3073 189.985 30.7708 190.303 30.3098C190.621 29.8447 191.076 29.4836 191.668 29.2266C192.263 28.9655 192.965 28.835 193.773 28.835H197.965V38.2346H195.535ZM189.562 38.2346L192.176 33.339H194.666L192.059 38.2346H189.562Z" fill="white"/>
<path d="M179.06 38.2346L179.048 36.1662H179.36C179.58 36.1662 179.77 36.1131 179.929 36.0071C180.092 35.8969 180.227 35.7195 180.333 35.4747C180.439 35.2299 180.523 34.9056 180.584 34.5017C180.645 34.0937 180.686 33.5919 180.706 32.9963L180.859 28.835H188.007V38.2346H185.522V30.885H183.203L183.056 33.7551C183.019 34.5425 182.924 35.2197 182.769 35.7868C182.618 36.3539 182.407 36.8189 182.138 37.182C181.869 37.541 181.545 37.8062 181.165 37.9776C180.786 38.1489 180.345 38.2346 179.843 38.2346H179.06Z" fill="white"/>
<path d="M173.595 38.4185C172.628 38.4185 171.796 38.2227 171.098 37.831C170.404 37.4353 169.87 36.8764 169.495 36.1543C169.119 35.4281 168.932 34.5693 168.932 33.5779C168.932 32.611 169.119 31.7625 169.495 31.0322C169.87 30.3019 170.398 29.7328 171.08 29.3248C171.765 28.9169 172.569 28.7129 173.491 28.7129C174.111 28.7129 174.688 28.8128 175.223 29.0127C175.761 29.2086 176.23 29.5044 176.63 29.9001C177.034 30.2958 177.348 30.7935 177.572 31.3933C177.797 31.9889 177.909 32.6865 177.909 33.4861V34.2021H169.972V32.5866H175.455C175.455 32.2112 175.373 31.8787 175.21 31.5891C175.047 31.2994 174.821 31.073 174.531 30.9098C174.245 30.7425 173.913 30.6589 173.534 30.6589C173.138 30.6589 172.787 30.7507 172.481 30.9343C172.179 31.1138 171.942 31.3565 171.771 31.6625C171.6 31.9644 171.512 32.301 171.508 32.6722V34.2082C171.508 34.6733 171.594 35.0752 171.765 35.4138C171.94 35.7524 172.187 36.0135 172.505 36.1971C172.824 36.3807 173.201 36.4725 173.638 36.4725C173.927 36.4725 174.192 36.4317 174.433 36.3501C174.674 36.2685 174.88 36.1461 175.051 35.9829C175.223 35.8197 175.353 35.6198 175.443 35.3832L177.854 35.5423C177.732 36.1216 177.481 36.6275 177.101 37.06C176.726 37.4883 176.24 37.8229 175.645 38.0636C175.053 38.3002 174.37 38.4185 173.595 38.4185Z" fill="white"/>
<path d="M159.549 30.885V28.835H168.067V30.885H165.038V38.2346H162.554V30.885H159.549Z" fill="white"/>
<path d="M152.449 34.7954L155.833 28.835H158.403V38.2346H155.918V32.2558L152.547 38.2346H149.958V28.835H152.449V34.7954Z" fill="white"/>
<path d="M139.859 30.885V28.835H148.378V30.885H145.349V38.2346H142.864V30.885H139.859Z" fill="white"/>
<path d="M136.349 38.2346V30.8789H134.586C134.109 30.8789 133.746 30.989 133.497 31.2093C133.248 31.4296 133.126 31.6908 133.13 31.9927C133.126 32.2986 133.244 32.5577 133.485 32.7698C133.729 32.9779 134.089 33.0819 134.562 33.0819H137.218V34.8444H134.562C133.758 34.8444 133.062 34.722 132.475 34.4772C131.888 34.2324 131.435 33.8918 131.116 33.4552C130.798 33.0146 130.641 32.5026 130.645 31.9192C130.641 31.3073 130.798 30.7708 131.116 30.3098C131.435 29.8447 131.89 29.4836 132.481 29.2266C133.077 28.9655 133.778 28.835 134.586 28.835H138.778V38.2346H136.349ZM130.376 38.2346L132.989 33.339H135.48L132.873 38.2346H130.376Z" fill="white"/>
<path d="M120.911 38.2346V28.835H124.919C126.078 28.835 126.994 29.0553 127.667 29.4959C128.34 29.9365 128.677 30.5627 128.677 31.3746C128.677 31.8845 128.487 32.3088 128.108 32.6474C127.728 32.9861 127.202 33.2145 126.529 33.3328C127.092 33.3736 127.571 33.5021 127.967 33.7184C128.367 33.9305 128.671 34.2059 128.879 34.5445C129.091 34.8831 129.197 35.2584 129.197 35.6705C129.197 36.2049 129.054 36.6639 128.769 37.0474C128.487 37.4309 128.073 37.7246 127.526 37.9286C126.984 38.1326 126.321 38.2346 125.538 38.2346H120.911ZM123.341 36.2825H125.538C125.901 36.2825 126.184 36.1968 126.388 36.0254C126.596 35.85 126.7 35.6113 126.7 35.3094C126.7 34.9749 126.596 34.7118 126.388 34.52C126.184 34.3283 125.901 34.2324 125.538 34.2324H123.341V36.2825ZM123.341 32.7025H124.975C125.236 32.7025 125.458 32.6658 125.642 32.5924C125.829 32.5149 125.972 32.4047 126.07 32.2619C126.172 32.1191 126.223 31.9498 126.223 31.754C126.223 31.4643 126.107 31.2379 125.874 31.0747C125.642 30.9115 125.323 30.8299 124.919 30.8299H123.341V32.7025Z" fill="white"/>
<path d="M119.061 30.0893H116.38C116.331 29.7426 116.231 29.4345 116.08 29.1653C115.929 28.8919 115.736 28.6594 115.499 28.4677C115.262 28.2759 114.989 28.129 114.679 28.0271C114.373 27.9251 114.04 27.8741 113.681 27.8741C113.033 27.8741 112.468 28.0352 111.986 28.3575C111.505 28.6757 111.132 29.1408 110.866 29.7528C110.601 30.3606 110.469 31.0991 110.469 31.968C110.469 32.8615 110.601 33.6122 110.866 34.22C111.136 34.8279 111.511 35.2869 111.992 35.5969C112.474 35.907 113.031 36.062 113.663 36.062C114.018 36.062 114.346 36.0151 114.648 35.9213C114.954 35.8274 115.226 35.6908 115.462 35.5113C115.699 35.3277 115.895 35.1053 116.05 34.8442C116.209 34.5831 116.319 34.2853 116.38 33.9508L119.061 33.963C118.991 34.5383 118.818 35.0931 118.54 35.6275C118.267 36.1579 117.898 36.6332 117.433 37.0534C116.972 37.4695 116.421 37.8 115.78 38.0448C115.144 38.2855 114.424 38.4058 113.62 38.4058C112.502 38.4058 111.503 38.1529 110.622 37.647C109.745 37.1411 109.051 36.4088 108.541 35.4501C108.035 34.4913 107.782 33.3307 107.782 31.968C107.782 30.6013 108.039 29.4386 108.553 28.4799C109.067 27.5212 109.765 26.7909 110.646 26.2891C111.527 25.7832 112.519 25.5303 113.62 25.5303C114.346 25.5303 115.02 25.6323 115.64 25.8363C116.264 26.0402 116.817 26.3381 117.298 26.7297C117.78 27.1173 118.171 27.5926 118.473 28.1556C118.779 28.7186 118.975 29.3632 119.061 30.0893Z" fill="white"/>
<path d="M91.6689 40.9884V36.1662H92.3911C92.5991 36.0356 92.7664 35.8276 92.8929 35.542C93.0234 35.2564 93.1295 34.9198 93.2111 34.5323C93.2967 34.1447 93.362 33.7265 93.4069 33.2778C93.4559 32.8249 93.4987 32.368 93.5354 31.907L93.7802 28.835H100.989V36.1662H102.445V40.9884H99.9609V38.2346H94.2147V40.9884H91.6689ZM94.9857 36.1662H98.529V30.8422H95.9955L95.8976 31.907C95.8282 32.9106 95.7283 33.7632 95.5977 34.4649C95.4671 35.1626 95.2632 35.7297 94.9857 36.1662Z" fill="white"/>
<path d="M86.0824 38.4185C85.1319 38.4185 84.3098 38.2166 83.6163 37.8127C82.9268 37.4047 82.3944 36.8376 82.0191 36.1114C81.6437 35.3812 81.4561 34.5346 81.4561 33.5718C81.4561 32.6008 81.6437 31.7523 82.0191 31.0261C82.3944 30.2958 82.9268 29.7287 83.6163 29.3248C84.3098 28.9169 85.1319 28.7129 86.0824 28.7129C87.033 28.7129 87.853 28.9169 88.5425 29.3248C89.236 29.7287 89.7705 30.2958 90.1458 31.0261C90.5212 31.7523 90.7088 32.6008 90.7088 33.5718C90.7088 34.5346 90.5212 35.3812 90.1458 36.1114C89.7705 36.8376 89.236 37.4047 88.5425 37.8127C87.853 38.2166 87.033 38.4185 86.0824 38.4185ZM86.0947 36.399C86.5271 36.399 86.8882 36.2767 87.1778 36.0319C87.4675 35.783 87.6858 35.4444 87.8326 35.016C87.9836 34.5877 88.0591 34.1001 88.0591 33.5535C88.0591 33.0068 87.9836 32.5193 87.8326 32.0909C87.6858 31.6625 87.4675 31.3239 87.1778 31.075C86.8882 30.8262 86.5271 30.7017 86.0947 30.7017C85.6581 30.7017 85.291 30.8262 84.9932 31.075C84.6994 31.3239 84.4771 31.6625 84.3261 32.0909C84.1793 32.5193 84.1058 33.0068 84.1058 33.5535C84.1058 34.1001 84.1793 34.5877 84.3261 35.016C84.4771 35.4444 84.6994 35.783 84.9932 36.0319C85.291 36.2767 85.6581 36.399 86.0947 36.399Z" fill="white"/>
<path d="M74.4556 28.835L76.1813 32.1212L77.9498 28.835H80.6241L77.9009 33.5348L80.6975 38.2346H78.0355L76.1813 34.9851L74.3576 38.2346H71.665L74.4556 33.5348L71.763 28.835H74.4556Z" fill="white"/>
<path d="M64.2319 34.7954L67.616 28.835H70.1862V38.2346H67.7017V32.2558L64.3298 38.2346H61.7412V28.835H64.2319V34.7954Z" fill="white"/>
<path d="M50.8369 41.7598V28.8353H53.4071V30.4141H53.5234C53.6376 30.1612 53.8029 29.9042 54.0191 29.6431C54.2394 29.3779 54.525 29.1576 54.8758 28.9822C55.2308 28.8026 55.6714 28.7129 56.1976 28.7129C56.883 28.7129 57.5154 28.8924 58.0947 29.2514C58.674 29.6063 59.1371 30.1428 59.4838 30.8609C59.8306 31.5748 60.004 32.4703 60.004 33.5473C60.004 34.5958 59.8347 35.4811 59.4961 36.2032C59.1615 36.9213 58.7046 37.4659 58.1253 37.8371C57.5501 38.2043 56.9055 38.3879 56.1915 38.3879C55.6856 38.3879 55.2552 38.3043 54.9003 38.137C54.5494 37.9697 54.2618 37.7596 54.0374 37.5067C53.8131 37.2497 53.6417 36.9906 53.5234 36.7295H53.4438V41.7598H50.8369ZM53.3888 33.5351C53.3888 34.094 53.4663 34.5815 53.6213 34.9977C53.7763 35.4138 54.0007 35.7381 54.2945 35.9707C54.5882 36.1991 54.9452 36.3134 55.3654 36.3134C55.7897 36.3134 56.1487 36.1971 56.4424 35.9646C56.7362 35.7279 56.9585 35.4016 57.1095 34.9854C57.2645 34.5652 57.342 34.0818 57.342 33.5351C57.342 32.9925 57.2665 32.5152 57.1156 32.1031C56.9646 31.6911 56.7423 31.3688 56.4485 31.1362C56.1548 30.9037 55.7938 30.7874 55.3654 30.7874C54.9411 30.7874 54.5821 30.8996 54.2883 31.124C53.9987 31.3484 53.7763 31.6666 53.6213 32.0786C53.4663 32.4907 53.3888 32.9762 53.3888 33.5351Z" fill="white"/>
<path d="M48.3629 25.7021V38.235H45.7438V27.8562H40.6768V38.235H38.0576V25.7021H48.3629Z" fill="white"/>
<path d="M213.768 10.5137L211.382 10.6606C211.341 10.4566 211.253 10.273 211.118 10.1098C210.984 9.94253 210.806 9.80994 210.586 9.71203C210.37 9.61004 210.111 9.55904 209.809 9.55904C209.405 9.55904 209.064 9.64472 208.787 9.81606C208.509 9.98333 208.371 10.2077 208.371 10.4892C208.371 10.7136 208.46 10.9033 208.64 11.0583C208.819 11.2134 209.128 11.3378 209.564 11.4316L211.265 11.7743C212.179 11.962 212.86 12.2639 213.309 12.68C213.758 13.0961 213.982 13.6428 213.982 14.3201C213.982 14.9361 213.801 15.4767 213.438 15.9417C213.079 16.4068 212.585 16.7699 211.957 17.031C211.333 17.288 210.613 17.4165 209.797 17.4165C208.552 17.4165 207.561 17.1575 206.822 16.6394C206.088 16.1172 205.658 15.4073 205.531 14.5098L208.095 14.3751C208.173 14.7545 208.361 15.0442 208.658 15.2441C208.956 15.4399 209.338 15.5378 209.803 15.5378C210.26 15.5378 210.627 15.4501 210.904 15.2747C211.186 15.0952 211.329 14.8647 211.333 14.5832C211.329 14.3466 211.229 14.1528 211.033 14.0018C210.837 13.8468 210.535 13.7285 210.127 13.6469L208.499 13.3226C207.581 13.139 206.898 12.8208 206.449 12.3679C206.005 11.9151 205.782 11.3378 205.782 10.6361C205.782 10.0323 205.945 9.51213 206.272 9.0756C206.602 8.63907 207.065 8.30249 207.661 8.06587C208.261 7.82925 208.962 7.71094 209.766 7.71094C210.953 7.71094 211.887 7.96184 212.569 8.46364C213.254 8.96545 213.654 9.6488 213.768 10.5137Z" fill="white"/>
<path d="M198.631 17.4104C198.031 17.4104 197.497 17.3064 197.027 17.0983C196.558 16.8862 196.187 16.5741 195.914 16.162C195.644 15.7459 195.51 15.2278 195.51 14.6077C195.51 14.0855 195.606 13.6469 195.797 13.292C195.989 12.937 196.25 12.6515 196.581 12.4352C196.911 12.219 197.286 12.0558 197.707 11.9457C198.131 11.8355 198.576 11.758 199.041 11.7131C199.587 11.656 200.028 11.603 200.363 11.554C200.697 11.501 200.94 11.4235 201.091 11.3215C201.242 11.2195 201.317 11.0685 201.317 10.8686V10.8319C201.317 10.4443 201.195 10.1445 200.95 9.93233C200.709 9.72019 200.367 9.61412 199.922 9.61412C199.453 9.61412 199.079 9.71815 198.802 9.92622C198.525 10.1302 198.341 10.3872 198.251 10.6973L195.84 10.5015C195.963 9.9303 196.203 9.43665 196.562 9.02052C196.921 8.60031 197.384 8.27802 197.951 8.05363C198.523 7.82517 199.184 7.71094 199.934 7.71094C200.456 7.71094 200.956 7.77213 201.433 7.89452C201.915 8.01691 202.341 8.20662 202.712 8.46364C203.088 8.72066 203.384 9.05112 203.6 9.45501C203.816 9.85482 203.924 10.3342 203.924 10.8931V17.233H201.452V15.9295H201.378C201.227 16.2232 201.026 16.4823 200.773 16.7067C200.52 16.927 200.216 17.1004 199.861 17.2268C199.506 17.3492 199.096 17.4104 198.631 17.4104ZM199.377 15.6113C199.761 15.6113 200.099 15.5358 200.393 15.3849C200.687 15.2298 200.917 15.0218 201.085 14.7607C201.252 14.4996 201.336 14.2038 201.336 13.8733V12.8758C201.254 12.9289 201.142 12.9778 200.999 13.0227C200.86 13.0635 200.703 13.1023 200.528 13.139C200.352 13.1716 200.177 13.2022 200.002 13.2308C199.826 13.2553 199.667 13.2777 199.524 13.2981C199.218 13.343 198.951 13.4144 198.723 13.5123C198.494 13.6102 198.317 13.7428 198.19 13.91C198.064 14.0732 198 14.2772 198 14.522C198 14.8769 198.129 15.1482 198.386 15.3359C198.647 15.5195 198.977 15.6113 199.377 15.6113Z" fill="white"/>
<path d="M193.863 4.7002V17.233H191.256V4.7002H193.863Z" fill="white"/>
<path d="M184.935 17.4165C183.984 17.4165 183.162 17.2146 182.469 16.8107C181.779 16.4027 181.247 15.8357 180.872 15.1095C180.496 14.3792 180.309 13.5327 180.309 12.5699C180.309 11.5989 180.496 10.7503 180.872 10.0241C181.247 9.29386 181.779 8.72678 182.469 8.32289C183.162 7.91492 183.984 7.71094 184.935 7.71094C185.886 7.71094 186.706 7.91492 187.395 8.32289C188.089 8.72678 188.623 9.29386 188.998 10.0241C189.374 10.7503 189.561 11.5989 189.561 12.5699C189.561 13.5327 189.374 14.3792 188.998 15.1095C188.623 15.8357 188.089 16.4027 187.395 16.8107C186.706 17.2146 185.886 17.4165 184.935 17.4165ZM184.947 15.3971C185.38 15.3971 185.741 15.2747 186.03 15.0299C186.32 14.7811 186.538 14.4424 186.685 14.0141C186.836 13.5857 186.912 13.0982 186.912 12.5515C186.912 12.0048 186.836 11.5173 186.685 11.0889C186.538 10.6606 186.32 10.3219 186.03 10.0731C185.741 9.82422 185.38 9.69979 184.947 9.69979C184.511 9.69979 184.144 9.82422 183.846 10.0731C183.552 10.3219 183.33 10.6606 183.179 11.0889C183.032 11.5173 182.958 12.0048 182.958 12.5515C182.958 13.0982 183.032 13.5857 183.179 14.0141C183.33 14.4424 183.552 14.7811 183.846 15.0299C184.144 15.2747 184.511 15.3971 184.947 15.3971Z" fill="white"/>
<path d="M172.541 11.7989V17.233H169.934V4.7002H172.467V9.49181H172.577C172.789 8.93697 173.132 8.50248 173.605 8.18834C174.079 7.87012 174.672 7.71102 175.386 7.71102C176.039 7.71102 176.608 7.85381 177.093 8.13938C177.583 8.42088 177.962 8.82681 178.232 9.35718C178.505 9.88346 178.64 10.5138 178.636 11.2481V17.233H176.029V11.7132C176.033 11.1339 175.886 10.6831 175.588 10.3608C175.294 10.0385 174.882 9.87734 174.352 9.87734C173.997 9.87734 173.683 9.95281 173.409 10.1038C173.14 10.2547 172.928 10.475 172.773 10.7647C172.622 11.0503 172.545 11.395 172.541 11.7989Z" fill="white"/>
<path d="M164.067 17.4165C163.104 17.4165 162.276 17.2126 161.582 16.8046C160.893 16.3925 160.362 15.8214 159.991 15.0911C159.624 14.3609 159.44 13.5204 159.44 12.5699C159.44 11.6071 159.626 10.7626 159.997 10.0364C160.373 9.3061 160.905 8.73698 161.595 8.32901C162.284 7.91696 163.104 7.71094 164.055 7.71094C164.875 7.71094 165.593 7.85985 166.209 8.15766C166.825 8.45548 167.312 8.87365 167.671 9.41217C168.03 9.95069 168.228 10.583 168.265 11.3092H165.805C165.735 10.8401 165.552 10.4627 165.254 10.1771C164.96 9.88746 164.575 9.74263 164.097 9.74263C163.694 9.74263 163.341 9.85278 163.039 10.0731C162.741 10.2893 162.508 10.6055 162.341 11.0216C162.174 11.4377 162.09 11.9416 162.09 12.5331C162.09 13.1329 162.172 13.6428 162.335 14.063C162.502 14.4832 162.737 14.8035 163.039 15.0238C163.341 15.2441 163.694 15.3543 164.097 15.3543C164.395 15.3543 164.662 15.2931 164.899 15.1707C165.14 15.0483 165.338 14.8708 165.493 14.6383C165.652 14.4016 165.756 14.1181 165.805 13.7877H168.265C168.224 14.5057 168.028 15.138 167.677 15.6847C167.331 16.2273 166.851 16.6516 166.239 16.9576C165.627 17.2636 164.903 17.4165 164.067 17.4165Z" fill="white"/>
<path d="M155.124 17.2322V7.8326H157.731V17.2322H155.124ZM156.434 6.62093C156.046 6.62093 155.714 6.49242 155.436 6.23539C155.163 5.97429 155.026 5.6622 155.026 5.2991C155.026 4.94009 155.163 4.63207 155.436 4.37505C155.714 4.11395 156.046 3.9834 156.434 3.9834C156.821 3.9834 157.152 4.11395 157.425 4.37505C157.703 4.63207 157.841 4.94009 157.841 5.2991C157.841 5.6622 157.703 5.97429 157.425 6.23539C157.152 6.49242 156.821 6.62093 156.434 6.62093Z" fill="white"/>
<path d="M152.984 4.7002V17.233H150.695L145.243 9.34494H145.151V17.233H142.501V4.7002H144.826L150.236 12.5822H150.346V4.7002H152.984Z" fill="white"/>
<path d="M135.443 17.391C135.039 17.391 134.693 17.2482 134.403 16.9626C134.117 16.6729 133.975 16.3262 133.975 15.9223C133.975 15.5225 134.117 15.1798 134.403 14.8942C134.693 14.6086 135.039 14.4658 135.443 14.4658C135.835 14.4658 136.178 14.6086 136.471 14.8942C136.765 15.1798 136.912 15.5225 136.912 15.9223C136.912 16.1915 136.843 16.4384 136.704 16.6627C136.569 16.883 136.392 17.0605 136.172 17.1951C135.951 17.3257 135.708 17.391 135.443 17.391Z" fill="white"/>
<path d="M132.222 7.83207V9.79033H126.562V7.83207H132.222ZM127.847 5.58008H130.454V14.3433C130.454 14.584 130.49 14.7716 130.564 14.9063C130.637 15.0368 130.739 15.1286 130.87 15.1817C131.004 15.2347 131.159 15.2612 131.335 15.2612C131.457 15.2612 131.58 15.251 131.702 15.2306C131.824 15.2061 131.918 15.1878 131.983 15.1755L132.393 17.1154C132.263 17.1562 132.079 17.2032 131.843 17.2562C131.606 17.3133 131.318 17.348 130.98 17.3602C130.352 17.3847 129.801 17.3011 129.328 17.1093C128.858 16.9176 128.493 16.6198 128.232 16.2159C127.971 15.812 127.843 15.302 127.847 14.686V5.58008Z" fill="white"/>
<path d="M122.778 8.30409C122.729 7.81044 122.519 7.42695 122.148 7.15361C121.776 6.88027 121.273 6.7436 120.636 6.7436C120.204 6.7436 119.838 6.80479 119.541 6.92719C119.243 7.0455 119.014 7.21073 118.855 7.42287C118.7 7.63501 118.623 7.87572 118.623 8.14498C118.615 8.36936 118.661 8.56519 118.763 8.73245C118.87 8.89972 119.014 9.04455 119.198 9.16694C119.382 9.28525 119.594 9.38929 119.834 9.47904C120.075 9.56471 120.332 9.63815 120.605 9.69934L121.731 9.9686C122.278 10.091 122.78 10.2542 123.237 10.4582C123.694 10.6622 124.09 10.9131 124.424 11.2109C124.759 11.5087 125.018 11.8595 125.201 12.2634C125.389 12.6673 125.485 13.1304 125.489 13.6526C125.485 14.4196 125.289 15.0846 124.901 15.6476C124.518 16.2065 123.963 16.641 123.237 16.951C122.515 17.257 121.644 17.41 120.624 17.41C119.612 17.41 118.731 17.255 117.98 16.9449C117.234 16.6348 116.65 16.1759 116.23 15.568C115.814 14.956 115.596 14.1993 115.575 13.2976H118.139C118.168 13.7179 118.288 14.0687 118.5 14.3502C118.717 14.6276 119.004 14.8377 119.363 14.9805C119.726 15.1192 120.136 15.1886 120.593 15.1886C121.042 15.1886 121.432 15.1233 121.762 14.9928C122.097 14.8622 122.356 14.6807 122.539 14.4481C122.723 14.2156 122.815 13.9484 122.815 13.6465C122.815 13.365 122.731 13.1283 122.564 12.9366C122.401 12.7448 122.16 12.5817 121.842 12.447C121.527 12.3124 121.142 12.19 120.685 12.0799L119.32 11.7372C118.264 11.4801 117.429 11.0783 116.817 10.5316C116.206 9.98492 115.902 9.24854 115.906 8.32244C115.902 7.56362 116.104 6.90067 116.511 6.33359C116.924 5.76651 117.489 5.32386 118.207 5.00565C118.925 4.68743 119.741 4.52832 120.654 4.52832C121.585 4.52832 122.396 4.68743 123.09 5.00565C123.788 5.32386 124.33 5.76651 124.718 6.33359C125.105 6.90067 125.305 7.5575 125.318 8.30409H122.778Z" fill="white"/>
<path d="M110.35 7.83299V9.79125H104.549V7.83299H110.35ZM105.877 17.2326V7.15372C105.877 6.47241 106.009 5.90737 106.275 5.45861C106.544 5.00984 106.911 4.67326 107.376 4.44888C107.841 4.2245 108.369 4.1123 108.961 4.1123C109.361 4.1123 109.726 4.1429 110.056 4.2041C110.391 4.26529 110.64 4.32037 110.803 4.36933L110.338 6.32758C110.236 6.29495 110.109 6.26435 109.959 6.23579C109.812 6.20723 109.661 6.19295 109.506 6.19295C109.122 6.19295 108.855 6.28271 108.704 6.46221C108.553 6.63764 108.478 6.88446 108.478 7.20268V17.2326H105.877Z" fill="white"/>
<path d="M98.974 17.4165C98.0235 17.4165 97.2014 17.2146 96.5079 16.8107C95.8184 16.4027 95.286 15.8357 94.9107 15.1095C94.5353 14.3792 94.3477 13.5327 94.3477 12.5699C94.3477 11.5989 94.5353 10.7503 94.9107 10.0241C95.286 9.29386 95.8184 8.72678 96.5079 8.32289C97.2014 7.91492 98.0235 7.71094 98.974 7.71094C99.9246 7.71094 100.745 7.91492 101.434 8.32289C102.128 8.72678 102.662 9.29386 103.037 10.0241C103.413 10.7503 103.6 11.5989 103.6 12.5699C103.6 13.5327 103.413 14.3792 103.037 15.1095C102.662 15.8357 102.128 16.4027 101.434 16.8107C100.745 17.2146 99.9246 17.4165 98.974 17.4165ZM98.9863 15.3971C99.4187 15.3971 99.7798 15.2747 100.069 15.0299C100.359 14.7811 100.577 14.4424 100.724 14.0141C100.875 13.5857 100.951 13.0982 100.951 12.5515C100.951 12.0048 100.875 11.5173 100.724 11.0889C100.577 10.6606 100.359 10.3219 100.069 10.0731C99.7798 9.82422 99.4187 9.69979 98.9863 9.69979C98.5498 9.69979 98.1826 9.82422 97.8848 10.0731C97.591 10.3219 97.3687 10.6606 97.2177 11.0889C97.0709 11.5173 96.9974 12.0048 96.9974 12.5515C96.9974 13.0982 97.0709 13.5857 97.2177 14.0141C97.3687 14.4424 97.591 14.7811 97.8848 15.0299C98.1826 15.2747 98.5498 15.3971 98.9863 15.3971Z" fill="white"/>
<path d="M82.5903 11.7989V17.233H79.9834V4.7002H82.5169V9.49181H82.627C82.8392 8.93697 83.1819 8.50248 83.6551 8.18834C84.1284 7.87012 84.722 7.71102 85.4359 7.71102C86.0887 7.71102 86.6578 7.85381 87.1433 8.13938C87.6328 8.42088 88.0123 8.82681 88.2815 9.35718C88.5549 9.88346 88.6895 10.5138 88.6854 11.2481V17.233H86.0785V11.7132C86.0826 11.1339 85.9357 10.6831 85.6379 10.3608C85.3441 10.0385 84.9321 9.87734 84.4017 9.87734C84.0468 9.87734 83.7326 9.95281 83.4593 10.1038C83.19 10.2547 82.9779 10.475 82.8229 10.7647C82.6719 11.0503 82.5944 11.395 82.5903 11.7989Z" fill="white"/>
<path d="M78.1285 10.5137L75.7419 10.6606C75.7011 10.4566 75.6134 10.273 75.4788 10.1098C75.3441 9.94253 75.1667 9.80994 74.9464 9.71203C74.7301 9.61004 74.4711 9.55904 74.1692 9.55904C73.7653 9.55904 73.4246 9.64472 73.1472 9.81606C72.8698 9.98333 72.7311 10.2077 72.7311 10.4892C72.7311 10.7136 72.8208 10.9033 73.0003 11.0583C73.1798 11.2134 73.4879 11.3378 73.9244 11.4316L75.6256 11.7743C76.5395 11.962 77.2208 12.2639 77.6696 12.68C78.1183 13.0961 78.3427 13.6428 78.3427 14.3201C78.3427 14.9361 78.1612 15.4767 77.7981 15.9417C77.4391 16.4068 76.9454 16.7699 76.3171 17.031C75.6929 17.288 74.9729 17.4165 74.1569 17.4165C72.9126 17.4165 71.9213 17.1575 71.1828 16.6394C70.4485 16.1172 70.0181 15.4073 69.8916 14.5098L72.4557 14.3751C72.5332 14.7545 72.7209 15.0442 73.0187 15.2441C73.3165 15.4399 73.698 15.5378 74.1631 15.5378C74.62 15.5378 74.9872 15.4501 75.2646 15.2747C75.5461 15.0952 75.6889 14.8647 75.6929 14.5832C75.6889 14.3466 75.5889 14.1528 75.3931 14.0018C75.1973 13.8468 74.8954 13.7285 74.4874 13.6469L72.8596 13.3226C71.9417 13.139 71.2583 12.8208 70.8095 12.3679C70.3648 11.9151 70.1425 11.3378 70.1425 10.6361C70.1425 10.0323 70.3057 9.51213 70.6321 9.0756C70.9625 8.63907 71.4256 8.30249 72.0212 8.06587C72.6209 7.82925 73.3226 7.71094 74.1263 7.71094C75.3135 7.71094 76.2478 7.96184 76.9291 8.46364C77.6145 8.96545 78.0143 9.6488 78.1285 10.5137Z" fill="white"/>
<path d="M65.6126 17.2322V7.8326H68.2195V17.2322H65.6126ZM66.9221 6.62093C66.5346 6.62093 66.2021 6.49242 65.9247 6.23539C65.6513 5.97429 65.5146 5.6622 65.5146 5.2991C65.5146 4.94009 65.6513 4.63207 65.9247 4.37505C66.2021 4.11395 66.5346 3.9834 66.9221 3.9834C67.3097 3.9834 67.6402 4.11395 67.9135 4.37505C68.1909 4.63207 68.3296 4.94009 68.3296 5.2991C68.3296 5.6622 68.1909 5.97429 67.9135 6.23539C67.6402 6.49242 67.3097 6.62093 66.9221 6.62093Z" fill="white"/>
<path d="M58.5615 17.2335V7.83385H61.0889V9.47389H61.1868C61.3582 8.89049 61.6458 8.44988 62.0497 8.15207C62.4536 7.85017 62.9186 7.69922 63.4449 7.69922C63.5755 7.69922 63.7162 7.70738 63.8672 7.7237C64.0181 7.74002 64.1507 7.76245 64.2649 7.79101V10.1042C64.1426 10.0675 63.9732 10.0348 63.757 10.0063C63.5408 9.97773 63.3429 9.96345 63.1634 9.96345C62.7799 9.96345 62.4372 10.0471 62.1353 10.2144C61.8375 10.3775 61.6009 10.606 61.4255 10.8997C61.2541 11.1935 61.1685 11.5321 61.1685 11.9156V17.2335H58.5615Z" fill="white"/>
<path d="M51.245 17.4104C50.6453 17.4104 50.1108 17.3064 49.6417 17.0983C49.1725 16.8862 48.8013 16.5741 48.5279 16.162C48.2587 15.7459 48.124 15.2278 48.124 14.6077C48.124 14.0855 48.2199 13.6469 48.4116 13.292C48.6034 12.937 48.8645 12.6515 49.1949 12.4352C49.5254 12.219 49.9007 12.0558 50.3209 11.9457C50.7452 11.8355 51.1899 11.758 51.655 11.7131C52.2017 11.656 52.6423 11.603 52.9768 11.554C53.3114 11.501 53.5541 11.4235 53.7051 11.3215C53.856 11.2195 53.9315 11.0685 53.9315 10.8686V10.8319C53.9315 10.4443 53.8091 10.1445 53.5643 9.93233C53.3236 9.72019 52.9809 9.61412 52.5362 9.61412C52.0671 9.61412 51.6938 9.71815 51.4163 9.92622C51.1389 10.1302 50.9553 10.3872 50.8656 10.6973L48.4545 10.5015C48.5769 9.9303 48.8176 9.43665 49.1766 9.02052C49.5356 8.60031 49.9986 8.27802 50.5657 8.05363C51.1369 7.82517 51.7978 7.71094 52.5485 7.71094C53.0707 7.71094 53.5704 7.77213 54.0478 7.89452C54.5292 8.01691 54.9555 8.20662 55.3267 8.46364C55.7021 8.72066 55.9978 9.05112 56.2141 9.45501C56.4303 9.85482 56.5384 10.3342 56.5384 10.8931V17.233H54.0661V15.9295H53.9927C53.8417 16.2232 53.6398 16.4823 53.3868 16.7067C53.1339 16.927 52.83 17.1004 52.475 17.2268C52.1201 17.3492 51.7101 17.4104 51.245 17.4104ZM51.9916 15.6113C52.3751 15.6113 52.7137 15.5358 53.0074 15.3849C53.3012 15.2298 53.5317 15.0218 53.6989 14.7607C53.8662 14.4996 53.9498 14.2038 53.9498 13.8733V12.8758C53.8682 12.9289 53.7561 12.9778 53.6133 13.0227C53.4746 13.0635 53.3175 13.1023 53.1421 13.139C52.9666 13.1716 52.7912 13.2022 52.6158 13.2308C52.4403 13.2553 52.2812 13.2777 52.1385 13.2981C51.8325 13.343 51.5653 13.4144 51.3368 13.5123C51.1083 13.6102 50.9309 13.7428 50.8044 13.91C50.6779 14.0732 50.6147 14.2772 50.6147 14.522C50.6147 14.8769 50.7432 15.1482 51.0002 15.3359C51.2613 15.5195 51.5918 15.6113 51.9916 15.6113Z" fill="white"/>
<path d="M37.709 17.233V4.7002H42.6536C43.6042 4.7002 44.414 4.88174 45.083 5.24484C45.7521 5.60385 46.2621 6.10361 46.6129 6.74413C46.9679 7.38056 47.1453 8.11491 47.1453 8.94717C47.1453 9.77943 46.9658 10.5138 46.6068 11.1502C46.2478 11.7866 45.7276 12.2823 45.0463 12.6373C44.3691 12.9922 43.5491 13.1697 42.5863 13.1697H39.4347V11.0462H42.1579C42.6679 11.0462 43.0881 10.9585 43.4185 10.783C43.7531 10.6035 44.0019 10.3567 44.1651 10.0426C44.3324 9.72435 44.416 9.35922 44.416 8.94717C44.416 8.53104 44.3324 8.16794 44.1651 7.85788C44.0019 7.54375 43.7531 7.30101 43.4185 7.12966C43.084 6.95423 42.6597 6.86652 42.1457 6.86652H40.3588V17.233H37.709Z" fill="white"/>
</svg>
