<?xml version="1.0" encoding="UTF-8"?>
<svg id="Layer_2" data-name="Layer 2" xmlns="http://www.w3.org/2000/svg" viewBox="0 0 218.06 218.06">
  <defs>
    <style>
      .cls-1 {
        fill: #872436;
      }

      .cls-2 {
        fill: #564c42;
      }

      .cls-3 {
        fill: none;
      }
    </style>
  </defs>
  <g id="Layer_1-2" data-name="Layer 1-2">
    <g>
      <path class="cls-3" d="M175.37,50.29c.57.66,1.27,1.08,2.03,1.05.62-.04,1.35-.35,2.01-.92,1.31-1.13,1.41-2.74.63-3.64-.26-.3-.42-.4-.73-.57-.19-.1-.37-.1-.55,0-.5.33-1.15.86-2.45,1.96-1.53,1.29-1.54,1.31-1.47,1.45.07.15.28.39.53.67Z"/>
      <path class="cls-3" d="M163.68,40.61c.49.4.77.63,1.17.93.15.13.38.07.4.02.83-2.14,1.21-3.27,1.48-4.14.03-.13-.05-.22-.13-.18-1.46.73-2.09,1.09-4,2.17-.09.05-.03.28.19.46.18.15.45.39.89.75h0Z"/>
      <path class="cls-3" d="M150.48,180.88c-.34.2-.47.34-.7.62-.13.17-.16.35-.1.54.23.55.64,1.28,1.49,2.76,1,1.74,1.01,1.75,1.17,1.71s.43-.21.76-.4c.75-.44,1.29-1.06,1.4-1.81.07-.62-.1-1.39-.55-2.14-.88-1.49-2.44-1.88-3.47-1.28h0Z"/>
      <path class="cls-3" d="M63.09,181.49c.95-1.44.62-3.02-.38-3.67-.33-.22-.51-.27-.86-.35-.21-.04-.38,0-.53.15-.39.45-.87,1.14-1.83,2.55-1.12,1.66-1.13,1.68-1.02,1.8.11.12.38.3.69.5.73.48,1.52.69,2.24.46.59-.21,1.2-.7,1.69-1.43h0Z"/>
      <path class="cls-3" d="M109.03,2.13C50.08,2.13,2.13,50.08,2.13,109.03s47.96,106.91,106.91,106.91,106.91-47.96,106.91-106.91S167.98,2.13,109.03,2.13ZM192.76,64.68c.47.32,1.31,1.21,1.93,2.48.25.5.53,1.26.66,1.6.06.21.14.37.23.6.07.19.23.28.57.25.11.23.27.55.28.61-.95.4-1.84.89-2.83,1.62-.14.11-.21.1-.3.06-.2-.13-.33-.17-.48-.3-.04-.03-.04-.13.06-.23.67-.71,1.05-1.18,1.2-1.96.14-.62.04-1.59-.32-2.3-.46-.93-1.68-1.25-2.51-.84-.52.25-.86.62-1.02,1.12-.19.6-.3,1.14-.23,2.32.08,1.46.09,2.61-.18,3.45-.35,1.08-.85,1.68-1.83,2.16-1.32.65-2.62.38-3.58-.31-.96-.68-1.91-2.13-2.23-2.77-.34-.69-.65-1.58-.79-2.28-.03-.16-.08-.25-.17-.34-.11-.08-.24-.13-.42-.17-.15-.08-.22-.18-.28-.3-.05-.11-.06-.17-.05-.28.02-.05.15-.19.62-.44.91-.49,1.71-1.02,2.71-1.71.12-.08.14-.07.2,0,.07.1.16.23.2.32.05.11.06.21-.05.34-.21.24-.52.52-.78,1.02-.59,1.13-.79,2.78-.31,3.76.62,1.26,1.96,1.82,3.26,1.18.55-.27.99-.91,1.05-1.63.04-.37.12-.92.07-2.11-.08-1.51,0-2.58.44-3.6.23-.56.76-1.19,1.65-1.63,1.21-.6,2.36-.28,3.23.31ZM184.69,58.11c2.24-1.46,2.47-1.63,2.17-2.29-.12-.25-.27-.56-.41-.77-.07-.1-.05-.15.05-.22.05-.03.18-.09.37-.12.14,0,.19,0,.22.05.1.12.2.27.35.5.16.25.41.7,1.38,2.16.53.81,1.23,1.81,1.35,1.99.14.22.13.24.1.29l-.37.48c-1.11-1.29-1.31-1.32-1.66-1.19-.34.13-1.01.49-2.7,1.6l-2.63,1.71c-1.28.83-2.53,1.72-3.08,2.22-.25.23-.33.4-.22.64.06.13.23.54.39.93.05.08.04.14,0,.17-.1.06-.46.23-.59.26-.76-1.24-1.2-1.94-1.65-2.64-.86-1.31-1.48-2.12-1.51-2.17-.08-.12-.05-.23,0-.29.11-.09.31-.32.42-.37.69.88,1,1.17,1.58,1.01.29-.1.92-.34,3.13-1.78l3.31-2.16h0ZM174.12,46.81c.89-.77,1.94-1.73,2.41-2.16.56-.51.52-.55-.04-1.75l.37-.48c.08-.09.18-.03.26.06.59.65,1.24,1.37,1.84,2.01.86.88,1.19,1.23,1.68,1.8.88,1.02,1.54,2,1.73,3.46.13.97-.27,2.09-.91,2.65-1.32,1.14-2.75.61-3.53.37-.1-.02-.29.06-.37.18-.32.45-.87,1.54-1.28,2.83-.47,1.46-.65,3.26-.26,4.47.08.25-.04.35-.3.5-.18.13-.3.02-.35-.04-1.13-1.46-1.73-2.86-1.59-4.66.1-1.16.56-2.27,1.11-3.39.32-.69.44-1.19-.2-1.93-.21-.24-.35-.38-.53-.52-.08-.06-.27.02-.37.11-1.31,1.13-2.06,1.83-2.62,2.34-.26.25-.28.35-.27.47,0,.25.53,1.01.74,1.46-.04.11-.46.37-.58.37-.04,0-.11-.06-.24-.21-.13-.15-1.48-1.74-2.14-2.5-.44-.51-.75-.77-1.07-1.15-.13-.15-.18-.21-.15-.26.08-.15.28-.43.42-.49.35.25.78.54,1.03.55.38,0,1.4-.81,3.32-2.47l1.88-1.62h0ZM168.57,35.1c.12-.08.23-.12.31-.1.23.06.59.22.82.41.17.14.16.18.05.47-.64,1.73-1.01,2.84-1.64,4.71-.61,1.81-1.6,5.17-1.8,5.91-.29,1.17-.39,1.76.36,2.67.04-.02-.49.42-.63.33-1.55-1.29-1.83-1.55-2.36-1.97-.49-.4-1.19-.89-1.36-1.03-.06-.05-.08-.09-.06-.15.03-.1.16-.54.21-.54.77.35.94.33,1.19.02.3-.37.91-2.28.97-2.51.12-.39.07-.58-.02-.66-.55-.45-2.2-1.82-2.96-2.34-.27-.2-.45-.14-.78.05-.48.27-1.54.82-1.91,1.28-.31.38-.21.73.39,1.47.1.13-.45.45-.54.41-.96-.81-1.83-1.52-2.14-1.77-.28-.23-.52-.4-.58-.45-.08-.06-.08-.09-.06-.15.02-.11.16-.54.26-.5.98.44,1.69-.06,2.63-.52.97-.46,6.18-3.12,8.56-4.41.43-.24.85-.51,1.09-.62h0ZM146.62,35.59l.25-.5c.99.47,1.29.54,1.76-.06.19-.24.74-1.01,1.61-2.46l1.73-2.9c1.13-1.89,1.71-2.91,1.86-3.42.09-.22,0-.36-.93-.95-.15-.09-.17-.17-.08-.33.04-.07.29-.33.37-.35.36.21,1.88,1.22,2.46,1.56.44.26,2.03,1.17,2.3,1.33.92.55,2.05,1.43,2.68,2.94.54,1.29.12,2.59-.19,3.1-.64,1.07-1.54,1.53-2.64,1.8-1.51.37-3.42-.26-4.72-1.04-.44-.26-.6-.36-.71-.43-.1-.06-.15-.06-.3.19-.4.66-.75,1.33-1.01,1.89-.25.5-.37.89.04,1.29.13.13.42.41.96.9.1.06.11.09.05.19-.13.22-.25.38-.35.46-1.52-.93-2.18-1.35-2.55-1.57-.97-.58-1.84-1.03-2.51-1.41-.15-.09-.14-.15-.08-.25v.02ZM131.5,29.44c.3-.99.49-1.93.72-3.13.03-.14.05-.15.15-.14.12.02.28.05.37.08.11.04.19.11.2.28.02.32,0,.73.17,1.28.38,1.22,1.4,2.53,2.43,2.89,1.33.46,2.67-.09,3.14-1.46.2-.58.06-1.34-.4-1.9-.24-.29-.57-.74-1.44-1.54-1.12-1.01-1.83-1.82-2.23-2.86-.23-.56-.3-1.38.02-2.32.44-1.28,1.48-1.87,2.51-2.06.56-.1,1.78-.06,3.12.4.53.18,1.27.52,1.59.67.19.11.36.17.58.26.18.08.36.04.58-.22.24.08.58.2.63.24-.39.96-.68,1.93-.87,3.14-.02.18-.08.23-.17.26-.23.05-.35.11-.55.13-.04,0-.12-.06-.12-.21-.02-.97-.09-1.58-.54-2.24-.34-.54-1.09-1.15-1.85-1.41-.98-.33-2.07.3-2.38,1.18-.19.54-.17,1.05.07,1.51.29.56.59,1.02,1.48,1.81,1.09.98,1.91,1.78,2.31,2.57.51,1.01.58,1.79.23,2.83-.48,1.39-1.59,2.12-2.76,2.31-1.16.19-2.86-.16-3.54-.39-.73-.25-1.58-.67-2.18-1.06-.14-.09-.23-.12-.36-.12-.13.02-.26.08-.42.17-.16.05-.28.03-.41-.02-.11-.04-.16-.08-.24-.17-.02-.05-.02-.24.13-.75h.03ZM116.49,26.24c1.06-.1,1.44-.88,2.03-1.74.62-.88,3.86-5.76,5.3-8.05.25-.42.49-.86.65-1.08.06-.13.14-.22.22-.24.23-.06.62-.09.91-.04.22.04.23.08.28.39.29,1.82.51,2.97.88,4.91.36,1.88,1.14,5.29,1.33,6.03.32,1.16.53,1.72,1.62,2.15.03-.04-.22.61-.38.6-1.99-.36-2.36-.45-3.02-.56-.63-.11-1.48-.2-1.69-.23-.08-.01-.11-.04-.12-.1-.02-.1-.13-.55-.08-.58.84-.08.98-.17,1.04-.56.08-.47-.32-2.43-.38-2.67-.09-.4-.23-.54-.35-.56-.71-.12-2.81-.51-3.73-.58-.34-.04-.46.1-.66.43-.28.47-.94,1.47-1.04,2.06-.09.49.17.74,1.06,1.09.15.07-.17.62-.27.62-1.23-.23-2.34-.43-2.73-.49-.35-.06-.65-.09-.73-.11-.1-.02-.11-.04-.12-.1-.04-.11-.13-.55-.02-.57v-.02ZM104.21,14.43l.14-.42c.02-.08.04-.08.08-.08.75.02,1.53.05,2.32.03,1.25-.01,2.48-.07,3.42-.1.1.02.18.62.15.72-.71.13-1.63.21-1.75.88-.1.54-.15,1.35-.14,3.41v2.5c0,2.86.03,3.49.06,3.87.02.38.1.5.41.6s.59.14,1.49.15c1.37,0,2.6-.16,3.2-1.19.16-.26.3-.65.44-1.29.04-.12.08-.14.2-.14s.44.12.57.18c.06.04.14.16.1.26-.32,1.03-.51,1.88-.67,2.68-.04.26-.14.32-.36.36-.18.02-.42.02-1.25.01-.79,0-1.75-.07-5.3-.09-1.21,0-2.24.09-2.68.12-.14,0-.24,0-.28-.04-.06-.16-.14-.52-.1-.64.86-.15,1.47-.39,1.57-.92.06-.38.12-.95.13-2.82l.02-3.93c0-1.67-.06-2.72-.16-3.36-.06-.36-.22-.48-1.58-.45-.04,0-.12-.12-.06-.32l.03.02ZM88.58,17.67c1.12-1.46,2.89-2.42,4.69-2.73,3.66-.62,7.34,1.63,7.94,5.19.41,2.41-.34,4.38-1.42,5.65-1.24,1.5-2.84,2.23-3.86,2.4-2.23.38-4.6-.09-6.26-1.42-1.16-.93-2.14-2.55-2.41-4.14-.29-1.68.13-3.48,1.31-4.97v.02ZM67.76,23.12c.65-.25,1.29-.5,1.91-.74.54-.21,1.04-.4,1.51-.61.44-.19.87-.38,1.27-.56.09.07.28.51.28.61-.46.3-1.02.65-.94,1.09.07.35.27,1.02.94,2.74.57,1.46.67,1.55.91,1.46l4.01-1.56c.98-.38,2.07-.81,2.27-.95.17-.11.17-.22,0-.66l-.63-1.63c-.33-.85-.56-1.4-.69-1.73-.27-.64-.67-.57-1.81-.27-.09,0-.21-.64-.14-.69.93-.36,1.85-.68,2.77-1.04.28-.11.71-.32,1.11-.49.41-.2.79-.33.82-.34.23-.11.3-.12.35-.09.19.2.27.3.32.45-.98.6-1.21.83-1.03,1.45.1.3.38,1.15,1.02,2.78l1.3,3.35c.59,1.52.94,2.25,1.22,2.85.24.5.51.65,1.73.33.1.09.17.72.07.78l-2.74,1.07c-1.57.61-1.86.79-2.14.9-.11.04-.13.05-.15,0l-.21-.6c.91-.46,1.06-.71,1.05-.96,0-.3-.28-1.17-.84-2.61l-.57-1.46c-.06-.1-.13-.23-.26-.28-.1-.05-.19-.05-1.84.59l-2.44.95c-1.55.6-1.94.76-2.12.89-.26.16-.23.28-.16.47.54,1.39.92,2.43,1.27,3.15.27.6.34.72.54.83.23.15.52.07,1.44-.07.06-.02.12,0,.14.03.06.17.25.52.24.63-1.06.35-2.58.92-3.49,1.27-1.03.42-1.4.63-1.56.69-.05.02-.1.02-.15,0-.12-.14-.31-.37-.35-.5.81-.7,1.03-.91.9-1.41-.09-.28-.33-1.02-1-2.74l-1.31-3.37c-.68-1.76-1-2.42-1.22-2.91-.24-.5-.38-.64-1.62-.39-.07-.12-.1-.32-.1-.54,0-.06.01-.07.14-.12l-.02-.04ZM56.14,32.32c.28-1.55,1.36-2.92,2.44-3.97.65-.64,1.36-1.12,2.05-1.55.76-.47,1.63-.87,2.05-.95.18-.04.44-.42.53-.54.06-.06.14-.11.46-.17.16-.05.19,0,.21.08.23,1.12.71,1.94,1.49,3.04.02.03,0,.1-.19.21-.29.21-.44.2-.52.14-.17-.15-.68-.56-1-.78-.3-.21-.53-.4-1-.48-.48-.1-1.49.04-2.33.56-.94.59-1.7,1.66-1.85,3.07-.18,1.58.38,3.13,1.21,4.46,1.2,1.92,4.09,4.25,7.16,2.35,1.13-.7,1.51-2.01,1.64-2.84.08-.59-.01-1.11-.02-1.39,0-.04.04-.12.33-.07.28,0,.34.02.42.18.45,1.1.6,2.17.61,2.71-.02.22-.07.26-.26.37-.49.3-1.22,1.16-2.42,1.9-4.65,2.89-8.34.98-9.96-1.63-.74-1.2-1.37-2.84-1.03-4.71h-.02ZM46.39,37.5c.11-.12.25-.23.46-.41.23-.19.65-.49,1.99-1.61.75-.62,1.66-1.42,1.83-1.56.2-.16.23-.16.28-.13l.52.32c-1.16,1.24-1.17,1.45-1,1.78s.6.94,1.89,2.51l2,2.42c.97,1.18,1.99,2.32,2.55,2.81.26.22.44.28.66.15.12-.07.51-.29.88-.49.08-.06.13-.06.17,0,.08.09.28.44.33.55-1.14.89-1.8,1.41-2.44,1.94-1.21,1-1.94,1.7-1.98,1.74-.11.09-.22.08-.29.03-.1-.09-.35-.27-.41-.38.79-.78,1.05-1.13.82-1.68-.13-.28-.44-.87-2.12-2.91l-2.51-3.05c-1.71-2.07-1.9-2.27-2.52-1.9-.24.15-.53.33-.72.49-.09.08-.15.07-.22-.02-.04-.05-.11-.17-.16-.35,0-.14-.02-.19.02-.22l-.03-.02ZM35.82,48.29c.12-.13.23-.22.33-.24.12-.02.24,0,.31.07.28.2,1.68.24,2.02.22,1.44-.06,4.61-.16,9.69-.66-.49-.52-.96-.98-2.05-1.96-1.52-1.37-2.5-2.2-3.1-2.61-.31-.22-.7-.53-1.03-.31-.19.12-.77.67-.88.73-.11.03-.15.05-.24-.03l-.42-.33,1.52-1.68c.49-.55,1.08-1.35,1.38-1.67.07-.07.17-.16.23-.14l.46.26c-.3.66-.41.83-.48,1.15-.1.5.28,1.03,1.99,2.74,1.41,1.38,2.33,2.24,3.64,3.42,1.35,1.22,2.23,1.94,2.44,2.12.25.23.29.39.12,1.05-.02.11-.1.17-.32.14-1.87-.27-3.95-.3-6.93-.17-3.19.16-5.18.26-6.54.37.52.49,1.34,1.32,2.19,2.11.74.67,3.11,2.86,3.86,3.25.52.25,1.36-.41,1.69-.66l.51.27c.06.03.07.19.03.24-.46.51-1.21,1.23-1.75,1.82-.45.5-.88,1.03-1.06,1.26l-.66-.3c.65-1.13.55-1.26.12-1.79-.3-.35-1.52-1.66-2.92-2.93l-1.63-1.48c-1.97-1.78-2.36-1.97-2.71-2-.58-.04-.89.13-1.41.49-.15.08-.22.1-.32,0l-.37-.33c.64-.65.92-.9,2.29-2.42ZM35.95,64.87c-.19-.3-.18-.62-.04-.84.09-.15.18-.22.33-.17.74.24,1.03.33,1.59-.1.22-.17.38-.24.8.02.1.06.13.13.08.28-.24.81-.22.82.58,1.72.08.1.09.24-.05.46-.21.34-.63.27-1.25.22-.49-.04-.8.16-1.09.34-.21.15-.39.18-.51.11-.13-.08-.34-.47-.28-.61.3-.72.25-.75-.17-1.43h0ZM20.28,72.17c.08-.08.15-.11.22-.09.46.14.6.13.72.02.1-.13.26-.36.48-.76.25-.47.92-1.87,1.73-3.55.96-2,1.52-3.25,1.85-4.09.18-.42.28-.68.31-.87.04-.18-.09-.5-.27-.72-.06-.1-.06-.14-.04-.19.07-.14.17-.22.33-.37.07-.05.13-.05.27.08.84.82,1.24,1.04,2.52,1.76.09.04.13.1.04.28-.08.16-.15.26-.23.33-.06.08-.16.1-.21.08-.07-.03-.72-.39-.93-.49-.18-.09-.3-.06-.5.09-.17.12-.73,1.1-1.3,2.3l-.32.66c-.09.2-.03.43.17.52.32.15,1.27.65,3.51,1.73l1.84.88c2.32,1.12,3.24,1.47,3.55,1.55.32.07.67.08.92-.13.23-.2.73-.93.97-1.34.06-.12.1-.12.21-.03l.34.25c.06.05.09.09-.03.34-.28.59-.93,1.8-1.36,2.69-.63,1.31-1.33,2.95-1.4,3.09-.06.13-.15.17-.25.15l-.53-.14c.11-.32.29-.83.33-1.14.09-.42.07-.78-.34-1.07-.17-.1-1.37-.9-3.68-2.01l-1.84-.89c-3.15-1.51-3.7-1.78-3.74-1.71l-.4.82c-.75,1.56-1.04,2.85-1.01,3.15.03.21.33.51,1.06,1.23.05.03-.04.13-.13.22-.19.13-.39.25-.59.22-.46-.46-1.17-1.29-2.47-2.51,0-.11.08-.22.2-.37v.03ZM25.63,123.32c-1.74.47-1.74.51-2.51,2.98-.08.25-.34.42-.89.42-.85,0-1.19-.85-1.79-2.04-.47-.94-1.19-1.28-1.83-1.62-.51-.21-.77-.51-.77-.81,0-.34.47-1.15.81-1.19,1.66-.26,1.66-.38,2.42-1.91.34-.68.94-1.02,1.49-1.02.38,0,.59.08.68.42.38,1.62.55,2.25,1.96,2.81.55.21.85.43.85,1.49,0,.25-.08.38-.42.47ZM29.5,89.23c.06.16.04.28,0,.41-.03.11-.07.17-.15.24-.05.03-.24.03-.76-.1-1-.26-1.95-.41-3.16-.59-.14-.02-.15-.05-.14-.15.01-.12.04-.28.07-.37.03-.11.1-.2.27-.21.32-.03.73-.03,1.27-.22,1.2-.43,2.48-1.5,2.79-2.54.4-1.35-.2-2.67-1.59-3.08-.59-.18-1.34,0-1.88.47-.28.25-.72.59-1.48,1.5-.97,1.16-1.75,1.9-2.77,2.34-.55.25-1.37.36-2.32.08-1.29-.38-1.92-1.4-2.16-2.42-.12-.55-.13-1.78.27-3.13.16-.53.47-1.29.61-1.62.1-.2.15-.37.24-.59.08-.18.03-.37-.25-.57.07-.25.18-.59.21-.64.97.35,1.95.6,3.18.74.18.01.23.07.26.16.06.22.12.35.15.54,0,.04-.06.13-.2.13-.97.06-1.58.15-2.21.62-.52.36-1.11,1.14-1.33,1.9-.29.99.38,2.06,1.27,2.33.55.16,1.06.13,1.51-.13.55-.31,1-.63,1.75-1.55.94-1.13,1.71-1.98,2.48-2.41.99-.55,1.77-.65,2.82-.34,1.41.42,2.18,1.5,2.41,2.67.24,1.15-.04,2.86-.25,3.55-.22.74-.6,1.6-.97,2.22-.08.14-.11.24-.11.36.02.13.09.25.19.41h-.02ZM37.38,167.6c-1.07.52-2.13.74-2.66.78-.23,0-.26-.06-.39-.23-.33-.47-1.23-1.14-2.05-2.29-3.18-4.46-1.51-8.26.99-10.05,1.15-.82,2.75-1.55,4.63-1.33,1.56.18,3.01,1.17,4.12,2.18.68.61,1.21,1.28,1.68,1.94.52.73.98,1.57,1.08,1.99.05.18.44.42.57.49.06.05.12.13.2.44.06.15,0,.19-.06.22-1.1.3-1.89.84-2.94,1.69-.03.02-.1,0-.23-.18-.22-.28-.23-.42-.17-.51.14-.18.52-.71.71-1.05.19-.31.36-.55.41-1.03.07-.49-.14-1.49-.71-2.29-.65-.9-1.77-1.59-3.18-1.65-1.59-.08-3.1.58-4.37,1.49-1.84,1.31-3.98,4.36-1.88,7.29.77,1.08,2.1,1.38,2.94,1.46.59.04,1.11-.08,1.38-.11.04,0,.12.03.09.33.03.27,0,.34-.16.43h0ZM49.07,182.29c-.04.13-.58.46-.68.39l-2.11-2.04c-1.21-1.17-1.5-1.36-1.71-1.57-.08-.08-.1-.1-.06-.14l.46-.44c.8.63,1.09.67,1.31.55.26-.13.94-.75,2.01-1.86l1.09-1.13c.07-.1.15-.21.15-.35,0-.11-.03-.2-1.3-1.42l-1.88-1.82c-1.2-1.16-1.5-1.45-1.7-1.55-.26-.16-.35-.09-.49.05-1.03,1.07-1.82,1.86-2.33,2.47-.43.5-.51.61-.53.84-.04.27.15.5.67,1.28.04.04.06.11.03.14-.12.13-.37.44-.47.49-.76-.81-1.92-1.96-2.62-2.63-.81-.76-1.15-1-1.28-1.13-.04-.04-.06-.08-.06-.14.08-.17.2-.44.31-.53.98.45,1.26.55,1.66.22.22-.2.79-.73,2.07-2.06l2.51-2.6c1.31-1.36,1.77-1.93,2.13-2.32.36-.43.42-.61-.32-1.63.08-.12.25-.23.44-.32.06-.03.07-.02.17.08.5.48,1,.96,1.47,1.42.41.4.8.77,1.18,1.11.36.32.71.63,1.04.92-.03.11-.34.47-.44.51-.47-.29-1.02-.65-1.38-.4-.29.22-.82.67-2.1,2-1.09,1.13-1.13,1.25-.94,1.43l3.1,2.99c.76.73,1.6,1.54,1.81,1.66.17.11.27.06.6-.28l1.21-1.26c.63-.66,1.03-1.1,1.28-1.36.47-.51.24-.85-.51-1.76-.03-.08.5-.46.57-.42.71.69,1.39,1.39,2.1,2.08.21.21.58.51.91.8.36.29.63.58.66.61.2.17.23.22.23.28-.11.25-.16.37-.27.48-.95-.64-1.26-.75-1.75-.33-.24.21-.88.83-2.09,2.09l-2.49,2.58c-1.13,1.17-1.65,1.8-2.08,2.3-.36.43-.38.74.42,1.7v.02ZM62.5,191.88c.14.21.06.35-.16.56-.14.17-.28.1-.35.06-1.48-1.1-2.44-2.28-2.79-4.06-.22-1.14-.07-2.33.15-3.57.12-.75.1-1.27-.71-1.8-.26-.18-.44-.27-.64-.36-.09-.04-.25.09-.33.21-.95,1.44-1.49,2.32-1.89,2.96-.18.31-.17.41-.14.53.08.24.79.83,1.11,1.21,0,.12-.35.48-.46.51-.04.02-.12-.03-.29-.14-.17-.11-1.89-1.28-2.74-1.83-.56-.37-.93-.54-1.34-.82-.17-.11-.23-.15-.21-.21.04-.17.16-.49.27-.58.4.15.89.31,1.14.25.36-.12,1.12-1.16,2.53-3.28l1.37-2.07c.65-.98,1.4-2.19,1.74-2.73.4-.64.35-.67-.51-1.67l.23-.56c.05-.11.17-.08.27,0,.74.47,1.56.99,2.31,1.43,1.07.61,1.48.86,2.11,1.28,1.12.74,2.03,1.51,2.6,2.86.38.9.31,2.09-.16,2.8-.96,1.46-2.48,1.33-3.3,1.32-.1,0-.26.14-.3.28-.18.52-.42,1.72-.46,3.07-.06,1.53.26,3.31.96,4.37h-.01ZM70.77,190.43c-.67,1.37-1.29,2.77-1.5,3.48-.09.33-.08.51.14.66.12.08.47.34.81.6.09.04.11.1.08.15-.05.11-.28.44-.37.53-1.29-.67-2.02-1.06-2.77-1.42-1.41-.69-2.35-1.06-2.41-1.09-.12-.06-.16-.17-.14-.25.04-.13.1-.44.17-.53,1.04.4,1.46.49,1.87.05.2-.23.61-.76,1.77-3.13l1.73-3.55c1.18-2.41,1.28-2.66.69-3.08-.23-.16-.52-.34-.75-.46-.11-.05-.12-.11-.07-.21.03-.05.11-.17.25-.29.12-.07.16-.1.21-.07.15.05.31.13.56.25.27.13.71.39,2.29,1.14.87.43,1.98.92,2.17,1.02.23.11.24.14.23.2l-.07.6c-1.61-.54-1.81-.46-2.03-.18-.23.29-.61.94-1.5,2.75l-1.38,2.82h.02ZM84.81,190.68c-.02.18-.08.22-.17.25-.23.05-.35.11-.55.12-.04,0-.12-.06-.12-.21-.02-.97-.08-1.58-.52-2.24-.34-.54-1.09-1.16-1.83-1.42-.97-.34-2.08.28-2.38,1.16-.19.54-.18,1.05.06,1.51.29.56.59,1.03,1.46,1.82,1.08.99,1.89,1.8,2.29,2.59.5,1.02.57,1.8.21,2.83-.49,1.38-1.6,2.11-2.78,2.28-1.16.18-2.86-.18-3.53-.42-.73-.26-1.57-.68-2.17-1.08-.14-.09-.23-.12-.36-.12-.13.02-.26.08-.42.17-.16.05-.28.03-.41-.02-.11-.04-.16-.08-.24-.17-.02-.05-.02-.24.14-.75.3-.99.51-1.92.74-3.12.03-.14.05-.15.15-.13.12.02.28.05.37.09.11.04.19.11.2.28.01.32,0,.73.16,1.28.37,1.22,1.38,2.54,2.41,2.9,1.33.47,2.67-.07,3.15-1.44.2-.58.07-1.34-.38-1.9-.23-.29-.56-.74-1.43-1.55-1.11-1.02-1.82-1.84-2.21-2.88-.22-.56-.29-1.38.04-2.32.45-1.27,1.49-1.85,2.52-2.04.56-.1,1.78-.05,3.11.42.52.18,1.26.53,1.59.68.19.11.36.17.58.27.18.09.36.04.58-.22.24.09.58.21.63.24-.4.95-.7,1.92-.89,3.13h0ZM100.86,190.77c-.57,1.03-.67,1.47-1.04,2.9-.02.1-.07.15-.26.11-.18-.03-.29-.07-.38-.13-.09-.04-.14-.13-.13-.18.01-.08.19-.79.23-1.03.04-.2-.02-.31-.22-.46-.16-.13-1.26-.41-2.56-.65l-.72-.13c-.21-.04-.42.08-.46.3-.06.35-.3,1.4-.74,3.84l-.37,2.01c-.46,2.54-.56,3.51-.56,3.83.02.33.1.66.37.85.25.17,1.09.46,1.55.59.14.02.15.07.08.2l-.15.4c-.03.07-.06.11-.33.06-.64-.12-1.98-.42-2.96-.6-1.43-.26-3.2-.5-3.35-.53-.14-.03-.2-.1-.21-.2v-.54c.34.02.88.06,1.19.02.43-.02.77-.14.94-.62.06-.19.51-1.56.97-4.08l.37-2.01c.63-3.44.74-4.04.66-4.05l-.9-.17c-1.7-.31-3.02-.25-3.3-.14-.2.08-.4.45-.91,1.35-.01.06-.14,0-.25-.07-.17-.15-.35-.31-.37-.51.33-.57.93-1.46,1.77-3.05.11-.02.24.02.41.09.1.06.15.12.15.19,0,.48.03.61.17.7.15.07.42.16.86.26.52.12,2.05.39,3.88.73,2.19.4,3.54.61,4.43.71.45.06.73.09.92.07.18,0,.46-.22.63-.45.08-.09.12-.1.18-.09.16.03.26.11.44.22.07.05.08.12,0,.28l-.03-.02ZM88.75,129.47v-17.85l12.61,7.34v-16.36h-30.14v-15.45h30.14v-10.37h-11.77v-15.45h11.77v-13.33h15.34v13.33h11.77v15.45h-11.77v10.37h30.14v15.45h-30.14v25.29l12.61,7.34v17.85l-12.61-7.34v24.32h-15.34v-33.25l-12.61-7.34h0ZM113.61,191.46c-.42,1.06-.45,2.02-.39,3.37,0,.04-.06.08-.28.08-.36,0-.48-.07-.51-.17-.06-.22-.26-.84-.42-1.2-.13-.34-.23-.62-.58-.94-.35-.34-1.28-.78-2.27-.79-1.11-.02-2.33.48-3.22,1.58-1.01,1.23-1.38,2.83-1.4,4.4-.04,2.26,1.14,5.79,4.75,5.85,1.33.02,2.36-.87,2.92-1.5.38-.45.59-.94.73-1.18.02-.04.1-.08.31.12.24.14.28.2.25.38-.22,1.17-.67,2.15-.96,2.61-.14.18-.2.17-.42.17-.58,0-1.65.31-3.06.29-5.48-.09-7.54-3.7-7.49-6.77.02-1.41.39-3.13,1.68-4.52,1.07-1.15,2.73-1.72,4.2-2.01.9-.18,1.75-.21,2.56-.2.89,0,1.84.15,2.24.32.18.06.6-.11.74-.17.08-.02.18-.02.47.11.16.04.16.1.14.18h.01ZM132.17,201.58l-2.9.49c-1.66.28-1.99.39-2.28.44-.12.02-.14.02-.15-.04l-.09-.63c.98-.27,1.19-.48,1.23-.73.05-.29-.04-1.2-.3-2.73l-.26-1.55c-.04-.11-.08-.25-.2-.33-.09-.06-.18-.09-1.92.2l-2.58.43c-1.64.28-2.05.34-2.26.44-.28.11-.28.23-.25.42.25,1.47.41,2.57.6,3.34.15.64.19.77.36.93.19.19.49.18,1.43.22.06,0,.12.02.13.06.03.18.13.56.11.67-1.11.13-2.71.38-3.67.54-1.09.2-1.49.33-1.67.36-.06,0-.1,0-.15-.04-.09-.17-.23-.42-.24-.56.94-.52,1.19-.68,1.17-1.2-.03-.3-.12-1.07-.42-2.89l-.6-3.56c-.31-1.86-.49-2.57-.6-3.1-.13-.54-.24-.71-1.51-.71-.04-.13-.04-.34,0-.54,0-.06.03-.06.17-.09.69-.12,1.37-.23,2.02-.34.57-.1,1.1-.18,1.6-.29.47-.1.93-.2,1.36-.29.08.09.17.55.15.66-.51.21-1.13.43-1.14.88,0,.36.06,1.06.36,2.88.26,1.54.34,1.65.59,1.61l4.25-.71c1.04-.17,2.19-.37,2.42-.47.19-.07.21-.18.13-.65l-.29-1.72c-.15-.9-.27-1.48-.33-1.84-.13-.68-.54-.69-1.72-.64-.08-.03-.07-.67,0-.7.98-.17,1.94-.29,2.92-.45.29-.05.76-.17,1.18-.26.44-.12.84-.16.88-.17.25-.06.31-.05.36-.02.14.24.2.35.23.5-1.08.38-1.35.57-1.31,1.21.03.32.14,1.2.43,2.93l.59,3.54c.27,1.6.46,2.4.61,3.04.13.54.37.74,1.62.67.08.11.02.74-.09.78h.03ZM145.94,194.76c-.47,1.68-1.7,3.05-3.37,3.67-2.17.81-3.64.51-4.33.2-1.51-.64-2.14-1.66-2.71-3.12-.44-1.13-.8-2.09-1.34-3.69-.87-2.56-.94-2.68-1.19-2.79-.26-.07-.55-.05-1.12,0l-.12-.38c-.06-.23,0-.28.25-.37.41-.15,1.72-.56,2.08-.71.92-.38,1.81-.78,2.72-1.12.11-.04.15-.06.18.02.04.11.2.43.17.63-.81.49-1.42.72-1.3,1.33.06.34.23.95.49,1.72.37,1.05,1,2.91,1.53,4.32.49,1.32,1.12,2.1,2.3,2.49.78.26,1.83.14,2.8-.22,1.28-.48,1.81-1.33,2-1.97.37-1.22.06-2.69-.56-4.32-.71-1.9-1.36-3.64-1.79-4.46-.34-.62-.57-.61-2.09-.04-.06.02-.19-.06-.23-.23.04-.12.12-.3.13-.43.04-.08.14-.14.21-.16.26-.1,1.26-.47,1.71-.64.72-.27,1.75-.7,2.12-.83.06-.02.1.06.13.23l-.03.42c-.2.16-.33.25-.52.36s-.22.25-.18.64c.05.36.44,1.64,1.55,4.95.69,2.03.86,3.28.52,4.53v-.03ZM163.36,187.98c-1.64.85-3.12,1.19-4.87.72-1.12-.31-2.13-.96-3.14-1.7-.63-.44-1.09-.65-1.93-.15-.27.16-.44.28-.6.42-.08.07-.03.27.04.39.88,1.49,1.43,2.36,1.83,3,.2.3.29.34.42.35.25.04,1.09-.34,1.57-.46.1.06.29.52.26.63,0,.04-.08.09-.25.19s-1.98,1.14-2.85,1.65c-.58.34-.89.6-1.32.85-.17.1-.24.14-.29.1-.13-.11-.37-.36-.41-.5.31-.3.67-.67.73-.91.05-.38-.55-1.52-1.84-3.71l-1.26-2.14c-.59-1.01-1.35-2.22-1.69-2.76-.4-.64-.45-.61-1.73-.27l-.4-.45c-.08-.09,0-.19.11-.25.74-.46,1.57-.97,2.3-1.45,1.02-.69,1.42-.95,2.07-1.33,1.16-.68,2.24-1.16,3.72-1.08.97.05,2.01.64,2.44,1.37.89,1.51.11,2.81-.27,3.54-.04.09,0,.29.12.39.39.39,1.36,1.14,2.56,1.77,1.35.73,3.09,1.22,4.35,1.06.26-.04.34.1.44.39.09.2-.03.3-.1.34h-.01ZM173.65,179.02c-.44.37-1.05,1.32-2.12,2.22-4.2,3.52-8.12,2.14-10.09-.22-.9-1.08-1.75-2.62-1.68-4.52.05-1.57.94-3.09,1.86-4.27.56-.73,1.19-1.3,1.81-1.83.68-.57,1.49-1.09,1.9-1.23.17-.07.38-.47.45-.61.05-.06.12-.13.43-.23.15-.07.19-.03.22.05.38,1.08.98,1.82,1.91,2.8.03.03,0,.1-.16.24-.26.24-.4.26-.5.21-.19-.13-.75-.46-1.1-.63-.32-.17-.58-.32-1.06-.33-.49-.03-1.47.25-2.23.89-.85.71-1.45,1.89-1.41,3.3.04,1.59.82,3.04,1.82,4.25,1.45,1.73,4.65,3.64,7.42,1.32,1.02-.85,1.21-2.2,1.23-3.05,0-.59-.17-1.1-.22-1.37,0-.04.03-.12.32-.11.27-.05.34-.03.44.12.6,1.02.9,2.07.98,2.59,0,.23-.04.26-.21.41h0ZM185.2,166.17c-1.08,1.3-1.25,1.6-1.43,1.83-.08.09-.09.11-.13.07l-.48-.42c.57-.84.58-1.14.45-1.35-.15-.25-.82-.88-2.01-1.87l-1.21-1c-.1-.06-.22-.13-.36-.12-.11,0-.19.05-1.32,1.41l-1.67,2.02c-1.06,1.28-1.33,1.61-1.42,1.81-.14.27-.07.36.09.49,1.15.95,1.99,1.67,2.64,2.13.53.39.65.46.88.47.27.02.49-.19,1.23-.76.04-.05.11-.07.14-.04.14.11.47.34.52.43-.75.82-1.81,2.06-2.43,2.81-.69.87-.91,1.23-1.03,1.37-.04.05-.08.06-.13.07-.18-.07-.45-.17-.55-.27.37-1.01.46-1.3.1-1.67-.22-.21-.79-.73-2.21-1.91l-2.78-2.3c-1.45-1.2-2.06-1.62-2.48-1.95-.45-.32-.64-.38-1.61.45-.12-.07-.25-.23-.35-.42-.03-.05-.02-.07.07-.18.44-.54.89-1.07,1.3-1.58.37-.44.71-.86,1.02-1.27.29-.38.58-.76.84-1.11.12.02.49.31.55.4-.25.49-.58,1.07-.29,1.41.24.27.73.76,2.16,1.94,1.21,1,1.34,1.03,1.5.83l2.75-3.32c.67-.81,1.42-1.71,1.52-1.93.1-.18.04-.27-.32-.58l-1.34-1.11c-.7-.58-1.17-.95-1.45-1.17-.55-.43-.86-.17-1.72.64-.08.04-.5-.46-.46-.54.63-.76,1.28-1.49,1.92-2.25.19-.23.46-.62.73-.97.26-.38.53-.67.55-.7.15-.21.2-.24.26-.25.26.09.38.13.5.23-.57,1-.65,1.32-.2,1.77.23.22.89.82,2.24,1.93l2.77,2.29c1.25,1.04,1.92,1.51,2.45,1.9.45.32.76.32,1.67-.55.13.03.5.54.44.65l-1.87,2.26-.04-.02ZM201.11,123.32c-1.74.47-1.74.51-2.51,2.98-.08.25-.34.42-.89.42-.85,0-1.19-.85-1.79-2.04-.47-.94-1.19-1.28-1.83-1.62-.51-.21-.77-.51-.77-.81,0-.34.47-1.15.81-1.19,1.66-.26,1.66-.38,2.42-1.91.34-.68.94-1.02,1.49-1.02.38,0,.59.08.68.42.38,1.62.55,2.25,1.96,2.81.55.21.85.43.85,1.49,0,.25-.08.38-.42.47h0ZM201.93,89.79c-.51-1.03-.73-1.27-1.35-1.15-.31.07-1.18.29-2.85.78l-3.44,1.02c-1.56.46-2.32.75-2.94.97-.52.2-.69.45-.47,1.69-.1.09-.73.11-.79,0l-.83-2.82c-.48-1.62-.63-1.92-.71-2.21-.03-.11-.04-.13.02-.15l.61-.16c.38.94.62,1.12.87,1.13.29.02,1.19-.18,2.67-.62l1.5-.44c.11-.05.24-.11.3-.23.05-.1.07-.19-.43-1.88l-.74-2.51c-.47-1.6-.59-2-.71-2.19-.14-.27-.26-.25-.45-.2-1.43.42-2.5.72-3.24,1-.62.22-.74.28-.88.46-.16.21-.12.51-.05,1.44.02.06,0,.12-.04.14-.17.05-.54.2-.65.19-.26-1.08-.7-2.65-.97-3.58-.33-1.06-.51-1.44-.56-1.61-.02-.06,0-.1.02-.15.15-.11.39-.28.53-.3.63.87.82,1.1,1.33,1.01.29-.07,1.04-.25,2.81-.77l3.46-1.02c1.81-.53,2.5-.8,3-.97.52-.2.67-.32.53-1.58.13-.06.33-.08.54-.06.06,0,.07.02.11.15.2.67.39,1.33.58,1.96.16.55.31,1.07.48,1.55.15.45.31.9.45,1.32-.08.09-.53.24-.64.23-.27-.48-.57-1.08-1.01-1.03-.36.04-1.04.18-2.81.71-1.5.44-1.6.53-1.53.78l1.22,4.13c.3,1.01.63,2.13.75,2.34.09.18.2.19.66.05l1.67-.5c.88-.26,1.44-.45,1.78-.55.66-.22.62-.62.43-1.78.02-.09.66-.15.7-.08.28.95.52,1.9.8,2.85.08.29.26.73.4,1.14.17.43.26.81.27.85.09.24.09.3.06.35-.22.17-.32.24-.47.29h.01Z"/>
      <path class="cls-3" d="M121.78,22.36c.24.04.58.12,1.15.22.63.11.98.17,1.47.23.2.03.36-.12.35-.18-.33-2.27-.55-3.44-.74-4.34-.04-.13-.15-.17-.21-.1-.92,1.35-1.29,1.97-2.42,3.85-.06.09.12.26.39.31h0Z"/>
      <path class="cls-3" d="M153.71,33.81c.34.2.89.37,1.17.4,1.31.16,2.43-.74,3.15-1.95.37-.61,1.47-2.93-.88-4.33-.38-.22-.75-.26-.84-.25-.17.01-.29.1-.45.33-.44.62-2.39,3.82-2.89,4.65-.13.22-.14.35-.05.48.16.23.45.48.79.68h0Z"/>
      <path class="cls-3" d="M92.45,26.23c1.35,1.08,2.46,1.31,3.61,1.12,1.54-.26,3-2.46,2.42-5.9-.3-1.78-.93-3.6-2.33-4.74-.75-.6-1.91-1.17-3.2-.95-1.02.17-1.85.84-2.38,1.77-.68,1.22-.74,2.62-.44,4.42.32,1.9,1.25,3.43,2.31,4.28h.01Z"/>
      <path class="cls-3" d="M103.49,167.94h11.09v-25.89l12.61,7.34v-12.93l-12.61-7.34v-28.64h30.14v-11.2h-30.14v-14.63h11.77v-11.2h-11.77v-13.33h-11.09v13.33h-11.77v11.2h11.77v14.63h-30.14v11.2h30.14v22.18l-12.61-7.34v12.93l12.61,7.34s0,32.35,0,32.35ZM93.83,126.55v-6.1l12.61,7.34v-30.26h-30.14v-5.3h30.14v-20.52h-11.77v-5.3h11.77v-13.33h5.19v13.33h11.77v5.3h-11.77v20.52h30.14v5.3h-30.14v33.28l12.61,7.34v6.1l-12.61-7.34v28.08h-5.19v-31.1l-12.61-7.34h0Z"/>
      <path class="cls-2" d="M109.03,0C48.91,0,0,48.91,0,109.03s48.91,109.03,109.03,109.03,109.03-48.91,109.03-109.03S169.15,0,109.03,0ZM109.03,215.94c-58.95,0-106.91-47.96-106.91-106.91S50.08,2.13,109.03,2.13s106.91,47.96,106.91,106.91-47.96,106.91-106.91,106.91h0Z"/>
      <path class="cls-2" d="M30.39,86.25c.21-.69.49-2.4.25-3.55-.23-1.17-1.01-2.25-2.41-2.67-1.05-.31-1.82-.21-2.82.34-.77.43-1.54,1.28-2.48,2.41-.75.92-1.2,1.24-1.75,1.55-.45.26-.96.29-1.51.13-.89-.27-1.57-1.34-1.27-2.33.23-.76.81-1.54,1.33-1.9.64-.47,1.24-.56,2.21-.62.15,0,.21-.08.2-.13-.02-.19-.09-.32-.15-.54-.04-.09-.08-.15-.26-.16-1.22-.14-2.2-.39-3.18-.74-.04.05-.14.39-.21.64.27.21.32.39.25.57-.09.22-.14.39-.24.59-.14.33-.45,1.09-.61,1.62-.4,1.35-.39,2.57-.27,3.13.23,1.02.86,2.04,2.16,2.42.95.28,1.77.18,2.32-.08,1.02-.44,1.8-1.18,2.77-2.34.77-.91,1.2-1.26,1.48-1.5.54-.48,1.29-.65,1.88-.47,1.39.41,1.99,1.73,1.59,3.08-.31,1.05-1.58,2.12-2.79,2.54-.53.19-.95.19-1.27.22-.17.01-.24.1-.27.21-.03.1-.05.25-.07.37,0,.1,0,.12.14.15,1.21.17,2.16.33,3.16.59.52.13.71.13.76.1.08-.08.12-.13.15-.24.04-.13.06-.25,0-.41-.1-.15-.17-.28-.19-.41,0-.13.03-.22.11-.36.37-.61.75-1.47.97-2.22h.02Z"/>
      <path class="cls-2" d="M22.55,75.05c.21.03.4-.1.59-.22.09-.09.18-.2.13-.22-.73-.72-1.03-1.02-1.06-1.23-.03-.3.26-1.59,1.01-3.15l.4-.82c.03-.07.59.19,3.74,1.71l1.84.89c2.31,1.11,3.51,1.91,3.68,2.01.41.29.44.65.34,1.07-.04.31-.22.82-.33,1.14l.53.14c.1.03.19-.02.25-.15.07-.14.77-1.79,1.4-3.09.43-.9,1.08-2.1,1.36-2.69.12-.25.09-.29.03-.34l-.34-.25c-.11-.1-.15-.1-.21.03-.24.41-.75,1.14-.97,1.34-.25.21-.6.2-.92.13-.31-.08-1.22-.43-3.55-1.55l-1.84-.88c-2.24-1.07-3.19-1.57-3.51-1.73-.2-.09-.26-.32-.17-.52l.32-.66c.58-1.2,1.14-2.18,1.3-2.3.2-.15.33-.17.5-.09.21.1.86.46.93.49.05.03.15,0,.21-.08.08-.07.15-.17.23-.33.09-.18.05-.24-.04-.28-1.28-.73-1.68-.94-2.52-1.76-.13-.13-.2-.14-.27-.08-.16.14-.26.23-.33.37-.03.05-.02.1.04.19.18.22.31.55.27.72-.02.19-.13.45-.31.87-.33.83-.89,2.08-1.85,4.09-.81,1.68-1.48,3.08-1.73,3.55-.22.4-.37.64-.48.76-.12.12-.26.12-.72-.02-.07-.02-.14.01-.22.09-.11.14-.19.26-.2.37,1.31,1.22,2.01,2.04,2.47,2.51v-.03Z"/>
      <path class="cls-2" d="M36.4,66.91c.12.07.3.04.51-.11.29-.17.6-.38,1.09-.34.62.05,1.04.12,1.25-.22.13-.22.13-.36.05-.46-.8-.9-.81-.91-.58-1.72.05-.16.02-.22-.08-.28-.42-.26-.58-.19-.8-.02-.56.42-.86.34-1.59.1-.16-.05-.24.02-.33.17-.13.22-.14.54.04.84.42.68.47.71.17,1.43-.07.15.14.53.28.61h0Z"/>
      <path class="cls-2" d="M34.22,51.04c.51-.36.83-.53,1.41-.49.35.02.74.22,2.71,2l1.63,1.48c1.4,1.26,2.62,2.58,2.92,2.93.43.53.53.66-.12,1.79l.66.3c.18-.23.61-.76,1.06-1.26.53-.59,1.28-1.3,1.75-1.82.04-.04.03-.21-.03-.24l-.51-.27c-.34.26-1.18.92-1.69.66-.75-.38-3.12-2.58-3.86-3.25-.84-.79-1.67-1.61-2.19-2.11,1.36-.11,3.35-.21,6.54-.37,2.98-.14,5.07-.1,6.93.17.21.03.29-.03.32-.14.16-.65.13-.82-.12-1.05-.21-.19-1.08-.9-2.44-2.12-1.31-1.18-2.24-2.05-3.64-3.42-1.72-1.71-2.09-2.24-1.99-2.74.07-.31.17-.49.48-1.15l-.46-.26c-.06-.03-.17.06-.23.14-.29.32-.88,1.13-1.38,1.67l-1.52,1.68.42.33c.09.08.13.06.24.03.11-.06.69-.61.88-.73.33-.21.72.09,1.03.31.6.41,1.58,1.24,3.1,2.61,1.09.98,1.56,1.44,2.05,1.96-5.07.5-8.24.6-9.69.66-.34.02-1.74-.02-2.02-.22-.07-.07-.19-.09-.31-.07-.1.02-.21.11-.33.24-1.37,1.52-1.65,1.77-2.29,2.42l.37.33c.1.09.17.08.32,0Z"/>
      <path class="cls-2" d="M46.53,38.08c.08.09.13.1.22.02.2-.16.49-.35.72-.49.63-.36.82-.16,2.52,1.9l2.51,3.05c1.68,2.03,1.99,2.63,2.12,2.91.23.56-.03.9-.82,1.68.06.1.31.28.41.38.07.05.18.06.29-.03.05-.04.78-.74,1.98-1.74.64-.53,1.3-1.04,2.44-1.94-.04-.12-.25-.46-.33-.55-.04-.05-.09-.05-.17,0-.37.2-.76.42-.88.49-.22.13-.4.07-.66-.15-.56-.49-1.58-1.63-2.55-2.81l-2-2.42c-1.29-1.56-1.72-2.18-1.89-2.51s-.16-.54,1-1.78l-.52-.32s-.08-.04-.28.13c-.17.14-1.08.94-1.83,1.56-1.33,1.13-1.76,1.42-1.99,1.61-.21.18-.35.29-.46.41-.04.04-.04.08-.02.22.05.19.13.31.16.35l.03.02Z"/>
      <path class="cls-2" d="M67.14,38.66c1.2-.74,1.93-1.6,2.42-1.9.19-.12.24-.15.26-.37,0-.53-.16-1.61-.61-2.71-.08-.16-.14-.19-.42-.18-.29-.05-.34.02-.33.07,0,.28.1.8.02,1.39-.14.83-.51,2.14-1.64,2.84-3.07,1.91-5.96-.43-7.16-2.35-.83-1.33-1.39-2.87-1.21-4.46.16-1.41.91-2.48,1.85-3.07.84-.52,1.85-.66,2.33-.56.47.08.7.26,1,.48.32.22.83.63,1,.78.09.06.23.07.52-.14.19-.11.22-.18.19-.21-.78-1.1-1.27-1.92-1.49-3.04-.03-.08-.06-.13-.21-.08-.32.06-.4.11-.46.17-.09.12-.35.5-.53.54-.42.07-1.29.48-2.05.95-.69.43-1.39.91-2.05,1.55-1.08,1.05-2.16,2.42-2.44,3.97-.33,1.87.29,3.51,1.03,4.71,1.62,2.61,5.31,4.52,9.96,1.63h.02Z"/>
      <path class="cls-2" d="M69.34,24.17c.21.49.53,1.15,1.22,2.91l1.31,3.37c.67,1.72.91,2.46,1,2.74.13.5-.08.71-.9,1.41.03.14.22.36.35.5.05.02.1.03.15,0,.17-.07.53-.27,1.56-.69.91-.35,2.43-.92,3.49-1.27,0-.11-.18-.46-.24-.63-.02-.04-.08-.05-.14-.03-.92.15-1.21.22-1.44.07-.19-.12-.26-.24-.54-.83-.34-.72-.73-1.76-1.27-3.15-.07-.19-.1-.3.16-.47.18-.13.57-.29,2.12-.89l2.44-.95c1.65-.64,1.73-.63,1.84-.59.13.06.2.18.26.28l.57,1.46c.56,1.44.84,2.31.84,2.61.01.25-.14.5-1.05.96l.21.6c.02.06.04.05.15,0,.28-.11.57-.29,2.14-.9l2.74-1.07c.1-.06.03-.69-.07-.78-1.22.32-1.49.17-1.73-.33-.27-.6-.62-1.33-1.22-2.85l-1.3-3.35c-.63-1.63-.92-2.47-1.02-2.78-.18-.61.05-.85,1.03-1.45-.06-.15-.14-.25-.32-.45-.05-.02-.11-.02-.35.09-.04.01-.41.14-.82.34-.4.18-.83.39-1.11.49-.92.36-1.84.68-2.77,1.04-.07.05.05.68.14.69,1.14-.29,1.54-.37,1.81.27.13.33.36.88.69,1.73l.63,1.63c.17.44.17.55,0,.66-.2.14-1.29.57-2.27.95l-4.01,1.56c-.24.09-.34,0-.91-1.46-.67-1.72-.87-2.39-.94-2.74-.08-.44.48-.78.94-1.09,0-.11-.19-.54-.28-.61-.4.18-.84.37-1.27.56-.47.21-.97.4-1.51.61-.61.24-1.26.49-1.91.74-.13.05-.15.06-.14.12,0,.21.03.41.1.54,1.24-.25,1.38-.11,1.62.39l.02.04Z"/>
      <path class="cls-2" d="M89.68,26.78c1.65,1.33,4.03,1.79,6.26,1.42,1.02-.17,2.62-.91,3.86-2.4,1.07-1.27,1.82-3.25,1.42-5.65-.6-3.56-4.28-5.81-7.94-5.19-1.8.3-3.57,1.27-4.69,2.73-1.18,1.49-1.6,3.29-1.31,4.97.27,1.58,1.25,3.21,2.41,4.14v-.02ZM90.57,17.53c.53-.93,1.36-1.6,2.38-1.77,1.29-.22,2.45.35,3.2.95,1.4,1.13,2.03,2.96,2.33,4.74.58,3.44-.88,5.64-2.42,5.9-1.15.2-2.26-.04-3.61-1.12-1.07-.85-1.99-2.38-2.31-4.28-.3-1.8-.24-3.2.44-4.42h-.01Z"/>
      <path class="cls-2" d="M105.86,15.19c.09.64.17,1.69.16,3.36l-.02,3.93c-.01,1.87-.07,2.44-.13,2.82-.1.54-.72.77-1.57.92-.04.12.04.48.1.64.04.04.14.04.28.04.44-.04,1.47-.13,2.68-.12,3.55.02,4.51.09,5.3.09.83,0,1.07,0,1.25-.01.22-.04.32-.1.36-.36.16-.79.35-1.65.67-2.68.04-.1-.04-.22-.1-.26-.14-.06-.46-.18-.57-.18-.12,0-.16.02-.2.14-.14.64-.28,1.03-.44,1.29-.6,1.03-1.83,1.2-3.2,1.19-.89,0-1.17-.05-1.49-.15s-.4-.22-.41-.6c-.04-.38-.05-1.01-.06-3.87v-2.5c-.01-2.06.03-2.88.13-3.41.12-.67,1.04-.75,1.75-.88.02-.1-.05-.7-.15-.72-.93.03-2.16.09-3.42.1-.79.02-1.57,0-2.32-.03-.04,0-.06,0-.08.08l-.14.42c-.06.2.02.32.06.32,1.37-.03,1.53.09,1.58.45l-.02-.02Z"/>
      <path class="cls-2" d="M116.64,26.91c.08.01.38.05.73.11.39.07,1.51.26,2.73.49.1,0,.42-.55.27-.62-.89-.35-1.15-.6-1.06-1.09.1-.59.76-1.58,1.04-2.06.2-.33.32-.47.66-.43.91.08,3.02.46,3.73.58.12.02.25.16.35.56.06.23.46,2.2.38,2.67-.07.39-.21.49-1.04.56-.05.03.06.47.08.58,0,.06.05.09.12.1.22.04,1.07.12,1.69.23.66.11,1.03.2,3.02.56.16,0,.41-.63.38-.6-1.09-.43-1.3-.99-1.62-2.15-.2-.74-.97-4.16-1.33-6.03-.37-1.94-.59-3.08-.88-4.91-.05-.31-.06-.35-.28-.39-.29-.05-.68-.02-.91.04-.08.03-.16.11-.22.24-.16.21-.4.66-.65,1.08-1.44,2.29-4.69,7.17-5.3,8.05-.59.86-.97,1.64-2.03,1.74-.1.02-.02.46.02.57,0,.06.03.08.12.1v.02ZM121.39,22.05c1.13-1.88,1.5-2.5,2.42-3.85.05-.07.17-.03.21.1.19.9.41,2.07.74,4.34,0,.06-.16.21-.35.18-.49-.06-.84-.13-1.47-.23-.57-.1-.92-.18-1.15-.22-.27-.05-.45-.22-.39-.31h0Z"/>
      <path class="cls-2" d="M131.61,30.35c.13.04.25.06.41.02.16-.09.28-.15.42-.17.13,0,.22.03.36.12.6.39,1.44.81,2.18,1.06.68.23,2.38.58,3.54.39,1.18-.19,2.29-.92,2.76-2.31.35-1.03.28-1.81-.23-2.83-.4-.79-1.22-1.59-2.31-2.57-.88-.79-1.19-1.25-1.48-1.81-.24-.46-.25-.97-.07-1.51.3-.88,1.4-1.51,2.38-1.18.75.26,1.51.87,1.85,1.41.45.66.51,1.27.54,2.24,0,.15.07.21.12.21.19-.02.32-.08.55-.13.09-.03.15-.07.17-.26.19-1.22.48-2.19.87-3.14-.05-.04-.39-.15-.63-.24-.22.26-.4.3-.58.22-.22-.1-.39-.15-.58-.26-.33-.15-1.07-.49-1.59-.67-1.33-.46-2.56-.5-3.12-.4-1.03.19-2.07.78-2.51,2.06-.32.94-.25,1.76-.02,2.32.4,1.04,1.11,1.85,2.23,2.86.88.8,1.21,1.25,1.44,1.54.46.56.6,1.32.4,1.9-.47,1.37-1.81,1.92-3.14,1.46-1.03-.35-2.05-1.67-2.43-2.89-.17-.54-.16-.96-.17-1.28,0-.17-.09-.24-.2-.28-.09-.03-.25-.06-.37-.08-.1-.01-.13,0-.15.14-.22,1.2-.42,2.14-.72,3.13-.16.51-.16.7-.13.75.08.09.12.13.24.17h-.03Z"/>
      <path class="cls-2" d="M146.7,35.84c.67.38,1.54.83,2.51,1.41.38.22,1.03.64,2.55,1.57.1-.08.21-.24.35-.46.06-.1.05-.13-.05-.19-.54-.48-.83-.77-.96-.9-.41-.4-.29-.79-.04-1.29.26-.56.62-1.23,1.01-1.89.15-.25.2-.25.3-.19.12.07.27.16.71.43,1.29.77,3.2,1.4,4.72,1.04,1.1-.26,2-.72,2.64-1.8.3-.51.73-1.8.19-3.1-.63-1.51-1.76-2.39-2.68-2.94-.27-.16-1.86-1.06-2.3-1.33-.58-.35-2.11-1.35-2.46-1.56-.08.02-.33.29-.37.35-.09.15-.07.23.08.33.94.59,1.02.73.93.95-.15.51-.73,1.53-1.86,3.42l-1.73,2.9c-.86,1.45-1.42,2.22-1.61,2.46-.47.6-.78.53-1.76.06l-.25.5c-.06.1-.07.16.08.25v-.02ZM152.97,32.65c.5-.83,2.45-4.03,2.89-4.65.16-.23.28-.32.45-.33.1,0,.47.03.84.25,2.35,1.4,1.24,3.72.88,4.33-.72,1.21-1.84,2.11-3.15,1.95-.28-.03-.83-.2-1.17-.4s-.63-.45-.79-.68c-.09-.12-.08-.25.05-.48h0Z"/>
      <path class="cls-2" d="M156.29,40.64c-.1-.03-.24.39-.26.5-.02.06-.02.09.06.15.06.05.31.22.58.45.31.25,1.18.97,2.14,1.77.09.05.63-.28.54-.41-.6-.74-.7-1.08-.39-1.47.38-.46,1.43-1.01,1.91-1.28.33-.19.51-.25.78-.05.76.52,2.41,1.89,2.96,2.34.09.08.14.27.02.66-.06.23-.67,2.14-.97,2.51-.25.31-.42.32-1.19-.02-.06,0-.18.44-.21.54-.02.06,0,.1.06.15.17.14.87.63,1.36,1.03.52.43.8.68,2.36,1.97.14.08.67-.35.63-.33-.74-.91-.65-1.5-.36-2.67.19-.74,1.19-4.1,1.8-5.91.63-1.87,1-2.98,1.64-4.71.11-.29.12-.34-.05-.47-.23-.19-.58-.35-.82-.41-.09-.02-.2.02-.31.1-.24.11-.67.38-1.09.62-2.38,1.28-7.59,3.94-8.56,4.41-.94.46-1.65.96-2.63.52h0ZM162.6,39.4c1.91-1.08,2.53-1.44,4-2.17.08-.04.16.05.13.18-.28.87-.66,2-1.48,4.14-.02.06-.24.11-.4-.02-.4-.3-.67-.52-1.17-.93-.45-.36-.71-.6-.89-.75-.21-.18-.28-.41-.19-.46h0Z"/>
      <path class="cls-2" d="M167.89,50.35c-.13.06-.33.34-.42.49-.03.05.02.11.15.26.32.38.63.64,1.07,1.15.66.77,2.01,2.36,2.14,2.5.13.15.19.23.24.21.11,0,.54-.26.58-.37-.21-.45-.73-1.21-.74-1.46,0-.13.02-.22.27-.47.56-.51,1.31-1.21,2.62-2.34.11-.09.29-.18.37-.11.17.14.32.28.53.52.63.74.51,1.23.2,1.93-.55,1.13-1.01,2.23-1.11,3.39-.15,1.8.46,3.2,1.59,4.66.05.06.17.17.35.04.26-.15.38-.25.3-.5-.39-1.21-.21-3.01.26-4.47.4-1.29.96-2.38,1.28-2.83.08-.12.27-.21.37-.18.78.24,2.21.77,3.53-.37.65-.56,1.04-1.68.91-2.65-.19-1.46-.85-2.44-1.73-3.46-.49-.57-.82-.92-1.68-1.8-.6-.63-1.25-1.36-1.84-2.01-.08-.09-.19-.15-.26-.06l-.37.48c.56,1.19.6,1.24.04,1.75-.47.43-1.52,1.39-2.41,2.16l-1.88,1.62c-1.92,1.66-2.94,2.46-3.32,2.47-.25-.02-.68-.3-1.03-.55h0ZM176.31,48.16c1.3-1.1,1.95-1.63,2.45-1.96.18-.1.36-.1.55,0,.31.18.47.27.73.57.78.9.67,2.51-.63,3.64-.66.57-1.39.88-2.01.92-.76.03-1.46-.39-2.03-1.05-.25-.28-.45-.52-.53-.67-.07-.15-.06-.16,1.47-1.45Z"/>
      <path class="cls-2" d="M178.26,62.04c-.58.17-.89-.13-1.58-1.01-.11.05-.32.28-.42.37-.06.06-.08.17,0,.29.03.05.65.85,1.51,2.17.46.7.89,1.41,1.65,2.64.12-.03.49-.2.59-.26.05-.03.06-.09,0-.17-.16-.39-.33-.8-.39-.93-.11-.24-.03-.41.22-.64.55-.5,1.8-1.39,3.08-2.22l2.63-1.71c1.69-1.11,2.36-1.47,2.7-1.6.34-.13.55-.1,1.66,1.19l.37-.48s.04-.08-.1-.29c-.12-.18-.81-1.17-1.35-1.99-.97-1.45-1.22-1.91-1.38-2.16-.15-.23-.25-.38-.35-.5-.03-.05-.08-.04-.22-.05-.19.03-.32.09-.37.12-.1.07-.11.12-.05.22.14.22.29.52.41.77.29.66.07.83-2.17,2.29l-3.31,2.16c-2.21,1.44-2.83,1.68-3.13,1.78h0Z"/>
      <path class="cls-2" d="M187.88,66c-.45,1.02-.52,2.09-.44,3.6.06,1.19-.03,1.74-.07,2.11-.06.72-.5,1.35-1.05,1.63-1.3.64-2.63.08-3.26-1.18-.48-.98-.28-2.63.31-3.76.26-.5.56-.79.78-1.02.12-.12.11-.23.05-.34-.04-.09-.13-.22-.2-.32-.06-.08-.09-.09-.2,0-1.01.7-1.81,1.22-2.71,1.71-.47.25-.61.39-.62.44,0,.12,0,.18.05.28.06.12.13.22.28.3.18.04.31.09.42.17.09.09.13.18.17.34.15.7.45,1.59.79,2.28.32.64,1.27,2.09,2.23,2.77.96.7,2.27.96,3.58.31.98-.48,1.48-1.08,1.83-2.16.27-.84.26-1.99.18-3.45-.07-1.18.04-1.72.23-2.32.15-.5.5-.87,1.02-1.12.84-.41,2.06-.09,2.51.84.35.71.45,1.68.32,2.3-.15.78-.53,1.26-1.2,1.96-.11.1-.1.2-.06.23.15.12.28.17.48.3.09.04.16.05.3-.06.99-.73,1.88-1.21,2.83-1.62,0-.06-.17-.38-.28-.61-.34.03-.5-.06-.57-.25-.09-.22-.17-.38-.23-.6-.12-.34-.41-1.1-.66-1.6-.62-1.26-1.46-2.15-1.93-2.48-.87-.59-2.02-.91-3.23-.31-.89.44-1.42,1.08-1.65,1.63Z"/>
      <path class="cls-2" d="M202.34,89.15s-.1-.42-.27-.85c-.14-.41-.32-.86-.4-1.14-.28-.95-.52-1.9-.8-2.85-.04-.07-.68,0-.7.08.2,1.16.23,1.57-.43,1.78-.34.1-.91.29-1.78.55l-1.67.5c-.46.13-.56.12-.66-.05-.12-.21-.46-1.33-.75-2.34l-1.22-4.13c-.07-.25.02-.34,1.53-.78,1.77-.52,2.45-.66,2.81-.71.44-.05.74.55,1.01,1.03.11,0,.56-.14.64-.23-.14-.41-.3-.86-.45-1.32-.17-.49-.32-1-.48-1.55-.19-.63-.38-1.29-.58-1.96-.04-.13-.04-.15-.11-.15-.21-.02-.41,0-.54.06.14,1.26,0,1.39-.53,1.58-.51.17-1.2.44-3,.97l-3.46,1.02c-1.77.52-2.52.7-2.81.77-.51.09-.71-.14-1.33-1.01-.14.02-.38.19-.53.3-.03.05-.03.09-.02.15.05.17.23.55.56,1.61.27.93.72,2.5.97,3.58.11,0,.48-.14.65-.19.04-.01.06-.08.04-.14-.07-.93-.11-1.23.05-1.44.13-.18.26-.24.88-.46.75-.28,1.82-.58,3.24-1,.19-.06.31-.07.45.2.12.19.24.59.71,2.19l.74,2.51c.5,1.69.48,1.78.43,1.88-.07.12-.19.18-.3.23l-1.5.44c-1.48.44-2.38.64-2.67.62-.25,0-.49-.19-.87-1.13l-.61.16c-.06.02-.05.04-.02.15.08.29.24.59.71,2.21l.83,2.82c.05.11.69.09.79,0-.22-1.24-.05-1.5.47-1.69.62-.22,1.38-.51,2.94-.97l3.44-1.02c1.67-.49,2.54-.71,2.85-.78.63-.12.84.12,1.35,1.15.15-.04.25-.12.47-.29.03-.05.03-.11-.06-.35h-.01Z"/>
      <path class="cls-2" d="M37.45,166.84c-.27.03-.79.15-1.38.11-.84-.08-2.17-.38-2.94-1.46-2.1-2.94.04-5.98,1.88-7.29,1.28-.91,2.78-1.57,4.37-1.49,1.41.07,2.54.75,3.18,1.65.58.81.78,1.81.71,2.29-.05.47-.22.72-.41,1.03-.2.34-.57.87-.71,1.05-.06.09-.05.23.17.51.13.18.19.2.23.18,1.05-.85,1.84-1.39,2.94-1.69.08-.03.12-.06.06-.22-.08-.31-.13-.39-.2-.44-.13-.08-.52-.31-.57-.49-.1-.42-.56-1.26-1.08-1.99-.47-.66-1-1.33-1.68-1.94-1.11-1.01-2.55-2-4.12-2.18-1.88-.21-3.49.51-4.63,1.33-2.5,1.79-4.17,5.59-.99,10.05.82,1.15,1.72,1.82,2.05,2.29.13.18.16.23.39.23.53-.04,1.59-.26,2.66-.78.16-.09.18-.15.16-.43.03-.29-.04-.33-.09-.33h0Z"/>
      <path class="cls-2" d="M50.72,178.29l2.49-2.58c1.21-1.26,1.86-1.87,2.09-2.09.48-.42.79-.31,1.75.33.11-.11.16-.23.27-.48,0-.06-.03-.11-.23-.28-.03-.03-.3-.32-.66-.61-.33-.29-.7-.59-.91-.8-.71-.69-1.39-1.39-2.1-2.08-.07-.04-.6.33-.57.42.75.91.98,1.25.51,1.76-.25.26-.65.7-1.28,1.36l-1.21,1.26c-.33.34-.43.39-.6.28-.21-.12-1.06-.93-1.81-1.66l-3.1-2.99c-.19-.18-.15-.31.94-1.43,1.28-1.33,1.81-1.79,2.1-2,.36-.26.91.11,1.38.4.1-.04.41-.4.44-.51-.33-.29-.68-.6-1.04-.92-.38-.34-.77-.71-1.18-1.11-.47-.45-.97-.94-1.47-1.42-.1-.1-.11-.11-.17-.08-.19.09-.36.2-.44.32.75,1.02.68,1.21.32,1.63-.36.4-.82.97-2.13,2.32l-2.51,2.6c-1.28,1.33-1.85,1.86-2.07,2.06-.4.33-.68.22-1.66-.22-.11.09-.23.36-.31.53,0,.06.02.1.06.14.13.12.47.37,1.28,1.13.7.67,1.86,1.82,2.62,2.63.1-.04.34-.36.47-.49.03-.03,0-.1-.03-.14-.52-.78-.71-1.01-.67-1.28.02-.22.11-.34.53-.84.51-.61,1.29-1.4,2.33-2.47.14-.14.23-.21.49-.05.2.11.5.4,1.7,1.55l1.88,1.82c1.27,1.23,1.3,1.31,1.3,1.42,0,.14-.08.25-.15.35l-1.09,1.13c-1.07,1.11-1.75,1.73-2.01,1.86-.22.12-.52.08-1.31-.55l-.46.44s-.03.06.06.14c.21.21.5.4,1.71,1.57l2.11,2.04c.1.07.64-.26.68-.39-.8-.97-.78-1.28-.42-1.7.43-.5.95-1.13,2.08-2.3v-.02Z"/>
      <path class="cls-2" d="M62,184.44c.04-.14.2-.27.3-.28.82.02,2.33.14,3.3-1.32.47-.71.54-1.9.16-2.8-.58-1.36-1.48-2.12-2.6-2.86-.63-.42-1.04-.66-2.11-1.28-.75-.45-1.57-.97-2.31-1.43-.1-.07-.22-.1-.27,0l-.23.56c.86,1,.91,1.03.51,1.67-.33.54-1.09,1.75-1.74,2.73l-1.37,2.07c-1.4,2.12-2.16,3.16-2.53,3.28-.25.05-.74-.11-1.14-.25-.11.09-.23.42-.27.58-.02.06.05.1.21.21.41.27.78.44,1.34.82.84.56,2.57,1.72,2.74,1.83.17.11.25.16.29.14.11-.02.45-.39.46-.51-.32-.38-1.03-.97-1.11-1.21-.04-.12-.04-.22.14-.53.4-.64.94-1.52,1.89-2.96.08-.12.24-.25.33-.21.2.09.38.18.64.36.81.54.83,1.05.71,1.8-.22,1.23-.37,2.42-.15,3.57.35,1.78,1.3,2.96,2.79,4.06.07.04.21.11.35-.06.21-.21.3-.35.16-.56-.7-1.06-1.02-2.84-.96-4.37.04-1.35.28-2.55.46-3.07h.01ZM61.41,182.93c-.73.23-1.51.02-2.24-.46-.31-.21-.58-.38-.69-.5-.11-.12-.1-.14,1.02-1.8.96-1.41,1.43-2.1,1.83-2.55.14-.14.32-.19.53-.15.35.09.53.14.86.35.99.66,1.33,2.24.38,3.67-.48.73-1.1,1.23-1.69,1.43h0Z"/>
      <path class="cls-2" d="M75.68,185.04l.07-.6c0-.06,0-.09-.23-.2-.2-.1-1.3-.59-2.17-1.02-1.58-.75-2.02-1.01-2.29-1.14-.25-.12-.41-.2-.56-.25-.05-.03-.09,0-.21.07-.15.13-.23.24-.25.29-.05.11-.03.16.07.21.23.11.52.3.75.46.59.42.49.68-.69,3.08l-1.73,3.55c-1.16,2.37-1.57,2.9-1.77,3.13-.41.44-.83.34-1.87-.05-.07.1-.13.4-.17.53-.02.08.02.19.14.25.05.03,1,.4,2.41,1.09.75.37,1.49.75,2.77,1.42.09-.09.32-.42.37-.53.03-.05,0-.11-.08-.15-.34-.25-.7-.52-.81-.6-.21-.15-.23-.34-.14-.66.21-.71.83-2.11,1.5-3.48l1.38-2.82c.89-1.82,1.27-2.47,1.5-2.75.23-.29.42-.37,2.03.18h-.02Z"/>
      <path class="cls-2" d="M84.49,187.52c-.22-.1-.39-.16-.58-.27-.32-.16-1.06-.5-1.59-.68-1.33-.47-2.55-.52-3.11-.42-1.03.18-2.08.76-2.52,2.04-.33.94-.26,1.76-.04,2.32.39,1.04,1.09,1.86,2.21,2.88.87.81,1.2,1.26,1.43,1.55.46.56.59,1.32.38,1.9-.48,1.37-1.82,1.9-3.15,1.44-1.03-.36-2.04-1.68-2.41-2.9-.17-.54-.15-.96-.16-1.28,0-.17-.08-.24-.2-.28-.09-.03-.25-.07-.37-.09-.1,0-.12,0-.15.13-.23,1.2-.43,2.14-.74,3.12-.16.51-.16.7-.14.75.07.09.12.13.24.17.13.05.25.07.41.02.16-.09.29-.15.42-.17.12,0,.22.03.36.12.6.4,1.44.82,2.17,1.08.67.24,2.38.6,3.53.42,1.18-.18,2.29-.9,2.78-2.28.36-1.03.3-1.81-.21-2.83-.4-.79-1.2-1.6-2.29-2.59-.88-.79-1.18-1.25-1.46-1.82-.24-.46-.25-.97-.06-1.51.31-.88,1.41-1.5,2.38-1.16.75.26,1.5.88,1.83,1.42.44.66.5,1.27.52,2.24,0,.14.07.21.12.21.19-.02.32-.08.55-.12.09-.03.15-.07.17-.25.19-1.21.49-2.18.89-3.13-.05-.04-.39-.16-.63-.24-.22.26-.4.3-.58.22h0Z"/>
      <path class="cls-2" d="M100.43,190.27c-.06,0-.1,0-.18.09-.17.23-.45.44-.63.45-.19.03-.46,0-.92-.07-.89-.1-2.24-.31-4.43-.71-1.83-.34-3.36-.62-3.88-.73-.45-.1-.71-.19-.86-.26-.14-.09-.18-.21-.17-.7,0-.07-.05-.13-.15-.19-.17-.07-.3-.12-.41-.09-.83,1.58-1.44,2.48-1.77,3.05.02.21.2.36.37.51.11.06.24.12.25.07.51-.9.71-1.26.91-1.35.28-.11,1.61-.17,3.3.14l.9.17c.08,0-.03.62-.66,4.05l-.37,2.01c-.46,2.52-.91,3.89-.97,4.08-.17.47-.51.59-.94.62-.31.04-.85,0-1.19-.02v.54c0,.1.07.17.21.2.16.03,1.93.27,3.35.53.98.18,2.31.48,2.96.6.27.05.3,0,.33-.06l.15-.4c.06-.13.05-.17-.08-.2-.46-.12-1.29-.42-1.55-.59-.27-.19-.35-.53-.37-.85,0-.32.09-1.29.56-3.83l.37-2.01c.45-2.44.68-3.49.74-3.84.04-.21.24-.34.46-.3l.72.13c1.31.24,2.41.52,2.56.65.19.16.25.27.22.46-.04.23-.21.95-.23,1.03-.01.06.03.15.13.18.09.06.2.1.38.13.2.04.25-.02.26-.11.36-1.43.46-1.87,1.04-2.9.09-.17.08-.23,0-.28-.18-.11-.29-.19-.44-.22l.03.02Z"/>
      <path class="cls-2" d="M113.48,191.28c-.29-.12-.39-.12-.47-.11-.14.06-.56.23-.74.17-.39-.17-1.34-.3-2.24-.32-.81,0-1.67,0-2.56.2-1.47.29-3.13.86-4.2,2.01-1.29,1.39-1.66,3.11-1.68,4.52-.05,3.08,2.01,6.68,7.49,6.77,1.41.02,2.49-.3,3.06-.29.22,0,.28,0,.42-.17.29-.45.74-1.44.96-2.61.02-.18-.02-.24-.25-.38-.21-.2-.29-.16-.31-.12-.14.24-.35.73-.73,1.18-.57.63-1.59,1.52-2.92,1.5-3.61-.06-4.79-3.59-4.75-5.85.03-1.57.39-3.17,1.4-4.4.89-1.1,2.11-1.59,3.22-1.58.99.02,1.92.45,2.27.79.35.32.45.6.58.94.15.36.36.98.42,1.2.04.1.16.18.51.17.22,0,.28-.04.28-.08-.06-1.35-.02-2.3.39-3.37.02-.08.02-.14-.14-.18h-.01Z"/>
      <path class="cls-2" d="M130.64,200.13c-.15-.64-.34-1.43-.61-3.04l-.59-3.54c-.29-1.72-.4-2.61-.43-2.93-.05-.64.22-.82,1.31-1.21-.03-.16-.09-.27-.23-.5-.05-.03-.11-.04-.36.02-.04,0-.43.05-.88.17-.43.09-.89.21-1.18.26-.98.16-1.94.29-2.92.45-.07.03-.09.68,0,.7,1.18-.06,1.58-.04,1.72.64.06.35.18.94.33,1.84l.29,1.72c.08.47.06.57-.13.65-.22.1-1.38.29-2.42.47l-4.25.71c-.25.04-.33-.07-.59-1.61-.31-1.82-.36-2.51-.36-2.88,0-.44.63-.67,1.14-.88.02-.1-.08-.57-.15-.66-.43.09-.89.19-1.36.29-.51.11-1.03.19-1.6.29-.65.11-1.33.22-2.02.34-.14.02-.16.03-.17.09-.04.21-.05.41,0,.54,1.27,0,1.38.17,1.51.71.11.52.29,1.24.6,3.1l.6,3.56c.31,1.82.39,2.59.42,2.89.03.52-.23.68-1.17,1.2,0,.14.15.4.24.56.05.03.09.05.15.04.18-.03.58-.16,1.67-.36.96-.16,2.57-.41,3.67-.54.02-.1-.08-.49-.11-.67,0-.04-.07-.07-.13-.06-.93-.04-1.23-.03-1.43-.22-.17-.15-.21-.29-.36-.93-.19-.77-.35-1.87-.6-3.34-.03-.2-.03-.32.25-.42.21-.1.62-.16,2.26-.44l2.58-.43c1.74-.29,1.83-.27,1.92-.2.12.08.16.22.2.33l.26,1.55c.26,1.53.35,2.44.3,2.73-.04.25-.24.46-1.23.73l.09.63c0,.06.03.06.15.04.29-.05.62-.16,2.28-.44l2.9-.49c.11-.04.17-.67.09-.78-1.25.07-1.49-.13-1.62-.67h-.03Z"/>
      <path class="cls-2" d="M143.86,185.28c-.04-.39,0-.53.18-.64.19-.11.33-.21.52-.36l.03-.42c-.02-.17-.06-.25-.13-.23-.37.14-1.4.56-2.12.83-.45.17-1.45.54-1.71.64-.07.03-.18.09-.21.16,0,.13-.1.31-.13.43.04.17.18.25.23.23,1.52-.57,1.75-.57,2.09.04.43.81,1.08,2.56,1.79,4.46.61,1.64.93,3.11.56,4.32-.18.64-.71,1.5-2,1.97-.97.36-2.02.48-2.8.22-1.18-.38-1.81-1.17-2.3-2.49-.53-1.41-1.16-3.27-1.53-4.32-.27-.77-.43-1.38-.49-1.72-.12-.61.49-.84,1.3-1.33.03-.2-.13-.52-.17-.63-.03-.07-.06-.06-.18-.02-.91.34-1.8.74-2.72,1.12-.36.16-1.67.56-2.08.71-.24.09-.31.14-.25.37l.12.38c.58-.05.86-.07,1.12,0,.26.12.32.24,1.19,2.79.53,1.6.89,2.57,1.34,3.69.57,1.46,1.2,2.47,2.71,3.12.69.32,2.16.61,4.33-.2,1.67-.62,2.9-1.99,3.37-3.67.34-1.25.17-2.5-.52-4.53-1.11-3.31-1.5-4.58-1.55-4.95v.03Z"/>
      <path class="cls-2" d="M163.02,187.25c-1.26.17-3-.33-4.35-1.06-1.2-.63-2.17-1.38-2.56-1.77-.1-.1-.15-.3-.12-.39.38-.73,1.15-2.04.27-3.54-.43-.74-1.47-1.32-2.44-1.37-1.47-.08-2.55.4-3.72,1.08-.65.38-1.05.64-2.07,1.33-.73.48-1.56.99-2.3,1.45-.1.06-.19.16-.11.25l.4.45c1.28-.34,1.33-.37,1.73.27.34.54,1.1,1.75,1.69,2.76l1.26,2.14c1.29,2.19,1.89,3.33,1.84,3.71-.06.25-.42.62-.73.91.04.14.27.39.41.5.05.04.11,0,.29-.1.43-.25.74-.5,1.32-.85.87-.51,2.68-1.55,2.85-1.65.17-.1.26-.15.25-.19.03-.11-.16-.58-.26-.63-.48.12-1.32.5-1.57.46-.13-.02-.22-.06-.42-.35-.4-.64-.96-1.51-1.83-3-.07-.12-.12-.32-.04-.39.17-.15.33-.26.6-.42.84-.49,1.31-.29,1.93.15,1.01.74,2.02,1.39,3.14,1.7,1.75.47,3.23.13,4.87-.72.07-.04.2-.14.1-.34-.1-.29-.18-.42-.44-.39h.01ZM154.49,184.3c-.11.75-.65,1.37-1.4,1.81-.33.19-.6.35-.76.4-.16.05-.17.03-1.17-1.71-.85-1.48-1.25-2.21-1.49-2.76-.07-.19-.03-.37.1-.54.23-.27.35-.42.7-.62,1.03-.6,2.59-.21,3.47,1.28.44.75.62,1.52.55,2.14h0Z"/>
      <path class="cls-2" d="M172.43,175.9c-.29,0-.33.07-.32.11.05.27.21.78.22,1.37-.02.84-.21,2.19-1.23,3.05-2.77,2.32-5.97.42-7.42-1.32-1.01-1.2-1.78-2.65-1.82-4.25-.04-1.41.55-2.58,1.41-3.3.76-.64,1.74-.92,2.23-.89.48,0,.73.16,1.06.33.35.17.91.5,1.1.63.09.05.24.04.5-.21.17-.14.19-.21.16-.24-.93-.98-1.52-1.73-1.91-2.8-.04-.07-.07-.12-.22-.05-.3.1-.38.16-.43.23-.07.14-.27.54-.45.61-.41.13-1.21.65-1.9,1.23-.62.52-1.25,1.1-1.81,1.83-.92,1.19-1.8,2.7-1.86,4.27-.07,1.9.78,3.44,1.68,4.52,1.97,2.36,5.9,3.73,10.09.22,1.08-.9,1.68-1.85,2.12-2.22.17-.14.21-.18.21-.41-.08-.53-.38-1.57-.98-2.59-.1-.15-.17-.17-.44-.12h0Z"/>
      <path class="cls-2" d="M186.63,163.26c-.9.87-1.21.88-1.67.55-.53-.39-1.19-.86-2.45-1.9l-2.77-2.29c-1.34-1.11-2.01-1.71-2.24-1.93-.45-.45-.37-.77.2-1.77-.12-.1-.24-.15-.5-.23-.06,0-.11.04-.26.25-.02.03-.29.32-.55.7-.26.35-.54.74-.73.97-.63.76-1.28,1.49-1.92,2.25-.04.07.38.57.46.54.85-.81,1.17-1.07,1.72-.64.28.23.75.59,1.45,1.17l1.34,1.11c.37.3.42.4.32.58-.11.22-.85,1.12-1.52,1.93l-2.75,3.32c-.16.2-.29.17-1.5-.83-1.42-1.18-1.92-1.67-2.16-1.94-.29-.34.04-.92.29-1.41-.05-.09-.43-.38-.55-.4-.26.35-.55.73-.84,1.11-.31.41-.66.82-1.02,1.27-.42.5-.86,1.04-1.3,1.58-.09.11-.1.12-.07.18.1.19.23.34.35.42.97-.82,1.15-.77,1.61-.45.43.33,1.03.75,2.48,1.95l2.78,2.3c1.42,1.18,1.99,1.7,2.21,1.91.36.37.27.66-.1,1.67.09.1.37.2.55.27.06,0,.1-.02.13-.07.11-.14.33-.5,1.03-1.37.62-.75,1.67-1.99,2.43-2.81-.05-.09-.38-.32-.52-.43-.03-.03-.1,0-.14.04-.74.58-.96.78-1.23.76-.23,0-.35-.08-.88-.47-.65-.46-1.49-1.18-2.64-2.13-.15-.13-.23-.22-.09-.49.09-.21.36-.53,1.42-1.81l1.67-2.02c1.13-1.36,1.21-1.4,1.32-1.41.14,0,.26.06.36.12l1.21,1c1.19.99,1.86,1.62,2.01,1.87.13.21.12.51-.45,1.35l.48.42s.06.02.13-.07c.19-.23.36-.53,1.43-1.83l1.87-2.26c.06-.1-.31-.62-.44-.65l.04.02Z"/>
      <path class="cls-1" d="M116.7,170.07v-24.32l12.61,7.34v-17.85l-12.61-7.34v-25.29h30.14v-15.45h-30.14v-10.37h11.77v-15.45h-11.77v-13.33h-15.34v13.33h-11.77v15.45h11.77v10.37h-30.14v15.45h30.14v16.36l-12.61-7.34v17.85l12.61,7.34v33.25h15.34ZM90.88,128.25v-12.93l12.61,7.34v-22.18h-30.14v-11.2h30.14v-14.63h-11.77v-11.2h11.77v-13.33h11.09v13.33h11.77v11.2h-11.77v14.63h30.14v11.2h-30.14v28.64l12.61,7.34v12.93l-12.61-7.34v25.89h-11.09v-32.35s-12.61-7.34-12.61-7.34Z"/>
      <polygon class="cls-1" points="106.44 164.99 111.63 164.99 111.63 136.92 124.24 144.26 124.24 138.16 111.63 130.81 111.63 97.53 141.77 97.53 141.77 92.23 111.63 92.23 111.63 71.7 123.4 71.7 123.4 66.4 111.63 66.4 111.63 53.07 106.44 53.07 106.44 66.4 94.67 66.4 94.67 71.7 106.44 71.7 106.44 92.23 76.3 92.23 76.3 97.53 106.44 97.53 106.44 127.79 93.83 120.45 93.83 126.55 106.44 133.9 106.44 164.99"/>
      <path class="cls-2" d="M25.21,121.36c-1.4-.55-1.57-1.19-1.96-2.81-.08-.34-.3-.42-.68-.42-.55,0-1.15.34-1.49,1.02-.77,1.53-.77,1.66-2.42,1.91-.34.04-.81.85-.81,1.19,0,.3.25.6.77.81.64.34,1.36.68,1.83,1.62.6,1.19.94,2.04,1.79,2.04.55,0,.81-.17.89-.42.77-2.47.77-2.51,2.51-2.98.34-.08.42-.21.42-.47,0-1.06-.3-1.28-.85-1.49Z"/>
      <path class="cls-2" d="M200.69,121.36c-1.4-.55-1.57-1.19-1.96-2.81-.08-.34-.3-.42-.68-.42-.55,0-1.15.34-1.49,1.02-.77,1.53-.77,1.66-2.42,1.91-.34.04-.81.85-.81,1.19,0,.3.25.6.77.81.64.34,1.36.68,1.83,1.62.6,1.19.94,2.04,1.79,2.04.55,0,.81-.17.89-.42.77-2.47.77-2.51,2.51-2.98.34-.08.42-.21.42-.47,0-1.06-.3-1.28-.85-1.49h0Z"/>
    </g>
  </g>
</svg>