<?xml version="1.0" encoding="UTF-8"?>
<svg id="Layer_2" data-name="Layer 2" xmlns="http://www.w3.org/2000/svg" viewBox="0 0 416.18 662.11">
  <defs>
    <style>
      .cls-1 {
        fill: #fff;
      }

      .cls-2 {
        fill: #554b41;
      }
    </style>
  </defs>
  <g id="Layer_1-2" data-name="Layer 1">
    <g>
      <path class="cls-1" d="M97,262.59c2.13-.93,1.37-7.27-2-6,.61,2.06-1.61,6.95,2,6Z"/>
      <path class="cls-1" d="M93,247.59c-1.1.21-.84,7.42,2,7,1.71-.82.64-7.23-2-7Z"/>
      <path class="cls-1" d="M100,270.59c1.8-1.92.28-6.16-3-6,.78,2.22.58,5.42,3,6Z"/>
      <path class="cls-1" d="M99,256.59c.49,3.84.58,8.09,6,7,.8-3.47-1.49-3.84-1-7h-5Z"/>
      <path class="cls-1" d="M101,264.59c.79,3.21.83,7.17,6,6,.73-3.06-1.73-2.94-1-6h-5Z"/>
      <path class="cls-1" d="M113,301.59c.07-3.74-1.61-5.73-4-7,.77,2.9,1.58,5.75,4,7Z"/>
      <path class="cls-1" d="M115,293.59c-.96-2.71-.44-6.9-5-6,.39,3.27.22,7.11,5,6Z"/>
      <path class="cls-1" d="M100,229.59c.58-3.25-.68-4.65-1-7-5.2-.87-7.1,1.57-7,6,1.45,1.55,5.12.88,8,1Z"/>
      <path class="cls-1" d="M104,278.59c.24-4.24-2.08-5.92-5-7,.58,3.42.72,7.28,5,7Z"/>
      <path class="cls-1" d="M110,293.59c-.81-1.93-2.3-8.28-5-5,3.25.09.7,5.96,5,5Z"/>
      <path class="cls-1" d="M107,285.59c-.57-2.76-1.06-5.61-5-5,.82,2.51,1.31,5.36,5,5Z"/>
      <path class="cls-1" d="M101,220.59c.61,1.73,4.74-.08,5,2h-5c.32,2.35,1.58,3.75,1,7,2.58-.48,8.92.28,6,2-1.73-1.71-2.62.16-6-1-.6,5.93,1.75,8.91,1,15,.84,2.16,6.37-.37,7,2h-6c-.83,4.83,1.23,6.77,4,8-2.42,5.95-.84,10.97,3,16-2.48,2.23-1.18,9.12,4,7-3.21-13.67-3.51-26.54-4-39-1.76-.58-5.88,1.21-6-1h6c3.45-8.54-1.91-21.1-10-18Z"/>
      <path class="cls-1" d="M143,225.59c4.89,21.78-.36,51-2,69,6.87-22.87,13.01-50.01,13-74-3.8-2-8.13,2.87-11,5Z"/>
      <path class="cls-1" d="M155,274.59c1.91,5.59-3.48,12.5-5,18,1.72.39,2.56-1.48,3,0-2.31-.31-1.11,2.89-3,3-3.49-3.52,3.02-11.52,1-10-2.6,2.63-6.69,13.66-6,13,1.83-.27,2.35-6.85,4-4,.86,6.09-7.08,10.97-9,18,14.74-20.12,42.03-51.49,45-83,.72-7.64-.35-11.19-4-14-6.44,26.79-16.71,55.68-29,74,10.3-22.37,23.58-47.08,26-74-14.24,12.48-12.19,46.41-23,59Z"/>
      <path class="cls-1" d="M156,219.59c-1.36,35.19-9.66,62.68-18,87,14.22-21.78,21.27-50.73,27-81-2.98-2.02-3.58-6.42-9-6Z"/>
      <path class="cls-1" d="M63,217.59c-1.04-7.24-10.58-6.78-15-3,1.61,1.45,11.25-2.74,15,3Z"/>
      <path class="cls-1" d="M114,309.59c-20.08-16.37-36.64-41.2-45-68-.78-2.51-1.08-7.01-4-8,7.86,33.14,23.79,63.54,49,76Z"/>
      <path class="cls-1" d="M142,223.59c7.6-4.92,18.78-9.67,24,0,1.82-10.33-22.17-10.35-24,0Z"/>
      <path class="cls-1" d="M93,236.59c2.29.64,6.03,1.98,8,0,.72-3.06-1.02-3.64-1-6-2.39.61-7.26-1.26-8,1,2.17-.17.45,3.55,1,5Z"/>
      <path class="cls-1" d="M85,227.59c-1.69-4.64-2.96-9.71-10-9,3.52,32.81,16.38,56.28,32,77-4.49-8.51-6.34-19.66-13-26,1.8.13,2.34-.99,2-3-.68-2.32-4.54-1.46-5-4,5.32.92.7-2.4,2-6-1.18-.16-2.84.17-3-1,4.9-1.79-1.21-8.39-3-10,3.61.95,1.39-3.94,2-6-1.5-1.17-4.09-1.24-5-3,4.41,1.41,2.71-3.29,3-6-.69-1.97-5.58.25-6-2,.19-1.48,2.42-.92,4-1Z"/>
      <path class="cls-1" d="M128,217.59c.03,25.67-1.11,52.98,1,84,4.91-3.28,4.85-10.64,6-17,1.79-9.91,4.74-23.66,5-35,.29-12.49-1.26-28.71-12-32Z"/>
      <path class="cls-1" d="M118,278.59c-.26-17.43-9.71-61.62,9-63,19.67-1.45,15.3,51.97,9,72-1.84,5.84-3.01,13.81-4,20,11.68-19.73,16.03-67.03,5-91-33.59-11.74-24.78,43.87-19,62Z"/>
      <path class="cls-1" d="M88,229.59c.71,2.96.27,7.06,3,8,1.23-1.73.85-8.25-3-8Z"/>
      <path class="cls-1" d="M127,300.59c.2-2.86.12-5.46-3-5,.33,2.33,1.02,4.31,3,5Z"/>
      <path class="cls-1" d="M94,221.59c1.88-2.79,5.97-3.36,9-5-4.24-.2-12.08,1.2-9,5Z"/>
      <path class="cls-1" d="M84,214.59c3.58.42,2.19,5.81,6,6,1.31-2.69,4.41-3.59,6-6-4.26.88-8.87-3.06-12,0Z"/>
      <path class="cls-1" d="M124,299.59c-1.23-.55-1.95-6.56-4-3,1.23.55,1.95,6.56,4,3Z"/>
      <path class="cls-1" d="M116,286.59c.24-2.65-1.5-8.39-4-5,2.28.72.3,5.7,4,5Z"/>
      <path class="cls-1" d="M189,599.59c-11.4-37.27-26.41-70.92-36-110,5.63,35.03,12.37,68.96,20,102,5.12,2.88,10.68,5.32,16,8Z"/>
      <path class="cls-1" d="M122,294.59c.03-3.36-1.38-5.29-3-7-.89,1.19-.82,7.47,3,7Z"/>
      <path class="cls-1" d="M165,604.59c-11.9,10.1-30.85,18.25-52,15-16.27-2.5-26.41-15.39-35-24,10.42,32.7,61.81,33.05,84,14,1.04-.89,6.15-5.71,3-5Z"/>
      <path class="cls-1" d="M67,226.59c.13-3.54,1.64-5.69,3-8,2.44-.89,4.34-2.33,8-2,2.92,1.08,3.76,4.24,8,4-2.42-10.61-23.6-5.64-19,6Z"/>
      <path class="cls-1" d="M143,357.59c-.93-11.52-2.04-33.72-13-34-17.21-.44-14,41.47-14,59,0,9.12-1.81,19.04,3,22,.47-21.68-2.68-58.51,5-75,3.6.6,2.95-3.05,6-3,6.04,2.03,7.15,6.66,8,12,4.1,25.62-1.11,53.23,0,78,2.61,58.38,15.06,115.88,25,167-7.29,3-8.2,11.16-3,17-17.67,16.56-66.22,17.4-72-7,3.37-.25,2.9,5.98,6,3,.86-3.6-7.02-3.55-3-7,1.89.11.69,3.31,3,3,1.16-6.49-5.53-5.14-7-9,24.5-43.51,35.24-123.9,32-171-3.21,55.13-10.08,103.85-27,148-3.41,8.9-11.95,25.32-11,32,1.74,12.24,23.18,22.23,34,24,21.73,3.55,53.94-7.44,56-25,.38-3.28-2.12-7.79-3-12-2.56-12.31-4.74-26.86-7-39-6.1-32.72-16.48-66.06-18-101-1.12-25.69,2.29-53.71,0-82Z"/>
      <path class="cls-1" d="M111,342.59c-.57-8.24,2.86-12.48,3-20,1.62-1.71,3.03-3.64,3-7-12.09-6.58-7.05,12.4-7,26-.83,2.37,1.41,4.61,1,1Z"/>
      <path class="cls-1" d="M126,218.59c-8.26,1.32-8.62,11.5-9,19-.94,18.46,2.02,47.8,9,57,.93-20.1-.63-50.12,0-76Z"/>
      <path class="cls-1" d="M102,247.59h-6c1.06,3.61.9,8.44,7,7-.32-2.35-1.58-3.75-1-7Z"/>
      <path class="cls-1" d="M90,238.59c.04,3.29-.41,7.08,3,7-.14-3.2.99-7.65-3-7Z"/>
      <path class="cls-1" d="M100,238.59h-5v7c3.36.11,5.29,2,7-1-2.25-.42-.03-5.31-2-6Z"/>
      <path class="cls-1" d="M104,271.59c.61,3.39.28,7.72,5,7-.22-3.78-.98-7.02-5-7Z"/>
      <path class="cls-1" d="M107,279.59c-.49,3.16,1.8,3.53,1,7,1.89-.44,6.03,1.36,5-2-2.92-.74-1.94-5.4-6-5Z"/>
      <path class="cls-1" d="M85,221.59c.31,2.74,2.39,8.86,5,6-1.89-1.78-.74-6.59-5-6Z"/>
      <path class="cls-1" d="M68,233.59c3.39,27.63,30.08,61.51,46,73-20.47-23.04-34.61-51.22-42-87-3.43,3.59-4.64,8.77-4,14Z"/>
      <path class="cls-1" d="M87,286.59c-12.04-16-24.47-36.8-22-64-2.42-2.58-4.16-5.84-9-6,2.82,30.18,15.68,55.66,31,70Z"/>
      <path class="cls-1" d="M117,301.59c.13-2.47.15-4.82-1-6h-3c.62,2.72,1.98,4.68,4,6Z"/>
      <path class="cls-1" d="M120,285.59c-2.43-.57.47-6.47-3-6-.63,3.04.89,9,3,6Z"/>
      <path class="cls-1" d="M214,376.59c-7.01,11.66-20.18,17.15-25,31,6.8-2.87,13.58-11.08,19-12-6.35,6.33-19.13,11.53-22,18,7.92-3.42,18.91-9.08,27-9-8.99,4.01-20.39,5.61-28,11,10.88-1.45,22.52-2.15,31-6-2.91-6.83,1.04-9.45,0-19-3.75-.08-3.67,3.66-7,4,1.36-2.98,4.51-4.15,7-6-1.05-3.62,2.27-11.6-2-12Z"/>
      <path class="cls-1" d="M387,20.59c.37,24.47-.78,50.97,3,66,7.34-1.23,4.62-9.93,5-15,1.28-17.07-.87-40.46,0-56-2.53-1.55-6.07,2.8-8,5Z"/>
      <path class="cls-1" d="M364,98.59c2.54-16.05-.91-34.69-2-48-.11,16.77,0,33.34,2,48Z"/>
      <path class="cls-1" d="M195,47.59c11-.52,22.31-1.21,33-2,47.67-3.52,93.47-3.14,135-4-6.67-5.58-16.41-3-24-3-44.24,0-94.85,2.92-134,5-15.8.84-41.09,3.87-44-7-6.28-23.4,38.55-19.91,57-21,29.62-1.75,55.28-2.09,77,0-13.17.25-26.15.26-39,1-31.87,1.84-68.98-3.76-90,9,70.38-2.27,146.73-4.34,218-5,1.81-2.52,5.82-2.84,7-6,.61-.06,1.18-.15,1-1-28.99.89-64.91,1.42-96,1,33.88-2.34,67.09-.45,100-3,1.63,23.9-.67,50.5,3,72,2.68-20.64-.07-49.11,1-76-80.47-.97-157.08.16-231,7-11.16,3.19-17.03,17.64-9,29,10.42,5.94,23.53,4.54,35,4Z"/>
      <path class="cls-1" d="M369,96.59c.46-14.63,1.86-47.75-3-61-2.74,16.61-1.56,43.31,3,61Z"/>
      <path class="cls-1" d="M210,41.59c53.35-3.74,104.51-2.07,154-5,1.26-.41,2.04-1.29,2-3h-2c-64.74,2.22-135,2.14-200,5,13.23,7.12,30.08,4.12,46,3Z"/>
      <path class="cls-1" d="M201,170.59c-.66,5.66.72,9.28,3,12-.07-4.93.15-10.15-3-12Z"/>
      <path class="cls-1" d="M86,183.59c-2.35-.32-3.75-1.58-7-1v4c3.12,2.83,6.12-.53,7-3Z"/>
      <path class="cls-1" d="M90,191.59c-3.73-.94-6.65-2.68-11-3-1.45,5.15,10.49,6.34,11,3Z"/>
      <path class="cls-1" d="M90,184.59h-3c-.28,2.62.37,4.3,3,4v-4Z"/>
      <path class="cls-1" d="M32,184.59c11.22,8.45,29.93,14.73,46,15-.78-.22-1.16-.84-1-2,7.6,4.6,17.26,1.24,27,4-.02,1.65-2.77.56-3,2,31.41-1.56,61.45-2.17,89-7,12.9-2.26,36.23-6.91,39-21-.7-2.52-4.55,3.57-5-1-1.98-7.98,5.12-6.88,5-13-.86-1.8-2.2-3.14-4-4,3.94-.97,1.84-1.75,2-6-5.37,3.64-12.13,11.19-20,9,8.7-1.94,22-7.77,17-17-.62,2.72-1.98,4.68-4,6-38.07,17.48-101.32,22.59-151,14-7.54-1.3-29.38-7.93-30-17-1.02-14.93,43.28-27.35,67-29,47.33-3.29,92.54,3.55,116,24,1.09.39,2.4,1.2,1,0-5.04-10.63-19.42-11.91-28-19-23.22-5.75-61.25-10.2-86-8-27.5,2.44-71.02,10.16-73,37,8.73,12.29,34.02,18.61,50,17-3.4.07-6.98.31-8-2,4.75.58,9.22,1.45,15,1,.04,1.38-.47,2.2-1,3,15.86,2.64,38-1.98,51,3-19.92-2.9-35.64,1.86-50-2-1.68,4.54-6.56-3.45-12,2,2.6-.6,3.6.4,3,3,4.08.74,3.44-3.22,8-2,3.55,4.99-2.16,13.56,4,15,.98-5.89-3.32-11.58,2-14,1.64,4.28,3.4,14.35,1,19h5c-2.04-4.13,1.21-9.57-2-16,2.36-.31,1.86-3.47,5-3,.74,3.4.71,12.27,6,14,1.1-4.08-4.68-12.81,2-13,1.32,7.46,2.47,18.23,0,24-2.86-4.8-4.04-11.29-8-15-2.01,2.22,2.16,10.75-1,14-2.18-4.02-6.16-2.78-10-1v-3c-5.88,4.3-14.08-6.54-20,1-2.86-5.53,1.61-17.49-2-22-.23,1.77,1.01,5.01-2,4v-6c1.76-.58,5.88,1.21,6-1-15.95-4.05-32.87-7.13-43-17-4.91,6.7,6.16,4.84,4,12-3.25-.09-.7-5.96-5-5-2.99,4.23.17,9.42,2,12-4.52-3.01-3.91,6.38-4,11ZM220,160.59c.3,1.77.61,18.82,0,24-4.59-4.41-.02-17.98-4-23,1.58-.08,3.81.48,4-1ZM215,165.59c.05,3.38-2.33,4.34-4,6,2.96,2.73,6.56,10.08,4,15-4.56,1.23.09-6.76-3-7-1.41.27-.1,6.53-2,9-2.62-5.23-4.61-29,5-23ZM152,182.59c-3.01,1.01-1.77-2.23-2-4-3.09.27-1.29,8.02,2,8-3.98,1.02-.44,9.56-3,12-5.77-2.05-2.68-17.77-2-23,4.57-.71,7.81,3.46,5,7ZM167,196.59c-1.03-8.18-2.95-14.12-1-22,2.64,4.16,6.58,19.14,1,22ZM181,176.59c-5.67,4.78,1.94,11.89-2,18-4.28-2.39-.76-12.57-3-17-4.16,2.5-1.02,12.31-2,18-4.82-6.84-.58-18.3,2-24,4.82,1.84,1.95,3.17,6,0,1.86,7.75.83,15.55,2,22-3.85-2.81-1.58-11.75-3-17ZM202,190.59c-2.33-6.49-4.41-16.37-1-23,7.9.74,6.27,20.6,1,23ZM206,161.59c-6.7,5.08-12.91,2.14,0,0h0ZM196,191.59c-1.59-5.08-1.46-11.87-2-18-5.08,3.69,1.8,13.6-2,19-3.12-3.21-1.02-11.64-3-16-3.38,4.77,2.12,12.22-1,17-5.03-5.88-.46-18.08,1-24,4.05,3.17,1.18,1.84,6,0,.97,8.14,4.83,17.2,1,22ZM195,164.59c-14.81,6.69-31.48,6.3-51,9,13.49-4.41,35.29-4.08,51-9ZM136,180.59c1.42,4.58,1.96,10.04,4,14,5.24-7.93-6.15-13.91-1-19,5.39,3.19,5.67,19.71,1,24-4.43-3.04-6.41-12.26-4-19ZM62,176.59c-.73,4.73,1.43,6.57,3,9,2.74-2.26-.66-10.66,2-13,5.16,3.22.44,14.42,2,23-5.21.54-1.45-7.88-5-9-3.73-.4-.42,6.25-3,7-3.13-1.48-3.88-16.96,1-17ZM49,167.59c5.67,2.33,1.92,14.08,3,21,2.28-5.39.71-14.62,5-18,.63,4.65-4.57,12.08-3,21-10.82-1.81-3.75-14.25-5-24ZM41,169.59c-.15,4.48.11,8.56,2,11,4.1-5.17-5.4-12.41,0-16,5.26,5.68,1.85,17.97-1,24-3.54-3.59-6.16-15.29-1-19Z"/>
      <path class="cls-1" d="M381,22.59c-1.43-.39-1.69-1.2-3,0-72.76-2.4-117.09,4-188,4-8.59,0-19.79-2.9-26,4,66.03-1.84,148.9-1.06,215-5,.24-1.43,1.65-1.69,2-3Z"/>
      <path class="cls-1" d="M79,181.59c4.74-.74,6.88,1.12,11,1,.81-3.46-1.87-4.22,0-6-4,3.37-8.94-1.91-10-1,1.87.36-2.82,2.4-1,6Z"/>
      <path class="cls-1" d="M401,304.59c2.47-54.77.78-119.07-1-179-.06-.61-.15-1.18-1-1-.24,1.43-1.65,1.69-2,3,1.56,36.6,1.15,73.33,1.58,109.79.3,8.3.49,16.69.47,25.25.37,14.05.97,28.04,1.95,41.96Z"/>
      <path class="cls-1" d="M394,307.59c4.39-2.61,3.69-9.41,4-14,.73-10.65,1.03-20.92,1.05-30.96-.22-8.4-.37-16.82-.47-25.25-1.3-35.51-4.76-69.51-3.58-108.79-.06-.61-.15-1.18-1-1-2.04.29-1.96,2.71-4,3,.19,50.3.71,109.08,0,153-.08,4.76.74,10.61,1,15,.16,2.75-1.5,9.07,3,9Z"/>
      <path class="cls-1" d="M162,34.59c76.45,3.31,136.94-3.86,208-1,.62,22.69.54,37.41,2,61,5.62-1.38,8.69-5.31,15-6-2.94-19.93,1.69-52.08-3-67-10.11,5.72-5.35,21.69-5,31,.5,13.21,2.12,26.2-1,37,.24-20.91-1.76-39.58-1-61-3.31-.9-4.34,5.56-6,3,1.94.4,1.46-4.55-1-3-75.8.23-128.66,3.07-191,3-5.94,0-13.1-1.49-17,3Z"/>
      <path class="cls-1" d="M365,145.59c-2.09,53.1-1.18,112.28,1,177-.35-33.93,5.36-77.17,2-117-1.25-14.75-3.35-32.76-3-50,.08-4,1.06-12.65,0-10Z"/>
      <path class="cls-1" d="M360,142.59c18.42-4.25,30.43-14.9,45-23,2-9.94,4.84-30.19-2-37-14.88,6.78-30.95,12.38-44,21-1.07,10.65-.11,27.26,1,39ZM399,88.59c4.39,4.94.87,17.8,2,26-.67.56-1.35,1.13-2.03,1.71.01.1.02.2.03.29-.36.19-.72.39-1.08.58-9.48,7.89-21.03,16.69-33.92,17.42-1.94-8.06-.56-19.44-2-28,10.54-7.79,24.53-12.14,37-18Z"/>
      <path class="cls-1" d="M397,91.59c-12.06,2.94-20.05,9.95-32,13,.5,9.5-1.1,21.1,1,29,12.6-3.51,21.44-10.78,31.92-16.42.35-.29.7-.58,1.05-.87-1.11-7.78,2.53-20.31-1.97-24.71Z"/>
      <path class="cls-1" d="M362,325.59c.05-1.28,1.28-1.38,1-3-.11-48.14-1.53-107.76-1-161,.06-6.09,2.39-13.88-2-18-3.64,62.59-.01,119.05-1,182h3Z"/>
      <path class="cls-1" d="M386,311.59c1.18-.48,2.27-1.07,3-2,2.52-6.58.29-12.11,0-19-2.23-52.98,2.7-112.43-3-158-6.01,2.16-4.85,10.44-5,16-1.44,52.18,1.15,108.62,4,163h1Z"/>
      <path class="cls-1" d="M381,300.59c-.38-48.89-1.66-109.98-1-163-.06-.61-.15-1.18-1-1-2.6.4-3.02,2.98-6,3,1.24,58.32-.86,120.82,3,178,7.94-2.45,5.05-10.67,5-17Z"/>
      <path class="cls-1" d="M372,298.59c-.54-54.24,1-99.5-1-155-.21-1.12-1.11-1.56-2-2-.05,1.28-1.28,1.38-1,3-3.62,17.18.14,39.54,1,59,1.72,39.03-1.91,77.87,1,117,5.59-8.08,2.09-12.89,2-22Z"/>
      <path class="cls-1" d="M194,602.59c1.07-3.54,4.56-14.4,3-14-2.73,2.3-4.48,10.82-3,14Z"/>
      <path class="cls-1" d="M96,194.59v-4h-3c-.28,2.61-.34,5,3,4Z"/>
      <path class="cls-1" d="M195,395.59c5.43-10.61,26.58-16.03,19-33-4.69,11.98-18.54,20.12-19,33Z"/>
      <path class="cls-1" d="M156,315.59c-1.22,1.51.03,6.62,2,8-.82-2.51,1.94-8.61-2-8Z"/>
      <path class="cls-1" d="M189,376.59c4.87-23.46,12.07-44.6,29-56-1.48-10.85-7.17-17.5-15-22-14.29,17.19-19.09,49.69-14,78Z"/>
      <path class="cls-1" d="M118,411.59c2.33-1.88,1.93-4.63-1-6,.58,1.76-1.21,5.88,1,6Z"/>
      <path class="cls-1" d="M205,361.59c1.6-8.28,10.62-12.61,9-21-11.16,9.38-12.03,28.25-15,42,5.37-10.63,19.86-17.47,15-35-2.97,4.7-5.57,9.76-9,14Z"/>
      <path class="cls-1" d="M62,597.59c18.56-3.15,20.91-18.8,28-37,19.71-50.57,25.25-110.59,24-174-.4-20.08-2.3-67.1,17-65,14.35,1.56,13,34.77,13,53,0,25.47,1.34,35.13,1,57v7c.32,4.88,1.58-.96,1-3-1.33-37.41,5.52-95.52-10-121-5.75,1.29-11.09,2.35-17,1-16.39,40.95-3.63,95.05-8,144-4.76,53.4-32.74,96.07-49,136,.1,1.12-1.45,1.56,0,2ZM131,319.59c-1.06,2.27-6.29.38-9,1-1.54-.8,7.41-3.15,9-1Z"/>
      <path class="cls-1" d="M203,239.59c2.58-9.1,11.74-25.28,1-28-7.17,42.83-26.09,73.91-53,97,.06.61.15,1.18,1,1,24.69-13.88,42.12-38.62,51-70Z"/>
      <path class="cls-1" d="M109,347.59c-.67,14.88-2.91,35.84,1,49-.43-17.01.86-38.9-1-49Z"/>
      <path class="cls-1" d="M149,391.59c.85-18.64-2.26-37.95-1-56,.59-8.45,4.15-26.89-8-22-2.08,6.07,4.66,15.36,6,23,3.51,19.98.12,40.59,1,60,.97,21.43.45,44.44,3,64,6.65,51.05,25.76,94.97,42,137-.34-7.34,3.8-10.2,5-16-15.28-41.9-42.04-80.53-47-132-1.61-16.69-1.96-36.96-1-58Z"/>
      <path class="cls-1" d="M105,325.59c-4.8,34.06-.51,73.11,2,107,.42-33.33-1.38-71.19,1-106-1.28-.05-1.38-1.28-3-1Z"/>
      <path class="cls-1" d="M171,420.59c34.31-12.03,19.2-73.46,50-89,0-4-2-6-2-10-22.39,11.94-23.22,45.44-35,68,3.19-30.85-1.23-58.02,12-82,1.86-3.38,8.22-9.16,3-14-35.5,14.05-10.56,99.51-28,127Z"/>
      <path class="cls-1" d="M209,93.59c-9.17-3.83-15.54-10.46-25-14,6.21,10.12,15.65,17.02,25,24v-10Z"/>
      <path class="cls-1" d="M209,113.59v-8c-7.47-3.54-13.05-14.27-20-15,2.44,7.56,11.31,14.01,13,19-2.96-2.37-5.04-5.63-8-8,1.99,8.67,5.5,15.84,12,20,4.45-4.06-1.13-6.75-2-11,2.58.09,1.05,4.28,5,3Z"/>
      <path class="cls-1" d="M236,207.59c-2.9,35.82-14,63.78-32,80,32.16,16.15,29.04,70.72,29,116,17.98-1.5,33.3-2.39,51-3-.22-35.88-7.29-75.07,4-103,9.39-23.23,30.34-30.47,53-40,.45-21.78-1.34-41.33-2-62-57.62,3.6-69.65-63.04-61-126-18.61-2.29-36.06,1.92-54,2,1.89,18.75.12,38.48-4,56,19.42,13.51,18.71,46.51,16,80Z"/>
      <path class="cls-1" d="M172,112.59c3.06-.72,3.64,1.02,6,1,.15-15.15-1.73-28.27-6-39,14.9,8.43,7.35,44.65,28,44-11.38-16.29-13.29-47.38-35-50,8.91,8.09,4.29,29.71,7,44Z"/>
      <path class="cls-1" d="M176,68.59c11.66,3.34,20.14,9.86,33,12,.83-5.83-1.53-10.38,0-14-10.15-.42-24.65-1.36-32-2-1.54,4.21,5.17.16,5,3-1.76.58-5.88-1.21-6,1ZM208,70.59c-.89,1.47-7-.27-9-1,.89-1.47,7,.27,9,1ZM198,68.59c-3.09,1.39-13,1.03-15-2,4.34,1.33,9.65,1.69,15,2Z"/>
      <path class="cls-1" d="M209,91.59v-8c-11.35-4.65-25.31-12.02-36-14,11.88,7.45,22.38,16.29,36,22Z"/>
      <path class="cls-1" d="M165,110.59c-.63-10.38-.5-26.83-3-32,.28,11.14-1.02,27.76,3,32Z"/>
      <path class="cls-1" d="M169,90.59c.2-8.87-1.26-16.08-5-21,1.24,7.42,2.77,14.56,5,21Z"/>
      <path class="cls-1" d="M169,111.59c1.26-7.27-1.02-19.64-4-26,2.17,8.32-1.52,23.84,4,26Z"/>
      <path class="cls-1" d="M188,114.59c-6.5-7.17-4.3-23.04-11-30,2.15,8.51,2.53,18.8,3,29,1.97.45,6.18,3.71,8,1Z"/>
      <path class="cls-1" d="M381,358.59c-11.52,5.5-4.13,43.76-5,58,8.66-.52,5.89-10.29,6-16,.26-13.71-1.26-28.78,1-42h-2Z"/>
      <path class="cls-1" d="M51,247.59c-4.54-13.4-3.35-30.58-15-38,2.95,31.38,14.8,59.2,32,73-7.97-8.99-12.42-21.49-17-35Z"/>
      <path class="cls-1" d="M33,207.59c2.12,36.24,15.86,69.43,40,83-22.72-18.05-34.24-49.2-40-83Z"/>
      <path class="cls-1" d="M42,630.59c5.76-6.9,7.86-17.47,12-26-2.88-3.45-3.71-8.95-7-12-1.14,2.21-2.25,4.4-3.27,6.61-.41,1.23-.93,2.4-1.52,3.51-3.43,8.52-4.88,17.39-.21,27.87Z"/>
      <path class="cls-1" d="M296,62.59c-.72,2.28-.89,5.11-2,7,11.49-3.18,26.32-3.01,35-9-7.6,1-21.25,2.09-33,2Z"/>
      <path class="cls-1" d="M48,212.59c3.02-1.64,5.38-3.96,11-3,3.58,1.76,4.69,5.97,8,8,9.38-10.54,40.58-5.65,48,4,1.75-13.08,22.68-11.85,27-2,3.95-4.05,10.58-5.42,17-7,3.34,1.99,6.04,4.63,9,7,1.88-9.65,17.94-13.62,24-5,.97-8.84,14.37-11.5,21-6,4.06-3.61,8.85-6.48,15-8-.44-3.71,3.34-9.48-1-11-37.3,19.21-107.76,26.62-160.1,15.67-3.97-.67-7.97-1.64-11.88-2.9-8.4-2.36-16.17-5.28-23.02-8.77-.39,12.05,11.52,11.82,16,19Z"/>
      <path class="cls-1" d="M47,586.59c-9.79-.38-14.54-1.27-21-6,.22,1.89-1.13,2.21-1,4,3.6,3.69,17.56,8.62,22,2Z"/>
      <path class="cls-1" d="M51,582.59c21.09-34.25,41.21-69.46,54-112-6.52,30.39-22.51,62.68-38,87-8.15,12.79-22.58,30.1-8,41,22.09-52.54,53.49-97.79,51-172-1.77-2.67-.73,5.86-1,8-2.68,9.66,1,25.67-4,33-.52-7.34,4.24-26.22,2-33-.04-.13-.68,6.67-1,10-4.3,45.14-30.2,96.38-53,127h-6c-2.24,1.76-2,6-4,8-4.65-.06-9.86-3.63-13-2-2,6.79,13.97,7.04,21,5Z"/>
      <path class="cls-1" d="M57,231.59c-1.31-5.2-1.5-11.86-6-16,2.59,28.08,13.07,58.21,29,77,5.47,6.45,13.81,15.1,23,15-20.97-19.62-38.05-44.57-46-76Z"/>
      <path class="cls-1" d="M42,577.59c1.5-2.16,1.11-6.22,4-7,15.52-3.82,20.31-23.69,27-33-11.02,14.65-24.49,26.84-39,38,3.28.06,3.82,2.84,8,2Z"/>
      <path class="cls-1" d="M57,251.59c-6.27-18.41-6.6-42.01-24-48,15.15,7.9,13.42,26.99,18,43,6.66,23.32,20.69,42.7,36,54-14.32-12.2-23.78-30.73-30-49Z"/>
      <path class="cls-1" d="M312,88.59c-6.01,9.33-21.41,9.26-20,26,6.99-7.68,18.46-16.2,20-26Z"/>
      <path class="cls-1" d="M308,98.59c-4.1,8.91-17.56,12.64-14,26,8.14-4.53,14.19-16.47,14-26Z"/>
      <path class="cls-1" d="M343,83.59c-.46,28.87-9.27,61.7-5,90,9.52.4,6.07-12.19,6-19-.26-24.92,2.09-51.29-1-71Z"/>
      <path class="cls-1" d="M294,92.59c10.35-8.32,29.2-13.46,33-25-10.63,5.7-22.6,10.06-34,15,1.29,4.38-2.55,9.37,1,10Z"/>
      <path class="cls-1" d="M228,166.59c-1.19,1.93-3.81,5.07-2,7,3.71,1.3,3.97-5.92,2-7Z"/>
      <path class="cls-1" d="M320,170.59c3.62-.41,4.55-8.73,3-11,.34,5.01-3.81,5.52-3,11Z"/>
      <path class="cls-1" d="M69,205.59c49.97,7.09,114.05,1.94,157-16,1.46-.87,3.17-1.5,3-4-4.43-.61-7.78,3.37-12,5-23.59,9.12-65.49,12.44-98,15-5.63.44-12.07.42-17,0-19.33-1.66-45.41-5.85-60-12-3.34-1.41-6.01-6.36-10-4,5.91,5.63,14.19,9.93,23.02,12.77,3.83,1.08,7.8,2.04,11.88,2.9.7.12,1.4.23,2.1.33Z"/>
      <path class="cls-1" d="M77,161.59c22.56,4.1,51.66,3.12,79,3,12.59-.05,64.03-10.11,65-19,.81-7.46-19.7-15.71-30-19-25.99-8.31-62.12-11.35-94-7-16.29,2.22-55.42,12.92-55,26,.39,12.24,28.03,17.19,39,14-.61,1.39-3.85.15-4,2ZM183,154.59c3.66-.33,5.56,1.11,8,2-.88,1.45-8.04.77-8-2ZM184,152.59c4.35-2.97,10.49.81,14,2-4.08,2.71-8.81-2.49-14-2ZM181,147.59c6.04-2.36,14.93,1.05,20,3-4.41.72-13.17-2.81-20-3ZM180,140.59c6.47,1.86,14.62,2.05,21,4-5.03.68-16.97-.35-21-4ZM203,133.59c-5.98,1.29-21.09-2.22-24-4,5.88-.37,16.53,2.68,24,4ZM198,137.59c-4.47,1.12-15.8.48-19-3,6.12,1.22,12.53,2.14,19,3ZM82,137.59c-6.98,2.52-17.67,8.44-25,10,8.34-5.66,18.86-9.14,30-12,4.6,1.45-5.18,2.06-5,2ZM92,123.59c-15.99,3.34-29.42,9.24-41,17,6.63-8.7,23.89-15.45,41-17ZM95,127.59c-14.94,3.39-27.08,9.59-40,15,10.82-7.51,23.36-13.31,40-15ZM85,142.59c3.76,2.1-10.2,2.88-12,6-6.59.41-9.62,4.38-16,5,7.63-5.37,18.36-7.64,28-11ZM85,148.59c-7.21,3.45-15.54,5.79-24,8,6.69-3.98,14.92-6.42,24-8ZM66,159.59c3.55-3.45,9.22-4.78,15-6-4.02,2.98-9.19,4.81-15,6Z"/>
      <path class="cls-1" d="M311,179.59c24.95-22.38,5.41-94.59,30-114,0,.56.81,1.14,1,0-1.16-1.48-1.16-2.52,0-4-33.21,8.79-26.9,57.1-54,72-.35,5.35.44,9.56,2,13,25.9-13.43,21.67-62.33,44-76-20.9,23.44-7.1,81.57-33,100,3.16,3.17,4.97,7.7,10,9Z"/>
      <path class="cls-1" d="M203,631.59c-8.49-.18-11.64-5.69-18-8,3.33,6.01,13.07,10.91,19,11-1.16-.17-1.09-1.58-1-3Z"/>
      <path class="cls-1" d="M207,610.59c.4,5.32-.58,19.08,0,18,1.58-3.34,4.34-15.32,0-18Z"/>
      <path class="cls-1" d="M202,589.59c.91,6.09,3.64,10.36,5,16,10.73,2.39,22.76.99,32-3-1.12-7.54-5.63-11.7-8-18-8.49,2.85-16.48,6.19-29,5Z"/>
      <path class="cls-1" d="M205,628.59c1.1-14.29.75-26.83-6-37-5.86,13.83.44,26.64,6,37Z"/>
      <path class="cls-1" d="M293,80.59c7.19-1.58,14.82-5.94,22-9,7.21-3.08,16.25-4.86,19-10-11.18,4.54-25.98,6.41-40,10,.79,4.12-1.54,5.13-1,9Z"/>
      <path class="cls-1" d="M152,329.59c-.22-.78-.84-1.16-2-1,2.17,29.95-.03,54.36,0,84,.08,69.73,26.25,119.57,49,168,5.9.57,25.35,3.64,28-5-6.93,2.44-10.47,5.05-18,5,1.13-4.86-3.05-8.43-9-9-17.17-34.77-43.06-75.63-47-125-3.37-42.25,6.12-79.94-1-117Z"/>
      <path class="cls-1" d="M213,577.59c5.61.94,6.43-2.9,11-3-18.45-14.55-32.8-33.2-46-53,5.04,18.3,15.15,31.51,22,48,7.85-.85,8.23,5.77,13,8Z"/>
      <path class="cls-1" d="M201,584.59c5.64,6.25,24.84,2.93,28-3-.49-1.18-1.07-2.27-2-3-4.51,6.16-15.04,6.3-26,6Z"/>
      <path class="cls-1" d="M318,111.59c1.08-13,7.15-22.66,8-32-10.8,24.54-16.14,54.52-35,71,1.93,6.74,4.55,12.78,9,17,16.48-8.77,16.02-32.22,18-56Z"/>
      <path class="cls-1" d="M293,103.59c7.08-8.25,17.89-12.77,24-22-7.12,1.56-17.45,8.54-25,13,.62,2.71-1.27,7.94,1,9Z"/>
      <path class="cls-1" d="M10,611.59c-.84,1.16-1.32,2.68-1,5,7.81,1.31,22.2,8.19,26-1-7.14.2-18.98-.13-25-4Z"/>
      <path class="cls-1" d="M42.21,602.72c.47-1.18.98-2.35,1.52-3.51.79-2.36,1.24-4.92,1.27-7.61-9.73-1.22-14.85.65-22-5-3.2,8.13-8.64,14.02-11,23,12.1,8.13,24.74,3.36,30.21-6.87Z"/>
      <path class="cls-1" d="M36,617.59c-1.73,5.31,2.62,16.95,6,17-3.24-4.42-2.18-13.15-6-17Z"/>
      <path class="cls-1" d="M69,629.59c21.79,31.39,96.36,30.75,113-5-12.67,8.04-29.14,22.57-52,24-27.86,1.74-46-8.15-61-19Z"/>
      <path class="cls-1" d="M42,640.59c7.59-4.75,19.88-4.79,23-14-8.06,4.27-19.02,5.65-23,14Z"/>
      <path class="cls-1" d="M175,601.59c3.09,14.57,12.7,22.64,26,27-1.61-16.05-11.16-24.17-26-27Z"/>
      <path class="cls-1" d="M76,631.59c-2.75-1.91-5.25-4.09-8-6,.17,1.5-.36,3.69,1,4,1.27-2.81,5.73,4.81,7,2Z"/>
      <path class="cls-1" d="M241,605.59c-8.04,1.45-22.97,2.43-31,5,7.43,4.07,25.52,3.55,31-5Z"/>
      <path class="cls-1" d="M390,355.59c-.06-.61-.15-1.18-1-1-.85,1.48-2.52,2.15-5,2-.91,22.51-.58,35.51,0,56,14.82-8.04,2.07-37.77,6-57Z"/>
      <path class="cls-1" d="M374,362.59h-3c-1.74,17.79-.03,45.53,2,57,2.46-13.26.24-38.81,1-57Z"/>
      <path class="cls-1" d="M44,634.59c7.97-4.03,16.2-7.8,24-12,1.67-8.33,5.36-14.64,7-23-7.9,1.77-12.49,6.84-21,8-1.88,10.45-7.67,17-10,27Z"/>
      <path class="cls-1" d="M327,139.59c5.82-21.46,12.52-51.78,13-72-3.11,8.23-8.24,14.42-10,24,4.8-3.2,3.59-12.41,8-16-8.29,16.71-11.35,38.65-11,64Z"/>
      <path class="cls-1" d="M50,590.59c.36,3.54,3.17,12.03,7,11-4.31-3.21-7.71-18.04-7-11Z"/>
      <path class="cls-1" d="M369,423.59c.8-18.19,1.22-44-3-58,1.22,20.84-.75,40.76,3,58Z"/>
      <path class="cls-1" d="M361,365.59c-2.56,18.96.81,32.16-1,51,1.99.01,1.27,2.73,4,2,1,0,1.19-.81,2-1-1.28-10.65-.94-21.34-1-32-.04-7.1,2.94-17.61-4-20Z"/>
      <path class="cls-1" d="M181,621.59c-1.42-7.91-6.99-11.67-9-19-17.04,23.82-71.87,33.35-90,4,3.41,8.92,16.11,13.88,20,19-8.38-5.62-18.11-9.89-23-19,3.8-1.71-.75-3.71-2-6-2.31,7.36-5.67,13.67-7,22,23.52,31.8,87.5,29.92,111-1ZM104.47,626.51c.48-.03.94.12,1.38.34,1.37.31,2.75.57,4.15.74-1.05,2.17-2.45.12-4.15-.74-.46-.11-.92-.22-1.38-.34-.15,0-.31.04-.47.08.78,2.89,4.84,2.5,7,4-10.84-2.87-30.26-11.03-33-22,6.49,8.35,15.84,15.12,26.47,17.92ZM113,633.59c-12.76-2.24-29.12-9.54-36-21,9.59,9.41,21.54,16.46,36,21ZM110,637.59c-13.24-4.1-24.41-10.26-34-18,9.63,3.7,21.88,13.45,34,18ZM111,640.59c-15.61-4.06-30.65-8.69-39-20,10.29,9.38,24.98,14.35,39,20Z"/>
      <path class="cls-1" d="M338,281.59c-4.37-.7-4.45,2.89-8,3,4.53,22.07,8.06,47.44,8,73-.03,12.54,2.22,30.13,7,38-3.95-13.44-5.74-29.61-5-43,2.32,15.34,1.7,33.63,7,46-1.3-18.71-5.57-39.76-4-58,2.49,20.32,1.81,40.14,6,57-1.2-32.02-1.09-68.4-3-102-.25-4.32,3.38-12.79-4-15-4.12,14.65,3.78,42.41,0,57-.75-19.25-1.3-38.7-4-56Z"/>
      <path class="cls-1" d="M360,327.59c.62,12.04-1.28,26.61,1,37,15.56-3.1,25.87-11.47,39-17-5.09,16.64,1.12,39.72-1.62,59.21,2.18-1.15,4.9-2.86,6.61-3.5-3.41-5.61-1.88-16.03-2-24.71-.15-11.04,1.42-22.94-2-31,10.74-5.35,8.69-30.61,4-42-18.13,4.21-30.13,14.54-45,22ZM365,357.59c-3.76-5.24-1.3-16.7-2-25,11.31-8.69,24.46-15.54,39-21,.5,7.25,1.78,15.94,2,26-10.59,9.07-22.84,16.49-39,20Z"/>
      <path class="cls-1" d="M304,407.59c14.44.71,20.94-.03,37,0,.21-4.21-6.47-1.53-8-4,1.5-.17,3.69.36,4-1-7.16-2.18-13.51-5.16-19-9,6.4,1.6,10.34,5.66,17,7-2.01-4.66-7.43-5.91-10-10,1.48.52,2.52,1.48,4,2-.93-6.41-5.47-9.2-8-14,1.43.24,1.69,1.65,3,2-1.01-7-8.68-12.64-9-17,1.44-.53,2.44,3.9,3,1-4.92-9.41-9.33-19.34-17-26-.33,3.66,1.11,5.56,2,8-1.43-.24-1.69-1.65-3-2-2.86,20.19,12.63,22.03,19,33-6.96-4.71-10.99-12.35-19-16-1.85,11.86,9.52,15.8,11,21-1.31-3.69-5.25-4.75-9-6-.03,4.36-.6,9.26,2,11-4.05-.39-1.1,6.23-2,9,3.16,1.84,9.98.02,11,4-2.64-1.36-6.82-1.18-10-2,.2,3.13-.67,7.34,1,9ZM303,347.59c4.39,1.61,3.88,8.12,8,10-3.29,1.26-5.78-6.86-8-10ZM306,388.59c-.32-1.63,9.88,2.51,11,6-4-1.67-7.29-4.04-11-6Z"/>
      <path class="cls-1" d="M365,332.59c.26,9.35.81,15.57,1,23,14.68-2.66,24.93-9.74,35-17,1.64-6.99.86-20.18-3-25-10.58,6.76-23.46,11.21-33,19Z"/>
      <path class="cls-1" d="M119,480.59c.27,2.06,4.43.24,4,3-2.86-.2-5.46-.12-5,3-.17,2.84,6.54-1.21,5,3-2.06.61-6.95-1.61-6,2-.45,2.78,5.45-.78,5,2-3.55.12-6.34.99-7,4,1.58,1.53,5.57-1.42,7,2-3.27.73-8.6-.6-8,4,1.46,2.04,5.35-1.13,6,1-2.14,2.19-8.83-.16-7,6,1.76.58,5.88-1.21,6,1-2.78,1.84-7.78-2.61-7,5,2.07.59,6.57-1.24,7,1-3.82-.89-6.38,1.63-8,0-3.85,25.15-11.74,46.26-21,66,7.82,3.51,12.29,10.38,20,14-5.92-1.08-8.72-5.28-14-7-.14,8.14,8.39,7.61,12,12-5.97.36-8.86-6.76-13-5,11.33,19.29,48.28,15.76,62,1-4.66-4.39-1.01-14.04,4-15-5.4-37.35-16.99-78.28-20-117-2.57-33.05-4.21-65.43-5-99-.28-11.91,3.29-27.51-4-38-2.48,2.19-7.73,1.6-8,6,1.45.55,5.17-1.17,5,1-3.04-.04-6.58-.58-6,3-.16,2.83,6.16-.83,6,2-5.38-.71-7,2.34-8,6,3.04.63,8.61-1.28,10,1-3.39.28-5.74,1.59-10,1v4c2.71.62,7.94-1.27,9,1-2.49.84-5.36,1.31-9,1v5c2.07.59,6.57-1.24,7,1-4.4-.4-8.27-.27-7,5,3.04.63,8.61-1.28,10,1-4-.33-5.55,1.78-10,1v4c1,2.25,5.45-2.16,7,1-3.76.24-8.09-.09-7,5,2.39.61,7.26-1.25,8,1-2.88.12-6.55-.55-8,1v5c3.54.88,5.15-2.57,6,1h-6v5c2.72,1.69,4.68-1.59,6,2-2.47-.13-4.82-.15-6,1-1.1,4.77,5.96,1.38,6,5-3.24-.57-5.03.3-6,2-1.19,4.19,4.21,1.79,5,4-2.32.34-4.69.65-4,4-.72,2.72,4.72-.72,4,2-1.22,1.78-5.8.2-4,5,2.39.61,7.26-1.25,8,1-4.2-.21-8.36-.36-9,3,.84,2.5,7.81-1.15,7,3-3.25,0-5.39-2.1-6,2-.16,2.83,6.16-.83,6,2-3.78,1.29-5.38-1.45-6,3-.16,2.83,6.16-.83,6,2-.02,2.98-7.41-1.41-6,3,.27,3.51,4.43-1.81,4,1-.41,2.26-5.86-.53-4,4-.16,2.83,6.16-.83,6,2-1.67,1.33-6.36-.36-6,3-.16,2.83,6.16-.83,6,2-.93,2.41-7.27-.61-6,4-.45,2.78,5.45-.78,5,2-1.16.84-2.68,1.32-5,1-1.6,3.94,4.32.35,4,3-.74,1.59-4.9-.23-4,3,1.5.17,3.69-.36,4,1-3.14-.47-4.09,1.25-5,3,1.57.1,3.47-.13,3,2-2.62-.28-4.3.37-4,3-.31,2.31,2.89,1.11,3,3-2.6-.6-3.6.4-3,3,.1,1.93,3.9-1.73,4,2-2.86-.2-5.46-.12-5,3ZM112,557.59c-1.3,2.2-5.41-1.18-8-1,1.44-4.35,4.54,1.37,8,1ZM105,548.59c3.6-.27,4.82,1.85,8,2-1.53,2.1-8.21.94-8-2ZM113,562.59c-1.24,1.17-8.7.09-9-3,3.92.08,6.24,1.76,9,3ZM108,576.59c-3.05,2.66-6.87-2.42-10-3,2.81-2.41,6.78,2.51,10,3ZM95,580.59c5.08,2.25,8.57,6.1,14,8-3.94.58-11.99-3.32-14-8ZM97,576.59c5.43,1.23,8.32,5.02,14,6-3.94,1.24-11.8-2.18-14-6ZM100,569.59c3.72-2.67,7.85,2.78,12,3-3.02,1.98-9.42-1.22-12-3ZM102,563.59c4.52.81,8.37,2.3,12,4-2.3.92-10.23-1.07-12-4ZM107,542.59c3.1-.1,4.78,1.22,7,2-1.19,2.08-7.31.73-7-2ZM117,538.59c-8.78,3.42-10.75-3.29,0,0h0ZM110,531.59c3.16-.49,3.53,1.8,7,1-.24,1.45-8.23,2.32-7-1ZM110,529.59c.53-3.42,4.82-1.53,7-1-.43,2.24-4.93.41-7,1ZM111,525.59c-.61-3.94,5.49-1.18,8-2-1.02,2.31-4.6,2.07-8,2Z"/>
      <path class="cls-1" d="M57,604.59c7.4-2.26,14.87-4.47,19-10-5.02.66-16.61,3.38-19,10Z"/>
      <path class="cls-1" d="M396,352.59c-.22-.78-.84-1.16-2-1-.09,1.58-2.55.78-2,3,1.09,12.88-2.36,43.29,2,53,8.2-7.25,2.1-21.44,2-34-.06-7.33,1.46-14.23,0-21Z"/>
      <path class="cls-1" d="M341,80.59c-6.56,29.77-11.34,61.33-18,91,2.43,1.9,8.37.3,11,2,1.22-27.83,6.45-64.38,7-93Z"/>
      <path class="cls-1" d="M178,306.59h-2c-2.04.29-1.96,2.71-4,3,1.17,33.9-.34,77.25,2,102,3.05-36.37,2.15-64.76,4-105Z"/>
      <path class="cls-1" d="M219,233.59c1.1-7.9,3.66-14.34,3-24-3.54-.54-2.46,3.54-6,3-7.99,28.01-17.39,59.94-32,78,10.61-11.05,21.13-22.2,28-37-6.2,18.8-20.07,29.93-32,43,27.47-17.86,44.37-46.3,47-89-6.64,4.7-2.69,19.98-8,26ZM213,251.59c-.48-3.19,4.53-14.77,6-16-1.67,5.66-3.7,10.97-6,16Z"/>
      <path class="cls-1" d="M180,315.59c2.65-3.35,3.95-8.05,5-13-2.98.02-3.4,2.6-6,3,1.33,3.03.43,8.9,1,10Z"/>
      <path class="cls-1" d="M347,404.59c-15.2-21.13-8.17-69.83-16-95,2.23,3.1.9,9.77,4,12-2.54-11.79-3.48-25.18-8-35-9.7,5.44,5.71,13.92,2,22-3.34-11-8.22-20.44-17-26-.72,3.61-5.81,2.86-6,7,18.74,17.93,24.99,53.68,25,87-4.45-8.01-2.58-16.25-3-26-1.08-25.21-10-45.14-23-60-7.7,4.64-9.48,15.19-12,25,18.58,7.43,28.98,28.35,33,47-7.34-19-14.08-38.59-34-45,.67,5.01-.93,7.74-1,12,32.62,10.38,26.42,64.91,56,75Z"/>
      <path class="cls-1" d="M192,603.59c-5.44-3.22-11.99-5.35-18-8,1.84,5.64,14.82,10.33,18,8Z"/>
      <path class="cls-1" d="M362,418.59c-2.28,5.07-13.71,6.27-20,4,6.27.6,10.58-.76,16-1-.19-114.61-1.79-257.56-3-371-36.79-3.87-76.57,2.56-109-1,38.39.3,79.12-3.84,110-1-.06,19.06.31,37.69,2,55,0-1,.81-1.19,1-2,5.46-17.58-2.05-37.23,2-57-41.4-3.76-95.87,1.28-135,3-30.83,1.36-76.68,12.22-71-21-9.05,11.36-7,36.91-7,57,0,9.91-2.06,21.29,4,26,3.31-14.03-.33-38.3,1-57,16.49,2.9,39.81-1.85,59,0-15.53,1.31-39.37,2.64-57,2,1.51,13.73-2,34.36,0,47,.38,2.42-.45,9.21,5,8,3.25-7.23-.77-34.56,0-47,12.57.65,37.07,1.8,50,2-.65,14.62,1.94,30.09,1,43-.45,6.18-5.46,14.54,1,16,5.63-7.82,4.8-22.67,5-36,.15-9.64-4.03-23.85,4-24-3.99,8.01-2.21,19.81-2,28,.33,12.63-3.86,24.71-2,34,8.27-8.78,3.55-42.11,7-56,16.67,1.49,39.19-5.82,55-2-6.47,62.21.76,130.42,61,125,1.98,21.71,1.95,41.99,2,67-18.06,7.12-33.1,10.63-44,24-21.48,26.34-12.6,75.6-13,119-19.55-.63-34.41,3.72-54,1-.34-43.2,3.43-106.73-31-113,3.51,6.73,11.79,10.11,16,18,13.53,25.36,6.84,69.34,11,101,20,1.4,43.36-.87,64-2-.29-37.75-10.23-82.85,6-112,9.36-16.82,28.97-24.26,50-30-1-21.2-3.66-52.29-1-77-67.81,5.48-65.34-68.45-61-126-8.01-.66-18.66,1.32-25-1,5.41-1.3,21.62-1.13,28-1-3.45,19.61-5.92,53.18,1,71,7.01-4.05,1.64-12.68,1-19-1.73-17.02,1.74-36.72,5-52,12.86.79,36.8-1.83,51-2-1.38,38.77,1.14,77,0,116-10.21,1.92-23.16.93-28-3-1.1,3.57-4.25,5.08-5,9,8.67,4.99,23.17,4.16,35,6-3.04,25.17.84,57.06,0,80-12.99,3.01-25.09,6.91-33,15,3.62,1.38,3.68,6.32,7,8,5.68-6.32,13.11-10.89,25-11,1.21,43.16,4.45,92.55,3,132-15.45-4.41-35.63,1.26-49-2,.88-11.11-1.21-25.65-2-40-.89-16.03,4.93-35.32-8-37-2.19,27.95,1.18,55.45,1,78-20.75-.63-46.16,5.62-67,1-1.15-15.73-.66-43.02-2-62-.31-4.42.46-11.99-4-14-6.4,2.78-2.58,11-2,17,1.9,19.71.66,44.2,0,60-15.81,3.53-33.37,5.3-48,10,3.76-31.22,1.41-83.26,1-111-4.4,1.55-5.16,1.96-10,4,.04,40.32,2.72,70.15,4,114,54.44.44,106.9-6.44,159-5-50.12,2.04-108.83,5.63-160,7-2.18-16.04-.24-30.23-3-45-.16,14.15-3.68,36.88,1,50,11.07,1.96,25.63.83,39,0,.53,21.8.71,43.96,2,65,10.81-2.19,18.11-7.89,28-11,11.44,1.89,21.87,4.8,31,9,2.36-10.75-1.36-23.1,1-37v8c13.56-5.68,26.72,5.55,41,2-.43-14.26,1.32-35.45-2-41,26.02-.09,41.96-2.02,65-2,.89-5.55-1.59-7.75-4-10ZM213,52.59c2.59-2.43,6.42-1.32,9-1-1.06,2.27-6.29.38-9,1ZM260,434.59c1.35,7.65.54,17.46,2,25-2.64-2.71-2.14-17.18-3-25-20.76-.1-32.44,2.81-54,2-6.74.33-2.23-1.78,2-1,27.81-.35,68.83-4.85,92-4-13.85,2.15-28.4,2.35-39,3ZM325,423.59c3.36-2.31,10.98-.35,16-1-3.36,2.31-10.98.35-16,1Z"/>
      <path class="cls-1" d="M191,233.59c-4.96,27.99-23.42,49.58-35,69,24.05-21.62,38.89-52.44,47-90-1.5-.17-3.69.36-4-1,3.76-4.21,8.72.92,12-1-6.65-7.32-21.06,0-18,8,.79-1.94,3.63-6.95,5-5-6.99,4.99-5.67,12.51-7,20Z"/>
      <path class="cls-1" d="M200,255.59c-8.49,21.85-25.14,40.86-41,52,19.59-10.09,37.58-32.4,41-52Z"/>
      <path class="cls-1" d="M187,212.59c-23.24-5.47-20.83,23.1-26,39,1.35,5.7,2.52-5.19,3-7,3.49-13.14,5.77-29.61,18-31,3.32,2.38,4.54,5.47,5,9,4.05,31.35-33.6,69.96-42,88,20.56-24.69,49.37-55.15,42-98Z"/>
      <path class="cls-1" d="M213,215.59c3.6-6.52,11.09-6.2,14-13-19.74,2.6-19.4,30.6-23,46,4.82-10.47,3.85-23.66,9-33Z"/>
      <path class="cls-2" d="M213,52.59c2.71-.62,7.94,1.27,9-1-2.58-.32-6.41-1.43-9,1Z"/>
      <path class="cls-2" d="M208,70.59c-2-.73-8.11-2.47-9-1,2,.73,8.11,2.47,9,1Z"/>
      <path class="cls-2" d="M203,133.59c-7.47-1.32-18.12-4.37-24-4,2.91,1.78,18.02,5.29,24,4Z"/>
      <path class="cls-2" d="M198,137.59c-6.47-.86-12.88-1.78-19-3,3.2,3.48,14.53,4.12,19,3Z"/>
      <path class="cls-2" d="M201,144.59c-6.38-1.95-14.53-2.14-21-4,4.03,3.65,15.97,4.68,21,4Z"/>
      <path class="cls-2" d="M181,147.59c6.83.19,15.59,3.72,20,3-5.07-1.95-13.96-5.36-20-3Z"/>
      <path class="cls-2" d="M184,152.59c5.19-.49,9.92,4.71,14,2-3.51-1.19-9.65-4.97-14-2Z"/>
      <path class="cls-2" d="M66,159.59c5.81-1.19,10.98-3.02,15-6-5.78,1.22-11.45,2.55-15,6Z"/>
      <path class="cls-2" d="M183,154.59c-.04,2.77,7.12,3.45,8,2-2.44-.89-4.34-2.33-8-2Z"/>
      <path class="cls-2" d="M220,184.59c.61-5.18.3-22.23,0-24-.19,1.48-2.42.92-4,1,3.98,5.02-.59,18.59,4,23Z"/>
      <path class="cls-2" d="M43,164.59c-5.4,3.59,4.1,10.83,0,16-1.89-2.44-2.15-6.52-2-11-5.16,3.71-2.54,15.41,1,19,2.85-6.03,6.26-18.32,1-24Z"/>
      <path class="cls-2" d="M144,173.59c19.52-2.7,36.19-2.31,51-9-15.71,4.92-37.51,4.59-51,9Z"/>
      <path class="cls-2" d="M54,191.59c-1.57-8.92,3.63-16.35,3-21-4.29,3.38-2.72,12.61-5,18-1.08-6.92,2.67-18.67-3-21,1.25,9.75-5.82,22.19,5,24Z"/>
      <path class="cls-2" d="M201,167.59c-3.41,6.63-1.33,16.51,1,23,5.27-2.4,6.9-22.26-1-23ZM201,170.59c3.15,1.85,2.93,7.07,3,12-2.28-2.72-3.66-6.34-3-12Z"/>
      <path class="cls-2" d="M189,169.59c-1.46,5.92-6.03,18.12-1,24,3.12-4.78-2.38-12.23,1-17,1.98,4.36-.12,12.79,3,16,3.8-5.4-3.08-15.31,2-19,.54,6.13.41,12.92,2,18,3.83-4.8-.03-13.86-1-22-4.82,1.84-1.95,3.17-6,0Z"/>
      <path class="cls-2" d="M61,193.59c2.58-.75-.73-7.4,3-7,3.55,1.12-.21,9.54,5,9-1.56-8.58,3.16-19.78-2-23-2.66,2.34.74,10.74-2,13-1.57-2.43-3.73-4.27-3-9-4.88.04-4.13,15.52-1,17Z"/>
      <path class="cls-2" d="M167,196.59c5.58-2.86,1.64-17.84-1-22-1.95,7.88-.03,13.82,1,22Z"/>
      <path class="cls-2" d="M140,199.59c4.67-4.29,4.39-20.81-1-24-5.15,5.09,6.24,11.07,1,19-2.04-3.96-2.58-9.42-4-14-2.41,6.74-.43,15.96,4,19Z"/>
      <path class="cls-2" d="M147,175.59c-.68,5.23-3.77,20.95,2,23,2.56-2.44-.98-10.98,3-12-3.29.02-5.09-7.73-2-8,.23,1.77-1.01,5.01,2,4,2.81-3.54-.43-7.71-5-7Z"/>
      <path class="cls-2" d="M122,320.59c2.71-.62,7.94,1.27,9-1-1.59-2.15-10.54.2-9,1Z"/>
      <path class="cls-2" d="M325,423.59c5.02-.65,12.64,1.31,16-1-5.02.65-12.64-1.31-16,1Z"/>
      <path class="cls-2" d="M111,525.59c3.4.07,6.98.31,8-2-2.51.82-8.61-1.94-8,2Z"/>
      <path class="cls-2" d="M110,529.59c2.07-.59,6.57,1.24,7-1-2.18-.53-6.47-2.42-7,1Z"/>
      <path class="cls-2" d="M110,531.59c-1.23,3.32,6.76,2.45,7,1-3.47.8-3.84-1.49-7-1Z"/>
      <path class="cls-2" d="M117,538.59c-10.75-3.29-8.78,3.42,0,0h0Z"/>
      <path class="cls-2" d="M114,544.59c-2.22-.78-3.9-2.1-7-2-.31,2.73,5.81,4.08,7,2Z"/>
      <path class="cls-2" d="M113,550.59c-3.18-.15-4.4-2.27-8-2-.21,2.94,6.47,4.1,8,2Z"/>
      <path class="cls-2" d="M113,562.59c-2.76-1.24-5.08-2.92-9-3,.3,3.09,7.76,4.17,9,3Z"/>
      <path class="cls-2" d="M114,567.59c-3.63-1.7-7.48-3.19-12-4,1.77,2.93,9.7,4.92,12,4Z"/>
      <path class="cls-2" d="M100,569.59c2.58,1.78,8.98,4.98,12,3-4.15-.22-8.28-5.67-12-3Z"/>
      <path class="cls-2" d="M108,576.59c-3.22-.49-7.19-5.41-10-3,3.13.58,6.95,5.66,10,3Z"/>
      <path class="cls-2" d="M111,582.59c-5.68-.98-8.57-4.77-14-6,2.2,3.82,10.06,7.24,14,6Z"/>
      <path class="cls-2" d="M109,588.59c-5.43-1.9-8.92-5.75-14-8,2.01,4.68,10.06,8.58,14,8Z"/>
      <path class="cls-2" d="M398.58,237.38c.1,8.43.25,16.85.47,25.25.02-8.56-.17-16.95-.47-25.25Z"/>
      <path class="cls-2" d="M414,307.59c-1.17-3.84-5.2-6.35-6-10-3.84-17.59.89-38.48,0-58-1.68-36.93-.82-75.56-1-112,9.35-10.54,9.37-41.69,0-52-.66-24.68,1.32-51.99-1-75-47.46-.49-99.74-1.42-153,1-33.16,1.51-66.75-.62-88,8-31.87,12.93-21.59,61.46-24,98-38.9-1.7-90.36,7.55-108,27-8.42,9.28-10.63,40.28-10,58,2.09,58.74,25.42,96.59,63,117,5.58,3.03,11.73,4.67,16,9-14.6,39.54.33,92.91-4,135-1.48,14.35-8.26,32.51-15,47-15.02,32.28-34.94,55.07-62,72-5.51,16.16-15.59,27.75-21,44,6.65,6.35,15.2,10.8,29,10,4.01,6.66,5.49,15.85,9,23,9.68-3.32,17.31-8.69,27-12,17.05,13.92,38.03,27.34,68,24,21.16-2.36,40.06-16.3,54-27,8.56,3.44,14.77,9.23,25,11,1.06-9.28,2.09-18.58,4-27,13.97,1.61,32.91-2.46,34-13,1.12-10.75-17.97-27.59-17-38-41.92-24.41-64.6-68.07-73-126,10.3,3.46,23.17.38,34,2,1.87,23.56.16,45.7,3,67,13-1.35,22.25-12.59,35-13,12.01-.39,21.72,9.28,35,10,2-9.33-.32-22.98,2-32,12.6-.86,26.62,5.33,40,7,1.4-15.89-.94-28.92,1-45,18.63-1.12,35.13-2.27,58-4,8.39-7.68,17.58-14.57,28.47-19.74.01.01.02.03.04.05,2.99-.17,9.76-5.01,10.49-8.32,4.63-13.7.69-35.97,2-52.99,6.48-11.17,9.58-29.91,5-45ZM405,119.59c-14.57,8.1-26.58,18.75-45,23-1.11-11.74-2.07-28.35-1-39,13.05-8.62,29.12-14.22,44-21,6.84,6.81,4,27.06,2,37ZM391,298.59c-.26-4.39-1.08-10.24-1-15,.71-43.92.19-102.7,0-153,2.04-.29,1.96-2.71,4-3,.85-.18.94.39,1,1-1.18,39.28,2.28,73.28,3.58,108.79-.43-36.45-.02-73.18-1.58-109.79.35-1.31,1.76-1.57,2-3,.85-.18.94.39,1,1,1.78,59.93,3.47,124.23,1,179-.98-13.92-1.58-27.91-1.95-41.96-.02,10.04-.32,20.31-1.05,30.96-.31,4.59.39,11.39-4,14-4.5.07-2.84-6.25-3-9ZM368,205.59c3.36,39.83-2.35,83.07-2,117-2.18-64.72-3.09-123.9-1-177,1.06-2.65.08,6,0,10-.35,17.24,1.75,35.25,3,50ZM369,203.59c-.86-19.46-4.62-41.82-1-59-.28-1.62.95-1.72,1-3,.89.44,1.79.88,2,2,2,55.5.46,100.76,1,155,.09,9.11,3.59,13.92-2,22-2.91-39.13.72-77.97-1-117ZM373,139.59c2.98-.02,3.4-2.6,6-3,.85-.18.94.39,1,1-.66,53.02.62,114.11,1,163,.05,6.33,2.94,14.55-5,17-3.86-57.18-1.76-119.68-3-178ZM381,148.59c.15-5.56-1.01-13.84,5-16,5.7,45.57.77,105.02,3,158,.29,6.89,2.52,12.42,0,19-.73.93-1.82,1.52-3,2h-1c-2.85-54.38-5.44-110.82-4-163ZM360,143.59c4.39,4.12,2.06,11.91,2,18-.53,53.24.89,112.86,1,161,.28,1.62-.95,1.72-1,3h-3c.99-62.95-2.64-119.41,1-182ZM179,31.59c62.34.07,115.2-2.77,191-3,2.46-1.55,2.94,3.4,1,3,1.66,2.56,2.69-3.9,6-3-.76,21.42,1.24,40.09,1,61,3.12-10.8,1.5-23.79,1-37-.35-9.31-5.11-25.28,5-31,4.69,14.92.06,47.07,3,67-6.31.69-9.38,4.62-15,6-1.46-23.59-1.38-38.31-2-61-71.06-2.86-131.55,4.31-208,1,3.9-4.49,11.06-3.01,17-3ZM164,30.59c6.21-6.9,17.41-4,26-4,70.91,0,115.24-6.4,188-4,1.31-1.2,1.57-.39,3,0-.35,1.31-1.76,1.57-2,3-66.1,3.94-148.97,3.16-215,5ZM364,33.59h2c.04,1.71-.74,2.59-2,3-49.49,2.93-100.65,1.26-154,5-15.92,1.12-32.77,4.12-46-3,65-2.86,135.26-2.78,200-5ZM369,96.59c-4.56-17.69-5.74-44.39-3-61,4.86,13.25,3.46,46.37,3,61ZM364,98.59c-2-14.66-2.11-31.23-2-48,1.09,13.31,4.54,31.95,2,48ZM395,71.59c-.38,5.07,2.34,13.77-5,15-3.78-15.03-2.63-41.53-3-66,1.93-2.2,5.47-6.55,8-5-.87,15.54,1.28,38.93,0,56ZM169,14.59c73.92-6.84,150.53-7.97,231-7-1.07,26.89,1.68,55.36-1,76-3.67-21.5-1.37-48.1-3-72-32.91,2.55-66.12.66-100,3,31.09.42,67.01-.11,96-1,.18.85-.39.94-1,1-1.18,3.16-5.19,3.48-7,6-71.27.66-147.62,2.73-218,5,21.02-12.76,58.13-7.16,90-9,12.85-.74,25.83-.75,39-1-21.72-2.09-47.38-1.75-77,0-18.45,1.09-63.28-2.4-57,21,2.91,10.87,28.2,7.84,44,7,39.15-2.08,89.76-5,134-5,7.59,0,17.33-2.58,24,3-41.53.86-87.33.48-135,4-10.69.79-22,1.48-33,2-11.47.54-24.58,1.94-35-4-8.03-11.36-2.16-25.81,9-29ZM34,161.59c4.3-.96,1.75,4.91,5,5,2.16-7.16-8.91-5.3-4-12,10.13,9.87,27.05,12.95,43,17-.12,2.21-4.24.42-6,1v6c3.01,1.01,1.77-2.23,2-4,3.61,4.51-.86,16.47,2,22,5.92-7.54,14.12,3.3,20-1v3c3.84-1.78,7.82-3.02,10,1,3.16-3.25-1.01-11.78,1-14,3.96,3.71,5.14,10.2,8,15,2.47-5.77,1.32-16.54,0-24-6.68.19-.9,8.92-2,13-5.29-1.73-5.26-10.6-6-14-3.14-.47-2.64,2.69-5,3,3.21,6.43-.04,11.87,2,16h-5c2.4-4.65.64-14.72-1-19-5.32,2.42-1.02,8.11-2,14-6.16-1.44-.45-10.01-4-15-4.56-1.22-3.92,2.74-8,2,.6-2.6-.4-3.6-3-3,5.44-5.45,10.32,2.54,12-2,14.36,3.86,30.08-.9,50,2-13-4.98-35.14-.36-51-3,.53-.8,1.04-1.62,1-3-5.78.45-10.25-.42-15-1,1.02,2.31,4.6,2.07,8,2-15.98,1.61-41.27-4.71-50-17,1.98-26.84,45.5-34.56,73-37,24.75-2.2,62.78,2.25,86,8,8.58,7.09,22.96,8.37,28,19,1.4,1.2.09.39-1,0-23.46-20.45-68.67-27.29-116-24-23.72,1.65-68.02,14.07-67,29,.62,9.07,22.46,15.7,30,17,49.68,8.59,112.93,3.48,151-14,2.02-1.32,3.38-3.28,4-6,5,9.23-8.3,15.06-17,17,7.87,2.19,14.63-5.36,20-9-.16,4.25,1.94,5.03-2,6,1.8.86,3.14,2.2,4,4,.12,6.12-6.98,5.02-5,13,.45,4.57,4.3-1.52,5,1-2.77,14.09-26.1,18.74-39,21-27.55,4.83-57.59,5.44-89,7,.23-1.44,2.98-.35,3-2-9.74-2.76-19.4.6-27-4-.16,1.16.22,1.78,1,2-16.07-.27-34.78-6.55-46-15,.09-4.62-.52-14.01,4-11-1.83-2.58-4.99-7.77-2-12ZM80,175.59c1.06-.91,6,4.37,10,1-1.87,1.78.81,2.54,0,6-4.12.12-6.26-1.74-11-1-1.82-3.6,2.87-5.64,1-6ZM90,191.59c-.51,3.34-12.45,2.15-11-3,4.35.32,7.27,2.06,11,3ZM79,186.59v-4c3.25-.58,4.65.68,7,1-.88,2.47-3.88,5.83-7,3ZM87,184.59h3v4c-2.63.3-3.28-1.38-3-4ZM93,190.59h3v4c-3.34,1-3.28-1.39-3-4ZM177,64.59c7.35.64,21.85,1.58,32,2-1.53,3.62.83,8.17,0,14-12.86-2.14-21.34-8.66-33-12,.12-2.21,4.24-.42,6-1,.17-2.84-6.54,1.21-5-3ZM209,83.59v8c-13.62-5.71-24.12-14.55-36-22,10.69,1.98,24.65,9.35,36,14ZM206,121.59c-6.5-4.16-10.01-11.33-12-20,2.96,2.37,5.04,5.63,8,8-1.69-4.99-10.56-11.44-13-19,6.95.73,12.53,11.46,20,15v8c-3.95,1.28-2.42-2.91-5-3,.87,4.25,6.45,6.94,2,11ZM184,79.59c9.46,3.54,15.83,10.17,25,14v10c-9.35-6.98-18.79-13.88-25-24ZM200,118.59c-20.65.65-13.1-35.57-28-44,4.27,10.73,6.15,23.85,6,39-2.36.02-2.94-1.72-6-1-2.71-14.29,1.91-35.91-7-44,21.71,2.62,23.62,33.71,35,50ZM188,114.59c-1.82,2.71-6.03-.55-8-1-.47-10.2-.85-20.49-3-29,6.7,6.96,4.5,22.83,11,30ZM165,85.59c2.98,6.36,5.26,18.73,4,26-5.52-2.16-1.83-17.68-4-26ZM169,90.59c-2.23-6.44-3.76-13.58-5-21,3.74,4.92,5.2,12.13,5,21ZM165,110.59c-4.02-4.24-2.72-20.86-3-32,2.5,5.17,2.37,21.62,3,32ZM224,71.59c17.94-.08,35.39-4.29,54-2-8.65,62.96,3.38,129.6,61,126,.66,20.67,2.45,40.22,2,62-22.66,9.53-43.61,16.77-53,40-11.29,27.93-4.22,67.12-4,103-17.7.61-33.02,1.5-51,3,.04-45.28,3.16-99.85-29-116,18-16.22,29.1-44.18,32-80,2.71-33.49,3.42-66.49-16-80,4.12-17.52,5.89-37.25,4-56ZM196,307.59c-13.23,23.98-8.81,51.15-12,82,11.78-22.56,12.61-56.06,35-68,0,4,2,6,2,10-30.8,15.54-15.69,76.97-50,89,17.44-27.49-7.5-112.95,28-127,5.22,4.84-1.14,10.62-3,14ZM203,298.59c7.83,4.5,13.52,11.15,15,22-16.93,11.4-24.13,32.54-29,56-5.09-28.31-.29-60.81,14-78ZM216,388.59c-2.49,1.85-5.64,3.02-7,6,3.33-.34,3.25-4.08,7-4,1.04,9.55-2.91,12.17,0,19-8.48,3.85-20.12,4.55-31,6,7.61-5.39,19.01-6.99,28-11-8.09-.08-19.08,5.58-27,9,2.87-6.47,15.65-11.67,22-18-5.42.92-12.2,9.13-19,12,4.82-13.85,17.99-19.34,25-31,4.27.4.95,8.38,2,12ZM195,395.59c.46-12.88,14.31-21.02,19-33,7.58,16.97-13.57,22.39-19,33ZM199,382.59c2.97-13.75,3.84-32.62,15-42,1.62,8.39-7.4,12.72-9,21,3.43-4.24,6.03-9.3,9-14,4.86,17.53-9.63,24.37-15,35ZM158,323.59c-1.97-1.38-3.22-6.49-2-8,3.94-.61,1.18,5.49,2,8ZM152,309.59c-.85.18-.94-.39-1-1,26.91-23.09,45.83-54.17,53-97,10.74,2.72,1.58,18.9-1,28-8.88,31.38-26.31,56.12-51,70ZM192,597.59c-16.24-42.03-35.35-85.95-42-137-2.55-19.56-2.03-42.57-3-64-.88-19.41,2.51-40.02-1-60-1.34-7.64-8.08-16.93-6-23,12.15-4.89,8.59,13.55,8,22-1.26,18.05,1.85,37.36,1,56-.96,21.04-.61,41.31,1,58,4.96,51.47,31.72,90.1,47,132-1.2,5.8-5.34,8.66-5,16ZM194,602.59c-1.48-3.18.27-11.7,3-14,1.56-.4-1.93,10.46-3,14ZM62,595.59c16.26-39.93,44.24-82.6,49-136,4.37-48.95-8.39-103.05,8-144,5.91,1.35,11.25.29,17-1,15.52,25.48,8.67,83.59,10,121,.58,2.04-.68,7.88-1,3v-7c.34-21.87-1-31.53-1-57,0-18.23,1.35-51.44-13-53-19.3-2.1-17.4,44.92-17,65,1.25,63.41-4.29,123.43-24,174-7.09,18.2-9.44,33.85-28,37-1.45-.44.1-.88,0-2ZM110,396.59c-3.91-13.16-1.67-34.12-1-49,1.86,10.1.57,31.99,1,49ZM107,432.59c-2.51-33.89-6.8-72.94-2-107,1.62-.28,1.72.95,3,1-2.38,34.81-.58,72.67-1,106ZM65,222.59c-2.47,27.2,9.96,48,22,64-15.32-14.34-28.18-39.82-31-70,4.84.16,6.58,3.42,9,6ZM48,214.59c4.42-3.78,13.96-4.24,15,3-3.75-5.74-13.39-1.55-15-3ZM65,233.59c2.92.99,3.22,5.49,4,8,8.36,26.8,24.92,51.63,45,68-25.21-12.46-41.14-42.86-49-76ZM111,239.59c.49,12.46.79,25.33,4,39-5.18,2.12-6.48-4.77-4-7-3.84-5.03-5.42-10.05-3-16-2.77-1.23-4.83-3.17-4-8h6c-.63-2.37-6.16.16-7-2,.75-6.09-1.6-9.07-1-15,3.38,1.16,4.27-.71,6,1,2.92-1.72-3.42-2.48-6-2,.58-3.25-.68-4.65-1-7h5c-.26-2.08-4.39-.27-5-2,8.09-3.1,13.45,9.46,10,18h-6c.12,2.21,4.24.42,6,1ZM181,215.59c3.65,2.81,4.72,6.36,4,14-2.97,31.51-30.26,62.88-45,83,1.92-7.03,9.86-11.91,9-18-1.65-2.85-2.17,3.73-4,4-.69.66,3.4-10.37,6-13,2.02-1.52-4.49,6.48-1,10,1.89-.11.69-3.31,3-3-.44-1.48-1.28.39-3,0,1.52-5.5,6.91-12.41,5-18,10.81-12.59,8.76-46.52,23-59-2.42,26.92-15.7,51.63-26,74,12.29-18.32,22.56-47.21,29-74ZM138,306.59c8.34-24.32,16.64-51.81,18-87,5.42-.42,6.02,3.98,9,6-5.73,30.27-12.78,59.22-27,81ZM141,294.59c1.64-18,6.89-47.22,2-69,2.87-2.13,7.2-7,11-5,0,23.99-6.13,51.13-13,74ZM142,223.59c1.83-10.35,25.82-10.33,24,0-5.22-9.67-16.4-4.92-24,0ZM132,307.59c.99-6.19,2.16-14.16,4-20,6.3-20.03,10.67-73.45-9-72-18.71,1.38-9.26,45.57-9,63-5.78-18.13-14.59-73.74,19-62,11.03,23.97,6.68,71.27-5,91ZM129,301.59c-2.11-31.02-.97-58.33-1-84,10.74,3.29,12.29,19.51,12,32-.26,11.34-3.21,25.09-5,35-1.15,6.36-1.09,13.72-6,17ZM87,230.59c-.29,2.71,1.41,7.41-3,6,.91,1.76,3.5,1.83,5,3-.61,2.06,1.61,6.95-2,6,1.79,1.61,7.9,8.21,3,10,.16,1.17,1.82.84,3,1-1.3,3.6,3.32,6.92-2,6,.46,2.54,4.32,1.68,5,4,.34,2.01-.2,3.13-2,3,6.66,6.34,8.51,17.49,13,26-15.62-20.72-28.48-44.19-32-77,7.04-.71,8.31,4.36,10,9-1.58.08-3.81-.48-4,1,.42,2.25,5.31.03,6,2ZM100,230.59c-.02,2.36,1.72,2.94,1,6-1.97,1.98-5.71.64-8,0-.55-1.45,1.17-5.17-1-5,.74-2.26,5.61-.39,8-1ZM92,228.59c-.1-4.43,1.8-6.87,7-6,.32,2.35,1.58,3.75,1,7-2.88-.12-6.55.55-8-1ZM105,263.59c-5.42,1.09-5.51-3.16-6-7h5c-.49,3.16,1.8,3.53,1,7ZM107,270.59c-5.17,1.17-5.21-2.79-6-6h5c-.73,3.06,1.73,2.94,1,6ZM95,256.59c3.37-1.27,4.13,5.07,2,6-3.61.95-1.39-3.94-2-6ZM93,247.59c2.64-.23,3.71,6.18,2,7-2.84.42-3.1-6.79-2-7ZM100,270.59c-2.42-.58-2.22-3.78-3-6,3.28-.16,4.8,4.08,3,6ZM104,278.59c-4.28.28-4.42-3.58-5-7,2.92,1.08,5.24,2.76,5,7ZM107,285.59c-3.69.36-4.18-2.49-5-5,3.94-.61,4.43,2.24,5,5ZM110,293.59c-4.3.96-1.75-4.91-5-5,2.7-3.28,4.19,3.07,5,5ZM113,301.59c-2.42-1.25-3.23-4.1-4-7,2.39,1.27,4.07,3.26,4,7ZM110,287.59c4.56-.9,4.04,3.29,5,6-4.78,1.11-4.61-2.73-5-6ZM112,281.59c2.5-3.39,4.24,2.35,4,5-3.7.7-1.72-4.28-4-5ZM113,284.59c1.03,3.36-3.11,1.56-5,2,.8-3.47-1.49-3.84-1-7,4.06-.4,3.08,4.26,6,5ZM104,271.59c4.02-.02,4.78,3.22,5,7-4.72.72-4.39-3.61-5-7ZM96,247.59h6c-.58,3.25.68,4.65,1,7-6.1,1.44-5.94-3.39-7-7ZM95,245.59v-7h5c1.97.69-.25,5.58,2,6-1.71,3-3.64,1.11-7,1ZM93,245.59c-3.41.08-2.96-3.71-3-7,3.99-.65,2.86,3.8,3,7ZM91,237.59c-2.73-.94-2.29-5.04-3-8,3.85-.25,4.23,6.27,3,8ZM85,221.59c4.26-.59,3.11,4.22,5,6-2.61,2.86-4.69-3.26-5-6ZM114,306.59c-15.92-11.49-42.61-45.37-46-73-.64-5.23.57-10.41,4-14,7.39,35.78,21.53,63.96,42,87ZM113,295.59h3c1.15,1.18,1.13,3.53,1,6-2.02-1.32-3.38-3.28-4-6ZM117,279.59c3.47-.47.57,5.43,3,6-2.11,3-3.63-2.96-3-6ZM119,287.59c1.62,1.71,3.03,3.64,3,7-3.82.47-3.89-5.81-3-7ZM124,299.59c-2.05,3.56-2.77-2.45-4-3,2.05-3.56,2.77,2.45,4,3ZM117,237.59c.38-7.5.74-17.68,9-19-.63,25.88.93,55.9,0,76-6.98-9.2-9.94-38.54-9-57ZM127,300.59c-1.98-.69-2.67-2.67-3-5,3.12-.46,3.2,2.14,3,5ZM94,221.59c-3.08-3.8,4.76-5.2,9-5-3.03,1.64-7.12,2.21-9,5ZM90,220.59c-3.81-.19-2.42-5.58-6-6,3.13-3.06,7.74.88,12,0-1.59,2.41-4.69,3.31-6,6ZM86,220.59c-4.24.24-5.08-2.92-8-4-3.66-.33-5.56,1.11-8,2-1.36,2.31-2.87,4.46-3,8-4.6-11.64,16.58-16.61,19-6ZM110,341.59c-.05-13.6-5.09-32.58,7-26,.03,3.36-1.38,5.29-3,7-.14,7.52-3.57,11.76-3,20,.41,3.61-1.83,1.37-1-1ZM161,540.59c2.26,12.14,4.44,26.69,7,39,.88,4.21,3.38,8.72,3,12-2.06,17.56-34.27,28.55-56,25-10.82-1.77-32.26-11.76-34-24-.95-6.68,7.59-23.1,11-32,16.92-44.15,23.79-92.87,27-148,3.24,47.1-7.5,127.49-32,171,1.47,3.86,8.16,2.51,7,9-2.31.31-1.11-2.89-3-3-4.02,3.45,3.86,3.4,3,7-3.1,2.98-2.63-3.25-6-3,5.78,24.4,54.33,23.56,72,7-5.2-5.84-4.29-14,3-17-9.94-51.12-22.39-108.62-25-167-1.11-24.77,4.1-52.38,0-78-.85-5.34-1.96-9.97-8-12-3.05-.05-2.4,3.6-6,3-7.68,16.49-4.53,53.32-5,75-4.81-2.96-3-12.88-3-22,0-17.53-3.21-59.44,14-59,10.96.28,12.07,22.48,13,34,2.29,28.29-1.12,56.31,0,82,1.52,34.94,11.9,68.28,18,101ZM153,489.59c9.59,39.08,24.6,72.73,36,110-5.32-2.68-10.88-5.12-16-8-7.63-33.04-14.37-66.97-20-102ZM162,609.59c-22.19,19.05-73.58,18.7-84-14,8.59,8.61,18.73,21.5,35,24,21.15,3.25,40.1-4.9,52-15,3.15-.71-1.96,4.11-3,5ZM117,405.59c2.93,1.37,3.33,4.12,1,6-2.21-.12-.42-4.24-1-6ZM120,475.59c-.6-2.6.4-3.6,3-3-.11-1.89-3.31-.69-3-3-.3-2.63,1.38-3.28,4-3,.47-2.13-1.43-1.9-3-2,.91-1.75,1.86-3.47,5-3-.31-1.36-2.5-.83-4-1-.9-3.23,3.26-1.41,4-3,.32-2.65-5.6.94-4-3,2.32.32,3.84-.16,5-1,.45-2.78-5.45.78-5-2-1.27-4.61,5.07-1.59,6-4,.16-2.83-6.16.83-6-2-.36-3.36,4.33-1.67,6-3,.16-2.83-6.16.83-6-2-1.86-4.53,3.59-1.74,4-4,.43-2.81-3.73,2.51-4-1-1.41-4.41,5.98-.02,6-3,.16-2.83-6.16.83-6-2,.62-4.45,2.22-1.71,6-3,.16-2.83-6.16.83-6-2,.61-4.1,2.75-2,6-2,.81-4.15-6.16-.5-7-3,.64-3.36,4.8-3.21,9-3-.74-2.25-5.61-.39-8-1-1.8-4.8,2.78-3.22,4-5,.72-2.72-4.72.72-4-2-.69-3.35,1.68-3.66,4-4-.79-2.21-6.19.19-5-4,.97-1.7,2.76-2.57,6-2-.04-3.62-7.1-.23-6-5,1.18-1.15,3.53-1.13,6-1-1.32-3.59-3.28-.31-6-2v-5h6c-.85-3.57-2.46-.12-6-1v-5c1.45-1.55,5.12-.88,8-1-.74-2.25-5.61-.39-8-1-1.09-5.09,3.24-4.76,7-5-1.55-3.16-6,1.25-7-1v-4c4.45.78,6-1.33,10-1-1.39-2.28-6.96-.37-10-1-1.27-5.27,2.6-5.4,7-5-.43-2.24-4.93-.41-7-1v-5c3.64.31,6.51-.16,9-1-1.06-2.27-6.29-.38-9-1v-4c4.26.59,6.61-.72,10-1-1.39-2.28-6.96-.37-10-1,1-3.66,2.62-6.71,8-6,.16-2.83-6.16.83-6-2-.58-3.58,2.96-3.04,6-3,.17-2.17-3.55-.45-5-1,.27-4.4,5.52-3.81,8-6,7.29,10.49,3.72,26.09,4,38,.79,33.57,2.43,65.95,5,99,3.01,38.72,14.6,79.65,20,117-5.01.96-8.66,10.61-4,15-13.72,14.76-50.67,18.29-62-1,4.14-1.76,7.03,5.36,13,5-3.61-4.39-12.14-3.86-12-12,5.28,1.72,8.08,5.92,14,7-7.71-3.62-12.18-10.49-20-14,9.26-19.74,17.15-40.85,21-66,1.62,1.63,4.18-.89,8,0-.43-2.24-4.93-.41-7-1-.78-7.61,4.22-3.16,7-5-.12-2.21-4.24-.42-6-1-1.83-6.16,4.86-3.81,7-6-.65-2.13-4.54,1.04-6-1-.6-4.6,4.73-3.27,8-4-1.43-3.42-5.42-.47-7-2,.66-3.01,3.45-3.88,7-4,.45-2.78-5.45.78-5-2-.95-3.61,3.94-1.39,6-2,1.54-4.21-5.17-.16-5-3-.46-3.12,2.14-3.2,5-3,.43-2.76-3.73-.94-4-3-.46-3.12,2.14-3.2,5-3-.1-3.73-3.9-.07-4-2ZM76,594.59c-4.13,5.53-11.6,7.74-19,10,2.39-6.62,13.98-9.34,19-10ZM50,590.59c-.71-7.04,2.69,7.79,7,11-3.83,1.03-6.64-7.46-7-11ZM75,599.59c-1.64,8.36-5.33,14.67-7,23-7.8,4.2-16.03,7.97-24,12,2.33-10,8.12-16.55,10-27,8.51-1.16,13.1-6.23,21-8ZM77,600.59c1.25,2.29,5.8,4.29,2,6,4.89,9.11,14.62,13.38,23,19-3.89-5.12-16.59-10.08-20-19,18.13,29.35,72.96,19.82,90-4,2.01,7.33,7.58,11.09,9,19-23.5,30.92-87.48,32.8-111,1,1.33-8.33,4.69-14.64,7-22ZM192,603.59c-3.18,2.33-16.16-2.36-18-8,6.01,2.65,12.56,4.78,18,8ZM145,310.59c8.4-18.04,46.05-56.65,42-88-.46-3.53-1.68-6.62-5-9-12.23,1.39-14.51,17.86-18,31-.48,1.81-1.65,12.7-3,7,5.17-15.9,2.76-44.47,26-39,7.37,42.85-21.44,73.31-42,98ZM193,218.59c-3.06-8,11.35-15.32,18-8-3.28,1.92-8.24-3.21-12,1,.31,1.36,2.5.83,4,1-8.11,37.56-22.95,68.38-47,90,11.58-19.42,30.04-41.01,35-69,1.33-7.49.01-15.01,7-20-1.37-1.95-4.21,3.06-5,5ZM227,202.59c-2.91,6.8-10.4,6.48-14,13-5.15,9.34-4.18,22.53-9,33,3.6-15.4,3.26-43.4,23-46ZM200,255.59c-3.42,19.6-21.41,41.91-41,52,15.86-11.14,32.51-30.15,41-52ZM179,305.59c2.6-.4,3.02-2.98,6-3-1.05,4.95-2.35,9.65-5,13-.57-1.1.33-6.97-1-10ZM176,306.59h2c-1.85,40.24-.95,68.63-4,105-2.34-24.75-.83-68.1-2-102,2.04-.29,1.96-2.71,4-3ZM180,296.59c11.93-13.07,25.8-24.2,32-43-6.87,14.8-17.39,25.95-28,37,14.61-18.06,24.01-49.99,32-78,3.54.54,2.46-3.54,6-3,.66,9.66-1.9,16.1-3,24,5.31-6.02,1.36-21.3,8-26-2.63,42.7-19.53,71.14-47,89ZM42,145.59c-.42-13.08,38.71-23.78,55-26,31.88-4.35,68.01-1.31,94,7,10.3,3.29,30.81,11.54,30,19-.97,8.89-52.41,18.95-65,19-27.34.12-56.44,1.1-79-3,.15-1.85,3.39-.61,4-2-10.97,3.19-38.61-1.76-39-14ZM226,173.59c-1.81-1.93.81-5.07,2-7,1.97,1.08,1.71,8.3-2,7ZM32,193.59c6.86,3.5,14.62,6.41,23.02,8.77-8.83-2.84-17.11-7.15-23.02-12.77,3.99-2.36,6.66,2.59,10,4,14.59,6.15,40.67,10.34,60,12,4.93.42,11.37.44,17,0,32.51-2.56,74.41-5.88,98-15,4.22-1.63,7.57-5.61,12-5,.17,2.5-1.54,3.13-3,4-42.95,17.94-107.03,23.09-157,16-.7-.1-1.4-.21-2.1-.33,52.34,10.95,122.8,3.54,160.1-15.67,4.34,1.52.56,7.29,1,11-6.15,1.52-10.94,4.39-15,8-6.63-5.5-20.03-2.84-21,6-6.06-8.62-22.12-4.65-24,5-2.96-2.37-5.66-5.01-9-7-6.42,1.58-13.05,2.95-17,7-4.32-9.85-25.25-11.08-27,2-7.42-9.65-38.62-14.54-48-4-3.31-2.03-4.42-6.24-8-8-5.62-.96-7.98,1.36-11,3-4.48-7.18-16.39-6.95-16-19ZM33,207.59c5.76,33.8,17.28,64.95,40,83-24.14-13.57-37.88-46.76-40-83ZM36,209.59c11.65,7.42,10.46,24.6,15,38,4.58,13.51,9.03,26.01,17,35-17.2-13.8-29.05-41.62-32-73ZM51,246.59c-4.58-16.01-2.85-35.1-18-43,17.4,5.99,17.73,29.59,24,48,6.22,18.27,15.68,36.8,30,49-15.31-11.3-29.34-30.68-36-54ZM80,292.59c-15.93-18.79-26.41-48.92-29-77,4.5,4.14,4.69,10.8,6,16,7.95,31.43,25.03,56.38,46,76-9.19.1-17.53-8.55-23-15ZM73,537.59c-6.69,9.31-11.48,29.18-27,33-2.89.78-2.5,4.84-4,7-4.18.84-4.72-1.94-8-2,14.51-11.16,27.98-23.35,39-38ZM30,577.59c3.14-1.63,8.35,1.94,13,2,2-2,1.76-6.24,4-8h6c22.8-30.62,48.7-81.86,53-127,.32-3.33.96-10.13,1-10,2.24,6.78-2.52,25.66-2,33,5-7.33,1.32-23.34,4-33,.27-2.14-.77-10.67,1-8,2.49,74.21-28.91,119.46-51,172-14.58-10.9-.15-28.21,8-41,15.49-24.32,31.48-56.61,38-87-12.79,42.54-32.91,77.75-54,112-7.03,2.04-23,1.79-21-5ZM26,580.59c6.46,4.73,11.21,5.62,21,6-4.44,6.62-18.4,1.69-22-2-.13-1.79,1.22-2.11,1-4ZM23,586.59c7.15,5.65,12.27,3.78,22,5-.03,2.7-.48,5.25-1.27,7.61,1.02-2.21,2.13-4.41,3.27-6.61,3.29,3.05,4.12,8.55,7,12-4.14,8.53-6.24,19.1-12,26-4.68-10.49-3.22-19.36.21-27.87-5.47,10.23-18.11,15.01-30.21,6.87,2.36-8.98,7.8-14.87,11-23ZM9,616.59c-.32-2.32.16-3.84,1-5,6.02,3.87,17.86,4.2,25,4-3.8,9.19-18.19,2.31-26,1ZM36,617.59c3.82,3.85,2.76,12.58,6,17-3.38-.05-7.73-11.69-6-17ZM42,640.59c3.98-8.35,14.94-9.73,23-14-3.12,9.21-15.41,9.25-23,14ZM69,629.59c-1.36-.31-.83-2.5-1-4,2.75,1.91,5.25,4.09,8,6-1.27,2.81-5.73-4.81-7-2,15,10.85,33.14,20.74,61,19,22.86-1.43,39.33-15.96,52-24-16.64,35.75-91.21,36.39-113,5ZM175,601.59c14.84,2.83,24.39,10.95,26,27-13.3-4.36-22.91-12.43-26-27ZM185,623.59c6.36,2.31,9.51,7.82,18,8-.09,1.42-.16,2.83,1,3-5.93-.09-15.67-4.99-19-11ZM205,628.59c-5.56-10.36-11.86-23.17-6-37,6.75,10.17,7.1,22.71,6,37ZM207,628.59c-.58,1.08.4-12.68,0-18,4.34,2.68,1.58,14.66,0,18ZM210,610.59c8.03-2.57,22.96-3.55,31-5-5.48,8.55-23.57,9.07-31,5ZM239,602.59c-9.24,3.99-21.27,5.39-32,3-1.36-5.64-4.09-9.91-5-16,12.52,1.19,20.51-2.15,29-5,2.37,6.3,6.88,10.46,8,18ZM229,581.59c-3.16,5.93-22.36,9.25-28,3,10.96.3,21.49.16,26-6,.93.73,1.51,1.82,2,3ZM224,574.59c-4.57.1-5.39,3.94-11,3-4.77-2.23-5.15-8.85-13-8-6.85-16.49-16.96-29.7-22-48,13.2,19.8,27.55,38.45,46,53ZM200,571.59c5.95.57,10.13,4.14,9,9,7.53.05,11.07-2.56,18-5-2.65,8.64-22.1,5.57-28,5-22.75-48.43-48.92-98.27-49-168-.03-29.64,2.17-54.05,0-84,1.16-.16,1.78.22,2,1,7.12,37.06-2.37,74.75,1,117,3.94,49.37,29.83,90.23,47,125ZM366,428.59c-23.04-.02-38.98,1.91-65,2,3.32,5.55,1.57,26.74,2,41-14.28,3.55-27.44-7.68-41-2v-8c-2.36,13.9,1.36,26.25-1,37-9.13-4.2-19.56-7.11-31-9-9.89,3.11-17.19,8.81-28,11-1.29-21.04-1.47-43.2-2-65-13.37.83-27.93,1.96-39,0-4.68-13.12-1.16-35.85-1-50,2.76,14.77.82,28.96,3,45,51.17-1.37,109.88-4.96,160-7-52.1-1.44-104.56,5.44-159,5-1.28-43.85-3.96-73.68-4-114,4.84-2.04,5.6-2.45,10-4,.41,27.74,2.76,79.78-1,111,14.63-4.7,32.19-6.47,48-10,.66-15.8,1.9-40.29,0-60-.58-6-4.4-14.22,2-17,4.46,2.01,3.69,9.58,4,14,1.34,18.98.85,46.27,2,62,20.84,4.62,46.25-1.63,67-1,.18-22.55-3.19-50.05-1-78,12.93,1.68,7.11,20.97,8,37,.79,14.35,2.88,28.89,2,40,13.37,3.26,33.55-2.41,49,2,1.45-39.45-1.79-88.84-3-132-11.89.11-19.32,4.68-25,11-3.32-1.68-3.38-6.62-7-8,7.91-8.09,20.01-11.99,33-15,.84-22.94-3.04-54.83,0-80-11.83-1.84-26.33-1.01-35-6,.75-3.92,3.9-5.43,5-9,4.84,3.93,17.79,4.92,28,3,1.14-39-1.38-77.23,0-116-14.2.17-38.14,2.79-51,2-3.26,15.28-6.73,34.98-5,52,.64,6.32,6.01,14.95-1,19-6.92-17.82-4.45-51.39-1-71-6.38-.13-22.59-.3-28,1,6.34,2.32,16.99.34,25,1-4.34,57.55-6.81,131.48,61,126-2.66,24.71,0,55.8,1,77-21.03,5.74-40.64,13.18-50,30-16.23,29.15-6.29,74.25-6,112-20.64,1.13-44,3.4-64,2-4.16-31.66,2.53-75.64-11-101-4.21-7.89-12.49-11.27-16-18,34.43,6.27,30.66,69.8,31,113,19.59,2.72,34.45-1.63,54-1,.4-43.4-8.48-92.66,13-119,10.9-13.37,25.94-16.88,44-24-.05-25.01-.02-45.29-2-67-60.24,5.42-67.47-62.79-61-125-15.81-3.82-38.33,3.49-55,2-3.45,13.89,1.27,47.22-7,56-1.86-9.29,2.33-21.37,2-34-.21-8.19-1.99-19.99,2-28-8.03.15-3.85,14.36-4,24-.2,13.33.63,28.18-5,36-6.46-1.46-1.45-9.82-1-16,.94-12.91-1.65-28.38-1-43-12.93-.2-37.43-1.35-50-2-.77,12.44,3.25,39.77,0,47-5.45,1.21-4.62-5.58-5-8-2-12.64,1.51-33.27,0-47,17.63.64,41.47-.69,57-2-19.19-1.85-42.51,2.9-59,0-1.33,18.7,2.31,42.97-1,57-6.06-4.71-4-16.09-4-26,0-20.09-2.05-45.64,7-57-5.68,33.22,40.17,22.36,71,21,39.13-1.72,93.6-6.76,135-3-4.05,19.77,3.46,39.42-2,57-.19.81-1,1-1,2-1.69-17.31-2.06-35.94-2-55-30.88-2.84-71.61,1.3-110,1,32.43,3.56,72.21-2.87,109,1,1.21,113.44,2.81,256.39,3,371-5.42.24-9.73,1.6-16,1,6.29,2.27,17.72,1.07,20-4,2.41,2.25,4.89,4.45,4,10ZM292,317.59c19.92,6.41,26.66,26,34,45-4.02-18.65-14.42-39.57-33-47,2.52-9.81,4.3-20.36,12-25,13,14.86,21.92,34.79,23,60,.42,9.75-1.45,17.99,3,26-.01-33.32-6.26-69.07-25-87,.19-4.14,5.28-3.39,6-7,8.78,5.56,13.66,15,17,26,3.71-8.08-11.7-16.56-2-22,4.52,9.82,5.46,23.21,8,35-3.1-2.23-1.77-8.9-4-12,7.83,25.17.8,73.87,16,95-29.58-10.09-23.38-64.62-56-75,.07-4.26,1.67-6.99,1-12ZM342,280.59c7.38,2.21,3.75,10.68,4,15,1.91,33.6,1.8,69.98,3,102-4.19-16.86-3.51-36.68-6-57-1.57,18.24,2.7,39.29,4,58-5.3-12.37-4.68-30.66-7-46-.74,13.39,1.05,29.56,5,43-4.78-7.87-7.03-25.46-7-38,.06-25.56-3.47-50.93-8-73,3.55-.11,3.63-3.7,8-3,2.7,17.3,3.25,36.75,4,56,3.78-14.59-4.12-42.35,0-57ZM303,398.59c3.18.82,7.36.64,10,2-1.02-3.98-7.84-2.16-11-4,.9-2.77-2.05-9.39,2-9-2.6-1.74-2.03-6.64-2-11,3.75,1.25,7.69,2.31,9,6-1.48-5.2-12.85-9.14-11-21,8.01,3.65,12.04,11.29,19,16-6.37-10.97-21.86-12.81-19-33,1.31.35,1.57,1.76,3,2-.89-2.44-2.33-4.34-2-8,7.67,6.66,12.08,16.59,17,26-.56,2.9-1.56-1.53-3-1,.32,4.36,7.99,10,9,17-1.31-.35-1.57-1.76-3-2,2.53,4.8,7.07,7.59,8,14-1.48-.52-2.52-1.48-4-2,2.57,4.09,7.99,5.34,10,10-6.66-1.34-10.6-5.4-17-7,5.49,3.84,11.84,6.82,19,9-.31,1.36-2.5.83-4,1,1.53,2.47,8.21-.21,8,4-16.06-.03-22.56.71-37,0-1.67-1.66-.8-5.87-1-9ZM334,70.59c-22.33,13.67-18.1,62.57-44,76-1.56-3.44-2.35-7.65-2-13,27.1-14.9,20.79-63.21,54-72-1.16,1.48-1.16,2.52,0,4-.19,1.14-1,.56-1,0-24.59,19.41-5.05,91.62-30,114-5.03-1.3-6.84-5.83-10-9,25.9-18.43,12.1-76.56,33-100ZM300,167.59c-4.45-4.22-7.07-10.26-9-17,18.86-16.48,24.2-46.46,35-71-.85,9.34-6.92,19-8,32-1.98,23.78-1.52,47.23-18,56ZM292,94.59c7.55-4.46,17.88-11.44,25-13-6.11,9.23-16.92,13.75-24,22-2.27-1.06-.38-6.29-1-9ZM294,71.59c14.02-3.59,28.82-5.46,40-10-2.75,5.14-11.79,6.92-19,10-7.18,3.06-14.81,7.42-22,9-.54-3.87,1.79-4.88,1-9ZM294,69.59c1.11-1.89,1.28-4.72,2-7,11.75.09,25.4-1,33-2-8.68,5.99-23.51,5.82-35,9ZM293,82.59c11.4-4.94,23.37-9.3,34-15-3.8,11.54-22.65,16.68-33,25-3.55-.63.29-5.62-1-10ZM312,88.59c-1.54,9.8-13.01,18.32-20,26-1.41-16.74,13.99-16.67,20-26ZM308,98.59c.19,9.53-5.86,21.47-14,26-3.56-13.36,9.9-17.09,14-26ZM344,154.59c.07,6.81,3.52,19.4-6,19-4.27-28.3,4.54-61.13,5-90,3.09,19.71.74,46.08,1,71ZM323,159.59c1.55,2.27.62,10.59-3,11-.81-5.48,3.34-5.99,3-11ZM341,80.59c-.55,28.62-5.78,65.17-7,93-2.63-1.7-8.57-.1-11-2,6.66-29.67,11.44-61.23,18-91ZM330,91.59c1.76-9.58,6.89-15.77,10-24-.48,20.22-7.18,50.54-13,72-.35-25.35,2.71-47.29,11-64-4.41,3.59-3.2,12.8-8,16ZM366,417.59c-.81.19-1,1-2,1-2.73.73-2.01-1.99-4-2,1.81-18.84-1.56-32.04,1-51,6.94,2.39,3.96,12.9,4,20,.06,10.66-.28,21.35,1,32ZM369,423.59c-3.75-17.24-1.78-37.16-3-58,4.22,14,3.8,39.81,3,58ZM373,419.59c-2.03-11.47-3.74-39.21-2-57h3c-.76,18.19,1.46,43.74-1,57ZM382,400.59c-.11,5.71,2.66,15.48-6,16,.87-14.24-6.52-52.5,5-58h2c-2.26,13.22-.74,28.29-1,42ZM384,412.59c-.58-20.49-.91-33.49,0-56,2.48.15,4.15-.52,5-2,.85-.18.94.39,1,1-3.93,19.23,8.82,48.96-6,57ZM394,407.59c-4.36-9.71-.91-40.12-2-53-.55-2.22,1.91-1.42,2-3,1.16-.16,1.78.22,2,1,1.46,6.77-.06,13.67,0,21,.1,12.56,6.2,26.75-2,34ZM401,347.59c3.42,8.06,1.85,19.96,2,31,.12,8.69-1.41,19.1,2,24.71-1.71.64-4.43,2.36-6.61,3.5,2.74-19.5-3.48-42.58,1.62-59.21-13.13,5.53-23.44,13.9-39,17-2.28-10.39-.38-24.96-1-37,14.87-7.46,26.87-17.79,45-22,4.69,11.39,6.74,36.65-4,42Z"/>
      <path class="cls-2" d="M55.02,202.36c3.9,1.26,7.91,2.23,11.88,2.9-4.08-.85-8.04-1.82-11.88-2.9Z"/>
      <path class="cls-2" d="M43.73,599.2c-.54,1.17-1.05,2.34-1.52,3.51.59-1.11,1.11-2.28,1.52-3.51Z"/>
      <path class="cls-2" d="M198,68.59c-5.35-.31-10.66-.67-15-2,2,3.03,11.91,3.39,15,2Z"/>
      <path class="cls-2" d="M397.92,117.17c-10.48,5.63-19.32,12.91-31.92,16.42-2.1-7.9-.5-19.5-1-29,11.95-3.05,19.94-10.06,32-13,4.49,4.4.85,16.93,1.97,24.71.69-.58,1.37-1.15,2.03-1.71-1.13-8.2,2.39-21.06-2-26-12.47,5.86-26.46,10.21-37,18,1.44,8.56.06,19.94,2,28,12.89-.73,24.43-9.53,33.92-17.42Z"/>
      <path class="cls-2" d="M399,116.59c-.02-.09-.02-.2-.03-.29-.35.29-.7.58-1.05.87.36-.19.72-.39,1.08-.58Z"/>
      <path class="cls-2" d="M51,140.59c11.58-7.76,25.01-13.66,41-17-17.11,1.55-34.37,8.3-41,17Z"/>
      <path class="cls-2" d="M55,142.59c12.92-5.41,25.06-11.61,40-15-16.64,1.69-29.18,7.49-40,15Z"/>
      <path class="cls-2" d="M87,135.59c-11.14,2.86-21.66,6.34-30,12,7.33-1.56,18.02-7.48,25-10-.18.06,9.6-.55,5-2Z"/>
      <path class="cls-2" d="M85,142.59c-9.64,3.36-20.37,5.63-28,11,6.38-.62,9.41-4.59,16-5,1.8-3.12,15.76-3.9,12-6Z"/>
      <path class="cls-2" d="M61,156.59c8.46-2.21,16.79-4.55,24-8-9.08,1.58-17.31,4.02-24,8Z"/>
      <path class="cls-2" d="M206,161.59c-12.91,2.14-6.7,5.08,0,0h0Z"/>
      <path class="cls-2" d="M176,171.59c-2.58,5.7-6.82,17.16-2,24,.98-5.69-2.16-15.5,2-18,2.24,4.43-1.28,14.61,3,17,3.94-6.11-3.67-13.22,2-18,1.42,5.25-.85,14.19,3,17-1.17-6.45-.14-14.25-2-22-4.05,3.17-1.18,1.84-6,0Z"/>
      <path class="cls-2" d="M213,251.59c2.3-5.03,4.33-10.34,6-16-1.47,1.23-6.48,12.81-6,16Z"/>
      <path class="cls-2" d="M363,332.59c.7,8.3-1.76,19.76,2,25,16.16-3.51,28.41-10.93,39-20-.22-10.06-1.5-18.75-2-26-14.54,5.46-27.69,12.31-39,21ZM401,338.59c-10.07,7.26-20.32,14.34-35,17-.19-7.43-.74-13.65-1-23,9.54-7.79,22.42-12.24,33-19,3.86,4.82,4.64,18.01,3,25Z"/>
      <path class="cls-2" d="M303,347.59c2.22,3.14,4.71,11.26,8,10-4.12-1.88-3.61-8.39-8-10Z"/>
      <path class="cls-2" d="M306,388.59c3.71,1.96,7,4.33,11,6-1.12-3.49-11.32-7.63-11-6Z"/>
      <path class="cls-2" d="M207,435.59c-4.23-.78-8.74,1.33-2,1,21.56.81,33.24-2.1,54-2,.86,7.82.36,22.29,3,25-1.46-7.54-.65-17.35-2-25,10.6-.65,25.15-.85,39-3-23.17-.85-64.19,3.65-92,4Z"/>
      <path class="cls-2" d="M112,557.59c-3.46.37-6.56-5.35-8-1,2.59-.18,6.7,3.2,8,1Z"/>
      <path class="cls-2" d="M113,633.59c-14.46-4.54-26.41-11.59-36-21,6.88,11.46,23.24,18.76,36,21Z"/>
      <path class="cls-2" d="M104.47,626.51c.46.12.92.23,1.38.34-.44-.22-.9-.37-1.38-.34Z"/>
      <path class="cls-2" d="M111,630.59c-2.16-1.5-6.22-1.11-7-4,.16-.05.31-.07.47-.08-10.63-2.8-19.97-9.57-26.47-17.92,2.74,10.97,22.16,19.13,33,22Z"/>
      <path class="cls-2" d="M110,627.59c-1.4-.17-2.79-.43-4.15-.74,1.7.86,3.11,2.92,4.15.74Z"/>
      <path class="cls-2" d="M76,619.59c9.59,7.74,20.76,13.9,34,18-12.12-4.55-24.37-14.3-34-18Z"/>
      <path class="cls-2" d="M111,640.59c-14.02-5.65-28.71-10.62-39-20,8.35,11.31,23.39,15.94,39,20Z"/>
      <path class="cls-2" d="M212,179.59c3.09.24-1.56,8.23,3,7,2.56-4.92-1.04-12.27-4-15,1.67-1.66,4.05-2.62,4-6-9.61-6-7.62,17.77-5,23,1.9-2.47.59-8.73,2-9Z"/>
    </g>
  </g>
</svg>