<?xml version="1.0" encoding="UTF-8"?>
<svg id="Layer_2" data-name="Layer 2" xmlns="http://www.w3.org/2000/svg" viewBox="0 0 237.27 502.22">
  <defs>
    <style>
      .cls-1 {
        fill: #fff;
        stroke: var(--black);
        stroke-width: .75px;
      }
    </style>
  </defs>
  <g id="Layer_1-2" data-name="Layer 1">
    <g>
      <path class="cls-1" d="M144.07,289.25c5.61-3.22,5.2-8.18,10-11-1.73-9.9,2.16-17.29-1-26-1.72-4.73-6.54-6.79-9-11-.58-1,.47-2.94,0-4-5.41-12.18-9.44-24.38-8-40-8.27-2.64-19.35.22-27-1-1.88,12.61.72,27.52-6,37,7.95,7.08,28.47,5.9,39,2-11.03,8.42-30.18,6.76-42,1,3.59,12.86,32.31,8.12,43,5-7.71,9.24-34.6,7.3-44,1-8.37,3.46-12.61,15.64-11.01,25.89,2.79,5.71,4.83,17.73,11.01,21.11,10.58,5.79,36.24,5.04,45,0ZM127.07,216.25c3.13-.46,4.46.87,4,4-2.93.9-3.07.9-6,0,.52-1.48,1.48-2.52,2-4ZM133.07,223.25c-2.58,1.62-6.27,2.13-9,1,.89-2.46,7-2.71,9-1ZM124.07,227.25c7.29-3.23,4.18,3.6,12,2-.95,4.72-8.83,2.51-14,3,1.07-4.17,5.59-.38,2-5ZM122.07,236.25c2.05-3.64,13.63-3.01,16-3-3.79,4.6-11.04.96-16,3ZM146.07,266.25c-1,4.34-6.57,4.09-12,4,3.37-1.96,7.67-3,12-4ZM142.07,262.25c.14,4.56-9.25,3.51-11,3,.98-3.68,6.62-2.72,11-3ZM146.07,271.25c-1.66,4.52-15.29,7.12-19,3,8.26.92,12.26-2.41,19-3ZM146.07,277.25c-3.84,4.84-16.41,6.24-23,5,5.74-3.59,16.56-2.11,23-5ZM146.07,280.25c.97.03.78,1.22,1,2-3.98,4.8-19.19,8.66-26,4,9.78-.56,19.71-.96,25-6Z"/>
      <path class="cls-1" d="M191.07,154.25c-20.62-19.54-8.32-72.84,14-89-3.57-.58-10.73,3.04-17,3,8.33,10.5-7.87,23.69-11,9,.2-3.13,3.29-3.38,3-7-17.05-.04-35.83,2.36-49,3,31.58,7.1,31.33,84.95-4,86-20.4.61-34.06-20.54-33-38,3.16,22.03,17.33,40.8,44,33,13.84-10.6,19.41-54.56,5-71-16.79-19.14-49.19.11-50,23-.14-9.14,5.34-12.66,6-21,6.4-5.76,17.29-12.31,26-12-33.52-.69-61.62-2.18-89-10,21.56,16.78,35.19,67.35,16,93,5.59,10.08,15.6,15.73,23,24,9.5,2.53,20.16,8.51,33,10,40.71,4.72,74.85-11.07,83-36ZM174.07,171.25c-.97-3.64,4.87-.46,3-5,1.16.16,1.78-.22,2-1,2.49,2.23-2.24,5.7-5,6ZM163.07,171.25c4.08-3.26,8.41-6.25,14-8-3.66,5.89-7.74,5.33-14,8ZM182.07,158.25c3.39,2.16-2.58,6.4-4,4,.32-2.35,3.1-2.24,4-4ZM179.07,155.25c-3.74,6.59-11.44,9.23-20,11,6.75-3.58,12.32-8.35,20-11ZM159.07,160.25c5.36-3.97,11.55-7.11,18-10-4.61,4.72-10.82,7.85-18,10ZM161.07,73.25c4.41,3.64,4.85,10.35,1,15-15.67,5.56-16.28-19.57-1-15ZM158.07,166.25c-5.19,4.69-14.74,5.01-20,5,5-3.33,14.25-2.41,20-5ZM170.07,171.25c1.7-.37,1.89.78,2,2-11.96,5.6-21.27,7.9-37,9,10.85-4.49,26.43-4.23,35-11ZM58.07,87.25c-8.42-4.32-2.19-20.64,8-15,4.53,6.97,2.81,16.17-8,15ZM130.07,79.25c20.93,11.68,22.21,57.17,4,72-21.39.36-36.84-15.79-32-35-.42,6.42.8,11.2,3,15,4.5,1.17,1.08-5.59,6-4,2.79,2.91-.92,4.96-2,7,.56,1.44,1.56,2.44,3,3,2.13.47,1.9-1.43,2-3,7,2.77,3.59,9.75,7,14,5.43-.76,8.42-2.32,14-4-.29-5.49-1.54-19.15,6-20-1.54,4.46-4.08,7.92-3,15,5.62-7.41,5.22-20.16,4-30-.99,4.19-10.75-2.62-10,5-3.4-1.89,1.71-3.51,1-6,3.15-1.12,2.26-.09,6,0,3.3-2.05,3.02-12.26-3-11-4.05,1.08.31,4.76-1,9-2.9-2.77-3.25-8.08-5-12,2.4.61,4.56,1.44,8,1-.92-15.85-28.35-14.31-32-2,4.74,3.36,10.29-1.01,11-5,5.38,2.96,11.57-4.91,11,4-12.97-5.62-14.38,8.03-19,14,.99-4.48,1.29-4.47,2-8,.17-2.17-3.55-.45-5-1-2.74,1.12-2.63,8.64-1,11,3.06.72,3.64-1.02,6-1-.08,3.7,4.18,3.05,3.04,7.82.04.05.09.11.13.16,3.68-.43,3.43-1.04,5.83,1.02.58,3.25-.68,4.65-1,7-4.56-1.22-3.92,2.74-8,2-2.13-5.8,4.76-2.57,5-6-.41-1.69-1.04-2.98-1.83-4.02-.06,0-.11.01-.17.02.02-.07.02-.12.04-.18-3.98-4.97-11.69-3.57-15.04-9.82,2.2-16.8,13.41-24.59,31-26ZM137.07,121.25c-7.68,2.34-6.96-3.71-12-4,.53-2.8,1.47-5.2,2-8,3.31.02,1.02,5.65,3,7,3.16-2.16,6.61,4,8-2,2.12.91-1.89,4.02-1,7ZM133.07,129.25c-1.42-.09-2.83-.16-3,1-2.03-2.7.04-3.88,0-7,2.42.58,2.22,3.78,3,6ZM122.07,96.25c-5.72.61-4.86,7.8-8,11-3.55-16.18,18.56-17.17,17,1-4.52-2.48-2.94-11.06-9-12ZM126.07,102.25c-1.77,3.5-4.15,4.87-2,10-6.38-.26-2.01-5.77-6-9,1.45-1.55,5.12-.88,8-1ZM128.07,127.25c-4.51.84-4.99-2.34-8-3,1.63-1.89,7.92.03,8,3ZM130.07,133.25v7c-1.44-1.22-1.52-3.82-3-5-3.34,1.89-.63,4.04-1,8-6.4.05.66-18.63-9-12-2.38-1.95-3.98-4.72-1-7,4.68,2.99,8.05,7.29,14,9ZM99.07,108.25c4.58-.87,2.9,6.79,0,7v-7ZM86.07,77.25c2.24.43.41,4.93,1,7,.85,1.48,2.52,2.15,5,2,1.77-1.9.93-6.4,3-8-.22-3.11-4.98-1.69-8-2,3.9-7.29,13.98,0,11,9-5.94,5.63-16.97,1.86-12-8ZM92.07,115.25c-.8-3.47,1.49-3.84,1-7,1.45.24,2.32,8.23-1,7Z"/>
      <path class="cls-1" d="M190.07,17.25c-13.35-2.5-34.48-4.97-48-1,17.58-1.35,36.31,2.55,48,1Z"/>
      <path class="cls-1" d="M202.07,80.25c-7.06,15.63-6.44,35.66-8,55-2.39-3.31-5.52-9.54-2-13-3.58-15.5-.67-37.85,12-45-.58-1.76,1.21-5.88-1-6-14.39,8.68-20.76,36.52-17,54-1.43.39-1.69,1.2-3,0,2.72,2.28,3.65,6.35,4,11-1.71.17-3.93-5.67-4-1,.73,7.6,3.81,12.85,9,16-.92-4.44-5.8-10.17-5-13,4.03,1.63,2.96,8.38,8,9,.47-13.2,7.84-19.49,8-33-.79-2.54-6.13-.54-6-4h6c.28-3.01-7.21-3.36-3-7,2.63-.3.79,3.88,4,3-.98-8.35,2.17-20.84-2-26Z"/>
      <path class="cls-1" d="M180.07,74.25v6c2.26,1.21,4.4,2.89,6,0-3.3-2.41,1.27-5.31,2-7-3.06-1.46-5.21-.27-8,1Z"/>
      <path class="cls-1" d="M174.07,46.25c-.55,3.99-.55,3.01,0,7,4.28,1.17,4.28-8.17,0-7Z"/>
      <path class="cls-1" d="M124.07,194.25c6.21,2.43,11.35-.44,17,0-1.96-2.62-11.74-1.52-17,0Z"/>
      <path class="cls-1" d="M56.07,40.25c-4.98-6.02-10.41-11.59-21-12,.42,5.92,1.87,10.8,4,15-1.28-.05-1.38-1.28-3-1,.36,4.65,9.1,5.1,6,10-2.61,4.12-5.43-6.4-6-1-1.72,6.06,5.48,3.18,6,7-2.98,1.44-6.09-3.51-6,1,42.52,16.85,123.87,13.16,168,3,1.47-3.8-4.47-.2-3-4,9.08-3.22.53-16.35,2-22-.15-3.15,5.58-.42,4-5-38.17,8.52-90.86,8.26-135,4,30.95-1.38,62.14,1.17,97-1,15.41-.96,43.48-.32,42-15-5.32-7.41-25.5-10.41-33-9,5.02-.35,7.29,2.05,11,3-1.57.1-3.47-.13-3,2,6.93,1.29,6.09.31,6-3,3.81,1.85,10.28,1.05,12,5-7.15-.34-6.26,1.59-13,0-.96,1.86,3,3.34,0,4-19.8-6.37-55.67,4.06-58-8,14.79-.78,32.22-1.82,44,0-2.88-6.53-13.27-1.22-21-4,1.05-3.72-3.37-1.96-4-4-42.05-2.18-83.06-1.89-115,9-2,2.51,2.6,3.35,0,7,2.5,2.5,8.06,1.94,10,5-9.25,1.58-10.16-5.17-13-10-2.27,1.06-.38,6.29-1,9,10.37,5.3,27.26,4.07,37,10-4.73-.93-10.65-.68-15-2-.31,2.41,4.36,4.84,1,7ZM154.07,7.25c-3.86,3.44-13.33,4.24-16,0h16ZM39.07,32.25c2.34-2.6,6.55,1.39,6,5-4.79,1.13-3.52-3.81-6-5ZM42.07,42.25c2.09-.42,2.65.69,4,1,.15,2.49-1.57,3.1-2,5-2.55-.11-1.98-3.35-2-6ZM192.07,44.25c.93.73,1.52,1.82,2,3,2.21-.41,1.34-5.86-2-4v-6c2.33,2.81,5.67-.58,5,6,1.17-.16.84-1.82,1-3,3.32.35,1.57,5.76,2,9-2.32-.32-3.84.16-5,1,1.38,1.29.99,4.34,1,7-.89-.78-2.26-1.08-4-1v-12ZM174.07,38.25c3.48,2.52,3.53,8.47,5,13,2.95-2.05-.95-10.95,2-13,3.56,3.53,5.3,14.64,2,19,1.16-.16,1.78.22,2,1,4.72-7.97.19-16.14,4-21,1.02,4.04-.69,13.96,0,21-2.09.58-2.85,2.48-6,2-1.46-2.2-3.04-4.29-3-8-2.14.18-4.08,9.01-6,3-3.04,1.23,1.08,3.44,0,6-7.27-2.96-6.22-19.84,0-23ZM159.07,40.25c4.92-1.8,9.11-.75,8,6-3.91,1.58-2.07-2.6-4-3-2.82,5.76,1.27,12.46-2,18-5.13-3.47-4.18-15.76-2-21ZM128.07,53.25c1.79.13,2.11-1.22,4-1,.85-4.15-2.3-12.3,3-12,1.36,2.64,1.18,6.82,2,10,.65-4.02,3.51-5.82,4-10,3.73-.4,5.87.8,6,4-3.06.73-2.94-1.73-6-1,1.25,5.97.57,7.79,3,12,1.56-.09-1.91-5.96,3-5,2.5,3.23-.72,7.42-1,11-6.01.34-6.99-4.35-8-9-3.14,1.52-1.66,7.67-2,12-3.55-1.73-3.98-5.04-3-9-7.54-2.21-3.06,7.61-10,6v-13c4.45-1.12,3.6,3.07,5,5ZM124.07,41.25c-6.06,1.94-3.56,12.44-4,20-1.42-.09-2.83-.16-3,1-4.49-3.23,1.38-13.36-1-18-1.19-3.72-4.33.74-6-2,.63-3.74,11.77-2.18,14-1ZM100.07,40.25c.43,1.9,2.15,2.51,2,5-3.78,1.45-1.92-2.75-5-2-2.89,1.5-1.13,9.59,1,12,1.61-1.39,1.06-4.94,3-6,4.09,2.43-.86,10.43-4,12-1.99-.01-1.27-2.73-4-2-.58-7.58.46-13.54,2-19h5ZM89.07,40.25h4c.38,3.72-4.05,2.61-3,7-2.24-.43-.41-4.93-1-7ZM84.07,40.25c-.42,6.26,1.2,10.57,5,10-.78,4.22-2.25,7.75-5,10-3.8-5.35-3.76-14.71-5-20,3.82,1.59,1.18,1.59,5,0ZM74.07,38.25c5.17,1.73,5.61,16.94,2,21-.8-.53-1.62-1.04-3-1,1.79-8.34-1.02-12.99,1-20ZM196.07,60.25c-2.38,5.23-9.87,3.29-15,4-41.27,5.72-99.06,6.36-138-5,46.93,7.01,100.7,9.48,153,1ZM69.07,47.25c4.56.53,2.27,4.71,0,6-2.23-.42-.78-5.31,0-6ZM187.07,22.25c-3.92,3.35-14.2,2.92-16-1,5.83-.17,9.59,1.75,16,1ZM172.07,25.25c-5.85,3.84-16.41,1.71-23,1,6.42-2.84,13.61-.18,23-1ZM168.07,22.25c-6.83,2.81-15.22-1.43-24,0,2.77-2.22,18.18-1.24,24,0ZM39.07,16.25c1.94-3.06,7.31-2.69,12-3-1.32,3.39-9.39,4.1-12,3ZM48.07,25.25c51.69,7.03,106.44,8.31,155-1-.23-1.71,5.61-2.19,3-3,.01-2.35,2.73.37,2,2-12.53,9.33-29.99,6.84-51,8-28.94,1.6-53.45,3.27-85,0-7.78-.81-17.41-1.1-24-6ZM70.07,42.25c-3.9,1.8-3.5-5.7-6-2-3.7-6.02,7.83-4.16,6,2ZM61.07,41.25c6.75,1.61-.51,12.29,7,14-5.62,9.22-10.23-8.22-7-14ZM51.07,56.25c-2.97-5.27-4.73-12.8-3-20,4.28,2.39,2.79,10.54,4,16,3.98.31,1.52-5.81,4-7,4.86,2.61-.96,10.73-5,11Z"/>
      <path class="cls-1" d="M112.07,140.25c.07,2.93,2.29,3.71,4,5,.26-3.26-1.19-4.81-4-5Z"/>
      <path class="cls-1" d="M153.07,76.25v9c5.19,2.46,6.46-4.79,9-8-2.76-2.22-5.08-1.91-9-1Z"/>
      <path class="cls-1" d="M58.07,122.25c-.02,2.65.55,5.89-2,6,2.35-21-3.4-50.49-20-61-.78,5.89-.7,16.58,6,18,.16-1.18-.17-2.84,1-3,.51,2.82,2.42,4.25,3,7-1.48-.52-2.52-1.48-4-2-1.36,3.46,4.49,4.71,1,7-2.58-2.42-2.79-7.21-6-9-.65,6.29-2.98,17.25,2,19,.1-1.57-.13-3.47,2-3-.28,2.62.37,4.3,3,4,1.19-2.98.28-3.4-1-6,2.89-.36,2.36-.93,5-3-.16,4.91,6.82,21.08,0,17v5c1.72.39,2.56-1.48,3,0,.07,5.56.8,14.3-3,13,3.56,3.95-2.85,6.44-3,10,.56,2.44.86,5.14,4,5,1.71-.7,3.2-6.69,5-4-1.57,2.85-6.13,6.63-4,10,8.49-3.38,11.71-23.87,8-30Z"/>
      <path class="cls-1" d="M174.07,475.25c17.48-4.52,36.49-7.51,51-15-5.06-2.01-7.34,3.92-10,1,1.59-3.08,7.26-2.08,9-5,.43-10.85,1.42-15.79-2-24-22.7,4.39-44.1-12.55-36-32-1.99,22.68,13.87,32.76,35,29-1.49-5.19-5.49-20.77-13-20-2.26,7.26,8.94,5.27,6,10-7.47.28-11.54-11.92-5-14-5.22-3.45-5.15-12.18-14-12,3.94,3.11,1.83,6.11,3,12,2.5,1.32,3.13-3.95,4-1,.26,3.4-.93,4.45-1,11,7.14,1.86,9.62,8.38,17,10-18.57,2.13-29.6-13.59-24-29-.05,7.05-.26,14.26,4,17-2.06-6.63-4.77-16.73-3-24-22.18-27.99-50.14-50.74-56-90-2.76.51-8.37,4.45-10,0,5.66-1.68,13.12-1.55,15-7-13.5,3.96-31.48,3.72-45,0,1.35,11.97,26.55,2.66,29,8-4.41,3.85-19.22-1.02-25,1-3.85,35.48-29.74,48.92-46,72,13.96,25.86-9.01,60.14-36,48,30.53,5.49,44.86-23.01,34-46-4.52,4.17.96,9.16,1,14,.14,16.79-12.07,28-30,24,4.48-1.21,6.26-10.38,13-6,1.55,3.55-3.4.6-3,3,3.51-.49,6.51-1.49,11-1,.58-3.13,5.66-6.95,3-10-1.18,1.88-3.11,8.15-5,6-.58-1.76,1.21-5.88-1-6-1.83,1.28-8.41,4.04-8-1,3.47.8,3.84-1.49,7-1,1.47-2.2-.12-7.45,3-8v10c4.08-.59,2.16-7.18,5-9,.73,2.27-1.8,7.8,2,7,.48-6.28,1.69-14.51-3-18,2.15,4.41-2.73,1.81-4,3-5.79,5.42-7.65,15.16-16,18,.05,11.86-12.06,10.44-10,21-9.49,2.77-10.1,23.77-5,32-4.56,3.95-9.86,8.28-12,17,.09,2.58,4.28,1.05,3,5,42.19,20.34,116.84,28.25,174,18,17.75-3.18,71.24-9.85,46-30-15.22,4.86-37.17,13.4-52,12ZM188.07,386.25c2.94,2.05-.77,5.82-2,7-1.29,11.28-1.09-5.43,2-7ZM139.07,475.25c8.96-4.87,30.04-2.41,38-5-10.06,4.71-26.85,4.22-38,5ZM172.07,475.25c-1.4,1.6-3.45,2.55-6,3-.58-3.58,2.96-3.04,6-3ZM180.07,471.25c8.85-5.15,22.05-5.95,32-10-3.58,6.42-21.12,7.54-32,10ZM216.07,433.25c2.15,4.37-13.49,4.23-15,5,2.99-3.68,10.73-2.61,15-5ZM198.07,437.25c.36,3.36-4.33,1.67-6,3-.36-3.36,4.33-1.67,6-3ZM217.07,441.25c-6.61,5.85-19.18,3.64-30,7,7.15-5.18,20.06-4.6,30-7ZM218.07,448.25c-7.88,5.52-23.38,8.54-34,8,10.89-3.11,22.74-5.26,34-8ZM188.07,463.25c4.54-.99,7.94-3.93,15-3,4.38-3.29,11.02-4.31,17-6-11.46,8.21-29.33,10-46,13-.24-4.61,8.37-2.77,14-4ZM171.07,406.25c6.8,2.45,1.41,11.17,3,15-2.41-.41-2.17,1.83-5,1,3.05-2.57,3.11-5.12-1-7,1.21-3.2,6.65-3.92,3-9ZM170.07,405.25c-12.47-2.57-13.88,14.76-3,18-16.3.82-9.97-26.13,3-18ZM138.07,327.25c-2.06-.61-6.95,1.61-6-2,2.06.61,6.95-1.61,6,2ZM137.07,323.25h-7v-2h7v2ZM126.07,318.25c-1.02-4.68,7.51.18,8-3,6.15,2.51-6.88,4.8-8,3ZM123.07,314.25c.43-3.99,9.16-3.6,12-2-3.65,2.58-6.85,2.98-12,2ZM135.07,304.25c-4.22,3.78-.71.9,0,6h-12c-1.6-3.94,4.32-.35,4-3-.22-1.43-4.98.93-8,0,2.73-3.6,9.84-2.83,16-3ZM111.07,401.25c-11.36,8.87-8.55,35.55,11,33,1.75-3.25,5.49-4.51,9-6,.23-5.56-5.07-5.6-6-10,1.02-.98,2.02-1.98,3-3,2.53,1.81,4.86,3.81,4,9,4.7,1.7,1.3-4.7,6-3,.49-4.49-.51-7.49-1-11,7.47,11.94-2.71,30.39-22,26-2.08-4.29-9.23-3.24-12-9-4.38-9.1-.69-23.59,8-26ZM127.07,403.25c-.28-1.62.95-1.72,1-3h-14c7.05-6.13,18.4-2.18,21,6-3.75.08-3.02-4.31-8-3ZM134.07,409.25c-2.41-.92-4.08-2.59-5-5,2.89.44,4.56,2.11,5,5ZM123.07,430.25c-2.34-.33-4.13-1.2-6-2,3.91-1.22,3.21-4.82,4-7,2.93.07,3.71,2.29,5,4,.75,3.42-4.06,1.27-3,5ZM111.07,427.25c-2.57-2.43-2.65-7.35-3-12,1.17.16.84,1.82,1,3,3.18-1.53,4.4-.35,8,0-2.71,2.29-4.42,5.58-6,9ZM119.07,403.25c3.9,2.15,5.27,7.36,4,12-3.5.44-8.08-3.18-5-6-3.28-3.22-3.73,4.88-7,5,.09-1.42.17-2.83-1-3,2.35-3.31,8.22-3.11,9-8ZM137.07,442.25c4.1-2.7,10.95-10.23,12-13,7.08-18.66-14.33-48.12-40-37,22.41-14.3,46.21,11.82,42,34-3.79,19.95-29.25,28.5-49,16-2.36-6.64-10.14-7.86-9-18,3.5,17.24,28.53,28.21,44,18ZM138.07,473.25c-9.69,3.28-33.69,3.74-42-1,15.66-.75,31.47,2.41,42,1ZM95.07,472.25c-4.31,1.92-21.57.51-26-4,10.47,1.49,16.26,1.63,26,4ZM97.07,400.25c1.44,5.8-6.21,11.11-4,21-7.07-4.68,1.9-15.85,4-21ZM81.07,418.25c-4.38,1.94-6.5,3.59-11,1,.74-2.25,5.61-.39,8-1-.18-6.11-5.98-4.71,1-8-.51-4.26-6.29-4.79-10-3v10c-12.65-14.68,20.34-19.08,12,1ZM44.07,463.25c7.88,1.87,16.66.71,22,6-18.28-3.05-35.74-6.93-50-14,8.2-.07,17.94,5.61,28,8ZM13.07,457.25c14.47,5.86,30.19,10.48,47,14-15.55-.78-36.05-5.28-47-14ZM64.07,473.25c3.03-2.64,8.4.89,12,1-2.98,2.59-9.59.3-12-1ZM122.07,481.25c-14.78-.26-32.56-2.29-45-7,23.57,3.98,54.3,5.41,81,3-11.05,3.53-22.39,4.24-36,4ZM230.07,476.25c-17.94,9.39-39.98,14.69-65,17,6.2-3.77,15.04-4.59,22-6,14.58-2.95,28.56-4.5,40-12,1.62-.28,1.72.95,3,1ZM165.07,487.25c2.03-2.3,5.98-2.68,10-3-.05,4.29-6,2.67-10,3ZM177.07,485.25c16.15-4.85,34.77-7.23,50-13-11.94,8.54-33.61,12.18-50,13ZM164.07,482.25c21.24-5.09,44.31-8.35,63-16-15.1,10.59-41.8,14.84-63,16Z"/>
      <path class="cls-1" d="M60.07,84.25c1.84-3.16,4.96-5.04,5-10-5.94-5.46-12.28,8.49-5,10Z"/>
      <path class="cls-1" d="M44.07,106.25c-2.93.9-3.07.9-6,0,1.54,6.98.77,24.29,7,32-.05-1.72.77-2.56,2-3-1.74-5.49,1.92-21.54-3-29Z"/>
      <path d="M154.07,7.25h-16c2.67,4.24,12.14,3.44,16,0Z"/>
      <path d="M51.07,13.25c-4.69.31-10.06-.06-12,3,2.61,1.1,10.68.39,12-3Z"/>
      <path d="M168.07,22.25c-5.82-1.24-21.23-2.22-24,0,8.78-1.43,17.17,2.81,24,0Z"/>
      <path d="M187.07,22.25c-6.41.75-10.17-1.17-16-1,1.8,3.92,12.08,4.35,16,1Z"/>
      <path d="M149.07,26.25c6.59.71,17.15,2.84,23-1-9.39.82-16.58-1.84-23,1Z"/>
      <path d="M45.07,37.25c.55-3.61-3.66-7.6-6-5,2.48,1.19,1.21,6.13,6,5Z"/>
      <path d="M52.07,52.25c-1.21-5.46.28-13.61-4-16-1.73,7.2.03,14.73,3,20,4.04-.27,9.86-8.39,5-11-2.48,1.19-.02,7.31-4,7Z"/>
      <path d="M70.07,42.25c1.83-6.16-9.7-8.02-6-2,2.5-3.7,2.1,3.8,6,2Z"/>
      <path d="M174.07,61.25c1.08-2.56-3.04-4.77,0-6,1.92,6.01,3.86-2.82,6-3-.04,3.71,1.54,5.8,3,8,3.15.48,3.91-1.42,6-2-.69-7.04,1.02-16.96,0-21-3.81,4.86.72,13.03-4,21-.22-.78-.84-1.16-2-1,3.3-4.36,1.56-15.47-2-19-2.95,2.05.95,10.95-2,13-1.47-4.53-1.52-10.48-5-13-6.22,3.16-7.27,20.04,0,23ZM174.07,46.25c4.28-1.17,4.28,8.17,0,7-.55-3.99-.55-3.01,0-7Z"/>
      <path d="M195.07,50.25c1.16-.84,2.68-1.32,5-1-.43-3.24,1.32-8.65-2-9-.16,1.18.17,2.84-1,3,.67-6.58-2.67-3.19-5-6v6c3.34-1.86,4.21,3.59,2,4-.48-1.18-1.07-2.27-2-3v12c1.74-.08,3.11.22,4,1-.01-2.66.38-5.71-1-7Z"/>
      <path d="M76.07,59.25c3.61-4.06,3.17-19.27-2-21-2.02,7.01.79,11.66-1,20,1.38-.04,2.2.47,3,1Z"/>
      <path d="M161.07,61.25c3.27-5.54-.82-12.24,2-18,1.93.4.09,4.58,4,3,1.11-6.75-3.08-7.8-8-6-2.18,5.24-3.13,17.53,2,21Z"/>
      <path d="M89.07,50.25c-3.8.57-5.42-3.74-5-10-3.82,1.59-1.18,1.59-5,0,1.24,5.29,1.2,14.65,5,20,2.75-2.25,4.22-5.78,5-10Z"/>
      <path d="M90.07,47.25c-1.05-4.39,3.38-3.28,3-7h-4c.59,2.07-1.24,6.57,1,7Z"/>
      <path d="M93.07,59.25c2.73-.73,2.01,1.99,4,2,3.14-1.57,8.09-9.57,4-12-1.94,1.06-1.39,4.61-3,6-2.13-2.41-3.89-10.5-1-12,3.08-.75,1.22,3.45,5,2,.15-2.49-1.57-3.1-2-5h-5c-1.54,5.46-2.58,11.42-2,19Z"/>
      <path d="M116.07,44.25c2.38,4.64-3.49,14.77,1,18,.17-1.16,1.58-1.09,3-1,.44-7.56-2.06-18.06,4-20-2.23-1.18-13.37-2.74-14,1,1.67,2.74,4.81-1.72,6,2Z"/>
      <path d="M68.07,55.25c-7.51-1.71-.25-12.39-7-14-3.23,5.78,1.38,23.22,7,14Z"/>
      <path d="M46.07,43.25c-1.35-.31-1.91-1.42-4-1,.02,2.65-.55,5.89,2,6,.43-1.9,2.15-2.51,2-5Z"/>
      <path d="M69.07,47.25c-.78.69-2.23,5.58,0,6,2.27-1.29,4.56-5.47,0-6Z"/>
      <path d="M181.07,64.25c5.13-.71,12.62,1.23,15-4-52.3,8.48-106.07,6.01-153-1,38.94,11.36,96.73,10.72,138,5Z"/>
      <path d="M58.07,87.25c10.81,1.17,12.53-8.03,8-15-10.19-5.64-16.42,10.68-8,15ZM60.07,84.25c-7.28-1.51-.94-15.46,5-10-.04,4.96-3.16,6.84-5,10Z"/>
      <path d="M162.07,88.25c3.85-4.65,3.41-11.36-1-15-15.28-4.57-14.67,20.56,1,15ZM153.07,85.25v-9c3.92-.91,6.24-1.22,9,1-2.54,3.21-3.81,10.46-9,8Z"/>
      <path d="M114.07,107.25c3.14-3.2,2.28-10.39,8-11,6.06.94,4.48,9.52,9,12,1.56-18.17-20.55-17.18-17-1Z"/>
      <path d="M124.07,112.25c-2.15-5.13.23-6.5,2-10-2.88.12-6.55-.55-8,1,3.99,3.23-.38,8.74,6,9Z"/>
      <path d="M93.07,108.25c.49,3.16-1.8,3.53-1,7,3.32,1.23,2.45-6.76,1-7Z"/>
      <path d="M99.07,108.25v7c2.9-.21,4.58-7.87,0-7Z"/>
      <path d="M128.07,127.25c-.08-2.97-6.37-4.89-8-3,3.01.66,3.49,3.84,8,3Z"/>
      <path d="M130.07,130.25c.17-1.16,1.58-1.09,3-1-.78-2.22-.58-5.42-3-6,.04,3.12-2.03,4.3,0,7Z"/>
      <path d="M117.07,131.25c9.66-6.63,2.6,12.05,9,12,.37-3.96-2.34-6.11,1-8,1.48,1.18,1.56,3.78,3,5v-7c-5.95-1.71-9.32-6.01-14-9-2.98,2.28-1.38,5.05,1,7Z"/>
      <path d="M179.07,155.25c-7.68,2.65-13.25,7.42-20,11,8.56-1.77,16.26-4.41,20-11Z"/>
      <path d="M178.07,162.25c1.42,2.4,7.39-1.84,4-4-.9,1.76-3.68,1.65-4,4Z"/>
      <path d="M138.07,171.25c5.26.01,14.81-.31,20-5-5.75,2.59-15,1.67-20,5Z"/>
      <path d="M170.07,171.25c-8.57,6.77-24.15,6.51-35,11,15.73-1.1,25.04-3.4,37-9-.11-1.22-.3-2.37-2-2Z"/>
      <path d="M131.07,220.25c.46-3.13-.87-4.46-4-4-.52,1.48-1.48,2.52-2,4,2.93.9,3.07.9,6,0Z"/>
      <path d="M133.07,223.25c-2-1.71-8.11-1.46-9,1,2.73,1.13,6.42.62,9-1Z"/>
      <path d="M122.07,236.25c4.96-2.04,12.21,1.6,16-3-2.37,0-13.95-.64-16,3Z"/>
      <path d="M142.07,262.25c-4.38.28-10.02-.68-11,3,1.75.51,11.14,1.56,11-3Z"/>
      <path d="M146.07,266.25c-4.33,1-8.63,2.04-12,4,5.43.09,11,.34,12-4Z"/>
      <path d="M146.07,271.25c-6.74.59-10.74,3.92-19,3,3.71,4.12,17.34,1.52,19-3Z"/>
      <path d="M146.07,277.25c-6.44,2.89-17.26,1.41-23,5,6.59,1.24,19.16-.16,23-5Z"/>
      <path d="M147.07,282.25c-.22-.78-.03-1.97-1-2-5.29,5.04-15.22,5.44-25,6,6.81,4.66,22.02.8,26-4Z"/>
      <path d="M127.07,307.25c.32,2.65-5.6-.94-4,3h12c-.71-5.1-4.22-2.22,0-6-6.16.17-13.27-.6-16,3,3.02.93,7.78-1.43,8,0Z"/>
      <path d="M135.07,312.25c-2.84-1.6-11.57-1.99-12,2,5.15.98,8.35.58,12-2Z"/>
      <path d="M126.07,318.25c1.12,1.8,14.15-.49,8-3-.49,3.18-9.02-1.68-8,3Z"/>
      <path d="M130.07,323.25h7v-2h-7v2Z"/>
      <path d="M132.07,325.25c-.95,3.61,3.94,1.39,6,2,.95-3.61-3.94-1.39-6-2Z"/>
      <path d="M186.07,393.25c1.23-1.18,4.94-4.95,2-7-3.09,1.57-3.29,18.28-2,7Z"/>
      <path d="M114.07,400.25h14c-.05,1.28-1.28,1.38-1,3,4.98-1.31,4.25,3.08,8,3-2.6-8.18-13.95-12.13-21-6Z"/>
      <path d="M69.07,407.25c3.71-1.79,9.49-1.26,10,3-6.98,3.29-1.18,1.89-1,8-2.39.61-7.26-1.25-8,1,4.5,2.59,6.62.94,11-1,8.34-20.08-24.65-15.68-12-1v-10Z"/>
      <path d="M167.07,423.25c-10.88-3.24-9.47-20.57,3-18-12.97-8.13-19.3,18.82-3,18Z"/>
      <path d="M134.07,409.25c-.44-2.89-2.11-4.56-5-5,.92,2.41,2.59,4.08,5,5Z"/>
      <path d="M168.07,415.25c4.11,1.88,4.05,4.43,1,7,2.83.83,2.59-1.41,5-1-1.59-3.83,3.8-12.55-3-15,3.65,5.08-1.79,5.8-3,9Z"/>
      <path d="M109.07,418.25c-.16-1.18.17-2.84-1-3,.35,4.65.43,9.57,3,12,1.58-3.42,3.29-6.71,6-9-3.6-.35-4.82-1.53-8,0Z"/>
      <path d="M126.07,425.25c-1.29-1.71-2.07-3.93-5-4-.79,2.18-.09,5.78-4,7,1.87.8,3.66,1.67,6,2-1.06-3.73,3.75-1.58,3-5Z"/>
      <path d="M216.07,433.25c-4.27,2.39-12.01,1.32-15,5,1.51-.77,17.15-.63,15-5Z"/>
      <path d="M198.07,437.25c-1.67,1.33-6.36-.36-6,3,1.67-1.33,6.36.36,6-3Z"/>
      <path d="M187.07,448.25c10.82-3.36,23.39-1.15,30-7-9.94,2.4-22.85,1.82-30,7Z"/>
      <path d="M218.07,448.25c-11.26,2.74-23.11,4.89-34,8,10.62.54,26.12-2.48,34-8Z"/>
      <path d="M44.07,463.25c-10.06-2.39-19.8-8.07-28-8,14.26,7.07,31.72,10.95,50,14-5.34-5.29-14.12-4.13-22-6Z"/>
      <path d="M212.07,461.25c-9.95,4.05-23.15,4.85-32,10,10.88-2.46,28.42-3.58,32-10Z"/>
      <path d="M227.07,466.25c-18.69,7.65-41.76,10.91-63,16,21.2-1.16,47.9-5.41,63-16Z"/>
      <path d="M95.07,472.25c-9.74-2.37-15.53-2.51-26-4,4.43,4.51,21.69,5.92,26,4Z"/>
      <path d="M177.07,470.25c-7.96,2.59-29.04.13-38,5,11.15-.78,27.94-.29,38-5Z"/>
      <path d="M64.07,473.25c2.41,1.3,9.02,3.59,12,1-3.6-.11-8.97-3.64-12-1Z"/>
      <path d="M96.07,472.25c8.31,4.74,32.31,4.28,42,1-10.53,1.41-26.34-1.75-42-1Z"/>
      <path d="M177.07,485.25c16.39-.82,38.06-4.46,50-13-15.23,5.77-33.85,8.15-50,13Z"/>
      <path d="M77.07,474.25c12.44,4.71,30.22,6.74,45,7,13.61.24,24.95-.47,36-4-26.7,2.41-57.43.98-81-3Z"/>
      <path d="M166.07,478.25c2.55-.45,4.6-1.4,6-3-3.04-.04-6.58-.58-6,3Z"/>
      <path d="M175.07,484.25c-4.02.32-7.97.7-10,3,4-.33,9.95,1.29,10-3Z"/>
      <path d="M225.07,426.25c-9.3-26.5-32.26-45.34-50-64-14.46-15.21-28.79-37.01-31-56-1.54-13.27,7.74-15.71,11-24,3.51-8.91,3.05-21.14,1-29-3.78-14.45-22.21-34.94-17-51,1.83-5.65,6.66-5.32,12-11,27.07-6.3,40.98-22.73,49-45,12.84-35.65,5.32-91.19,16-127-7.77-10.17-22.43-12.36-40-15-40.39-6.07-86.71-5.26-120,0-10.41,1.64-21.91,6.15-27,15,7.24,30.38,2.51,71.79,7,101,3.53,22.96,17.2,48.62,31,60,10.77,8.88,26.71,7.74,38,20,3.49,22.58-7.51,38.18-18,50,1.14,5.46-2.49,11.09-1.63,14.9,0,0,0,0,0,0,1.42,16.34,15.31,30.02,14.63,42.1-.29,5.21-5.36,16.31-8,21-7.45,13.25-24.88,27.19-39,42-13.56,14.23-29.13,30.31-37,45-3.17,5.91-6.23,13.91-7,20-.65,5.13,1.84,10.89,1,16-1.06,6.5-10.98,10.84-10,19,.9,7.44,19.09,13.01,27,16,40.34,15.26,101.34,19.56,148,13,14.76-2.08,39.43-7.62,52-13,.55-.24,3.72-1.8,4-2,14.6-10.31-.88-20.3-3-31-2.02-10.19-.48-19.83-3-27ZM124.07,194.25c5.26-1.52,15.04-2.62,17,0-5.65-.44-10.79,2.43-17,0ZM204.07,106.25c-3.21.88-1.37-3.3-4-3-4.21,3.64,3.28,3.99,3,7h-6c-.13,3.46,5.21,1.46,6,4-.16,13.51-7.53,19.8-8,33-5.04-.62-3.97-7.37-8-9-.8,2.83,4.08,8.56,5,13-5.19-3.15-8.27-8.4-9-16,.07-4.67,2.29,1.17,4,1-.35-4.65-1.28-8.72-4-11,1.31,1.2,1.57.39,3,0-3.76-17.48,2.61-45.32,17-54,2.21.12.42,4.24,1,6-12.67,7.15-15.58,29.5-12,45-3.52,3.46-.39,9.69,2,13,1.56-19.34.94-39.37,8-55,4.17,5.16,1.02,17.65,2,26ZM55.07,33.25c4.35,1.32,10.27,1.07,15,2-9.74-5.93-26.63-4.7-37-10,.62-2.71-1.27-7.94,1-9,2.84,4.83,3.75,11.58,13,10-1.94-3.06-7.5-2.5-10-5,2.6-3.65-2-4.49,0-7C69.01,3.37,110.02,3.08,152.07,5.25c.63,2.04,5.05.28,4,4,7.73,2.78,18.12-2.53,21,4-11.78-1.82-29.21-.78-44,0,2.33,12.06,38.2,1.63,58,8,3-.66-.96-2.14,0-4,6.74,1.59,5.85-.34,13,0-1.72-3.95-8.19-3.15-12-5,.09,3.31.93,4.29-6,3-.47-2.13,1.43-1.9,3-2-3.71-.95-5.98-3.35-11-3,7.5-1.41,27.68,1.59,33,9,1.48,14.68-26.59,14.04-42,15-34.86,2.17-66.05-.38-97,1,44.14,4.26,96.83,4.52,135-4,1.58,4.58-4.15,1.85-4,5-1.47,5.65,7.08,18.78-2,22-1.47,3.8,4.47.2,3,4-44.13,10.16-125.48,13.85-168-3-.09-4.51,3.02.44,6-1-.52-3.82-7.72-.94-6-7,.57-5.4,3.39,5.12,6,1,3.1-4.9-5.64-5.35-6-10,1.62-.28,1.72.95,3,1-2.13-4.2-3.58-9.08-4-15,10.59.41,16.02,5.98,21,12,3.36-2.16-1.31-4.59-1-7ZM190.07,17.25c-11.69,1.55-30.42-2.35-48-1,13.52-3.97,34.65-1.5,48,1ZM186.07,80.25c-1.6,2.89-3.74,1.21-6,0v-6c2.79-1.27,4.94-2.46,8-1-.73,1.69-5.3,4.59-2,7ZM47.07,135.25c-1.23.44-2.05,1.28-2,3-6.23-7.71-5.46-25.02-7-32,2.93.9,3.07.9,6,0,4.92,7.46,1.26,23.51,3,29ZM54.07,142.25c-1.8-2.69-3.29,3.3-5,4-3.14.14-3.44-2.56-4-5,.15-3.56,6.56-6.05,3-10,3.8,1.3,3.07-7.44,3-13-.44-1.48-1.28.39-3,0v-5c6.82,4.08-.16-12.09,0-17-2.64,2.07-2.11,2.64-5,3,1.28,2.6,2.19,3.02,1,6-2.63.3-3.28-1.38-3-4-2.13-.47-1.9,1.43-2,3-4.98-1.75-2.65-12.71-2-19,3.21,1.79,3.42,6.58,6,9,3.49-2.29-2.36-3.54-1-7,1.48.52,2.52,1.48,4,2-.58-2.75-2.49-4.18-3-7-1.17.16-.84,1.82-1,3-6.7-1.42-6.78-12.11-6-18,16.6,10.51,22.35,40,20,61,2.55-.11,1.98-3.35,2-6,3.71,6.13.49,26.62-8,30-2.13-3.37,2.43-7.15,4-10ZM75.07,180.25c-7.4-8.27-17.41-13.92-23-24,19.19-25.65,5.56-76.22-16-93,27.38,7.82,55.48,9.31,89,10-8.71-.31-19.6,6.24-26,12-.66,8.34-6.14,11.86-6,21,.81-22.89,33.21-42.14,50-23,14.41,16.44,8.84,60.4-5,71-26.67,7.8-40.84-10.97-44-33-1.06,17.46,12.6,38.61,33,38,35.33-1.05,35.58-78.9,4-86,13.17-.64,31.95-3.04,49-3,.29,3.62-2.8,3.87-3,7,3.13,14.69,19.33,1.5,11-9,6.27.04,13.43-3.58,17-3-22.32,16.16-34.62,69.46-14,89-8.15,24.93-42.29,40.72-83,36-12.84-1.49-23.5-7.47-33-10ZM88.05,268.14c-1.6-10.24,2.64-22.43,11.01-25.89,9.4,6.3,36.29,8.24,44-1-10.69,3.12-39.41,7.86-43-5,11.82,5.76,30.97,7.42,42-1-10.53,3.9-31.05,5.08-39-2,6.72-9.48,4.12-24.39,6-37,7.65,1.22,18.73-1.64,27,1-1.44,15.62,2.59,27.82,8,40,.47,1.06-.58,3,0,4,2.46,4.21,7.28,6.27,9,11,3.16,8.71-.73,16.1,1,26-4.8,2.82-4.39,7.78-10,11-8.76,5.04-34.42,5.79-45,0-6.18-3.38-8.22-15.4-11.01-21.11ZM180.07,493.25c-57.16,10.25-131.81,2.34-174-18,1.28-3.95-2.91-2.42-3-5,2.14-8.72,7.44-13.05,12-17-5.1-8.23-4.49-29.23,5-32-2.06-10.56,10.05-9.14,10-21,8.35-2.84,10.21-12.58,16-18,1.27-1.19,6.15,1.41,4-3,4.69,3.49,3.48,11.72,3,18-3.8.8-1.27-4.73-2-7-2.84,1.82-.92,8.41-5,9v-10c-3.12.55-1.53,5.8-3,8-3.16-.49-3.53,1.8-7,1-.41,5.04,6.17,2.28,8,1,2.21.12.42,4.24,1,6,1.89,2.15,3.82-4.12,5-6,2.66,3.05-2.42,6.87-3,10-4.49-.49-7.49.51-11,1-.4-2.4,4.55.55,3-3-6.74-4.38-8.52,4.79-13,6,17.93,4,30.14-7.21,30-24-.04-4.84-5.52-9.83-1-14,10.86,22.99-3.47,51.49-34,46,26.99,12.14,49.96-22.14,36-48,16.26-23.08,42.15-36.52,46-72,5.78-2.02,20.59,2.85,25-1-2.45-5.34-27.65,3.97-29-8,13.52,3.72,31.5,3.96,45,0-1.88,5.45-9.34,5.32-15,7,1.63,4.45,7.24.51,10,0,5.86,39.26,33.82,62.01,56,90-1.77,7.27.94,17.37,3,24-4.26-2.74-4.05-9.95-4-17-5.6,15.41,5.43,31.13,24,29-7.38-1.62-9.86-8.14-17-10,.07-6.55,1.26-7.6,1-11-.87-2.95-1.5,2.32-4,1-1.17-5.89.94-8.89-3-12,8.85-.18,8.78,8.55,14,12-6.54,2.08-2.47,14.28,5,14,2.94-4.73-8.26-2.74-6-10,7.51-.77,11.51,14.81,13,20-21.13,3.76-36.99-6.32-35-29-8.1,19.45,13.3,36.39,36,32,3.42,8.21,2.43,13.15,2,24-1.74,2.92-7.41,1.92-9,5,2.66,2.92,4.94-3.01,10-1-14.51,7.49-33.52,10.48-51,15,14.83,1.4,36.78-7.14,52-12,25.24,20.15-28.25,26.82-46,30Z"/>
      <path d="M157.07,31.25c21.01-1.16,38.47,1.33,51-8,.73-1.63-1.99-4.35-2-2,2.61.81-3.23,1.29-3,3-48.56,9.31-103.31,8.03-155,1,6.59,4.9,16.22,5.19,24,6,31.55,3.27,56.06,1.6,85,0Z"/>
      <path d="M123.07,61.25c6.94,1.61,2.46-8.21,10-6-.98,3.96-.55,7.27,3,9,.34-4.33-1.14-10.48,2-12,1.01,4.65,1.99,9.34,8,9,.28-3.58,3.5-7.77,1-11-4.91-.96-1.44,4.91-3,5-2.43-4.21-1.75-6.03-3-12,3.06-.73,2.94,1.73,6,1-.13-3.2-2.27-4.4-6-4-.49,4.18-3.35,5.98-4,10-.82-3.18-.64-7.36-2-10-5.3-.3-2.15,7.85-3,12-1.89-.22-2.21,1.13-4,1-1.4-1.93-.55-6.12-5-5v13Z"/>
      <path d="M87.07,76.25c3.02.31,7.78-1.11,8,2-2.07,1.6-1.23,6.1-3,8-2.48.15-4.15-.52-5-2-.59-2.07,1.24-6.57-1-7-4.97,9.86,6.06,13.63,12,8,2.98-9-7.1-16.29-11-9Z"/>
      <path d="M114.11,115.07c1.15-4.76-3.12-4.12-3.04-7.82-2.36-.02-2.94,1.72-6,1-1.63-2.36-1.74-9.88,1-11,1.45.55,5.17-1.17,5,1-.71,3.53-1.01,3.52-2,8,4.62-5.97,6.03-19.62,19-14,.57-8.91-5.62-1.04-11-4-.71,3.99-6.26,8.36-11,5,3.65-12.31,31.08-13.85,32,2-3.44.44-5.6-.39-8-1,1.75,3.92,2.1,9.23,5,12,1.31-4.24-3.05-7.92,1-9,6.02-1.26,6.3,8.95,3,11-3.74-.09-2.85-1.12-6,0,.71,2.49-4.4,4.11-1,6-.75-7.62,9.01-.81,10-5,1.22,9.84,1.62,22.59-4,30-1.08-7.08,1.46-10.54,3-15-7.54.85-6.29,14.51-6,20-5.58,1.68-8.57,3.24-14,4-3.41-4.25,0-11.23-7-14-.1,1.57.13,3.47-2,3-1.44-.56-2.44-1.56-3-3,1.08-2.04,4.79-4.09,2-7-4.92-1.59-1.5,5.17-6,4-2.2-3.8-3.42-8.58-3-15-4.84,19.21,10.61,35.36,32,35,18.21-14.83,16.93-60.32-4-72-17.59,1.41-28.8,9.2-31,26,3.35,6.24,11.06,4.85,15.04,9.82ZM116.07,145.25c-1.71-1.29-3.93-2.07-4-5,2.81.19,4.26,1.74,4,5Z"/>
      <path d="M111.07,125.25c4.08.74,3.44-3.22,8-2,.32-2.35,1.58-3.75,1-7-2.4-2.06-2.15-1.45-5.83-1.02.79,1.04,1.43,2.33,1.83,4.02-.24,3.43-7.13.2-5,6Z"/>
      <path d="M114.24,115.23c-.04-.06-.09-.11-.13-.16-.02.06-.02.12-.04.18.06,0,.11-.01.17-.02Z"/>
      <path d="M138.07,114.25c-1.39,6-4.84-.16-8,2-1.98-1.35.31-6.98-3-7-.53,2.8-1.47,5.2-2,8,5.04.29,4.32,6.34,12,4-.89-2.98,3.12-6.09,1-7Z"/>
      <path d="M177.07,150.25c-6.45,2.89-12.64,6.03-18,10,7.18-2.15,13.39-5.28,18-10Z"/>
      <path d="M177.07,163.25c-5.59,1.75-9.92,4.74-14,8,6.26-2.67,10.34-2.11,14-8Z"/>
      <path d="M177.07,166.25c1.87,4.54-3.97,1.36-3,5,2.76-.3,7.49-3.77,5-6-.22.78-.84,1.16-2,1Z"/>
      <path d="M187.07,487.25c-6.96,1.41-15.8,2.23-22,6,25.02-2.31,47.06-7.61,65-17-1.28-.05-1.38-1.28-3-1-11.44,7.5-25.42,9.05-40,12Z"/>
      <path d="M102.07,442.25c19.75,12.5,45.21,3.95,49-16,4.21-22.18-19.59-48.3-42-34,25.67-11.12,47.08,18.34,40,37-1.05,2.77-7.9,10.3-12,13-15.47,10.21-40.5-.76-44-18-1.14,10.14,6.64,11.36,9,18Z"/>
      <path d="M93.07,421.25c-2.21-9.89,5.44-15.2,4-21-2.1,5.15-11.07,16.32-4,21Z"/>
      <path d="M110.07,411.25c1.17.17,1.09,1.58,1,3,3.27-.12,3.72-8.22,7-5-3.08,2.82,1.5,6.44,5,6,1.27-4.64-.1-9.85-4-12-.78,4.89-6.65,4.69-9,8Z"/>
      <path d="M115.07,436.25c19.29,4.39,29.47-14.06,22-26,.49,3.51,1.49,6.51,1,11-4.7-1.7-1.3,4.7-6,3,.86-5.19-1.47-7.19-4-9-.98,1.02-1.98,2.02-3,3,.93,4.4,6.23,4.44,6,10-3.51,1.49-7.25,2.75-9,6-19.55,2.55-22.36-24.13-11-33-8.69,2.41-12.38,16.9-8,26,2.77,5.76,9.92,4.71,12,9Z"/>
      <path d="M220.07,454.25c-5.98,1.69-12.62,2.71-17,6-7.06-.93-10.46,2.01-15,3-5.63,1.23-14.24-.61-14,4,16.67-3,34.54-4.79,46-13Z"/>
      <path d="M60.07,471.25c-16.81-3.52-32.53-8.14-47-14,10.95,8.72,31.45,13.22,47,14Z"/>
      <path d="M136.07,229.25c-7.82,1.6-4.71-5.23-12-2,3.59,4.62-.93.83-2,5,5.17-.49,13.05,1.72,14-3Z"/>
    </g>
  </g>
</svg>