<?xml version="1.0" encoding="UTF-8"?>
<svg id="Layer_2" data-name="Layer 2" xmlns="http://www.w3.org/2000/svg" viewBox="0 0 314.19 710.57">
  <defs>
    <style>
      .cls-1 {
        fill: #fff;
      }

      .cls-2 {
        fill: #554b41;
      }
    </style>
  </defs>
  <g id="Layer_1-2" data-name="Layer 1">
    <g>
      <path class="cls-1" d="M134,340.75c1.11-2.89,2.09-9.53-1-11,2.67,3.16-2.12,7.93,1,11Z"/>
      <path class="cls-1" d="M138,221.75c.25,3.75,1.57,6.43,4,8-.96-3.04.14-8.14-4-8Z"/>
      <path class="cls-1" d="M141,238.75c-.08-3.25-1.28-5.39-4-6h-2c-.73,3.06,1.73,2.94,1,6h5Z"/>
      <path class="cls-1" d="M130,233.75c2.76.24.36,5.64,4,5,1.96-1.18-2.23-7.77-4-5Z"/>
      <path class="cls-1" d="M138,229.75c-2.11-7.68-5.8-7.13-12-7-.4,3.73.8,5.87,4,6,1.53-5.62,2.9,3.78,8,1Z"/>
      <path class="cls-1" d="M115,169.75c.53,4.47,1.14,8.86,5,10-3.96,2.44-1.77,12.05,5,10-1-6-2.65-11.35-2-19-1.45-1.55-5.12-.88-8-1Z"/>
      <path class="cls-1" d="M90,148.75c-3.8,1.47-.2-4.47-4-3-10.43,9.96-.39,26.23,1,39,16.11,23.22,27.85,56.15,51,69-8.65-10.69-20.87-23.12-24-36,6.44,4.56,8.74,13.26,13,20,2.97-5.12-7.64-13.58-7-23,3.29.38,2.02,5.32,6,5,1.31-10.51-7.15-5.08-11-10,5.92-4.22-3.12-6.39-4-10,4.53,1.86,1.74-3.59,4-4,2.04.63.28,5.05,4,4,2.43-1.99-1.69-4.27,2-5,.92,3.08,1.74,6.26,7,5,.04-3.71-1.54-5.8-3-8-5.06,1.39-10.27,3.16-14,0,.87-9.02-1.15-8.95-4-14,1.32-.01.91-1.75,2-2,3.24-1.24.76,3.24,4,2,2.75-2.97-3.33-9.58,0-13,.86,2.81,5.41,1.93,9,2v-6c-1.81-1.86-5.05-2.28-8-3-1.39,1.27-.44,4.9-3,5,.17-2.5-1.54-3.13-3-4-.59,4.59.31,7.69,2,10-.14,1.86-.66,3.34-2,4,1.15-4.82-4.65-2.68-5-6,4.05.39,1.1-6.23,2-9-3.04.04-6.58.58-6-3,7.75-3.01-2.62-11.38-8-11-2.46,1.18,2.05,3.78-1,5ZM114,216.75c-5.96-2.38-7.33-9.34-9-16-4.54-7.33-10.66-17.72-10-27,7.48,14.23,11.91,30.84,19,43ZM96,172.75c-5.06-2.94-5.04-10.96-6-18,4.98,3.02,3.03,12.97,6,18Z"/>
      <path class="cls-1" d="M60,610.75c9.64-14.36,19.25-28.75,27-45,6.88-2.24,6.41-16.76,13-16-5.65,13.96-16.39,26.68-24,40-10.14,17.74-18.95,26.72-4,40,21.59-41.52,40.18-88.72,56-133-6.2,36.63-24.72,64.22-35,99-7.09,9.25-10.66,22.01-17,32,9.33-3.18,22.04-6.3,25-14,7.53-19.61,14.65-43.57,19-60,17.35-49.56,24.44-108.83,21-167-1.53-25.91-.69-55.72,2-82,2.24,11.28.15,28.03,1,38,1.12,13.1-3.3,28.96,3,37-.97-24.48-.04-36.48,0-64,4.97,1.03,11.59-3.75,14,1-4.12-.12-6.26,1.74-11,1,.83,2.83-1.41,2.59-1,5,3.01,3.18,8.68-2.52,9,3-4.52-.19-9.49-.82-8,5,.14,2.86,6.86-.86,7,2-.49,3.84-9.24-.57-7,6,1.29,3.04,6.49-2.73,7,2-3.76.24-8.09-.09-7,5,.76,2.91,8.24-.91,9,2-1.33,2.85-3.92,1.4-9,2,.32,2.32-.16,3.84-1,5,2.39,3.16,7.25-2.37,8,2-1.29,1.38-4.34.99-7,1v7c4.33.74,6.19-2.26,8,1-2.78,2.95-7.62-2.35-8,3-.55,4.55,6.71,1.29,7,5-4,0-7.48.52-7,5,.02,2.98,7.41-1.41,6,3,.17,2.84-6.54-1.21-5,3-1.54,4.87,3.67,3,5,5-.2,3.13-6.54.12-6,4,1.05,5.79,10.24-2.77,11,3-4.53.47-11.08,3.12-13,3-3.31-2.59,2.66-8.52-3-8-.36,9.69.92,17.86,1,25,.74,65.84-18.45,122.53-32,170-.96,3.38-4.76,6.53-6,10-.69,1.93.62,4.65,0,7-1.9,7.18-7.23,11.77-7,17,.38,8.85,15.77,24.99,29,29,17,5.15,35.76,2.7,54,0,13.27-6.73,23.97-16.03,32-28,1.4-2.87-2.73-5.08,0-6,2.66,9.34,14.21,9.79,22,14-.53-2.8-1.47-5.2-2-8,2.88.12,1.74,4.26,5,4,5.56-10.79,7.3-23.3,2-34,2.67,3.66,4.49,8.18,6,13,8.11,3.85,30.38,4.75,36-5-6.46,2.87-12.34,6.33-23,5,.58-3.25-.68-4.65-1-7-2.96-.7-4.35-2.98-9-2-28.91-54.2-59.14-107.68-62-183-3.24-1.24-.76,3.24-4,2-.64-4.36,1.3-11.3-1-14-.27,4.73-2.75,11.46-1,15-1.26-.41-2.04-1.29-2-3-2.15-.56-1.12,5.03-1,9,1.72.39,2.56-1.48,3,0-.08,1.74.22,3.11,1,4-1.71,3.26-3.93-3.91-4,1,.74,2.26,3.81,2.19,4,5-2.17,22.03,9.68,40.77,5,56,.96,1.71,3.32,2.01,4,4-5.66,3.07,2.99,14.02-2,17-15.88-54.91-15.65-126.12-15-193,4.55,3.93,1.29-1.52,5-3,1.9,21.77.94,51.72,1,72-.96-2.71-1.62-5.72-3-8,.82,4.52-1.93,12.59,2,14,.55-1.45-1.17-5.17,1-5,1.97.69-.25,5.58,2,6,2.07-11.74-1.54-25.41,2-33,2.26,12.9-1.37,25.86,1,39-.83,2.37,1.41,4.61,1,1,.4-31.61,6.71-75.52,0-113-1.99-2.43-4.27,1.69-5-2,4.61-6.99-.45-20.61-12-18,1.08,12.05,11.93,23.43,7,35-2.04-12.96-5.41-24.6-11-34-9.92,1.56-18.71-1.05-24,4,.97-3.97-2.9-3.1-5-4-12.17,4.12-2.18,16.15-5,26-.96-4.94-1.3-5.13-2-11-6.16,7.03-6.94,18.85-7,29-.19,32.53,4.83,71.6,6,100,5.41.75,3.63,7.87,7,13-1.97.3-1.98-1.35-3-2-.83,4.08-.15,3.44,0,8-2.16-.42-6.27,1.33-3,5,.11-3.69,1.83-2.89,3-1,.87-2.47-.26-6.92,3-7-.25,16.09,1.6,34.27-5,44-1.06-4.21,7.28-24.03-2-29-2.67,14.99-5.39,27.78-7,41,2.5-4.16,2.14-11.2,5-15-1.79,21.55-9.32,37.34-18,52,.1-4.57,3.94-5.39,3-11-9.1,11.56-14.96,26.38-20,42-1.89-.22-2.21,1.13-4,1-12.7,19.64-30.25,34.41-48,49,2.73,3.49,9.54.29,12,2-2.61,8.45-15.12-3.45-19,3,5.26,6.91,13.6,5.3,25,5ZM188,325.75c-1.85,10.35,3.57,25.43-2,30-.28-12.9.42-21.82-1-30h3ZM186,311.75c-3.33-.02-2.4-7.3-2-8,3.11.22,1.69,4.98,2,8ZM186,289.75v8c-4.37,1.18-4.37-9.18,0-8ZM180,302.75c2.26.86,3.68,5.21,2,7-2.86-.14-1.83-4.17-2-7ZM147,402.75c2.68-2.56,5.27.6,9,0-.1,2.57-3.9,1.43-4,4,.11,2.55,3.35,1.98,6,2-1.27,2.4-5.97,1.37-6,5-.4,3.73,6.25.42,7,3,.8,3.8-4.73,1.27-7,2-.15,2.81,2.45,2.88,5,3-.79,2.21-4.7,1.3-5,4-.38,6.29,6.77-.91,6,5h-6c-1.27,5.27,2.6,5.4,7,5,.2,4.53-9.29-.62-7,6-.17,2.17,3.55.45,5,1,.46,3.12-2.14,3.2-5,3-.42,4.96,3,.57,4,3,.9,3.23-3.26,1.41-4,3-.32,2.65,5.6-.94,4,3-3.19-.85-3.8.87-5,2,.31,2.35,4.74.59,4,4-2.83-.83-2.59,1.41-5,1,.03,2.64-.93,6.27,3,5,1.05,3.72-3.37,1.96-4,4-.95,3.61,3.94,1.39,6,2,1.17,5.17-6.95,1.05-7,5-.7,3.7,3.51,2.49,5,4-1.47,2.2-7.72-.39-6,5-.16,2.83,6.16-.83,6,2-.02,3.98-7.3.7-8,4,.43,2.24,4.93.41,7,1,.06,3.72-4.45,2.88-8,3-2.7,7.37,6.63,2.7,7,7-4.84-.84-7.07.93-10,2,5.8-36.34,9.93-76.85,6-103ZM133,643.75c-11.8-2.2-18.97-9.03-23-19,3.76-.43,3.54,3.13,6,4,3.35-4.59-5.08-4.51-4-10,3.08-.75,1.92,2.75,5,2,0-5.67-4.78-6.56-9-8,14.68-27.14,26.19-69.2,32-105,2.63,1.04,6.14,1.2,10,1-.42,3.58-5.19,2.81-9,3v4c1.62,3.62,4.81-.14,7,2-.83,2.83-6.14,1.19-8,3-1.37,4.37,3.87,2.13,3,6-2.32-.32-3.84.16-5,1v6c.34,1.33,8.2-1.57,10,1-1.47,3.09-8.11,2.11-11,1-1.96,1.37-.54,6.13-2,8,1.84,3.16,11.94-1.94,11,4-3.86-.14-8.78.78-10-2-7.29,22.04-13.13,45.54-24,64,8.06,5.28,13.94,12.72,23,17-3.74,1.05-9.84-4.14-14-6-1.36.31-.83,2.5-1,4,4.38,3.96,9.72,6.95,15,10-5.87,1.98-9.88-7.84-18-5,2.85,7.15,12.48,7.52,16,14ZM145,541.75c-2.27-.73-7.8,1.8-7-2,3.01.05,6.17-2.93,7,2ZM135,609.75c-6.16-.84-9.88-4.12-15-6,3.35-3.68,12.32,2.53,15,6ZM123,596.75c4.49.84,8.1,2.57,11,5-4.08,2.7-10.28-1.02-11-5ZM139,618.75c-6.62.27-16.87-4.46-20-11,7.43,2.9,13.15,7.51,20,11ZM126,592.75c6.37.3,11.47,1.86,14,6-4.8-1.86-11.99-1.35-14-6ZM128,586.75c1.71-2.6,12.39,1.05,14,5-4.95-1.38-10.66-2.01-14-5ZM140,577.75c-2.5,2.44-8.02-.59-10-2,3.49-3.43,6.91,1.7,10,2ZM131,566.75c1.41-.68,8.96-.82,9,3-4.71-1.13-7.01,1.2-9-3ZM141,583.75c-2.55,2.16-8.92-.37-11-2,3.21-2.81,9.57-.28,11,2ZM134,560.75c.45-3.42,6.05-.98,8,0-.52,4.8-5.38-.53-8,0ZM134,644.75c5.8-3.08,11.3,2.45,19,2,1.36-.08,3.92-2.52,6-3,3.02-.7,7.05.52,11,0,11.01-1.46,27.35-9.58,28-13,.59-3.09-6.33-5.96-3-9,2.38,2.62,4.49,5.51,5,10-14.53,12.81-46.07,22.87-66,13ZM195,562.75c-4.29,1.53-3.26-3.84-2-5,1.48.85,2.15,2.52,2,5ZM201,592.75c-2.96-6.48-6.53-17.32-6-24,2.5,7.5,5.28,14.72,6,24ZM199,613.75c5.69-4.91,2.17-9.23,2-18,3.95,2.05,2.12,9.88,4,14-1.91,1.42-2.87,3.8-6,4ZM202,553.75c3.55.59.64,6.31,3,10-3.99-2.06-3.52-5.34-3-10ZM204,568.75c4.8,6.62,6.79,21.1,7,29-3.48-10.03-5.95-18.63-7-29ZM215,613.75c-3.09-2.24-3.55-7.11-4-12,2.65,2.04,5.39,9.24,4,12ZM236,618.75c-3.15-2.51-4.59-6.74-5-12,3.67,1.63,5.35,9.57,5,12ZM239,582.75c2.87,1.13,3.71,4.29,4,8-3.36-.5-6.22-5.05-4-8ZM237,578.75c-2.03-.73-4.08-3.01-2-5,1.97.79,3.59,3.5,2,5ZM231,562.75c2.85,1.81,3.22,6.11,4,10-2.75-1.92-4.65-4.68-4-10ZM218,567.75c4.14,9.86,8.61,19.39,11,31-5.18-8.21-11.47-20.45-11-31ZM226,553.75c-1.89-1.45-4.43-2.23-4-6,2.72.61,3.92,2.75,4,6ZM222,542.75c-2.05,3.56-2.77-2.45-4-3,2.05-3.56,2.77,2.45,4,3ZM218,536.75c-8.51-13.16-15.74-27.59-19-46,5.95,15.05,15.25,32.08,19,46ZM190,454.75h3v4c-2.63.3-3.28-1.38-3-4ZM192,460.75c2.96,4.71,3.14,12.2,5,18-3.8-4.29-5.38-7.99-5-18ZM213,556.75c-9.3-19.38-13.75-37.36-19-61,8.49,18.18,12.96,40.37,19,61ZM202,551.75c-5.53-10.71-6.56-25.72-9-39,6,10,6.32,25.68,9,39ZM193,548.75c-2.57,1.85-2.67-7.29-4-10,4.33.34,1.42,7.92,4,10ZM190,533.75c-4.35-7.7-4.75-17.61-7-26-14.77-55.02-13.15-137-14-189-.17-10.71-.4-24.22-4-32-6.09-1.09-8.97,1.03-11,4,2.16,3.39,6.92-2.05,9,1-6.68,3.49-14.24,1.57-13,14-1.03,3.36,3.11,1.56,5,2-1.13,2.87-4.29,3.71-8,4-3.42-15.99,19.13-48.89,24-16,2.12,14.31.72,30.72,1,45,.47,23.92-.09,47.93,2,74,3.27,40.68,7.04,86.25,16,119ZM177,308.75c-4.78-3.96-2.31-14.45-6-22h3c-.4,7.56,4.16,11.32,3,22ZM159,271.75c.25,3.84-8.59,1.91-10,1,2.1-.96,7.9-3.35,10-1ZM171,281.75c-13.64-10.45-24.39,3.58-26,17-6.08-12.7,16.05-35.69,26-17ZM133,301.75h3c-.77.68-2.6,5.96,1,5-1.22,1.42-3.82,2.27-5,1-.73-3.06,1.73-2.94,1-6ZM135,409.75c-2.46-2.23-1.6-4.62,0-7,4.37-.07,1.16,6.29,0,7ZM134,362.75c7.2,10.51-.49,30.24,2,39-5.98.49-2.59-4.08-3-7-1.27-9.07.05-21.99-1-34-1.55-17.71-3.09-33.8,0-51,3.84-.25,1.91,8.59,1,10,2.13.47,1.9-1.43,2-3,3.26,6.2,1.51,22.08,2,30-3.55,1.55-.6-3.4-3-3-2.7,5.13-1.09,13.9,3,15,1.58,3.91-2.6,2.07-3,4ZM135,354.75v-7c3.16-1.29,3.16,8.29,0,7ZM132,472.75c3.76,5.28,1.09,16.69-4,23,.66-9.5,3.6-12.21,4-23ZM105,534.75c1.51-2.58.24,6.92-3,6-.87-3.87,2.44-3.56,3-6ZM88,556.75c3.78,2.12-3.05,10.03-6,12,.63-5.37,5.47-6.53,6-12ZM53,600.75c.26-3.74,2.32-5.68,4-8,13.31.65,14.96-10.37,20-18,1.55,8.23-8.61,13.38-11,21-7.7-1.7-9.33,2.67-13,5Z"/>
      <path class="cls-1" d="M124,156.75c1.19,2.81,9.47-1.47,9,3-2.88.12-6.55-.55-8,1-.24,6.58,1.76,10.91,1,18,1.76.58,5.88-1.21,6,1-1.28,1.39-4.72.61-6,2-.16,3.16,2.66,3.34,2,7,1.28,1.72,5.98.02,6,3-3.42-1.63-3,.12-5,2,1.91,8.17,7.71,14.48,5,22-2.84-.49-1.44-5.23-6-4-1.57,4.68.83,3.32,1,8,5.71-1.77,5.35-1.37,11,0-1.06-16.71-6.4-35.74-3-49-.68-1.98-5.96.62-5-3,10.73-.06,2.85-26.8-8-19,.89,3.82-1.63,6.38,0,8Z"/>
      <path class="cls-1" d="M107,154.75c2.76-2.5-.46-7.48-4-7,1.23,2.43.84,6.49,4,7Z"/>
      <path class="cls-1" d="M131,207.75c-1.49-.85-1.45-3.22-2-5h-5c-.1,3.1,1.22,4.78,2,7,1.78-.55,4.15-.51,5-2Z"/>
      <path class="cls-1" d="M122,155.75c-.17-2.83-1.83-4.17-2-7h-6c.66,3.66-2.16,3.84-2,7,2.48.87,7.75,1.95,10,0Z"/>
      <path class="cls-1" d="M265,601.75c8.48.81,13.5-1.83,17-6-26.71-13.96-40.61-40.73-58-64,5.33,21.12,18.7,41.64,29,61,7.97-.97,9.92,4.08,12,9Z"/>
      <path class="cls-1" d="M256,171.75c1.06-2.32,3.84-8.09,1-11,.38,3.77-4.37,7.56-1,11Z"/>
      <path class="cls-1" d="M121,492.75c-1.13-3.54,4.2-5.69,1-8-1.43.98-3.6,6.29-1,8Z"/>
      <path class="cls-1" d="M74,178.75c6.76,13.57,11.91,28.75,22,39-5.59-12.81-18.35-30.94-16-45,8.34,25.99,18.85,49.81,36,67,3.97,9.03,13.72,17.61,22,19-26.48-21.52-42.99-53.01-57-87-8.47-4.68-4.24-17.73-5-24-2-2.36-6.96-7-11-4,1.65.14,1.65,6.86,0,7-4.63.3.83-9.5-4-9-6.22,8.4,5.75,22.3,5,35,8.7,27.63,22.64,50.03,39,70-34.13-23.54-38.45-76.89-57-116-3.07.33-4.89-5.69-8-2,6.39,2.95,12.46,11.53,13,17-5.31-5.02-8.72-11.95-16-15,1.87,35.09,12.13,67.35,29,88,5.61,6.87,13.87,14.18,21,16-8.05-6.29-18.68-15.31-20-25,3.6,1.73,3.45,7.22,8,8-9-17.38-21.87-41.4-20-63,5.03,25.97,13.03,48.97,26,67,.08,1.74-.22,3.11-1,4,12.65,3.58,12.97,24.04,28,22,3.27,6.39,8.79,10.54,18,11-19.44-23.89-45.69-46.31-52-80ZM64,152.75c.16-1.17,1.82-.84,3-1,1.17,7.28,4.53,17.13,7,26-7.41-4.26-5.49-17.84-10-25ZM42,141.75c-3.58.58-3.04-2.96-3-6,3.58-.58,3.04,2.96,3,6ZM66,208.75c-7.02-3.65-10.27-11.07-12-20,4.98,5.68,7.09,14.24,12,20Z"/>
      <path class="cls-1" d="M249,81.75c-.69,6.69,1.15,10.85,4,14,2.21-4.59-.66-11.73-4-14Z"/>
      <path class="cls-1" d="M93,22.75c-3.04-.04-6.58-.58-6,3,3.05.05,5.09-.91,6-3Z"/>
      <path class="cls-1" d="M119,493.75c-1.59,3.77-5.85,10.12-4,14,1.59-3.77,5.85-10.12,4-14Z"/>
      <path class="cls-1" d="M182,402.75c1.38-3.17.48-7.93-1-11,.44,3.71-3.34,9.48,1,11Z"/>
      <path class="cls-1" d="M147,247.75c-.83-3.5-3.99-4.68-7-6-.17,1.5.36,3.69-1,4-1.76-.9-1.65-3.68-4-4-1.97,9,8.96,4.48,12,6Z"/>
      <path class="cls-1" d="M142,233.75c1.47,3.67,4.65,2.69,8,6,.02-6.25-2.64-7.18-8-6Z"/>
      <path class="cls-1" d="M119,202.75c.51,2.49-.03,6.03,3,6-.51-2.49.03-6.03-3-6Z"/>
      <path class="cls-1" d="M152,247.75c.2-2.86.12-5.46-3-5,.92,1.74-.03,5.37,3,5Z"/>
      <path class="cls-1" d="M112,181.75c2.59,1.75-.48,9.15,5,8-1.5-2.21-1.63-10.98-5-8Z"/>
      <path class="cls-1" d="M147,229.75c-.35-2.98-.58-6.09-3-7-.22,3.56.67,5.99,3,7Z"/>
      <path class="cls-1" d="M59,136.75c1.79,2.35,11.54,1.43,15,5-1.28-5.75-8.99-6.87-15-5Z"/>
      <path class="cls-1" d="M231,662.75c7.74,5.59,15.81,10.85,26,14-5.01-7.67-17.8-12.86-26-14Z"/>
      <path class="cls-1" d="M227,660.75c4-9.54-9.11-16.04-11-26-5.05.25-5.74,9.17-10,7-2.53-.68,3.62-3.32-1-4-4.04,7.62-13.74,9.59-20,15-17.68,1.29-34.44,6.96-50,3-17.04-4.34-26.3-18.09-37-28,3.84,8.45,11.25,18.99,19,25,5.27,4.08,15.71,7.73,23,8,21.87.82,38.43-.92,56-11-10.28,10.46-35.95,17.3-57,14-6.83-1.07-12.55-6.78-18-3,.98,2.27,5.01-1.72,5,3-2.2,4.7-15.92-3.59-11-6,.24,1.09,1.65,2.4,2,1,.78-1.17-4.5-4.72-7-2,.08,1.77,2.48,4.23,1,6-5.83-2.84-10.98-6.36-15-11,1.35-3.36-.54-5.29,1-7,4.91,1.08,5.14,6.86,10,8-.4-4.62-10.25-8.41-9-18-4.41-1.07-2.33,4.33-6,4-.49-3.16,1.8-3.53,1-7-9.48,3.52-18.19,7.81-27,12-.52,12.48-11.6,19.73-9,32,7.4-6.27,18.16-9.18,27-14,3.08-6.59,2.05-17.28,9-20,.09,6.55-7.14,12.33-6,19,1.09,6.4,13.36,10.15,18,15,3.29,3.44.96,2.11,6,4,3.37,1.26,7.64,4.85,11,6,29,9.91,68.39,2.63,86-10-22.93,22.45-71.87,21.81-100,8-7.6-3.73-13.71-10.57-21-10,12.2,8.93,26.68,19.7,44,24,40.66,10.09,82.29-9.74,99-33,.88-3.21-2.59-2.07-3-4ZM90,658.75c7.05,5.28,15.49,9.18,22,15-7.26-1.08-18.36-6.97-22-15ZM95,655.75c6.69,3.65,12.23,8.44,19,12-7.19.84-15.89-5.43-19-12ZM114,676.75c6.1-4.03,15.63,4.75,24,5-8.58,2.9-15.8-4.19-24-5ZM116,670.75c5.86-.18,13.92,6.07,22,7-5.23,3.16-17.26-3.11-22-7ZM120,666.75c6.19-.43,12.04,7.57,16,3,2.48,1.18,3.12,4.22,5,6-7.94-2.07-16.23-3.77-21-9ZM210,675.75c2.45-3.22,4.99-6.35,9-8-1.07,4.6-4.75,6.59-9,8Z"/>
      <path class="cls-1" d="M95,106.75c.67,5,8.62,2.71,13,4-1.26-4.05-8.97-5.95-13-4Z"/>
      <path class="cls-1" d="M95,91.75c-.69,6.61,10.62,5.7,14,5,1.63-7.55-10.81-5.51-14-5Z"/>
      <path class="cls-1" d="M47,82.75c.63,4.37-.53,10.53,3,12-.04-4.96.78-10.78-3-12Z"/>
      <path class="cls-1" d="M114,99.75c-1.84,1.82-.53,5.61,1,7,1.36-1.35,1.91-6.98-1-7Z"/>
      <path class="cls-1" d="M95,102.75c3.32,2.59,8.52.38,8-4-2.35-.32-3.75-1.58-7-1,.41,2.41-1.83,2.17-1,5Z"/>
      <path class="cls-1" d="M281,76.75c-.07,3.4-.31,6.98,2,8,1.72-1.62,2.48-4.18,2-8h-4Z"/>
      <path class="cls-1" d="M255,616.75c-1.63,6.82,3.91,14.62,6,21,10.75,4.6,28.29.16,39-4-.41-11.26-6.53-16.8-12-23-6.97,5.91-21.31,7.91-33,6Z"/>
      <path class="cls-1" d="M258,668.75c2.43.57-.47,6.47,3,6v-7c-1.18.16-2.84-.17-3,1Z"/>
      <path class="cls-1" d="M36,113.75v8c8.27,2.73,13.84,8.16,18,15,10.88-10.27,27.87,1.54,27,12,2.3-10.35,16.03-8.47,22-3,3.51-.27-1.81-4.43,1-4,2.63.49,3.37,5.51,6,3,1.96-3.37,6.27-4.4,8-8,11.29-.63,15.16,6.18,22,10,4.05-15.25,27.72-15.9,35-3,7.78-8.38,25.12-10.29,33-1,2.82-11.04,22.36-16.84,30-6,2.39-11.55,18.32-15.21,27-7,1.99-3.37,7.56-8.41,11-7-8.47,4.2-12.3,13.04-16,22-.77-3.77,1.22-4.78,1-8-2.98-.02-3.4-2.6-6-3-8.3,31.03-16.14,62.52-34,84,12.68-24.65,24.84-49.83,30-82,.72-2.72-4.72.72-4-2,2.68-6.83,12.15.61,15-1-7.24-10.99-25.73-.39-23,10,.79-1.31,1.82-7.39,4-4-8.68,10.32-3.99,34.01-14,43,2.08-8.29,8.65-28.05,5-45-14.29-9.85-24.41,5.65-29,15-5-1.33-4.5-8.17-12-7-1.38,21.95-2.06,44.6-9,61,.53-16.18,7.33-35.36,5-60-5.33-1.94-7.13,4.8-10,2,3.75-8.78,22.65-5.94,26-2-8.75-12.81-32.12-6.03-29.76,11.54.27,1.14.52,2.3.76,3.46-.37-1.2-.61-2.35-.76-3.46-2.64-11.29-6.87-20.98-21.24-20.54-23.35,12.62-14.56,56.46-10,79,1.86-3.95-2.47-14.98,1-17,3.19,17.42,3.73,39.59,12,49-.75-2.53-2.69-10.13,1-11,1.43,6.63,0,9.35,1,18,3.87-.43,3.56-1.1,6,1,11.25-23.54,12.03-67.4,12-93,6.89,19.64-.84,52.88-2,74,.24-1.09,1.65-2.4,2-1,.35,1.33-4.5,10.33,2,7-3.37-4.56,9.68-18.72,13-33,3.04-13.05,5.6-21.91,6-33,5.24-2.89-.16-16.8,6-21,1.4,6.59-3.16,15.2,2,14-1.51,4.15.35,11.68-5,12,.5,3.49,2.43,9.15-3,9,4.33,5.27-1.52,8.92,0,17-7.09,2.08-3.73,13.39-9,21-.4,2.4,4.55-.55,3,3-1,1.33-1.65,3.02-3,4,0-3.52-4.98-3.97-6-1-.47,5.28,2.69-2.32,3,1,.06,7.73-4.47,10.87-6,17,3.78-1.45,1.92,2.75,5,2,3.3-1.99-2.48-4.27,0-5,4.45,3.09,12.67-6.01,17-7-3.09,7.24-10.77,9.9-15,16,2.68,1.95,4.14-4,7-5,1.89.22,2.21-1.13,4-1,2.96-6.12,10.28-7.61,15-12,10.07-9.37,16.14-22.34,26-32-9.56,20.44-24.47,35.53-43,47,10.27-1.4,14.69-8.65,21-14,.49,1.18,1.07,2.27,2,3,.91-10.76,9.55-13.78,14-21,3.51.27-1.81,4.43,1,4,5.58-1.11,6.7-11.95,12-10-5.75,8.91-14.68,14.66-21,23,25.37-13.97,39.17-39.5,51-67,1.85-16.17,10.08-32.49,5-46-2.23,2.1-1.33,7.34-4,9-.12-2.55-.19-5.15-3-5-8.12,2.21-4.76,15.9-12,19,2-13,8.01-21.99,20-25,3.27-6.29,2.38-10.68,3-19-1.5-.17-3.69.36-4-1,.4-2.93,3.28-3.39,4-6-29.14,14.16-66.79,20.42-102,21,32.18-3.49,61.97-9.36,90-17,3.64-5.7,12.96-5.71,12-16-2.49.7-4.11.98-6-1-3.48-7.52,3.47-11.36,6-16-1.35-3.77-3.41-4.61-6-5,1.72-1.94,4.1-3.23,3-8-22.13,15.54-57.17,23.49-90,25,19.49-2.99,44.01-8.42,63-15,12.31-4.27,25.18-6.68,25-19-11.76,13.58-35.21,15.46-54,22-37.67,7.33-78.86,6.29-120,6-17.96-4.87-61.29-6.29-62-25-.1-2.63-.07-9.28,6-8-1.73,2.27-2.41,5.59-2,10,6.9,8.04,19.44,14.86,33,13-1.86,7.23,11.53.97,14,2-.01,1.32-1.75.91-2,2,25.67,3.7,70.85,4.93,104,2,13.93-1.23,27.18-4.29,36-9-3.04.04-6.58.58-6-3,3.73-2.49,7.23,2.35,10,4,2.49-.51,6.03.03,6-3-5.54-1.13-11.17-2.16-15-5,8.12-4.39,13.37,4.82,21,5,9.92.23,19.55-7.99,27-13-3.04-8.73-19.89-13.74-24-21,8.47,3.2,17.47,11.19,24,13C227.42,1.8,125.74-1.05,71,25.75c-18.04,3.35-30.18,14.3-31,32,12.55,14.88,40.42,24.78,65,21-.04,1.38.47,2.2,1,3,3.42.75,1.27-4.06,5-3,18.65,8.68,53.76.9,77,5-26.3,4.13-57.04.3-87,3,2.61,5.77,4.89-.14,10,0,4.13,3.43-.26,9.53,5,11,1.14-2.03-3.15-7.27,2-9,5.04,5.04,4.09,17.47,2,23,1.18,1.15,3.53,1.13,6,1-.48-4.86,1.77-12.44-3-13,6.39-.97-1.91-11.02,7-10,1.21,6.46,2.28,13.05,7,16,3.22-5.16-2.87-13.49,3-16,3.31,7.21,2.01,19.9,1,30-4.59-4.75-5.61-13.06-11-17-1.26,3.49,1.91,14.57-2,16-1.74-3.87-8.26-3.87-10,0-4.4-5.19-19.83-9.27-26-3-4.29-6.04,1.28-19.51-3-27,.28,2.28-.24,3.76-2,4-3.61-4.85,1.66-7.93,5-9-7.48-2.52-18.18-1.82-23-7-15.28.89-22.36-11.56-31-14-1.13,3.14.29,2.64-1,5,2.95,1.75,10.47,4.15,7,9-3.66,0-1.47-5.87-6-5-1.1,2.9-.9,7.1-2,10,.74,1.59,4.9-.23,4,3-6.15,1.59-4.18,11.75-4,17,24.32,15.61,56.2,19.23,90,19-.08,1.74.22,3.11,1,4,17.63.63,34.19-5.13,50-3-42.77,9.94-106.46,2.83-141-16,1.92,6.21,10.14,10.76,16,13,26.47,10.11,56.42,7.3,86,13-37.18,1.27-74.47-3.22-102-18ZM103,140.75c-5.66-2.49-18.14-.2-21,0,6.66-6.3,25.48-7.63,32-3-4.63.52-11.07-3.73-11,3ZM144,196.75c-3.01-4.35-1.33-7.79-2-15,4.52,1.76,2.89,10.57,2,15ZM155,147.75c3.69,6.81,1.31,24.53,1,32-3.73-4.39.79-22.96-1-32ZM158,232.75c-5.16-17.53-1.75-36.56-3-52,.89.44,1.79.88,2,2-1.55,14.58,3.45,37.58,1,50ZM162,252.75v-5h3c-.12,2.55-.19,5.14-3,5ZM165,244.75c-.62-14.39,4.59-40,8-57-3.74-14.99,1.09-38.25-13-45-3.04-.38-1.7,3.64-4,4-8.21-10.92-14.13,17.57-12,33-6.73-12.34-1.42-34.29,8-40,4.97-.31,9.17.16,13,1,16.58,25.54,6.94,75.39,0,104ZM179,227.75c-2.27-.98-2.48-5.01,1-5,.32,2.32-.16,3.84-1,5ZM223,197.75c1.17-5.5,2.72-10.62,6-14,2.2,4.89-2.7,11.28-6,14ZM228,169.75c-3.9,25.36-20.24,45.33-32,66,1.6-14.48,18.32-27.57,20-42,6.53-5.69,7.93-18.81,12-24ZM207,189.75c3.8-10.2,6.98-21.02,11-31,.31,10.32-4.09,24.57-11,31ZM205,165.75c4.28-10.05,6.11-29.31,17-30,11.73-.74,10.8,18.76,7,31-2.95-9.25,3.54-21.84-4-27-1.95,3.05-3.33,6.67-3,12-5.88-2.51,2.02-6.87,0-12-12.51,1.82-8.03,20.64-17,26ZM204,193.75h3c1.45,3.78-2.75,1.92-2,5-2.17.17-.45-3.55-1-5ZM204,199.75c1.38,5.72-4,4.66-3,10-3.13-.02.37-9.23,3-10ZM200,210.75c-1.48,5.52-2.96,11.04-6,15-2.38-1.65,3.03-12.1,6-15ZM187,245.75c2.08-2.92,2.05-7.95,7-8-2.68,2.32-2.34,7.66-7,8ZM192,245.75c-.47-3.14,2.69-2.64,3-5,3.52.55.5,5.57-3,5ZM197,239.75c6-11.08,14.59-20.49,20-31,1.65-3.21,1.76-7.76,6-9-6.61,15.39-13.08,30.92-26,40ZM212,233.75c-3.12,1.21-3.97,4.7-8,5,5.58-5.84,11.17-16.71,17-19-1.52,5.49-9.74,9.57-9,14ZM272,160.75c3.73,5.43-1.95,10.02-3,14-1.79-3.49,2.34-9.63,3-14ZM234,222.75c2.63-4.03,4.08-9.25,9-11-1.68,4.56-5.49,11.53-9,11ZM245,208.75c-4.47-.84,1.76-6.4,1-10-3.64,1.36-3.95,6.05-6,9,4.37-17.68,15.93-42.01,18-62h3c.21,2.87-.25,5.08-2,6,.29,2.04,2.71,1.96,3,4-3.34,19.99-11.18,35.49-17,53ZM263,186.75c2.33,3.71-1.44,9.86-5,11,1.83-3.4,1.59-7.33,5-11ZM216,112.75c-4.37,1.18-4.37-9.18,0-8v8ZM236,94.75c5.13,2.23,1.81,7.31,3,14-4.75-3.09-3.55-9.16-3-14ZM276,67.75c-5.93,6.27-.8,22.75-2,30-4.57,1.17-1.37-21.42-7-28,2.48-1.18,5.89-1.45,9-2ZM260,73.75c3.66-.22,3.84-1.37,7,0,.52,5.85-4.31,6.36-5,11,4.8.83,9.22,14.75,3,17-2.55-1.78.66-9.33-2-11-1.2,2.03,1.53,10.69-2,13-3.21-6.89-4.45-22.64-1-30ZM251,76.75c7.26,7.57,4.29,18.37,3,29-10.07-4.38-8.69-24.39-3-29ZM244,106.75c-6.1-1.98-1.01-13.6-3-16,4.57,2.28,6.59,11.25,3,16ZM233,81.75c2.58-4.09,5.93,4.6,6-2h3c.04,3.29,1.69,4.98,1,9-4.04-.77-5.04-3.5-5,3-3.36,1.89-3.28-4.53-5-1-3.65-2.11,2.3-8.23,0-9ZM231,93.75c2.83,2.48,3.69,11.22,2,15-4-1.67-1.13-10.2-2-15ZM218,82.75c3.7.71,3.75,4.97,6,0,2.36,5.46,5.46,15,3,22-3.25-2.41-2.3-9.03-3-14-6.69,4.11,3.51,19.94-4,22-3.13-7.75,1.58-17.58-4-22-.84-4.18,1.94-4.72,2-8ZM214,93.75c2.99.07,2.67,8.58,1,10-3.84.25-1.91-8.59-1-10ZM205,86.75c3.61,6.16,5.67,18.85,4,27-7.63-2.32-5.01-19.26-4-27ZM234,52.75c-3.81-.19-8.58.58-9-3,3.53.47,9.63-1.63,9,3ZM237,52.75c3.61-2.89,9.19.78,12,2-2.14,4.26-8.95-.87-12-2ZM222,44.75c8.25-3.44,19.28.6,28,3-6.87,1.99-17.55-2.79-28-3ZM236,22.75c-.85,2.36-4.39-.83-6-1,1.39-2.9,4.94.28,6,1ZM253,33.75c-8.07,2.06-17.83-2.83-26-4,8.3-2.29,17.66,3,26,4ZM244,38.75c-4.48,1.45-13.98-.67-19-2,3.59-4.32,12.83,2.3,19,2ZM223,18.75c-14.41.73-32.39-3.6-47-6,12.67-2.94,32.8,3.83,47,6ZM161,11.75c1.51-1.22,8.61-1.96,10,0,.65,3.22-10.65,3.22-10,0ZM79,54.75c1.99-2.67,6.29-3.05,10-4-2.54,1.88-6.56,6.2-10,4ZM101,46.75c-.7,4-9,4.48-11,4,2.93-2.07,6.15-3.85,11-4ZM96,30.75c1.45-1.55,3.9-2.1,7-2-.86,2.26-5.21,3.68-7,2ZM87,34.75c.85-2.15,2.46-3.54,6-3,.03,3.03-3.51,2.49-6,3ZM87,64.75c.68-2.98,3.98-3.35,8-3-1.81,1.86-3.67,3.66-8,3ZM96,55.75c1.89-1.78,4.04-3.3,8-3-.66,2.94-6.21,4.29-8,3ZM155,11.75c-2.23,4.07-11.59,3.5-14,0h14ZM136,13.75c-3.67,1.15-12.58,4.41-19,2,2.85-3.7,15.67-2.04,19-2ZM102,16.75c1.97,2.28,7.3-2.78,8,2-5.05-.71-7.3,1.37-11,2-1.47-3.8,4.47-.2,3-4ZM97,19.75c-2.29,3.08.25,3.2,3,2-2.81,7.47-14.6,5.65-19,9,.4-2.6,3.11-2.89,5-4-5.62-4.24-7.92,3.38-14,2,5.65-5.68,15.59-7.07,25-9ZM59,42.75c-.58-3.92,4.11-2.55,5-5,4.33,1.51-1.67,5.06-5,5ZM71,29.75c-6.1,4.23-12.39,8.27-20,11,4.64-5.03,13.05-11.61,20-11ZM49,105.75c-7.79-5.73-7.6-25.45,1-30,5.98,7.74,1.31,21.73-1,30ZM62,109.75c-9.82-.71-3.91-21.02-4-30,4.35.98.89,9.77,2,14,2.85,4.69,5.17,10.08,2,16ZM63,94.75c-.86-5.86,1.82-8.18,3-12,1.62-.28,1.72.95,3,1-3,2.67-1.8,9.54-6,11ZM81,114.75c-5.21-.46-.79-10.54-6-11-2.21,2.12-.17,8.5-5,8-2.23-3.79-1.39-14.12,0-20,5.6-.27,3.54,7.12,7,9,2.55-3.11,1.95-9.38,2-15,2.32-.32,3.84.16,5,1-2.24,9.15.32,22.39-3,28ZM176,109.75c-3.99-2.68-.81-12.53-6-14-6.4,7.25,3.98,13.65,5,20-1.23.44-2.05,1.28-2,3-10.22-3.44-9.54-23.31-2-29,4.69,2.99,7.31,13.34,5,20ZM186,88.75c1.4,1.95,3.27,6.44,1,9-1.76-.9-1.65-3.68-4-4v6c.15,1.85,3.39.61,4,2-5.51,2.21.92,12.09-4,16-.8-.53-1.62-1.04-3-1,.97-9.11-4.86-26.39,6-28ZM277,106.75h3c-9.92,8.45-27.03,9.43-43,14-6.91,1.98-13.76,5.67-20,7-27.13,5.79-56.07,1.98-78,4,45.86-4.87,101.34-7.7,138-25Z"/>
      <path class="cls-1" d="M266,644.75c8.01,5.89,34.62,4.1,37-8-4.71-2.91-7.41,3.59-12,4-9.24.42-18.38.95-25,4Z"/>
      <path class="cls-1" d="M263,654.75c-4.56-1.23.09,6.76-3,7-2.79-11.73-.6-32.13-10-40-7.42,16,.72,29.31,6,43,3.06-.72,3.64,1.02,6,1,1.85-2.15.67-7.33,1-11Z"/>
      <path class="cls-1" d="M261,645.75c.82,2.51-1.94,8.61,2,8-3.18-3.48,4.51-7.15-2-8Z"/>
      <path class="cls-1" d="M57,614.75c-11.61.94-19.65-1.68-26-6-2.98,10.72,21.55,13.12,26,6Z"/>
      <path class="cls-1" d="M84,665.75c-.32,2.32.16,3.84,1,5,3.05-.83,5.09-.12,6-1-2.99-.68-2.96-4.37-7-4Z"/>
      <path class="cls-1" d="M247,616.75c-1.25,4.3-7.09,13.95-2,18,1.19-4.83,2.81-14.5,2-18Z"/>
      <path class="cls-1" d="M88,629.75c2.84-1.16,7.18-.82,7-5-9.62,2.38-17.49,6.51-26,10-1.82-5.18-4.94-9.06-7-14,.86,7.14,4.15,11.85,7,17,8.74-.26,13.49-4.51,19-8Z"/>
      <path class="cls-1" d="M57,624.75c-8.16,16.57-15.1,29.2-4,46,4.37-10.63,9.26-20.74,13-32-3.69-3.98-3.31-12.03-9-14Z"/>
      <path class="cls-1" d="M252,610.75c7.75,7.03,33.56,4.74,36-6-10.51,4.78-21.63,7.76-36,6Z"/>
      <path class="cls-1" d="M219,625.75c3.21,8.12,14.63,8.04,22,12-3.42-7.91-14.72-7.95-22-12Z"/>
      <path class="cls-1" d="M254,667.75c-2.87-9.47-6.79-17.88-11-26-9.54-.79-12.83-7.84-23-8,1.37,10.29,9.07,14.27,11,24,10.24.76,12.61,9.39,23,10Z"/>
      <path class="cls-1" d="M146,388.75c1.49-.85,1.45-3.22,2-5-1.28-.05-1.38-1.28-3-1-.82.73-2.68,6.92,1,6Z"/>
      <path class="cls-1" d="M27,616.75c-3.64,10.36-12.11,15.89-13,29,6.48,4.19,16.83,4.51,28,4,5.72-9.83,10.42-14.62,12-28-12.27,1.6-19.08-2.26-27-5Z"/>
      <path class="cls-1" d="M43,656.75c.16,9.83,3.56,16.44,8,22-3.38-6.62-2.15-17.85-8-22Z"/>
      <path class="cls-1" d="M53,682.75c8.94-1.8,23.92-6.02,28-16-10.22,4.45-22.87,6.47-28,16Z"/>
      <path class="cls-1" d="M11,647.75c.74,3.08-2.74,1.92-2,5,6.29,3.62,28.21,12.4,32,0-12.76,1.09-22.62-.71-30-5Z"/>
      <path class="cls-1" d="M181,375.75c1.48-1.6.23-6.1-1-8,.61,2.39-1.25,7.25,1,8Z"/>
      <path class="cls-2" d="M171,11.75c-1.39-1.96-8.49-1.22-10,0-.65,3.22,10.65,3.22,10,0Z"/>
      <path class="cls-2" d="M223,18.75c-14.2-2.17-34.33-8.94-47-6,14.61,2.4,32.59,6.73,47,6Z"/>
      <path class="cls-2" d="M155,11.75h-14c2.41,3.5,11.77,4.07,14,0Z"/>
      <path class="cls-2" d="M136,13.75c-3.33-.04-16.15-1.7-19,2,6.42,2.41,15.33-.85,19-2Z"/>
      <path class="cls-2" d="M110,18.75c-.7-4.78-6.03.28-8-2,1.47,3.8-4.47.2-3,4,3.7-.63,5.95-2.71,11-2Z"/>
      <path class="cls-2" d="M236,22.75c-1.06-.72-4.61-3.9-6-1,1.61.17,5.15,3.36,6,1Z"/>
      <path class="cls-2" d="M51,40.75c7.61-2.73,13.9-6.77,20-11-6.95-.61-15.36,5.97-20,11Z"/>
      <path class="cls-2" d="M103,28.75c-3.1-.1-5.55.45-7,2,1.79,1.68,6.14.26,7-2Z"/>
      <path class="cls-2" d="M253,33.75c-8.34-1-17.7-6.29-26-4,8.17,1.17,17.93,6.06,26,4Z"/>
      <path class="cls-2" d="M87,34.75c2.49-.51,6.03.03,6-3-3.54-.54-5.15.85-6,3Z"/>
      <path class="cls-2" d="M244,38.75c-6.17.3-15.41-6.32-19-2,5.02,1.33,14.52,3.45,19,2Z"/>
      <path class="cls-2" d="M64,37.75c-.89,2.45-5.58,1.08-5,5,3.33.06,9.33-3.49,5-5Z"/>
      <path class="cls-2" d="M222,44.75c10.45.21,21.13,4.99,28,3-8.72-2.4-19.75-6.44-28-3Z"/>
      <path class="cls-2" d="M101,46.75c-4.85.15-8.07,1.93-11,4,2,.48,10.3,0,11-4Z"/>
      <path class="cls-2" d="M225,49.75c.42,3.58,5.19,2.81,9,3,.63-4.63-5.47-2.53-9-3Z"/>
      <path class="cls-2" d="M237,52.75c3.05,1.13,9.86,6.26,12,2-2.81-1.22-8.39-4.89-12-2Z"/>
      <path class="cls-2" d="M96,55.75c1.79,1.29,7.34-.06,8-3-3.96-.3-6.11,1.22-8,3Z"/>
      <path class="cls-2" d="M87,64.75c4.33.66,6.19-1.14,8-3-4.02-.35-7.32.02-8,3Z"/>
      <path class="cls-2" d="M49,105.75c2.31-8.27,6.98-22.26,1-30-8.6,4.55-8.79,24.27-1,30ZM50,94.75c-3.53-1.47-2.37-7.63-3-12,3.78,1.22,2.96,7.04,3,12Z"/>
      <path class="cls-2" d="M254,105.75c1.29-10.63,4.26-21.43-3-29-5.69,4.61-7.07,24.62,3,29ZM249,81.75c3.34,2.27,6.21,9.41,4,14-2.85-3.15-4.69-7.31-4-14Z"/>
      <path class="cls-2" d="M58,79.75c.09,8.98-5.82,29.29,4,30,3.17-5.92.85-11.31-2-16-1.11-4.23,2.35-13.02-2-14Z"/>
      <path class="cls-2" d="M233,90.75c1.72-3.53,1.64,2.89,5,1-.04-6.5.96-3.77,5-3,.69-4.02-.96-5.71-1-9h-3c-.07,6.6-3.42-2.09-6,2,2.3.77-3.65,6.89,0,9Z"/>
      <path class="cls-2" d="M66,82.75c-1.18,3.82-3.86,6.14-3,12,4.2-1.46,3-8.33,6-11-1.28-.05-1.38-1.28-3-1Z"/>
      <path class="cls-2" d="M220,112.75c7.51-2.06-2.69-17.89,4-22,.7,4.97-.25,11.59,3,14,2.46-7-.64-16.54-3-22-2.25,4.97-2.3.71-6,0-.06,3.28-2.84,3.82-2,8,5.58,4.42.87,14.25,4,22Z"/>
      <path class="cls-2" d="M79,85.75c-.05,5.62.55,11.89-2,15-3.46-1.88-1.4-9.27-7-9-1.39,5.88-2.23,16.21,0,20,4.83.5,2.79-5.88,5-8,5.21.46.79,10.54,6,11,3.32-5.61.76-18.85,3-28-1.16-.84-2.68-1.32-5-1Z"/>
      <path class="cls-2" d="M209,113.75c1.67-8.15-.39-20.84-4-27-1.01,7.74-3.63,24.68,4,27Z"/>
      <path class="cls-2" d="M180,116.75c1.38-.04,2.2.47,3,1,4.92-3.91-1.51-13.79,4-16-.61-1.39-3.85-.15-4-2v-6c2.35.32,2.24,3.1,4,4,2.27-2.56.4-7.05-1-9-10.86,1.61-5.03,18.89-6,28Z"/>
      <path class="cls-2" d="M171,89.75c-7.54,5.69-8.22,25.56,2,29-.05-1.72.77-2.56,2-3-1.02-6.35-11.4-12.75-5-20,5.19,1.47,2.01,11.32,6,14,2.31-6.66-.31-17.01-5-20Z"/>
      <path class="cls-2" d="M241,90.75c1.99,2.4-3.1,14.02,3,16,3.59-4.75,1.57-13.72-3-16Z"/>
      <path class="cls-2" d="M215,103.75c1.67-1.42,1.99-9.93-1-10-.91,1.41-2.84,10.25,1,10Z"/>
      <path class="cls-2" d="M233,108.75c1.69-3.78.83-12.52-2-15,.87,4.8-2,13.33,2,15Z"/>
      <path class="cls-2" d="M236,94.75c-.55,4.84-1.75,10.91,3,14-1.19-6.69,2.13-11.77-3-14Z"/>
      <path class="cls-2" d="M216,112.75v-8c-4.37-1.18-4.37,9.18,0,8Z"/>
      <path class="cls-2" d="M217,127.75c6.24-1.33,13.09-5.02,20-7,15.97-4.57,33.08-5.55,43-14h-3c-36.66,17.3-92.14,20.13-138,25,21.93-2.02,50.87,1.79,78-4Z"/>
      <path class="cls-2" d="M82,140.75c2.86-.2,15.34-2.49,21,0-.07-6.73,6.37-2.48,11-3-6.52-4.63-25.34-3.3-32,3Z"/>
      <path class="cls-2" d="M39,135.75c-.04,3.04-.58,6.58,3,6,.04-3.04.58-6.58-3-6Z"/>
      <path class="cls-2" d="M156,179.75c.31-7.47,2.69-25.19-1-32,1.79,9.04-2.73,27.61,1,32Z"/>
      <path class="cls-2" d="M67,151.75c-1.18.16-2.84-.17-3,1,4.51,7.16,2.59,20.74,10,25-2.47-8.87-5.83-18.72-7-26Z"/>
      <path class="cls-2" d="M96,172.75c-2.97-5.03-1.02-14.98-6-18,.96,7.04.94,15.06,6,18Z"/>
      <path class="cls-2" d="M218,158.75c-4.02,9.98-7.2,20.8-11,31,6.91-6.43,11.31-20.68,11-31Z"/>
      <path class="cls-2" d="M272,160.75c-.66,4.37-4.79,10.51-3,14,1.05-3.98,6.73-8.57,3-14Z"/>
      <path class="cls-2" d="M105,200.75c1.67,6.66,3.04,13.62,9,16-7.09-12.16-11.52-28.77-19-43-.66,9.28,5.46,19.67,10,27Z"/>
      <path class="cls-2" d="M157,182.75c-.21-1.12-1.11-1.56-2-2,1.25,15.44-2.16,34.47,3,52,2.45-12.42-2.55-35.42-1-50Z"/>
      <path class="cls-2" d="M142,181.75c.67,7.21-1.01,10.65,2,15,.89-4.43,2.52-13.24-2-15Z"/>
      <path class="cls-2" d="M223,197.75c3.3-2.72,8.2-9.11,6-14-3.28,3.38-4.83,8.5-6,14Z"/>
      <path class="cls-2" d="M263,186.75c-3.41,3.67-3.17,7.6-5,11,3.56-1.14,7.33-7.29,5-11Z"/>
      <path class="cls-2" d="M205,198.75c-.75-3.08,3.45-1.22,2-5h-3c.55,1.45-1.17,5.17,1,5Z"/>
      <path class="cls-2" d="M234,222.75c3.51.53,7.32-6.44,9-11-4.92,1.75-6.37,6.97-9,11Z"/>
      <path class="cls-2" d="M179,227.75c.84-1.16,1.32-2.68,1-5-3.48,0-3.27,4.02-1,5Z"/>
      <path class="cls-2" d="M194,237.75c-4.95.05-4.92,5.08-7,8,4.66-.34,4.32-5.68,7-8Z"/>
      <path class="cls-2" d="M195,240.75c-.31,2.36-3.47,1.86-3,5,3.5.57,6.52-4.45,3-5Z"/>
      <path class="cls-2" d="M162,252.75c2.81.14,2.88-2.45,3-5h-3v5Z"/>
      <path class="cls-2" d="M159,271.75c-2.1-2.35-7.9.04-10,1,1.41.91,10.25,2.84,10-1Z"/>
      <path class="cls-2" d="M171,281.75c-9.95-18.69-32.08,4.3-26,17,1.61-13.42,12.36-27.45,26-17Z"/>
      <path class="cls-2" d="M172,340.75c-.28-14.28,1.12-30.69-1-45-4.87-32.89-27.42,0-24,16,3.71-.29,6.87-1.13,8-4-1.89-.44-6.03,1.36-5-2-1.24-12.43,6.32-10.51,13-14-2.08-3.05-6.84,2.39-9-1,2.03-2.97,4.91-5.09,11-4,3.6,7.78,3.83,21.29,4,32,.85,52-.77,133.98,14,189,2.25,8.39,2.65,18.3,7,26-8.96-32.75-12.73-78.32-16-119-2.09-26.07-1.53-50.08-2-74Z"/>
      <path class="cls-2" d="M171,286.75c3.69,7.55,1.22,18.04,6,22,1.16-10.68-3.4-14.44-3-22h-3Z"/>
      <path class="cls-2" d="M186,297.75v-8c-4.37-1.18-4.37,9.18,0,8Z"/>
      <path class="cls-2" d="M137,306.75c-3.6.96-1.77-4.32-1-5h-3c.73,3.06-1.73,2.94-1,6,1.18,1.27,3.78.42,5-1Z"/>
      <path class="cls-2" d="M182,309.75c1.68-1.79.26-6.14-2-7,.17,2.83-.86,6.86,2,7Z"/>
      <path class="cls-2" d="M184,303.75c-.4.7-1.33,7.98,2,8-.31-3.02,1.11-7.78-2-8Z"/>
      <path class="cls-2" d="M134,343.75c2.4-.4-.55,4.55,3,3-.49-7.92,1.26-23.8-2-30-.1,1.57.13,3.47-2,3,.91-1.41,2.84-10.25-1-10-3.09,17.2-1.55,33.29,0,51,1.05,12.01-.27,24.93,1,34,.41,2.92-2.98,7.49,3,7-2.49-8.76,5.2-28.49-2-39,.4-1.93,4.58-.09,3-4-4.09-1.1-5.7-9.87-3-15ZM133,329.75c3.09,1.47,2.11,8.11,1,11-3.12-3.07,1.67-7.84-1-11Z"/>
      <path class="cls-2" d="M186,355.75c5.57-4.57.15-19.65,2-30h-3c1.42,8.18.72,17.1,1,30Z"/>
      <path class="cls-2" d="M135,347.75v7c3.16,1.29,3.16-8.29,0-7Z"/>
      <path class="cls-2" d="M151,503.75c-.37-4.3-9.7.37-7-7,3.55-.12,8.06.72,8-3-2.07-.59-6.57,1.24-7-1,.7-3.3,7.98-.02,8-4,.16-2.83-6.16.83-6-2-1.72-5.39,4.53-2.8,6-5-1.49-1.51-5.7-.3-5-4,.05-3.95,8.17.17,7-5-2.06-.61-6.95,1.61-6-2,.63-2.04,5.05-.28,4-4-3.93,1.27-2.97-2.36-3-5,2.41.41,2.17-1.83,5-1,.74-3.41-3.69-1.65-4-4,1.2-1.13,1.81-2.85,5-2,1.6-3.94-4.32-.35-4-3,.74-1.59,4.9.23,4-3-1-2.43-4.42,1.96-4-3,2.86.2,5.46.12,5-3-1.45-.55-5.17,1.17-5-1-2.29-6.62,7.2-1.47,7-6-4.4.4-8.27.27-7-5h6c.77-5.91-6.38,1.29-6-5,.3-2.7,4.21-1.79,5-4-2.55-.12-5.15-.19-5-3,2.27-.73,7.8,1.8,7-2-.75-2.58-7.4.73-7-3,.03-3.63,4.73-2.6,6-5-2.65-.02-5.89.55-6-2,.1-2.57,3.9-1.43,4-4-3.73.6-6.32-2.56-9,0,3.93,26.15-.2,66.66-6,103,2.93-1.07,5.16-2.84,10-2Z"/>
      <path class="cls-2" d="M135,402.75c-1.6,2.38-2.46,4.77,0,7,1.16-.71,4.37-7.07,0-7Z"/>
      <path class="cls-2" d="M193,458.75v-4h-3c-.28,2.62.37,4.3,3,4Z"/>
      <path class="cls-2" d="M132,472.75c-.4,10.79-3.34,13.5-4,23,5.09-6.31,7.76-17.72,4-23Z"/>
      <path class="cls-2" d="M199,490.75c3.26,18.41,10.49,32.84,19,46-3.75-13.92-13.05-30.95-19-46Z"/>
      <path class="cls-2" d="M194,495.75c5.25,23.64,9.7,41.62,19,61-6.04-20.63-10.51-42.82-19-61Z"/>
      <path class="cls-2" d="M193,512.75c2.44,13.28,3.47,28.29,9,39-2.68-13.32-3-29-9-39Z"/>
      <path class="cls-2" d="M138,539.75c-.8,3.8,4.73,1.27,7,2-.83-4.93-3.99-1.95-7-2Z"/>
      <path class="cls-2" d="M222,542.75c-1.23-.55-1.95-6.56-4-3,1.23.55,1.95,6.56,4,3Z"/>
      <path class="cls-2" d="M226,553.75c-.08-3.25-1.28-5.39-4-6-.43,3.77,2.11,4.55,4,6Z"/>
      <path class="cls-2" d="M205,563.75c-2.36-3.69.55-9.41-3-10-.52,4.66-.99,7.94,3,10Z"/>
      <path class="cls-2" d="M193,557.75c-1.26,1.16-2.29,6.53,2,5,.15-2.48-.52-4.15-2-5Z"/>
      <path class="cls-2" d="M134,560.75c2.62-.53,7.48,4.8,8,0-1.95-.98-7.55-3.42-8,0Z"/>
      <path class="cls-2" d="M235,572.75c-.78-3.89-1.15-8.19-4-10-.65,5.32,1.25,8.08,4,10Z"/>
      <path class="cls-2" d="M140,569.75c-.04-3.82-7.59-3.68-9-3,1.99,4.2,4.29,1.87,9,3Z"/>
      <path class="cls-2" d="M229,598.75c-2.39-11.61-6.86-21.14-11-31-.47,10.55,5.82,22.79,11,31Z"/>
      <path class="cls-2" d="M204,568.75c1.05,10.37,3.52,18.97,7,29-.21-7.9-2.2-22.38-7-29Z"/>
      <path class="cls-2" d="M237,578.75c1.59-1.5-.03-4.21-2-5-2.08,1.99-.03,4.27,2,5Z"/>
      <path class="cls-2" d="M140,577.75c-3.09-.3-6.51-5.43-10-2,1.98,1.41,7.5,4.44,10,2Z"/>
      <path class="cls-2" d="M141,583.75c-1.43-2.28-7.79-4.81-11-2,2.08,1.63,8.45,4.16,11,2Z"/>
      <path class="cls-2" d="M243,590.75c-.29-3.71-1.13-6.87-4-8-2.22,2.95.64,7.5,4,8Z"/>
      <path class="cls-2" d="M128,586.75c3.34,2.99,9.05,3.62,14,5-1.61-3.95-12.29-7.6-14-5Z"/>
      <path class="cls-2" d="M126,592.75c2.01,4.65,9.2,4.14,14,6-2.53-4.14-7.63-5.7-14-6Z"/>
      <path class="cls-2" d="M201,595.75c.17,8.77,3.69,13.09-2,18,3.13-.2,4.09-2.58,6-4-1.88-4.12-.05-11.95-4-14Z"/>
      <path class="cls-2" d="M134,601.75c-2.9-2.43-6.51-4.16-11-5,.72,3.98,6.92,7.7,11,5Z"/>
      <path class="cls-2" d="M120,603.75c5.12,1.88,8.84,5.16,15,6-2.68-3.47-11.65-9.68-15-6Z"/>
      <path class="cls-2" d="M211,601.75c.45,4.89.91,9.76,4,12,1.39-2.76-1.35-9.96-4-12Z"/>
      <path class="cls-2" d="M231,606.75c.41,5.26,1.85,9.49,5,12,.35-2.43-1.33-10.37-5-12Z"/>
      <path class="cls-2" d="M139,618.75c-6.85-3.49-12.57-8.1-20-11,3.13,6.54,13.38,11.27,20,11Z"/>
      <path class="cls-2" d="M95,655.75c3.11,6.57,11.81,12.84,19,12-6.77-3.56-12.31-8.35-19-12Z"/>
      <path class="cls-2" d="M136,669.75c-3.96,4.57-9.81-3.43-16-3,4.77,5.23,13.06,6.93,21,9-1.88-1.78-2.52-4.82-5-6Z"/>
      <path class="cls-2" d="M114,676.75c8.2.81,15.42,7.9,24,5-8.37-.25-17.9-9.03-24-5Z"/>
      <path class="cls-2" d="M292,589.75c-4.02-4.98-11.29-5.61-16-9-9.12-6.56-18.22-17.26-26-27-17.58-22-30.63-45.37-40-75-4.38-13.83-7.86-29.38-10-43-8.4-53.48,11.45-113.03-8-158,5.8-.46-.84-4.54,0-11,3.74-1.07,2.85,2.48,6,2-.58-4.25,2.7-4.64,5-6,36.3-15.18,60.25-37.41,78-70-3.05-1.85,1.15-4.75,0-8,.89-2.11,4.26-1.74,4-5,2.25-14.66,6.05-31.1,8-45,5.72-40.86,4.18-90.87-20-109C230.26,5.42,159.76-7.46,107,4.75c-11.39,2.63-24.55,8.5-33,12-4.57,1.89-10.6,1.45-14,3-2.7,1.23-6.07,5.61-10,8-4.67,2.84-10,4.86-12,7-11.81,12.66-10.28,36.05-12,57-1.45,17.65,1.62,27.36,1,43-.61,15.45,4.46,27.87,9,42,10.98,34.16,31.2,58.64,55,76,10.78,7.87,23.78,12.18,35,19-22.55,53.13,4.49,126.09-6,184-3.32,18.32-11.71,39.24-20,56-18.32,37.04-42.39,66.7-76,87-5.6,20.75-21.45,36.53-24,57,8.25,7.75,20.64,11.36,36,12,4.26,9.07,5.53,21.14,12,28,11.22-4.78,20.79-11.21,33-15,21.37,17.05,48.81,33.76,88,29,26.16-3.18,47.71-20.9,64-33,15.2.13,19.59,11.08,34,12,1.41-11.26,1.91-23.42,5-33,15.18.78,39.8-5.83,42-16,2.02-9.34-13.02-29.31-18-40-1.45-3.11-2.7-8.39-4-10ZM282,595.75c-3.5,4.17-8.52,6.81-17,6-2.08-4.92-4.03-9.97-12-9-10.3-19.36-23.67-39.88-29-61,17.39,23.27,31.29,50.04,58,64ZM52,118.75c-5.86-2.24-14.08-6.79-16-13,34.54,18.83,98.23,25.94,141,16-15.81-2.13-32.37,3.63-50,3-.78-.89-1.08-2.26-1-4-33.8.23-65.68-3.39-90-19-.18-5.25-2.15-15.41,4-17,.9-3.23-3.26-1.41-4-3,1.1-2.9.9-7.1,2-10,4.53-.87,2.34,4.99,6,5,3.47-4.85-4.05-7.25-7-9,1.29-2.36-.13-1.86,1-5,8.64,2.44,15.72,14.89,31,14,4.82,5.18,15.52,4.48,23,7-3.34,1.07-8.61,4.15-5,9,1.76-.24,2.28-1.72,2-4,4.28,7.49-1.29,20.96,3,27,6.17-6.27,21.6-2.19,26,3,1.74-3.87,8.26-3.87,10,0,3.91-1.43.74-12.51,2-16,5.39,3.94,6.41,12.25,11,17,1.01-10.1,2.31-22.79-1-30-5.87,2.51.22,10.84-3,16-4.72-2.95-5.79-9.54-7-16-8.91-1.02-.61,9.03-7,10,4.77.56,2.52,8.14,3,13-2.47.13-4.82.15-6-1,2.09-5.53,3.04-17.96-2-23-5.15,1.73-.86,6.97-2,9-5.26-1.47-.87-7.57-5-11-5.11-.14-7.39,5.77-10,0,29.96-2.7,60.7,1.13,87-3-23.24-4.1-58.35,3.68-77-5-3.73-1.06-1.58,3.75-5,3-.53-.8-1.04-1.62-1-3-24.58,3.78-52.45-6.12-65-21,.82-17.7,12.96-28.65,31-32C125.74-1.05,227.42,1.8,276,40.75c-6.53-1.81-15.53-9.8-24-13,4.11,7.26,20.96,12.27,24,21-7.45,5.01-17.08,13.23-27,13-7.63-.18-12.88-9.39-21-5,3.83,2.84,9.46,3.87,15,5,.03,3.03-3.51,2.49-6,3-2.77-1.65-6.27-6.49-10-4-.58,3.58,2.96,3.04,6,3-8.82,4.71-22.07,7.77-36,9-33.15,2.93-78.33,1.7-104-2,.25-1.09,1.99-.68,2-2-2.47-1.03-15.86,5.23-14-2-13.56,1.86-26.1-4.96-33-13-.41-4.41.27-7.73,2-10-6.07-1.28-6.1,5.37-6,8,.71,18.71,44.04,20.13,62,25,41.14.29,82.33,1.33,120-6,18.79-6.54,42.24-8.42,54-22,.18,12.32-12.69,14.73-25,19-18.99,6.58-43.51,12.01-63,15,32.83-1.51,67.87-9.46,90-25,1.1,4.77-1.28,6.06-3,8,2.59.39,4.65,1.23,6,5-2.53,4.64-9.48,8.48-6,16,1.89,1.98,3.51,1.7,6,1,.96,10.29-8.36,10.3-12,16-28.03,7.64-57.82,13.51-90,17,35.21-.58,72.86-6.84,102-21-.72,2.61-3.6,3.07-4,6,.31,1.36,2.5.83,4,1-.62,8.32.27,12.71-3,19-11.99,3.01-18,12-20,25,7.24-3.1,3.88-16.79,12-19,2.81-.15,2.88,2.45,3,5,2.67-1.66,1.77-6.9,4-9,5.08,13.51-3.15,29.83-5,46-11.83,27.5-25.63,53.03-51,67,6.32-8.34,15.25-14.09,21-23-5.3-1.95-6.42,8.89-12,10-2.81.43,2.51-3.73-1-4-4.45,7.22-13.09,10.24-14,21-.93-.73-1.51-1.82-2-3-6.31,5.35-10.73,12.6-21,14,18.53-11.47,33.44-26.56,43-47-9.86,9.66-15.93,22.63-26,32-4.72,4.39-12.04,5.88-15,12-1.79-.13-2.11,1.22-4,1-2.86,1-4.32,6.95-7,5,4.23-6.1,11.91-8.76,15-16-4.33.99-12.55,10.09-17,7-2.48.73,3.3,3.01,0,5-3.08.75-1.22-3.45-5-2,1.53-6.13,6.06-9.27,6-17-.31-3.32-3.47,4.28-3-1,1.02-2.97,6-2.52,6,1,1.35-.98,2-2.67,3-4,1.55-3.55-3.4-.6-3-3,5.27-7.61,1.91-18.92,9-21-1.52-8.08,4.33-11.73,0-17,5.43.15,3.5-5.51,3-9,5.35-.32,3.49-7.85,5-12-5.16,1.2-.6-7.41-2-14-6.16,4.2-.76,18.11-6,21-.4,11.09-2.96,19.95-6,33-3.32,14.28-16.37,28.44-13,33-6.5,3.33-1.65-5.67-2-7-.35-1.4-1.76-.09-2,1,1.16-21.12,8.89-54.36,2-74,.03,25.6-.75,69.46-12,93-2.44-2.1-2.13-1.43-6-1-1.01-8.65.43-11.37-1-18-3.69.87-1.75,8.47-1,11-8.27-9.41-8.81-31.58-12-49-3.47,2.02.86,13.05-1,17-4.56-22.54-13.35-66.38,10-79,14.37-.44,18.6,9.25,21.24,20.54-2.36-17.57,21.01-24.35,29.76-11.54-3.35-3.94-22.25-6.78-26,2,2.87,2.8,4.67-3.94,10-2,2.33,24.64-4.47,43.82-5,60,6.94-16.4,7.62-39.05,9-61,7.5-1.17,7,5.67,12,7,4.59-9.35,14.71-24.85,29-15,3.65,16.95-2.92,36.71-5,45,10.01-8.99,5.32-32.68,14-43-2.18-3.39-3.21,2.69-4,4-2.73-10.39,15.76-20.99,23-10-2.85,1.61-12.32-5.83-15,1-.72,2.72,4.72-.72,4,2-5.16,32.17-17.32,57.35-30,82,17.86-21.48,25.7-52.97,34-84,2.6.4,3.02,2.98,6,3,.22,3.22-1.77,4.23-1,8,3.7-8.96,7.53-17.8,16-22-3.44-1.41-9.01,3.63-11,7-8.68-8.21-24.61-4.55-27,7-7.64-10.84-27.18-5.04-30,6-7.88-9.29-25.22-7.38-33,1-7.28-12.9-30.95-12.25-35,3-6.84-3.82-10.71-10.63-22-10-1.73,3.6-6.04,4.63-8,8-2.63,2.51-3.37-2.51-6-3-2.81-.43,2.51,3.73-1,4-5.97-5.47-19.7-7.35-22,3,.87-10.46-16.12-22.27-27-12-4.16-6.84-9.73-12.27-18-15v-8c27.53,14.78,64.82,19.27,102,18-29.58-5.7-59.53-2.89-86-13ZM95,91.75c3.19-.51,15.63-2.55,14,5-3.38.7-14.69,1.61-14-5ZM108,110.75c-4.38-1.29-12.33,1-13-4,4.03-1.95,11.74-.05,13,4ZM96,97.75c3.25-.58,4.65.68,7,1,.52,4.38-4.68,6.59-8,4-.83-2.83,1.41-2.59,1-5ZM114,99.75c2.91.02,2.36,5.65,1,7-1.53-1.39-2.84-5.18-1-7ZM283,84.75c-2.31-1.02-2.07-4.6-2-8h4c.48,3.82-.28,6.38-2,8ZM91,143.75c5.38-.38,15.75,7.99,8,11-.58,3.58,2.96,3.04,6,3-.9,2.77,2.05,9.39-2,9,.35,3.32,6.15,1.18,5,6,1.34-.66,1.86-2.14,2-4-1.69-2.31-2.59-5.41-2-10,1.46.87,3.17,1.5,3,4,2.56-.1,1.61-3.73,3-5,2.95.72,6.19,1.14,8,3v6c-3.59-.07-8.14.81-9-2-3.33,3.42,2.75,10.03,0,13-3.24,1.24-.76-3.24-4-2-1.09.25-.68,1.99-2,2,2.85,5.05,4.87,4.98,4,14,3.73,3.16,8.94,1.39,14,0,1.46,2.2,3.04,4.29,3,8-5.26,1.26-6.08-1.92-7-5-3.69.73.43,3.01-2,5-3.72,1.05-1.96-3.37-4-4-2.26.41.53,5.86-4,4,.88,3.61,9.92,5.78,4,10,3.85,4.92,12.31-.51,11,10-3.98.32-2.71-4.62-6-5-.64,9.42,9.97,17.88,7,23-4.26-6.74-6.56-15.44-13-20,3.13,12.88,15.35,25.31,24,36-23.15-12.85-34.89-45.78-51-69-1.39-12.77-11.43-29.04-1-39,3.8-1.47.2,4.47,4,3,3.05-1.22-1.46-3.82,1-5ZM103,147.75c3.54-.48,6.76,4.5,4,7-3.16-.51-2.77-4.57-4-7ZM114,148.75h6c.17,2.83,1.83,4.17,2,7-2.25,1.95-7.52.87-10,0-.16-3.16,2.66-3.34,2-7ZM125,189.75c-6.77,2.05-8.96-7.56-5-10-3.86-1.14-4.47-5.53-5-10,2.88.12,6.55-.55,8,1-.65,7.65,1,13,2,19ZM124,148.75c10.85-7.8,18.73,18.94,8,19-.96,3.62,4.32,1.02,5,3-3.4,13.26,1.94,32.29,3,49-5.65-1.37-5.29-1.77-11,0-.17-4.68-2.57-3.32-1-8,4.56-1.23,3.16,3.51,6,4,2.71-7.52-3.09-13.83-5-22,2-1.88,1.58-3.63,5-2-.02-2.98-4.72-1.28-6-3,.66-3.66-2.16-3.84-2-7,1.28-1.39,4.72-.61,6-2-.12-2.21-4.24-.42-6-1,.76-7.09-1.24-11.42-1-18,1.45-1.55,5.12-.88,8-1,.47-4.47-7.81-.19-9-3-1.63-1.62.89-4.18,0-8ZM135,232.75h2c2.72.61,3.92,2.75,4,6h-5c.73-3.06-1.73-2.94-1-6ZM130,228.75c-3.2-.13-4.4-2.27-4-6,6.2-.13,9.89-.68,12,7-5.1,2.78-6.47-6.62-8-1ZM134,238.75c-3.64.64-1.24-4.76-4-5,1.77-2.77,5.96,3.82,4,5ZM138,221.75c4.14-.14,3.04,4.96,4,8-2.43-1.57-3.75-4.25-4-8ZM126,209.75c-.78-2.22-2.1-3.9-2-7h5c.55,1.78.51,4.15,2,5-.85,1.49-3.22,1.45-5,2ZM117,189.75c-5.48,1.15-2.41-6.25-5-8,3.37-2.98,3.5,5.79,5,8ZM122,208.75c-3.03.03-2.49-3.51-3-6,3.03-.03,2.49,3.51,3,6ZM135,241.75c2.35.32,2.24,3.1,4,4,1.36-.31.83-2.5,1-4,3.01,1.32,6.17,2.5,7,6-3.04-1.52-13.97,3-12-6ZM142,233.75c5.36-1.18,8.02-.25,8,6-3.35-3.31-6.53-2.33-8-6ZM144,222.75c2.42.91,2.65,4.02,3,7-2.33-1.01-3.22-3.44-3-7ZM152,247.75c-3.03.37-2.08-3.26-3-5,3.12-.46,3.2,2.14,3,5ZM74,141.75c-3.46-3.57-13.21-2.65-15-5,6.01-1.87,13.72-.75,15,5ZM108,247.75c-15.03,2.04-15.35-18.42-28-22,.78-.89,1.08-2.26,1-4-12.97-18.03-20.97-41.03-26-67-1.87,21.6,11,45.62,20,63-4.55-.78-4.4-6.27-8-8,1.32,9.69,11.95,18.71,20,25-7.13-1.82-15.39-9.13-21-16-16.87-20.65-27.13-52.91-29-88,7.28,3.05,10.69,9.98,16,15-.54-5.47-6.61-14.05-13-17,3.11-3.69,4.93,2.33,8,2,18.55,39.11,22.87,92.46,57,116-16.36-19.97-30.3-42.37-39-70,.75-12.7-11.22-26.6-5-35,4.83-.5-.63,9.3,4,9,1.65-.14,1.65-6.86,0-7,4.04-3,9,1.64,11,4,.76,6.27-3.47,19.32,5,24,14.01,33.99,30.52,65.48,57,87-8.28-1.39-18.03-9.97-22-19-17.15-17.19-27.66-41.01-36-67-2.35,14.06,10.41,32.19,16,45-10.09-10.25-15.24-25.43-22-39,6.31,33.69,32.56,56.11,52,80-9.21-.46-14.73-4.61-18-11ZM122,484.75c3.2,2.31-2.13,4.46-1,8-2.6-1.71-.43-7.02,1-8ZM119,493.75c1.85,3.88-2.41,10.23-4,14-1.85-3.88,2.41-10.23,4-14ZM54,602.75c-2.46-1.71-9.27,1.49-12-2,17.75-14.59,35.3-29.36,48-49,1.79.13,2.11-1.22,4-1,5.04-15.62,10.9-30.44,20-42,.94,5.61-2.9,6.43-3,11,8.68-14.66,16.21-30.45,18-52-2.86,3.8-2.5,10.84-5,15,1.61-13.22,4.33-26.01,7-41,9.28,4.97.94,24.79,2,29,6.6-9.73,4.75-27.91,5-44-3.26.08-2.13,4.53-3,7-1.17-1.89-2.89-2.69-3,1-3.27-3.67.84-5.42,3-5-.15-4.56-.83-3.92,0-8,1.02.65,1.03,2.3,3,2-3.37-5.13-1.59-12.25-7-13-1.17-28.4-6.19-67.47-6-100,.06-10.15.84-21.97,7-29,.7,5.87,1.04,6.06,2,11,2.82-9.85-7.17-21.88,5-26,2.1.9,5.97.03,5,4,5.29-5.05,14.08-2.44,24-4,5.59,9.4,8.96,21.04,11,34,4.93-11.57-5.92-22.95-7-35,11.55-2.61,16.61,11.01,12,18,.73,3.69,3.01-.43,5,2,6.71,37.48.4,81.39,0,113,.41,3.61-1.83,1.37-1-1-2.37-13.14,1.26-26.1-1-39-3.54,7.59.07,21.26-2,33-2.25-.42-.03-5.31-2-6-2.17-.17-.45,3.55-1,5-3.93-1.41-1.18-9.48-2-14,1.38,2.28,2.04,5.29,3,8-.06-20.28.9-50.23-1-72-3.71,1.48-.45,6.93-5,3-.65,66.88-.88,138.09,15,193,4.99-2.98-3.66-13.93,2-17-.68-1.99-3.04-2.29-4-4,4.68-15.23-7.17-33.97-5-56-.19-2.81-3.26-2.74-4-5,.07-4.91,2.29,2.26,4-1-.78-.89-1.08-2.26-1-4-.44-1.48-1.28.39-3,0-.12-3.97-1.15-9.56,1-9-.04,1.71.74,2.59,2,3-1.75-3.54.73-10.27,1-15,2.3,2.7.36,9.64,1,14,3.24,1.24.76-3.24,4-2,2.86,75.32,33.09,128.8,62,183,4.65-.98,6.04,1.3,9,2,.32,2.35,1.58,3.75,1,7,10.66,1.33,16.54-2.13,23-5-5.62,9.75-27.89,8.85-36,5-1.51-4.82-3.33-9.34-6-13,5.3,10.7,3.56,23.21-2,34-3.26.26-2.12-3.88-5-4,.53,2.8,1.47,5.2,2,8-7.79-4.21-19.34-4.66-22-14-2.73.92,1.4,3.13,0,6-8.03,11.97-18.73,21.27-32,28-18.24,2.7-37,5.15-54,0-13.23-4.01-28.62-20.15-29-29-.23-5.23,5.1-9.82,7-17,.62-2.35-.69-5.07,0-7,1.24-3.47,5.04-6.62,6-10,13.55-47.47,32.74-104.16,32-170-.08-7.14-1.36-15.31-1-25,5.66-.52-.31,5.41,3,8,1.92.12,8.47-2.53,13-3-.76-5.77-9.95,2.79-11-3-.54-3.88,5.8-.87,6-4-1.33-2-6.54-.13-5-5-1.54-4.21,5.17-.16,5-3,1.41-4.41-5.98-.02-6-3-.48-4.48,3-5,7-5-.29-3.71-7.55-.45-7-5,.38-5.35,5.22-.05,8-3-1.81-3.26-3.67-.26-8-1v-7c2.66-.01,5.71.38,7-1-.75-4.37-5.61,1.16-8-2,.84-1.16,1.32-2.68,1-5,5.08-.6,7.67.85,9-2-.76-2.91-8.24.91-9-2-1.09-5.09,3.24-4.76,7-5-.51-4.73-5.71,1.04-7-2-2.24-6.57,6.51-2.16,7-6-.14-2.86-6.86.86-7-2-1.49-5.82,3.48-5.19,8-5-.32-5.52-5.99.18-9-3-.41-2.41,1.83-2.17,1-5,4.74.74,6.88-1.12,11-1-2.41-4.75-9.03.03-14-1-.04,27.52-.97,39.52,0,64-6.3-8.04-1.88-23.9-3-37-.85-9.97,1.24-26.72-1-38-2.69,26.28-3.53,56.09-2,82,3.44,58.17-3.65,117.44-21,167-4.35,16.43-11.47,40.39-19,60-2.96,7.7-15.67,10.82-25,14,6.34-9.99,9.91-22.75,17-32,10.28-34.78,28.8-62.37,35-99-15.82,44.28-34.41,91.48-56,133-14.95-13.28-6.14-22.26,4-40,7.61-13.32,18.35-26.04,24-40-6.59-.76-6.12,13.76-13,16-7.75,16.25-17.36,30.64-27,45-11.4.3-19.74,1.91-25-5,3.88-6.45,16.39,5.45,19-3ZM181,391.75c1.48,3.07,2.38,7.83,1,11-4.34-1.52-.56-7.29-1-11ZM180,367.75c1.23,1.9,2.48,6.4,1,8-2.25-.75-.39-5.61-1-8ZM288,604.75c-2.44,10.74-28.25,13.03-36,6,14.37,1.76,25.49-1.22,36-6ZM243,641.75c4.21,8.12,8.13,16.53,11,26-10.39-.61-12.76-9.24-23-10-1.93-9.73-9.63-13.71-11-24,10.17.16,13.46,7.21,23,8ZM219,625.75c7.28,4.05,18.58,4.09,22,12-7.37-3.96-18.79-3.88-22-12ZM247,616.75c.81,3.5-.81,13.17-2,18-5.09-4.05.75-13.7,2-18ZM145,382.75c1.62-.28,1.72.95,3,1-.55,1.78-.51,4.15-2,5-3.68.92-1.82-5.27-1-6ZM62,620.75c2.06,4.94,5.18,8.82,7,14,8.51-3.49,16.38-7.62,26-10,.18,4.18-4.16,3.84-7,5-5.51,3.49-10.26,7.74-19,8-2.85-5.15-6.14-9.86-7-17ZM66,638.75c-3.74,11.26-8.63,21.37-13,32-11.1-16.8-4.16-29.43,4-46,5.69,1.97,5.31,10.02,9,14ZM31,608.75c6.35,4.32,14.39,6.94,26,6-4.45,7.12-28.98,4.72-26-6ZM9,652.75c-.74-3.08,2.74-1.92,2-5,7.38,4.29,17.24,6.09,30,5-3.79,12.4-25.71,3.62-32,0ZM14,645.75c.89-13.11,9.36-18.64,13-29,7.92,2.74,14.73,6.6,27,5-1.58,13.38-6.28,18.17-12,28-11.17.51-21.52.19-28-4ZM43,656.75c5.85,4.15,4.62,15.38,8,22-4.44-5.56-7.84-12.17-8-22ZM53,682.75c5.13-9.53,17.78-11.55,28-16-4.08,9.98-19.06,14.2-28,16ZM84,665.75c4.04-.37,4.01,3.32,7,4-.91.88-2.95.17-6,1-.84-1.16-1.32-2.68-1-5ZM230,664.75c-16.71,23.26-58.34,43.09-99,33-17.32-4.3-31.8-15.07-44-24,7.29-.57,13.4,6.27,21,10,28.13,13.81,77.07,14.45,100-8-17.61,12.63-57,19.91-86,10-3.36-1.15-7.63-4.74-11-6-5.04-1.89-2.71-.56-6-4-4.64-4.85-16.91-8.6-18-15-1.14-6.67,6.09-12.45,6-19-6.95,2.72-5.92,13.41-9,20-8.84,4.82-19.6,7.73-27,14-2.6-12.27,8.48-19.52,9-32,8.81-4.19,17.52-8.48,27-12,.8,3.47-1.49,3.84-1,7,3.67.33,1.59-5.07,6-4-1.25,9.59,8.6,13.38,9,18-4.86-1.14-5.09-6.92-10-8-1.54,1.71.35,3.64-1,7,4.02,4.64,9.17,8.16,15,11,1.48-1.77-.92-4.23-1-6,2.5-2.72,7.78.83,7,2-.35,1.4-1.76.09-2-1-4.92,2.41,8.8,10.7,11,6,0-4.72-4.02-.73-5-3,5.45-3.78,11.17,1.93,18,3,21.05,3.3,46.72-3.54,57-14-17.57,10.08-34.13,11.82-56,11-7.29-.27-17.73-3.92-23-8-7.75-6.01-15.16-16.55-19-25,10.7,9.91,19.96,23.66,37,28,15.56,3.96,32.32-1.71,50-3,6.26-5.41,15.96-7.38,20-15,4.62.68-1.53,3.32,1,4,4.26,2.17,4.95-6.75,10-7,1.89,9.96,15,16.46,11,26,.41,1.93,3.88.79,3,4ZM231,662.75c8.2,1.14,20.99,6.33,26,14-10.19-3.15-18.26-8.41-26-14ZM261,674.75c-3.47.47-.57-5.43-3-6,.16-1.17,1.82-.84,3-1v7ZM262,665.75c-2.36.02-2.94-1.72-6-1-5.28-13.69-13.42-27-6-43,9.4,7.87,7.21,28.27,10,40,3.09-.24-1.56-8.23,3-7-.33,3.67.85,8.85-1,11ZM263,653.75c-3.94.61-1.18-5.49-2-8,6.51.85-1.18,4.52,2,8ZM303,636.75c-2.38,12.1-28.99,13.89-37,8,6.62-3.05,15.76-3.58,25-4,4.59-.41,7.29-6.91,12-4ZM261,637.75c-2.09-6.38-7.63-14.18-6-21,11.69,1.91,26.03-.09,33-6,5.47,6.2,11.59,11.74,12,23-10.71,4.16-28.25,8.6-39,4Z"/>
      <path class="cls-2" d="M175.24,157.28c.15,1.11.39,2.27.76,3.46-.24-1.17-.49-2.32-.76-3.46Z"/>
      <path class="cls-2" d="M86,26.75c-1.89,1.11-4.6,1.4-5,4,4.4-3.35,16.19-1.53,19-9-2.75,1.2-5.29,1.08-3-2-9.41,1.93-19.35,3.32-25,9,6.08,1.38,8.38-6.24,14-2ZM93,22.75c-.91,2.09-2.95,3.05-6,3-.58-3.58,2.96-3.04,6-3Z"/>
      <path class="cls-2" d="M79,54.75c3.44,2.2,7.46-2.12,10-4-3.71.95-8.01,1.33-10,4Z"/>
      <path class="cls-2" d="M274,97.75c1.2-7.25-3.93-23.73,2-30-3.11.55-6.52.82-9,2,5.63,6.58,2.43,29.17,7,28Z"/>
      <path class="cls-2" d="M222,139.75c2.02,5.13-5.88,9.49,0,12-.33-5.33,1.05-8.95,3-12,7.54,5.16,1.05,17.75,4,27,3.8-12.24,4.73-31.74-7-31-10.89.69-12.72,19.95-17,30,8.97-5.36,4.49-24.18,17-26Z"/>
      <path class="cls-2" d="M152,139.75c-9.42,5.71-14.73,27.66-8,40-2.13-15.43,3.79-43.92,12-33,2.3-.36.96-4.38,4-4,14.09,6.75,9.26,30.01,13,45-3.41,17-8.62,42.61-8,57,6.94-28.61,16.58-78.46,0-104-3.83-.84-8.03-1.31-13-1Z"/>
      <path class="cls-2" d="M228,169.75c-4.07,5.19-5.47,18.31-12,24-1.68,14.43-18.4,27.52-20,42,11.76-20.67,28.1-40.64,32-66Z"/>
      <path class="cls-2" d="M66,208.75c-4.91-5.76-7.02-14.32-12-20,1.73,8.93,4.98,16.35,12,20Z"/>
      <path class="cls-2" d="M201,209.75c-1-5.34,4.38-4.28,3-10-2.63.77-6.13,9.98-3,10Z"/>
      <path class="cls-2" d="M217,208.75c-5.41,10.51-14,19.92-20,31,12.92-9.08,19.39-24.61,26-40-4.24,1.24-4.35,5.79-6,9Z"/>
      <path class="cls-2" d="M200,210.75c-2.97,2.9-8.38,13.35-6,15,3.04-3.96,4.52-9.48,6-15Z"/>
      <path class="cls-2" d="M204,238.75c4.03-.3,4.88-3.79,8-5-.74-4.43,7.48-8.51,9-14-5.83,2.29-11.42,13.16-17,19Z"/>
      <path class="cls-2" d="M88,556.75c-.53,5.47-5.37,6.63-6,12,2.95-1.97,9.78-9.88,6-12Z"/>
      <path class="cls-2" d="M192,460.75c-.38,10.01,1.2,13.71,5,18-1.86-5.8-2.04-13.29-5-18Z"/>
      <path class="cls-2" d="M135,634.75c-5.28-3.05-10.62-6.04-15-10,.17-1.5-.36-3.69,1-4,4.16,1.86,10.26,7.05,14,6-9.06-4.28-14.94-11.72-23-17,10.87-18.46,16.71-41.96,24-64,1.22,2.78,6.14,1.86,10,2,.94-5.94-9.16-.84-11-4,1.46-1.87.04-6.63,2-8,2.89,1.11,9.53,2.09,11-1-1.8-2.57-9.66.33-10-1v-6c1.16-.84,2.68-1.32,5-1,.87-3.87-4.37-1.63-3-6,1.86-1.81,7.17-.17,8-3-2.19-2.14-5.38,1.62-7-2v-4c3.81-.19,8.58.58,9-3-3.86.2-7.37.04-10-1-5.81,35.8-17.32,77.86-32,105,4.22,1.44,9,2.33,9,8-3.08.75-1.92-2.75-5-2-1.08,5.49,7.35,5.41,4,10-2.46-.87-2.24-4.43-6-4,4.03,9.97,11.2,16.8,23,19-3.52-6.48-13.15-6.85-16-14,8.12-2.84,12.13,6.98,18,5Z"/>
      <path class="cls-2" d="M105,534.75c-.56,2.44-3.87,2.13-3,6,3.24.92,4.51-8.58,3-6Z"/>
      <path class="cls-2" d="M193,548.75c-2.58-2.08.33-9.66-4-10,1.33,2.71,1.43,11.85,4,10Z"/>
      <path class="cls-2" d="M201,592.75c-.72-9.28-3.5-16.5-6-24-.53,6.68,3.04,17.52,6,24Z"/>
      <path class="cls-2" d="M66,595.75c2.39-7.62,12.55-12.77,11-21-5.04,7.63-6.69,18.65-20,18-1.68,2.32-3.74,4.26-4,8,3.67-2.33,5.3-6.7,13-5Z"/>
      <path class="cls-2" d="M198,630.75c-.65,3.42-16.99,11.54-28,13-3.95.52-7.98-.7-11,0-2.08.48-4.64,2.92-6,3-7.7.45-13.2-5.08-19-2,19.93,9.87,51.47-.19,66-13-.51-4.49-2.62-7.38-5-10-3.33,3.04,3.59,5.91,3,9Z"/>
      <path class="cls-2" d="M112,673.75c-6.51-5.82-14.95-9.72-22-15,3.64,8.03,14.74,13.92,22,15Z"/>
      <path class="cls-2" d="M210,675.75c4.25-1.41,7.93-3.4,9-8-4.01,1.65-6.55,4.78-9,8Z"/>
      <path class="cls-2" d="M138,677.75c-8.08-.93-16.14-7.18-22-7,4.74,3.89,16.77,10.16,22,7Z"/>
      <path class="cls-2" d="M263,90.75c2.66,1.67-.55,9.22,2,11,6.22-2.25,1.8-16.17-3-17,.69-4.64,5.52-5.15,5-11-3.16-1.37-3.34-.22-7,0-3.45,7.36-2.21,23.11,1,30,3.53-2.31.8-10.97,2-13Z"/>
      <path class="cls-2" d="M259,151.75c1.75-.92,2.21-3.13,2-6h-3c-2.07,19.99-13.63,44.32-18,62,2.05-2.95,2.36-7.64,6-9,.76,3.6-5.47,9.16-1,10,5.82-17.51,13.66-33.01,17-53-.29-2.04-2.71-1.96-3-4ZM256,171.75c-3.37-3.44,1.38-7.23,1-11,2.84,2.91.06,8.68-1,11Z"/>
    </g>
  </g>
</svg>