<?xml version="1.0" encoding="UTF-8"?>
<svg id="Layer_2" xmlns="http://www.w3.org/2000/svg" version="1.1" viewBox="0 0 237.3 502.2">
  <!-- Generator: Adobe Illustrator 29.8.4, SVG Export Plug-In . SVG Version: 2.1.1 Build 6)  -->
  <defs>
    <style>
      .st0 {
        fill: #fff;
      }

      .st1 {
        fill: #554b41;
      }
    </style>
  </defs>
  <g id="Layer_1-2">
    <g>
      <path class="st0" d="M144.1,289.3c5.6-3.2,5.2-8.2,10-11-1.7-9.9,2.2-17.3-1-26-1.7-4.7-6.5-6.8-9-11-.6-1,.5-2.9,0-4-5.4-12.2-9.4-24.4-8-40-8.3-2.6-19.3.2-27-1-1.9,12.6.7,27.5-6,37,7.9,7.1,28.5,5.9,39,2-11,8.4-30.2,6.8-42,1,3.6,12.9,32.3,8.1,43,5-7.7,9.2-34.6,7.3-44,1-8.4,3.5-12.6,15.6-11,25.9,2.8,5.7,4.8,17.7,11,21.1,10.6,5.8,36.2,5,45,0ZM127.1,216.3c3.1-.5,4.5.9,4,4-2.9.9-3.1.9-6,0,.5-1.5,1.5-2.5,2-4ZM133.1,223.3c-2.6,1.6-6.3,2.1-9,1,.9-2.5,7-2.7,9-1ZM124.1,227.3c7.3-3.2,4.2,3.6,12,2-.9,4.7-8.8,2.5-14,3,1.1-4.2,5.6-.4,2-5ZM122.1,236.3c2.1-3.6,13.6-3,16-3-3.8,4.6-11,1-16,3ZM146.1,266.3c-1,4.3-6.6,4.1-12,4,3.4-2,7.7-3,12-4ZM142.1,262.3c.1,4.6-9.2,3.5-11,3,1-3.7,6.6-2.7,11-3ZM146.1,271.3c-1.7,4.5-15.3,7.1-19,3,8.3.9,12.3-2.4,19-3ZM146.1,277.3c-3.8,4.8-16.4,6.2-23,5,5.7-3.6,16.6-2.1,23-5ZM146.1,280.3c1,0,.8,1.2,1,2-4,4.8-19.2,8.7-26,4,9.8-.6,19.7-1,25-6Z"/>
      <path class="st0" d="M191.1,154.3c-20.6-19.5-8.3-72.8,14-89-3.6-.6-10.7,3-17,3,8.3,10.5-7.9,23.7-11,9,.2-3.1,3.3-3.4,3-7-17.1,0-35.8,2.4-49,3,31.6,7.1,31.3,84.9-4,86-20.4.6-34.1-20.5-33-38,3.2,22,17.3,40.8,44,33,13.8-10.6,19.4-54.6,5-71-16.8-19.1-49.2.1-50,23-.1-9.1,5.3-12.7,6-21,6.4-5.8,17.3-12.3,26-12-33.5-.7-61.6-2.2-89-10,21.6,16.8,35.2,67.4,16,93,5.6,10.1,15.6,15.7,23,24,9.5,2.5,20.2,8.5,33,10,40.7,4.7,74.9-11.1,83-36ZM174.1,171.3c-1-3.6,4.9-.5,3-5,1.2.2,1.8-.2,2-1,2.5,2.2-2.2,5.7-5,6ZM163.1,171.3c4.1-3.3,8.4-6.2,14-8-3.7,5.9-7.7,5.3-14,8ZM182.1,158.3c3.4,2.2-2.6,6.4-4,4,.3-2.4,3.1-2.2,4-4ZM179.1,155.3c-3.7,6.6-11.4,9.2-20,11,6.8-3.6,12.3-8.4,20-11ZM159.1,160.3c5.4-4,11.6-7.1,18-10-4.6,4.7-10.8,7.9-18,10ZM161.1,73.3c4.4,3.6,4.9,10.3,1,15-15.7,5.6-16.3-19.6-1-15ZM158.1,166.3c-5.2,4.7-14.7,5-20,5,5-3.3,14.2-2.4,20-5ZM170.1,171.3c1.7-.4,1.9.8,2,2-12,5.6-21.3,7.9-37,9,10.9-4.5,26.4-4.2,35-11ZM58.1,87.3c-8.4-4.3-2.2-20.6,8-15,4.5,7,2.8,16.2-8,15ZM130.1,79.3c20.9,11.7,22.2,57.2,4,72-21.4.4-36.8-15.8-32-35-.4,6.4.8,11.2,3,15,4.5,1.2,1.1-5.6,6-4,2.8,2.9-.9,5-2,7,.6,1.4,1.6,2.4,3,3,2.1.5,1.9-1.4,2-3,7,2.8,3.6,9.8,7,14,5.4-.8,8.4-2.3,14-4-.3-5.5-1.5-19.2,6-20-1.5,4.5-4.1,7.9-3,15,5.6-7.4,5.2-20.2,4-30-1,4.2-10.8-2.6-10,5-3.4-1.9,1.7-3.5,1-6,3.1-1.1,2.3,0,6,0,3.3-2.1,3-12.3-3-11-4.1,1.1.3,4.8-1,9-2.9-2.8-3.2-8.1-5-12,2.4.6,4.6,1.4,8,1-.9-15.8-28.3-14.3-32-2,4.7,3.4,10.3-1,11-5,5.4,3,11.6-4.9,11,4-13-5.6-14.4,8-19,14,1-4.5,1.3-4.5,2-8,.2-2.2-3.6-.4-5-1-2.7,1.1-2.6,8.6-1,11,3.1.7,3.6-1,6-1,0,3.7,4.2,3.1,3,7.8,0,0,0,.1.1.2,3.7-.4,3.4-1,5.8,1,.6,3.2-.7,4.7-1,7-4.6-1.2-3.9,2.7-8,2-2.1-5.8,4.8-2.6,5-6-.4-1.7-1-3-1.8-4,0,0-.1,0-.2,0,0,0,0-.1,0-.2-4-5-11.7-3.6-15-9.8,2.2-16.8,13.4-24.6,31-26ZM137.1,121.3c-7.7,2.3-7-3.7-12-4,.5-2.8,1.5-5.2,2-8,3.3,0,1,5.7,3,7,3.2-2.2,6.6,4,8-2,2.1.9-1.9,4-1,7ZM133.1,129.3c-1.4,0-2.8-.2-3,1-2-2.7,0-3.9,0-7,2.4.6,2.2,3.8,3,6ZM122.1,96.3c-5.7.6-4.9,7.8-8,11-3.6-16.2,18.6-17.2,17,1-4.5-2.5-2.9-11.1-9-12ZM126.1,102.3c-1.8,3.5-4.2,4.9-2,10-6.4-.3-2-5.8-6-9,1.4-1.6,5.1-.9,8-1ZM128.1,127.3c-4.5.8-5-2.3-8-3,1.6-1.9,7.9,0,8,3ZM130.1,133.3v7c-1.4-1.2-1.5-3.8-3-5-3.3,1.9-.6,4-1,8-6.4,0,.7-18.6-9-12-2.4-1.9-4-4.7-1-7,4.7,3,8.1,7.3,14,9ZM99.1,108.3c4.6-.9,2.9,6.8,0,7v-7ZM86.1,77.3c2.2.4.4,4.9,1,7,.8,1.5,2.5,2.2,5,2,1.8-1.9.9-6.4,3-8-.2-3.1-5-1.7-8-2,3.9-7.3,14,0,11,9-5.9,5.6-17,1.9-12-8ZM92.1,115.3c-.8-3.5,1.5-3.8,1-7,1.4.2,2.3,8.2-1,7Z"/>
      <path class="st0" d="M190.1,17.3c-13.4-2.5-34.5-5-48-1,17.6-1.4,36.3,2.5,48,1Z"/>
      <path class="st0" d="M202.1,80.3c-7.1,15.6-6.4,35.7-8,55-2.4-3.3-5.5-9.5-2-13-3.6-15.5-.7-37.8,12-45-.6-1.8,1.2-5.9-1-6-14.4,8.7-20.8,36.5-17,54-1.4.4-1.7,1.2-3,0,2.7,2.3,3.6,6.4,4,11-1.7.2-3.9-5.7-4-1,.7,7.6,3.8,12.9,9,16-.9-4.4-5.8-10.2-5-13,4,1.6,3,8.4,8,9,.5-13.2,7.8-19.5,8-33-.8-2.5-6.1-.5-6-4h6c.3-3-7.2-3.4-3-7,2.6-.3.8,3.9,4,3-1-8.3,2.2-20.8-2-26Z"/>
      <path class="st0" d="M180.1,74.3v6c2.3,1.2,4.4,2.9,6,0-3.3-2.4,1.3-5.3,2-7-3.1-1.5-5.2-.3-8,1Z"/>
      <path class="st0" d="M174.1,46.3c-.6,4-.6,3,0,7,4.3,1.2,4.3-8.2,0-7Z"/>
      <path class="st0" d="M124.1,194.3c6.2,2.4,11.3-.4,17,0-2-2.6-11.7-1.5-17,0Z"/>
      <path class="st0" d="M56.1,40.3c-5-6-10.4-11.6-21-12,.4,5.9,1.9,10.8,4,15-1.3,0-1.4-1.3-3-1,.4,4.7,9.1,5.1,6,10-2.6,4.1-5.4-6.4-6-1-1.7,6.1,5.5,3.2,6,7-3,1.4-6.1-3.5-6,1,42.5,16.8,123.9,13.2,168,3,1.5-3.8-4.5-.2-3-4,9.1-3.2.5-16.3,2-22-.1-3.2,5.6-.4,4-5-38.2,8.5-90.9,8.3-135,4,30.9-1.4,62.1,1.2,97-1,15.4-1,43.5-.3,42-15-5.3-7.4-25.5-10.4-33-9,5-.4,7.3,2.1,11,3-1.6.1-3.5-.1-3,2,6.9,1.3,6.1.3,6-3,3.8,1.9,10.3,1.1,12,5-7.1-.3-6.3,1.6-13,0-1,1.9,3,3.3,0,4-19.8-6.4-55.7,4.1-58-8,14.8-.8,32.2-1.8,44,0-2.9-6.5-13.3-1.2-21-4,1.1-3.7-3.4-2-4-4-42.1-2.2-83.1-1.9-115,9-2,2.5,2.6,3.4,0,7,2.5,2.5,8.1,1.9,10,5-9.2,1.6-10.2-5.2-13-10-2.3,1.1-.4,6.3-1,9,10.4,5.3,27.3,4.1,37,10-4.7-.9-10.7-.7-15-2-.3,2.4,4.4,4.8,1,7ZM154.1,7.3c-3.9,3.4-13.3,4.2-16,0h16ZM39.1,32.3c2.3-2.6,6.5,1.4,6,5-4.8,1.1-3.5-3.8-6-5ZM42.1,42.3c2.1-.4,2.7.7,4,1,.2,2.5-1.6,3.1-2,5-2.5-.1-2-3.3-2-6ZM192.1,44.3c.9.7,1.5,1.8,2,3,2.2-.4,1.3-5.9-2-4v-6c2.3,2.8,5.7-.6,5,6,1.2-.2.8-1.8,1-3,3.3.3,1.6,5.8,2,9-2.3-.3-3.8.2-5,1,1.4,1.3,1,4.3,1,7-.9-.8-2.3-1.1-4-1v-12ZM174.1,38.3c3.5,2.5,3.5,8.5,5,13,2.9-2-.9-11,2-13,3.6,3.5,5.3,14.6,2,19,1.2-.2,1.8.2,2,1,4.7-8,.2-16.1,4-21,1,4-.7,14,0,21-2.1.6-2.9,2.5-6,2-1.5-2.2-3-4.3-3-8-2.1.2-4.1,9-6,3-3,1.2,1.1,3.4,0,6-7.3-3-6.2-19.8,0-23ZM159.1,40.3c4.9-1.8,9.1-.8,8,6-3.9,1.6-2.1-2.6-4-3-2.8,5.8,1.3,12.5-2,18-5.1-3.5-4.2-15.8-2-21ZM128.1,53.3c1.8.1,2.1-1.2,4-1,.9-4.2-2.3-12.3,3-12,1.4,2.6,1.2,6.8,2,10,.6-4,3.5-5.8,4-10,3.7-.4,5.9.8,6,4-3.1.7-2.9-1.7-6-1,1.2,6,.6,7.8,3,12,1.6,0-1.9-6,3-5,2.5,3.2-.7,7.4-1,11-6,.3-7-4.3-8-9-3.1,1.5-1.7,7.7-2,12-3.6-1.7-4-5-3-9-7.5-2.2-3.1,7.6-10,6v-13c4.4-1.1,3.6,3.1,5,5ZM124.1,41.3c-6.1,1.9-3.6,12.4-4,20-1.4,0-2.8-.2-3,1-4.5-3.2,1.4-13.4-1-18-1.2-3.7-4.3.7-6-2,.6-3.7,11.8-2.2,14-1ZM100.1,40.3c.4,1.9,2.2,2.5,2,5-3.8,1.5-1.9-2.8-5-2-2.9,1.5-1.1,9.6,1,12,1.6-1.4,1.1-4.9,3-6,4.1,2.4-.9,10.4-4,12-2,0-1.3-2.7-4-2-.6-7.6.5-13.5,2-19h5ZM89.1,40.3h4c.4,3.7-4.1,2.6-3,7-2.2-.4-.4-4.9-1-7ZM84.1,40.3c-.4,6.3,1.2,10.6,5,10-.8,4.2-2.2,7.8-5,10-3.8-5.3-3.8-14.7-5-20,3.8,1.6,1.2,1.6,5,0ZM74.1,38.3c5.2,1.7,5.6,16.9,2,21-.8-.5-1.6-1-3-1,1.8-8.3-1-13,1-20ZM196.1,60.3c-2.4,5.2-9.9,3.3-15,4-41.3,5.7-99.1,6.4-138-5,46.9,7,100.7,9.5,153,1ZM69.1,47.3c4.6.5,2.3,4.7,0,6-2.2-.4-.8-5.3,0-6ZM187.1,22.3c-3.9,3.4-14.2,2.9-16-1,5.8-.2,9.6,1.8,16,1ZM172.1,25.3c-5.9,3.8-16.4,1.7-23,1,6.4-2.8,13.6-.2,23-1ZM168.1,22.3c-6.8,2.8-15.2-1.4-24,0,2.8-2.2,18.2-1.2,24,0ZM39.1,16.3c1.9-3.1,7.3-2.7,12-3-1.3,3.4-9.4,4.1-12,3ZM48.1,25.3c51.7,7,106.4,8.3,155-1-.2-1.7,5.6-2.2,3-3,0-2.4,2.7.4,2,2-12.5,9.3-30,6.8-51,8-28.9,1.6-53.4,3.3-85,0-7.8-.8-17.4-1.1-24-6ZM70.1,42.3c-3.9,1.8-3.5-5.7-6-2-3.7-6,7.8-4.2,6,2ZM61.1,41.3c6.8,1.6-.5,12.3,7,14-5.6,9.2-10.2-8.2-7-14ZM51.1,56.3c-3-5.3-4.7-12.8-3-20,4.3,2.4,2.8,10.5,4,16,4,.3,1.5-5.8,4-7,4.9,2.6-1,10.7-5,11Z"/>
      <path class="st0" d="M112.1,140.3c0,2.9,2.3,3.7,4,5,.3-3.3-1.2-4.8-4-5Z"/>
      <path class="st0" d="M153.1,76.3v9c5.2,2.5,6.5-4.8,9-8-2.8-2.2-5.1-1.9-9-1Z"/>
      <path class="st0" d="M58.1,122.3c0,2.7.5,5.9-2,6,2.3-21-3.4-50.5-20-61-.8,5.9-.7,16.6,6,18,.2-1.2-.2-2.8,1-3,.5,2.8,2.4,4.2,3,7-1.5-.5-2.5-1.5-4-2-1.4,3.5,4.5,4.7,1,7-2.6-2.4-2.8-7.2-6-9-.7,6.3-3,17.2,2,19,0-1.6-.1-3.5,2-3-.3,2.6.4,4.3,3,4,1.2-3,.3-3.4-1-6,2.9-.4,2.4-.9,5-3-.2,4.9,6.8,21.1,0,17v5c1.7.4,2.6-1.5,3,0,0,5.6.8,14.3-3,13,3.6,3.9-2.8,6.4-3,10,.6,2.4.9,5.1,4,5,1.7-.7,3.2-6.7,5-4-1.6,2.9-6.1,6.6-4,10,8.5-3.4,11.7-23.9,8-30Z"/>
      <path class="st0" d="M174.1,475.3c17.5-4.5,36.5-7.5,51-15-5.1-2-7.3,3.9-10,1,1.6-3.1,7.3-2.1,9-5,.4-10.9,1.4-15.8-2-24-22.7,4.4-44.1-12.5-36-32-2,22.7,13.9,32.8,35,29-1.5-5.2-5.5-20.8-13-20-2.3,7.3,8.9,5.3,6,10-7.5.3-11.5-11.9-5-14-5.2-3.5-5.1-12.2-14-12,3.9,3.1,1.8,6.1,3,12,2.5,1.3,3.1-4,4-1,.3,3.4-.9,4.5-1,11,7.1,1.9,9.6,8.4,17,10-18.6,2.1-29.6-13.6-24-29,0,7-.3,14.3,4,17-2.1-6.6-4.8-16.7-3-24-22.2-28-50.1-50.7-56-90-2.8.5-8.4,4.5-10,0,5.7-1.7,13.1-1.5,15-7-13.5,4-31.5,3.7-45,0,1.3,12,26.6,2.7,29,8-4.4,3.9-19.2-1-25,1-3.8,35.5-29.7,48.9-46,72,14,25.9-9,60.1-36,48,30.5,5.5,44.9-23,34-46-4.5,4.2,1,9.2,1,14,.1,16.8-12.1,28-30,24,4.5-1.2,6.3-10.4,13-6,1.5,3.5-3.4.6-3,3,3.5-.5,6.5-1.5,11-1,.6-3.1,5.7-7,3-10-1.2,1.9-3.1,8.1-5,6-.6-1.8,1.2-5.9-1-6-1.8,1.3-8.4,4-8-1,3.5.8,3.8-1.5,7-1,1.5-2.2-.1-7.5,3-8v10c4.1-.6,2.2-7.2,5-9,.7,2.3-1.8,7.8,2,7,.5-6.3,1.7-14.5-3-18,2.2,4.4-2.7,1.8-4,3-5.8,5.4-7.7,15.2-16,18,0,11.9-12.1,10.4-10,21-9.5,2.8-10.1,23.8-5,32-4.6,4-9.9,8.3-12,17,0,2.6,4.3,1,3,5,42.2,20.3,116.8,28.2,174,18,17.8-3.2,71.2-9.9,46-30-15.2,4.9-37.2,13.4-52,12ZM188.1,386.3c2.9,2-.8,5.8-2,7-1.3,11.3-1.1-5.4,2-7ZM139.1,475.3c9-4.9,30-2.4,38-5-10.1,4.7-26.9,4.2-38,5ZM172.1,475.3c-1.4,1.6-3.4,2.5-6,3-.6-3.6,3-3,6-3ZM180.1,471.3c8.9-5.1,22.1-6,32-10-3.6,6.4-21.1,7.5-32,10ZM216.1,433.3c2.1,4.4-13.5,4.2-15,5,3-3.7,10.7-2.6,15-5ZM198.1,437.3c.4,3.4-4.3,1.7-6,3-.4-3.4,4.3-1.7,6-3ZM217.1,441.3c-6.6,5.9-19.2,3.6-30,7,7.1-5.2,20.1-4.6,30-7ZM218.1,448.3c-7.9,5.5-23.4,8.5-34,8,10.9-3.1,22.7-5.3,34-8ZM188.1,463.3c4.5-1,7.9-3.9,15-3,4.4-3.3,11-4.3,17-6-11.5,8.2-29.3,10-46,13-.2-4.6,8.4-2.8,14-4ZM171.1,406.3c6.8,2.5,1.4,11.2,3,15-2.4-.4-2.2,1.8-5,1,3.1-2.6,3.1-5.1-1-7,1.2-3.2,6.6-3.9,3-9ZM170.1,405.3c-12.5-2.6-13.9,14.8-3,18-16.3.8-10-26.1,3-18ZM138.1,327.3c-2.1-.6-6.9,1.6-6-2,2.1.6,6.9-1.6,6,2ZM137.1,323.3h-7v-2h7v2ZM126.1,318.3c-1-4.7,7.5.2,8-3,6.1,2.5-6.9,4.8-8,3ZM123.1,314.3c.4-4,9.2-3.6,12-2-3.6,2.6-6.9,3-12,2ZM135.1,304.3c-4.2,3.8-.7.9,0,6h-12c-1.6-3.9,4.3-.4,4-3-.2-1.4-5,.9-8,0,2.7-3.6,9.8-2.8,16-3ZM111.1,401.3c-11.4,8.9-8.6,35.5,11,33,1.8-3.2,5.5-4.5,9-6,.2-5.6-5.1-5.6-6-10,1-1,2-2,3-3,2.5,1.8,4.9,3.8,4,9,4.7,1.7,1.3-4.7,6-3,.5-4.5-.5-7.5-1-11,7.5,11.9-2.7,30.4-22,26-2.1-4.3-9.2-3.2-12-9-4.4-9.1-.7-23.6,8-26ZM127.1,403.3c-.3-1.6,1-1.7,1-3h-14c7.1-6.1,18.4-2.2,21,6-3.8,0-3-4.3-8-3ZM134.1,409.3c-2.4-.9-4.1-2.6-5-5,2.9.4,4.6,2.1,5,5ZM123.1,430.3c-2.3-.3-4.1-1.2-6-2,3.9-1.2,3.2-4.8,4-7,2.9,0,3.7,2.3,5,4,.8,3.4-4.1,1.3-3,5ZM111.1,427.3c-2.6-2.4-2.7-7.4-3-12,1.2.2.8,1.8,1,3,3.2-1.5,4.4-.4,8,0-2.7,2.3-4.4,5.6-6,9ZM119.1,403.3c3.9,2.1,5.3,7.4,4,12-3.5.4-8.1-3.2-5-6-3.3-3.2-3.7,4.9-7,5,0-1.4.2-2.8-1-3,2.3-3.3,8.2-3.1,9-8ZM137.1,442.3c4.1-2.7,10.9-10.2,12-13,7.1-18.7-14.3-48.1-40-37,22.4-14.3,46.2,11.8,42,34-3.8,20-29.2,28.5-49,16-2.4-6.6-10.1-7.9-9-18,3.5,17.2,28.5,28.2,44,18ZM138.1,473.3c-9.7,3.3-33.7,3.7-42-1,15.7-.8,31.5,2.4,42,1ZM95.1,472.3c-4.3,1.9-21.6.5-26-4,10.5,1.5,16.3,1.6,26,4ZM97.1,400.3c1.4,5.8-6.2,11.1-4,21-7.1-4.7,1.9-15.9,4-21ZM81.1,418.3c-4.4,1.9-6.5,3.6-11,1,.7-2.2,5.6-.4,8-1-.2-6.1-6-4.7,1-8-.5-4.3-6.3-4.8-10-3v10c-12.7-14.7,20.3-19.1,12,1ZM44.1,463.3c7.9,1.9,16.7.7,22,6-18.3-3-35.7-6.9-50-14,8.2,0,17.9,5.6,28,8ZM13.1,457.3c14.5,5.9,30.2,10.5,47,14-15.5-.8-36-5.3-47-14ZM64.1,473.3c3-2.6,8.4.9,12,1-3,2.6-9.6.3-12-1ZM122.1,481.3c-14.8-.3-32.6-2.3-45-7,23.6,4,54.3,5.4,81,3-11.1,3.5-22.4,4.2-36,4ZM230.1,476.3c-17.9,9.4-40,14.7-65,17,6.2-3.8,15-4.6,22-6,14.6-3,28.6-4.5,40-12,1.6-.3,1.7,1,3,1ZM165.1,487.3c2-2.3,6-2.7,10-3,0,4.3-6,2.7-10,3ZM177.1,485.3c16.1-4.9,34.8-7.2,50-13-11.9,8.5-33.6,12.2-50,13ZM164.1,482.3c21.2-5.1,44.3-8.4,63-16-15.1,10.6-41.8,14.8-63,16Z"/>
      <path class="st0" d="M60.1,84.3c1.8-3.2,5-5,5-10-5.9-5.5-12.3,8.5-5,10Z"/>
      <path class="st0" d="M44.1,106.3c-2.9.9-3.1.9-6,0,1.5,7,.8,24.3,7,32,0-1.7.8-2.6,2-3-1.7-5.5,1.9-21.5-3-29Z"/>
      <path class="st1" d="M154.1,7.3h-16c2.7,4.2,12.1,3.4,16,0Z"/>
      <path class="st1" d="M51.1,13.3c-4.7.3-10.1,0-12,3,2.6,1.1,10.7.4,12-3Z"/>
      <path class="st1" d="M168.1,22.3c-5.8-1.2-21.2-2.2-24,0,8.8-1.4,17.2,2.8,24,0Z"/>
      <path class="st1" d="M187.1,22.3c-6.4.8-10.2-1.2-16-1,1.8,3.9,12.1,4.4,16,1Z"/>
      <path class="st1" d="M149.1,26.3c6.6.7,17.1,2.8,23-1-9.4.8-16.6-1.8-23,1Z"/>
      <path class="st1" d="M45.1,37.3c.5-3.6-3.7-7.6-6-5,2.5,1.2,1.2,6.1,6,5Z"/>
      <path class="st1" d="M52.1,52.3c-1.2-5.5.3-13.6-4-16-1.7,7.2,0,14.7,3,20,4-.3,9.9-8.4,5-11-2.5,1.2,0,7.3-4,7Z"/>
      <path class="st1" d="M70.1,42.3c1.8-6.2-9.7-8-6-2,2.5-3.7,2.1,3.8,6,2Z"/>
      <path class="st1" d="M174.1,61.3c1.1-2.6-3-4.8,0-6,1.9,6,3.9-2.8,6-3,0,3.7,1.5,5.8,3,8,3.1.5,3.9-1.4,6-2-.7-7,1-17,0-21-3.8,4.9.7,13-4,21-.2-.8-.8-1.2-2-1,3.3-4.4,1.6-15.5-2-19-2.9,2,.9,11-2,13-1.5-4.5-1.5-10.5-5-13-6.2,3.2-7.3,20,0,23ZM174.1,46.3c4.3-1.2,4.3,8.2,0,7-.6-4-.6-3,0-7Z"/>
      <path class="st1" d="M195.1,50.3c1.2-.8,2.7-1.3,5-1-.4-3.2,1.3-8.7-2-9-.2,1.2.2,2.8-1,3,.7-6.6-2.7-3.2-5-6v6c3.3-1.9,4.2,3.6,2,4-.5-1.2-1.1-2.3-2-3v12c1.7,0,3.1.2,4,1,0-2.7.4-5.7-1-7Z"/>
      <path class="st1" d="M76.1,59.3c3.6-4.1,3.2-19.3-2-21-2,7,.8,11.7-1,20,1.4,0,2.2.5,3,1Z"/>
      <path class="st1" d="M161.1,61.3c3.3-5.5-.8-12.2,2-18,1.9.4,0,4.6,4,3,1.1-6.8-3.1-7.8-8-6-2.2,5.2-3.1,17.5,2,21Z"/>
      <path class="st1" d="M89.1,50.3c-3.8.6-5.4-3.7-5-10-3.8,1.6-1.2,1.6-5,0,1.2,5.3,1.2,14.7,5,20,2.8-2.2,4.2-5.8,5-10Z"/>
      <path class="st1" d="M90.1,47.3c-1.1-4.4,3.4-3.3,3-7h-4c.6,2.1-1.2,6.6,1,7Z"/>
      <path class="st1" d="M93.1,59.3c2.7-.7,2,2,4,2,3.1-1.6,8.1-9.6,4-12-1.9,1.1-1.4,4.6-3,6-2.1-2.4-3.9-10.5-1-12,3.1-.8,1.2,3.5,5,2,.2-2.5-1.6-3.1-2-5h-5c-1.5,5.5-2.6,11.4-2,19Z"/>
      <path class="st1" d="M116.1,44.3c2.4,4.6-3.5,14.8,1,18,.2-1.2,1.6-1.1,3-1,.4-7.6-2.1-18.1,4-20-2.2-1.2-13.4-2.7-14,1,1.7,2.7,4.8-1.7,6,2Z"/>
      <path class="st1" d="M68.1,55.3c-7.5-1.7-.2-12.4-7-14-3.2,5.8,1.4,23.2,7,14Z"/>
      <path class="st1" d="M46.1,43.3c-1.3-.3-1.9-1.4-4-1,0,2.7-.5,5.9,2,6,.4-1.9,2.2-2.5,2-5Z"/>
      <path class="st1" d="M69.1,47.3c-.8.7-2.2,5.6,0,6,2.3-1.3,4.6-5.5,0-6Z"/>
      <path class="st1" d="M181.1,64.3c5.1-.7,12.6,1.2,15-4-52.3,8.5-106.1,6-153-1,38.9,11.4,96.7,10.7,138,5Z"/>
      <path class="st1" d="M58.1,87.3c10.8,1.2,12.5-8,8-15-10.2-5.6-16.4,10.7-8,15ZM60.1,84.3c-7.3-1.5-.9-15.5,5-10,0,5-3.2,6.8-5,10Z"/>
      <path class="st1" d="M162.1,88.3c3.9-4.7,3.4-11.4-1-15-15.3-4.6-14.7,20.6,1,15ZM153.1,85.3v-9c3.9-.9,6.2-1.2,9,1-2.5,3.2-3.8,10.5-9,8Z"/>
      <path class="st1" d="M114.1,107.3c3.1-3.2,2.3-10.4,8-11,6.1.9,4.5,9.5,9,12,1.6-18.2-20.6-17.2-17-1Z"/>
      <path class="st1" d="M124.1,112.3c-2.2-5.1.2-6.5,2-10-2.9.1-6.6-.6-8,1,4,3.2-.4,8.7,6,9Z"/>
      <path class="st1" d="M93.1,108.3c.5,3.2-1.8,3.5-1,7,3.3,1.2,2.4-6.8,1-7Z"/>
      <path class="st1" d="M99.1,108.3v7c2.9-.2,4.6-7.9,0-7Z"/>
      <path class="st1" d="M128.1,127.3c0-3-6.4-4.9-8-3,3,.7,3.5,3.8,8,3Z"/>
      <path class="st1" d="M130.1,130.3c.2-1.2,1.6-1.1,3-1-.8-2.2-.6-5.4-3-6,0,3.1-2,4.3,0,7Z"/>
      <path class="st1" d="M117.1,131.3c9.7-6.6,2.6,12.1,9,12,.4-4-2.3-6.1,1-8,1.5,1.2,1.6,3.8,3,5v-7c-5.9-1.7-9.3-6-14-9-3,2.3-1.4,5.1,1,7Z"/>
      <path class="st1" d="M179.1,155.3c-7.7,2.6-13.2,7.4-20,11,8.6-1.8,16.3-4.4,20-11Z"/>
      <path class="st1" d="M178.1,162.3c1.4,2.4,7.4-1.8,4-4-.9,1.8-3.7,1.6-4,4Z"/>
      <path class="st1" d="M138.1,171.3c5.3,0,14.8-.3,20-5-5.8,2.6-15,1.7-20,5Z"/>
      <path class="st1" d="M170.1,171.3c-8.6,6.8-24.1,6.5-35,11,15.7-1.1,25-3.4,37-9-.1-1.2-.3-2.4-2-2Z"/>
      <path class="st1" d="M131.1,220.3c.5-3.1-.9-4.5-4-4-.5,1.5-1.5,2.5-2,4,2.9.9,3.1.9,6,0Z"/>
      <path class="st1" d="M133.1,223.3c-2-1.7-8.1-1.5-9,1,2.7,1.1,6.4.6,9-1Z"/>
      <path class="st1" d="M122.1,236.3c5-2,12.2,1.6,16-3-2.4,0-13.9-.6-16,3Z"/>
      <path class="st1" d="M142.1,262.3c-4.4.3-10-.7-11,3,1.8.5,11.1,1.6,11-3Z"/>
      <path class="st1" d="M146.1,266.3c-4.3,1-8.6,2-12,4,5.4,0,11,.3,12-4Z"/>
      <path class="st1" d="M146.1,271.3c-6.7.6-10.7,3.9-19,3,3.7,4.1,17.3,1.5,19-3Z"/>
      <path class="st1" d="M146.1,277.3c-6.4,2.9-17.3,1.4-23,5,6.6,1.2,19.2-.2,23-5Z"/>
      <path class="st1" d="M147.1,282.3c-.2-.8,0-2-1-2-5.3,5-15.2,5.4-25,6,6.8,4.7,22,.8,26-4Z"/>
      <path class="st1" d="M127.1,307.3c.3,2.6-5.6-.9-4,3h12c-.7-5.1-4.2-2.2,0-6-6.2.2-13.3-.6-16,3,3,.9,7.8-1.4,8,0Z"/>
      <path class="st1" d="M135.1,312.3c-2.8-1.6-11.6-2-12,2,5.1,1,8.4.6,12-2Z"/>
      <path class="st1" d="M126.1,318.3c1.1,1.8,14.2-.5,8-3-.5,3.2-9-1.7-8,3Z"/>
      <path class="st1" d="M130.1,323.3h7v-2h-7v2Z"/>
      <path class="st1" d="M132.1,325.3c-.9,3.6,3.9,1.4,6,2,.9-3.6-3.9-1.4-6-2Z"/>
      <path class="st1" d="M186.1,393.3c1.2-1.2,4.9-5,2-7-3.1,1.6-3.3,18.3-2,7Z"/>
      <path class="st1" d="M114.1,400.3h14c0,1.3-1.3,1.4-1,3,5-1.3,4.2,3.1,8,3-2.6-8.2-13.9-12.1-21-6Z"/>
      <path class="st1" d="M69.1,407.3c3.7-1.8,9.5-1.3,10,3-7,3.3-1.2,1.9-1,8-2.4.6-7.3-1.2-8,1,4.5,2.6,6.6.9,11-1,8.3-20.1-24.7-15.7-12-1v-10Z"/>
      <path class="st1" d="M167.1,423.3c-10.9-3.2-9.5-20.6,3-18-13-8.1-19.3,18.8-3,18Z"/>
      <path class="st1" d="M134.1,409.3c-.4-2.9-2.1-4.6-5-5,.9,2.4,2.6,4.1,5,5Z"/>
      <path class="st1" d="M168.1,415.3c4.1,1.9,4.1,4.4,1,7,2.8.8,2.6-1.4,5-1-1.6-3.8,3.8-12.5-3-15,3.6,5.1-1.8,5.8-3,9Z"/>
      <path class="st1" d="M109.1,418.3c-.2-1.2.2-2.8-1-3,.3,4.6.4,9.6,3,12,1.6-3.4,3.3-6.7,6-9-3.6-.4-4.8-1.5-8,0Z"/>
      <path class="st1" d="M126.1,425.3c-1.3-1.7-2.1-3.9-5-4-.8,2.2,0,5.8-4,7,1.9.8,3.7,1.7,6,2-1.1-3.7,3.8-1.6,3-5Z"/>
      <path class="st1" d="M216.1,433.3c-4.3,2.4-12,1.3-15,5,1.5-.8,17.1-.6,15-5Z"/>
      <path class="st1" d="M198.1,437.3c-1.7,1.3-6.4-.4-6,3,1.7-1.3,6.4.4,6-3Z"/>
      <path class="st1" d="M187.1,448.3c10.8-3.4,23.4-1.1,30-7-9.9,2.4-22.9,1.8-30,7Z"/>
      <path class="st1" d="M218.1,448.3c-11.3,2.7-23.1,4.9-34,8,10.6.5,26.1-2.5,34-8Z"/>
      <path class="st1" d="M44.1,463.3c-10.1-2.4-19.8-8.1-28-8,14.3,7.1,31.7,11,50,14-5.3-5.3-14.1-4.1-22-6Z"/>
      <path class="st1" d="M212.1,461.3c-9.9,4-23.1,4.9-32,10,10.9-2.5,28.4-3.6,32-10Z"/>
      <path class="st1" d="M227.1,466.3c-18.7,7.6-41.8,10.9-63,16,21.2-1.2,47.9-5.4,63-16Z"/>
      <path class="st1" d="M95.1,472.3c-9.7-2.4-15.5-2.5-26-4,4.4,4.5,21.7,5.9,26,4Z"/>
      <path class="st1" d="M177.1,470.3c-8,2.6-29,.1-38,5,11.1-.8,27.9-.3,38-5Z"/>
      <path class="st1" d="M64.1,473.3c2.4,1.3,9,3.6,12,1-3.6-.1-9-3.6-12-1Z"/>
      <path class="st1" d="M96.1,472.3c8.3,4.7,32.3,4.3,42,1-10.5,1.4-26.3-1.8-42-1Z"/>
      <path class="st1" d="M177.1,485.3c16.4-.8,38.1-4.5,50-13-15.2,5.8-33.9,8.1-50,13Z"/>
      <path class="st1" d="M77.1,474.3c12.4,4.7,30.2,6.7,45,7,13.6.2,25-.5,36-4-26.7,2.4-57.4,1-81-3Z"/>
      <path class="st1" d="M166.1,478.3c2.6-.5,4.6-1.4,6-3-3,0-6.6-.6-6,3Z"/>
      <path class="st1" d="M175.1,484.3c-4,.3-8,.7-10,3,4-.3,9.9,1.3,10-3Z"/>
      <path class="st1" d="M225.1,426.3c-9.3-26.5-32.3-45.3-50-64-14.5-15.2-28.8-37-31-56-1.5-13.3,7.7-15.7,11-24,3.5-8.9,3.1-21.1,1-29-3.8-14.4-22.2-34.9-17-51,1.8-5.6,6.7-5.3,12-11,27.1-6.3,41-22.7,49-45,12.8-35.7,5.3-91.2,16-127-7.8-10.2-22.4-12.4-40-15-40.4-6.1-86.7-5.3-120,0-10.4,1.6-21.9,6.1-27,15,7.2,30.4,2.5,71.8,7,101,3.5,23,17.2,48.6,31,60,10.8,8.9,26.7,7.7,38,20,3.5,22.6-7.5,38.2-18,50,1.1,5.5-2.5,11.1-1.6,14.9h0c1.4,16.3,15.3,30,14.6,42.1-.3,5.2-5.4,16.3-8,21-7.4,13.2-24.9,27.2-39,42-13.6,14.2-29.1,30.3-37,45-3.2,5.9-6.2,13.9-7,20-.6,5.1,1.8,10.9,1,16-1.1,6.5-11,10.8-10,19,.9,7.4,19.1,13,27,16,40.3,15.3,101.3,19.6,148,13,14.8-2.1,39.4-7.6,52-13,.6-.2,3.7-1.8,4-2,14.6-10.3-.9-20.3-3-31-2-10.2-.5-19.8-3-27ZM124.1,194.3c5.3-1.5,15-2.6,17,0-5.6-.4-10.8,2.4-17,0ZM204.1,106.3c-3.2.9-1.4-3.3-4-3-4.2,3.6,3.3,4,3,7h-6c-.1,3.5,5.2,1.5,6,4-.2,13.5-7.5,19.8-8,33-5-.6-4-7.4-8-9-.8,2.8,4.1,8.6,5,13-5.2-3.1-8.3-8.4-9-16,0-4.7,2.3,1.2,4,1-.4-4.6-1.3-8.7-4-11,1.3,1.2,1.6.4,3,0-3.8-17.5,2.6-45.3,17-54,2.2.1.4,4.2,1,6-12.7,7.2-15.6,29.5-12,45-3.5,3.5-.4,9.7,2,13,1.6-19.3.9-39.4,8-55,4.2,5.2,1,17.7,2,26ZM55.1,33.3c4.3,1.3,10.3,1.1,15,2-9.7-5.9-26.6-4.7-37-10,.6-2.7-1.3-7.9,1-9,2.8,4.8,3.8,11.6,13,10-1.9-3.1-7.5-2.5-10-5,2.6-3.6-2-4.5,0-7C69,3.4,110,3.1,152.1,5.3c.6,2,5.1.3,4,4,7.7,2.8,18.1-2.5,21,4-11.8-1.8-29.2-.8-44,0,2.3,12.1,38.2,1.6,58,8,3-.7-1-2.1,0-4,6.7,1.6,5.9-.3,13,0-1.7-3.9-8.2-3.1-12-5,0,3.3.9,4.3-6,3-.5-2.1,1.4-1.9,3-2-3.7-.9-6-3.4-11-3,7.5-1.4,27.7,1.6,33,9,1.5,14.7-26.6,14-42,15-34.9,2.2-66.1-.4-97,1,44.1,4.3,96.8,4.5,135-4,1.6,4.6-4.1,1.8-4,5-1.5,5.7,7.1,18.8-2,22-1.5,3.8,4.5.2,3,4-44.1,10.2-125.5,13.8-168-3,0-4.5,3,.4,6-1-.5-3.8-7.7-.9-6-7,.6-5.4,3.4,5.1,6,1,3.1-4.9-5.6-5.3-6-10,1.6-.3,1.7,1,3,1-2.1-4.2-3.6-9.1-4-15,10.6.4,16,6,21,12,3.4-2.2-1.3-4.6-1-7ZM190.1,17.3c-11.7,1.5-30.4-2.4-48-1,13.5-4,34.6-1.5,48,1ZM186.1,80.3c-1.6,2.9-3.7,1.2-6,0v-6c2.8-1.3,4.9-2.5,8-1-.7,1.7-5.3,4.6-2,7ZM47.1,135.3c-1.2.4-2,1.3-2,3-6.2-7.7-5.5-25-7-32,2.9.9,3.1.9,6,0,4.9,7.5,1.3,23.5,3,29ZM54.1,142.3c-1.8-2.7-3.3,3.3-5,4-3.1.1-3.4-2.6-4-5,.2-3.6,6.6-6.1,3-10,3.8,1.3,3.1-7.4,3-13-.4-1.5-1.3.4-3,0v-5c6.8,4.1-.2-12.1,0-17-2.6,2.1-2.1,2.6-5,3,1.3,2.6,2.2,3,1,6-2.6.3-3.3-1.4-3-4-2.1-.5-1.9,1.4-2,3-5-1.8-2.7-12.7-2-19,3.2,1.8,3.4,6.6,6,9,3.5-2.3-2.4-3.5-1-7,1.5.5,2.5,1.5,4,2-.6-2.8-2.5-4.2-3-7-1.2.2-.8,1.8-1,3-6.7-1.4-6.8-12.1-6-18,16.6,10.5,22.3,40,20,61,2.5-.1,2-3.3,2-6,3.7,6.1.5,26.6-8,30-2.1-3.4,2.4-7.1,4-10ZM75.1,180.3c-7.4-8.3-17.4-13.9-23-24,19.2-25.6,5.6-76.2-16-93,27.4,7.8,55.5,9.3,89,10-8.7-.3-19.6,6.2-26,12-.7,8.3-6.1,11.9-6,21,.8-22.9,33.2-42.1,50-23,14.4,16.4,8.8,60.4-5,71-26.7,7.8-40.8-11-44-33-1.1,17.5,12.6,38.6,33,38,35.3-1.1,35.6-78.9,4-86,13.2-.6,31.9-3,49-3,.3,3.6-2.8,3.9-3,7,3.1,14.7,19.3,1.5,11-9,6.3,0,13.4-3.6,17-3-22.3,16.2-34.6,69.5-14,89-8.1,24.9-42.3,40.7-83,36-12.8-1.5-23.5-7.5-33-10ZM88.1,268.1c-1.6-10.2,2.6-22.4,11-25.9,9.4,6.3,36.3,8.2,44-1-10.7,3.1-39.4,7.9-43-5,11.8,5.8,31,7.4,42-1-10.5,3.9-31.1,5.1-39-2,6.7-9.5,4.1-24.4,6-37,7.7,1.2,18.7-1.6,27,1-1.4,15.6,2.6,27.8,8,40,.5,1.1-.6,3,0,4,2.5,4.2,7.3,6.3,9,11,3.2,8.7-.7,16.1,1,26-4.8,2.8-4.4,7.8-10,11-8.8,5-34.4,5.8-45,0-6.2-3.4-8.2-15.4-11-21.1ZM180.1,493.3c-57.2,10.2-131.8,2.3-174-18,1.3-4-2.9-2.4-3-5,2.1-8.7,7.4-13,12-17-5.1-8.2-4.5-29.2,5-32-2.1-10.6,10-9.1,10-21,8.3-2.8,10.2-12.6,16-18,1.3-1.2,6.2,1.4,4-3,4.7,3.5,3.5,11.7,3,18-3.8.8-1.3-4.7-2-7-2.8,1.8-.9,8.4-5,9v-10c-3.1.5-1.5,5.8-3,8-3.2-.5-3.5,1.8-7,1-.4,5,6.2,2.3,8,1,2.2.1.4,4.2,1,6,1.9,2.1,3.8-4.1,5-6,2.7,3-2.4,6.9-3,10-4.5-.5-7.5.5-11,1-.4-2.4,4.5.5,3-3-6.7-4.4-8.5,4.8-13,6,17.9,4,30.1-7.2,30-24,0-4.8-5.5-9.8-1-14,10.9,23-3.5,51.5-34,46,27,12.1,50-22.1,36-48,16.3-23.1,42.2-36.5,46-72,5.8-2,20.6,2.9,25-1-2.4-5.3-27.7,4-29-8,13.5,3.7,31.5,4,45,0-1.9,5.5-9.3,5.3-15,7,1.6,4.5,7.2.5,10,0,5.9,39.3,33.8,62,56,90-1.8,7.3.9,17.4,3,24-4.3-2.7-4.1-10-4-17-5.6,15.4,5.4,31.1,24,29-7.4-1.6-9.9-8.1-17-10,0-6.5,1.3-7.6,1-11-.9-3-1.5,2.3-4,1-1.2-5.9.9-8.9-3-12,8.9-.2,8.8,8.5,14,12-6.5,2.1-2.5,14.3,5,14,2.9-4.7-8.3-2.7-6-10,7.5-.8,11.5,14.8,13,20-21.1,3.8-37-6.3-35-29-8.1,19.5,13.3,36.4,36,32,3.4,8.2,2.4,13.1,2,24-1.7,2.9-7.4,1.9-9,5,2.7,2.9,4.9-3,10-1-14.5,7.5-33.5,10.5-51,15,14.8,1.4,36.8-7.1,52-12,25.2,20.1-28.2,26.8-46,30Z"/>
      <path class="st1" d="M157.1,31.3c21-1.2,38.5,1.3,51-8,.7-1.6-2-4.4-2-2,2.6.8-3.2,1.3-3,3-48.6,9.3-103.3,8-155,1,6.6,4.9,16.2,5.2,24,6,31.6,3.3,56.1,1.6,85,0Z"/>
      <path class="st1" d="M123.1,61.3c6.9,1.6,2.5-8.2,10-6-1,4-.6,7.3,3,9,.3-4.3-1.1-10.5,2-12,1,4.7,2,9.3,8,9,.3-3.6,3.5-7.8,1-11-4.9-1-1.4,4.9-3,5-2.4-4.2-1.8-6-3-12,3.1-.7,2.9,1.7,6,1-.1-3.2-2.3-4.4-6-4-.5,4.2-3.4,6-4,10-.8-3.2-.6-7.4-2-10-5.3-.3-2.1,7.8-3,12-1.9-.2-2.2,1.1-4,1-1.4-1.9-.6-6.1-5-5,0,0,0,13,0,13Z"/>
      <path class="st1" d="M87.1,76.3c3,.3,7.8-1.1,8,2-2.1,1.6-1.2,6.1-3,8-2.5.2-4.2-.5-5-2-.6-2.1,1.2-6.6-1-7-5,9.9,6.1,13.6,12,8,3-9-7.1-16.3-11-9Z"/>
      <path class="st1" d="M114.1,115.1c1.2-4.8-3.1-4.1-3-7.8-2.4,0-2.9,1.7-6,1-1.6-2.4-1.7-9.9,1-11,1.4.6,5.2-1.2,5,1-.7,3.5-1,3.5-2,8,4.6-6,6-19.6,19-14,.6-8.9-5.6-1-11-4-.7,4-6.3,8.4-11,5,3.7-12.3,31.1-13.8,32,2-3.4.4-5.6-.4-8-1,1.8,3.9,2.1,9.2,5,12,1.3-4.2-3.1-7.9,1-9,6-1.3,6.3,8.9,3,11-3.7,0-2.9-1.1-6,0,.7,2.5-4.4,4.1-1,6-.8-7.6,9-.8,10-5,1.2,9.8,1.6,22.6-4,30-1.1-7.1,1.5-10.5,3-15-7.5.8-6.3,14.5-6,20-5.6,1.7-8.6,3.2-14,4-3.4-4.2,0-11.2-7-14,0,1.6.1,3.5-2,3-1.4-.6-2.4-1.6-3-3,1.1-2,4.8-4.1,2-7-4.9-1.6-1.5,5.2-6,4-2.2-3.8-3.4-8.6-3-15-4.8,19.2,10.6,35.4,32,35,18.2-14.8,16.9-60.3-4-72-17.6,1.4-28.8,9.2-31,26,3.3,6.2,11.1,4.8,15,9.8ZM116.1,145.3c-1.7-1.3-3.9-2.1-4-5,2.8.2,4.3,1.7,4,5Z"/>
      <path class="st1" d="M111.1,125.3c4.1.7,3.4-3.2,8-2,.3-2.3,1.6-3.8,1-7-2.4-2.1-2.2-1.4-5.8-1,.8,1,1.4,2.3,1.8,4-.2,3.4-7.1.2-5,6Z"/>
      <path class="st1" d="M114.2,115.2c0,0,0-.1-.1-.2,0,0,0,.1,0,.2,0,0,.1,0,.2,0Z"/>
      <path class="st1" d="M138.1,114.3c-1.4,6-4.8-.2-8,2-2-1.3.3-7-3-7-.5,2.8-1.5,5.2-2,8,5,.3,4.3,6.3,12,4-.9-3,3.1-6.1,1-7Z"/>
      <path class="st1" d="M177.1,150.3c-6.4,2.9-12.6,6-18,10,7.2-2.1,13.4-5.3,18-10Z"/>
      <path class="st1" d="M177.1,163.3c-5.6,1.8-9.9,4.7-14,8,6.3-2.7,10.3-2.1,14-8Z"/>
      <path class="st1" d="M177.1,166.3c1.9,4.5-4,1.4-3,5,2.8-.3,7.5-3.8,5-6-.2.8-.8,1.2-2,1Z"/>
      <path class="st1" d="M187.1,487.3c-7,1.4-15.8,2.2-22,6,25-2.3,47.1-7.6,65-17-1.3,0-1.4-1.3-3-1-11.4,7.5-25.4,9-40,12Z"/>
      <path class="st1" d="M102.1,442.3c19.8,12.5,45.2,4,49-16,4.2-22.2-19.6-48.3-42-34,25.7-11.1,47.1,18.3,40,37-1.1,2.8-7.9,10.3-12,13-15.5,10.2-40.5-.8-44-18-1.1,10.1,6.6,11.4,9,18Z"/>
      <path class="st1" d="M93.1,421.3c-2.2-9.9,5.4-15.2,4-21-2.1,5.1-11.1,16.3-4,21Z"/>
      <path class="st1" d="M110.1,411.3c1.2.2,1.1,1.6,1,3,3.3-.1,3.7-8.2,7-5-3.1,2.8,1.5,6.4,5,6,1.3-4.6,0-9.9-4-12-.8,4.9-6.7,4.7-9,8Z"/>
      <path class="st1" d="M115.1,436.3c19.3,4.4,29.5-14.1,22-26,.5,3.5,1.5,6.5,1,11-4.7-1.7-1.3,4.7-6,3,.9-5.2-1.5-7.2-4-9-1,1-2,2-3,3,.9,4.4,6.2,4.4,6,10-3.5,1.5-7.2,2.8-9,6-19.6,2.5-22.4-24.1-11-33-8.7,2.4-12.4,16.9-8,26,2.8,5.8,9.9,4.7,12,9Z"/>
      <path class="st1" d="M220.1,454.3c-6,1.7-12.6,2.7-17,6-7.1-.9-10.5,2-15,3-5.6,1.2-14.2-.6-14,4,16.7-3,34.5-4.8,46-13Z"/>
      <path class="st1" d="M60.1,471.3c-16.8-3.5-32.5-8.1-47-14,11,8.7,31.5,13.2,47,14Z"/>
      <path class="st1" d="M136.1,229.3c-7.8,1.6-4.7-5.2-12-2,3.6,4.6-.9.8-2,5,5.2-.5,13.1,1.7,14-3Z"/>
    </g>
  </g>
</svg>