<?xml version="1.0" encoding="UTF-8"?>
<svg id="Layer_2" data-name="Layer 2" xmlns="http://www.w3.org/2000/svg" viewBox="0 0 323.39 522.28">
  <defs>
    <style>
      .cls-1 {
        fill: #fff;
        stroke: #000;
        stroke-width: .75px;
      }
    </style>
  </defs>
  <g id="Layer_1-2" data-name="Layer 1">
    <g>
      <path class="cls-1" d="M21.92,96.58c4.54-.33,7.32-.47,10.96-2.74,9.36,3.72,15.91,8.02,26.04,9.59,18.65,2.89,43.82,7.72,65.77,4.11-1.05-5.47-2.05-10.17-1.37-15.76-34.18-1.61-84.89-1.11-111.68-2.06-2.97,8.2-5.36,16.63-5.48,24.67,17-.7,30.84,1.55,41.79-.69-12.05-1.77-35.57-2.38-26.04-17.13Z"/>
      <path class="cls-1" d="M173.34,208.94c-2.95,1.62-5.32,3.81-9.59,4.11,2.57,19.38,7.3,36.15,6.85,56.87-.07,1.76-2.67.98-2.74,2.74,3.81,2.36,7.97,4.36,10.96,7.54,2.87-13.89-3.09-22.49.69-30.83.13,5.37.32,12.92.69,19.18.15,2.51.72,10.12,1.37,8.91v-3.43c.48-27.73.97-45.41-.69-68.52-.15-.77-.76-1.07-1.37-1.37-.38.99-1.07,1.67-2.06,2.06-.28,17.58,3.15,26.49,1.37,42.48-2.7-9.47-.23-22.64-2.74-32.89-1.58,1.93.86,3.92-1.37,5.48-4.51-2.35,1.31-8.15-1.37-12.33Z"/>
      <path class="cls-1" d="M177.45,282.94v4.11c1.81.21,1.77-1.43,2.06-2.74-.98-.16-1.16-1.13-2.06-1.37Z"/>
      <path class="cls-1" d="M156.9,208.26c.8.12.74,1.08.69,2.06,4.64,1.63,12.84,1.67,14.39-3.43-5.25.13-9.14-3.66-13.7-2.06.82,3.06,7,.77,8.22,3.43-2.44,2.11-7.02-2.32-9.59,0Z"/>
      <path class="cls-1" d="M154.84,205.52c-6.03-1.11-11.02,2.06-8.22,7.54,3.61.41,1.31-5.08,4.8-4.8.79,2.84-1.44,2.67-1.37,4.8,4.17,4.61,8.58-4.06,4.8-7.54Z"/>
      <path class="cls-1" d="M144.57,206.2c-1.03-.12-2.53.24-2.74-.69,1.71-.35,4.13.02,4.11-2.06-4.27-1.92-7.34,2.21-9.59-.69,1-1.59,2.17,1.34,2.06-1.37-4.86.75-2.1-6.12-4.8-7.54-.2,2.31-3.04,1.99-3.43,4.11,1.01.13.63,1.66.69,2.74,3.93,1.51,8.13,12.3,13.7,5.48Z"/>
      <path class="cls-1" d="M139.09,268.55c-1.82-.01-4.03.38-4.11-1.37.84-11.13-2.49-16.12,0-23.3.88,8.97-.76,16.27,2.06,23.3.44-2.53-.89-6.83.69-8.22,2.15,1.04,1.14,5.25,1.37,8.22,2.45-.29,3.66-1.83,6.85-1.37,1.95-5.04-.32-12.84,1.37-17.81,1.07,3.69-.42,11.23,0,14.39,2.34.62,6.82-.38,10.96,0-.02-11.08-2.92-16.7-2.06-26.72,2.66,8.01,2.69,21.74,2.74,30.15,4.48-.6,6.5,1.27,9.59,2.06.77-3.73-.25-5.12,1.37-7.54-2.18-8.6-3.24-24.22-4.8-32.89-1.04-5.79-1.35-13.94-6.85-15.07-.5,2.62,3.03,5.13,0,6.17-1.73-1.29,1.44-3.56-1.37-4.11-1.96,3.75.62,12.03-1.37,15.76-1.28-5.27,2.46-12.88-2.74-15.07-1.35,2.99.08,8.76-2.06,10.96.47-3.46.22-7.08,0-9.59-3.35,9.61-.47,23.5-4.11,30.83.08-5.99,2.49-23.26,0-27.41.09,3.74,0,7.31-1.37,9.59-2.08-2.62,2.62-7.2,0-10.28-1.1,2.32-.47,6.38-2.74,7.54-.42-6.18,5.49-13.3,0-16.44h-2.06c-2.3,5.69-.39,15.6-2.06,21.92-1.81-8.07.81-13.68.69-22.61-3.11,1.28-.93-2.72-3.43-2.06-1.77.06-.72,2.93-3.43,2.06-1.86,26.22-.08,47.11,1.37,66.46,4.04-.3,4.42-4.26,5.48-7.54ZM161.7,239.09c-3.7-2.73-.9-13.54-3.43-19.18,3.4,4.14,2.68,12.39,3.43,19.18ZM139.09,241.15c-.32,4.49-.13,13.24-.69,17.13-2.5-4.7.06-10.79-1.37-17.13h2.06Z"/>
      <path class="cls-1" d="M146.62,478.89h-8.22c-5.35,8.12-13.81,13.14-19.18,21.24h5.48c.46-2.74,2.29-4.1,3.43-6.17,2.12,2.2-3.05,4.41-1.37,6.17,10.82-2.43,16.02-10.47,21.92-17.81-.99-.84-1.04-2.61-2.06-3.43Z"/>
      <path class="cls-1" d="M135.66,287.74c.15-3.02,1.07-4.72-.69-6.85.7,2.82-2.34,5.83.69,6.85Z"/>
      <path class="cls-1" d="M126.75,501.5c-.47,2.79,2.09,6.08.69,7.54-.93-2.27-2.23-4.16-2.74-6.85-2.78-.54-3.67-.5-6.17,0,.38,2.62.88,8.85-3.43,10.28.36-2.38,1.86-3.63,2.74-5.48-3.69-4.93-.07-8.62.69-14.39-5.6,7.88-12.26,14.69-16.44,23.98,15.76,1.26,24.68,2.65,32.89-7.54-1.91-3.34-3.53-6.97-8.22-7.54Z"/>
      <path class="cls-1" d="M133.6,481.64c-5.69.44-11.36-.79-13.7,0-.78,3.95-.14,11.34,0,15.07,4.48-5.11,10.14-9.04,13.7-15.07Z"/>
      <path class="cls-1" d="M134.29,290.48c.43,2.08-.88,5.9.69,6.85-.38-2.49,2.26-5.91-.69-6.85Z"/>
      <path class="cls-1" d="M134.97,308.98c10.16-4.7,7.62-21.85,2.06-30.15,1.72,13.09-2.08,17.92-2.06,30.15Z"/>
      <path class="cls-1" d="M117.16,481.64c-3.4-.76-4.24-.19-9.59,0-2.07,18.49-25.12,15.99-27.41,34.26,8.71,4.92,8.79-5.44,14.39-7.54-1.64,2.7-3.87,4.81-4.8,8.22,3,1.37,9.43.94,11.65-.69,3.27-12.75,18.59-19.89,15.76-34.26Z"/>
      <path class="cls-1" d="M151.42,67.8c2.19,3,3.29,9.01,6.85,11.65,1.65,1.22,8.14,3.46,9.59,3.43,5.4-.13,8.48-5.73,12.33-8.22-7.74-6.41-18.95-10.3-28.78-6.85Z"/>
      <path class="cls-1" d="M154.16,80.82c-2.09-4.08-4.78-7.56-6.17-12.33-6.7.15-8.43,5.28-13.02,7.54,2.33,4.3,5.94,7.31,8.91,10.96,3.96-1.52,5.61-5.36,10.28-6.17ZM142.51,73.97c3.7.19,5.29,2.48,4.8,6.85-2.46.17-2.51-2.06-4.8-2.06v-4.8Z"/>
      <path class="cls-1" d="M152.1,108.91c-1.14,3.18,1.52,7.91,6.17,7.54-2.07-2.5-2.45-6.68-6.17-7.54Z"/>
      <path class="cls-1" d="M166.49,115.76c-.48-.54-3.82-1.52-4.11,0,2.49.62.42,2.02.69,4.11,1.7.1,3.32.13,3.43-1.37-2.35-1.76-2.17-2.52,0-2.74Z"/>
      <path class="cls-1" d="M130.18,110.28c3.88.92,11.94,1.3,15.76,0-2.7-2.77-4.28-7.18-7.54-7.54,1.18.04,1.76-.53,2.06-1.37-2.71,1.45-11.84,5.45-6.85,6.17-1.03,1.03-2.89,1.23-3.43,2.74Z"/>
      <path class="cls-1" d="M156.21,487.8c-3.37,2-5.58,2.57-8.91,5.48-.43,4.77,1.08,7.6,2.74,10.28,1.7.89,2.84-2.01,3.43,0-.59,1.24-1.76,1.89-2.06,3.43,1.41,4.3,4.65,2.92,8.22,1.37.88-3.02-3.28-2.81-1.37-4.8.93.22,1.31.98,2.74.69,3.32-6,.76-15.08-4.8-16.44ZM149.36,496.71c2.18-1.51,6.46-.38,5.48,3.43-3.11,1.03-5.02-.15-5.48-3.43ZM156.21,504.93c-2.14.31-2.19-1.46-2.06-3.43,1.42.41,2.59,1.06,2.06,3.43ZM158.27,502.19c-3.08-.49-2.83-7.16,1.37-6.17.76,2.8.85,4.88-1.37,6.17Z"/>
      <path class="cls-1" d="M176.08,98.64c4.51,4.17,4.96,12.4,13.7,12.33.5-8.03,4.33-14.82-1.37-19.18-4.48,1.91-10.11,2.67-12.33,6.85Z"/>
      <path class="cls-1" d="M170.6,86.99c3.09,1.94,3.73,6.32,6.17,8.91,3.68-2.03,6.12-5.3,12.33-4.8.19-6.36-2.41-9.92-6.17-12.33-4.28,2.58-10,3.71-12.33,8.22ZM180.19,84.25c2.57-.52,1.49,2.62,3.43,2.74-.31,1.74-4.81-.7-3.43,2.74-2.21-.53-3.58-1.9-4.11-4.11,1.35.22,4.89,2.12,4.11-1.37Z"/>
      <path class="cls-1" d="M167.18,100.01c-4.09.65-8.58-1.9-7.54-4.11,2.41-.12,2.25,2.31,4.11,2.74-.31-2.89-3.11-3.29-4.8-4.8-.08.84-.2,1.62-1.37,1.37-4.05-4.74-8.37.15-11.65,2.06-.5,5.98.44,10.53,4.8,11.65,4.38-2.24,6.8-6.44,13.02-6.85-.51,2.11,2.36.84,1.37,3.43-2.65.6-2.44-1.67-4.11-2.06-1.31,2.35-3.47,3.84-6.17,4.8,1.01,2.41,2.94,3.91,4.11,6.17,3.39-1.72,6.61-.63,8.91-.69.53-5.32-1.05-8.54-.69-13.7Z"/>
      <path class="cls-1" d="M161.7,62.32c4.08.19,10.43,3.25,10.96-1.37-5.95-1.68-20.83-3.42-23.3,1.37,2.93,1.21,7.46-.23,12.33,0Z"/>
      <path class="cls-1" d="M172.66,34.92c-.6-13.13-.48-19.46.69-29.46-6.19-1.35-14.67-.41-21.92-.69-1.56,10.13-.76,19.67-.69,30.15h21.92Z"/>
      <path class="cls-1" d="M159.64,88.36c1.03,2.55,2.06,4.05,5.48,5.48,2.17-4.99-1.19-7.83-4.8-6.85.81.33,1.55.73,2.06,1.37-1.87.06-1.38-1.14-2.74,0Z"/>
      <path class="cls-1" d="M187.05,56.16c-1.23-6.53-.09-11.36-.69-17.13-19.07-1.34-37.01-.66-52.76-.69.4,5.76-.84,13.17.69,17.81,16.95,1.22,35.69,1.31,52.76,0ZM139.77,53.42c-1.67-1.85-.82-7.68,0-10.96,3.61,2.24,2.06,5.43,2.74,10.28-1.23-.09-1.45.84-2.74.69ZM152.79,54.1c-2.72-.02-2.84-2.64-4.11-4.11-1.75.53-.15,4.42-2.74,4.11v-11.65c3.04.84,2.51,5.26,4.8,6.85,1.83-1.14-.38-6.32,1.37-7.54,2.31,3.12,1.19,8.63.69,12.33ZM176.08,42.45c1.11-.19,1.18.65,2.06.69.82,2.05,1.76,9.29-.69,10.28-3.03-1.09-.58-7.64-1.37-10.96ZM169.23,41.77c.61.42,1.23.83,1.37,0,2.98,2.9,1.57,6.1,3.43,10.28-1.71.57-2.69,1.88-4.8,2.06-2.1-1.96-2.1-10.37,0-12.33ZM161.01,45.88c1.4.2,1.34,1.85,2.74,2.06-.01,1.88-3.23,1.63-4.11.69-.5-1.87,1.36-1.38,1.37-2.74Z"/>
      <path class="cls-1" d="M152.1,71.91c-1.56-.5-.2-3.91-2.74-3.43.02,1.64,1.76,5.02,2.74,3.43Z"/>
      <path class="cls-1" d="M154.84,84.25c3.33-.42,3.52-.42,6.85,0,.29-2.15-5.38-1.57-6.85,0Z"/>
      <path class="cls-1" d="M140.46,99.32c-.74-4.85,1-7.22,2.06-10.28-2.79-3.83-4.19-9.06-9.59-10.28-6.95,4.19-7.3,19.79-4.8,27.41,5.31-1.09,7.16-5.63,12.33-6.85Z"/>
      <path class="cls-1" d="M178.14,198.67c.57-1.08,2.96-3.82,1.37-4.8-3.65,4.12-6.87,8.66-15.07,8.22,6.49,7.7,21.92.56,17.81-10.28-1.37,2.28-.64,6.66-4.11,6.85Z"/>
      <path class="cls-1" d="M182.25,301.44c-.1-7.47.04-17.15-1.37-21.24.44,6.88-7.65,16.65,1.37,21.24Z"/>
      <path class="cls-1" d="M176.08,287.74c.49-4.83-.05-8.63-3.43-9.59-.91,6.48,1.41,15.36-.69,21.24-1.12-9.64,2.39-20.38-2.74-23.3-2.46,10.78-.46,21.57,2.06,30.83,1.65-.87-.38-5.4,1.37-6.17.27,2.44.24,4.11.69,4.8,2.36-8.01,0-12.78,1.37-20.55.09,1.28.45,2.29,1.37,2.74Z"/>
      <path class="cls-1" d="M175.4,296.64c2.28,2.08-3.84,13.62,2.06,15.07-.67-4.6,1.72-15.87-2.06-15.07Z"/>
      <path class="cls-1" d="M177.45,474.1c-3.43-.23-4.79,1.6-8.22,1.37-.8-4.21-7.35-1.99-9.59,0,1.96,12.11,13.94,23.61,26.04,24.67-1.71-6.69-13.47-14.43-8.22-26.04Z"/>
      <path class="cls-1" d="M156.21,283.63v4.11c1.64.41,3.13.98,5.48.69.61-1.45,2.09-2.03,2.06-4.11-2.82-1.95-4.2-2.01-7.54-.69Z"/>
      <path class="cls-1" d="M155.53,280.89c2.82-.15,5.83-.11,6.85-2.06-1.01-3.82-8.15-3.76-6.85,2.06Z"/>
      <path class="cls-1" d="M285.71,103.43c.42-2.1,1.45-3.57,2.06-5.48-15.44,11.36-37.11,10.62-56.87,16.44-1.02.81-1.07,2.59-2.06,3.43.88-2.7-2-1.66-2.06-3.43-13.9.13-27.74-2.94-37.68-2.74-.95.42-.1,2.64-1.37,2.74-1.71-.39-4.29-3.43-6.17-1.37,1.93,1.04,3.9,2.03,4.11,4.8-5.03-1.65-9.16-3.4-13.7-6.85-2.27,3.89-.83,11.5-6.17,12.33-5.14-1.25-8.46-4.33-13.02-6.17-2.25,1.18-3,3.85-5.48,4.8-.31-3.28-.31-2.89,0-6.17-2.15.59-2.86,2.62-4.11,4.11-1.8-2.14.5-4.57.69-6.85-17.83-1.99-33.85-2.09-50.02.69-17.96-7.04-44.11-6.77-56.87-13.7,1.83,1.16,5.7,3.87,4.8,5.48-4.56-1.84-8.42-4.37-13.7-5.48-.69,2.41-1.98,1.77-4.11.69-.96,2.4,4.15,2.16,2.06,3.43-.42-.2-2.64-1.7-2.74,0,6,3.14,12.67,5.6,22.61,4.8,11.37,4.19,28.16,10.45,43.85,12.33,14.38,1.73,29.57,3.64,40.42,3.43-1.69-.41-5.32-2.4-4.11-3.43,9.92,1.7,10.38,19.5,20.55,16.44,1.33,1.03-1.2,2.89,1.37,3.43,7.23,1.29,18-.94,30.83-.69.44-1.49-1.94-2.18.69-2.06,2.61-1.01.13,3.06,2.74,2.06,10.07,1.14,11.68-8.35,17.81-12.33,9.79-6.36,23.02-2.34,32.2-3.43,6.8-.8,11.98-5.12,19.18-4.8,4.11-4.11,9.43-3.47,14.39-5.48,3.93-1.59,7.57-5.73,12.33-6.85,7.14-1.68,17.21,2.26,21.24-3.43-3.12-.84-2.69,1.88-5.48,1.37-1.31-2.49-.79-2.54-2.06-4.8,1.81-1.84,6.07-1.24,6.85-4.11-3.66,1.8-10.24,2.4-13.02,6.85ZM28.09,105.49c.53-2.53,4.65-.6,4.8,1.37-2.13.07-1.96-2.16-4.8-1.37ZM163.07,139.74h-3.43c-.98-.91-.98-3.88,0-4.8,2.16-.33,2.68.98,4.11,1.37.28,1.65-1.25,1.49-.69,3.43Z"/>
      <path class="cls-1" d="M302.84,105.49c-10.17,6.88-27.21,2.77-34.94,11.65,14.21,1.34,32.22.41,43.16,1.37,5.07-6.75,1.99-19.79,8.91-23.3-4.13-4.25-15.07-1.27-20.55-2.06,3.91,2.02,4.61,6.94,3.43,12.33Z"/>
      <path class="cls-1" d="M294.62,103.43c1.27,1.07,4.24-.31,4.8-2.06-1.76.53-3.88.68-4.8,2.06Z"/>
      <path class="cls-1" d="M156.9,165.1c-5.43,3.71-8.15,10.12-8.91,18.5,2.06-.91,5.24-.7,8.22-.69-1.17-6.89,1.77-13.29.69-17.81Z"/>
      <path class="cls-1" d="M184.99,142.49c-16.95-1.31-31.05,4.41-43.85-2.06.03,4.53,1.06,8.07,1.37,12.33,3.18-.21,4.74,1.2,4.8,4.11-2.37-.54-2.89.76-4.11,1.37-.13,9.77.3,16.61-.69,24.67-3.02,2.69-10.8,14.19-3.43,16.44,2.67-.53.65-5.74,4.11-5.48-.37,2.59-2.23,3.71-2.06,6.85,3.35.53,5.23,2.53,9.59,2.06,1.54-.28-.1-3.76,2.06-3.43-.61,2.89.7,3.87,2.06,4.8,4.62-3.51,11.62-2.53,17.81-5.48-2.7-10.32-10.28-15.39-23.3-13.7-2.36,2.66-4.19,5.86-6.85,8.22,5.12-6.72,3.75-16.2,8.22-23.98-1.3-2.81-2.11-5.8.69-8.22-.59-6.37,4.13-13.18,9.59-15.76,8.48,6.39,6.75,25.33,6.85,36.31-1.58-6.41-3.25-12.73-8.22-15.76-2.02,4.61-1.57,11.67-2.74,17.13,4.76-.19,6.03,3.1,10.96,2.74.2-1.19-2.19-3.68.69-3.43-.91,7.53,3.93,9.32,4.8,15.07,5.61-2.48,5.65-7.66,6.17-14.39,1.14-14.77,6.78-30.88,10.96-42.48-2.99-.48-3.05,1.98-5.48,2.06ZM154.84,186.33c3.15,2.44-1.68,8.23-1.37,12.33-2.8-2.38,1.68-8.01,1.37-12.33Z"/>
      <path class="cls-1" d="M152.1,167.15c1.52-1.67,3.34-3.05,6.17-3.43,1.28-3.74-.64-10.69,2.06-13.02-2.47,9.65.78,16.8,6.85,19.87.6-9.51-2.68-15.14-4.8-21.92-1.31-.32-2.95,2.11-2.74-.69-5.12,1.96-5.53,8.63-8.22,13.02.42,1.86-.87,5.44.69,6.17Z"/>
      <path class="cls-1" d="M179.51,473.41c.46,11.78,13.03,17.02,19.18,25.35-1.09,1.65-1.87,3.61-4.11,4.11-1.66-1.33-4.14-2.25-6.17-1.37-.5,2.38.75,6.5,0,6.85-1.76-1.21-2.43-3.51-2.06-6.85-3.97.75-10.97,1.47-10.96,4.8,0,2.3,3.34,1.61,6.85,4.11,2.16,1.54,2.94,3.59,4.8,4.11,7.37,2.08,17.06-1.6,20.55-1.37-3.46-2.71-9.72-6.25-10.28-9.59,5.16,2.84,9.33,6.66,13.02,10.96,2.23-1.07,4.74.38,7.54-.69-5.22-18.1-32.26-17.95-31.52-39.74-1.3-1.22-4.53-.5-6.85-.69Z"/>
      <path class="cls-1" d="M145.94,345.29c-.29,10.34.14,16.52-.69,26.04,5.73-4.83,2.29-18.29.69-26.04Z"/>
      <path class="cls-1" d="M143.88,448.75c2.61,1.58,4.71-2.35,8.91-1.37,4.83,4.08,7.75,1.84,14.39,3.43,2.04-15.96,2.43-31.24,1.37-45.91-8.02.43-17.77-.87-24.67.69.59,16.45-1.14,30.63,0,43.16Z"/>
      <path class="cls-1" d="M170.6,453.54c-3.49,2.34-6.44,3.44-10.28.69-3.47,2.01-2.45,8.51-7.54,8.91,8.48-5.53-1.77-15.98-8.22-8.22-2.25-.72-2.84-3.1-4.8-4.11-6.2,1.34-5.91,9.17-15.76,6.85-5.78,6.33-12.05,12.16-14.39,21.92,2.06-.91,5.24-.7,8.22-.69,2.7-3.1,5.06-9.88,8.91-9.59-1.85,3.4-5.3,5.21-6.17,9.59,3.93,1.09,9.47.58,14.39.69,2.99-2.72,3.2-8.22,7.54-9.59.07,3.12-5.67,5.9-2.74,7.54,6.09,2.09,11.34-4.5,15.76-10.96,1.71,1.94,1.79,5.52,4.8,6.17.33.51,4.88-.56,5.48-2.06-1.46-1.05-1.98-3.04-2.74-4.8,3.65,3.72,9.54,11.82,14.39,4.8-1.05-1.49-4.45-4.19-2.74-6.17,3.18,2.53,3.1,8.32,9.59,7.54-2.61-6.76-8.17-10.56-10.28-17.81-1.94.57-1.78-.97-3.43-.69Z"/>
      <path class="cls-1" d="M196.64,498.08c-7.4-4.48-11.28-12.47-18.5-17.13,2.26,8.78,7.01,22.12,18.5,17.13Z"/>
      <path class="cls-1" d="M182.94,392.57c-5.68,1.96-9.67,2.7-15.07,0-1.3-5.08-4.34-11.34-10.96-8.91-3.26,1.33-2.45,6.46-5.48,8.91-4.91,3.97-14.75,3.76-16.44-.69-2.27-5.95,10.58-8.86,8.22-16.44-4.5-.42-6.42-.05-12.33-.69-3.26,8.38-7.38,15.92-9.59,25.35,19.76-.03,48.07,2.08,66.46,0,3.09-7.18,6.08-14.47,7.54-23.3-7.34-.52-11.83-.83-18.5,0,.61,3.97,7.16,7.91,6.17,15.76Z"/>
      <path class="cls-1" d="M142.51,278.83v4.8c2.59.08,3.68-1.34,4.11-3.43-1.22-.61-1.74-1.91-4.11-1.37Z"/>
      <path class="cls-1" d="M195.27,108.91c28.24,6.94,57.1-3.03,82.22-6.85,3.01-3.62,9.07-4.18,10.96-8.91-28.03-1.12-67.35-1.5-93.18-1.37.29,6.9-.13,12.41,0,17.13Z"/>
      <path class="cls-1" d="M143.2,288.42c2.32,2.24,6.59.84,6.85-2.74-1.53-3.3-7.75-2.13-6.85,2.74Z"/>
      <path class="cls-1" d="M168.55,329.53c.64-7.83.94-15.75,1.37-20.55-3-8.9-3.23-21.78-2.06-32.89-.31-1.98-2.95-1.62-3.43-3.43.82-1.46,3.23-1.34,3.43-3.43-3.74-2.88-12.17-.37-15.07-.69v9.59c2.17-1.72,3.5-4.26,7.54-4.11,6.12,3.37,5.52,21.9-4.8,15.07-1.39,13.93,2.21,27.93.69,39.05-1.95-22.28-2.74-35.54-4.8-58.92-.99-.38-1.67-1.07-2.06-2.06-8.05-1.12-12.17,5.1-9.59,12.33,2.55.04,1.71-3.32,4.8-2.74,3.26,2.22,4.86,6.1,6.85,9.59-.57,3.27-4.58,6.12-8.22,4.11-1.47,31.2,10.66,52.32,8.22,82.22-2.45.52-2.65,3.28-4.11,4.8,1,.6,2.65.54,2.06,2.74-2.16.78-1.66-1.08-2.74-1.37-1.48,4.91-5.5,7.29-7.54,11.65,10.81,3.57,12.56-10.29,20.55-13.7.33-14.91-3.01-31.11-2.74-47.96,4.11,15.9,2.14,35.39,4.8,50.02,5.12,2.42,7.7,7.37,10.28,12.33,2.55-.31,4.98-.35,7.54-2.06-4.25-5.11-7.69-11.03-10.96-17.13-1.81-12.73-1.09-29.11,0-42.48ZM170.6,382.29c-2.15.1-2.35-1.76-2.74-3.43h2.74v3.43Z"/>
      <path d="M150.73,49.3c-2.29-1.6-1.76-6.01-4.8-6.85v11.65c2.59.31.99-3.58,2.74-4.11,1.27,1.47,1.39,4.09,4.11,4.11.5-3.7,1.63-9.22-.69-12.33-1.75,1.22.45,6.39-1.37,7.54Z"/>
      <path d="M139.77,42.45c-.82,3.28-1.67,9.11,0,10.96,1.3.15,1.51-.77,2.74-.69-.68-4.85.87-8.03-2.74-10.28Z"/>
      <path d="M177.45,53.42c2.44-.99,1.5-8.23.69-10.28-.88-.04-.95-.88-2.06-.69.79,3.32-1.66,9.88,1.37,10.96Z"/>
      <path d="M163.75,47.93c-1.4-.2-1.34-1.85-2.74-2.06,0,1.36-1.87.87-1.37,2.74.88.94,4.1,1.19,4.11-.69Z"/>
      <path d="M180.19,89.73c-1.38-3.44,3.11-1,3.43-2.74-1.93-.12-.85-3.26-3.43-2.74.78,3.49-2.76,1.59-4.11,1.37.53,2.21,1.9,3.59,4.11,4.11Z"/>
      <path d="M28.09,105.49c2.84-.79,2.67,1.44,4.8,1.37-.14-1.97-4.26-3.9-4.8-1.37Z"/>
      <path d="M163.75,136.32c-1.43-.39-1.96-1.7-4.11-1.37-.98.91-.98,3.88,0,4.8h3.43c-.57-1.94.97-1.78.69-3.43Z"/>
      <path d="M154.84,186.33c.31,4.32-4.17,9.95-1.37,12.33-.31-4.11,4.52-9.89,1.37-12.33Z"/>
      <path d="M161.7,239.09c-.75-6.79-.03-15.05-3.43-19.18,2.52,5.65-.27,16.46,3.43,19.18Z"/>
      <path d="M138.4,258.28c.56-3.88.36-12.63.69-17.13h-2.06c1.43,6.34-1.13,12.43,1.37,17.13Z"/>
      <path d="M170.6,382.29v-3.43h-2.74c.39,1.67.59,3.52,2.74,3.43Z"/>
      <path d="M149.36,496.71c.46,3.28,2.38,4.45,5.48,3.43.97-3.8-3.3-4.94-5.48-3.43Z"/>
      <path d="M158.27,502.19c2.22-1.29,2.13-3.37,1.37-6.17-4.2-.99-4.45,5.67-1.37,6.17Z"/>
      <path d="M154.16,501.5c-.13,1.96-.09,3.74,2.06,3.43.54-2.37-.64-3.01-2.06-3.43Z"/>
      <path d="M191.84,80.14c-3.53-3.11-5.2-7.27-8.91-10.28-2.69-2.18-8.83-3.12-6.85-9.59,3.75-1.5,10.2-.3,15.07-.69-.24-8.43-.77-15.07.69-23.98-6.83-1.67-11.03,1.03-15.76-1.37-.62-12.81,2.61-21.99-.69-33.57-8.77-.78-19.43-.98-28.09,0-.29,10.35.18,22.66-1.37,34.26-4.87.38-11.32-.81-15.07.69-1.34,9.36-.77,17.47.69,23.98,4.98.96,14.26-2.39,15.07,2.74-2.26,4.59-7.35,6.35-12.33,8.22-3.84,5.06-7.99,9.83-10.28,16.44-24.35,1.01-68.03-1.13-115.11-.69-4.59,10.37-5.28,20.96-8.91,31.52,21.94,1.02,42.13-1.32,60.29,0,13.78,1,27.61,7.47,41.79,8.91,10.33,1.05,19.51,1.14,28.78,3.43,5.93,4.46,9.45,13.05,8.91,21.92-4.03,1.74-9.98,3.67-10.28,10.96,2.34-3.6,3.26-8.62,9.59-8.22-3.38,3.7-9.61,8.2-6.85,15.76.7-5.48,2.66-13.32,7.54-12.33-2.92,5.55-7.83,13.66-2.74,20.55.04-5.65-1.27-13.18,2.74-16.44.2,5.72,1.45,12.24,0,17.13-.48,1.62-4.04,9.75-4.8,10.96-2,3.2-6.08,4.06-6.85,8.22-.4,2.18,1.15,3.85,1.37,6.17.7,7.44-1.57,16.98-1.37,26.04.62,28.55.81,61.78,6.85,90.44,1.16-3.63,3.38-6.21,5.48-8.91,1.34,8.46,1.79,18.19,1.37,27.41-.53,11.72-.03,23.99-2.06,31.52-3.99.35-9.45-.77-12.33.69-5.19,9.88-7.81,22.33-13.02,32.2,6.34,2.19,20.05-2.16,26.04,2.74-1.7,14.34-.25,26.11-1.37,39.74-4.27.53-6.79,2.8-8.22,6.17-3.39-.27-5.1,1.91-7.54.69-7.54,8.98-19.52,16.92-18.5,32.2-12.93,9.68-28.25,16.97-31.52,36.31,23.27.92,97.15-1.33,150.73-.69-.71-23.69-25.89-25.87-34.26-43.85-.3-2.36.27-3.84.69-5.48-5.73-8.66-10.84-17.93-18.5-24.67-.2-15.11.76-30.5.69-41.79,4.97-1.88,14.18.48,19.18-1.37,3.53-10.41,6.46-21.4,10.96-30.83-7.83-.48-18.36-1.21-28.78-.69-3.01-16.4-1.68-39.22,0-57.55,2.77.66,2.35,4.5,6.85,3.43-2.83-5.74,3.08-9.61,4.11-13.7,1.27-5.03.36-14.26,0-21.92-.31-6.67-.04-12.97,0-19.18.12-21.12-3.42-45.27-.69-62.35.65-4.09,3.16-6.31,2.06-10.28-.42-1.49-2.9-3.57-3.43-5.48,2.82-20.28,7.58-42.62,19.87-55.5,9.68-2.77,20.32-.51,31.52-2.06,8.08-1.12,15.41-5.75,23.3-6.85,20.63-2.88,38.89,3.79,58.24,0,1.55-11.47,4.78-21.25,7.54-31.52-44.74-.8-89.5-1.56-129.49-2.06-.78-2.42-2.12-4.27-2.06-7.54ZM189.79,110.97c-8.74.06-9.2-8.16-13.7-12.33,2.22-4.18,7.85-4.94,12.33-6.85,5.7,4.36,1.87,11.16,1.37,19.18ZM189.1,91.1c-6.21-.5-8.65,2.77-12.33,4.8-2.44-2.59-3.08-6.97-6.17-8.91,2.34-4.51,8.06-5.65,12.33-8.22,3.75,2.41,6.36,5.97,6.17,12.33ZM180.19,74.66c-3.85,2.49-6.93,8.09-12.33,8.22-1.45.03-7.94-2.2-9.59-3.43-3.56-2.64-4.66-8.65-6.85-11.65,9.83-3.45,21.04.44,28.78,6.85ZM166.49,118.5c-.1,1.5-1.73,1.47-3.43,1.37-.27-2.09,1.8-3.49-.69-4.11.29-1.52,3.64-.54,4.11,0-2.17.22-2.35.98,0,2.74ZM158.96,114.39c-1.17-2.25-3.1-3.75-4.11-6.17,2.69-.96,4.86-2.45,6.17-4.8,1.67.38,1.46,2.65,4.11,2.06.99-2.59-1.88-1.31-1.37-3.43-6.21.41-8.64,4.61-13.02,6.85-4.36-1.12-5.3-5.67-4.8-11.65,3.28-1.9,7.6-6.8,11.65-2.06,1.17.25,1.29-.53,1.37-1.37,1.69,1.51,4.48,1.91,4.8,4.8-1.86-.43-1.71-2.86-4.11-2.74-1.05,2.21,3.44,4.76,7.54,4.11-.36,5.16,1.21,8.38.69,13.7-2.29.06-5.52-1.04-8.91.69ZM158.27,116.45c-4.64.37-7.3-4.35-6.17-7.54,3.71.85,4.1,5.04,6.17,7.54ZM140.46,101.38c-.3.84-.88,1.41-2.06,1.37,3.25.35,4.83,4.77,7.54,7.54-3.82,1.3-11.87.92-15.76,0,.54-1.51,2.4-1.71,3.43-2.74-4.99-.71,4.14-4.72,6.85-6.17ZM160.33,86.99c3.6-.98,6.97,1.86,4.8,6.85-3.42-1.43-4.45-2.93-5.48-5.48,1.36-1.14.87.06,2.74,0-.5-.64-1.25-1.04-2.06-1.37ZM154.84,84.25c1.48-1.57,7.14-2.15,6.85,0-3.33-.42-3.52-.42-6.85,0ZM152.1,71.91c-.98,1.6-2.72-1.79-2.74-3.43,2.54-.48,1.18,2.93,2.74,3.43ZM149.36,62.32c2.46-4.79,17.34-3.05,23.3-1.37-.53,4.62-6.89,1.56-10.96,1.37-4.87-.23-9.4,1.21-12.33,0ZM151.42,4.77c7.26.28,15.74-.66,21.92.69-1.16,10-1.29,16.34-.69,29.46h-21.92c-.07-10.48-.88-20.01.69-30.15ZM134.29,56.16c-1.52-4.64-.28-12.05-.69-17.81,15.75.03,33.68-.66,52.76.69.59,5.77-.55,10.6.69,17.13-17.07,1.31-35.8,1.22-52.76,0ZM147.99,68.49c1.39,4.78,4.08,8.26,6.17,12.33-4.67.81-6.31,4.65-10.28,6.17-2.97-3.66-6.58-6.66-8.91-10.96,4.59-2.26,6.32-7.38,13.02-7.54ZM132.92,78.77c5.41,1.22,6.8,6.45,9.59,10.28-1.06,3.05-2.8,5.43-2.06,10.28-5.17,1.23-7.03,5.76-12.33,6.85-2.5-7.61-2.16-23.22,4.8-27.41ZM6.17,114.39c.12-8.03,2.52-16.46,5.48-24.67,26.79.95,77.5.45,111.68,2.06-.68,5.58.32,10.29,1.37,15.76-21.96,3.61-47.13-1.22-65.77-4.11-10.12-1.57-16.67-5.87-26.04-9.59-3.65,2.27-6.42,2.41-10.96,2.74-9.53,14.75,13.99,15.36,26.04,17.13-10.96,2.23-24.8-.02-41.79.69ZM130.18,197.98c.39-2.12,3.22-1.8,3.43-4.11,2.69,1.42-.06,8.29,4.8,7.54.12,2.71-1.05-.22-2.06,1.37,2.25,2.89,5.33-1.24,9.59.69.02,2.08-2.4,1.71-4.11,2.06.21.93,1.72.57,2.74.69-5.57,6.82-9.77-3.98-13.7-5.48-.06-1.08.33-2.61-.69-2.74ZM151.42,208.26c-3.49-.29-1.19,5.21-4.8,4.8-2.8-5.48,2.19-8.65,8.22-7.54,3.78,3.47-.63,12.15-4.8,7.54-.07-2.13,2.16-1.96,1.37-4.8ZM132.23,209.63c2.7.88,1.66-2,3.43-2.06,2.49-.67.32,3.34,3.43,2.06.12,8.93-2.5,14.54-.69,22.61,1.66-6.33-.25-16.23,2.06-21.92h2.06c5.49,3.14-.42,10.26,0,16.44,2.27-1.16,1.64-5.22,2.74-7.54,2.62,3.08-2.08,7.66,0,10.28,1.37-2.29,1.46-5.85,1.37-9.59,2.49,4.15.08,21.41,0,27.41,3.64-7.33.76-21.23,4.11-30.83.22,2.51.47,6.13,0,9.59,2.14-2.2.7-7.98,2.06-10.96,5.2,2.19,1.46,9.8,2.74,15.07,1.99-3.72-.59-12.01,1.37-15.76,2.81.55-.36,2.82,1.37,4.11,3.03-1.03-.5-3.55,0-6.17,5.5,1.14,5.82,9.29,6.85,15.07,1.55,8.67,2.62,24.29,4.8,32.89-1.62,2.42-.6,3.81-1.37,7.54-3.09-.79-5.11-2.65-9.59-2.06-.05-8.4-.08-22.13-2.74-30.15-.87,10.02,2.03,15.64,2.06,26.72-4.15-.38-8.63.62-10.96,0-.42-3.16,1.07-10.7,0-14.39-1.7,4.97.58,12.77-1.37,17.81-3.2-.46-4.4,1.08-6.85,1.37-.23-2.97.78-7.18-1.37-8.22-1.57,1.4-.25,5.69-.69,8.22-2.82-7.03-1.17-14.33-2.06-23.3-2.49,7.17.84,12.17,0,23.3.08,1.75,2.29,1.36,4.11,1.37-1.06,3.28-1.44,7.23-5.48,7.54-1.45-19.35-3.23-40.24-1.37-66.46ZM158.27,204.83c4.56-1.6,8.46,2.18,13.7,2.06-1.55,5.1-9.75,5.06-14.39,3.43.06-.97.11-1.94-.69-2.06,2.57-2.32,7.15,2.11,9.59,0-1.23-2.66-7.4-.37-8.22-3.43ZM174.71,221.28c2.23-1.56-.21-3.55,1.37-5.48,2.51,10.25.04,23.41,2.74,32.89,1.78-15.99-1.65-24.9-1.37-42.48.99-.38,1.67-1.07,2.06-2.06.61.3,1.23.6,1.37,1.37,1.66,23.11,1.16,40.79.69,68.52v3.43c-.65,1.21-1.22-6.39-1.37-8.91-.36-6.26-.56-13.82-.69-19.18-3.78,8.34,2.18,16.94-.69,30.83-2.99-3.17-7.15-5.18-10.96-7.54.07-1.76,2.67-.98,2.74-2.74.45-20.71-4.28-37.49-6.85-56.87,4.27-.3,6.64-2.49,9.59-4.11,2.68,4.18-3.14,9.98,1.37,12.33ZM179.51,284.31c-.29,1.31-.25,2.95-2.06,2.74v-4.11c.9.24,1.08,1.21,2.06,1.37ZM134.97,280.89c1.76,2.13.84,3.83.69,6.85-3.02-1.02.02-4.03-.69-6.85ZM134.29,290.48c2.94.95.31,4.36.69,6.85-1.56-.95-.26-4.77-.69-6.85ZM134.97,308.98c-.03-12.22,3.77-17.06,2.06-30.15,5.56,8.29,8.11,25.45-2.06,30.15ZM89.75,516.58c.92-3.41,3.16-5.52,4.8-8.22-5.6,2.1-5.68,12.45-14.39,7.54,2.29-18.27,25.34-15.77,27.41-34.26,5.35-.19,6.19-.76,9.59,0,2.83,14.37-12.49,21.51-15.76,34.26-2.22,1.63-8.64,2.06-11.65.69ZM102.09,516.58c4.18-9.29,10.85-16.1,16.44-23.98-.76,5.77-4.37,9.46-.69,14.39-.89,1.86-2.38,3.1-2.74,5.48,4.3-1.43,3.81-7.65,3.43-10.28,2.5-.5,3.39-.54,6.17,0,.51,2.69,1.81,4.59,2.74,6.85,1.41-1.45-1.16-4.75-.69-7.54,4.69.57,6.31,4.19,8.22,7.54-8.2,10.18-17.13,8.79-32.89,7.54ZM126.75,500.13c-1.68-1.75,3.49-3.97,1.37-6.17-1.13,2.06-2.96,3.43-3.43,6.17h-5.48c5.38-8.1,13.83-13.12,19.18-21.24h8.22c1.02.81,1.07,2.59,2.06,3.43-5.9,7.34-11.11,15.38-21.92,17.81ZM119.9,481.64c2.34-.79,8.02.44,13.7,0-3.56,6.03-9.22,9.97-13.7,15.07-.14-3.74-.78-11.12,0-15.07ZM161.01,504.25c-1.43.29-1.81-.47-2.74-.69-1.91,1.99,2.25,1.78,1.37,4.8-3.57,1.55-6.81,2.93-8.22-1.37.29-1.54,1.47-2.18,2.06-3.43-.58-2.01-1.72.89-3.43,0-1.66-2.68-3.17-5.51-2.74-10.28,3.32-2.92,5.54-3.48,8.91-5.48,5.56,1.37,8.12,10.44,4.8,16.44ZM159.64,475.47c2.24-1.99,8.79-4.21,9.59,0,3.43.23,4.79-1.6,8.22-1.37-5.25,11.61,6.51,19.34,8.22,26.04-12.09-1.05-24.07-12.56-26.04-24.67ZM178.14,480.95c7.22,4.66,11.1,12.65,18.5,17.13-11.49,4.99-16.24-8.35-18.5-17.13ZM217.88,513.84c-2.8,1.07-5.31-.38-7.54.69-3.69-4.31-7.86-8.13-13.02-10.96.55,3.34,6.82,6.88,10.28,9.59-3.49-.23-13.18,3.45-20.55,1.37-1.86-.52-2.63-2.57-4.8-4.11-3.52-2.5-6.85-1.81-6.85-4.11,0-3.32,6.99-4.04,10.96-4.8-.37,3.34.29,5.64,2.06,6.85.75-.35-.5-4.48,0-6.85,2.02-.88,4.5.04,6.17,1.37,2.24-.5,3.02-2.46,4.11-4.11-6.16-8.33-18.72-13.57-19.18-25.35,2.33.19,5.55-.53,6.85.69-.75,21.79,26.3,21.64,31.52,39.74ZM174.03,454.23c2.11,7.25,7.67,11.06,10.28,17.81-6.49.78-6.41-5.01-9.59-7.54-1.71,1.98,1.69,4.67,2.74,6.17-4.84,7.03-10.74-1.08-14.39-4.8.76,1.75,1.28,3.74,2.74,4.8-.6,1.5-5.15,2.57-5.48,2.06-3.01-.64-3.08-4.22-4.8-6.17-4.42,6.46-9.67,13.05-15.76,10.96-2.93-1.63,2.81-4.42,2.74-7.54-4.33,1.37-4.55,6.87-7.54,9.59-4.92-.11-10.46.41-14.39-.69.87-4.38,4.32-6.19,6.17-9.59-3.84-.29-6.21,6.49-8.91,9.59-2.98-.01-6.16-.23-8.22.69,2.34-9.77,8.61-15.6,14.39-21.92,9.85,2.32,9.56-5.51,15.76-6.85,1.95,1.02,2.54,3.39,4.8,4.11,6.45-7.76,16.7,2.7,8.22,8.22,5.09-.39,4.07-6.89,7.54-8.91,3.83,2.75,6.79,1.65,10.28-.69,1.65-.28,1.49,1.25,3.43.69ZM143.88,405.58c6.89-1.56,16.64-.26,24.67-.69,1.06,14.67.67,29.94-1.37,45.91-6.64-1.59-9.56.66-14.39-3.43-4.2-.98-6.3,2.95-8.91,1.37-1.14-12.53.59-26.72,0-43.16ZM195.27,376.81c-1.45,8.82-4.44,16.11-7.54,23.3-18.39,2.08-46.7-.03-66.46,0,2.21-9.44,6.33-16.97,9.59-25.35,5.91.64,7.83.27,12.33.69,2.36,7.58-10.49,10.49-8.22,16.44,1.69,4.44,11.53,4.66,16.44.69,3.03-2.45,2.22-7.58,5.48-8.91,6.62-2.44,9.66,3.82,10.96,8.91,5.4,2.7,9.39,1.96,15.07,0,1-7.85-5.56-11.79-6.17-15.76,6.67-.83,11.15-.52,18.5,0ZM142.51,283.63v-4.8c2.37-.54,2.89.76,4.11,1.37-.43,2.08-1.52,3.5-4.11,3.43ZM150.05,285.68c-.26,3.58-4.53,4.98-6.85,2.74-.9-4.88,5.32-6.04,6.85-2.74ZM179.51,389.14c-2.56,1.7-4.99,1.74-7.54,2.06-2.58-4.96-5.16-9.91-10.28-12.33-2.65-14.63-.68-34.12-4.8-50.02-.27,16.85,3.08,33.05,2.74,47.96-7.99,3.41-9.75,17.27-20.55,13.7,2.04-4.35,6.05-6.74,7.54-11.65,1.08.29.59,2.16,2.74,1.37.6-2.2-1.05-2.14-2.06-2.74,1.46-1.51,1.66-4.28,4.11-4.8,2.44-29.9-9.69-51.01-8.22-82.22,3.64,2.01,7.65-.84,8.22-4.11-1.99-3.49-3.59-7.37-6.85-9.59-3.09-.57-2.24,2.78-4.8,2.74-2.58-7.24,1.55-13.46,9.59-12.33.38.99,1.07,1.67,2.06,2.06,2.06,23.39,2.84,36.64,4.8,58.92,1.52-11.12-2.08-25.13-.69-39.05,10.32,6.82,10.92-11.71,4.8-15.07-4.04-.15-5.37,2.4-7.54,4.11v-9.59c2.9.31,11.33-2.2,15.07.69-.2,2.09-2.61,1.96-3.43,3.43.48,1.81,3.12,1.45,3.43,3.43-1.17,11.11-.95,23.99,2.06,32.89-.43,4.81-.73,12.73-1.37,20.55-1.09,13.37-1.81,29.75,0,42.48,3.27,6.09,6.71,12.02,10.96,17.13ZM145.25,371.33c.82-9.52.39-15.7.69-26.04,1.61,7.75,5.04,21.2-.69,26.04ZM155.53,280.89c-1.3-5.82,5.84-5.87,6.85-2.06-1.02,1.95-4.03,1.91-6.85,2.06ZM163.75,284.31c.03,2.09-1.45,2.66-2.06,4.11-2.36.3-3.84-.27-5.48-.69v-4.11c3.34-1.33,4.71-1.26,7.54.69ZM173.34,305.55c-.44-.69-.42-2.36-.69-4.8-1.75.76.28,5.3-1.37,6.17-2.52-9.27-4.51-20.06-2.06-30.83,5.13,2.91,1.62,13.65,2.74,23.3,2.1-5.88-.23-14.76.69-21.24,3.38.96,3.92,4.76,3.43,9.59-.92-.45-1.28-1.46-1.37-2.74-1.38,7.78.99,12.54-1.37,20.55ZM177.45,311.72c-5.89-1.45.22-12.99-2.06-15.07,3.77-.79,1.39,10.48,2.06,15.07ZM180.88,280.2c1.41,4.09,1.27,13.77,1.37,21.24-9.02-4.59-.93-14.36-1.37-21.24ZM164.44,202.09c8.21.44,11.43-4.1,15.07-8.22,1.59.98-.8,3.72-1.37,4.8,3.47-.19,2.74-4.57,4.11-6.85,4.11,10.84-11.33,17.98-17.81,10.28ZM179.51,182.91c-.52,6.73-.55,11.91-6.17,14.39-.87-5.75-5.71-7.54-4.8-15.07-2.87-.25-.49,2.23-.69,3.43-4.93.36-6.2-2.93-10.96-2.74,1.17-5.46.73-12.52,2.74-17.13,4.97,3.02,6.64,9.34,8.22,15.76-.1-10.98,1.63-29.92-6.85-36.31-5.47,2.58-10.18,9.38-9.59,15.76,2.7-4.38,3.11-11.05,8.22-13.02-.21,2.8,1.43.37,2.74.69,2.12,6.79,5.4,12.41,4.8,21.92-6.08-3.07-9.33-10.22-6.85-19.87-2.7,2.33-.77,9.28-2.06,13.02-2.83.37-4.64,1.75-6.17,3.43-1.56-.73-.26-4.31-.69-6.17-2.8,2.43-1.99,5.41-.69,8.22-4.48,7.78-3.1,17.26-8.22,23.98,2.66-2.36,4.49-5.56,6.85-8.22,13.01-1.69,20.59,3.38,23.3,13.7-6.19,2.95-13.2,1.98-17.81,5.48-1.36-.93-2.66-1.9-2.06-4.8-2.16-.33-.51,3.14-2.06,3.43-4.36.48-6.24-1.52-9.59-2.06-.17-3.14,1.68-4.26,2.06-6.85-3.46-.26-1.44,4.96-4.11,5.48-7.38-2.25.41-13.75,3.43-16.44.98-8.06.55-14.9.69-24.67,1.22-.61,1.74-1.91,4.11-1.37-.06-2.91-1.62-4.32-4.8-4.11-.31-4.26-1.34-7.8-1.37-12.33,12.8,6.46,26.9.75,43.85,2.06,2.43-.08,2.49-2.53,5.48-2.06-4.18,11.6-9.82,27.71-10.96,42.48ZM156.21,182.91c-2.98-.01-6.16-.23-8.22.69.76-8.38,3.48-14.79,8.91-18.5,1.09,4.52-1.86,10.92-.69,17.81ZM319.97,95.21c-6.91,3.5-3.84,16.55-8.91,23.3-10.95-.96-28.95-.03-43.16-1.37,7.73-8.88,24.77-4.77,34.94-11.65,1.18-5.39.48-10.31-3.43-12.33,5.49.79,16.43-2.19,20.55,2.06ZM299.41,101.38c-.55,1.74-3.52,3.13-4.8,2.06.91-1.37,3.04-1.53,4.8-2.06ZM291.87,100.69c1.26,2.25.75,2.31,2.06,4.8,2.79.51,2.36-2.21,5.48-1.37-4.03,5.69-14.1,1.74-21.24,3.43-4.76,1.12-8.4,5.26-12.33,6.85-4.96,2.01-10.28,1.37-14.39,5.48-7.2-.32-12.38,3.99-19.18,4.8-9.18,1.08-22.41-2.93-32.2,3.43-6.13,3.98-7.74,13.48-17.81,12.33-2.61,1.01-.13-3.06-2.74-2.06-2.63-.12-.25.56-.69,2.06-12.83-.26-23.61,1.98-30.83.69-2.57-.54-.04-2.4-1.37-3.43-10.18,3.06-10.63-14.75-20.55-16.44-1.21,1.03,2.42,3.02,4.11,3.43-10.85.21-26.04-1.7-40.42-3.43-15.69-1.89-32.48-8.14-43.85-12.33-9.94.8-16.61-1.66-22.61-4.8.1-1.7,2.32-.2,2.74,0,2.09-1.27-3.02-1.03-2.06-3.43,2.13,1.09,3.42,1.73,4.11-.69,5.28,1.11,9.15,3.64,13.7,5.48.9-1.62-2.97-4.32-4.8-5.48,12.76,6.94,38.91,6.66,56.87,13.7,16.17-2.77,32.18-2.68,50.02-.69-.18,2.28-2.49,4.71-.69,6.85,1.25-1.49,1.96-3.52,4.11-4.11-.31,3.28-.31,2.89,0,6.17,2.48-.94,3.24-3.62,5.48-4.8,4.55,1.84,7.87,4.92,13.02,6.17,5.34-.83,3.89-8.44,6.17-12.33,4.55,3.45,8.67,5.2,13.7,6.85-.21-2.76-2.18-3.76-4.11-4.8,1.88-2.06,4.46.98,6.17,1.37,1.27-.1.42-2.32,1.37-2.74,9.94-.2,23.78,2.87,37.68,2.74.06,1.77,2.93.72,2.06,3.43.99-.84,1.04-2.61,2.06-3.43,19.76-5.82,41.43-5.08,56.87-16.44-.6,1.91-1.64,3.38-2.06,5.48,2.77-4.45,9.36-5.05,13.02-6.85-.78,2.87-5.04,2.27-6.85,4.11ZM195.27,91.78c25.83-.13,65.15.25,93.18,1.37-1.89,4.73-7.96,5.29-10.96,8.91-25.12,3.82-53.98,13.79-82.22,6.85-.13-4.72.29-10.23,0-17.13Z"/>
      <path d="M174.03,52.05c-1.86-4.18-.45-7.38-3.43-10.28-.15.83-.76.42-1.37,0-2.1,1.96-2.1,10.37,0,12.33,2.11-.18,3.08-1.49,4.8-2.06Z"/>
      <path d="M142.51,73.97v4.8c2.29,0,2.34,2.23,4.8,2.06.49-4.38-1.1-6.67-4.8-6.85Z"/>
    </g>
  </g>
</svg>