<?xml version="1.0" encoding="UTF-8"?>
<svg id="Layer_2" xmlns="http://www.w3.org/2000/svg" version="1.1" viewBox="0 0 323.4 522.3">
  <!-- Generator: Adobe Illustrator 29.8.4, SVG Export Plug-In . SVG Version: 2.1.1 Build 6)  -->
  <defs>
    <style>
      .st0 {
        fill: #fff;
      }

      .st1 {
        fill: #554b41;
      }
    </style>
  </defs>
  <g id="Layer_1-2">
    <g>
      <path class="st0" d="M21.9,96.6c4.5-.3,7.3-.5,11-2.7,9.4,3.7,15.9,8,26,9.6,18.6,2.9,43.8,7.7,65.8,4.1-1.1-5.5-2.1-10.2-1.4-15.8-34.2-1.6-84.9-1.1-111.7-2.1-3,8.2-5.4,16.6-5.5,24.7,17-.7,30.8,1.6,41.8-.7-12-1.8-35.6-2.4-26-17.1h0Z"/>
      <path class="st0" d="M173.3,208.9c-2.9,1.6-5.3,3.8-9.6,4.1,2.6,19.4,7.3,36.2,6.9,56.9,0,1.8-2.7,1-2.7,2.7,3.8,2.4,8,4.4,11,7.5,2.9-13.9-3.1-22.5.7-30.8.1,5.4.3,12.9.7,19.2.1,2.5.7,10.1,1.4,8.9v-3.4c.5-27.7,1-45.4-.7-68.5-.1-.8-.8-1.1-1.4-1.4-.4,1-1.1,1.7-2.1,2.1-.3,17.6,3.1,26.5,1.4,42.5-2.7-9.5-.2-22.6-2.7-32.9-1.6,1.9.9,3.9-1.4,5.5-4.5-2.4,1.3-8.1-1.4-12.3h0Z"/>
      <path class="st0" d="M177.4,282.9v4.1c1.8.2,1.8-1.4,2.1-2.7-1-.2-1.2-1.1-2.1-1.4Z"/>
      <path class="st0" d="M156.9,208.3c.8.1.7,1.1.7,2.1,4.6,1.6,12.8,1.7,14.4-3.4-5.2.1-9.1-3.7-13.7-2.1.8,3.1,7,.8,8.2,3.4-2.4,2.1-7-2.3-9.6,0h0Z"/>
      <path class="st0" d="M154.8,205.5c-6-1.1-11,2.1-8.2,7.5,3.6.4,1.3-5.1,4.8-4.8.8,2.8-1.4,2.7-1.4,4.8,4.2,4.6,8.6-4.1,4.8-7.5h0Z"/>
      <path class="st0" d="M144.6,206.2c-1-.1-2.5.2-2.7-.7,1.7-.4,4.1,0,4.1-2.1-4.3-1.9-7.3,2.2-9.6-.7,1-1.6,2.2,1.3,2.1-1.4-4.9.8-2.1-6.1-4.8-7.5-.2,2.3-3,2-3.4,4.1,1,.1.6,1.7.7,2.7,3.9,1.5,8.1,12.3,13.7,5.5h0Z"/>
      <path class="st0" d="M139.1,268.5c-1.8,0-4,.4-4.1-1.4.8-11.1-2.5-16.1,0-23.3.9,9-.8,16.3,2.1,23.3.4-2.5-.9-6.8.7-8.2,2.1,1,1.1,5.2,1.4,8.2,2.4-.3,3.7-1.8,6.9-1.4,1.9-5-.3-12.8,1.4-17.8,1.1,3.7-.4,11.2,0,14.4,2.3.6,6.8-.4,11,0,0-11.1-2.9-16.7-2.1-26.7,2.7,8,2.7,21.7,2.7,30.1,4.5-.6,6.5,1.3,9.6,2.1.8-3.7-.2-5.1,1.4-7.5-2.2-8.6-3.2-24.2-4.8-32.9-1-5.8-1.4-13.9-6.9-15.1-.5,2.6,3,5.1,0,6.2-1.7-1.3,1.4-3.6-1.4-4.1-2,3.8.6,12-1.4,15.8-1.3-5.3,2.5-12.9-2.7-15.1-1.4,3,0,8.8-2.1,11,.5-3.5.2-7.1,0-9.6-3.4,9.6-.5,23.5-4.1,30.8,0-6,2.5-23.3,0-27.4,0,3.7,0,7.3-1.4,9.6-2.1-2.6,2.6-7.2,0-10.3-1.1,2.3-.5,6.4-2.7,7.5-.4-6.2,5.5-13.3,0-16.4h-2.1c-2.3,5.7-.4,15.6-2.1,21.9-1.8-8.1.8-13.7.7-22.6-3.1,1.3-.9-2.7-3.4-2.1-1.8,0-.7,2.9-3.4,2.1-1.9,26.2,0,47.1,1.4,66.5,4-.3,4.4-4.3,5.5-7.5h0ZM161.7,239.1c-3.7-2.7-.9-13.5-3.4-19.2,3.4,4.1,2.7,12.4,3.4,19.2ZM139.1,241.1c-.3,4.5-.1,13.2-.7,17.1-2.5-4.7,0-10.8-1.4-17.1h2.1Z"/>
      <path class="st0" d="M146.6,478.9h-8.2c-5.4,8.1-13.8,13.1-19.2,21.2h5.5c.5-2.7,2.3-4.1,3.4-6.2,2.1,2.2-3.1,4.4-1.4,6.2,10.8-2.4,16-10.5,21.9-17.8-1-.8-1-2.6-2.1-3.4Z"/>
      <path class="st0" d="M135.7,287.7c.1-3,1.1-4.7-.7-6.9.7,2.8-2.3,5.8.7,6.9Z"/>
      <path class="st0" d="M126.8,501.5c-.5,2.8,2.1,6.1.7,7.5-.9-2.3-2.2-4.2-2.7-6.9-2.8-.5-3.7-.5-6.2,0,.4,2.6.9,8.9-3.4,10.3.4-2.4,1.9-3.6,2.7-5.5-3.7-4.9,0-8.6.7-14.4-5.6,7.9-12.3,14.7-16.4,24,15.8,1.3,24.7,2.7,32.9-7.5-1.9-3.3-3.5-7-8.2-7.5h0Z"/>
      <path class="st0" d="M133.6,481.6c-5.7.4-11.4-.8-13.7,0-.8,4-.1,11.3,0,15.1,4.5-5.1,10.1-9,13.7-15.1Z"/>
      <path class="st0" d="M134.3,290.5c.4,2.1-.9,5.9.7,6.9-.4-2.5,2.3-5.9-.7-6.9Z"/>
      <path class="st0" d="M135,309c10.2-4.7,7.6-21.9,2.1-30.1,1.7,13.1-2.1,17.9-2.1,30.1Z"/>
      <path class="st0" d="M117.2,481.6c-3.4-.8-4.2-.2-9.6,0-2.1,18.5-25.1,16-27.4,34.3,8.7,4.9,8.8-5.4,14.4-7.5-1.6,2.7-3.9,4.8-4.8,8.2,3,1.4,9.4.9,11.7-.7,3.3-12.8,18.6-19.9,15.8-34.3h0Z"/>
      <path class="st0" d="M151.4,67.8c2.2,3,3.3,9,6.9,11.7,1.6,1.2,8.1,3.5,9.6,3.4,5.4-.1,8.5-5.7,12.3-8.2-7.7-6.4-18.9-10.3-28.8-6.8h0Z"/>
      <path class="st0" d="M154.2,80.8c-2.1-4.1-4.8-7.6-6.2-12.3-6.7.2-8.4,5.3-13,7.5,2.3,4.3,5.9,7.3,8.9,11,4-1.5,5.6-5.4,10.3-6.2ZM142.5,74c3.7.2,5.3,2.5,4.8,6.8-2.5.2-2.5-2.1-4.8-2.1v-4.8h0Z"/>
      <path class="st0" d="M152.1,108.9c-1.1,3.2,1.5,7.9,6.2,7.5-2.1-2.5-2.4-6.7-6.2-7.5Z"/>
      <path class="st0" d="M166.5,115.8c-.5-.5-3.8-1.5-4.1,0,2.5.6.4,2,.7,4.1,1.7,0,3.3.1,3.4-1.4-2.4-1.8-2.2-2.5,0-2.7h0Z"/>
      <path class="st0" d="M130.2,110.3c3.9.9,11.9,1.3,15.8,0-2.7-2.8-4.3-7.2-7.5-7.5,1.2,0,1.8-.5,2.1-1.4-2.7,1.4-11.8,5.4-6.9,6.2-1,1-2.9,1.2-3.4,2.7Z"/>
      <path class="st0" d="M156.2,487.8c-3.4,2-5.6,2.6-8.9,5.5-.4,4.8,1.1,7.6,2.7,10.3,1.7.9,2.8-2,3.4,0-.6,1.2-1.8,1.9-2.1,3.4,1.4,4.3,4.6,2.9,8.2,1.4.9-3-3.3-2.8-1.4-4.8.9.2,1.3,1,2.7.7,3.3-6,.8-15.1-4.8-16.4h0ZM149.4,496.7c2.2-1.5,6.5-.4,5.5,3.4-3.1,1-5-.1-5.5-3.4ZM156.2,504.9c-2.1.3-2.2-1.5-2.1-3.4,1.4.4,2.6,1.1,2.1,3.4ZM158.3,502.2c-3.1-.5-2.8-7.2,1.4-6.2.8,2.8.9,4.9-1.4,6.2Z"/>
      <path class="st0" d="M176.1,98.6c4.5,4.2,5,12.4,13.7,12.3.5-8,4.3-14.8-1.4-19.2-4.5,1.9-10.1,2.7-12.3,6.8Z"/>
      <path class="st0" d="M170.6,87c3.1,1.9,3.7,6.3,6.2,8.9,3.7-2,6.1-5.3,12.3-4.8.2-6.4-2.4-9.9-6.2-12.3-4.3,2.6-10,3.7-12.3,8.2ZM180.2,84.3c2.6-.5,1.5,2.6,3.4,2.7-.3,1.7-4.8-.7-3.4,2.7-2.2-.5-3.6-1.9-4.1-4.1,1.4.2,4.9,2.1,4.1-1.4Z"/>
      <path class="st0" d="M167.2,100c-4.1.7-8.6-1.9-7.5-4.1,2.4-.1,2.2,2.3,4.1,2.7-.3-2.9-3.1-3.3-4.8-4.8,0,.8-.2,1.6-1.4,1.4-4.1-4.7-8.4.2-11.6,2.1-.5,6,.4,10.5,4.8,11.7,4.4-2.2,6.8-6.4,13-6.8-.5,2.1,2.4.8,1.4,3.4-2.6.6-2.4-1.7-4.1-2.1-1.3,2.3-3.5,3.8-6.2,4.8,1,2.4,2.9,3.9,4.1,6.2,3.4-1.7,6.6-.6,8.9-.7.5-5.3-1.1-8.5-.7-13.7h0Z"/>
      <path class="st0" d="M161.7,62.3c4.1.2,10.4,3.2,11-1.4-5.9-1.7-20.8-3.4-23.3,1.4,2.9,1.2,7.5-.2,12.3,0h0Z"/>
      <path class="st0" d="M172.7,34.9c-.6-13.1-.5-19.5.7-29.5-6.2-1.3-14.7-.4-21.9-.7-1.6,10.1-.8,19.7-.7,30.1h21.9Z"/>
      <path class="st0" d="M159.6,88.4c1,2.6,2.1,4.1,5.5,5.5,2.2-5-1.2-7.8-4.8-6.8.8.3,1.6.7,2.1,1.4-1.9,0-1.4-1.1-2.7,0h0Z"/>
      <path class="st0" d="M187.1,56.2c-1.2-6.5,0-11.4-.7-17.1-19.1-1.3-37-.7-52.8-.7.4,5.8-.8,13.2.7,17.8,16.9,1.2,35.7,1.3,52.8,0h0ZM139.8,53.4c-1.7-1.8-.8-7.7,0-11,3.6,2.2,2.1,5.4,2.7,10.3-1.2,0-1.4.8-2.7.7h0ZM152.8,54.1c-2.7,0-2.8-2.6-4.1-4.1-1.8.5-.1,4.4-2.7,4.1v-11.7c3,.8,2.5,5.3,4.8,6.8,1.8-1.1-.4-6.3,1.4-7.5,2.3,3.1,1.2,8.6.7,12.3h0ZM176.1,42.5c1.1-.2,1.2.7,2.1.7.8,2,1.8,9.3-.7,10.3-3-1.1-.6-7.6-1.4-11h0ZM169.2,41.8c.6.4,1.2.8,1.4,0,3,2.9,1.6,6.1,3.4,10.3-1.7.6-2.7,1.9-4.8,2.1-2.1-2-2.1-10.4,0-12.3h0ZM161,45.9c1.4.2,1.3,1.8,2.7,2.1,0,1.9-3.2,1.6-4.1.7-.5-1.9,1.4-1.4,1.4-2.7h0Z"/>
      <path class="st0" d="M152.1,71.9c-1.6-.5-.2-3.9-2.7-3.4,0,1.6,1.8,5,2.7,3.4Z"/>
      <path class="st0" d="M154.8,84.3c3.3-.4,3.5-.4,6.9,0,.3-2.2-5.4-1.6-6.9,0Z"/>
      <path class="st0" d="M140.5,99.3c-.7-4.8,1-7.2,2.1-10.3-2.8-3.8-4.2-9.1-9.6-10.3-6.9,4.2-7.3,19.8-4.8,27.4,5.3-1.1,7.2-5.6,12.3-6.8Z"/>
      <path class="st0" d="M178.1,198.7c.6-1.1,3-3.8,1.4-4.8-3.6,4.1-6.9,8.7-15.1,8.2,6.5,7.7,21.9.6,17.8-10.3-1.4,2.3-.6,6.7-4.1,6.9h0Z"/>
      <path class="st0" d="M182.2,301.4c-.1-7.5,0-17.1-1.4-21.2.4,6.9-7.6,16.6,1.4,21.2Z"/>
      <path class="st0" d="M176.1,287.7c.5-4.8,0-8.6-3.4-9.6-.9,6.5,1.4,15.4-.7,21.2-1.1-9.6,2.4-20.4-2.7-23.3-2.5,10.8-.5,21.6,2.1,30.8,1.6-.9-.4-5.4,1.4-6.2.3,2.4.2,4.1.7,4.8,2.4-8,0-12.8,1.4-20.5,0,1.3.4,2.3,1.4,2.7h0Z"/>
      <path class="st0" d="M175.4,296.6c2.3,2.1-3.8,13.6,2.1,15.1-.7-4.6,1.7-15.9-2.1-15.1Z"/>
      <path class="st0" d="M177.4,474.1c-3.4-.2-4.8,1.6-8.2,1.4-.8-4.2-7.4-2-9.6,0,2,12.1,13.9,23.6,26,24.7-1.7-6.7-13.5-14.4-8.2-26h0Z"/>
      <path class="st0" d="M156.2,283.6v4.1c1.6.4,3.1,1,5.5.7.6-1.5,2.1-2,2.1-4.1-2.8-2-4.2-2-7.5-.7Z"/>
      <path class="st0" d="M155.5,280.9c2.8-.1,5.8-.1,6.9-2.1-1-3.8-8.1-3.8-6.9,2.1Z"/>
      <path class="st0" d="M285.7,103.4c.4-2.1,1.5-3.6,2.1-5.5-15.4,11.4-37.1,10.6-56.9,16.4-1,.8-1.1,2.6-2.1,3.4.9-2.7-2-1.7-2.1-3.4-13.9.1-27.7-2.9-37.7-2.7-.9.4-.1,2.6-1.4,2.7-1.7-.4-4.3-3.4-6.2-1.4,1.9,1,3.9,2,4.1,4.8-5-1.7-9.2-3.4-13.7-6.8-2.3,3.9-.8,11.5-6.2,12.3-5.1-1.2-8.5-4.3-13-6.2-2.2,1.2-3,3.8-5.5,4.8-.3-3.3-.3-2.9,0-6.2-2.1.6-2.9,2.6-4.1,4.1-1.8-2.1.5-4.6.7-6.8-17.8-2-33.8-2.1-50,.7-18-7-44.1-6.8-56.9-13.7,1.8,1.2,5.7,3.9,4.8,5.5-4.6-1.8-8.4-4.4-13.7-5.5-.7,2.4-2,1.8-4.1.7-1,2.4,4.1,2.2,2.1,3.4-.4-.2-2.6-1.7-2.7,0,6,3.1,12.7,5.6,22.6,4.8,11.4,4.2,28.2,10.4,43.8,12.3,14.4,1.7,29.6,3.6,40.4,3.4-1.7-.4-5.3-2.4-4.1-3.4,9.9,1.7,10.4,19.5,20.6,16.4,1.3,1-1.2,2.9,1.4,3.4,7.2,1.3,18-.9,30.8-.7.4-1.5-1.9-2.2.7-2.1,2.6-1,.1,3.1,2.7,2.1,10.1,1.1,11.7-8.4,17.8-12.3,9.8-6.4,23-2.3,32.2-3.4,6.8-.8,12-5.1,19.2-4.8,4.1-4.1,9.4-3.5,14.4-5.5,3.9-1.6,7.6-5.7,12.3-6.8,7.1-1.7,17.2,2.3,21.2-3.4-3.1-.8-2.7,1.9-5.5,1.4-1.3-2.5-.8-2.5-2.1-4.8,1.8-1.8,6.1-1.2,6.9-4.1-3.7,1.8-10.2,2.4-13,6.8h0ZM28.1,105.5c.5-2.5,4.7-.6,4.8,1.4-2.1,0-2-2.2-4.8-1.4ZM163.1,139.7h-3.4c-1-.9-1-3.9,0-4.8,2.2-.3,2.7,1,4.1,1.4.3,1.6-1.2,1.5-.7,3.4h0Z"/>
      <path class="st0" d="M302.8,105.5c-10.2,6.9-27.2,2.8-34.9,11.7,14.2,1.3,32.2.4,43.2,1.4,5.1-6.8,2-19.8,8.9-23.3-4.1-4.2-15.1-1.3-20.5-2.1,3.9,2,4.6,6.9,3.4,12.3h0Z"/>
      <path class="st0" d="M294.6,103.4c1.3,1.1,4.2-.3,4.8-2.1-1.8.5-3.9.7-4.8,2.1Z"/>
      <path class="st0" d="M156.9,165.1c-5.4,3.7-8.1,10.1-8.9,18.5,2.1-.9,5.2-.7,8.2-.7-1.2-6.9,1.8-13.3.7-17.8Z"/>
      <path class="st0" d="M185,142.5c-16.9-1.3-31.1,4.4-43.8-2.1,0,4.5,1.1,8.1,1.4,12.3,3.2-.2,4.7,1.2,4.8,4.1-2.4-.5-2.9.8-4.1,1.4-.1,9.8.3,16.6-.7,24.7-3,2.7-10.8,14.2-3.4,16.4,2.7-.5.6-5.7,4.1-5.5-.4,2.6-2.2,3.7-2.1,6.9,3.4.5,5.2,2.5,9.6,2.1,1.5-.3-.1-3.8,2.1-3.4-.6,2.9.7,3.9,2.1,4.8,4.6-3.5,11.6-2.5,17.8-5.5-2.7-10.3-10.3-15.4-23.3-13.7-2.4,2.7-4.2,5.9-6.9,8.2,5.1-6.7,3.8-16.2,8.2-24-1.3-2.8-2.1-5.8.7-8.2-.6-6.4,4.1-13.2,9.6-15.8,8.5,6.4,6.8,25.3,6.9,36.3-1.6-6.4-3.2-12.7-8.2-15.8-2,4.6-1.6,11.7-2.7,17.1,4.8-.2,6,3.1,11,2.7.2-1.2-2.2-3.7.7-3.4-.9,7.5,3.9,9.3,4.8,15.1,5.6-2.5,5.6-7.7,6.2-14.4,1.1-14.8,6.8-30.9,11-42.5-3-.5-3.1,2-5.5,2.1h0ZM154.8,186.3c3.1,2.4-1.7,8.2-1.4,12.3-2.8-2.4,1.7-8,1.4-12.3Z"/>
      <path class="st0" d="M152.1,167.1c1.5-1.7,3.3-3.1,6.2-3.4,1.3-3.7-.6-10.7,2.1-13-2.5,9.6.8,16.8,6.9,19.9.6-9.5-2.7-15.1-4.8-21.9-1.3-.3-2.9,2.1-2.7-.7-5.1,2-5.5,8.6-8.2,13,.4,1.9-.9,5.4.7,6.2h0Z"/>
      <path class="st0" d="M179.5,473.4c.5,11.8,13,17,19.2,25.4-1.1,1.6-1.9,3.6-4.1,4.1-1.7-1.3-4.1-2.2-6.2-1.4-.5,2.4.8,6.5,0,6.9-1.8-1.2-2.4-3.5-2.1-6.9-4,.8-11,1.5-11,4.8,0,2.3,3.3,1.6,6.9,4.1,2.2,1.5,2.9,3.6,4.8,4.1,7.4,2.1,17.1-1.6,20.6-1.4-3.5-2.7-9.7-6.2-10.3-9.6,5.2,2.8,9.3,6.7,13,11,2.2-1.1,4.7.4,7.5-.7-5.2-18.1-32.3-18-31.5-39.7-1.3-1.2-4.5-.5-6.9-.7h0Z"/>
      <path class="st0" d="M145.9,345.3c-.3,10.3.1,16.5-.7,26,5.7-4.8,2.3-18.3.7-26Z"/>
      <path class="st0" d="M143.9,448.8c2.6,1.6,4.7-2.4,8.9-1.4,4.8,4.1,7.8,1.8,14.4,3.4,2-16,2.4-31.2,1.4-45.9-8,.4-17.8-.9-24.7.7.6,16.5-1.1,30.6,0,43.2Z"/>
      <path class="st0" d="M170.6,453.5c-3.5,2.3-6.4,3.4-10.3.7-3.5,2-2.4,8.5-7.5,8.9,8.5-5.5-1.8-16-8.2-8.2-2.2-.7-2.8-3.1-4.8-4.1-6.2,1.3-5.9,9.2-15.8,6.9-5.8,6.3-12.1,12.2-14.4,21.9,2.1-.9,5.2-.7,8.2-.7,2.7-3.1,5.1-9.9,8.9-9.6-1.8,3.4-5.3,5.2-6.2,9.6,3.9,1.1,9.5.6,14.4.7,3-2.7,3.2-8.2,7.5-9.6,0,3.1-5.7,5.9-2.7,7.5,6.1,2.1,11.3-4.5,15.8-11,1.7,1.9,1.8,5.5,4.8,6.2.3.5,4.9-.6,5.5-2.1-1.5-1-2-3-2.7-4.8,3.6,3.7,9.5,11.8,14.4,4.8-1.1-1.5-4.4-4.2-2.7-6.2,3.2,2.5,3.1,8.3,9.6,7.5-2.6-6.8-8.2-10.6-10.3-17.8-1.9.6-1.8-1-3.4-.7h0Z"/>
      <path class="st0" d="M196.6,498.1c-7.4-4.5-11.3-12.5-18.5-17.1,2.3,8.8,7,22.1,18.5,17.1Z"/>
      <path class="st0" d="M182.9,392.6c-5.7,2-9.7,2.7-15.1,0-1.3-5.1-4.3-11.3-11-8.9-3.3,1.3-2.4,6.5-5.5,8.9-4.9,4-14.8,3.8-16.4-.7-2.3-6,10.6-8.9,8.2-16.4-4.5-.4-6.4,0-12.3-.7-3.3,8.4-7.4,15.9-9.6,25.4,19.8,0,48.1,2.1,66.5,0,3.1-7.2,6.1-14.5,7.5-23.3-7.3-.5-11.8-.8-18.5,0,.6,4,7.2,7.9,6.2,15.8h0Z"/>
      <path class="st0" d="M142.5,278.8v4.8c2.6,0,3.7-1.3,4.1-3.4-1.2-.6-1.7-1.9-4.1-1.4Z"/>
      <path class="st0" d="M195.3,108.9c28.2,6.9,57.1-3,82.2-6.8,3-3.6,9.1-4.2,11-8.9-28-1.1-67.4-1.5-93.2-1.4.3,6.9-.1,12.4,0,17.1h0Z"/>
      <path class="st0" d="M143.2,288.4c2.3,2.2,6.6.8,6.9-2.7-1.5-3.3-7.8-2.1-6.9,2.7Z"/>
      <path class="st0" d="M168.6,329.5c.6-7.8.9-15.8,1.4-20.5-3-8.9-3.2-21.8-2.1-32.9-.3-2-2.9-1.6-3.4-3.4.8-1.5,3.2-1.3,3.4-3.4-3.7-2.9-12.2-.4-15.1-.7v9.6c2.2-1.7,3.5-4.3,7.5-4.1,6.1,3.4,5.5,21.9-4.8,15.1-1.4,13.9,2.2,27.9.7,39-1.9-22.3-2.7-35.5-4.8-58.9-1-.4-1.7-1.1-2.1-2.1-8.1-1.1-12.2,5.1-9.6,12.3,2.6,0,1.7-3.3,4.8-2.7,3.3,2.2,4.9,6.1,6.9,9.6-.6,3.3-4.6,6.1-8.2,4.1-1.5,31.2,10.7,52.3,8.2,82.2-2.4.5-2.6,3.3-4.1,4.8,1,.6,2.6.5,2.1,2.7-2.2.8-1.7-1.1-2.7-1.4-1.5,4.9-5.5,7.3-7.5,11.6,10.8,3.6,12.6-10.3,20.6-13.7.3-14.9-3-31.1-2.7-48,4.1,15.9,2.1,35.4,4.8,50,5.1,2.4,7.7,7.4,10.3,12.3,2.6-.3,5-.4,7.5-2.1-4.2-5.1-7.7-11-11-17.1-1.8-12.7-1.1-29.1,0-42.5h0ZM170.6,382.3c-2.1.1-2.4-1.8-2.7-3.4h2.7v3.4Z"/>
      <path class="st1" d="M150.7,49.3c-2.3-1.6-1.8-6-4.8-6.8v11.6c2.6.3,1-3.6,2.7-4.1,1.3,1.5,1.4,4.1,4.1,4.1.5-3.7,1.6-9.2-.7-12.3-1.8,1.2.4,6.4-1.4,7.5h0Z"/>
      <path class="st1" d="M139.8,42.5c-.8,3.3-1.7,9.1,0,11,1.3.2,1.5-.8,2.7-.7-.7-4.8.9-8-2.7-10.3h0Z"/>
      <path class="st1" d="M177.4,53.4c2.4-1,1.5-8.2.7-10.3-.9,0-.9-.9-2.1-.7.8,3.3-1.7,9.9,1.4,11h0Z"/>
      <path class="st1" d="M163.8,47.9c-1.4-.2-1.3-1.8-2.7-2.1,0,1.4-1.9.9-1.4,2.7.9.9,4.1,1.2,4.1-.7h0Z"/>
      <path class="st1" d="M180.2,89.7c-1.4-3.4,3.1-1,3.4-2.7-1.9-.1-.9-3.3-3.4-2.7.8,3.5-2.8,1.6-4.1,1.4.5,2.2,1.9,3.6,4.1,4.1Z"/>
      <path class="st1" d="M28.1,105.5c2.8-.8,2.7,1.4,4.8,1.4-.1-2-4.3-3.9-4.8-1.4Z"/>
      <path class="st1" d="M163.8,136.3c-1.4-.4-2-1.7-4.1-1.4-1,.9-1,3.9,0,4.8h3.4c-.6-1.9,1-1.8.7-3.4h0Z"/>
      <path class="st1" d="M154.8,186.3c.3,4.3-4.2,9.9-1.4,12.3-.3-4.1,4.5-9.9,1.4-12.3Z"/>
      <path class="st1" d="M161.7,239.1c-.8-6.8,0-15.1-3.4-19.2,2.5,5.6-.3,16.5,3.4,19.2Z"/>
      <path class="st1" d="M138.4,258.3c.6-3.9.4-12.6.7-17.1h-2.1c1.4,6.3-1.1,12.4,1.4,17.1Z"/>
      <path class="st1" d="M170.6,382.3v-3.4h-2.7c.4,1.7.6,3.5,2.7,3.4Z"/>
      <path class="st1" d="M149.4,496.7c.5,3.3,2.4,4.5,5.5,3.4,1-3.8-3.3-4.9-5.5-3.4Z"/>
      <path class="st1" d="M158.3,502.2c2.2-1.3,2.1-3.4,1.4-6.2-4.2-1-4.4,5.7-1.4,6.2Z"/>
      <path class="st1" d="M154.2,501.5c-.1,2,0,3.7,2.1,3.4.5-2.4-.6-3-2.1-3.4Z"/>
      <path class="st1" d="M191.8,80.1c-3.5-3.1-5.2-7.3-8.9-10.3-2.7-2.2-8.8-3.1-6.9-9.6,3.8-1.5,10.2-.3,15.1-.7-.2-8.4-.8-15.1.7-24-6.8-1.7-11,1-15.8-1.4-.6-12.8,2.6-22-.7-33.6-8.8-.8-19.4-1-28.1,0-.3,10.4.2,22.7-1.4,34.3-4.9.4-11.3-.8-15.1.7-1.3,9.4-.8,17.5.7,24,5,1,14.3-2.4,15.1,2.7-2.3,4.6-7.4,6.3-12.3,8.2-3.8,5.1-8,9.8-10.3,16.4-24.3,1-68-1.1-115.1-.7C4.3,96.7,3.6,107.3,0,117.8c21.9,1,42.1-1.3,60.3,0,13.8,1,27.6,7.5,41.8,8.9,10.3,1.1,19.5,1.1,28.8,3.4,5.9,4.5,9.4,13.1,8.9,21.9-4,1.7-10,3.7-10.3,11,2.3-3.6,3.3-8.6,9.6-8.2-3.4,3.7-9.6,8.2-6.9,15.8.7-5.5,2.7-13.3,7.5-12.3-2.9,5.6-7.8,13.7-2.7,20.6,0-5.6-1.3-13.2,2.7-16.4.2,5.7,1.4,12.2,0,17.1-.5,1.6-4,9.8-4.8,11-2,3.2-6.1,4.1-6.9,8.2-.4,2.2,1.1,3.9,1.4,6.2.7,7.4-1.6,17-1.4,26,.6,28.5.8,61.8,6.9,90.4,1.2-3.6,3.4-6.2,5.5-8.9,1.3,8.5,1.8,18.2,1.4,27.4-.5,11.7,0,24-2.1,31.5-4,.4-9.4-.8-12.3.7-5.2,9.9-7.8,22.3-13,32.2,6.3,2.2,20.1-2.2,26,2.7-1.7,14.3-.2,26.1-1.4,39.7-4.3.5-6.8,2.8-8.2,6.2-3.4-.3-5.1,1.9-7.5.7-7.5,9-19.5,16.9-18.5,32.2-12.9,9.7-28.2,17-31.5,36.3,23.3.9,97.1-1.3,150.7-.7-.7-23.7-25.9-25.9-34.3-43.9-.3-2.4.3-3.8.7-5.5-5.7-8.7-10.8-17.9-18.5-24.7-.2-15.1.8-30.5.7-41.8,5-1.9,14.2.5,19.2-1.4,3.5-10.4,6.5-21.4,11-30.8-7.8-.5-18.4-1.2-28.8-.7-3-16.4-1.7-39.2,0-57.5,2.8.7,2.4,4.5,6.9,3.4-2.8-5.7,3.1-9.6,4.1-13.7,1.3-5,.4-14.3,0-21.9-.3-6.7,0-13,0-19.2.1-21.1-3.4-45.3-.7-62.4.6-4.1,3.2-6.3,2.1-10.3-.4-1.5-2.9-3.6-3.4-5.5,2.8-20.3,7.6-42.6,19.9-55.5,9.7-2.8,20.3-.5,31.5-2.1,8.1-1.1,15.4-5.8,23.3-6.8,20.6-2.9,38.9,3.8,58.2,0,1.5-11.5,4.8-21.2,7.5-31.5-44.7-.8-89.5-1.6-129.5-2.1-.8-2.4-2.1-4.3-2.1-7.5h0ZM189.8,111c-8.7,0-9.2-8.2-13.7-12.3,2.2-4.2,7.9-4.9,12.3-6.8,5.7,4.4,1.9,11.2,1.4,19.2ZM189.1,91.1c-6.2-.5-8.6,2.8-12.3,4.8-2.4-2.6-3.1-7-6.2-8.9,2.3-4.5,8.1-5.7,12.3-8.2,3.8,2.4,6.4,6,6.2,12.3ZM180.2,74.7c-3.9,2.5-6.9,8.1-12.3,8.2-1.4,0-7.9-2.2-9.6-3.4-3.6-2.6-4.7-8.7-6.9-11.7,9.8-3.4,21,.4,28.8,6.8h0ZM166.5,118.5c-.1,1.5-1.7,1.5-3.4,1.4-.3-2.1,1.8-3.5-.7-4.1.3-1.5,3.6-.5,4.1,0-2.2.2-2.4,1,0,2.7h0ZM159,114.4c-1.2-2.2-3.1-3.8-4.1-6.2,2.7-1,4.9-2.4,6.2-4.8,1.7.4,1.5,2.7,4.1,2.1,1-2.6-1.9-1.3-1.4-3.4-6.2.4-8.6,4.6-13,6.8-4.4-1.1-5.3-5.7-4.8-11.7,3.3-1.9,7.6-6.8,11.6-2.1,1.2.2,1.3-.5,1.4-1.4,1.7,1.5,4.5,1.9,4.8,4.8-1.9-.4-1.7-2.9-4.1-2.7-1.1,2.2,3.4,4.8,7.5,4.1-.4,5.2,1.2,8.4.7,13.7-2.3,0-5.5-1-8.9.7h0ZM158.3,116.4c-4.6.4-7.3-4.3-6.2-7.5,3.7.8,4.1,5,6.2,7.5ZM140.5,101.4c-.3.8-.9,1.4-2.1,1.4,3.2.3,4.8,4.8,7.5,7.5-3.8,1.3-11.9.9-15.8,0,.5-1.5,2.4-1.7,3.4-2.7-5-.7,4.1-4.7,6.9-6.2ZM160.3,87c3.6-1,7,1.9,4.8,6.8-3.4-1.4-4.4-2.9-5.5-5.5,1.4-1.1.9,0,2.7,0-.5-.6-1.2-1-2.1-1.4h0ZM154.8,84.3c1.5-1.6,7.1-2.2,6.9,0-3.3-.4-3.5-.4-6.9,0ZM152.1,71.9c-1,1.6-2.7-1.8-2.7-3.4,2.5-.5,1.2,2.9,2.7,3.4ZM149.4,62.3c2.5-4.8,17.3-3,23.3-1.4-.5,4.6-6.9,1.6-11,1.4-4.9-.2-9.4,1.2-12.3,0h0ZM151.4,4.8c7.3.3,15.7-.7,21.9.7-1.2,10-1.3,16.3-.7,29.5h-21.9c0-10.5-.9-20,.7-30.1ZM134.3,56.2c-1.5-4.6-.3-12-.7-17.8,15.8,0,33.7-.7,52.8.7.6,5.8-.6,10.6.7,17.1-17.1,1.3-35.8,1.2-52.8,0h0ZM148,68.5c1.4,4.8,4.1,8.3,6.2,12.3-4.7.8-6.3,4.7-10.3,6.2-3-3.7-6.6-6.7-8.9-11,4.6-2.3,6.3-7.4,13-7.5ZM132.9,78.8c5.4,1.2,6.8,6.4,9.6,10.3-1.1,3.1-2.8,5.4-2.1,10.3-5.2,1.2-7,5.8-12.3,6.8-2.5-7.6-2.2-23.2,4.8-27.4ZM6.2,114.4c.1-8,2.5-16.5,5.5-24.7,26.8.9,77.5.4,111.7,2.1-.7,5.6.3,10.3,1.4,15.8-22,3.6-47.1-1.2-65.8-4.1-10.1-1.6-16.7-5.9-26-9.6-3.6,2.3-6.4,2.4-11,2.7-9.5,14.8,14,15.4,26,17.1-11,2.2-24.8,0-41.8.7h0ZM130.2,198c.4-2.1,3.2-1.8,3.4-4.1,2.7,1.4,0,8.3,4.8,7.5.1,2.7-1.1-.2-2.1,1.4,2.2,2.9,5.3-1.2,9.6.7,0,2.1-2.4,1.7-4.1,2.1.2.9,1.7.6,2.7.7-5.6,6.8-9.8-4-13.7-5.5,0-1.1.3-2.6-.7-2.7h0ZM151.4,208.3c-3.5-.3-1.2,5.2-4.8,4.8-2.8-5.5,2.2-8.6,8.2-7.5,3.8,3.5-.6,12.1-4.8,7.5,0-2.1,2.2-2,1.4-4.8h0ZM132.2,209.6c2.7.9,1.7-2,3.4-2.1,2.5-.7.3,3.3,3.4,2.1.1,8.9-2.5,14.5-.7,22.6,1.7-6.3-.2-16.2,2.1-21.9h2.1c5.5,3.1-.4,10.3,0,16.4,2.3-1.2,1.6-5.2,2.7-7.5,2.6,3.1-2.1,7.7,0,10.3,1.4-2.3,1.5-5.9,1.4-9.6,2.5,4.1,0,21.4,0,27.4,3.6-7.3.8-21.2,4.1-30.8.2,2.5.5,6.1,0,9.6,2.1-2.2.7-8,2.1-11,5.2,2.2,1.5,9.8,2.7,15.1,2-3.7-.6-12,1.4-15.8,2.8.6-.4,2.8,1.4,4.1,3-1-.5-3.6,0-6.2,5.5,1.1,5.8,9.3,6.9,15.1,1.6,8.7,2.6,24.3,4.8,32.9-1.6,2.4-.6,3.8-1.4,7.5-3.1-.8-5.1-2.6-9.6-2.1,0-8.4,0-22.1-2.7-30.1-.9,10,2,15.6,2.1,26.7-4.1-.4-8.6.6-11,0-.4-3.2,1.1-10.7,0-14.4-1.7,5,.6,12.8-1.4,17.8-3.2-.5-4.4,1.1-6.9,1.4-.2-3,.8-7.2-1.4-8.2-1.6,1.4-.2,5.7-.7,8.2-2.8-7-1.2-14.3-2.1-23.3-2.5,7.2.8,12.2,0,23.3,0,1.8,2.3,1.4,4.1,1.4-1.1,3.3-1.4,7.2-5.5,7.5-1.4-19.4-3.2-40.2-1.4-66.5h0ZM158.3,204.8c4.6-1.6,8.5,2.2,13.7,2.1-1.6,5.1-9.8,5.1-14.4,3.4,0-1,.1-1.9-.7-2.1,2.6-2.3,7.1,2.1,9.6,0-1.2-2.7-7.4-.4-8.2-3.4h0ZM174.7,221.3c2.2-1.6-.2-3.6,1.4-5.5,2.5,10.2,0,23.4,2.7,32.9,1.8-16-1.6-24.9-1.4-42.5,1-.4,1.7-1.1,2.1-2.1.6.3,1.2.6,1.4,1.4,1.7,23.1,1.2,40.8.7,68.5v3.4c-.6,1.2-1.2-6.4-1.4-8.9-.4-6.3-.6-13.8-.7-19.2-3.8,8.3,2.2,16.9-.7,30.8-3-3.2-7.1-5.2-11-7.5,0-1.8,2.7-1,2.7-2.7.4-20.7-4.3-37.5-6.9-56.9,4.3-.3,6.6-2.5,9.6-4.1,2.7,4.2-3.1,10,1.4,12.3h0ZM179.5,284.3c-.3,1.3-.2,3-2.1,2.7v-4.1c.9.2,1.1,1.2,2.1,1.4ZM135,280.9c1.8,2.1.8,3.8.7,6.9-3-1,0-4-.7-6.9ZM134.3,290.5c2.9,1,.3,4.4.7,6.9-1.6-1-.3-4.8-.7-6.9ZM135,309c0-12.2,3.8-17.1,2.1-30.1,5.6,8.3,8.1,25.5-2.1,30.1ZM89.8,516.6c.9-3.4,3.2-5.5,4.8-8.2-5.6,2.1-5.7,12.4-14.4,7.5,2.3-18.3,25.3-15.8,27.4-34.3,5.3-.2,6.2-.8,9.6,0,2.8,14.4-12.5,21.5-15.8,34.3-2.2,1.6-8.6,2.1-11.7.7h0ZM102.1,516.6c4.2-9.3,10.8-16.1,16.4-24-.8,5.8-4.4,9.5-.7,14.4-.9,1.9-2.4,3.1-2.7,5.5,4.3-1.4,3.8-7.6,3.4-10.3,2.5-.5,3.4-.5,6.2,0,.5,2.7,1.8,4.6,2.7,6.9,1.4-1.5-1.2-4.8-.7-7.5,4.7.6,6.3,4.2,8.2,7.5-8.2,10.2-17.1,8.8-32.9,7.5h0ZM126.8,500.1c-1.7-1.8,3.5-4,1.4-6.2-1.1,2.1-3,3.4-3.4,6.2h-5.5c5.4-8.1,13.8-13.1,19.2-21.2h8.2c1,.8,1.1,2.6,2.1,3.4-5.9,7.3-11.1,15.4-21.9,17.8h0ZM119.9,481.6c2.3-.8,8,.4,13.7,0-3.6,6-9.2,10-13.7,15.1-.1-3.7-.8-11.1,0-15.1ZM161,504.3c-1.4.3-1.8-.5-2.7-.7-1.9,2,2.2,1.8,1.4,4.8-3.6,1.5-6.8,2.9-8.2-1.4.3-1.5,1.5-2.2,2.1-3.4-.6-2-1.7.9-3.4,0-1.7-2.7-3.2-5.5-2.7-10.3,3.3-2.9,5.5-3.5,8.9-5.5,5.6,1.4,8.1,10.4,4.8,16.4h0ZM159.6,475.5c2.2-2,8.8-4.2,9.6,0,3.4.2,4.8-1.6,8.2-1.4-5.2,11.6,6.5,19.3,8.2,26-12.1-1-24.1-12.6-26-24.7h0ZM178.1,481c7.2,4.7,11.1,12.6,18.5,17.1-11.5,5-16.2-8.4-18.5-17.1ZM217.9,513.8c-2.8,1.1-5.3-.4-7.5.7-3.7-4.3-7.9-8.1-13-11,.6,3.3,6.8,6.9,10.3,9.6-3.5-.2-13.2,3.5-20.6,1.4-1.9-.5-2.6-2.6-4.8-4.1-3.5-2.5-6.9-1.8-6.9-4.1,0-3.3,7-4,11-4.8-.4,3.3.3,5.6,2.1,6.9.8-.4-.5-4.5,0-6.9,2-.9,4.5,0,6.2,1.4,2.2-.5,3-2.5,4.1-4.1-6.2-8.3-18.7-13.6-19.2-25.4,2.3.2,5.6-.5,6.9.7-.8,21.8,26.3,21.6,31.5,39.7h0ZM174,454.2c2.1,7.2,7.7,11.1,10.3,17.8-6.5.8-6.4-5-9.6-7.5-1.7,2,1.7,4.7,2.7,6.2-4.8,7-10.7-1.1-14.4-4.8.8,1.8,1.3,3.7,2.7,4.8-.6,1.5-5.1,2.6-5.5,2.1-3-.6-3.1-4.2-4.8-6.2-4.4,6.5-9.7,13-15.8,11-2.9-1.6,2.8-4.4,2.7-7.5-4.3,1.4-4.6,6.9-7.5,9.6-4.9-.1-10.5.4-14.4-.7.9-4.4,4.3-6.2,6.2-9.6-3.8-.3-6.2,6.5-8.9,9.6-3,0-6.2-.2-8.2.7,2.3-9.8,8.6-15.6,14.4-21.9,9.9,2.3,9.6-5.5,15.8-6.9,1.9,1,2.5,3.4,4.8,4.1,6.4-7.8,16.7,2.7,8.2,8.2,5.1-.4,4.1-6.9,7.5-8.9,3.8,2.8,6.8,1.6,10.3-.7,1.6-.3,1.5,1.2,3.4.7h0ZM143.9,405.6c6.9-1.6,16.6-.3,24.7-.7,1.1,14.7.7,29.9-1.4,45.9-6.6-1.6-9.6.7-14.4-3.4-4.2-1-6.3,3-8.9,1.4-1.1-12.5.6-26.7,0-43.2ZM195.3,376.8c-1.4,8.8-4.4,16.1-7.5,23.3-18.4,2.1-46.7,0-66.5,0,2.2-9.4,6.3-17,9.6-25.4,5.9.6,7.8.3,12.3.7,2.4,7.6-10.5,10.5-8.2,16.4,1.7,4.4,11.5,4.7,16.4.7,3-2.5,2.2-7.6,5.5-8.9,6.6-2.4,9.7,3.8,11,8.9,5.4,2.7,9.4,2,15.1,0,1-7.9-5.6-11.8-6.2-15.8,6.7-.8,11.1-.5,18.5,0h0ZM142.5,283.6v-4.8c2.4-.5,2.9.8,4.1,1.4-.4,2.1-1.5,3.5-4.1,3.4ZM150.1,285.7c-.3,3.6-4.5,5-6.9,2.7-.9-4.9,5.3-6,6.9-2.7ZM179.5,389.1c-2.6,1.7-5,1.7-7.5,2.1-2.6-5-5.2-9.9-10.3-12.3-2.6-14.6-.7-34.1-4.8-50-.3,16.9,3.1,33,2.7,48-8,3.4-9.8,17.3-20.6,13.7,2-4.4,6.1-6.7,7.5-11.6,1.1.3.6,2.2,2.7,1.4.6-2.2-1.1-2.1-2.1-2.7,1.5-1.5,1.7-4.3,4.1-4.8,2.4-29.9-9.7-51-8.2-82.2,3.6,2,7.6-.8,8.2-4.1-2-3.5-3.6-7.4-6.9-9.6-3.1-.6-2.2,2.8-4.8,2.7-2.6-7.2,1.6-13.5,9.6-12.3.4,1,1.1,1.7,2.1,2.1,2.1,23.4,2.8,36.6,4.8,58.9,1.5-11.1-2.1-25.1-.7-39,10.3,6.8,10.9-11.7,4.8-15.1-4-.1-5.4,2.4-7.5,4.1v-9.6c2.9.3,11.3-2.2,15.1.7-.2,2.1-2.6,2-3.4,3.4.5,1.8,3.1,1.5,3.4,3.4-1.2,11.1-.9,24,2.1,32.9-.4,4.8-.7,12.7-1.4,20.5-1.1,13.4-1.8,29.8,0,42.5,3.3,6.1,6.7,12,11,17.1h0ZM145.2,371.3c.8-9.5.4-15.7.7-26,1.6,7.8,5,21.2-.7,26ZM155.5,280.9c-1.3-5.8,5.8-5.9,6.9-2.1-1,2-4,1.9-6.9,2.1ZM163.8,284.3c0,2.1-1.4,2.7-2.1,4.1-2.4.3-3.8-.3-5.5-.7v-4.1c3.3-1.3,4.7-1.3,7.5.7ZM173.3,305.5c-.4-.7-.4-2.4-.7-4.8-1.8.8.3,5.3-1.4,6.2-2.5-9.3-4.5-20.1-2.1-30.8,5.1,2.9,1.6,13.6,2.7,23.3,2.1-5.9-.2-14.8.7-21.2,3.4,1,3.9,4.8,3.4,9.6-.9-.5-1.3-1.5-1.4-2.7-1.4,7.8,1,12.5-1.4,20.5h0ZM177.4,311.7c-5.9-1.5.2-13-2.1-15.1,3.8-.8,1.4,10.5,2.1,15.1ZM180.9,280.2c1.4,4.1,1.3,13.8,1.4,21.2-9-4.6-.9-14.4-1.4-21.2ZM164.4,202.1c8.2.4,11.4-4.1,15.1-8.2,1.6,1-.8,3.7-1.4,4.8,3.5-.2,2.7-4.6,4.1-6.9,4.1,10.8-11.3,18-17.8,10.3h0ZM179.5,182.9c-.5,6.7-.6,11.9-6.2,14.4-.9-5.8-5.7-7.5-4.8-15.1-2.9-.2-.5,2.2-.7,3.4-4.9.4-6.2-2.9-11-2.7,1.2-5.5.7-12.5,2.7-17.1,5,3,6.6,9.3,8.2,15.8-.1-11,1.6-29.9-6.9-36.3-5.5,2.6-10.2,9.4-9.6,15.8,2.7-4.4,3.1-11.1,8.2-13-.2,2.8,1.4.4,2.7.7,2.1,6.8,5.4,12.4,4.8,21.9-6.1-3.1-9.3-10.2-6.9-19.9-2.7,2.3-.8,9.3-2.1,13-2.8.4-4.6,1.8-6.2,3.4-1.6-.7-.3-4.3-.7-6.2-2.8,2.4-2,5.4-.7,8.2-4.5,7.8-3.1,17.3-8.2,24,2.7-2.4,4.5-5.6,6.9-8.2,13-1.7,20.6,3.4,23.3,13.7-6.2,2.9-13.2,2-17.8,5.5-1.4-.9-2.7-1.9-2.1-4.8-2.2-.3-.5,3.1-2.1,3.4-4.4.5-6.2-1.5-9.6-2.1-.2-3.1,1.7-4.3,2.1-6.9-3.5-.3-1.4,5-4.1,5.5-7.4-2.2.4-13.8,3.4-16.4,1-8.1.6-14.9.7-24.7,1.2-.6,1.7-1.9,4.1-1.4,0-2.9-1.6-4.3-4.8-4.1-.3-4.3-1.3-7.8-1.4-12.3,12.8,6.5,26.9.8,43.9,2.1,2.4,0,2.5-2.5,5.5-2.1-4.2,11.6-9.8,27.7-11,42.5h0ZM156.2,182.9c-3,0-6.2-.2-8.2.7.8-8.4,3.5-14.8,8.9-18.5,1.1,4.5-1.9,10.9-.7,17.8ZM320,95.2c-6.9,3.5-3.8,16.5-8.9,23.3-11-1-29,0-43.2-1.4,7.7-8.9,24.8-4.8,34.9-11.7,1.2-5.4.5-10.3-3.4-12.3,5.5.8,16.4-2.2,20.5,2.1h0ZM299.4,101.4c-.5,1.7-3.5,3.1-4.8,2.1.9-1.4,3-1.5,4.8-2.1ZM291.9,100.7c1.3,2.2.8,2.3,2.1,4.8,2.8.5,2.4-2.2,5.5-1.4-4,5.7-14.1,1.7-21.2,3.4-4.8,1.1-8.4,5.3-12.3,6.8-5,2-10.3,1.4-14.4,5.5-7.2-.3-12.4,4-19.2,4.8-9.2,1.1-22.4-2.9-32.2,3.4-6.1,4-7.7,13.5-17.8,12.3-2.6,1-.1-3.1-2.7-2.1-2.6-.1-.2.6-.7,2.1-12.8-.3-23.6,2-30.8.7-2.6-.5,0-2.4-1.4-3.4-10.2,3.1-10.6-14.8-20.6-16.4-1.2,1,2.4,3,4.1,3.4-10.8.2-26-1.7-40.4-3.4-15.7-1.9-32.5-8.1-43.8-12.3-9.9.8-16.6-1.7-22.6-4.8.1-1.7,2.3-.2,2.7,0,2.1-1.3-3-1-2.1-3.4,2.1,1.1,3.4,1.7,4.1-.7,5.3,1.1,9.2,3.6,13.7,5.5.9-1.6-3-4.3-4.8-5.5,12.8,6.9,38.9,6.7,56.9,13.7,16.2-2.8,32.2-2.7,50-.7-.2,2.3-2.5,4.7-.7,6.8,1.2-1.5,2-3.5,4.1-4.1-.3,3.3-.3,2.9,0,6.2,2.5-.9,3.2-3.6,5.5-4.8,4.6,1.8,7.9,4.9,13,6.2,5.3-.8,3.9-8.4,6.2-12.3,4.6,3.4,8.7,5.2,13.7,6.8-.2-2.8-2.2-3.8-4.1-4.8,1.9-2.1,4.5,1,6.2,1.4,1.3,0,.4-2.3,1.4-2.7,9.9-.2,23.8,2.9,37.7,2.7,0,1.8,2.9.7,2.1,3.4,1-.8,1-2.6,2.1-3.4,19.8-5.8,41.4-5.1,56.9-16.4-.6,1.9-1.6,3.4-2.1,5.5,2.8-4.4,9.4-5.1,13-6.8-.8,2.9-5,2.3-6.9,4.1h0ZM195.3,91.8c25.8-.1,65.2.2,93.2,1.4-1.9,4.7-8,5.3-11,8.9-25.1,3.8-54,13.8-82.2,6.8-.1-4.7.3-10.2,0-17.1h0Z"/>
      <path class="st1" d="M174,52c-1.9-4.2-.4-7.4-3.4-10.3-.1.8-.8.4-1.4,0-2.1,2-2.1,10.4,0,12.3,2.1-.2,3.1-1.5,4.8-2.1h0Z"/>
      <path class="st1" d="M142.5,74v4.8c2.3,0,2.3,2.2,4.8,2.1.5-4.4-1.1-6.7-4.8-6.8h0Z"/>
    </g>
  </g>
</svg>