<?xml version="1.0" encoding="UTF-8"?>
<svg id="Layer_2" data-name="Layer 2" xmlns="http://www.w3.org/2000/svg" viewBox="0 0 700.43 60.76">
  <defs>
    <style>
      .cls-1 {
        fill: #fff;
      }
    </style>
  </defs>
  <g id="Layer_1-2" data-name="Layer 1">
    <g>
      <path d="M287.57,15.08c-7.72-1.69-6.68,6.82-3.76,11.19,7.78,11.66,41.07,9.89,53.3,7.37,7.12-1.47,10.23-4.5,18.15-2.51,5.05,1.27,8.49,2.98,14.15,3.6,11.61,1.29,39.96,2.37,47.2-8.47,2.13-3.19,3.57-11.46-1.61-11.7-3.17-.14-1.78,1.9-2.25,4.01-1.43,6.45-16.29,2.56-17.18-6.13-1.65-16.14,27.67-16.49,32.3-1.58,5.07,16.3-12.29,30.59-27.32,31.49l-14.58,1.49c3.26.68,6.59,1.41,9.9,1.86,23.81,3.23,71.75,3.34,91.13-12.42,23.67-19.24-11.46-27.02-24.23-15.57,5.85,2.41,11.37,4.58,9.37,12.24-.18.71-.92,1.85-1.43,2.4-6.1,6.65-19.51-.19-20.42-8.41-2.25-20.28,34.88-23.42,47.05-13.92,10.44,8.14,6.66,20.99-2.19,28.53-23.66,20.15-78.83,18.06-107.85,12.82-13.76-2.48-25.45-7.47-37.1-15.05-15.58,10.57-32.37,14.92-50.94,17.05-22.8,2.61-48.59,2.81-70.74-3.54-13.25-3.8-33.5-12.88-31.63-29.68,2.49-22.4,56.5-19.68,53.18,4.22-1.58,11.43-23.45,15.85-22.04,1.48.57-5.84,9.05-7.37,9.11-8.15-.99-2.05-3.88-2.91-5.98-3.61-5.02-1.66-10.05-2.24-15.24-1.31-15.02,2.7-12.11,13.33-2.24,20.7,8.92,6.66,21.63,9.8,32.5,11.65,22.52,3.84,45.43,3.15,67.78-1.3.11-.83-1.09-.45-1.67-.47-19.04-.71-42.94-6.58-40.03-30.88,2-16.69,36.2-16.77,32.37,1.17-1.66,7.8-18.14,13.07-17.07,1.41Z"/>
      <path d="M90.77,31.39l8,2.79c10.71,3.22,17.16,19.68,4.95,25.26-14.25,6.51-23.51-12.88-8.16-17.51-2.72-2.98-8.25-4.61-12.22-4.81-9.98-.5-12.41,4.42-20.1,8.73-16.37,9.18-45.47,11.88-58.65-3.91C-13.38,20.4,26.61,3.9,34.03,22.13c2.94,7.23-1.82,16.3-10.19,14.97-4.92-.78-7.8-8.68-13.02-6.23-.93,6.01,7.77,11.03,12.75,12.26,31.02,7.71,50.66-18.16,77.16-27.93,17.55-6.47,48.43-9.58,60.04,8.83,9.66,15.32-10.02,29.03-20.32,21.26-3.31-2.5-.96-3.79-1.9-6.74-.58-1.82-4.79-5-6.5-5.97-11.98-6.85-28.58-4.95-41.29-1.19ZM97.97,24.19c5.4.16,10.66-1.18,16.07-.95,7.19.31,19.88,2.63,25.64,6.99,3.01,2.28,4.9,5.54,7.48,8.22,13.85-5.58,4.26-15.77-5.41-18.91-11.65-3.79-25.35-2.65-36.83,1.3-2.19.75-5.34,1.8-6.95,3.36Z"/>
      <path d="M689.81,30.42c-4.81-1.22-6.34,2.86-9.63,5.01-8.83,5.76-17-3.61-14.04-12.58,6.34-19.21,47.99-2.85,29.67,19.09-12,14.37-38.12,13.3-53.85,6.31-12.41-5.52-16.69-15.31-32.45-9.57-1.74.64-3.47,1.57-4.67,3.01,15.09,5.13,6.59,23.72-7.82,17.88-12.87-5.22-6.12-22.08,4.61-25.4l8-2.78c-12.42-3.54-26.5-5.33-38.72-.09-2.46,1.06-7.9,4.46-8.91,6.92-1.27,3.09,1.76,5.42-3.24,7.8-13.68,6.51-29.26-10.13-17.3-24.47,14.2-17.03,45.43-12.02,63.36-4.29,24.28,10.47,39.64,31.43,69.24,26.47,6.6-1.11,15.84-5.57,15.73-13.3ZM603.89,24.2c-13.74-6.28-29.33-9.35-44.16-5.04-9.63,2.8-21.23,13.5-6.5,18.95,1.38-.14,2.41-2.77,3.37-3.86,10.53-11.87,32.55-12.33,47.06-9.11l.23-.94Z"/>
      <path d="M179.92,29.1c11.07-2.29,15.07,12.22,6.15,15.26-10.38,3.54-15.79-13.26-6.15-15.26Z"/>
      <path d="M516.4,29.1c9.64-1.65,12.37,9.35,5.09,14.19-11.05,7.35-17.63-12.04-5.09-14.19Z"/>
      <path class="cls-1" d="M97.97,24.19c1.61-1.56,4.76-2.61,6.95-3.36,11.48-3.94,25.18-5.08,36.83-1.3,9.67,3.14,19.26,13.33,5.41,18.91-2.57-2.68-4.46-5.94-7.48-8.22-5.76-4.36-18.46-6.68-25.64-6.99-5.42-.23-10.67,1.11-16.07.95Z"/>
      <path class="cls-1" d="M603.89,24.2l-.23.94c-14.51-3.22-36.52-2.76-47.06,9.11-.96,1.09-1.99,3.72-3.37,3.86-14.73-5.46-3.13-16.16,6.5-18.95,14.83-4.31,30.42-1.24,44.16,5.04Z"/>
    </g>
  </g>
</svg>