<?xml version="1.0" encoding="UTF-8"?>
<svg id="Layer_2" xmlns="http://www.w3.org/2000/svg" version="1.1" viewBox="0 0 366.5 686.8">
  <!-- Generator: Adobe Illustrator 29.8.4, SVG Export Plug-In . SVG Version: 2.1.1 Build 6)  -->
  <defs>
    <style>
      .st0 {
        fill: #fff;
      }

      .st1 {
        fill: #554b41;
      }
    </style>
  </defs>
  <g id="Layer_1-2">
    <g>
      <path class="st0" d="M49.7,219.8c-1.8-14.6-2.5-29.1-8-42,1.4,15.3-2.6,36,8,42Z"/>
      <path class="st0" d="M51.7,472.8c-.9.8-2.1,6.4,0,7-.8-2.6,3-5.5,0-7Z"/>
      <path class="st0" d="M238.7,116.8c-3.2,6.9-16.4,8.8-14,18,4.7-4.8,17.5-11.7,14-18Z"/>
      <path class="st0" d="M225.7,143.8c6.8-1.6,8.2-8.5,11-14-5.9,1.9-12.8,7.6-11,14Z"/>
      <path class="st0" d="M244.7,154.8c7.2-21.4,5.1-47.5,23-60-1,11.1-6.6,19.8-8,30-1.7,12.8-.8,25.6-3,34-3.3,12.4-11.7,15.9-18,25-8.9,12.9-17,42.1,6,43,3-20.2,19-28.1,24-46,4.5-16.1-.5-35.1,0-53,.5-17.6,4-34.8,10-50-10.8,3.2-16.8,11.2-24,18-6.6-5.4-13.7,9-20,7,5.8-6.6,15.6-9.1,21-16-6.5,1,.5-3.8-2-4-10.2,2.5-20,5.4-30,8v6c10-1.7,17.9-10.8,28-9-6.1,6.3-28.9,4.3-29,20,4.3.2,6.1-5.9,10-3-3,4.2-13.1,4.9-10,12,4.9-.8,5.4-5.9,11-6-1.5,6.6-13.4,6.7-10,15,9.7-5.7,18.1-12.6,24-22-3.7-.6-4.6,6.6-8,3,4-4.3,7.7-8.9,14-11-13.2,25.5-15.8,61.5-39,77,1.4,6.3,1.1,14.3,5,18,5.4-12.8,19.8-20.7,25-36Z"/>
      <path class="st0" d="M51.7,443.8c.2,9.2-3.9,19.4-2,27,4.2-8.6,5-20.9,2-27Z"/>
      <path class="st0" d="M223.7,79.8c4.1.4,9-3.6,12-1-3.3,3.1-9.2,1.5-12,3-.9,2.9-.9,3.1,0,6,14.9-5.7,38.9-5,45-14-8.5.7-15.8,6.7-22,2,3.3-1.7,9.9-.2,12-3-2.8-2.5-11.6.9-12-4,3-.4,12.9,1,11-1-15.4.2-22.8-1.1-34,0,1.2,5-2.6,8.7,0,12ZM245.7,76.8c-2.7,2.8-7.1,1.5-9,2,1.4-2.2,6-4.5,9-2ZM239.7,69.8c.8,3.8-4.7,1.3-7,2,.1-2.9,4.2-1.8,7-2Z"/>
      <path class="st0" d="M227.7,151.8c1.1-2.6,3.6-3.7,4-7-3.1-.8-1.2,3.4-5,2,.6,1.4-1.2,5.2,1,5Z"/>
      <path class="st0" d="M76.7,214.8c-1.2-9.7-5.9-24-13-31,4.6,10.1,3.6,25.7,13,31Z"/>
      <path class="st0" d="M49.7,343.8c.7,27.1-1.3,48.9,0,70-3.4,17-4.9,43.1-4,57,4.9-43.1,12.2-82.9,15-125-3.4-.9-7.3-1.3-11-2Z"/>
      <path class="st0" d="M119.7,83.8c-14-2-33.5-3.8-45-5,6.3,4.4,18.4,3,24,8-10.7,2.3-16.1-5.9-24-3,15.4,4.3,27.1,12.3,44,15,1.9-5.9-3.2-4.8-4-8-.2-2.8,6.5,1.2,5-3,1.7-2,0-1.3,0-4ZM100.7,87.8c.2-2.1,10.6-1.6,12,3-3.3-1.2-12.2-.7-12-3Z"/>
      <path class="st0" d="M120.7,72.8c-11-5-32.5-4.9-47-3,14.1,1.5,35.2,5.8,47,3Z"/>
      <path class="st0" d="M120.7,79.8c-13.1-7.5-38.4-4.8-54-7-1.2.2-.6,1.1,0,2,18.8.3,36.3,7,54,5Z"/>
      <path class="st0" d="M85.7,109.8c6.3,12.3,18.8,18.5,30,26-.4-14.3-19.9-18.1-30-26Z"/>
      <path class="st0" d="M77.7,95.8c8,15,26.6,19.4,39,30-.8-2.8,1.4-2.6,1-5-10.9-10.8-26.1-17.3-40-25Z"/>
      <path class="st0" d="M73.7,194.8c2.4,4.6,3.1,16.2,8,15-2.9-4.8-3.9-11.4-8-15Z"/>
      <path class="st0" d="M73.7,148.8c-2.2-9.1-3-19.7-6-28-7.3,45.3,31.2,53.4,37,89,9.3-2.3,3.2-14.7,1-20-11.1-13.2-23.4-25.2-32-41Z"/>
      <path class="st0" d="M89.7,120.8c.2,2.8,1.8,4.2,2,7,9.7,3,15.1,15.5,24,16-5.2-11.1-17.6-15.1-26-23Z"/>
      <path class="st0" d="M274.7,110.8c.7-8.4,9.3-19.2,6-25-5.1,4.6-7.7,16.9-6,25Z"/>
      <path class="st0" d="M105.7,146.8c2.8,1.8,3.2,6.1,8,6-3.3-10.7-12.8-15.2-21-21,1,6.6,8.2,7.1,9,14-10.4-9.9.3,9.3,6,6-.7-1.1-5.1-3.4-2-5Z"/>
      <path class="st0" d="M92.7,443.8c5.2-5.4,9.4-12,14-18-8.4,1.6-13.2,12.2-14,18Z"/>
      <path class="st0" d="M250.7,473.8c-4.9-9.8-13-16.4-19-25,1.1,3.7-2.5,2.9-2,6,5.5,7.9,12.8,13.8,21,19Z"/>
      <path class="st0" d="M250.7,466.8c-.7-8.7-4.8-13.5-9-20-2.3-3.6-6-9-10-9,.3,11.9,11.8,20.8,19,29Z"/>
      <path class="st0" d="M232.7,427.8c2.4,10.2,9.5,15.9,15,23-2.2-10.5-6.5-18.8-15-23Z"/>
      <path class="st0" d="M259.7,495.8c-8.8-8.5-15.8-18.9-30-22,3,14.4,18,16.6,30,22Z"/>
      <path class="st0" d="M281.8,111c-.1-4.7-.5-9.1-1.1-13.3-3.3,13.4-10,26.3-8,42,4.5,1.1-.6-7.3,5-5-6.4,14.9-2.3,34.8-7,52-4,7-15.7,32.2-2,35,4.1-34.8,13.6-76.6,13.1-108.9-.7,2.7-.7,6-3.1,6.9,1.4-2.5.4-7.4,3.1-8.7Z"/>
      <path class="st0" d="M85.7,383.8c-4,8.3-11.9,11.8-18,21-13.8,21-7.4,52-13,76-.8,3.5-5.3,5.6-2,10,10.9-5.8,18-15.3,27-23,.9,6.3-6.5,6.7-2,11-4.4,2.3-5.8,7.6-11,9-1.3-2.5,3.9-3.1,1-4-4,3.3-9.1,5.6-11,11,3.9.2,2.7-4.6,7-4,1.1,2.5-4.7,3.9,0,4,4.1.8,1.9-4.8,6-4-.3,5.7-3,9-7,11,6,0,8.5-3.5,14-4,1.1,2.5-4.7,3.9,0,4,15.3-2.4,27-8.3,41-12,.6-3.2-.7-4.6-1-7-11.2,2.5-18.9,8.4-30,11-2.1,1.6-7.2,7.3-9,3,10.8-7.5,25.6-11.1,38-17v-10c-12.9,4.4-24.4,15.6-35,19,10.2-9.5,23.8-15.5,35-24v-9c-15.3,8.6-30.1,23.2-42,32,8.4-10.2,17.4-20,30-26,2.6-6.9,14.3-9.5,10-20-10.4,4.6-14.7,20.7-25,22,8.6-8,14.2-19.1,24-26,.4-4.4-.3-7.7-2-10-13.3,10-20.6,26-31,39,6.7-25.3,17.9-46.1,40-56-1.6-9-.5-20.8-5-27-16.9,25.1-37.2,46.8-45,81-1.3.3-1.9,1.4-4,1-.9,2.5.3,6.9-3,7-2.7-4,1-10.3,4-12-1.8-.2-2.3-1.7-2-4,4.4-21.2,5.8-37.3,18-52,.4-.5,2.5.5,3,0,1.9-1.9,5.6-6.9,8-10,8.8-11.3,19.8-39.9-1-48,.3,12.2-2.5,27.5-7,37ZM79.7,489.8c-.5,2.9-3.8,2.9-6,4,.6-2.7,2.8-3.9,6-4ZM85.7,467.8c-1.6,3.1-3.9,5.4-6,8-1.8-2.5,2.5-7.5,6-8Z"/>
      <path class="st0" d="M118.7,500.8c.7-3.6-.7-5.3-2-7-12.1.8-19.5,6.8-29,9-10.7,2.5-22.9.1-29,8,18.9-.6,31.6-9,48-7-9,3.6-21.4,3.9-30,8,7.1,2.3,18.8-3.5,27,0-8.2,1.7-25.3,5.4-33-1-1.6,3.5,3.4.6,3,3-3,2-9.4.6-14,1,13.6,7,41.7,1.2,60-1-3.7-4.1-11.1,1.8-14-3,3.2-2.4,11.7.4,13-4v-2c0-3-7.4,1.4-6-3,.1-2.2,4.2-.4,6-1Z"/>
      <path class="st0" d="M63.7,85.8c18.9,8.5,35.8,18.8,53,29,1.2-3.1,1.6-7.1,2-11-18.4-7.9-37.8-14.8-57-22-.7,2.7,2,2,2,4Z"/>
      <path class="st0" d="M259.7,430.8c1.5,4.8-1.2,9.5,4,13,1.8-32.1-20-40.6-21-70-1.3,0-1.4-1.3-3-1,0,1.3-1.3,1.4-1,3-6.1,22.1,15,35.5,21,55Z"/>
      <path class="st0" d="M230.7,462.8c-.7,11.5,15.2,14.7,23,21-4.6-10.1-14.4-14.9-23-21Z"/>
      <path class="st0" d="M261.7,361.8c-.1,4.1-.2,8.2,2,10,1.8-2.6-.9-7.2-2-10Z"/>
      <path class="st0" d="M256.7,353.8c-13.3,4.3-13.1,19.2-9,33,3.5,12,15.2,23.3,18,37,4.7,22.8,1.1,40.5,5,59-8.9-19.3-10-40.4-18-57-5.9-12.3-17-21.8-17-39-6.9,5.1-6.7,17.3-8,28,11.4,9.4,22.8,22.2,26,40,2.8,15.7.6,32.9,13,43,7.1.6,8.8,6.5,17,6-1-10.5-5.2-19.3-6-30-1.1-14.4,1.5-29.3,1-43-1.1-29.8-23.1-47.1-22-77Z"/>
      <path class="st0" d="M259.7,115.8c-.1-1.2-.3-2.4-2-2-6.8,15.5-3.9,26.6-10,44-6.4,18.5-37.3,34.5-22,49,1.8-21.1,23.3-31.3,28-51,2.8-11.9.3-27.1,6-40Z"/>
      <path class="st0" d="M259.7,203.8c-1.7,3.3-5.8,4.2-5,10,1.9.4,1.8,2.9,5,2-1.9-5,4.5-10.8,0-12Z"/>
      <path class="st0" d="M230.7,490.8c7.4,5.6,20.7,5.3,26,13-10.2-1.8-16.7-7.3-27-9v6c6.4,4.3,17.7,3.6,24,8-6.9,1.8-15.7-2.9-23-4v5c5.7.9,12.1,1.3,17,3-3.7,3.4-15.2-3.8-18,2,8.4,2.5,23.1,2.8,29,2,12.1-1.6-5.4,0-6-3,.4-2.9,7.6.9,8-2-3.8-2.3,3.8-1.5,3-4-1.4-1.7-6.5-2.3-4-5,3.3,1.1,8.8,5.2,12,3-12.6-7.7-27.1-13.6-41-20v5Z"/>
      <path class="st0" d="M267.7,353.8c-4.3,15.9,1.8,38,10,48-1.2-21.3-2.6-36-10-48Z"/>
      <path class="st0" d="M283.7,481.8c.1-9.4,2-28.5-3-36,1.2,11.8-2.9,28.9,3,36Z"/>
      <path class="st0" d="M289.7,351.8c-2.4-.6-4.6-1.4-8-1,6.4,37.6,2.5,91.7,10,128-1.4-37.1-2.5-83.6-2-127Z"/>
      <path class="st0" d="M282.7,418.8c-.7,2.2,1,6.4,1,2,1.4-26.1-3.2-46.1-6-68h-3c0,1.3-1.3,1.4-1,3,5.6,18.1,7.3,47.2,9,63Z"/>
      <path class="st0" d="M331.7,34.8c-2.3,6.7-6.5,31.3,0,40,.6-13.5,5.4-28.7,0-40Z"/>
      <path class="st0" d="M319.7,461.8c-1.3,0-1.4-1.3-3-1-2.7,23.7.9,46.2,0,70,12.7-16.8,0-44,3-69Z"/>
      <path class="st0" d="M322.7,84.8c-.3,10.3,1.7,18.3,4,26,8.6-1.1,18.2-1.1,23-6,.2-7.9-2.6-12.7-4-19-9-.6-13.9-2.6-23-1Z"/>
      <path class="st0" d="M305.7,447.8c.7,33.8.3,54.2-1,89-14.8-1.8-30.5-2.5-44-2-46.4,1.8-94.2-1.7-142-4-33-1.6-66.2,5.3-99-1,0-10.2-1.6-27.8,1-37,4.4,8.9-.1,23.9,2,34,25.1,2.1,45.2,2,67,1,29.7-1.3,60.4,1.5,90,3,40.4,2,80.2-1,122,0,.8-15.3,1.3-32.2,2-50,2.2-59.7-1.4-130.6,1-193,1.1-29.3,1-61.1-1-90,3.2-3.4,4-9.4,4-14,.3-35.2-5.8-83.2-3-129-93.4-1.3-192.6,3-285-1,4.2,67.1,6.5,157.4,1,226-1.5-74.9,2-147.2-4-229,28.7.2,55.7-.7,78,3,68.2-4.6,149.1-.7,212-2,2.3,78.2,2.4,153.2,2,222-.3,47.7-2.2,99.4-1,146,7.5-3.5,5.9-10.5,6-17,1-54.9,2.4-110.3,0-167-.8-19.1,2.6-38.3,2-56-.2-4.6-2.2-8.6-2-13,.7-16.3,4.9-31.7,3-47-1.2-10.2-6-19.8-6-30,0-4.4,2.5-8.3,3-13,1-9.6-1.2-19.8,0-30-5.5-1.8-13.9-.8-19-3,5.6-3.6,15.5-.8,21,1,2.6,12.4-3.3,22.8,3,31,5.5-10.3-.8-24.7,2-37-24.8-.7-51.5.6-70-3h24c-3.3-6-19.6.9-22-6,25.4,2.2,54.1,4.8,76,1-25-3.2-40.2.4-64-4,11.9-1.3,31.3-.2,48,0,9.1,0,19,3,24-2-3.4-3.5-10.9,1-14-4,6.3.7,15.3-1.3,20,1,1.1,8.2.2,18.7,0,29-.2,8.8-2.7,20,3,23,3.2-21.4-.7-42.1,3-55-38.4-9-86.5-.7-128-4-55.9-4.4-110.2-2.2-166-2-15.8,0-44.2-2.9-44,14,.1,13.7,22.8,16.5,35,18,47.4,6,118.1-6.2,161,0-19.5,1.9-42.5,3.2-66,3-33.3-.3-71.7,4-102,0-4.5-.6-11-1.7-15-3-4.3-1.4-10.3-8.9-13-7-1.7,33.9.2,68.9,2,104,2.3,45.3-2.4,86.9-2,125,1,89.9-.6,175.3,2,267,48.5,7.8,105.2-.4,150,3,31.3,2.4,67,2.5,98,6,12.5-5.5,34.3-1.1,52-4-.3-27.6,5.7-73.7-7-91ZM32.7,63.8c32.8,1.6,55.8.6,89,3,1.6,19.8.7,55.8-3,78-1.5,8.8-5.7,17.4,6,20,8.7-31.2,10.1-69.6,12-98,28.2-1.6,54.2-1.6,75-5-1.3,40.5,1.9,64.7,3,102,16.5-3.2,3.7-33.1,4-52,.2-18.2,1.9-33.3,3-47,19.7-4.3,46.8,2.8,71,1,.2,44.3,4,87.4,1,128-6.1-7.8-2-19.7-2-29,0-20.2.6-41.5-1-62-3.3,21-4.3,33.5-4,59-6.1-11.4.3-30.5,0-46-5.5,13.4-4.4,29.6-6,45-2.1,20.2-6.5,40.7-9,63,1.3,1.7,5.7.3,7,2,2.2-8,3.4-17.7,4-27,.8-11.1-2.8-24.3,4-33,0,16.1-5,34.1-3,54,.3,3.1-1.7,9.7,4,8,3.8-7.9,2.2-21.1,3-32,7.8,8.8.8,24.1,2,36-18.3,0-30.4-6.2-40-15-3.7,1.6-4.1,6.5-4,12,12.5,8.6,32.2,7.8,47,12-2.9,31-2.3,65.6-4,100-11.8,3.8-26.9.3-32,12,8.2-.9,19.7-7,33-6-.5,69.5,1.9,116.4,3,175-6.5-4.8-14.1-1.5-21-3-2.2-2.1.5-2.8,0-6h-8c-2.4,2.2,5.8,2.2,6,5-11.9,5.7-32.8,1-46,3,.4-18.7-2-48.6,2-67-5.7-8.1,5.1-23.6,0-33-5.3.2-4.2,7.9-5,12-5.1,26.5-2.5,65.7-6,88-29.2-4.6-59.9,1.3-87-2,2-3-1.9-6.6,0-9,4.8-1.1,1.4,6,5,6,30.4-.7,52.4,1.1,80-1,.3-16.3,1-39.8,2-64,.4-9.5,4.4-19.6,5-28,.1-1.5-2.2-3.7-2-5,.2-1.7,2.6-3.2,3-5,7.1-34.3,18-62.5,49-74h13c5.7-6.8,3-16.5,3-26,0-21.6,2.4-46.7,4-68-25.4-4.3-50-9.3-66-23-4.8-11.8-13.2-23.8-15-40-1.2-11.2.6-23.9,0-35-.3-5.7-2.6-10.3-3-15-1.5-16.5,1.3-47.4,0-65-19.7,1.1-48,1-70,5,.6,19.8-1.8,44.5-5,70-4.9,38.9-19.5,75.6-46,90-12.7,6.9-24.5,3.3-37,8-4.8.9-8.4-2.9-11-1-3.9,27.8-2.5,57.6-2,88,26.7,7.2,55.4,5.8,68,25,1.6,2.5,1.4,6.4,3,10,3.8,8.3,11,17.6,13,26,2.7,11.4,1.7,23.1,3,38,2.4,26.4,7.4,53.4,7,78-5.6-1.4-.4-11-4-14-1.9-27-3.7-48.2-7-73-5-1.3-4.2,3.1-8,3,8.3,27.8,7.4,71.1,10,100-30.6.9-50.7,2.3-86-1,0-56.5,2.1-123.1-2-180,19.3-2,41.4,7,54,18,.6-5.3-.7-8.6-1-13-15.4-5.5-33.3-13.1-53-11-2.8-29.5-.4-68.8,0-99,17.3.9,41.8,2.4,51-8-.7-3.6-2.7-5.9-3-10-14.2,4.6-32.5,12.3-49,6,.6-35.4-.4-69-2-105-.8-17.9-5.3-36.7,1-53h0ZM43.7,247.8c93.1,2.4,95.7-90.9,102-172,17.4-5.1,35.7-3.1,57-4-.6,62.8-10.2,139.9,34,168,14.8,5.6,31.7,8.9,50,11-1.5,27.3-5.9,55.4-3,79-72.8,11.4-77.8,108.6-75,180-21,.5-44.8-5.7-66-3,.8-8.6-2.7-15.3,0-24,4.4,3.2,2.5,12.8,3,20,17.1-4.4,40.1,4.7,58,1,3-80.5,7.2-160.3,76-178,.7-25.6,1.8-43.9,4-72-51.5-.2-78.4-28.9-83-79-2.8-30.2-.8-66.2,0-98-14.6-2.4-37.8-2.1-53,4-3.9,82.4-11,170.3-100,171-1.3,20.7-2.4,46.4-2,63,17.7,1.2,32.2,3.5,47,12,15.8,9,26.6,16.8,35,35,9.3,20.1,8.2,42.7,12,68,2.5,17,5.5,32.5,4,50-5.6-4.5-2.6-12.1-3-18-.9-14.9-5.1-31.5-7-46-2.6-20.6-3.2-39.1-12-56-12.6-24.1-39.8-42.1-79-40-.6-26.2,1.2-49.9,1-72h0ZM321.7,20.8c-2.5,3.9-12-1.9-17,1,2.9-5.2,11.4.3,17-1ZM256.7,20.8c13.8,1.5,34.4-4.7,47-1-11.4,2.2-36.5,3.5-52,1,1.8-5.1,2.8-.2,5,0ZM208.7,43.8c9,1.5,21.4.4,26,1-4.4,2.1-21.3,6.2-26-1ZM239.7,30.8c-1.9,3.5-13.6,2.3-17,1,3.5-3.6,11.8-1.6,17-1ZM222.7,24.8c6.2-1.5,17.2-2.4,19,2-6.3-.7-15.7,1.7-19-2ZM235.7,37.8c.5-3.6,12.6-3,12,1-1.9-2.2-9.2,2.3-12-1ZM293.7,43.8c-6.5,2.5-12-.2-19,1,1.8-5.5,15.5-3,19-1ZM273.7,44.8c-11.4.2-17.6,1.3-26,0,3.4-2.2,20.1-3,26,0ZM249.7,29.8c-.5,3.5-7.4,4.6-8,0h8ZM182.7,17.8c18.7-.3,39.2-2,59,1-30.3,1.7-60,1.1-90,2,8.8-5,20.1-2.8,31-3ZM140.7,24.8c16.8-.8,40.8-3.1,50,0-16.2-.4-36,4.8-50,0ZM181.7,29.8c-4.4,4.8-16.4,1.5-28,3,5.9-6.5,18.4-1.7,28-3ZM151.7,32.8c-9.4-1.3-23.9,2.6-30-2,9.3,1.1,23.9-3.4,30,2ZM132.7,25.8v-2h7v2h-7ZM221.7,31.8c-14,2.9-26.2-1.8-37-1,9.8-1.1,28.8-2.8,37,1ZM199.7,22.8c6.8.9,15,.3,21,2-3.2,3.3-17.7,1.2-21-2ZM149.7,20.8h-18c1.4-3.7,17-5.4,18,0ZM128.7,17.8c-5.6,5.2-16.4,3.4-24,3-11.1-.6-24.6-1.6-36-4,15.5-1.8,35.4,1.9,60,1ZM67.7,18.8c-4.9-.5-11.7,1-15-1,3.8-2.3,13.8-3.8,15,1ZM73.7,39.8c-11,0-25.5.2-35-1-9.9-1.2-25.8-5.6-23-15,3.3-11.2,27.8-7,36-7-8.1,3.7-19.9.8-31,5,34.1,3.5,68.7,1.2,111,2-7.4,5.3-18.3,3-28,3-31.7,0-56.8-1.6-84,0,1.7,5.4,12.3,3,19,3,27.8,0,56.1-1.3,81,3-23.5,1.8-54.3-1.1-85,0,23.8,6.6,57.3,1.5,92,3,30.3,1.3,64.2-1.5,106,0-4.3,6.4-13.1,2.2-20,2-38.6-1-95.7,2.2-139,2ZM18.7,461.8c-2.5-62-2.6-109.9,1-180,1.6-.3,1.7,1,3,1-6.3,73.2.4,145-2,205-4.2-8.4-1.7-17.8-2-26Z"/>
      <path class="st0" d="M281.7,35.8c3.7-.6,10,1.3,12-1-3.6-.7-9.4-2.5-12,1Z"/>
      <path class="st0" d="M316.7,79.8c-4.1,10.4-1.1,32.6,6,41,9.5-4.6,20.7-2.1,33-7-.5-11.8,1.2-25.8-1-36-10,.4-28.2-1.6-38,2ZM352.7,106.8c-7.5,5.8-19,8.4-29,6-2-8.5-5.8-20.1-3-30,8-4.3,21-.8,29,1,.1,8.5,4.5,12.8,3,23Z"/>
      <path class="st0" d="M321.7,445.8c8.3-2.7,18.3-3.7,28-5,1.4-5.2.4-14.5-3-18-11.6,1-18.1,1.1-27,5,.6,6.1-1.6,15,2,18Z"/>
      <path class="st0" d="M330.7,414.8c2.7-21.7,1.4-58.4,0-82-1.9,24.1-4.3,58.3,0,82Z"/>
      <path class="st0" d="M348.7,221.8c.5-36.5.8-66.2-1-102h-3c0,1.4-.5,2.2-1,3,3.3,85.3-4.4,199.3,0,291,9.4-4.3,3.4-16.3,3-24-1.4-27.4,1.7-59.7,3-82-2.8-28.9-1.4-57.3-1-86h0Z"/>
      <path class="st0" d="M326.7,161.8c-3.4,37.5,1,92.5-1,137-.2,5.2-2.1,11-2,16,.2,7.8,1.6,19.8,4,24-1.2-58.6,5.6-117.4-1-177h0Z"/>
      <path class="st0" d="M340.7,253.8c-2.8-.2-2.5,3.9-4,0-2.4-11-1.1-29.8-3-44-4.2,24,0,63.3-2,94-.7,11.1-3.7,20.8,1,28-.5-15.2.5-28.5,1-42,.3-9.9-.4-19.9,4-28-.8,52.4-4.7,97.6-2,152,6.9-8.6,2.1-23.4,2-35-.3-40.5,4.2-73.6,3-125h0Z"/>
      <path class="st0" d="M332.7,419.8c19.5-5.4,24,9.1,20,24-10.9,2.4-22.3,4.4-34,6-2.4-7.5-4.9-16-4-24,2.7-4,10.8-2.6,14-6-5.6-1.4-12.8.2-18,2-.6,9-1.9,23.9,4,34,16,0,27.3-4.7,41-7,5.7-7.5.8-20.3,0-30-7.8-3.9-16.6-1.1-23,1Z"/>
      <path class="st0" d="M349.7,462.8c-1.4-3.2-.2-3.3,0-7-3.1.8-1.9-2.8-5-2-2.4,10.3-.6,21.6,0,32,.4,7.2-1.7,16.8,4,21,4.1-10.5.2-29.2,0-42,1.9-.4,6,1.4,5-2-.9-3.9-3.7,3.3-4,0Z"/>
      <path class="st0" d="M340.7,503.8c.2-9.7.8-31.6-1-47-1.3,13.3-2.1,32.5,1,47Z"/>
      <path class="st0" d="M52.7,148.8c3.9,33.1,36.4,44.4,35,76,7.5-3.7,14.7-6.6,13-17-3.1-18.9-17.1-26.8-27-41-8.9-12.7-8.8-29.5-10-46-.8-10.8-5.9-19-8-31,14.7,11.6,16.9,35.8,21,58,10.3,18.4,27.4,29.9,37,49,3.8-7.8,11.9-16.6,10-25-2.2-10-19.1-13.1-26-19-3-5.3-5.5-11.1-9-16-3.5-29.5-17.6-48.4-43-56,12.7,23.1,4.2,43.9,7,68Z"/>
      <path class="st0" d="M331.7,514.8c.3-12.4-.6-43-3-56,.9,16.6-2.9,44.4,3,56Z"/>
      <path class="st0" d="M324.7,519.8c5.4.2,2-7.7,1-10-1.8,1.9-.7,6.6-1,10Z"/>
      <path class="st0" d="M322.7,460.8c0,13.7-.2,27.5,3,38-1.2-13.2,2.6-31.8-3-38Z"/>
      <path class="st0" d="M336.7,509.8c.1-10.1.9-21.4-3-32,.8,10.9-.8,24.1,3,32Z"/>
      <path class="st0" d="M333.7,457.8v17c2.1,4.7,3.2-12.8,0-17Z"/>
      <path class="st0" d="M41.7,218.8c-.5-7.3-1.6-24.1-4-30,1.4,9.6-5.8,30.4,4,30Z"/>
      <path class="st0" d="M50.7,202.8c.8,8.6-1.3,17,7,17-3.6-22.1-11-49-17-72,1,4.3-1.1,5.6-2,8,5.5,10.5,10.5,31.1,12,47Z"/>
      <path class="st0" d="M45.7,341.8c-3.4.3-8.7-1.3-8,3,3,43.2,4.5,91.9,2,129,3.7-5.1,3.5-12.5,4-19,2.5-31.5,4.4-75.2,2-113Z"/>
      <path class="st0" d="M73.7,351.8c-2.2-2.2-4.8-3.9-9-4-3.2,31.3-10.9,64.8-11,93,5.7-30.7,14.7-58,20-89Z"/>
      <path class="st0" d="M70.7,214.8c-9.7-28-19.8-59.8-27-87,2.1,30.3,16.8,60.8,22,88,1.4-.6,5.2,1.2,5-1Z"/>
      <path class="st0" d="M49.7,131.8c.9-6.6-2.7-8.7-4-13,1,4.7.1,11.2,4,13Z"/>
      <path class="st0" d="M43.7,102.8c1.8,5.6,2.7,12,6,16,.2-7.6-3-11.7-6-16Z"/>
      <path class="st0" d="M52.7,182.8c3.7,11.6,2.9,27.7,11,35-2.2-9.3-5.1-26.1-11-35Z"/>
      <path class="st0" d="M67.7,402.8c3.4-16,15.5-28.4,15-45-2.5-.8-2.1-4.6-6-4-2.4,15.6-11.4,35.1-9,49Z"/>
      <path class="st0" d="M77.7,388.8c3.4-6.9,10-16,8-25-1.1,9.3-9.1,16.9-8,25Z"/>
      <path class="st0" d="M322.7,124.8c-.2-.8-.8-1.2-2-1-5.6,36.5-2.1,83.8-2,126,0,7.6-2.4,14.7-2,22,.4,6.6,2.3,13.4,2,18-1.8,25.7-2.3,63-2,94,.1,12.8-1.2,25.7,3,32,5.8-29.8.7-68.9,1-102,.6-62.3,3.2-132.9,2-189Z"/>
      <path class="st0" d="M339.7,121.8c-1.5,3-4.4-.8-7,0-2.9,24-3.7,53.6,2,76,.7-20.2-2.4-41.4,0-57,2.1,20.9,3.4,43.7,3,66-.3,14.1-2.2,29.5,3,42-.8-43.2,3-92.2-1-127ZM335.7,139.8c-1.8-3.2-1.5-12.8,0-16,4.7,2.4.3,12,0,16Z"/>
      <path class="st0" d="M325.7,38.8c-4.2,7.3-3,24.6,0,35,2.8-9.8-1.2-23.1,3-33-1.4-.2-1.7-1.7-3-2Z"/>
      <path class="st0" d="M326.7,137.8c-1.5,7.7,0,14.6-1,21,5.8-3.2,2.6-18.1,1-21Z"/>
      <path class="st0" d="M328.7,124.8c-1.3,0-1.4-1.3-3-1,1.2,7.9,1.8,10.9,3,1Z"/>
      <path class="st0" d="M88.7,539.8c-20.6,1.2-40.7-2.4-57,2-.8,2.9-2,5.3-3,8,4.9,9.4,1.6,26.9,0,41,2.2,24.7,2.8,48.8,2,69-.3,6.6-2.6,10.3,1,15,9.4-4.2,19.2-8.2,30-11,8.2,3.5,19.6,9,28,9,4.8-41.5-3.1-79.7-1-133Z"/>
      <path class="st0" d="M93.7,539.8c-5.2,27.4,0,64.3-1,86,5.6,3.2,14.4,8.1,20,8-1.9-31.5,0-64.6-5-93-3-2-9.4-.6-14-1Z"/>
      <path class="st0" d="M69.7,455.8c5.6-30.5,28.8-50.9,43-76-.9-3.8-2.2-7.2-4-10-7.7,33.3-42,45.3-39,86Z"/>
      <path class="st0" d="M338.7,74.8c1.3-14.6,3.9-32,0-48-1.1.9-.3,3.7-3,3-.5,7,1.6,12.8,1,19-.9,9.3-5.7,21.5,2,26Z"/>
      <path class="st1" d="M232.7,35.8c-41.8-1.5-75.7,1.3-106,0-34.7-1.5-68.2,3.6-92-3,30.7-1.1,61.5,1.8,85,0-24.9-4.3-53.2-3-81-3s-17.3,2.4-19-3c27.2-1.6,52.3,0,84,0s20.6,2.3,28-3c-42.3-.8-76.9,1.5-111-2,11.1-4.2,22.9-1.3,31-5-8.2,0-32.7-4.2-36,7-2.8,9.4,13.1,13.8,23,15,9.5,1.2,24,.9,35,1,43.3.2,100.4-3,139-2,6.9.2,15.7,4.4,20-2Z"/>
      <path class="st1" d="M67.7,18.8c-1.2-4.8-11.2-3.3-15-1,3.3,2,10.1.5,15,1Z"/>
      <path class="st1" d="M128.7,17.8c-24.6.9-44.5-2.8-60-1,11.4,2.4,24.9,3.4,36,4,7.6.4,18.4,2.2,24-3Z"/>
      <path class="st1" d="M182.7,17.8c-10.9.2-22.2-2-31,3,30-.9,59.7-.3,90-2-19.8-3-40.3-1.3-59-1Z"/>
      <path class="st1" d="M131.7,20.8h18c-1-5.4-16.6-3.7-18,0Z"/>
      <path class="st1" d="M303.7,19.8c-12.6-3.7-33.2,2.5-47,1-2.2-.2-3.2-5.1-5,0,15.5,2.5,40.6,1.2,52-1Z"/>
      <path class="st1" d="M321.7,20.8c-5.6,1.3-14.1-4.2-17,1,5-2.9,14.5,2.9,17-1Z"/>
      <path class="st1" d="M190.7,24.8c-9.2-3.1-33.2-.8-50,0,14,4.8,33.8-.4,50,0Z"/>
      <path class="st1" d="M220.7,24.8c-6-1.7-14.2-1.1-21-2,3.3,3.2,17.8,5.3,21,2Z"/>
      <path class="st1" d="M132.7,23.8v2h7v-2h-7Z"/>
      <path class="st1" d="M241.7,26.8c-1.8-4.4-12.8-3.5-19-2,3.3,3.7,12.7,1.3,19,2Z"/>
      <path class="st1" d="M153.7,32.8c11.6-1.5,23.6,1.8,28-3-9.6,1.3-22.1-3.5-28,3Z"/>
      <path class="st1" d="M121.7,30.8c6.1,4.6,20.6.7,30,2-6.1-5.4-20.7-.9-30-2Z"/>
      <path class="st1" d="M221.7,31.8c-8.2-3.8-27.2-2.1-37-1,10.8-.8,23,3.9,37,1Z"/>
      <path class="st1" d="M239.7,30.8c-5.2-.6-13.5-2.6-17,1,3.4,1.3,15.1,2.5,17-1Z"/>
      <path class="st1" d="M249.7,29.8h-8c.6,4.6,7.5,3.5,8,0Z"/>
      <path class="st1" d="M235.7,37.8c2.8,3.3,10.1-1.2,12,1,.6-4-11.5-4.6-12-1Z"/>
      <path class="st1" d="M293.7,43.8c-3.5-2-17.2-4.5-19,1,7-1.2,12.5,1.5,19-1Z"/>
      <path class="st1" d="M273.7,44.8c-5.9-3-22.6-2.2-26,0,8.4,1.3,14.6.2,26,0Z"/>
      <path class="st1" d="M208.7,43.8c4.7,7.2,21.6,3.1,26,1-4.6-.6-17,.5-26-1Z"/>
      <path class="st1" d="M239.7,69.8c-2.8.2-6.9-.9-7,2,2.3-.7,7.8,1.8,7-2Z"/>
      <path class="st1" d="M42.7,319.8c39.2-2.1,66.4,15.9,79,40,8.8,16.9,9.4,35.4,12,56,1.9,14.5,6.1,31.1,7,46,.4,5.9-2.6,13.5,3,18,1.5-17.5-1.5-33-4-50-3.8-25.3-2.7-47.9-12-68-8.4-18.2-19.2-26-35-35-14.8-8.5-29.3-10.8-47-12-.4-16.6.7-42.3,2-63,89-.7,96.1-88.6,100-171,15.2-6.1,38.4-6.4,53-4-.8,31.8-2.8,67.8,0,98,4.6,50.1,31.5,78.8,83,79-2.2,28.1-3.3,46.4-4,72-68.8,17.7-73,97.5-76,178-17.9,3.7-40.9-5.4-58-1-.5-7.2,1.4-16.8-3-20-2.7,8.7.8,15.4,0,24,21.2-2.7,45,3.5,66,3-2.8-71.4,2.2-168.6,75-180-2.9-23.6,1.5-51.8,3-79-18.3-2.1-35.2-5.4-50-11-44.2-28.1-34.6-105.1-34-168-21.3.9-39.6-1.1-57,4-6.4,81.1-8.9,174.4-102,172,.2,22.1-1.6,45.8-1,72Z"/>
      <path class="st1" d="M320.7,82.8c-2.8,9.9,1,21.5,3,30,10,2.4,21.5-.2,29-6,1.5-10.2-2.9-14.5-3-23-8-1.8-21-5.3-29-1ZM349.7,104.8c-4.8,4.9-14.4,4.9-23,6-2.3-7.7-4.3-15.7-4-26,9.1-1.6,14,.4,23,1,1.4,6.3,4.2,11.1,4,19Z"/>
      <path class="st1" d="M100.7,87.8c-.2,2.3,8.7,1.8,12,3-1.4-4.6-11.8-5.1-12-3Z"/>
      <path class="st1" d="M335.7,123.8c-1.5,3.2-1.8,12.8,0,16,.3-4,4.7-13.6,0-16Z"/>
      <path class="st1" d="M20.7,487.8c2.4-60-4.3-131.8,2-205-1.3,0-1.4-1.3-3-1-3.6,70.1-3.5,118-1,180,.3,8.2-2.2,17.6,2,26Z"/>
      <path class="st1" d="M79.7,489.8c-3.2,0-5.4,1.3-6,4,2.2-1.1,5.5-1.1,6-4Z"/>
      <path class="st1" d="M236.7,78.8c1.9-.5,6.3.8,9-2-3-2.5-7.6-.2-9,2Z"/>
      <path class="st1" d="M33.7,221.8c16.5,6.3,34.8-1.4,49-6,.3,4.1,2.3,6.4,3,10-9.2,10.4-33.7,8.9-51,8-.4,30.2-2.8,69.5,0,99,19.7-2.1,37.6,5.5,53,11,.3,4.4,1.6,7.7,1,13-12.6-11-34.7-20-54-18,4.1,56.9,2.1,123.5,2,180,35.3,3.3,55.4,1.9,86,1-2.6-28.9-1.7-72.2-10-100,3.8,0,3-4.3,8-3,3.3,24.8,5.1,46,7,73,3.6,3-1.6,12.6,4,14,.4-24.6-4.6-51.6-7-78-1.3-14.9-.3-26.6-3-38-2-8.4-9.2-17.7-13-26-1.6-3.6-1.4-7.5-3-10-12.6-19.2-41.3-17.8-68-25-.5-30.4-1.9-60.2,2-88,2.6-1.9,6.2,1.9,11,1,12.5-4.7,24.3-1.1,37-8,26.5-14.4,41.1-51.1,46-90,3.2-25.5,5.6-50.2,5-70,22-4,50.3-3.9,70-5,1.3,17.6-1.5,48.5,0,65,.4,4.7,2.7,9.3,3,15,.6,11.1-1.2,23.8,0,35,1.8,16.2,10.2,28.2,15,40,16,13.7,40.6,18.7,66,23-1.6,21.3-4.1,46.4-4,68,0,9.5,2.7,19.2-3,26h-13c-31,11.5-41.9,39.7-49,74-.4,1.8-2.8,3.3-3,5-.2,1.3,2.1,3.5,2,5-.6,8.4-4.6,18.5-5,28-1,24.2-1.7,47.7-2,64-27.6,2.1-49.6.3-80,1-3.6,0-.2-7.1-5-6-1.9,2.4,2,6,0,9,27.1,3.3,57.8-2.6,87,2,3.5-22.3.9-61.5,6-88,.8-4.1-.3-11.8,5-12,5.1,9.4-5.7,24.9,0,33-4,18.4-1.6,48.3-2,67,13.2-2,34.1,2.7,46-3-.2-2.8-8.4-2.8-6-5h8c.5,3.2-2.2,3.9,0,6,6.9,1.5,14.5-1.8,21,3-1.1-58.6-3.5-105.5-3-175-13.3-1-24.8,5.1-33,6,5.1-11.7,20.2-8.2,32-12,1.7-34.4,1.1-69,4-100-14.8-4.2-34.5-3.4-47-12-.1-5.5.3-10.4,4-12,9.6,8.8,21.7,15,40,15-1.2-11.9,5.8-27.2-2-36-.8,10.9.8,24.1-3,32-5.7,1.7-3.7-4.9-4-8-2-19.9,3-37.9,3-54-6.8,8.7-3.2,21.9-4,33-.6,9.3-1.8,19-4,27-1.3-1.7-5.7-.3-7-2,2.5-22.3,6.9-42.8,9-63,1.6-15.4.5-31.6,6-45,.3,15.5-6.1,34.6,0,46-.3-25.5.7-38,4-59,1.6,20.5,1.1,41.8,1,62,0,9.3-4.1,21.2,2,29,3-40.6-.8-83.7-1-128-24.2,1.8-51.3-5.3-71-1-1.1,13.7-2.8,28.8-3,47-.3,18.9,12.5,48.8-4,52-1.1-37.3-4.3-61.5-3-102-20.8,3.4-46.8,3.4-75,5-1.9,28.4-3.3,66.8-12,98-11.7-2.6-7.5-11.2-6-20,3.7-22.2,4.6-58.2,3-78-33.2-2.4-56.2-1.3-89-3-6.3,16.3-1.8,35.1-1,53,1.6,36,2.6,69.6,2,105h0ZM77.7,388.8c-1.1-8.1,6.9-15.7,8-25,2,9-4.6,18.1-8,25ZM82.7,357.8c.5,16.6-11.6,29-15,45-2.4-13.9,6.6-33.4,9-49,3.9-.6,3.5,3.2,6,4ZM73.7,351.8c-5.3,31-14.3,58.3-20,89,.1-28.2,7.8-61.7,11-93,4.2.1,6.8,1.8,9,4ZM39.7,473.8c2.5-37.1,1-85.8-2-129-.7-4.3,4.6-2.7,8-3,2.4,37.8.5,81.5-2,113-.5,6.5-.3,13.9-4,19ZM49.7,413.8c-1.3-21.1.7-42.9,0-70,3.7.7,7.6,1.1,11,2-2.8,42.1-10.1,81.9-15,125-.9-13.9.6-40,4-57ZM51.7,443.8c3,6.1,2.2,18.4-2,27-1.9-7.6,2.2-17.8,2-27ZM51.7,472.8c3,1.5-.8,4.4,0,7-2.1-.6-.9-6.2,0-7ZM118.7,504.8v2c-1.3,4.4-9.8,1.6-13,4,2.9,4.8,10.3-1.1,14,3-18.3,2.2-46.4,8-60,1,4.6-.4,11,1,14-1,.4-2.4-4.6.5-3-3,7.7,6.4,24.8,2.7,33,1-8.2-3.5-19.9,2.3-27,0,8.6-4.1,21-4.4,30-8-16.4-2-29.1,6.4-48,7,6.1-7.9,18.3-5.5,29-8,9.5-2.2,16.9-8.2,29-9,1.3,1.7,2.7,3.4,2,7-1.8.6-5.9-1.2-6,1-1.4,4.4,6,0,6,3ZM108.7,369.8c1.8,2.8,3.1,6.2,4,10-14.2,25.1-37.4,45.5-43,76-3-40.7,31.3-52.7,39-86ZM93.7,394.8c-2.4,3.1-6.1,8.1-8,10-.5.5-2.6-.5-3,0-12.2,14.7-13.6,30.8-18,52-.3,2.3.2,3.8,2,4-3,1.7-6.7,8-4,12,3.3,0,2.1-4.5,3-7,2.1.4,2.7-.7,4-1,7.8-34.2,28.1-55.9,45-81,4.5,6.2,3.4,18,5,27-22.1,9.9-33.3,30.7-40,56,10.4-13,17.7-29,31-39,1.7,2.3,2.4,5.6,2,10-9.8,6.9-15.4,18-24,26,10.3-1.3,14.6-17.4,25-22,4.3,10.5-7.4,13.1-10,20-12.6,6-21.6,15.8-30,26,11.9-8.8,26.7-23.4,42-32v9c-11.2,8.5-24.8,14.5-35,24,10.6-3.4,22-14.6,35-19v10c-12.4,5.9-27.2,9.5-38,17,1.8,4.3,6.9-1.4,9-3,11.1-2.6,18.8-8.5,30-11,.3,2.4,1.6,3.8,1,7-14,3.7-25.7,9.6-41,12-4.7-.1,1.1-1.5,0-4-5.5.5-8,4-14,4,4-2,6.7-5.3,7-11-4.1-.8-1.9,4.8-6,4-4.7-.1,1.1-1.5,0-4-4.3-.6-3.1,4.2-7,4,1.9-5.4,7-7.7,11-11,2.9.9-2.3,1.5-1,4,5.2-1.4,6.6-6.7,11-9-4.5-4.3,2.9-4.7,2-11-9,7.7-16.1,17.2-27,23-3.3-4.4,1.2-6.5,2-10,5.6-24-.8-55,13-76,6.1-9.2,14-12.7,18-21,4.5-9.5,7.3-24.8,7-37,20.8,8.1,9.8,36.7,1,48ZM106.7,425.8c-4.6,6-8.8,12.6-14,18,.8-5.8,5.6-16.4,14-18ZM239.7,372.8c1.6-.3,1.7,1,3,1,1,29.4,22.8,37.9,21,70-5.2-3.5-2.5-8.2-4-13-6-19.5-27.1-32.9-21-55-.3-1.6.9-1.7,1-3ZM231.7,448.8c6,8.6,14.1,15.2,19,25-8.2-5.2-15.5-11.1-21-19-.5-3.1,3.1-2.3,2-6ZM241.7,446.8c4.2,6.5,8.3,11.3,9,20-7.2-8.2-18.7-17.1-19-29,4,0,7.7,5.4,10,9ZM232.7,427.8c8.5,4.2,12.8,12.5,15,23-5.5-7.1-12.6-12.8-15-23ZM230.7,462.8c8.6,6.1,18.4,10.9,23,21-7.8-6.3-23.7-9.5-23-21ZM259.7,495.8c-12-5.4-27-7.6-30-22,14.2,3.1,21.2,13.5,30,22ZM259.7,502.8c-2.5,2.7,2.6,3.3,4,5,.8,2.5-6.8,1.7-3,4-.4,2.9-7.6-.9-8,2,.6,3,18.1,1.4,6,3-5.9.8-20.6.5-29-2,2.8-5.8,14.3,1.4,18-2-4.9-1.7-11.3-2.1-17-3v-5c7.3,1.1,16.1,5.8,23,4-6.3-4.4-17.6-3.7-24-8v-6c10.3,1.7,16.8,7.2,27,9-5.3-7.7-18.6-7.4-26-13v-5c13.9,6.4,28.4,12.3,41,20-3.2,2.2-8.7-1.9-12-3ZM283.7,481.8c-5.9-7.1-1.8-24.2-3-36,5,7.5,3.1,26.6,3,36ZM289.7,351.8c-.5,43.4.6,89.9,2,127-7.5-36.3-3.6-90.4-10-128,3.4-.4,5.6.4,8,1ZM274.7,352.8h3c2.8,21.9,7.4,41.9,6,68,0,4.4-1.7.2-1-2-1.7-15.8-3.4-44.9-9-63-.3-1.6,1-1.7,1-3ZM267.7,353.8c7.4,12,8.8,26.7,10,48-8.2-10-14.3-32.1-10-48ZM261.7,361.8c1.1,2.8,3.8,7.4,2,10-2.2-1.8-2.1-5.9-2-10ZM278.7,430.8c.5,13.7-2.1,28.6-1,43,.8,10.7,5,19.5,6,30-8.2.5-9.9-5.4-17-6-12.4-10.1-10.2-27.3-13-43-3.2-17.8-14.6-30.6-26-40,1.3-10.7,1.1-22.9,8-28,0,17.2,11.1,26.7,17,39,8,16.6,9.1,37.7,18,57-3.9-18.5-.3-36.2-5-59-2.8-13.7-14.5-25-18-37-4.1-13.8-4.3-28.7,9-33-1.1,29.9,20.9,47.2,22,77ZM225.7,206.8c-15.3-14.5,15.6-30.5,22-49,6.1-17.4,3.2-28.5,10-44,1.7-.4,1.9.8,2,2-5.7,12.9-3.2,28.1-6,40-4.7,19.7-26.2,29.9-28,51ZM259.7,215.8c-3.2.9-3.1-1.6-5-2-.8-5.8,3.3-6.7,5-10,4.5,1.2-1.9,7,0,12ZM281.8,112.9c.5,32.2-9,74.1-13.1,108.9-13.7-2.8-2-28,2-35,4.7-17.2.6-37.1,7-52-5.6-2.3-.5,6.1-5,5-2-15.7,4.7-28.6,8-42,.6,4.2,1,8.6,1.1,13.3-2.7,1.3-1.7,6.2-3.1,8.7,2.4-.9,2.4-4.2,3.1-6.9ZM274.7,110.8c-1.7-8.1.9-20.4,6-25,3.3,5.8-5.3,16.6-6,25ZM223.7,67.8c11.2-1.1,18.6.2,34,0,1.9,2-8,.6-11,1,.4,4.9,9.2,1.5,12,4-2.1,2.8-8.7,1.3-12,3,6.2,4.7,13.5-1.3,22-2-6.1,9-30.1,8.3-45,14-.9-2.9-.9-3.1,0-6,2.8-1.5,8.7.1,12-3-3-2.6-7.9,1.4-12,1-2.6-3.3,1.2-7,0-12ZM253.7,95.8c-6.3,2.1-10,6.7-14,11,3.4,3.6,4.3-3.6,8-3-5.9,9.4-14.3,16.3-24,22-3.4-8.3,8.5-8.4,10-15-5.6,0-6.1,5.2-11,6-3.1-7.1,7-7.8,10-12-3.9-2.9-5.7,3.2-10,3,0-15.7,22.9-13.7,29-20-10.1-1.8-18,7.3-28,9v-6c10-2.6,19.8-5.5,30-8,2.5.2-4.5,5,2,4-5.4,6.9-15.2,9.4-21,16,6.3,2,13.4-12.4,20-7,7.2-6.8,13.2-14.8,24-18-6,15.2-9.5,32.4-10,50-.5,17.9,4.5,36.9,0,53-5,17.9-21,25.8-24,46-23-.9-14.9-30.1-6-43,6.3-9.1,14.7-12.6,18-25,2.2-8.4,1.3-21.2,3-34,1.4-10.2,7-18.9,8-30-17.9,12.5-15.8,38.6-23,60-5.2,15.3-19.6,23.2-25,36-3.9-3.7-3.6-11.7-5-18,23.2-15.5,25.8-51.5,39-77ZM226.7,146.8c3.8,1.4,1.9-2.8,5-2-.4,3.3-2.9,4.4-4,7-2.2.2-.4-3.6-1-5ZM225.7,143.8c-1.8-6.4,5.1-12.1,11-14-2.8,5.5-4.2,12.4-11,14ZM224.7,134.8c-2.4-9.2,10.8-11.1,14-18,3.5,6.3-9.3,13.2-14,18ZM41.7,177.8c5.5,12.9,6.2,27.4,8,42-10.6-6-6.6-26.7-8-42ZM63.7,183.8c7.1,7,11.8,21.3,13,31-9.4-5.3-8.4-20.9-13-31ZM73.7,194.8c4.1,3.6,5.1,10.2,8,15-4.9,1.2-5.6-10.4-8-15ZM104.7,209.8c-5.8-35.6-44.3-43.7-37-89,3,8.3,3.8,18.9,6,28,8.6,15.8,20.9,27.8,32,41,2.2,5.3,8.3,17.7-1,20ZM116.7,125.8c-12.4-10.6-31-15-39-30,13.9,7.7,29.1,14.2,40,25,.4,2.4-1.8,2.2-1,5ZM107.7,151.8c-5.7,3.3-16.4-15.9-6-6-.8-6.9-8-7.4-9-14,8.2,5.8,17.7,10.3,21,21-4.8.1-5.2-4.2-8-6-3.1,1.6,1.3,3.9,2,5ZM91.7,127.8c-.2-2.8-1.8-4.2-2-7,8.4,7.9,20.8,11.9,26,23-8.9-.5-14.3-13-24-16ZM85.7,109.8c10.1,7.9,29.6,11.7,30,26-11.2-7.5-23.7-13.7-30-26ZM114.7,90.8c.8,3.2,5.9,2.1,4,8-16.9-2.7-28.6-10.7-44-15,7.9-2.9,13.3,5.3,24,3-5.6-5-17.7-3.6-24-8,11.5,1.2,31,3,45,5,0,2.7,1.7,2,0,4,1.5,4.2-5.2.2-5,3ZM120.7,72.8c-11.8,2.8-32.9-1.5-47-3,14.6-1.9,36-2,47,3ZM66.7,72.8c15.6,2.2,40.9-.5,54,7-17.7,2-35.2-4.7-54-5-.6-.9-1.2-1.8,0-2ZM61.7,81.8c19.2,7.2,38.6,14.1,57,22-.4,3.9-.8,7.9-2,11-17.2-10.2-34.1-20.5-53-29,0-2-2.7-1.3-2-4ZM88.7,136.8c3.5,4.9,6,10.7,9,16,6.9,5.9,23.8,9,26,19,1.9,8.4-6.2,17.2-10,25-9.6-19.1-26.7-30.6-37-49-4.1-22.2-6.3-46.4-21-58,2.1,12,7.2,20.2,8,31,1.2,16.5,1.1,33.3,10,46,9.9,14.2,23.9,22.1,27,41,1.7,10.4-5.5,13.3-13,17,1.4-31.6-31.1-42.9-35-76-2.8-24.1,5.7-44.9-7-68,25.4,7.6,39.5,26.5,43,56ZM49.7,118.8c-3.3-4-4.2-10.4-6-16,3,4.3,6.2,8.4,6,16ZM49.7,131.8c-3.9-1.8-3-8.3-4-13,1.3,4.3,4.9,6.4,4,13ZM70.7,214.8c.2,2.2-3.6.4-5,1-5.2-27.2-19.9-57.7-22-88,7.2,27.1,17.3,59,27,87ZM63.7,217.8c-8.1-7.3-7.3-23.4-11-35,5.9,8.9,8.8,25.7,11,35ZM40.7,147.8c6,23,13.4,49.9,17,72-8.3,0-6.2-8.4-7-17-1.5-15.9-6.5-36.5-12-47,.9-2.4,3-3.7,2-8ZM37.7,188.8c2.4,5.9,3.5,22.7,4,30-9.8.4-2.6-20.4-4-30Z"/>
      <path class="st1" d="M79.7,475.8c2.1-2.6,4.4-4.9,6-8-3.5.5-7.8,5.5-6,8Z"/>
      <path class="st1" d="M364.7,419.8c-1.5-5.2-7-9-8-14-5-23.8,2.1-51.8,1-75-.3-6.8-.4-11.8,0-19,2-33.2-3.4-67.3-1-101,1.9-27.6,3.2-54.4,1-81,10.5-16.4,4.8-35.2,4-57-10.2-7.2-6-19.2-6-30,0-12.8-4.4-25.9-4-37-40.5-5.2-82.2-2.5-122-4-13.5-.5-27.8-.1-41-1-25.6-1.7-51.6,0-77,1-26.1,1.1-54.1-2-79,1C11.9,5.2,2.4,11.4.7,32.8c-2,25,1.1,56,2,84,.3,10-1.3,18.9-1,26,.2,5.4,2.7,13.1,3,17,2.1,24.6-2.2,45.1-3,66-3.6,99.5,1.2,221.1,3,311,3,8.3,15.6,7,21,13-5.1,13.9-2.9,36.5-3,56,0,17,.2,33.8,0,50,4.4,2.5-2.3,5.9,6,8-6.8,4.3-8.5,17.9-2,23,12.9-1.5,21.1-11.4,34-11,12.9.4,25.8,13.6,39,8,3.7-14.9-5.8-32.6,1-42,9.6-.6,13.4,4.6,21,6,1.4-24.7-.6-52-2-77-.4-7.3.2-15.8,3-22,40.3-8,96.7,2.7,133-2,7,4.9,17.8,0,26,3,3.8.8.7-5.3,5-4-1,3.3,1.4,3.3,4,3,13.9,1.5,21.1-.3,32,0,2.5-16.5,14.3-23.7,24-33,4.3-.4,10.3,1,13-1,5.3-15.2-1.4-34.1-1-53,8.9-5.3,9-31.4,6-42ZM354.7,77.8c2.2,10.2.5,24.2,1,36-12.3,4.9-23.5,2.4-33,7-7.1-8.4-10.1-30.6-6-41,9.8-3.6,28-1.6,38-2ZM346.7,389.8c.4,7.7,6.4,19.7-3,24-4.4-91.7,3.3-205.7,0-291,.5-.8,1-1.6,1-3h3c1.8,35.8,1.5,65.5,1,102-.4,28.7-1.8,57.1,1,86-1.3,22.3-4.4,54.6-3,82ZM337.7,378.8c.1,11.6,4.9,26.4-2,35-2.7-54.4,1.2-99.6,2-152-4.4,8.1-3.7,18.1-4,28-.5,13.5-1.5,26.8-1,42-4.7-7.2-1.7-16.9-1-28,1.9-30.7-2.2-70,2-94,1.9,14.2.6,33,3,44,1.5,3.9,1.2-.2,4,0,1.2,51.4-3.3,84.5-3,125ZM319.7,427.8c8.9-3.9,15.4-4,27-5,3.4,3.5,4.4,12.8,3,18-9.7,1.3-19.7,2.3-28,5-3.6-3-1.4-11.9-2-18ZM330.7,414.8c-4.3-23.7-1.9-57.9,0-82,1.4,23.6,2.7,60.3,0,82ZM327.7,338.8c-2.4-4.2-3.8-16.2-4-24-.1-5,1.8-10.8,2-16,2-44.5-2.4-99.5,1-137,6.6,59.6-.2,118.4,1,177ZM326.7,137.8c1.6,2.9,4.8,17.8-1,21,1-6.4-.5-13.3,1-21ZM325.7,123.8c1.6-.3,1.7.9,3,1-1.2,9.9-1.8,6.9-3-1ZM340.7,248.8c-5.2-12.5-3.3-27.9-3-42,.4-22.3-.9-45.1-3-66-2.4,15.6.7,36.8,0,57-5.7-22.4-4.9-51.9-2-76,2.6-.8,5.5,3,7,0,4,34.8.2,83.8,1,127ZM319.7,415.8c-4.2-6.3-2.9-19.2-3-32-.3-31,.2-68.3,2-94,.3-4.6-1.6-11.4-2-18-.4-7.3,2-14.4,2-22-.1-42.2-3.6-89.5,2-126,1.2-.2,1.8.2,2,1,1.2,56.1-1.4,126.7-2,189-.3,33.1,4.8,72.2-1,102ZM325.7,73.8c-3-10.4-4.2-27.7,0-35,1.3.3,1.6,1.8,3,2-4.2,9.9-.2,23.2-3,33ZM331.7,34.8c5.4,11.4.6,26.5,0,40-6.5-8.7-2.3-33.3,0-40ZM335.7,29.8c2.7.7,1.9-2.1,3-3,3.9,16,1.3,33.4,0,48-7.7-4.6-2.9-16.7-2-26,.6-6.2-1.5-12-1-19ZM89.7,672.8c-8.4,0-19.8-5.5-28-9-10.8,2.8-20.6,6.8-30,11-3.6-4.7-1.3-8.4-1-15,.8-20.2.2-44.3-2-69,1.6-14.1,4.9-31.6,0-41,1-2.7,2.2-5.1,3-8,16.3-4.4,36.4-.8,57-2-2.1,53.3,5.8,91.5,1,133ZM92.7,625.8c1.1-21.7-4.2-58.6,1-86,4.6.4,11-1,14,1,5.1,28.4,3.1,61.5,5,93-5.6.1-14.4-4.8-20-8ZM312.7,538.8c-17.7,2.9-39.5-1.5-52,4-31-3.5-66.7-3.6-98-6-44.8-3.4-101.5,4.8-150-3-2.6-91.7-1-177.1-2-267-.4-38.1,4.3-79.7,2-125-1.8-35.1-3.7-70.1-2-104,2.7-1.9,8.7,5.6,13,7,4,1.3,10.5,2.4,15,3,30.3,4,68.7-.3,102,0,23.5.2,46.5-1.1,66-3-42.9-6.2-113.6,6-161,0-12.2-1.5-34.9-4.3-35-18-.2-17,28.2-13.9,44-14,55.8-.2,110.1-2.4,166,2,41.5,3.3,89.6-5,128,4-3.7,12.9.2,33.6-3,55-5.7-3-3.2-14.2-3-23,.2-10.3,1.1-20.8,0-29-4.7-2.3-13.7-.3-20-1,3.1,5,10.6.5,14,4-5,5-14.9,2.1-24,2-16.7-.2-36.1-1.3-48,0,23.8,4.4,39,.8,64,4-21.9,3.8-50.6,1.2-76-1,2.4,6.9,18.7,0,22,6h-24c18.5,3.6,45.2,2.3,70,3-2.8,12.3,3.5,26.7-2,37-6.3-8.2-.4-18.6-3-31-5.5-1.8-15.4-4.6-21-1,5.1,2.2,13.5,1.2,19,3-1.2,10.2,1,20.4,0,30-.5,4.7-3,8.6-3,13,0,10.2,4.8,19.8,6,30,1.9,15.3-2.3,30.7-3,47-.2,4.4,1.8,8.4,2,13,.6,17.7-2.8,36.9-2,56,2.4,56.7,1,112.1,0,167-.1,6.5,1.5,13.5-6,17-1.2-46.6.7-98.3,1-146,.4-68.8.3-143.8-2-222-62.9,1.3-143.8-2.6-212,2-22.3-3.7-49.3-2.8-78-3,6,81.8,2.5,154.1,4,229,5.5-68.6,3.2-158.9-1-226,92.4,4,191.6-.3,285,1-2.8,45.8,3.3,93.8,3,129,0,4.6-.8,10.6-4,14,2,28.9,2.1,60.7,1,90-2.4,62.4,1.2,133.3-1,193-.7,17.8-1.2,34.7-2,50-41.8-1-81.6,2-122,0-29.6-1.5-60.3-4.3-90-3-21.8,1-41.9,1.1-67-1-2.1-10.1,2.4-25.1-2-34-2.6,9.2-1,26.8-1,37,32.8,6.3,66-.6,99,1,47.8,2.3,95.6,5.8,142,4,13.5-.5,29.2.2,44,2,1.3-34.8,1.7-55.2,1-89,12.7,17.3,6.7,63.4,7,91ZM293.7,34.8c-2,2.3-8.3.4-12,1,2.6-3.5,8.4-1.7,12-1ZM316.7,530.8c.9-23.8-2.7-46.3,0-70,1.6-.3,1.7,1,3,1-3,25,9.7,52.2-3,69ZM322.7,460.8c5.6,6.2,1.8,24.8,3,38-3.2-10.5-3.1-24.3-3-38ZM324.7,519.8c.3-3.4-.8-8.1,1-10,1,2.3,4.4,10.2-1,10ZM331.7,514.8c-5.9-11.6-2.1-39.4-3-56,2.4,13,3.3,43.6,3,56ZM336.7,509.8c-3.8-7.9-2.2-21.1-3-32,3.9,10.6,3.1,21.9,3,32ZM333.7,474.8v-17c3.2,4.2,2.1,21.7,0,17ZM340.7,503.8c-3.1-14.5-2.3-33.7-1-47,1.8,15.4,1.2,37.3,1,47ZM348.7,464.8c.2,12.8,4.1,31.5,0,42-5.7-4.2-3.6-13.8-4-21-.6-10.4-2.4-21.7,0-32,3.1-.8,1.9,2.8,5,2-.2,3.7-1.4,3.8,0,7,.3,3.3,3.1-3.9,4,0,1,3.4-3.1,1.6-5,2ZM355.7,448.8c-13.7,2.3-25,7-41,7-5.9-10.1-4.6-25-4-34,5.2-1.8,12.4-3.4,18-2-3.2,3.4-11.3,2-14,6-.9,8,1.6,16.5,4,24,11.7-1.6,23.1-3.6,34-6,4-14.9-.5-29.4-20-24,6.4-2.1,15.2-4.9,23-1,.8,9.7,5.7,22.5,0,30Z"/>
    </g>
  </g>
</svg>