<?xml version="1.0" encoding="UTF-8"?>
<svg id="Layer_2" data-name="Layer 2" xmlns="http://www.w3.org/2000/svg" viewBox="0 0 366.46 686.76">
  <defs>
    <style>
      .cls-1 {
        fill: #fff;
      }
    </style>
  </defs>
  <g id="Layer_1-2" data-name="Layer 1">
    <g>
      <path class="cls-1" d="M49.68,219.76c-1.81-14.63-2.51-29.14-8-42,1.41,15.26-2.62,35.96,8,42Z"/>
      <path class="cls-1" d="M51.68,472.76c-.94.84-2.14,6.38,0,7-.83-2.61,3.02-5.49,0-7Z"/>
      <path class="cls-1" d="M238.68,116.76c-3.24,6.86-16.45,8.75-14,18,4.67-4.76,17.46-11.74,14-18Z"/>
      <path class="cls-1" d="M225.68,143.76c6.78-1.55,8.18-8.49,11-14-5.91,1.91-12.83,7.62-11,14Z"/>
      <path class="cls-1" d="M244.68,154.76c7.22-21.35,5.14-47.5,23-60-1.04,11.06-6.65,19.82-8,30-1.69,12.79-.75,25.6-3,34-3.3,12.35-11.73,15.91-18,25-8.86,12.86-16.96,42.1,6,43,2.98-20.17,19.01-28.13,24-46,4.5-16.12-.5-35.08,0-53,.5-17.59,4-34.78,10-50-10.76,3.24-16.78,11.23-24,18-6.64-5.42-13.66,9.03-20,7,5.76-6.57,15.58-9.09,21-16-6.5.98.48-3.76-2-4-10.19,2.48-19.96,5.38-30,8v6c9.96-1.71,17.86-10.8,28-9-6.15,6.35-28.94,4.26-29,20,4.31.18,6.14-5.88,10-3-2.97,4.2-13.1,4.86-10,12,4.9-.77,5.4-5.93,11-6-1.48,6.6-13.45,6.65-10,15,9.66-5.67,18.1-12.56,24-22-3.66-.6-4.65,6.61-8,3,3.98-4.35,7.74-8.93,14-11-13.17,25.5-15.83,61.51-39,77,1.36,6.31,1.07,14.27,5,18,5.45-12.84,19.82-20.67,25-36Z"/>
      <path class="cls-1" d="M51.68,443.76c.15,9.16-3.92,19.4-2,27,4.24-8.59,5.01-20.94,2-27Z"/>
      <path class="cls-1" d="M223.68,79.76c4.09.38,9.01-3.6,12-1-3.28,3.14-9.24,1.53-12,3-.9,2.93-.9,3.07,0,6,14.88-5.65,38.86-5.02,45-14-8.51.66-15.77,6.74-22,2,3.34-1.66,9.85-.15,12-3-2.84-2.49-11.57.91-12-4,2.98-.4,12.9.97,11-1-15.36.18-22.83-1.1-34,0,1.17,5.02-2.55,8.72,0,12ZM245.68,76.76c-2.72,2.8-7.15,1.49-9,2,1.39-2.2,6.04-4.46,9-2ZM239.68,69.76c.8,3.8-4.73,1.27-7,2,.14-2.86,4.17-1.83,7-2Z"/>
      <path class="cls-1" d="M227.68,151.76c1.08-2.59,3.62-3.72,4-7-3.08-.75-1.22,3.45-5,2,.55,1.45-1.17,5.17,1,5Z"/>
      <path class="cls-1" d="M76.68,214.76c-1.22-9.66-5.86-23.98-13-31,4.61,10.06,3.61,25.73,13,31Z"/>
      <path class="cls-1" d="M49.68,343.76c.65,27.09-1.28,48.92,0,70-3.42,17.03-4.91,43.06-4,57,4.87-43.13,12.21-82.93,15-125-3.4-.94-7.33-1.34-11-2Z"/>
      <path class="cls-1" d="M119.68,83.76c-14.02-1.98-33.53-3.8-45-5,6.29,4.38,18.36,2.97,24,8-10.67,2.32-16.08-5.91-24-3,15.39,4.27,27.06,12.28,44,15,1.89-5.89-3.21-4.79-4-8-.17-2.84,6.54,1.21,5-3,1.67-1.99-.09-1.27,0-4ZM100.68,87.76c.22-2.06,10.63-1.55,12,3-3.3-1.15-12.25-.71-12-3Z"/>
      <path class="cls-1" d="M120.68,72.76c-10.98-5.02-32.45-4.88-47-3,14.1,1.46,35.25,5.78,47,3Z"/>
      <path class="cls-1" d="M120.68,79.76c-13.07-7.48-38.38-4.85-54-7-1.21.21-.61,1.11,0,2,18.75.28,36.29,7,54,5Z"/>
      <path class="cls-1" d="M85.68,109.76c6.35,12.32,18.84,18.5,30,26-.44-14.28-19.88-18.09-30-26Z"/>
      <path class="cls-1" d="M77.68,95.76c7.96,15.04,26.57,19.43,39,30-.83-2.83,1.41-2.59,1-5-10.87-10.8-26.06-17.27-40-25Z"/>
      <path class="cls-1" d="M73.68,194.76c2.38,4.64,3.06,16.25,8,15-2.87-4.79-3.92-11.41-8-15Z"/>
      <path class="cls-1" d="M73.68,148.76c-2.24-9.1-2.99-19.67-6-28-7.26,45.31,31.24,53.39,37,89,9.26-2.31,3.18-14.68,1-20-11.09-13.24-23.43-25.23-32-41Z"/>
      <path class="cls-1" d="M89.68,120.76c.17,2.83,1.83,4.17,2,7,9.71,3.02,15.08,15.5,24,16-5.2-11.13-17.56-15.1-26-23Z"/>
      <path class="cls-1" d="M274.68,110.76c.71-8.4,9.31-19.21,6-25-5.1,4.58-7.73,16.93-6,25Z"/>
      <path class="cls-1" d="M105.68,146.76c2.83,1.84,3.22,6.11,8,6-3.3-10.7-12.84-15.16-21-21,1.04,6.63,8.23,7.11,9,14-10.4-9.87.32,9.34,6,6-.72-1.06-5.12-3.39-2-5Z"/>
      <path class="cls-1" d="M92.68,443.76c5.25-5.41,9.38-11.96,14-18-8.43,1.58-13.15,12.18-14,18Z"/>
      <path class="cls-1" d="M250.68,473.76c-4.9-9.77-12.96-16.38-19-25,1.07,3.74-2.48,2.85-2,6,5.49,7.85,12.84,13.83,21,19Z"/>
      <path class="cls-1" d="M250.68,466.76c-.74-8.66-4.77-13.53-9-20-2.33-3.56-6.02-9-10-9,.31,11.87,11.75,20.78,19,29Z"/>
      <path class="cls-1" d="M232.68,427.76c2.42,10.24,9.47,15.86,15,23-2.21-10.46-6.53-18.8-15-23Z"/>
      <path class="cls-1" d="M259.68,495.76c-8.82-8.52-15.75-18.92-30-22,2.97,14.36,18.04,16.62,30,22Z"/>
      <path class="cls-1" d="M281.78,111.04c-.13-4.66-.48-9.1-1.1-13.28-3.26,13.43-10,26.35-8,42,4.46,1.13-.61-7.28,5-5-6.35,14.89-2.3,34.82-7,52-4,6.98-15.7,32.23-2,35,4.09-34.81,13.63-76.63,13.13-108.88-.68,2.65-.71,5.96-3.13,6.88,1.41-2.53.44-7.44,3.1-8.72Z"/>
      <path class="cls-1" d="M85.68,383.76c-3.96,8.3-11.93,11.76-18,21-13.79,20.99-7.42,51.97-13,76-.82,3.52-5.32,5.56-2,10,10.86-5.81,18.01-15.32,27-23,.87,6.28-6.47,6.67-2,11-4.41,2.26-5.77,7.56-11,9-1.32-2.5,3.95-3.13,1-4-4,3.34-9.06,5.61-11,11,3.86.19,2.69-4.64,7-4,1.09,2.54-4.68,3.88,0,4,4.12.79,1.88-4.79,6-4-.3,5.7-3.02,8.97-7,11,6.03.03,8.51-3.49,14-4,1.09,2.54-4.68,3.88,0,4,15.3-2.37,26.99-8.34,41-12,.58-3.25-.68-4.65-1-7-11.21,2.46-18.93,8.4-30,11-2.05,1.65-7.25,7.27-9,3,10.83-7.51,25.58-11.09,38-17v-10c-12.95,4.39-24.43,15.57-35,19,10.17-9.49,23.83-15.5,35-24v-9c-15.35,8.65-30.09,23.24-42,32,8.42-10.25,17.38-19.95,30-26,2.55-6.9,14.34-9.5,10-20-10.45,4.56-14.65,20.67-25,22,8.61-8.05,14.2-19.13,24-26,.41-4.41-.27-7.73-2-10-13.29,10.05-20.62,26.05-31,39,6.68-25.32,17.87-46.13,40-56-1.62-9.04-.5-20.84-5-27-16.93,25.07-37.23,46.77-45,81-1.35.31-1.91,1.42-4,1-.87,2.47.26,6.92-3,7-2.67-4.04,1.03-10.27,4-12-1.76-.24-2.28-1.72-2-4,4.42-21.18,5.77-37.29,18-52,.42-.51,2.53.47,3,0,1.9-1.9,5.63-6.94,8-10,8.75-11.26,19.75-39.9-1-48,.34,12.16-2.49,27.54-7,37ZM79.68,489.76c-.48,2.85-3.8,2.87-6,4,.61-2.72,2.75-3.92,6-4ZM85.68,467.76c-1.55,3.12-3.95,5.39-6,8-1.76-2.48,2.51-7.45,6-8Z"/>
      <path class="cls-1" d="M118.68,500.76c.65-3.65-.67-5.33-2-7-12.12.77-19.52,6.79-29,9-10.69,2.49-22.9.11-29,8,18.91-.56,31.64-9,48-7-9.02,3.65-21.44,3.9-30,8,7.13,2.34,18.8-3.53,27,0-8.24,1.65-25.32,5.43-33-1-1.55,3.55,3.4.6,3,3-2.99,2.01-9.43.57-14,1,13.63,6.98,41.73,1.22,60-1-3.66-4.06-11.09,1.8-14-3,3.24-2.43,11.72.38,13-4v-2c-.02-2.98-7.41,1.41-6-3,.12-2.21,4.24-.42,6-1Z"/>
      <path class="cls-1" d="M63.68,85.76c18.86,8.48,35.83,18.84,53,29,1.24-3.09,1.56-7.11,2-11-18.43-7.91-37.82-14.85-57-22-.73,2.73,1.99,2.01,2,4Z"/>
      <path class="cls-1" d="M259.68,430.76c1.47,4.77-1.18,9.5,4,13,1.77-32.1-20.01-40.65-21-70-1.28-.05-1.38-1.28-3-1-.05,1.28-1.28,1.38-1,3-6.12,22.11,14.98,35.45,21,55Z"/>
      <path class="cls-1" d="M230.68,462.76c-.73,11.47,15.23,14.72,23,21-4.59-10.07-14.45-14.89-23-21Z"/>
      <path class="cls-1" d="M261.68,361.76c-.1,4.1-.16,8.16,2,10,1.83-2.56-.94-7.21-2-10Z"/>
      <path class="cls-1" d="M256.68,353.76c-13.27,4.29-13.07,19.25-9,33,3.54,11.96,15.17,23.34,18,37,4.73,22.84,1.15,40.45,5,59-8.86-19.29-10.05-40.37-18-57-5.87-12.27-17.04-21.8-17-39-6.88,5.12-6.73,17.27-8,28,11.37,9.43,22.79,22.2,26,40,2.83,15.69.65,32.94,13,43,7.08.58,8.82,6.51,17,6-1.05-10.55-5.22-19.3-6-30-1.06-14.44,1.51-29.33,1-43-1.1-29.78-23.09-47.07-22-77Z"/>
      <path class="cls-1" d="M259.68,115.76c-.11-1.22-.3-2.37-2-2-6.82,15.49-3.94,26.59-10,44-6.44,18.5-37.31,34.52-22,49,1.75-21.05,23.34-31.29,28-51,2.8-11.86.29-27.14,6-40Z"/>
      <path class="cls-1" d="M259.68,203.76c-1.71,3.29-5.78,4.22-5,10,1.91.43,1.81,2.86,5,2-1.86-4.98,4.55-10.83,0-12Z"/>
      <path class="cls-1" d="M230.68,490.76c7.35,5.65,20.69,5.31,26,13-10.25-1.75-16.67-7.32-27-9v6c6.37,4.3,17.68,3.65,24,8-6.86,1.84-15.73-2.92-23-4v5c5.74.93,12.06,1.27,17,3-3.69,3.41-15.16-3.8-18,2,8.38,2.46,23.06,2.78,29,2,12.12-1.59-5.39.05-6-3,.44-2.89,7.56.89,8-2-3.83-2.32,3.76-1.46,3-4-1.42-1.7-6.55-2.34-4-5,3.29,1.08,8.78,5.18,12,3-12.59-7.74-27.06-13.6-41-20v5Z"/>
      <path class="cls-1" d="M267.68,353.76c-4.3,15.91,1.75,38.05,10,48-1.2-21.31-2.57-36.01-10-48Z"/>
      <path class="cls-1" d="M283.68,481.76c.15-9.41,2.03-28.51-3-36,1.21,11.79-2.85,28.85,3,36Z"/>
      <path class="cls-1" d="M289.68,351.76c-2.4-.6-4.56-1.44-8-1,6.38,37.59,2.49,91.7,10,128-1.42-37.15-2.52-83.59-2-127Z"/>
      <path class="cls-1" d="M282.68,418.76c-.72,2.17,1.02,6.36,1,2,1.4-26.07-3.21-46.12-6-68h-3c-.05,1.28-1.28,1.38-1,3,5.6,18.15,7.28,47.19,9,63Z"/>
      <path class="cls-1" d="M331.68,34.76c-2.32,6.71-6.45,31.3,0,40,.65-13.46,5.42-28.65,0-40Z"/>
      <path class="cls-1" d="M319.68,461.76c-1.28-.05-1.38-1.28-3-1-2.72,23.72.9,46.24,0,70,12.67-16.85-.03-44.03,3-69Z"/>
      <path class="cls-1" d="M322.68,84.76c-.26,10.26,1.67,18.33,4,26,8.58-1.09,18.25-1.08,23-6,.21-7.88-2.62-12.71-4-19-9.05-.59-13.92-2.64-23-1Z"/>
      <path class="cls-1" d="M305.68,447.76c.66,33.77.34,54.22-1,89-14.78-1.79-30.46-2.54-44-2-46.42,1.85-94.25-1.71-142-4-32.96-1.58-66.2,5.32-99-1-.02-10.21-1.59-27.79,1-37,4.44,8.88-.11,23.9,2,34,25.08,2.06,45.23,1.96,67,1,29.66-1.3,60.43,1.53,90,3,40.35,2.01,80.2-.99,122,0,.76-15.26,1.34-32.19,2-50,2.21-59.69-1.42-130.57,1-193,1.14-29.29,1.03-61.1-1-90,3.25-3.37,3.96-9.43,4-14,.32-35.22-5.84-83.17-3-129-93.38-1.31-192.56,3.04-285-1,4.16,67.1,6.52,157.35,1,226-1.46-74.85,2.01-147.18-4-229,28.65.24,55.71-.69,78,3,68.19-4.63,149.05-.65,212-2,2.3,78.25,2.41,153.19,2,222-.28,47.71-2.25,99.44-1,146,7.47-3.55,5.88-10.55,6-17,1-54.88,2.39-110.28,0-167-.8-19.06,2.61-38.33,2-56-.16-4.62-2.2-8.56-2-13,.74-16.29,4.86-31.69,3-47-1.24-10.19-5.96-19.83-6-30-.02-4.42,2.49-8.34,3-13,1.05-9.59-1.16-19.8,0-30-5.53-1.8-13.92-.75-19-3,5.65-3.64,15.52-.82,21,1,2.64,12.41-3.29,22.75,3,31,5.5-10.31-.77-24.67,2-37-24.77-.71-51.47.61-70-3h24c-3.32-6.01-19.59.92-22-6,25.35,2.25,54.06,4.76,76,1-24.97-3.2-40.21.39-64-4,11.94-1.31,31.32-.17,48,0,9.07.09,19.04,2.98,24-2-3.43-3.47-10.89,1.02-14-4,6.34.66,15.32-1.32,20,1,1.08,8.22.22,18.66,0,29-.19,8.83-2.66,19.96,3,23,3.25-21.38-.67-42.11,3-55-38.37-8.96-86.53-.72-128-4-55.93-4.42-110.24-2.18-166-2-15.83.05-44.17-2.95-44,14,.14,13.69,22.85,16.47,35,18,47.39,5.96,118.1-6.19,161,0-19.51,1.86-42.47,3.23-66,3-33.34-.32-71.7,3.95-102,0-4.54-.59-11.03-1.67-15-3-4.29-1.44-10.34-8.92-13-7-1.72,33.89.25,68.9,2,104,2.26,45.28-2.42,86.94-2,125,1,89.88-.63,175.33,2,267,48.46,7.85,105.25-.38,150,3,31.26,2.36,67.04,2.54,98,6,12.53-5.5,34.27-1.14,52-4-.34-27.58,5.66-73.67-7-91ZM32.68,63.76c32.75,1.65,55.8.57,89,3,1.64,19.83.71,55.84-3,78-1.48,8.81-5.71,17.43,6,20,8.74-31.18,10.06-69.57,12-98,28.16-1.56,54.22-1.59,75-5-1.29,40.5,1.85,64.66,3,102,16.53-3.2,3.74-33.08,4-52,.25-18.18,1.94-33.26,3-47,19.66-4.27,46.8,2.78,71,1,.2,44.29,4,87.36,1,128-6.15-7.77-2.03-19.72-2-29,.06-20.23.65-41.46-1-62-3.29,20.98-4.33,33.52-4,59-6.14-11.37.29-30.51,0-46-5.46,13.41-4.37,29.55-6,45-2.12,20.16-6.45,40.73-9,63,1.33,1.67,5.67.33,7,2,2.21-7.98,3.37-17.73,4-27,.75-11.05-2.78-24.32,4-33-.05,16.13-4.98,34.06-3,54,.31,3.14-1.69,9.71,4,8,3.82-7.85,2.21-21.12,3-32,7.78,8.82.75,24.11,2,36-18.33,0-30.42-6.25-40-15-3.69,1.64-4.15,6.51-4,12,12.52,8.61,32.22,7.79,47,12-2.92,31.04-2.32,65.57-4,100-11.8,3.84-26.91.28-32,12,8.16-.85,19.7-6.96,33-6-.49,69.45,1.88,116.37,3,175-6.49-4.83-14.1-1.54-21-3-2.18-2.09.5-2.85,0-6h-8c-2.42,2.16,5.76,2.18,6,5-11.85,5.71-32.8.97-46,3,.4-18.69-1.96-48.56,2-67-5.74-8.12,5.09-23.57,0-33-5.3.23-4.2,7.85-5,12-5.09,26.49-2.52,65.74-6,88-29.17-4.57-59.88,1.29-87-2,2.02-2.96-1.89-6.57,0-9,4.77-1.1,1.38,5.96,5,6,30.35-.69,52.35,1.13,80-1,.34-16.32,1-39.83,2-64,.39-9.48,4.4-19.57,5-28,.11-1.47-2.2-3.66-2-5,.25-1.71,2.62-3.18,3-5,7.13-34.31,17.99-62.49,49-74h13c5.72-6.75,3.04-16.52,3-26-.09-21.62,2.4-46.69,4-68-25.4-4.26-50.03-9.31-66-23-4.82-11.78-13.18-23.77-15-40-1.25-11.18.65-23.92,0-35-.34-5.74-2.57-10.32-3-15-1.5-16.48,1.34-47.42,0-65-19.66,1.11-48,.99-70,5,.56,19.81-1.8,44.51-5,70-4.88,38.86-19.52,75.62-46,90-12.74,6.92-24.5,3.32-37,8-4.8.94-8.38-2.89-11-1-3.89,27.77-2.47,57.6-2,88,26.72,7.21,55.45,5.76,68,25,1.6,2.46,1.36,6.42,3,10,3.81,8.34,11.02,17.56,13,26,2.67,11.36,1.66,23.09,3,38,2.37,26.42,7.35,53.36,7,78-5.58-1.43-.38-10.97-4-14-1.92-26.97-3.67-48.23-7-73-4.98-1.31-4.25,3.08-8,3,8.31,27.77,7.42,71.12,10,100-30.62.89-50.66,2.26-86-1,.06-56.5,2.1-123.14-2-180,19.3-1.98,41.4,7,54,18,.6-5.26-.74-8.59-1-13-15.37-5.45-33.34-13.13-53-11-2.8-29.51-.38-68.79,0-99,17.31.9,41.85,2.38,51-8-.74-3.6-2.74-5.93-3-10-14.24,4.64-32.46,12.29-49,6,.57-35.45-.42-68.97-2-105-.79-17.89-5.33-36.69,1-53ZM43.68,247.76c93.13,2.36,95.65-90.87,102-172,17.37-5.13,35.71-3.11,57-4-.6,62.85-10.22,139.91,34,168,14.77,5.57,31.71,8.95,50,11-1.49,27.25-5.94,55.38-3,79-72.76,11.42-77.75,108.65-75,180-20.97.47-44.83-5.69-66-3,.82-8.58-2.7-15.32,0-24,4.42,3.24,2.5,12.83,3,20,17.14-4.35,40.08,4.72,58,1,3.03-80.48,7.16-160.33,76-178,.7-25.64,1.83-43.87,4-72-51.53-.21-78.38-28.86-83-79-2.78-30.19-.81-66.21,0-98-14.65-2.4-37.81-2.08-53,4-3.93,82.43-11,170.31-100,171-1.35,20.7-2.39,46.44-2,63,17.69,1.17,32.18,3.52,47,12,15.75,9.01,26.57,16.75,35,35,9.27,20.09,8.24,42.66,12,68,2.52,16.96,5.47,32.45,4,50-5.59-4.54-2.63-12.06-3-18-.92-14.9-5.15-31.49-7-46-2.63-20.58-3.22-39.15-12-56-12.58-24.14-39.79-42.11-79-40-.56-26.22,1.22-49.88,1-72ZM321.68,20.76c-2.46,3.92-12.02-1.9-17,1,2.94-5.19,11.4.3,17-1ZM256.68,20.76c13.83,1.55,34.38-4.71,47-1-11.44,2.24-36.54,3.45-52,1,1.81-5.11,2.84-.24,5,0ZM208.68,43.76c8.96,1.45,21.4.4,26,1-4.4,2.12-21.27,6.16-26-1ZM239.68,30.76c-1.85,3.51-13.63,2.34-17,1,3.51-3.6,11.83-1.63,17-1ZM222.68,24.76c6.19-1.47,17.23-2.39,19,2-6.34-.66-15.7,1.7-19-2ZM235.68,37.76c.52-3.63,12.57-2.97,12,1-1.92-2.23-9.22,2.26-12-1ZM293.68,43.76c-6.45,2.45-12-.21-19,1,1.75-5.52,15.45-2.98,19-1ZM273.68,44.76c-11.42.22-17.58,1.3-26,0,3.44-2.19,20.15-2.98,26,0ZM249.68,29.76c-.51,3.53-7.42,4.62-8,0h8ZM182.68,17.76c18.71-.33,39.17-1.99,59,1-30.26,1.74-60,1.11-90,2,8.76-5.03,20.13-2.81,31-3ZM140.68,24.76c16.77-.76,40.76-3.14,50,0-16.25-.38-36.03,4.77-50,0ZM181.68,29.76c-4.44,4.84-16.35,1.52-28,3,5.89-6.46,18.42-1.7,28-3ZM151.68,32.76c-9.4-1.27-23.92,2.58-30-2,9.34,1.14,23.87-3.37,30,2ZM132.68,25.76v-2h7v2h-7ZM221.68,31.76c-14.03,2.9-26.24-1.81-37-1,9.81-1.13,28.81-2.81,37,1ZM199.68,22.76c6.78.88,15.04.29,21,2-3.16,3.26-17.68,1.19-21-2ZM149.68,20.76h-18c1.37-3.74,17.04-5.39,18,0ZM128.68,17.76c-5.6,5.18-16.42,3.41-24,3-11.11-.61-24.6-1.56-36-4,15.51-1.79,35.38,1.85,60,1ZM67.68,18.76c-4.87-.46-11.71,1.05-15-1,3.82-2.27,13.82-3.77,15,1ZM73.68,39.76c-11.01-.06-25.49.17-35-1-9.88-1.22-25.78-5.56-23-15,3.29-11.17,27.79-6.96,36-7-8.1,3.73-19.85.83-31,5,34.12,3.47,68.69,1.16,111,2-7.4,5.3-18.27,3-28,3-31.7,0-56.83-1.56-84,0,1.66,5.38,12.31,3,19,3,27.75,0,56.13-1.33,81,3-23.47,1.76-54.34-1.1-85,0,23.83,6.61,57.31,1.49,92,3,30.32,1.32,64.24-1.53,106,0-4.27,6.4-13.08,2.18-20,2-38.61-1.01-95.71,2.25-139,2ZM18.68,461.76c-2.47-61.95-2.65-109.94,1-180,1.62-.28,1.72.95,3,1-6.3,73.16.38,145.03-2,205-4.21-8.38-1.67-17.82-2-26Z"/>
      <path class="cls-1" d="M281.68,35.76c3.7-.64,9.96,1.29,12-1-3.59-.69-9.38-2.47-12,1Z"/>
      <path class="cls-1" d="M316.68,79.76c-4.09,10.42-1.14,32.62,6,41,9.54-4.62,20.7-2.09,33-7-.55-11.78,1.17-25.84-1-36-10.01.39-28.18-1.6-38,2ZM352.68,106.76c-7.46,5.81-18.95,8.45-29,6-1.96-8.47-5.81-20.06-3-30,8-4.34,20.96-.78,29,1,.14,8.52,4.52,12.81,3,23Z"/>
      <path class="cls-1" d="M321.68,445.76c8.34-2.66,18.3-3.7,28-5,1.43-5.19.4-14.52-3-18-11.6,1.03-18.12,1.11-27,5,.6,6.07-1.61,14.95,2,18Z"/>
      <path class="cls-1" d="M330.68,414.76c2.73-21.69,1.43-58.36,0-82-1.92,24.13-4.26,58.34,0,82Z"/>
      <path class="cls-1" d="M348.68,221.76c.49-36.51.79-66.24-1-102h-3c.04,1.38-.47,2.2-1,3,3.34,85.29-4.43,199.29,0,291,9.44-4.26,3.38-16.31,3-24-1.37-27.38,1.73-59.7,3-82-2.84-28.93-1.39-57.26-1-86Z"/>
      <path class="cls-1" d="M326.68,161.76c-3.4,37.48.96,92.51-1,137-.23,5.17-2.14,11.03-2,16,.22,7.79,1.56,19.75,4,24-1.17-58.63,5.59-117.42-1-177Z"/>
      <path class="cls-1" d="M340.68,253.76c-2.82-.19-2.51,3.94-4,0-2.35-11.02-1.07-29.75-3-44-4.2,23.98-.07,63.28-2,94-.69,11.07-3.68,20.75,1,28-.48-15.22.55-28.45,1-42,.33-9.93-.43-19.93,4-28-.78,52.35-4.66,97.59-2,152,6.89-8.65,2.1-23.36,2-35-.34-40.48,4.24-73.61,3-125Z"/>
      <path class="cls-1" d="M332.68,419.76c19.51-5.36,23.98,9.14,20,24-10.93,2.4-22.28,4.39-34,6-2.4-7.54-4.85-15.96-4-24,2.68-3.99,10.77-2.56,14-6-5.57-1.43-12.81.17-18,2-.65,8.95-1.92,23.93,4,34,15.98-.02,27.29-4.71,41-7,5.74-7.45.81-20.31,0-30-7.77-3.94-16.59-1.1-23,1Z"/>
      <path class="cls-1" d="M349.68,462.76c-1.37-3.16-.22-3.34,0-7-3.08.75-1.92-2.75-5-2-2.4,10.28-.59,21.56,0,32,.41,7.19-1.73,16.76,4,21,4.09-10.5.21-29.25,0-42,1.89-.44,6.03,1.36,5-2-.91-3.9-3.68,3.31-4,0Z"/>
      <path class="cls-1" d="M340.68,503.76c.22-9.67.83-31.56-1-47-1.32,13.32-2.13,32.49,1,47Z"/>
      <path class="cls-1" d="M52.68,148.76c3.86,33.13,36.37,44.43,35,76,7.48-3.68,14.72-6.55,13-17-3.12-18.92-17.1-26.84-27-41-8.87-12.69-8.81-29.53-10-46-.78-10.77-5.86-19.04-8-31,14.74,11.6,16.87,35.8,21,58,10.3,18.36,27.4,29.93,37,49,3.81-7.8,11.87-16.57,10-25-2.22-9.99-19.06-13.06-26-19-3.04-5.29-5.52-11.15-9-16-3.53-29.47-17.57-48.43-43-56,12.74,23.1,4.2,43.95,7,68Z"/>
      <path class="cls-1" d="M331.68,514.76c.28-12.4-.64-42.98-3-56,.9,16.56-2.93,44.39,3,56Z"/>
      <path class="cls-1" d="M324.68,519.76c5.44.16,2-7.71,1-10-1.77,1.89-.73,6.6-1,10Z"/>
      <path class="cls-1" d="M322.68,460.76c-.07,13.74-.21,27.54,3,38-1.2-13.22,2.59-31.82-3-38Z"/>
      <path class="cls-1" d="M336.68,509.76c.1-10.12.91-21.4-3-32,.79,10.88-.82,24.15,3,32Z"/>
      <path class="cls-1" d="M333.68,457.76v17c2.09,4.7,3.19-12.84,0-17Z"/>
      <path class="cls-1" d="M41.68,218.76c-.52-7.31-1.61-24.05-4-30,1.41,9.59-5.78,30.44,4,30Z"/>
      <path class="cls-1" d="M50.68,202.76c.81,8.62-1.3,17.04,7,17-3.63-22.06-10.99-48.99-17-72,1,4.33-1.12,5.55-2,8,5.46,10.52,10.51,31.12,12,47Z"/>
      <path class="cls-1" d="M45.68,341.76c-3.36.31-8.67-1.34-8,3,3.04,43.19,4.46,91.93,2,129,3.65-5.08,3.48-12.49,4-19,2.5-31.53,4.42-75.18,2-113Z"/>
      <path class="cls-1" d="M73.68,351.76c-2.16-2.18-4.8-3.86-9-4-3.16,31.33-10.88,64.78-11,93,5.65-30.68,14.66-58,20-89Z"/>
      <path class="cls-1" d="M70.68,214.76c-9.65-27.96-19.77-59.85-27-87,2.13,30.3,16.76,60.84,22,88,1.45-.55,5.17,1.17,5-1Z"/>
      <path class="cls-1" d="M49.68,131.76c.9-6.57-2.68-8.66-4-13,.98,4.69.13,11.2,4,13Z"/>
      <path class="cls-1" d="M43.68,102.76c1.75,5.59,2.71,11.96,6,16,.25-7.58-2.96-11.7-6-16Z"/>
      <path class="cls-1" d="M52.68,182.76c3.7,11.63,2.93,27.74,11,35-2.25-9.28-5.06-26.13-11-35Z"/>
      <path class="cls-1" d="M67.68,402.76c3.44-15.98,15.47-28.41,15-45-2.5-.84-2.1-4.56-6-4-2.45,15.64-11.4,35.14-9,49Z"/>
      <path class="cls-1" d="M77.68,388.76c3.44-6.9,10.01-15.98,8-25-1.05,9.29-9.07,16.92-8,25Z"/>
      <path class="cls-1" d="M322.68,124.76c-.22-.78-.84-1.16-2-1-5.61,36.53-2.15,83.84-2,126,.03,7.59-2.44,14.72-2,22,.4,6.61,2.32,13.42,2,18-1.77,25.67-2.33,62.98-2,94,.13,12.79-1.18,25.71,3,32,5.78-29.79.68-68.85,1-102,.6-62.29,3.25-132.89,2-189Z"/>
      <path class="cls-1" d="M339.68,121.76c-1.51,3.02-4.39-.83-7,0-2.94,24.05-3.66,53.64,2,76,.67-20.2-2.4-41.42,0-57,2.1,20.95,3.41,43.7,3,66-.26,14.08-2.25,29.46,3,42-.82-43.24,3.04-92.24-1-127ZM335.68,139.76c-1.81-3.19-1.45-12.75,0-16,4.67,2.42.34,12.04,0,16Z"/>
      <path class="cls-1" d="M325.68,38.76c-4.17,7.29-2.96,24.56,0,35,2.82-9.84-1.25-23.1,3-33-1.43-.24-1.69-1.65-3-2Z"/>
      <path class="cls-1" d="M326.68,137.76c-1.45,7.68-.03,14.63-1,21,5.76-3.25,2.64-18.09,1-21Z"/>
      <path class="cls-1" d="M328.68,124.76c-1.28-.05-1.38-1.28-3-1,1.18,7.92,1.83,10.91,3,1Z"/>
      <path class="cls-1" d="M88.68,539.76c-20.61,1.22-40.66-2.36-57,2-.79,2.87-2.02,5.31-3,8,4.91,9.4,1.61,26.86,0,41,2.24,24.74,2.81,48.81,2,69-.27,6.64-2.59,10.31,1,15,9.43-4.24,19.16-8.18,30-11,8.2,3.55,19.56,9,28,9,4.83-41.45-3.14-79.71-1-133Z"/>
      <path class="cls-1" d="M93.68,539.76c-5.21,27.42.05,64.29-1,86,5.6,3.2,14.37,8.12,20,8-1.86-31.46.08-64.6-5-93-2.99-2.01-9.43-.57-14-1Z"/>
      <path class="cls-1" d="M69.68,455.76c5.59-30.5,28.82-50.87,43-76-.9-3.76-2.15-7.18-4-10-7.67,33.33-42,45.34-39,86Z"/>
      <path class="cls-1" d="M338.68,74.76c1.31-14.61,3.85-32.02,0-48-1.07.93-.31,3.69-3,3-.45,7.01,1.63,12.76,1,19-.93,9.27-5.69,21.45,2,26Z"/>
      <path d="M232.68,35.76c-41.76-1.53-75.68,1.32-106,0-34.69-1.51-68.17,3.61-92-3,30.66-1.1,61.53,1.76,85,0-24.87-4.33-53.25-3-81-3-6.69,0-17.34,2.38-19-3,27.17-1.56,52.3,0,84,0,9.73,0,20.6,2.3,28-3-42.31-.84-76.88,1.47-111-2,11.15-4.17,22.9-1.27,31-5-8.21.04-32.71-4.17-36,7-2.78,9.44,13.12,13.78,23,15,9.51,1.17,23.99.94,35,1,43.29.25,100.39-3.01,139-2,6.92.18,15.73,4.4,20-2Z"/>
      <path d="M67.68,18.76c-1.18-4.77-11.18-3.27-15-1,3.29,2.05,10.13.54,15,1Z"/>
      <path d="M128.68,17.76c-24.62.85-44.49-2.79-60-1,11.4,2.44,24.89,3.39,36,4,7.58.41,18.4,2.18,24-3Z"/>
      <path d="M182.68,17.76c-10.87.19-22.24-2.03-31,3,30-.89,59.74-.26,90-2-19.83-2.99-40.29-1.33-59-1Z"/>
      <path d="M131.68,20.76h18c-.96-5.39-16.63-3.74-18,0Z"/>
      <path d="M303.68,19.76c-12.62-3.71-33.17,2.55-47,1-2.16-.24-3.19-5.11-5,0,15.46,2.45,40.56,1.24,52-1Z"/>
      <path d="M321.68,20.76c-5.6,1.3-14.06-4.19-17,1,4.98-2.9,14.54,2.92,17-1Z"/>
      <path d="M190.68,24.76c-9.24-3.14-33.23-.76-50,0,13.97,4.77,33.75-.38,50,0Z"/>
      <path d="M220.68,24.76c-5.96-1.71-14.22-1.12-21-2,3.32,3.19,17.84,5.26,21,2Z"/>
      <path d="M132.68,23.76v2h7v-2h-7Z"/>
      <path d="M241.68,26.76c-1.77-4.39-12.81-3.47-19-2,3.3,3.7,12.66,1.34,19,2Z"/>
      <path d="M153.68,32.76c11.65-1.48,23.56,1.84,28-3-9.58,1.3-22.11-3.46-28,3Z"/>
      <path d="M121.68,30.76c6.08,4.58,20.6.73,30,2-6.13-5.37-20.66-.86-30-2Z"/>
      <path d="M221.68,31.76c-8.19-3.81-27.19-2.13-37-1,10.76-.81,22.97,3.9,37,1Z"/>
      <path d="M239.68,30.76c-5.17-.63-13.49-2.6-17,1,3.37,1.34,15.15,2.51,17-1Z"/>
      <path d="M249.68,29.76h-8c.58,4.62,7.49,3.53,8,0Z"/>
      <path d="M235.68,37.76c2.78,3.26,10.08-1.23,12,1,.57-3.97-11.48-4.63-12-1Z"/>
      <path d="M293.68,43.76c-3.55-1.98-17.25-4.52-19,1,7-1.21,12.55,1.45,19-1Z"/>
      <path d="M273.68,44.76c-5.85-2.98-22.56-2.19-26,0,8.42,1.3,14.58.22,26,0Z"/>
      <path d="M208.68,43.76c4.73,7.16,21.6,3.12,26,1-4.6-.6-17.04.45-26-1Z"/>
      <path d="M239.68,69.76c-2.83.17-6.86-.86-7,2,2.27-.73,7.8,1.8,7-2Z"/>
      <path d="M42.68,319.76c39.21-2.11,66.42,15.86,79,40,8.78,16.85,9.37,35.42,12,56,1.85,14.51,6.08,31.1,7,46,.37,5.94-2.59,13.46,3,18,1.47-17.55-1.48-33.04-4-50-3.76-25.34-2.73-47.91-12-68-8.43-18.25-19.25-25.99-35-35-14.82-8.48-29.31-10.83-47-12-.39-16.56.65-42.3,2-63,89-.69,96.07-88.57,100-171,15.19-6.08,38.35-6.4,53-4-.81,31.79-2.78,67.81,0,98,4.62,50.14,31.47,78.79,83,79-2.17,28.13-3.3,46.36-4,72-68.84,17.67-72.97,97.52-76,178-17.92,3.72-40.86-5.35-58-1-.5-7.17,1.42-16.76-3-20-2.7,8.68.82,15.42,0,24,21.17-2.69,45.03,3.47,66,3-2.75-71.35,2.24-168.58,75-180-2.94-23.62,1.51-51.75,3-79-18.29-2.05-35.23-5.43-50-11-44.22-28.09-34.6-105.15-34-168-21.29.89-39.63-1.13-57,4-6.35,81.13-8.87,174.36-102,172,.22,22.12-1.56,45.78-1,72Z"/>
      <path d="M320.68,82.76c-2.81,9.94,1.04,21.53,3,30,10.05,2.45,21.54-.19,29-6,1.52-10.19-2.86-14.48-3-23-8.04-1.78-21-5.34-29-1ZM349.68,104.76c-4.75,4.92-14.42,4.91-23,6-2.33-7.67-4.26-15.74-4-26,9.08-1.64,13.95.41,23,1,1.38,6.29,4.21,11.12,4,19Z"/>
      <path d="M100.68,87.76c-.25,2.29,8.7,1.85,12,3-1.37-4.55-11.78-5.06-12-3Z"/>
      <path d="M335.68,123.76c-1.45,3.25-1.81,12.81,0,16,.34-3.96,4.67-13.58,0-16Z"/>
      <path d="M20.68,487.76c2.38-59.97-4.3-131.84,2-205-1.28-.05-1.38-1.28-3-1-3.65,70.06-3.47,118.05-1,180,.33,8.18-2.21,17.62,2,26Z"/>
      <path d="M79.68,489.76c-3.25.08-5.39,1.28-6,4,2.2-1.13,5.52-1.15,6-4Z"/>
      <path d="M236.68,78.76c1.85-.51,6.28.8,9-2-2.96-2.46-7.61-.2-9,2Z"/>
      <path d="M33.68,221.76c16.54,6.29,34.76-1.36,49-6,.26,4.07,2.26,6.4,3,10-9.15,10.38-33.69,8.9-51,8-.38,30.21-2.8,69.49,0,99,19.66-2.13,37.63,5.55,53,11,.26,4.41,1.6,7.74,1,13-12.6-11-34.7-19.98-54-18,4.1,56.86,2.06,123.5,2,180,35.34,3.26,55.38,1.89,86,1-2.58-28.88-1.69-72.23-10-100,3.75.08,3.02-4.31,8-3,3.33,24.77,5.08,46.03,7,73,3.62,3.03-1.58,12.57,4,14,.35-24.64-4.63-51.58-7-78-1.34-14.91-.33-26.64-3-38-1.98-8.44-9.19-17.66-13-26-1.64-3.58-1.4-7.54-3-10-12.55-19.24-41.28-17.79-68-25-.47-30.4-1.89-60.23,2-88,2.62-1.89,6.2,1.94,11,1,12.5-4.68,24.26-1.08,37-8,26.48-14.38,41.12-51.14,46-90,3.2-25.49,5.56-50.19,5-70,22-4.01,50.34-3.89,70-5,1.34,17.58-1.5,48.52,0,65,.43,4.68,2.66,9.26,3,15,.65,11.08-1.25,23.82,0,35,1.82,16.23,10.18,28.22,15,40,15.97,13.69,40.6,18.74,66,23-1.6,21.31-4.09,46.38-4,68,.04,9.48,2.72,19.25-3,26h-13c-31.01,11.51-41.87,39.69-49,74-.38,1.82-2.75,3.29-3,5-.2,1.34,2.11,3.53,2,5-.6,8.43-4.61,18.52-5,28-1,24.17-1.66,47.68-2,64-27.65,2.13-49.65.31-80,1-3.62-.04-.23-7.1-5-6-1.89,2.43,2.02,6.04,0,9,27.12,3.29,57.83-2.57,87,2,3.48-22.26.91-61.51,6-88,.8-4.15-.3-11.77,5-12,5.09,9.43-5.74,24.88,0,33-3.96,18.44-1.6,48.31-2,67,13.2-2.03,34.15,2.71,46-3-.24-2.82-8.42-2.84-6-5h8c.5,3.15-2.18,3.91,0,6,6.9,1.46,14.51-1.83,21,3-1.12-58.63-3.49-105.55-3-175-13.3-.96-24.84,5.15-33,6,5.09-11.72,20.2-8.16,32-12,1.68-34.43,1.08-68.96,4-100-14.78-4.21-34.48-3.39-47-12-.15-5.49.31-10.36,4-12,9.58,8.75,21.67,14.99,40,15-1.25-11.89,5.78-27.18-2-36-.79,10.88.82,24.15-3,32-5.69,1.71-3.69-4.86-4-8-1.98-19.94,2.95-37.87,3-54-6.78,8.68-3.25,21.95-4,33-.63,9.27-1.79,19.02-4,27-1.33-1.67-5.67-.33-7-2,2.55-22.27,6.88-42.84,9-63,1.63-15.45.54-31.59,6-45,.29,15.49-6.14,34.63,0,46-.33-25.48.71-38.02,4-59,1.65,20.54,1.06,41.77,1,62-.03,9.28-4.15,21.23,2,29,3-40.64-.8-83.71-1-128-24.2,1.78-51.34-5.27-71-1-1.06,13.74-2.75,28.82-3,47-.26,18.92,12.53,48.8-4,52-1.15-37.34-4.29-61.5-3-102-20.78,3.41-46.84,3.44-75,5-1.94,28.43-3.26,66.82-12,98-11.71-2.57-7.48-11.19-6-20,3.71-22.16,4.64-58.17,3-78-33.2-2.43-56.25-1.35-89-3-6.33,16.31-1.79,35.11-1,53,1.58,36.03,2.57,69.55,2,105ZM77.68,388.76c-1.07-8.08,6.95-15.71,8-25,2.01,9.02-4.56,18.1-8,25ZM82.68,357.76c.47,16.59-11.56,29.02-15,45-2.4-13.86,6.55-33.36,9-49,3.9-.56,3.5,3.16,6,4ZM73.68,351.76c-5.34,31-14.35,58.32-20,89,.12-28.22,7.84-61.67,11-93,4.2.14,6.84,1.82,9,4ZM39.68,473.76c2.46-37.07,1.04-85.81-2-129-.67-4.34,4.64-2.69,8-3,2.42,37.82.5,81.47-2,113-.52,6.51-.35,13.92-4,19ZM49.68,413.76c-1.28-21.08.65-42.91,0-70,3.67.66,7.6,1.06,11,2-2.79,42.07-10.13,81.87-15,125-.91-13.94.58-39.97,4-57ZM51.68,443.76c3.01,6.06,2.24,18.41-2,27-1.92-7.6,2.15-17.84,2-27ZM51.68,472.76c3.02,1.51-.83,4.39,0,7-2.14-.62-.94-6.16,0-7ZM118.68,504.76v2c-1.28,4.38-9.76,1.57-13,4,2.91,4.8,10.34-1.06,14,3-18.27,2.22-46.37,7.98-60,1,4.57-.43,11.01,1.01,14-1,.4-2.4-4.55.55-3-3,7.68,6.43,24.76,2.65,33,1-8.2-3.53-19.87,2.34-27,0,8.56-4.1,20.98-4.35,30-8-16.36-2-29.09,6.44-48,7,6.1-7.89,18.31-5.51,29-8,9.48-2.21,16.88-8.23,29-9,1.33,1.67,2.65,3.35,2,7-1.76.58-5.88-1.21-6,1-1.41,4.41,5.98.02,6,3ZM108.68,369.76c1.85,2.82,3.1,6.24,4,10-14.18,25.13-37.41,45.5-43,76-3-40.66,31.33-52.67,39-86ZM93.68,394.76c-2.37,3.06-6.1,8.1-8,10-.47.47-2.58-.51-3,0-12.23,14.71-13.58,30.82-18,52-.28,2.28.24,3.76,2,4-2.97,1.73-6.67,7.96-4,12,3.26-.08,2.13-4.53,3-7,2.09.42,2.65-.69,4-1,7.77-34.23,28.07-55.93,45-81,4.5,6.16,3.38,17.96,5,27-22.13,9.87-33.32,30.68-40,56,10.38-12.95,17.71-28.95,31-39,1.73,2.27,2.41,5.59,2,10-9.8,6.87-15.39,17.95-24,26,10.35-1.33,14.55-17.44,25-22,4.34,10.5-7.45,13.1-10,20-12.62,6.05-21.58,15.75-30,26,11.91-8.76,26.65-23.35,42-32v9c-11.17,8.5-24.83,14.51-35,24,10.57-3.43,22.05-14.61,35-19v10c-12.42,5.91-27.17,9.49-38,17,1.75,4.27,6.95-1.35,9-3,11.07-2.6,18.79-8.54,30-11,.32,2.35,1.58,3.75,1,7-14.01,3.66-25.7,9.63-41,12-4.68-.12,1.09-1.46,0-4-5.49.51-7.97,4.03-14,4,3.98-2.03,6.7-5.3,7-11-4.12-.79-1.88,4.79-6,4-4.68-.12,1.09-1.46,0-4-4.31-.64-3.14,4.19-7,4,1.94-5.39,7-7.66,11-11,2.95.87-2.32,1.5-1,4,5.23-1.44,6.59-6.74,11-9-4.47-4.33,2.87-4.72,2-11-8.99,7.68-16.14,17.19-27,23-3.32-4.44,1.18-6.48,2-10,5.58-24.03-.79-55.01,13-76,6.07-9.24,14.04-12.7,18-21,4.51-9.46,7.34-24.84,7-37,20.75,8.1,9.75,36.74,1,48ZM106.68,425.76c-4.62,6.04-8.75,12.59-14,18,.85-5.82,5.57-16.42,14-18ZM239.68,372.76c1.62-.28,1.72.95,3,1,.99,29.35,22.77,37.9,21,70-5.18-3.5-2.53-8.23-4-13-6.02-19.55-27.12-32.89-21-55-.28-1.62.95-1.72,1-3ZM231.68,448.76c6.04,8.62,14.1,15.23,19,25-8.16-5.17-15.51-11.15-21-19-.48-3.15,3.07-2.26,2-6ZM241.68,446.76c4.23,6.47,8.26,11.34,9,20-7.25-8.22-18.69-17.13-19-29,3.98,0,7.67,5.44,10,9ZM232.68,427.76c8.47,4.2,12.79,12.54,15,23-5.53-7.14-12.58-12.76-15-23ZM230.68,462.76c8.55,6.11,18.41,10.93,23,21-7.77-6.28-23.73-9.53-23-21ZM259.68,495.76c-11.96-5.38-27.03-7.64-30-22,14.25,3.08,21.18,13.48,30,22ZM259.68,502.76c-2.55,2.66,2.58,3.3,4,5,.76,2.54-6.83,1.68-3,4-.44,2.89-7.56-.89-8,2,.61,3.05,18.12,1.41,6,3-5.94.78-20.62.46-29-2,2.84-5.8,14.31,1.41,18-2-4.94-1.73-11.26-2.07-17-3v-5c7.27,1.08,16.14,5.84,23,4-6.32-4.35-17.63-3.7-24-8v-6c10.33,1.68,16.75,7.25,27,9-5.31-7.69-18.65-7.35-26-13v-5c13.94,6.4,28.41,12.26,41,20-3.22,2.18-8.71-1.92-12-3ZM283.68,481.76c-5.85-7.15-1.79-24.21-3-36,5.03,7.49,3.15,26.59,3,36ZM289.68,351.76c-.52,43.41.58,89.85,2,127-7.51-36.3-3.62-90.41-10-128,3.44-.44,5.6.4,8,1ZM274.68,352.76h3c2.79,21.88,7.4,41.93,6,68,.02,4.36-1.72.17-1-2-1.72-15.81-3.4-44.85-9-63-.28-1.62.95-1.72,1-3ZM267.68,353.76c7.43,11.99,8.8,26.69,10,48-8.25-9.95-14.3-32.09-10-48ZM261.68,361.76c1.06,2.79,3.83,7.44,2,10-2.16-1.84-2.1-5.9-2-10ZM278.68,430.76c.51,13.67-2.06,28.56-1,43,.78,10.7,4.95,19.45,6,30-8.18.51-9.92-5.42-17-6-12.35-10.06-10.17-27.31-13-43-3.21-17.8-14.63-30.57-26-40,1.27-10.73,1.12-22.88,8-28-.04,17.2,11.13,26.73,17,39,7.95,16.63,9.14,37.71,18,57-3.85-18.55-.27-36.16-5-59-2.83-13.66-14.46-25.04-18-37-4.07-13.75-4.27-28.71,9-33-1.09,29.93,20.9,47.22,22,77ZM225.68,206.76c-15.31-14.48,15.56-30.5,22-49,6.06-17.41,3.18-28.51,10-44,1.7-.37,1.89.78,2,2-5.71,12.86-3.2,28.14-6,40-4.66,19.71-26.25,29.95-28,51ZM259.68,215.76c-3.19.86-3.09-1.57-5-2-.78-5.78,3.29-6.71,5-10,4.55,1.17-1.86,7.02,0,12ZM281.81,112.88c.5,32.24-9.04,74.07-13.13,108.88-13.7-2.77-2-28.02,2-35,4.7-17.18.65-37.11,7-52-5.61-2.28-.54,6.13-5,5-2-15.65,4.74-28.57,8-42,.62,4.18.97,8.63,1.1,13.28-2.66,1.28-1.69,6.19-3.1,8.72,2.42-.92,2.44-4.23,3.13-6.88ZM274.68,110.76c-1.73-8.07.9-20.42,6-25,3.31,5.79-5.29,16.6-6,25ZM223.68,67.76c11.17-1.1,18.64.18,34,0,1.9,1.97-8.02.6-11,1,.43,4.91,9.16,1.51,12,4-2.15,2.85-8.66,1.34-12,3,6.23,4.74,13.49-1.34,22-2-6.14,8.98-30.12,8.35-45,14-.9-2.93-.9-3.07,0-6,2.76-1.47,8.72.14,12-3-2.99-2.6-7.91,1.38-12,1-2.55-3.28,1.17-6.98,0-12ZM253.68,95.76c-6.26,2.07-10.02,6.65-14,11,3.35,3.61,4.34-3.6,8-3-5.9,9.44-14.34,16.33-24,22-3.45-8.35,8.52-8.4,10-15-5.6.07-6.1,5.23-11,6-3.1-7.14,7.03-7.8,10-12-3.86-2.88-5.69,3.18-10,3,.06-15.74,22.85-13.65,29-20-10.14-1.8-18.04,7.29-28,9v-6c10.04-2.62,19.81-5.52,30-8,2.48.24-4.5,4.98,2,4-5.42,6.91-15.24,9.43-21,16,6.34,2.03,13.36-12.42,20-7,7.22-6.77,13.24-14.76,24-18-6,15.22-9.5,32.41-10,50-.5,17.92,4.5,36.88,0,53-4.99,17.87-21.02,25.83-24,46-22.96-.9-14.86-30.14-6-43,6.27-9.09,14.7-12.65,18-25,2.25-8.4,1.31-21.21,3-34,1.35-10.18,6.96-18.94,8-30-17.86,12.5-15.78,38.65-23,60-5.18,15.33-19.55,23.16-25,36-3.93-3.73-3.64-11.69-5-18,23.17-15.49,25.83-51.5,39-77ZM226.68,146.76c3.78,1.45,1.92-2.75,5-2-.38,3.28-2.92,4.41-4,7-2.17.17-.45-3.55-1-5ZM225.68,143.76c-1.83-6.38,5.09-12.09,11-14-2.82,5.51-4.22,12.45-11,14ZM224.68,134.76c-2.45-9.25,10.76-11.14,14-18,3.46,6.26-9.33,13.24-14,18ZM41.68,177.76c5.49,12.86,6.19,27.37,8,42-10.62-6.04-6.59-26.74-8-42ZM63.68,183.76c7.14,7.02,11.78,21.34,13,31-9.39-5.27-8.39-20.94-13-31ZM73.68,194.76c4.08,3.59,5.13,10.21,8,15-4.94,1.25-5.62-10.36-8-15ZM104.68,209.76c-5.76-35.61-44.26-43.69-37-89,3.01,8.33,3.76,18.9,6,28,8.57,15.77,20.91,27.76,32,41,2.18,5.32,8.26,17.69-1,20ZM116.68,125.76c-12.43-10.57-31.04-14.96-39-30,13.94,7.73,29.13,14.2,40,25,.41,2.41-1.83,2.17-1,5ZM107.68,151.76c-5.68,3.34-16.4-15.87-6-6-.77-6.89-7.96-7.37-9-14,8.16,5.84,17.7,10.3,21,21-4.78.11-5.17-4.16-8-6-3.12,1.61,1.28,3.94,2,5ZM91.68,127.76c-.17-2.83-1.83-4.17-2-7,8.44,7.9,20.8,11.87,26,23-8.92-.5-14.29-12.98-24-16ZM85.68,109.76c10.12,7.91,29.56,11.72,30,26-11.16-7.5-23.65-13.68-30-26ZM114.68,90.76c.79,3.21,5.89,2.11,4,8-16.94-2.72-28.61-10.73-44-15,7.92-2.91,13.33,5.32,24,3-5.64-5.03-17.71-3.62-24-8,11.47,1.2,30.98,3.02,45,5-.09,2.73,1.67,2.01,0,4,1.54,4.21-5.17.16-5,3ZM120.68,72.76c-11.75,2.78-32.9-1.54-47-3,14.55-1.88,36.02-2.02,47,3ZM66.68,72.76c15.62,2.15,40.93-.48,54,7-17.71,2-35.25-4.72-54-5-.61-.89-1.21-1.79,0-2ZM61.68,81.76c19.18,7.15,38.57,14.09,57,22-.44,3.89-.76,7.91-2,11-17.17-10.16-34.14-20.52-53-29-.01-1.99-2.73-1.27-2-4ZM88.68,136.76c3.48,4.85,5.96,10.71,9,16,6.94,5.94,23.78,9.01,26,19,1.87,8.43-6.19,17.2-10,25-9.6-19.07-26.7-30.64-37-49-4.13-22.2-6.26-46.4-21-58,2.14,11.96,7.22,20.23,8,31,1.19,16.47,1.13,33.31,10,46,9.9,14.16,23.88,22.08,27,41,1.72,10.45-5.52,13.32-13,17,1.37-31.57-31.14-42.87-35-76-2.8-24.05,5.74-44.9-7-68,25.43,7.57,39.47,26.53,43,56ZM49.68,118.76c-3.29-4.04-4.25-10.41-6-16,3.04,4.3,6.25,8.42,6,16ZM49.68,131.76c-3.87-1.8-3.02-8.31-4-13,1.32,4.34,4.9,6.43,4,13ZM70.68,214.76c.17,2.17-3.55.45-5,1-5.24-27.16-19.87-57.7-22-88,7.23,27.15,17.35,59.04,27,87ZM63.68,217.76c-8.07-7.26-7.3-23.37-11-35,5.94,8.87,8.75,25.72,11,35ZM40.68,147.76c6.01,23.01,13.37,49.94,17,72-8.3.04-6.19-8.38-7-17-1.49-15.88-6.54-36.48-12-47,.88-2.45,3-3.67,2-8ZM37.68,188.76c2.39,5.95,3.48,22.69,4,30-9.78.44-2.59-20.41-4-30Z"/>
      <path d="M79.68,475.76c2.05-2.61,4.45-4.88,6-8-3.49.55-7.76,5.52-6,8Z"/>
      <path d="M364.68,419.76c-1.48-5.22-6.96-9.04-8-14-4.99-23.76,2.06-51.8,1-75-.31-6.84-.43-11.76,0-19,1.97-33.21-3.35-67.34-1-101,1.93-27.59,3.19-54.44,1-81,10.45-16.45,4.78-35.15,4-57-10.23-7.23-6.01-19.24-6-30,.01-12.81-4.35-25.92-4-37-40.54-5.18-82.17-2.51-122-4-13.49-.5-27.82-.1-41-1-25.55-1.74-51.6-.08-77,1-26.07,1.11-54.07-1.96-79,1C11.92,5.23,2.43,11.45.68,32.76c-2.05,24.96,1.1,55.98,2,84,.32,10.01-1.28,18.9-1,26,.21,5.4,2.67,13.09,3,17,2.05,24.6-2.24,45.14-3,66-3.63,99.47,1.22,221.05,3,311,3,8.33,15.63,7.04,21,13-5.09,13.89-2.91,36.48-3,56-.07,16.95.23,33.82,0,50,4.43,2.45-2.32,5.87,6,8-6.78,4.35-8.45,17.92-2,23,12.91-1.45,21.14-11.41,34-11,12.95.41,25.75,13.57,39,8,3.72-14.88-5.75-32.63,1-42,9.64-.64,13.36,4.64,21,6,1.44-24.72-.56-52.03-2-77-.42-7.32.24-15.81,3-22,40.3-7.98,96.66,2.74,133-2,6.96,4.92,17.83-.07,26,3,3.76.76.69-5.31,5-4-1,3.34,1.39,3.28,4,3,13.88,1.51,21.1-.35,32,0,2.45-16.55,14.31-23.69,24-33,4.26-.41,10.3.97,13-1,5.27-15.24-1.4-34.09-1-53,8.9-5.27,9.02-31.35,6-42ZM354.68,77.76c2.17,10.16.45,24.22,1,36-12.3,4.91-23.46,2.38-33,7-7.14-8.38-10.09-30.58-6-41,9.82-3.6,27.99-1.61,38-2ZM346.68,389.76c.38,7.69,6.44,19.74-3,24-4.43-91.71,3.34-205.71,0-291,.53-.8,1.04-1.62,1-3h3c1.79,35.76,1.49,65.49,1,102-.39,28.74-1.84,57.07,1,86-1.27,22.3-4.37,54.62-3,82ZM337.68,378.76c.1,11.64,4.89,26.35-2,35-2.66-54.41,1.22-99.65,2-152-4.43,8.07-3.67,18.07-4,28-.45,13.55-1.48,26.78-1,42-4.68-7.25-1.69-16.93-1-28,1.93-30.72-2.2-70.02,2-94,1.93,14.25.65,32.98,3,44,1.49,3.94,1.18-.19,4,0,1.24,51.39-3.34,84.52-3,125ZM319.68,427.76c8.88-3.89,15.4-3.97,27-5,3.4,3.48,4.43,12.81,3,18-9.7,1.3-19.66,2.34-28,5-3.61-3.05-1.4-11.93-2-18ZM330.68,414.76c-4.26-23.66-1.92-57.87,0-82,1.43,23.64,2.73,60.31,0,82ZM327.68,338.76c-2.44-4.25-3.78-16.21-4-24-.14-4.97,1.77-10.83,2-16,1.96-44.49-2.4-99.52,1-137,6.59,59.58-.17,118.37,1,177ZM326.68,137.76c1.64,2.91,4.76,17.75-1,21,.97-6.37-.45-13.32,1-21ZM325.68,123.76c1.62-.28,1.72.95,3,1-1.17,9.91-1.82,6.92-3-1ZM340.68,248.76c-5.25-12.54-3.26-27.92-3-42,.41-22.3-.9-45.05-3-66-2.4,15.58.67,36.8,0,57-5.66-22.36-4.94-51.95-2-76,2.61-.83,5.49,3.02,7,0,4.04,34.76.18,83.76,1,127ZM319.68,415.76c-4.18-6.29-2.87-19.21-3-32-.33-31.02.23-68.33,2-94,.32-4.58-1.6-11.39-2-18-.44-7.28,2.03-14.41,2-22-.15-42.16-3.61-89.47,2-126,1.16-.16,1.78.22,2,1,1.25,56.11-1.4,126.71-2,189-.32,33.15,4.78,72.21-1,102ZM325.68,73.76c-2.96-10.44-4.17-27.71,0-35,1.31.35,1.57,1.76,3,2-4.25,9.9-.18,23.16-3,33ZM331.68,34.76c5.42,11.35.65,26.54,0,40-6.45-8.7-2.32-33.29,0-40ZM335.68,29.76c2.69.69,1.93-2.07,3-3,3.85,15.98,1.31,33.39,0,48-7.69-4.55-2.93-16.73-2-26,.63-6.24-1.45-11.99-1-19ZM89.68,672.76c-8.44,0-19.8-5.45-28-9-10.84,2.82-20.57,6.76-30,11-3.59-4.69-1.27-8.36-1-15,.81-20.19.24-44.26-2-69,1.61-14.14,4.91-31.6,0-41,.98-2.69,2.21-5.13,3-8,16.34-4.36,36.39-.78,57-2-2.14,53.29,5.83,91.55,1,133ZM92.68,625.76c1.05-21.71-4.21-58.58,1-86,4.57.43,11.01-1.01,14,1,5.08,28.4,3.14,61.54,5,93-5.63.12-14.4-4.8-20-8ZM312.68,538.76c-17.73,2.86-39.47-1.5-52,4-30.96-3.46-66.74-3.64-98-6-44.75-3.38-101.54,4.85-150-3-2.63-91.67-1-177.12-2-267-.42-38.06,4.26-79.72,2-125-1.75-35.1-3.72-70.11-2-104,2.66-1.92,8.71,5.56,13,7,3.97,1.33,10.46,2.41,15,3,30.3,3.95,68.66-.32,102,0,23.53.23,46.49-1.14,66-3-42.9-6.19-113.61,5.96-161,0-12.15-1.53-34.86-4.31-35-18-.17-16.95,28.17-13.95,44-14,55.76-.18,110.07-2.42,166,2,41.47,3.28,89.63-4.96,128,4-3.67,12.89.25,33.62-3,55-5.66-3.04-3.19-14.17-3-23,.22-10.34,1.08-20.78,0-29-4.68-2.32-13.66-.34-20-1,3.11,5.02,10.57.53,14,4-4.96,4.98-14.93,2.09-24,2-16.68-.17-36.06-1.31-48,0,23.79,4.39,39.03.8,64,4-21.94,3.76-50.65,1.25-76-1,2.41,6.92,18.68-.01,22,6h-24c18.53,3.61,45.23,2.29,70,3-2.77,12.33,3.5,26.69-2,37-6.29-8.25-.36-18.59-3-31-5.48-1.82-15.35-4.64-21-1,5.08,2.25,13.47,1.2,19,3-1.16,10.2,1.05,20.41,0,30-.51,4.66-3.02,8.58-3,13,.04,10.17,4.76,19.81,6,30,1.86,15.31-2.26,30.71-3,47-.2,4.44,1.84,8.38,2,13,.61,17.67-2.8,36.94-2,56,2.39,56.72,1,112.12,0,167-.12,6.45,1.47,13.45-6,17-1.25-46.56.72-98.29,1-146,.41-68.81.3-143.75-2-222-62.95,1.35-143.81-2.63-212,2-22.29-3.69-49.35-2.76-78-3,6.01,81.82,2.54,154.15,4,229,5.52-68.65,3.16-158.9-1-226,92.44,4.04,191.62-.31,285,1-2.84,45.83,3.32,93.78,3,129-.04,4.57-.75,10.63-4,14,2.03,28.9,2.14,60.71,1,90-2.42,62.43,1.21,133.31-1,193-.66,17.81-1.24,34.74-2,50-41.8-.99-81.65,2.01-122,0-29.57-1.47-60.34-4.3-90-3-21.77.96-41.92,1.06-67-1-2.11-10.1,2.44-25.12-2-34-2.59,9.21-1.02,26.79-1,37,32.8,6.32,66.04-.58,99,1,47.75,2.29,95.58,5.85,142,4,13.54-.54,29.22.21,44,2,1.34-34.78,1.66-55.23,1-89,12.66,17.33,6.66,63.42,7,91ZM293.68,34.76c-2.04,2.29-8.3.36-12,1,2.62-3.47,8.41-1.69,12-1ZM316.68,530.76c.9-23.76-2.72-46.28,0-70,1.62-.28,1.72.95,3,1-3.03,24.97,9.67,52.15-3,69ZM322.68,460.76c5.59,6.18,1.8,24.78,3,38-3.21-10.46-3.07-24.26-3-38ZM324.68,519.76c.27-3.4-.77-8.11,1-10,1,2.29,4.44,10.16-1,10ZM331.68,514.76c-5.93-11.61-2.1-39.44-3-56,2.36,13.02,3.28,43.6,3,56ZM336.68,509.76c-3.82-7.85-2.21-21.12-3-32,3.91,10.6,3.1,21.88,3,32ZM333.68,474.76v-17c3.19,4.16,2.09,21.7,0,17ZM340.68,503.76c-3.13-14.51-2.32-33.68-1-47,1.83,15.44,1.22,37.33,1,47ZM348.68,464.76c.21,12.75,4.09,31.5,0,42-5.73-4.24-3.59-13.81-4-21-.59-10.44-2.4-21.72,0-32,3.08-.75,1.92,2.75,5,2-.22,3.66-1.37,3.84,0,7,.32,3.31,3.09-3.9,4,0,1.03,3.36-3.11,1.56-5,2ZM355.68,448.76c-13.71,2.29-25.02,6.98-41,7-5.92-10.07-4.65-25.05-4-34,5.19-1.83,12.43-3.43,18-2-3.23,3.44-11.32,2.01-14,6-.85,8.04,1.6,16.46,4,24,11.72-1.61,23.07-3.6,34-6,3.98-14.86-.49-29.36-20-24,6.41-2.1,15.23-4.94,23-1,.81,9.69,5.74,22.55,0,30Z"/>
    </g>
  </g>
</svg>