<?xml version="1.0" encoding="UTF-8"?>
<svg id="Layer_2" xmlns="http://www.w3.org/2000/svg" version="1.1" viewBox="0 0 237.3 502.2">
  <!-- Generator: Adobe Illustrator 29.8.4, SVG Export Plug-In . SVG Version: 2.1.1 Build 6)  -->
  <defs>
    <style>
      .st0 {
        fill: #554b41;
        fill-rule: evenodd;
      }
    </style>
  </defs>
  <g id="Layer_1-2">
    <g>
      <path class="st0" d="M138.1,7.3h16c-3.9,3.4-13.3,4.2-16,0Z"/>
      <path class="st0" d="M51.1,13.3c-1.3,3.4-9.4,4.1-12,3,1.9-3.1,7.3-2.7,12-3Z"/>
      <path class="st0" d="M168.1,22.3c-6.8,2.8-15.2-1.4-24,0,2.8-2.2,18.2-1.2,24,0Z"/>
      <path class="st0" d="M171.1,21.3c5.8-.2,9.6,1.8,16,1-3.9,3.4-14.2,2.9-16-1Z"/>
      <path class="st0" d="M172.1,25.3c-5.9,3.8-16.4,1.7-23,1,6.4-2.8,13.6-.2,23-1Z"/>
      <path class="st0" d="M39.1,32.3c2.3-2.6,6.5,1.4,6,5-4.8,1.1-3.5-3.8-6-5Z"/>
      <path class="st0" d="M48.1,36.3c4.3,2.4,2.8,10.5,4,16,4,.3,1.5-5.8,4-7,4.9,2.6-1,10.7-5,11-3-5.3-4.7-12.8-3-20Z"/>
      <path class="st0" d="M70.1,42.3c-3.9,1.8-3.5-5.7-6-2-3.7-6,7.8-4.2,6,2Z"/>
      <path class="st0" d="M189.1,37.3c1,4-.7,14,0,21-2.1.6-2.9,2.5-6,2-1.5-2.2-3-4.3-3-8-2.1.2-4.1,9-6,3-3,1.2,1.1,3.4,0,6-7.3-3-6.2-19.8,0-23,3.5,2.5,3.5,8.5,5,13,2.9-2-.9-11,2-13,3.6,3.5,5.3,14.6,2,19,1.2-.2,1.8.2,2,1,4.7-8,.2-16.1,4-21ZM174.1,53.3c4.3,1.2,4.3-8.2,0-7-.6,4-.6,3,0,7Z"/>
      <path class="st0" d="M192.1,37.3c2.3,2.8,5.7-.6,5,6,1.2-.2.8-1.8,1-3,3.3.3,1.6,5.8,2,9-2.3-.3-3.8.2-5,1,1.4,1.3,1,4.3,1,7-.9-.8-2.3-1.1-4-1v-12c.9.7,1.5,1.8,2,3,2.2-.4,1.3-5.9-2-4v-6Z"/>
      <path class="st0" d="M74.1,38.3c5.2,1.7,5.6,16.9,2,21-.8-.5-1.6-1-3-1,1.8-8.3-1-13,1-20Z"/>
      <path class="st0" d="M167.1,46.3c-3.9,1.6-2.1-2.6-4-3-2.8,5.8,1.3,12.5-2,18-5.1-3.5-4.2-15.8-2-21,4.9-1.8,9.1-.8,8,6Z"/>
      <path class="st0" d="M79.1,40.3c3.8,1.6,1.2,1.6,5,0-.4,6.3,1.2,10.6,5,10-.8,4.2-2.2,7.8-5,10-3.8-5.3-3.8-14.7-5-20Z"/>
      <path class="st0" d="M89.1,40.3h4c.4,3.7-4.1,2.6-3,7-2.2-.4-.4-4.9-1-7Z"/>
      <path class="st0" d="M95.1,40.3h5c.4,1.9,2.2,2.5,2,5-3.8,1.5-1.9-2.8-5-2-2.9,1.5-1.1,9.6,1,12,1.6-1.4,1.1-4.9,3-6,4.1,2.4-.9,10.4-4,12-2,0-1.3-2.7-4-2-.6-7.6.5-13.5,2-19Z"/>
      <path class="st0" d="M124.1,41.3c-6.1,1.9-3.6,12.4-4,20-1.4,0-2.8-.2-3,1-4.5-3.2,1.4-13.4-1-18-1.2-3.7-4.3.7-6-2,.6-3.7,11.8-2.2,14-1Z"/>
      <path class="st0" d="M61.1,41.3c6.8,1.6-.5,12.3,7,14-5.6,9.2-10.2-8.2-7-14Z"/>
      <path class="st0" d="M42.1,42.3c2.1-.4,2.7.7,4,1,.2,2.5-1.6,3.1-2,5-2.5-.1-2-3.3-2-6Z"/>
      <path class="st0" d="M69.1,47.3c4.6.5,2.3,4.7,0,6-2.2-.4-.8-5.3,0-6Z"/>
      <path class="st0" d="M43.1,59.3c46.9,7,100.7,9.5,153,1-2.4,5.2-9.9,3.3-15,4-41.3,5.7-99.1,6.4-138-5Z"/>
      <path class="st0" d="M66.1,72.3c4.5,7,2.8,16.2-8,15-8.4-4.3-2.2-20.6,8-15ZM60.1,84.3c1.8-3.2,5-5,5-10-5.9-5.5-12.3,8.5-5,10Z"/>
      <path class="st0" d="M161.1,73.3c4.4,3.6,4.9,10.3,1,15-15.7,5.6-16.3-19.6-1-15ZM153.1,76.3v9c5.2,2.5,6.5-4.8,9-8-2.8-2.2-5.1-1.9-9-1Z"/>
      <path class="st0" d="M131.1,108.3c-4.5-2.5-2.9-11.1-9-12-5.7.6-4.9,7.8-8,11-3.6-16.2,18.6-17.2,17,1Z"/>
      <path class="st0" d="M126.1,102.3c-1.8,3.5-4.2,4.9-2,10-6.4-.3-2-5.8-6-9,1.4-1.6,5.1-.9,8-1Z"/>
      <path class="st0" d="M93.1,108.3c1.4.2,2.3,8.2-1,7-.8-3.5,1.5-3.8,1-7Z"/>
      <path class="st0" d="M99.1,115.3v-7c4.6-.9,2.9,6.8,0,7Z"/>
      <path class="st0" d="M120.1,124.3c1.6-1.9,7.9,0,8,3-4.5.8-5-2.3-8-3Z"/>
      <path class="st0" d="M130.1,123.3c2.4.6,2.2,3.8,3,6-1.4,0-2.8-.2-3,1-2-2.7,0-3.9,0-7Z"/>
      <path class="st0" d="M116.1,124.3c4.7,3,8.1,7.3,14,9v7c-1.4-1.2-1.5-3.8-3-5-3.3,1.9-.6,4-1,8-6.4,0,.7-18.6-9-12-2.4-1.9-4-4.7-1-7Z"/>
      <path class="st0" d="M179.1,155.3c-3.7,6.6-11.4,9.2-20,11,6.8-3.6,12.3-8.4,20-11Z"/>
      <path class="st0" d="M182.1,158.3c3.4,2.2-2.6,6.4-4,4,.3-2.4,3.1-2.2,4-4Z"/>
      <path class="st0" d="M158.1,166.3c-5.2,4.7-14.7,5-20,5,5-3.3,14.2-2.4,20-5Z"/>
      <path class="st0" d="M172.1,173.3c-12,5.6-21.3,7.9-37,9,10.9-4.5,26.4-4.2,35-11,1.7-.4,1.9.8,2,2Z"/>
      <path class="st0" d="M127.1,216.3c3.1-.5,4.5.9,4,4-2.9.9-3.1.9-6,0,.5-1.5,1.5-2.5,2-4Z"/>
      <path class="st0" d="M133.1,223.3c-2.6,1.6-6.3,2.1-9,1,.9-2.5,7-2.7,9-1Z"/>
      <path class="st0" d="M122.1,236.3c2.1-3.6,13.6-3,16-3-3.8,4.6-11,1-16,3Z"/>
      <path class="st0" d="M142.1,262.3c.1,4.6-9.2,3.5-11,3,1-3.7,6.6-2.7,11-3Z"/>
      <path class="st0" d="M146.1,266.3c-1,4.3-6.6,4.1-12,4,3.4-2,7.7-3,12-4Z"/>
      <path class="st0" d="M146.1,271.3c-1.7,4.5-15.3,7.1-19,3,8.3.9,12.3-2.4,19-3Z"/>
      <path class="st0" d="M146.1,277.3c-3.8,4.8-16.4,6.2-23,5,5.7-3.6,16.6-2.1,23-5Z"/>
      <path class="st0" d="M146.1,280.3c1,0,.8,1.2,1,2-4,4.8-19.2,8.7-26,4,9.8-.6,19.7-1,25-6Z"/>
      <path class="st0" d="M135.1,304.3c-4.2,3.8-.7.9,0,6h-12c-1.6-3.9,4.3-.4,4-3-.2-1.4-5,.9-8,0,2.7-3.6,9.8-2.8,16-3Z"/>
      <path class="st0" d="M135.1,312.3c-3.6,2.6-6.9,3-12,2,.4-4,9.2-3.6,12-2Z"/>
      <path class="st0" d="M134.1,315.3c6.1,2.5-6.9,4.8-8,3-1-4.7,7.5.2,8-3Z"/>
      <path class="st0" d="M130.1,321.3h7v2h-7v-2Z"/>
      <path class="st0" d="M132.1,325.3c2.1.6,6.9-1.6,6,2-2.1-.6-6.9,1.6-6-2Z"/>
      <path class="st0" d="M188.1,386.3c2.9,2-.8,5.8-2,7-1.3,11.3-1.1-5.4,2-7Z"/>
      <path class="st0" d="M127.1,403.3c-.3-1.6,1-1.7,1-3h-14c7.1-6.1,18.4-2.2,21,6-3.8,0-3-4.3-8-3Z"/>
      <path class="st0" d="M70.1,419.3c.7-2.2,5.6-.4,8-1-.2-6.1-6-4.7,1-8-.5-4.3-6.3-4.8-10-3v10c-12.7-14.7,20.3-19.1,12,1-4.4,1.9-6.5,3.6-11,1Z"/>
      <path class="st0" d="M170.1,405.3c-12.5-2.6-13.9,14.8-3,18-16.3.8-10-26.1,3-18Z"/>
      <path class="st0" d="M134.1,409.3c-2.4-.9-4.1-2.6-5-5,2.9.4,4.6,2.1,5,5Z"/>
      <path class="st0" d="M171.1,406.3c6.8,2.5,1.4,11.2,3,15-2.4-.4-2.2,1.8-5,1,3.1-2.6,3.1-5.1-1-7,1.2-3.2,6.6-3.9,3-9Z"/>
      <path class="st0" d="M108.1,415.3c1.2.2.8,1.8,1,3,3.2-1.5,4.4-.4,8,0-2.7,2.3-4.4,5.6-6,9-2.6-2.4-2.7-7.4-3-12Z"/>
      <path class="st0" d="M121.1,421.3c2.9,0,3.7,2.3,5,4,.8,3.4-4.1,1.3-3,5-2.3-.3-4.1-1.2-6-2,3.9-1.2,3.2-4.8,4-7Z"/>
      <path class="st0" d="M216.1,433.3c2.1,4.4-13.5,4.2-15,5,3-3.7,10.7-2.6,15-5Z"/>
      <path class="st0" d="M198.1,437.3c.4,3.4-4.3,1.7-6,3-.4-3.4,4.3-1.7,6-3Z"/>
      <path class="st0" d="M217.1,441.3c-6.6,5.9-19.2,3.6-30,7,7.1-5.2,20.1-4.6,30-7Z"/>
      <path class="st0" d="M218.1,448.3c-7.9,5.5-23.4,8.5-34,8,10.9-3.1,22.7-5.3,34-8Z"/>
      <path class="st0" d="M16.1,455.3c8.2,0,17.9,5.6,28,8,7.9,1.9,16.7.7,22,6-18.3-3-35.7-6.9-50-14Z"/>
      <path class="st0" d="M212.1,461.3c-3.6,6.4-21.1,7.5-32,10,8.9-5.1,22.1-6,32-10Z"/>
      <path class="st0" d="M227.1,466.3c-15.1,10.6-41.8,14.8-63,16,21.2-5.1,44.3-8.4,63-16Z"/>
      <path class="st0" d="M69.1,468.3c10.5,1.5,16.3,1.6,26,4-4.3,1.9-21.6.5-26-4Z"/>
      <path class="st0" d="M177.1,470.3c-10.1,4.7-26.9,4.2-38,5,9-4.9,30-2.4,38-5Z"/>
      <path class="st0" d="M64.1,473.3c3-2.6,8.4.9,12,1-3,2.6-9.6.3-12-1Z"/>
      <path class="st0" d="M96.1,472.3c15.7-.8,31.5,2.4,42,1-9.7,3.3-33.7,3.7-42-1Z"/>
      <path class="st0" d="M227.1,472.3c-11.9,8.5-33.6,12.2-50,13,16.1-4.9,34.8-7.2,50-13Z"/>
      <path class="st0" d="M77.1,474.3c23.6,4,54.3,5.4,81,3-11.1,3.5-22.4,4.2-36,4-14.8-.3-32.6-2.3-45-7Z"/>
      <path class="st0" d="M172.1,475.3c-1.4,1.6-3.4,2.5-6,3-.6-3.6,3-3,6-3Z"/>
      <path class="st0" d="M175.1,484.3c0,4.3-6,2.7-10,3,2-2.3,6-2.7,10-3Z"/>
      <path class="st0" d="M136.1,197.3c-8.3-2.6-19.3.2-27-1-1.9,12.6.7,27.5-6,37,7.9,7.1,28.5,5.9,39,2-11,8.4-30.2,6.8-42,1,3.6,12.9,32.3,8.1,43,5-7.7,9.2-34.6,7.3-44,1-8.4,3.5-12.7,15.7-11,26-6.4-3.2.5-10.8-1-18,10.5-11.8,21.5-27.4,18-50-11.3-12.3-27.2-11.1-38-20-13.8-11.4-27.5-37-31-60-4.5-29.2.2-70.6-7-101,5.1-8.9,16.6-13.4,27-15,33.3-5.3,79.6-6.1,120,0,17.6,2.6,32.2,4.8,40,15-10.7,35.8-3.2,91.3-16,127-8,22.3-21.9,38.7-49,45-5.3,5.7-10.2,5.4-12,11-5.2,16.1,13.2,36.6,17,51,2.1,7.9,2.5,20.1-1,29-3.3,8.3-12.5,10.7-11,24,2.2,19,16.5,40.8,31,56,17.7,18.7,40.7,37.5,50,64,2.5,7.2,1,16.8,3,27,2.1,10.7,17.6,20.7,3,31-.3.2-3.4,1.8-4,2-12.6,5.4-37.2,10.9-52,13-46.7,6.6-107.7,2.3-148-13-7.9-3-26.1-8.6-27-16-1-8.2,8.9-12.5,10-19,.8-5.1-1.6-10.9-1-16,.8-6.1,3.8-14.1,7-20,7.9-14.7,23.4-30.8,37-45,14.1-14.8,31.6-28.8,39-42,2.6-4.7,7.7-15.8,8-21,.7-12.1-10-19.2-13-33,6,2.6,4.1,10.7,12,15,10.6,5.8,36.2,5,45,0,5.6-3.2,5.2-8.2,10-11-1.7-9.9,2.2-17.3-1-26-1.7-4.7-6.5-6.8-9-11-.6-1,.5-2.9,0-4-5.4-12.2-9.4-24.4-8-40ZM189.1,13.3c-1.6.1-3.5-.1-3,2,6.9,1.3,6.1.3,6-3,3.8,1.9,10.3,1.1,12,5-7.1-.3-6.3,1.6-13,0-1,1.9,3,3.3,0,4-19.8-6.4-55.7,4.1-58-8,14.8-.8,32.2-1.8,44,0-2.9-6.5-13.3-1.2-21-4,1.1-3.7-3.4-2-4-4-42.1-2.2-83.1-1.9-115,9-2,2.5,2.6,3.4,0,7,2.5,2.5,8.1,1.9,10,5-9.2,1.6-10.2-5.2-13-10-2.3,1.1-.4,6.3-1,9,10.4,5.3,27.3,4.1,37,10-4.7-.9-10.7-.7-15-2-.3,2.4,4.4,4.8,1,7-5-6-10.4-11.6-21-12,.4,5.9,1.9,10.8,4,15-1.3,0-1.4-1.3-3-1,.4,4.7,9.1,5.1,6,10-2.6,4.1-5.4-6.4-6-1-1.7,6.1,5.5,3.2,6,7-3,1.4-6.1-3.5-6,1,42.5,16.8,123.9,13.2,168,3,1.5-3.8-4.5-.2-3-4,9.1-3.2.5-16.3,2-22-.1-3.2,5.6-.4,4-5-38.2,8.5-90.9,8.3-135,4,30.9-1.4,62.1,1.2,97-1,15.4-1,43.5-.3,42-15-5.3-7.4-25.5-10.4-33-9,5-.4,7.3,2.1,11,3ZM142.1,16.3c17.6-1.4,36.3,2.5,48,1-13.4-2.5-34.5-5-48-1ZM45.1,141.3c.6,2.4.9,5.1,4,5,1.7-.7,3.2-6.7,5-4-1.6,2.9-6.1,6.6-4,10,8.5-3.4,11.7-23.9,8-30,0,2.7.5,5.9-2,6,2.3-21-3.4-50.5-20-61-.8,5.9-.7,16.6,6,18,.2-1.2-.2-2.8,1-3,.5,2.8,2.4,4.2,3,7-1.5-.5-2.5-1.5-4-2-1.4,3.5,4.5,4.7,1,7-2.6-2.4-2.8-7.2-6-9-.7,6.3-3,17.2,2,19,0-1.6-.1-3.5,2-3-.3,2.6.4,4.3,3,4,1.2-3,.3-3.4-1-6,2.9-.4,2.4-.9,5-3-.2,4.9,6.8,21.1,0,17v5c1.7.4,2.6-1.5,3,0,0,5.6.8,14.3-3,13,3.6,3.9-2.8,6.4-3,10ZM177.1,77.3c.2-3.1,3.3-3.4,3-7-17.1,0-35.8,2.4-49,3,31.6,7.1,31.3,84.9-4,86-20.4.6-34.1-20.5-33-38,3.2,22,17.3,40.8,44,33,13.8-10.6,19.4-54.6,5-71-16.8-19.1-49.2.1-50,23-.1-9.1,5.3-12.7,6-21,6.4-5.8,17.3-12.3,26-12-33.5-.7-61.6-2.2-89-10,21.6,16.8,35.2,67.4,16,93,5.6,10.1,15.6,15.7,23,24,9.5,2.5,20.2,8.5,33,10,40.7,4.7,74.9-11.1,83-36-20.6-19.5-8.3-72.8,14-89-3.6-.6-10.7,3-17,3,8.3,10.5-7.9,23.7-11,9ZM195.1,147.3c.5-13.2,7.8-19.5,8-33-.8-2.5-6.1-.5-6-4h6c.3-3-7.2-3.4-3-7,2.6-.3.8,3.9,4,3-1-8.3,2.2-20.8-2-26-7.1,15.6-6.4,35.7-8,55-2.4-3.3-5.5-9.5-2-13-3.6-15.5-.7-37.8,12-45-.6-1.8,1.2-5.9-1-6-14.4,8.7-20.8,36.5-17,54-1.4.4-1.7,1.2-3,0,2.7,2.3,3.6,6.4,4,11-1.7.2-3.9-5.7-4-1,.7,7.6,3.8,12.9,9,16-.9-4.4-5.8-10.2-5-13,4,1.6,3,8.4,8,9ZM180.1,74.3v6c2.3,1.2,4.4,2.9,6,0-3.3-2.4,1.3-5.3,2-7-3.1-1.5-5.2-.3-8,1ZM45.1,138.3c0-1.7.8-2.6,2-3-1.7-5.5,1.9-21.5-3-29-2.9.9-3.1.9-6,0,1.5,7,.8,24.3,7,32ZM124.1,194.3c6.2,2.4,11.3-.4,17,0-2-2.6-11.7-1.5-17,0ZM195.1,389.3c-22.2-28-50.1-50.7-56-90-2.8.5-8.4,4.5-10,0,5.7-1.7,13.1-1.5,15-7-13.5,4-31.5,3.7-45,0,1.3,12,26.6,2.7,29,8-4.4,3.9-19.2-1-25,1-3.8,35.5-29.7,48.9-46,72,14,25.9-9,60.1-36,48,30.5,5.5,44.9-23,34-46-4.5,4.2,1,9.2,1,14,.1,16.8-12.1,28-30,24,4.5-1.2,6.3-10.4,13-6,1.5,3.5-3.4.6-3,3,3.5-.5,6.5-1.5,11-1,.6-3.1,5.7-7,3-10-1.2,1.9-3.1,8.1-5,6-.6-1.8,1.2-5.9-1-6-1.8,1.3-8.4,4-8-1,3.5.8,3.8-1.5,7-1,1.5-2.2-.1-7.5,3-8v10c4.1-.6,2.2-7.2,5-9,.7,2.3-1.8,7.8,2,7,.5-6.3,1.7-14.5-3-18,2.2,4.4-2.7,1.8-4,3-5.8,5.4-7.7,15.2-16,18,0,11.9-12.1,10.4-10,21-9.5,2.8-10.1,23.8-5,32-4.6,4-9.9,8.3-12,17,0,2.6,4.3,1,3,5,42.2,20.3,116.8,28.2,174,18,17.8-3.2,71.2-9.9,46-30-15.2,4.9-37.2,13.4-52,12,17.5-4.5,36.5-7.5,51-15-5.1-2-7.3,3.9-10,1,1.6-3.1,7.3-2.1,9-5,.4-10.9,1.4-15.8-2-24-22.7,4.4-44.1-12.5-36-32-2,22.7,13.9,32.8,35,29-1.5-5.2-5.5-20.8-13-20-2.3,7.3,8.9,5.3,6,10-7.5.3-11.5-11.9-5-14-5.2-3.5-5.1-12.2-14-12,3.9,3.1,1.8,6.1,3,12,2.5,1.3,3.1-4,4-1,.3,3.4-.9,4.5-1,11,7.1,1.9,9.6,8.4,17,10-18.6,2.1-29.6-13.6-24-29,0,7-.3,14.3,4,17-2.1-6.6-4.8-16.7-3-24Z"/>
      <path class="st0" d="M206.1,21.3c0-2.4,2.7.4,2,2-12.5,9.3-30,6.8-51,8-28.9,1.6-53.4,3.3-85,0-7.8-.8-17.4-1.1-24-6,51.7,7,106.4,8.3,155-1-.2-1.7,5.6-2.2,3-3Z"/>
      <path class="st0" d="M141.1,40.3c3.7-.4,5.9.8,6,4-3.1.7-2.9-1.7-6-1,1.2,6,.6,7.8,3,12,1.6,0-1.9-6,3-5,2.5,3.2-.7,7.4-1,11-6,.3-7-4.3-8-9-3.1,1.5-1.7,7.7-2,12-3.6-1.7-4-5-3-9-7.5-2.2-3.1,7.6-10,6v-13c4.4-1.1,3.6,3.1,5,5,1.8.1,2.1-1.2,4-1,.9-4.2-2.3-12.3,3-12,1.4,2.6,1.2,6.8,2,10,.6-4,3.5-5.8,4-10Z"/>
      <path class="st0" d="M95.1,78.3c-.2-3.1-5-1.7-8-2,3.9-7.3,14,0,11,9-5.9,5.6-17,1.9-12-8,2.2.4.4,4.9,1,7,.8,1.5,2.5,2.2,5,2,1.8-1.9.9-6.4,3-8Z"/>
      <path class="st0" d="M133.1,108.3c3.1-1.1,2.3,0,6,0,3.3-2.1,3-12.3-3-11-4.1,1.1.3,4.8-1,9-2.9-2.8-3.2-8.1-5-12,2.4.6,4.6,1.4,8,1-.9-15.8-28.3-14.3-32-2,4.7,3.4,10.3-1,11-5,5.4,3,11.6-4.9,11,4-13-5.6-14.4,8-19,14,1-4.5,1.3-4.5,2-8,.2-2.2-3.6-.4-5-1-2.7,1.1-2.6,8.6-1,11,3.1.7,3.6-1,6-1,0,3.8,4.3,3,3,8,3.9-.4,3.6-1.1,6,1,.6,3.2-.7,4.7-1,7-4.6-1.2-3.9,2.7-8,2-2.1-5.8,4.8-2.6,5-6-2.4-10.1-12.9-6.4-17-14,2.2-16.8,13.4-24.6,31-26,20.9,11.7,22.2,57.2,4,72-21.4.4-36.8-15.8-32-35-.4,6.4.8,11.2,3,15,4.5,1.2,1.1-5.6,6-4,2.8,2.9-.9,5-2,7,.6,1.4,1.6,2.4,3,3,2.1.5,1.9-1.4,2-3,7,2.8,3.6,9.8,7,14,5.4-.8,8.4-2.3,14-4-.3-5.5-1.5-19.2,6-20-1.5,4.5-4.1,7.9-3,15,5.6-7.4,5.2-20.2,4-30-1,4.2-10.8-2.6-10,5-3.4-1.9,1.7-3.5,1-6ZM116.1,145.3c.3-3.3-1.2-4.8-4-5,0,2.9,2.3,3.7,4,5Z"/>
      <path class="st0" d="M138.1,114.3c2.1.9-1.9,4-1,7-7.7,2.3-7-3.7-12-4,.5-2.8,1.5-5.2,2-8,3.3,0,1,5.7,3,7,3.2-2.2,6.6,4,8-2Z"/>
      <path class="st0" d="M177.1,150.3c-4.6,4.7-10.8,7.9-18,10,5.4-4,11.6-7.1,18-10Z"/>
      <path class="st0" d="M177.1,163.3c-3.7,5.9-7.7,5.3-14,8,4.1-3.3,8.4-6.2,14-8Z"/>
      <path class="st0" d="M177.1,166.3c1.2.2,1.8-.2,2-1,2.5,2.2-2.2,5.7-5,6-1-3.6,4.9-.5,3-5Z"/>
      <path class="st0" d="M165.1,493.3c6.2-3.8,15-4.6,22-6,14.6-3,28.6-4.5,40-12,1.6-.3,1.7,1,3,1-17.9,9.4-40,14.7-65,17Z"/>
      <path class="st0" d="M109.1,392.3c22.4-14.3,46.2,11.8,42,34-3.8,20-29.2,28.5-49,16-2.4-6.6-10.1-7.9-9-18,3.5,17.2,28.5,28.2,44,18,4.1-2.7,10.9-10.2,12-13,7.1-18.7-14.3-48.1-40-37Z"/>
      <path class="st0" d="M97.1,400.3c1.4,5.8-6.2,11.1-4,21-7.1-4.7,1.9-15.9,4-21Z"/>
      <path class="st0" d="M118.1,409.3c-3.3-3.2-3.7,4.9-7,5,0-1.4.2-2.8-1-3,2.3-3.3,8.2-3.1,9-8,3.9,2.1,5.3,7.4,4,12-3.5.4-8.1-3.2-5-6Z"/>
      <path class="st0" d="M111.1,401.3c-11.4,8.9-8.6,35.5,11,33,1.8-3.2,5.5-4.5,9-6,.2-5.6-5.1-5.6-6-10,1-1,2-2,3-3,2.5,1.8,4.9,3.8,4,9,4.7,1.7,1.3-4.7,6-3,.5-4.5-.5-7.5-1-11,7.5,11.9-2.7,30.4-22,26-2.1-4.3-9.2-3.2-12-9-4.4-9.1-.7-23.6,8-26Z"/>
      <path class="st0" d="M220.1,454.3c-11.5,8.2-29.3,10-46,13-.2-4.6,8.4-2.8,14-4,4.5-1,7.9-3.9,15-3,4.4-3.3,11-4.3,17-6Z"/>
      <path class="st0" d="M13.1,457.3c14.5,5.9,30.2,10.5,47,14-15.5-.8-36-5.3-47-14Z"/>
      <path class="st0" d="M136.1,229.3c-.9,4.7-8.8,2.5-14,3,1.1-4.2,5.6-.4,2-5,7.3-3.2,4.2,3.6,12,2Z"/>
    </g>
  </g>
</svg>