<?xml version="1.0" encoding="UTF-8"?>
<svg id="Layer_2" data-name="Layer 2" xmlns="http://www.w3.org/2000/svg" viewBox="0 0 237.27 502.22">
  <defs>
    <style>
      .cls-1 {
        fill-rule: evenodd;
      }
    </style>
  </defs>
  <g id="Layer_1-2" data-name="Layer 1">
    <g>
      <path class="cls-1" d="M138.07,7.25h16c-3.86,3.44-13.33,4.24-16,0Z"/>
      <path class="cls-1" d="M51.07,13.25c-1.32,3.39-9.39,4.1-12,3,1.94-3.06,7.31-2.69,12-3Z"/>
      <path class="cls-1" d="M168.07,22.25c-6.83,2.81-15.22-1.43-24,0,2.77-2.22,18.18-1.24,24,0Z"/>
      <path class="cls-1" d="M171.07,21.25c5.83-.17,9.59,1.75,16,1-3.91,3.35-14.2,2.92-16-1Z"/>
      <path class="cls-1" d="M172.07,25.25c-5.85,3.84-16.41,1.71-23,1,6.42-2.84,13.61-.18,23-1Z"/>
      <path class="cls-1" d="M39.07,32.25c2.34-2.6,6.55,1.39,6,5-4.79,1.13-3.52-3.81-6-5Z"/>
      <path class="cls-1" d="M48.07,36.25c4.28,2.39,2.79,10.54,4,16,3.98.31,1.52-5.81,4-7,4.86,2.61-.96,10.73-5,11-2.97-5.27-4.73-12.8-3-20Z"/>
      <path class="cls-1" d="M70.07,42.25c-3.9,1.8-3.5-5.7-6-2-3.7-6.02,7.83-4.16,6,2Z"/>
      <path class="cls-1" d="M189.07,37.25c1.02,4.04-.69,13.96,0,21-2.09.58-2.85,2.48-6,2-1.46-2.2-3.04-4.29-3-8-2.14.18-4.08,9.01-6,3-3.04,1.23,1.08,3.44,0,6-7.27-2.96-6.22-19.84,0-23,3.48,2.52,3.53,8.47,5,13,2.95-2.05-.95-10.95,2-13,3.56,3.53,5.3,14.64,2,19,1.16-.16,1.78.22,2,1,4.72-7.97.19-16.14,4-21ZM174.07,53.25c4.28,1.17,4.28-8.17,0-7-.55,3.99-.55,3.01,0,7Z"/>
      <path class="cls-1" d="M192.07,37.25c2.33,2.81,5.67-.58,5,6,1.17-.16.84-1.82,1-3,3.32.35,1.57,5.76,2,9-2.32-.32-3.84.16-5,1,1.38,1.29.99,4.34,1,7-.89-.78-2.26-1.08-4-1v-12c.93.73,1.52,1.82,2,3,2.21-.41,1.34-5.86-2-4v-6Z"/>
      <path class="cls-1" d="M74.07,38.25c5.17,1.73,5.61,16.94,2,21-.8-.53-1.62-1.04-3-1,1.79-8.34-1.02-12.99,1-20Z"/>
      <path class="cls-1" d="M167.07,46.25c-3.91,1.58-2.07-2.6-4-3-2.82,5.76,1.27,12.46-2,18-5.13-3.47-4.18-15.76-2-21,4.92-1.8,9.11-.75,8,6Z"/>
      <path class="cls-1" d="M79.07,40.25c3.82,1.59,1.18,1.59,5,0-.42,6.26,1.2,10.57,5,10-.78,4.22-2.25,7.75-5,10-3.8-5.35-3.76-14.71-5-20Z"/>
      <path class="cls-1" d="M89.07,40.25h4c.38,3.72-4.05,2.61-3,7-2.24-.43-.41-4.93-1-7Z"/>
      <path class="cls-1" d="M95.07,40.25h5c.43,1.9,2.15,2.51,2,5-3.78,1.45-1.92-2.75-5-2-2.89,1.5-1.13,9.59,1,12,1.61-1.39,1.06-4.94,3-6,4.09,2.43-.86,10.43-4,12-1.99-.01-1.27-2.73-4-2-.58-7.58.46-13.54,2-19Z"/>
      <path class="cls-1" d="M124.07,41.25c-6.06,1.94-3.56,12.44-4,20-1.42-.09-2.83-.16-3,1-4.49-3.23,1.38-13.36-1-18-1.19-3.72-4.33.74-6-2,.63-3.74,11.77-2.18,14-1Z"/>
      <path class="cls-1" d="M61.07,41.25c6.75,1.61-.51,12.29,7,14-5.62,9.22-10.23-8.22-7-14Z"/>
      <path class="cls-1" d="M42.07,42.25c2.09-.42,2.65.69,4,1,.15,2.49-1.57,3.1-2,5-2.55-.11-1.98-3.35-2-6Z"/>
      <path class="cls-1" d="M69.07,47.25c4.56.53,2.27,4.71,0,6-2.23-.42-.78-5.31,0-6Z"/>
      <path class="cls-1" d="M43.07,59.25c46.93,7.01,100.7,9.48,153,1-2.38,5.23-9.87,3.29-15,4-41.27,5.72-99.06,6.36-138-5Z"/>
      <path class="cls-1" d="M66.07,72.25c4.53,6.97,2.81,16.17-8,15-8.42-4.32-2.19-20.64,8-15ZM60.07,84.25c1.84-3.16,4.96-5.04,5-10-5.94-5.46-12.28,8.49-5,10Z"/>
      <path class="cls-1" d="M161.07,73.25c4.41,3.64,4.85,10.35,1,15-15.67,5.56-16.28-19.57-1-15ZM153.07,76.25v9c5.19,2.46,6.46-4.79,9-8-2.76-2.22-5.08-1.91-9-1Z"/>
      <path class="cls-1" d="M131.07,108.25c-4.52-2.48-2.94-11.06-9-12-5.72.61-4.86,7.8-8,11-3.55-16.18,18.56-17.17,17,1Z"/>
      <path class="cls-1" d="M126.07,102.25c-1.77,3.5-4.15,4.87-2,10-6.38-.26-2.01-5.77-6-9,1.45-1.55,5.12-.88,8-1Z"/>
      <path class="cls-1" d="M93.07,108.25c1.45.24,2.32,8.23-1,7-.8-3.47,1.49-3.84,1-7Z"/>
      <path class="cls-1" d="M99.07,115.25v-7c4.58-.87,2.9,6.79,0,7Z"/>
      <path class="cls-1" d="M120.07,124.25c1.63-1.89,7.92.03,8,3-4.51.84-4.99-2.34-8-3Z"/>
      <path class="cls-1" d="M130.07,123.25c2.42.58,2.22,3.78,3,6-1.42-.09-2.83-.16-3,1-2.03-2.7.04-3.88,0-7Z"/>
      <path class="cls-1" d="M116.07,124.25c4.68,2.99,8.05,7.29,14,9v7c-1.44-1.22-1.52-3.82-3-5-3.34,1.89-.63,4.04-1,8-6.4.05.66-18.63-9-12-2.38-1.95-3.98-4.72-1-7Z"/>
      <path class="cls-1" d="M179.07,155.25c-3.74,6.59-11.44,9.23-20,11,6.75-3.59,12.32-8.35,20-11Z"/>
      <path class="cls-1" d="M182.07,158.25c3.39,2.16-2.58,6.4-4,4,.32-2.35,3.1-2.24,4-4Z"/>
      <path class="cls-1" d="M158.07,166.25c-5.19,4.69-14.74,5.01-20,5,5-3.34,14.25-2.41,20-5Z"/>
      <path class="cls-1" d="M172.07,173.25c-11.96,5.6-21.27,7.9-37,9,10.85-4.49,26.43-4.23,35-11,1.7-.37,1.89.78,2,2Z"/>
      <path class="cls-1" d="M127.07,216.25c3.13-.46,4.46.87,4,4-2.93.9-3.07.9-6,0,.52-1.48,1.48-2.52,2-4Z"/>
      <path class="cls-1" d="M133.07,223.25c-2.58,1.62-6.27,2.13-9,1,.89-2.46,7-2.71,9-1Z"/>
      <path class="cls-1" d="M122.07,236.25c2.05-3.64,13.63-3.01,16-3-3.79,4.6-11.04.96-16,3Z"/>
      <path class="cls-1" d="M142.07,262.25c.14,4.56-9.25,3.51-11,3,.98-3.68,6.62-2.72,11-3Z"/>
      <path class="cls-1" d="M146.07,266.25c-1,4.34-6.57,4.09-12,4,3.37-1.96,7.67-3,12-4Z"/>
      <path class="cls-1" d="M146.07,271.25c-1.66,4.52-15.29,7.12-19,3,8.26.92,12.26-2.41,19-3Z"/>
      <path class="cls-1" d="M146.07,277.25c-3.84,4.84-16.41,6.24-23,5,5.74-3.59,16.56-2.11,23-5Z"/>
      <path class="cls-1" d="M146.07,280.25c.97.03.78,1.22,1,2-3.98,4.8-19.19,8.66-26,4,9.78-.56,19.71-.96,25-6Z"/>
      <path class="cls-1" d="M135.07,304.25c-4.22,3.78-.71.9,0,6h-12c-1.6-3.94,4.32-.35,4-3-.22-1.43-4.98.93-8,0,2.73-3.6,9.84-2.83,16-3Z"/>
      <path class="cls-1" d="M135.07,312.25c-3.65,2.58-6.85,2.98-12,2,.43-3.99,9.16-3.6,12-2Z"/>
      <path class="cls-1" d="M134.07,315.25c6.15,2.51-6.88,4.8-8,3-1.02-4.68,7.51.18,8-3Z"/>
      <path class="cls-1" d="M130.07,321.25h7v2h-7v-2Z"/>
      <path class="cls-1" d="M132.07,325.25c2.06.61,6.95-1.61,6,2-2.06-.61-6.95,1.61-6-2Z"/>
      <path class="cls-1" d="M188.07,386.25c2.94,2.05-.77,5.82-2,7-1.29,11.28-1.09-5.43,2-7Z"/>
      <path class="cls-1" d="M127.07,403.25c-.28-1.62.95-1.72,1-3h-14c7.05-6.13,18.4-2.18,21,6-3.75.08-3.02-4.31-8-3Z"/>
      <path class="cls-1" d="M70.07,419.25c.74-2.25,5.61-.39,8-1-.18-6.11-5.98-4.71,1-8-.51-4.26-6.29-4.79-10-3v10c-12.65-14.68,20.34-19.08,12,1-4.38,1.94-6.5,3.59-11,1Z"/>
      <path class="cls-1" d="M170.07,405.25c-12.47-2.57-13.88,14.76-3,18-16.3.82-9.97-26.13,3-18Z"/>
      <path class="cls-1" d="M134.07,409.25c-2.41-.92-4.08-2.59-5-5,2.89.44,4.56,2.11,5,5Z"/>
      <path class="cls-1" d="M171.07,406.25c6.8,2.45,1.41,11.17,3,15-2.41-.41-2.17,1.83-5,1,3.05-2.57,3.11-5.12-1-7,1.21-3.2,6.65-3.92,3-9Z"/>
      <path class="cls-1" d="M108.07,415.25c1.17.16.84,1.82,1,3,3.18-1.53,4.4-.35,8,0-2.71,2.29-4.42,5.58-6,9-2.57-2.43-2.65-7.35-3-12Z"/>
      <path class="cls-1" d="M121.07,421.25c2.93.07,3.71,2.29,5,4,.75,3.42-4.06,1.27-3,5-2.34-.33-4.13-1.2-6-2,3.91-1.22,3.21-4.82,4-7Z"/>
      <path class="cls-1" d="M216.07,433.25c2.15,4.37-13.49,4.23-15,5,2.99-3.68,10.73-2.61,15-5Z"/>
      <path class="cls-1" d="M198.07,437.25c.36,3.36-4.33,1.67-6,3-.36-3.36,4.33-1.67,6-3Z"/>
      <path class="cls-1" d="M217.07,441.25c-6.61,5.85-19.18,3.64-30,7,7.15-5.18,20.06-4.6,30-7Z"/>
      <path class="cls-1" d="M218.07,448.25c-7.88,5.52-23.38,8.54-34,8,10.89-3.11,22.74-5.26,34-8Z"/>
      <path class="cls-1" d="M16.07,455.25c8.2-.07,17.94,5.61,28,8,7.88,1.87,16.66.71,22,6-18.28-3.05-35.74-6.93-50-14Z"/>
      <path class="cls-1" d="M212.07,461.25c-3.59,6.42-21.12,7.54-32,10,8.85-5.15,22.05-5.95,32-10Z"/>
      <path class="cls-1" d="M227.07,466.25c-15.1,10.59-41.8,14.84-63,16,21.24-5.09,44.31-8.35,63-16Z"/>
      <path class="cls-1" d="M69.07,468.25c10.47,1.49,16.26,1.63,26,4-4.31,1.92-21.57.51-26-4Z"/>
      <path class="cls-1" d="M177.07,470.25c-10.06,4.71-26.85,4.22-38,5,8.96-4.87,30.04-2.41,38-5Z"/>
      <path class="cls-1" d="M64.07,473.25c3.03-2.64,8.4.89,12,1-2.98,2.59-9.59.3-12-1Z"/>
      <path class="cls-1" d="M96.07,472.25c15.66-.75,31.47,2.41,42,1-9.69,3.28-33.69,3.74-42-1Z"/>
      <path class="cls-1" d="M227.07,472.25c-11.94,8.54-33.61,12.18-50,13,16.15-4.85,34.77-7.23,50-13Z"/>
      <path class="cls-1" d="M77.07,474.25c23.57,3.98,54.3,5.41,81,3-11.05,3.53-22.39,4.24-36,4-14.78-.26-32.56-2.29-45-7Z"/>
      <path class="cls-1" d="M172.07,475.25c-1.4,1.6-3.45,2.55-6,3-.58-3.58,2.96-3.04,6-3Z"/>
      <path class="cls-1" d="M175.07,484.25c-.05,4.29-6,2.67-10,3,2.03-2.3,5.98-2.68,10-3Z"/>
      <path class="cls-1" d="M136.07,197.25c-8.27-2.64-19.35.22-27-1-1.88,12.61.72,27.52-6,37,7.95,7.08,28.47,5.9,39,2-11.03,8.42-30.18,6.76-42,1,3.59,12.86,32.31,8.12,43,5-7.71,9.24-34.6,7.3-44,1-8.4,3.47-12.65,15.73-11,26-6.4-3.18.51-10.75-1-18,10.49-11.82,21.49-27.42,18-50-11.29-12.26-27.23-11.12-38-20-13.8-11.38-27.47-37.04-31-60-4.49-29.21.24-70.62-7-101,5.09-8.85,16.59-13.36,27-15,33.29-5.26,79.61-6.07,120,0,17.57,2.64,32.23,4.83,40,15-10.68,35.81-3.16,91.35-16,127-8.02,22.27-21.93,38.7-49,45-5.34,5.68-10.17,5.35-12,11-5.21,16.06,13.22,36.55,17,51,2.05,7.86,2.51,20.09-1,29-3.26,8.29-12.54,10.73-11,24,2.21,18.99,16.54,40.79,31,56,17.74,18.66,40.7,37.5,50,64,2.52,7.17.98,16.81,3,27,2.12,10.7,17.6,20.69,3,31-.28.2-3.45,1.76-4,2-12.57,5.38-37.24,10.92-52,13-46.66,6.56-107.66,2.26-148-13-7.91-2.99-26.1-8.56-27-16-.98-8.16,8.94-12.5,10-19,.84-5.11-1.65-10.87-1-16,.77-6.09,3.83-14.09,7-20,7.87-14.69,23.44-30.77,37-45,14.12-14.81,31.55-28.75,39-42,2.64-4.69,7.71-15.79,8-21,.68-12.08-9.96-19.24-13-33,5.97,2.63,4.09,10.67,12,15,10.58,5.79,36.24,5.04,45,0,5.61-3.22,5.2-8.18,10-11-1.73-9.9,2.16-17.29-1-26-1.72-4.73-6.54-6.79-9-11-.58-1,.47-2.94,0-4-5.41-12.18-9.44-24.38-8-40ZM189.07,13.25c-1.57.1-3.47-.13-3,2,6.93,1.29,6.09.31,6-3,3.81,1.85,10.28,1.05,12,5-7.15-.34-6.26,1.59-13,0-.96,1.86,3,3.34,0,4-19.8-6.37-55.67,4.06-58-8,14.79-.78,32.22-1.82,44,0-2.88-6.53-13.27-1.22-21-4,1.05-3.72-3.37-1.96-4-4-42.05-2.18-83.06-1.89-115,9-2,2.51,2.6,3.35,0,7,2.5,2.5,8.06,1.94,10,5-9.25,1.58-10.16-5.17-13-10-2.27,1.06-.38,6.29-1,9,10.37,5.3,27.26,4.07,37,10-4.73-.93-10.65-.68-15-2-.31,2.41,4.36,4.84,1,7-4.98-6.02-10.41-11.59-21-12,.42,5.91,1.87,10.8,4,15-1.28-.05-1.38-1.28-3-1,.36,4.65,9.1,5.1,6,10-2.61,4.12-5.43-6.4-6-1-1.72,6.06,5.48,3.18,6,7-2.98,1.44-6.09-3.51-6,1,42.52,16.85,123.87,13.16,168,3,1.47-3.8-4.47-.2-3-4,9.08-3.22.53-16.35,2-22-.15-3.15,5.58-.42,4-5-38.17,8.52-90.86,8.26-135,4,30.95-1.38,62.14,1.17,97-1,15.41-.96,43.48-.32,42-15-5.32-7.41-25.5-10.41-33-9,5.02-.35,7.29,2.05,11,3ZM142.07,16.25c17.58-1.35,36.31,2.55,48,1-13.35-2.5-34.48-4.97-48-1ZM45.07,141.25c.56,2.44.86,5.14,4,5,1.71-.7,3.2-6.69,5-4-1.57,2.85-6.13,6.63-4,10,8.49-3.38,11.71-23.87,8-30-.02,2.65.55,5.89-2,6,2.35-21-3.4-50.49-20-61-.78,5.89-.7,16.58,6,18,.16-1.18-.17-2.84,1-3,.51,2.82,2.42,4.25,3,7-1.48-.52-2.52-1.48-4-2-1.36,3.46,4.49,4.71,1,7-2.58-2.42-2.79-7.21-6-9-.65,6.29-2.98,17.25,2,19,.1-1.57-.13-3.47,2-3-.28,2.62.37,4.3,3,4,1.19-2.98.28-3.4-1-6,2.89-.36,2.36-.93,5-3-.16,4.91,6.82,21.08,0,17v5c1.72.39,2.56-1.48,3,0,.07,5.56.8,14.3-3,13,3.56,3.95-2.85,6.44-3,10ZM177.07,77.25c.2-3.13,3.29-3.38,3-7-17.05-.04-35.83,2.36-49,3,31.58,7.1,31.33,84.95-4,86-20.4.61-34.06-20.54-33-38,3.16,22.03,17.33,40.8,44,33,13.84-10.6,19.41-54.56,5-71-16.79-19.14-49.19.11-50,23-.14-9.14,5.34-12.66,6-21,6.4-5.76,17.29-12.31,26-12-33.52-.69-61.62-2.18-89-10,21.56,16.78,35.19,67.35,16,93,5.59,10.08,15.6,15.73,23,24,9.5,2.53,20.16,8.51,33,10,40.71,4.72,74.85-11.07,83-36-20.62-19.54-8.32-72.84,14-89-3.57-.58-10.73,3.04-17,3,8.33,10.5-7.87,23.69-11,9ZM195.07,147.25c.47-13.2,7.84-19.49,8-33-.79-2.54-6.13-.54-6-4h6c.28-3.01-7.21-3.36-3-7,2.63-.3.79,3.88,4,3-.98-8.35,2.17-20.84-2-26-7.06,15.63-6.44,35.66-8,55-2.39-3.31-5.52-9.54-2-13-3.58-15.5-.67-37.85,12-45-.58-1.76,1.21-5.88-1-6-14.39,8.68-20.76,36.52-17,54-1.43.39-1.69,1.2-3,0,2.72,2.28,3.65,6.35,4,11-1.71.17-3.93-5.67-4-1,.73,7.6,3.81,12.85,9,16-.92-4.44-5.8-10.17-5-13,4.03,1.63,2.96,8.38,8,9ZM180.07,74.25v6c2.26,1.21,4.4,2.89,6,0-3.3-2.41,1.27-5.31,2-7-3.06-1.46-5.21-.27-8,1ZM45.07,138.25c-.05-1.72.77-2.56,2-3-1.74-5.49,1.92-21.54-3-29-2.93.9-3.07.9-6,0,1.54,6.98.77,24.29,7,32ZM124.07,194.25c6.21,2.43,11.35-.44,17,0-1.96-2.62-11.74-1.52-17,0ZM195.07,389.25c-22.18-27.99-50.14-50.74-56-90-2.76.51-8.37,4.45-10,0,5.66-1.68,13.12-1.55,15-7-13.5,3.96-31.48,3.72-45,0,1.35,11.97,26.55,2.66,29,8-4.41,3.85-19.22-1.02-25,1-3.85,35.48-29.74,48.92-46,72,13.96,25.86-9.01,60.14-36,48,30.53,5.49,44.86-23.01,34-46-4.52,4.17.96,9.16,1,14,.14,16.79-12.07,28-30,24,4.48-1.21,6.26-10.38,13-6,1.55,3.55-3.4.6-3,3,3.51-.49,6.51-1.49,11-1,.58-3.13,5.66-6.95,3-10-1.18,1.88-3.11,8.15-5,6-.58-1.76,1.21-5.88-1-6-1.83,1.28-8.41,4.04-8-1,3.47.8,3.84-1.49,7-1,1.47-2.2-.12-7.45,3-8v10c4.08-.59,2.16-7.18,5-9,.73,2.27-1.8,7.8,2,7,.48-6.28,1.69-14.51-3-18,2.15,4.41-2.73,1.81-4,3-5.79,5.42-7.65,15.16-16,18,.05,11.86-12.06,10.44-10,21-9.49,2.77-10.1,23.77-5,32-4.56,3.95-9.86,8.28-12,17,.09,2.58,4.28,1.05,3,5,42.19,20.34,116.84,28.25,174,18,17.75-3.18,71.24-9.85,46-30-15.22,4.86-37.17,13.4-52,12,17.48-4.52,36.49-7.51,51-15-5.06-2.01-7.34,3.92-10,1,1.59-3.08,7.26-2.08,9-5,.43-10.85,1.42-15.79-2-24-22.7,4.39-44.1-12.55-36-32-1.99,22.68,13.87,32.76,35,29-1.49-5.19-5.49-20.77-13-20-2.26,7.26,8.94,5.27,6,10-7.47.28-11.54-11.92-5-14-5.22-3.45-5.15-12.18-14-12,3.94,3.11,1.83,6.11,3,12,2.5,1.32,3.13-3.95,4-1,.26,3.4-.93,4.45-1,11,7.14,1.86,9.62,8.38,17,10-18.57,2.13-29.6-13.59-24-29-.05,7.05-.26,14.26,4,17-2.06-6.63-4.77-16.73-3-24Z"/>
      <path class="cls-1" d="M206.07,21.25c.01-2.35,2.73.37,2,2-12.53,9.33-29.99,6.84-51,8-28.94,1.6-53.45,3.27-85,0-7.78-.81-17.41-1.1-24-6,51.69,7.03,106.44,8.31,155-1-.23-1.71,5.61-2.19,3-3Z"/>
      <path class="cls-1" d="M141.07,40.25c3.73-.4,5.87.8,6,4-3.06.73-2.94-1.73-6-1,1.25,5.97.57,7.79,3,12,1.56-.09-1.91-5.96,3-5,2.5,3.23-.72,7.42-1,11-6.01.34-6.99-4.35-8-9-3.14,1.52-1.66,7.67-2,12-3.55-1.73-3.98-5.04-3-9-7.54-2.21-3.06,7.61-10,6v-13c4.45-1.12,3.6,3.07,5,5,1.79.13,2.11-1.22,4-1,.85-4.15-2.3-12.3,3-12,1.36,2.64,1.18,6.82,2,10,.65-4.02,3.51-5.82,4-10Z"/>
      <path class="cls-1" d="M95.07,78.25c-.22-3.11-4.98-1.69-8-2,3.9-7.29,13.98,0,11,9-5.94,5.63-16.97,1.86-12-8,2.24.43.41,4.93,1,7,.85,1.48,2.52,2.15,5,2,1.77-1.9.93-6.4,3-8Z"/>
      <path class="cls-1" d="M133.07,108.25c3.15-1.12,2.26-.09,6,0,3.3-2.05,3.02-12.26-3-11-4.05,1.08.31,4.76-1,9-2.9-2.77-3.25-8.09-5-12,2.4.6,4.56,1.44,8,1-.92-15.85-28.35-14.31-32-2,4.74,3.36,10.29-1.01,11-5,5.38,2.96,11.57-4.91,11,4-12.97-5.62-14.38,8.03-19,14,.99-4.48,1.29-4.47,2-8,.17-2.17-3.55-.45-5-1-2.74,1.12-2.63,8.64-1,11,3.06.72,3.64-1.02,6-1-.08,3.75,4.31,3.02,3,8,3.87-.43,3.56-1.09,6,1,.58,3.25-.68,4.65-1,7-4.56-1.22-3.92,2.74-8,2-2.13-5.8,4.76-2.57,5-6-2.44-10.1-12.93-6.43-17-14,2.2-16.8,13.41-24.59,31-26,20.93,11.68,22.21,57.16,4,72-21.39.36-36.84-15.79-32-35-.41,6.41.8,11.2,3,15,4.5,1.17,1.08-5.59,6-4,2.79,2.91-.92,4.96-2,7,.56,1.44,1.56,2.44,3,3,2.13.47,1.9-1.43,2-3,7,2.77,3.59,9.75,7,14,5.43-.76,8.42-2.32,14-4-.29-5.49-1.54-19.15,6-20-1.54,4.46-4.08,7.92-3,15,5.62-7.41,5.22-20.16,4-30-.99,4.19-10.75-2.62-10,5-3.4-1.89,1.71-3.51,1-6ZM116.07,145.25c.26-3.26-1.19-4.81-4-5,.07,2.93,2.29,3.71,4,5Z"/>
      <path class="cls-1" d="M138.07,114.25c2.12.91-1.89,4.02-1,7-7.68,2.34-6.96-3.71-12-4,.53-2.8,1.47-5.2,2-8,3.31.02,1.02,5.65,3,7,3.16-2.16,6.61,4,8-2Z"/>
      <path class="cls-1" d="M177.07,150.25c-4.61,4.72-10.82,7.85-18,10,5.36-3.97,11.55-7.11,18-10Z"/>
      <path class="cls-1" d="M177.07,163.25c-3.66,5.89-7.74,5.33-14,8,4.08-3.26,8.41-6.25,14-8Z"/>
      <path class="cls-1" d="M177.07,166.25c1.16.16,1.78-.22,2-1,2.49,2.23-2.24,5.7-5,6-.97-3.64,4.87-.46,3-5Z"/>
      <path class="cls-1" d="M165.07,493.25c6.2-3.77,15.04-4.59,22-6,14.58-2.95,28.56-4.5,40-12,1.62-.28,1.72.95,3,1-17.94,9.39-39.98,14.69-65,17Z"/>
      <path class="cls-1" d="M109.07,392.25c22.41-14.3,46.21,11.82,42,34-3.79,19.95-29.25,28.5-49,16-2.36-6.64-10.14-7.86-9-18,3.5,17.24,28.53,28.21,44,18,4.1-2.7,10.95-10.23,12-13,7.09-18.66-14.33-48.12-40-37Z"/>
      <path class="cls-1" d="M97.07,400.25c1.44,5.8-6.21,11.11-4,21-7.07-4.68,1.9-15.85,4-21Z"/>
      <path class="cls-1" d="M118.07,409.25c-3.28-3.22-3.73,4.88-7,5,.09-1.42.16-2.83-1-3,2.35-3.31,8.22-3.11,9-8,3.9,2.15,5.27,7.36,4,12-3.5.44-8.08-3.18-5-6Z"/>
      <path class="cls-1" d="M111.07,401.25c-11.36,8.87-8.55,35.55,11,33,1.75-3.25,5.49-4.51,9-6,.23-5.56-5.07-5.6-6-10,1.02-.98,2.02-1.98,3-3,2.53,1.81,4.86,3.81,4,9,4.7,1.7,1.3-4.7,6-3,.49-4.49-.51-7.49-1-11,7.47,11.94-2.71,30.39-22,26-2.08-4.29-9.23-3.24-12-9-4.38-9.1-.69-23.59,8-26Z"/>
      <path class="cls-1" d="M220.07,454.25c-11.46,8.21-29.33,10-46,13-.24-4.61,8.37-2.77,14-4,4.54-.99,7.94-3.93,15-3,4.38-3.29,11.02-4.31,17-6Z"/>
      <path class="cls-1" d="M13.07,457.25c14.47,5.86,30.19,10.48,47,14-15.55-.78-36.05-5.28-47-14Z"/>
      <path class="cls-1" d="M136.07,229.25c-.95,4.72-8.83,2.51-14,3,1.07-4.17,5.59-.38,2-5,7.29-3.23,4.18,3.6,12,2Z"/>
    </g>
  </g>
</svg>