<?xml version="1.0" encoding="UTF-8"?>
<svg id="Layer_2" data-name="Layer 2" xmlns="http://www.w3.org/2000/svg" viewBox="0 0 313 721.09">
  <defs>
    <style>
      .cls-1 {
        fill: #fff;
      }

      .cls-2 {
        fill: #554b41;
      }
    </style>
  </defs>
  <g id="Layer_1-2" data-name="Layer 1">
    <g>
      <path class="cls-1" d="M151,288.09c-2.07-5.69-24.44-6.97-25,1,8.96.29,15.56-1.77,25-1Z"/>
      <path class="cls-1" d="M140,572.09c.85,4.15-2.3,12.3,3,12,3.29-1.71,1.58-8.42,2-13,.84-2.5,7.81,1.15,7-3,.82-4.49-7.55.21-7-4,.77-4.77-1.56-6.44-1-11h-3c-.37,4.63-.71,9.29-2,13-2.27.73-7.8-1.8-7,2-.04,4.04,7.12.88,8,4Z"/>
      <path class="cls-1" d="M144,281.09c-5.98-4.36-8.8-11.86-17-14-.22,5.45.69,12.02-1,16,5.38-1.29,13.23-.1,18-2Z"/>
      <path class="cls-1" d="M102,703.09c-.42,2.29.3,4.52,0,7,17.35,5.28,32.77-7.61,41-18-16.66-6.82-37.49-7.93-41,11Z"/>
      <path class="cls-1" d="M175,371.09c.73-14.21,2.23-39.24,2-45-1.83,13.17-4.75,30.57-2,45Z"/>
      <path class="cls-1" d="M145,716.09c19.47-.53,28.16-11.84,39-21-10.01-.99-18.46-3.54-28-5-6.01,6.32-12.04,12.63-11,26Z"/>
      <path class="cls-1" d="M247,425.09c-5.09,3.25-4.02,12.64-14,11,1.43-20.12,15.81-52.79,11-76-1.66-8.02-8.56-12.58-12-18-.66,7.01,1.32,16.65-1,22-.32-9.7-1.14-18.31-1-26-4.76,14.14,3.74,37.55-1,55-4.65-23.66,5.89-56.46-13-66,1.28,10.06-1.41,20.9-2,28-1.52,18.2.14,46.49,0,55-1.19,73-2.4,154.16-3,234-16.97.59-34.71-.94-49,0-3.8,11.38.59,26.4-4,38,.56-12.11-1.18-26.52,1-37-9.08-6.25-30.27-.4-41-5,1.3-40.95,3.73-98.97,3-139-.32-17.61.84-35.58,2-52,2.41-34.09,1.22-68.85,4-105,1.34-17.46,4.69-31.24,3-43-2.3,2.7.96,10.96-3,12-1.16-6.8,6.4-17.57-1-21-1.33,10.77-2.5,14.41-4,29-1.51,14.63,1.16,29.71,0,44-8.55,105.69-16.65,209.03-22,321,5.85,1.18,6.83-2.5,12-2,.68-19.03-1.09-29,3-45-.43,16.2-2.5,32.57,1,45,17.87-1.55,28.7,9.47,41,0,7.08,4.58,16.47,6.86,29,6,1.64-9.28-2.81-14.75,0-23,2.23,3.16.12,11.8,3,4,1.41,4.79-.62,11.08,0,20,11.41-.26,20.45-2.89,31-4,.72-43.29-6.63-68.03-5-110,2.49,17.62-.57,27.56,4,39-.1-27.69-1.57-53.51,0-83,2.56,40.04-.36,84.9,3,121-1.65-.02-.56-2.77-2-3,.28,11.72,1.59,22.41,1,35,5.72-8.94-1.96-21.83,2-31,.84,10.28,1.99,24.05,2,32,6.2,3.47,8.85-2.39,13-4,2.21-32.88,3.43-61.18,1-87-2.12-22.55,1.3-48.61,2.59-72.57.09-6.44.21-12.9.41-19.43.14,6.23-.06,12.75-.41,19.43-.72,53.38,1.97,104.03-1.59,159.57,4.33,1.35,6.35.47,11,0,4.47-62.52,2.42-123.79,2-176-.11-13.97,4.31-23.99,1-35-4.27-14.22-3.88-32.2-7-47ZM125,329.09c4.42,2.29.09,9.91,0,14-1.45-5.47-.33-6.76,0-14ZM232,367.09c2.52,5.28,2.83,23.49,1,35-2.33-9.67-.34-23.66-1-35ZM245,623.09c-2.87-1.98.35-6.24,0-9,2.01,1.12,1.15,7.73,0,9ZM246,611.09c-2.63-39.4-.62-74.33-2-110,3.76,23.21,2.03,80.43,2,110ZM249,549.09v-5c-.11-15.22-1.55-29.12-2-44,1.17-.16.84-1.82,1-3,1.69,17.35,1.97,29.98,2,49,.32,1.23-.16,6.18-1,3Z"/>
      <path class="cls-1" d="M141,292.09c-3.07,23.04-6.48,47.55-4,71,11.1.22,1.41-14.24,13-13,2.88,2.91,1.01,7.38,1,11,3.54,2.47,8.46-.62,7,8-.62,2.38-6.16-.16-7,2-.36,4.41,3.61,10.32-4,11-5.98-.02-.32-11.68-6-12-1.72-.39-2.56,1.48-3,0-5.59,4.55-1.32,12.85-5,19,1.25-9.81-.1-16.58,0-26,.26-23.98,5.62-50.31,5-71-5.44,2.85-2.51,8.92-3,13-2.19,18.25-3.13,36.9-4,56-2.55,55.92-6.85,128.23-7,157-.11,20.97.2,73.25-2,120,17.7-.75,25.74,1.59,40,1,2.27-52.52,1.38-144.17,5-222,1.62-34.72,4.12-57.37,5-91,.21-7.91,3.78-17.23-1-24-4.17,30.58-4.23,63.05-7,97-1.16-34.53,3.06-64.7,5-99-6.72-5.28-14.37-9.63-28-8ZM138,564.09c1.57-2.81-1.81-17,8-13-.4,4.73.32,8.35,1,12,1.91,1.65,4.25-.64,7,1v8c-3.72.69-2.61.48-7,1-.05,4.61.44,9.78-1,13-2.88-.12-6.55.55-8-1v-11c-2.57-3.36-4.32-.14-7-2v-8c2.95-.86,4.05-.86,7,0ZM145,636.09c-5.52-.27-11.67.2-18,0-1.7-72.44.84-174.39,6-245-1.59,69.86-5.85,168.46-5,242,8.58,1.4,25.12,2.17,30,1-1.32,6.41-9.6,2.17-13,2ZM159,626.09c-1.3-11.39-.16-23.67,0-36,.15-11.22-2.07-29.5,2-39-1.36,25.8.9,38.05-2,75ZM160,533.09c1.4,4.12-.18,4.51,1,11-2.26-1.96-2.64-6.79-1-11ZM161,532.09c-2.91-1.29-.79-21.77-1-9-.03,1.72,1.07,6.37,1,9ZM160,509.09c1.3,1.81.48,3.67,1,8-1.31-1.82-2.85-6.03-1-8ZM161,506.09c-.73,2.6-.95-6.35-1-9-.74-36.37,2.66-69.93,3-97,1.13,23.31-.72,51.34-1,78-.1,9.28,1.8,18.08-1,28Z"/>
      <path class="cls-1" d="M105,506.09c-5.8,9.53-15.4,15.27-14,32,4.15,5.85,8.31,11.69,13,17-.16-11.81,3.82-34.69,1-49Z"/>
      <path class="cls-1" d="M169,513.09c.31,3.02-1.11,7.78,2,8-.31-3.02,1.11-7.78-2-8Z"/>
      <path class="cls-1" d="M181,308.09c-9.22,105.01-9.66,231.96-10,328,9.38-.57,17.66-1.4,30-1,3.14-48.92-.02-98.36,4-140,.75,55.28-1.84,84.93-2,142-13.19-.7-25.17,2.02-35-1-.26-64.44,0-124.85,1-183,5.54-2.81,2.9-19.08,2-25-2.15,1.1,2.68,5.97-3,5,1.3,11.47-1.41,24.66-2,38-2.34,53.33,1.35,114.77-2,169h44c.58-18.32-.51-37.94-1-53-1.2-37.09,2.83-85.87,0-120-2.35,5.65.54,16.54-2,22,2.53-47.8-2.3-95.73,3-139-.76,32.98-.83,66.38,0,105,3.31-24.85,1.31-53.68,2-80,.47-18.06,5.18-36.24,0-52,.03,9.7-.01,19.32-3,26-.56-13.04,1.64-15.58,2-26-4.23-6.11-17.38-11.94-28-15ZM199,574.09c-1.18-1.15-3.54-1.13-6-1,.53,6.2-.48,10.85-2,15-3.82.48-6.38-.28-8-2,1.08-4.06-.39-5.49,0-11-1.18-1.82-5.21-.79-7-2v-8c2.09-1.58,6.64-.69,9-2v-14c3.59-.59,4.84,1.16,7,2-.02,4.35-.33,9,1,12,1.91,1.65,4.25-.64,7,1,.2,3.86.04,7.37-1,10ZM203,373.09c-3.65,1.42-4.49-.56-7,2,.2,3.86.04,7.37-1,10h-6c-1.2-2.8-1.1-6.9-1-11-.43-2.24-4.93-.41-7-1-.58-5.2-.87-5.94,0-10,3.25.58,4.65-.68,7-1,.07-4.26,1.67-6.99,1-12,3.44-.44,5.6.39,8,1v11c.02,2.98,4.72,1.28,6,3v8ZM169,439.09c3.17,2.4,1.56,7.66,1,12-2.29-2.04-.36-8.3-1-12Z"/>
      <path class="cls-1" d="M170,396.09c-.83,5.58-.63,10.14-1,14v14c2.3-2.7.36-9.64,1-14,.35-4.41,1.72-9.5,0-14Z"/>
      <path class="cls-1" d="M195,364.09c-.07-5.99,2.91-11.5-4-12-1.33,3-1.02,7.65-1,12-3.16-.49-3.53,1.8-7,1-.09,3.74-1.12,2.85,0,6,1.76.58,5.88-1.21,6,1,2.87,2.13-1.73,11.73,4,11,3.63-.71,1.38-7.29,2-11,1.29-1.38,4.34-.99,7-1,2.02-6.69-4.25-5.09-7-7Z"/>
      <path class="cls-1" d="M191,565.09c-.77-6.57.13-8.26-1-13h-3c-.43,4.57,1.01,11.01-1,14-4.93-.26-9.72-.39-9,5,3.43,2.11,6.12-1.25,8,2,.97,4.69-2.79,14.13,4,13,4.23-2.11.2-12.47,3-16,4.24,1.22,5.92.91,7-3-1.04-2.29-7.14.47-8-2Z"/>
      <path class="cls-1" d="M98,498.09c-5.15-2.85-6.75-9.25-14-10,1.23,9.05.45,19.8,4,24,2.77-5.23,7.03-8.97,10-14Z"/>
      <path class="cls-1" d="M25,108.09c-1.85,5.62-.33,14.45,3,18,1.56-4.86.37-14.82-3-18Z"/>
      <path class="cls-1" d="M53,150.09c-4.64-29.37-12.6-60.72-34-70,10.23,14.11,21.66,32.34,26,49-5.85-7.15-8.31-17.69-17-22,3.96,9.04,9.12,22.21,12,29-7.97-1.36-4.57-14.1-10-18,.75,4.81,2.44,10.22-3,11-2.87-9.83-9.9-26.69-24-21,22.82,4.51,18.29,36.38,35,47-2.6-.6-3.6.4-3,3,8.03,3.16,14.47-3.38,18-8Z"/>
      <path class="cls-1" d="M34,108.09c-2.73-10.01-10-20.57-20-20-.78.22-1.16.84-1,2,9.61,3.39,15.57,10.43,21,18Z"/>
      <path class="cls-1" d="M58,156.09c-6.58-1.39-11.73,6.79-20,7-.32,2.32.16,3.84,1,5,8.61-3.77,14.8-3.82,19-12Z"/>
      <path class="cls-1" d="M98,501.09c-4.67,7.79-15.07,14.87-8,26,1.37-9.96,9.44-13.22,12-22-1.49-1.17-1.18-4.16-4-4Z"/>
      <path class="cls-1" d="M217,92.09c-7.58,13-22.6,17.59-34,11,7.65,17.79,36.56-3.14,34-11Z"/>
      <path class="cls-1" d="M218,48.09c-3.34-1.66-4.34-5.66-8-7,1.12,3.24,5.28,8.67,8,7Z"/>
      <path class="cls-1" d="M181,99.09c18.32,13.76,47.86-6.36,37-31,3.55,1.55.6-3.4,3-3,.14,4.15.66.2,2,0,1.33,2.34,1.7,5.63,3,8,3.98-8.71-.83-19.35,0-30-7.06-6.61-21.78-10.88-24-19,8.19,9.14,23.04,11.62,28,24-2.63.3-.79-3.88-4-3,3.45,5.55,3.62,14.38,8,19,2-16.32-4.78-30.75-14-39,9.56,2.82,14.61,14.21,18,20,2.93-8.73-5.28-13.71-9-19,2.68.66,3.8,2.86,6,4-1.51-7.17-11.46-11.19-12-16,2.51,2.15,4.85,4.49,7,7,3.16,2.93-1.02-5.93-2-7-19.37-21.09-61.45-3.49-68,20,11.7-4.63,21.78-10.89,36-13-.08,1.74.22,3.11,1,4-3.71.33-7.97,5.31-11,3,1.26-2.41,5.32-2.02,7-4-13.68,1.58-25.24,9.74-35,12,.28,1.75-2.82,4.99,0,6,4.68-7.32,19.22-14.32,27-12-10.75,4.06-28.85,5.62-26,20,4.31-2.96,7.13-4.34,10,1-3.66.34-4.64,3.36-9,3,.58,16.75,3.21,31.46,11,41,11.91,1.91,16-4,23-7-2.33,5.67-9.59,6.41-13,11ZM204,85.09c2.1-3.9,4.39-7.61,6-12,1.72,1.28,2.01,3.99,4,5-2.37,5.28-6.12,4.76-10,7ZM210,66.09h-5c4.14-10.65,2.08-15.81-1-26,3.14,3.2,4.86,7.8,8,11-4.55-.15,2.11,7.54-2,15ZM224,49.09c-2.57-1.76-4.7-3.97-7-6-1.64,2.03,4.27,5.02,4,9-1.31-.35-1.57-1.76-3-2,4.76,6.02.26,14.92-2,20-2.06-.61-6.95,1.61-6-2,8.29,1.74,8.33-9.38,8-13-.26-2.08-4.39-.27-5-2,.73-.93,1.82-1.52,3-2-7.93-4.88-10.82-14.8-16.04-22.39-.7-.82-1.37-1.68-1.96-2.61.7.82,1.34,1.7,1.96,2.61,6.8,8.01,18.01,11.61,24.04,20.39ZM218,14.09h-4c-.79-3.85,4.79-3.85,4,0ZM191,16.09c.96-3.79,12.78-2.47,14,0-2.22,5.05-7.7-2.6-14,0ZM196,49.09c-5.4-1.93-9.74-4.93-18-4,4.41-4.45,17-1.45,18,4ZM168,45.09c-3.55-1.68-8.06,3.39-8-1,3.66-2.68,8.52.35,12,1,2.6,10.17-6.11,20.32,2,24-2.07,2.96-5.16-1.43-6-3,1.04-6.7,5.29-16.62,0-21ZM173,80.09c-3.12-1.13-.16-4.36-7-3,2.41-4.43,10.18-1.95,15-1-1,4.13-7.52-1.71-8,4ZM174,67.09c.42-2.25,5.48.15,5-3,2.72.61,3.92,2.75,4,6-2.6-1.4-6.02-1.98-9-3ZM181,54.09c-.86-3.93-1.03-4.27,1-8,3.66,1.68,8.42,2.25,9,7-4.18-2.51-5.93.71-10,1ZM193,72.09c-.32-2.32.16-3.84,1-5,1.57,1.35,4.53,3.49,2,6-.8-.53-1.62-1.04-3-1Z"/>
      <path class="cls-1" d="M103,503.09c-14.56-79.14-35.04-163.25-37-230,4.39,13.99,2.56,25.78,5,47,1.76,15.32,5.74,30.89,8,47,6.85,48.73,18.88,95.36,27,138,8.95-73.08,9.28-151.51,16-229-6.02,3.34-21.69,11.7-34,6,2.04,38.63,15.01,71.66,22,102-10.55-26.78-17.43-57.24-23-89,2.66,42.31,15.02,74.5,22,112-12.55-40.73-21.55-77.66-26-129-12.96-7.7-17.54-23.79-26-36-9.49,87.24,1.42,176.69,20,241,13.12,2.21,20.19,10.48,26,20ZM113,319.09c-4.46-8.54-6.18-19.82-8-31,4.37,8.63,4.85,21.15,8,31ZM101,285.09c6.02,13.65,7.93,31.4,13,46-7.04-12.63-9.45-29.88-13-46ZM65,260.09c2.93,1.4-.93,9.6,2,11-2.12,2.04-4.38-8.41-2-11Z"/>
      <path class="cls-1" d="M85,288.09c.71,12.24,3.97-4.51,0-7,.09,3.78-.13,4.7,0,7Z"/>
      <path class="cls-1" d="M194,114.09c-12.68,25.34-13.59,56.35-28,80,7.17,10.86-2.84,18.95-6,28,.02-12.16,11.85-17.35,4-29,15.27-22.26,15.01-54.42,28-78-5.49-1.51-8.11-5.89-13-8-.37,6.37,4.72,7.28,5,13-8.65,17.66-8.28,52.7-25,70,.13,5.87,2.05,9.95,3,15-8.23,4.43-6.53,18.81-2,26,10.57-2.76,5.26-21.41,14-26,.5-5.17-3.18-6.15-2-12,7.42-6.14,6.54-14.62,8-22,3.3-16.65,12.58-34.34,16-52,11.11-6.99,30.36-10.84,28-28-7.06,10.6-14.9,20.43-30,23Z"/>
      <path class="cls-1" d="M94,280.09c15.29,2.58,25.83-5.31,31-19-6.64-5.7-10.3-14.36-16-21,.19,8.19-2.48,13.52-4,20-1.32-.01-.91-1.75-2-2-.71,2.96-.27,7.06-3,8,1.33-3.66,2.22-16.95,5-10-.09-6.84,4.48-18.26,0-23-.58,2.67,2.96,6.25,0,8-.74-22.16-16.47-35.56-27-51-4.32,10.35-14.62,14.72-28,16,7.88,23.63,19.42,69.85,44,74ZM116,251.09c-.15,7.62,2.52,15.71-3,19-.91-3.25-.69-14.74,3-19ZM97,259.09c3.43-.85.57,6.48-2,6-1.07-3.74,2.48-2.85,2-6ZM69,223.09c-4.25-3.08-6.31-8.36-7-15,2.82,4.51,4.7,9.96,7,15ZM70,238.09c-6.44-7.56-9.75-18.25-13-29,5.19,8.81,8.92,19.08,13,29ZM53,209.09c6.28,13.39,11.37,27.97,18,41-8.41-11.25-13.66-25.68-18-41Z"/>
      <path class="cls-1" d="M76,184.09h-3c-2.58,11.76-17.42,11.25-25,18,11.32,4.44,30.48-5.33,28-18Z"/>
      <path class="cls-1" d="M67,170.09c-3.08-.75-1.92,2.75-5,2-1.9-3.16-2.77-7.02,0-10-2.04-.29-1.96-2.71-4-3-2.41,7.92-13.4,7.27-19,12,4.56,6.78,4.19,18.48,8,26,16.33.05,34.15-14.45,20-27Z"/>
      <path class="cls-1" d="M285,560.09c-2.21,10.34.14,13.83,1,25,5.18-3.16,12.98-3.69,16-9-3.19-7.81-9.28-12.72-17-16Z"/>
      <path class="cls-1" d="M237,433.09c7.76-1.9,3.95-15.39,11-18,2.7,15.3,5.02,30.98,6,48,1.93-6.77,2.83-12.64,3-17,2.92,4.72-1.96,8.82,1,14,2.66-3.34.7-11.3,6-12-8.81-13.19,4.02-48.02-20-46-4.15,7.92-5.76,23.47-7,31ZM257,436.09c-2.71-3.68-.4-6.22-2-11,4.21.12.99,7.67,2,11Z"/>
      <path class="cls-1" d="M245,398.09c5.41-1.08,5.96,2.71,11,2-.33-2.34-1.2-4.13-2-6h-9v4Z"/>
      <path class="cls-1" d="M303,619.09v-8c-2.98-.02-3.4-2.6-6-3-4.01,4.4,2.36,8.46,6,11Z"/>
      <path class="cls-1" d="M295,609.09c2.26-3.1,5.23-10.06-2-10,.14,3.86-.78,8.78,2,10Z"/>
      <path class="cls-1" d="M290,610.09c.2-3.86.04-7.37-1-10-12.84-7.72-3.06-31.57-12-43-4.71,22.57-5.76,44.04-14,64,2.88-18.15,12.99-47.31,10-68-4.3,21.85-7.35,43.35-13,59,2.48-19.35,8-36.61,11-57,4.45-30.18-7.73-64.21-6-99-10.71,6.46-6.13,16.64-6,28,.05,4.31-1.84,8.24-2,13-1.68,51.51,4.51,105.84,0,155,13.78-5.92,31.61-16.36,44-27-1.74-6.93-8.59-8.74-11-15Z"/>
      <path class="cls-1" d="M302,609.09c.8-7.9,2.34-21.29-3-28-.81,5.74,1.58,10.86,0,12-1.53-3.47-4.13-5.87-7-8-2.93-.26-3.07,2.26-6,2,.31,8.04,10.74,12.01,14,11,.21,3.46-2.82,9.2,2,11Z"/>
      <path class="cls-1" d="M138,368.09c2.07.59,6.57-1.24,7,1,.14,4.86-1.23,11.23,4,11v-10c.8-3.2,8.17.17,7-5-.51-1.09-5.71.77-7-2v-10c-1.28-.05-1.38-1.28-3-1-1.85,2.15-.67,7.33-1,11-4.44-.44-7.44.56-7,5Z"/>
      <path class="cls-1" d="M173,420.09c.67-13.81,1.45-33.18,1-47-2.95,11.76-2.78,37.15-1,47Z"/>
      <path class="cls-1" d="M176,305.09c-1.88,6.37-3.16,14.7-1,23-.46-5.9,3.54-19.03,1-23Z"/>
      <path class="cls-1" d="M272,142.09c-11.22-21.16-28.89-33.5-45-48-2.44,16.56-18.27,19.73-30,27-4.87,21.51-15.54,42.39-16,65-7.28,3.02-7.92,11.63-5,20-1.96,3.7-5.18,6.15-7,10,2.62,11.31-4.11,12.24-8,19-3.1-8.91-8.08-11.54-7-20,.61-4.76,5.67-7.23,6-12,.29-4.13-2.72-8.11-4-12,17.6-16,17.23-49.71,26-72-2.35-2.65-2.62-7.38-6-9-16.79,18.54-37.47,33.2-48,58-2.32,2.68-7.66,2.34-8,7,5.01,3,7.67,13.64,11,15-.94-.84-3.35-5.16-1-6,.98,4.04,5.83,9.47,5,12-5.42-3.21-10.99-7.8-14-18-6.68,8.99-9.68,21.65-17,30,5.93,7.26,13.86,12.93,20,21,7.84,10.3,12.41,23.64,21.57,30.06-.39-.49-.6-1.16-.57-2.06,10.39,10.61,21.35,25.98,35,30-2.39-1.32-8.02-4.59-6-7,4.36,3.39,8.75,7.02,13,11,4.11,3.85,7.92,7.88,11.68,11.53,2.66,2.05,5.12,4.3,7.5,6.6,5.63,4.24,12.71,5.79,17.82,9.87,28.19,22.47,45.84,60.49,45,109-1.4-46.2-15.91-76.85-40-102-9.43-3.03-15.82-10.11-22.82-16.87-.06-.04-.12-.08-.18-.13-2.46-1.88-4.88-4.1-7.32-6.47-.23-.18-.45-.36-.68-.53-17.62-13.14-37.35-22.62-53-39-8.3-8.69-13.78-20.13-21-30-6.95-9.5-15.07-19.87-27-24,21.21,43.82,52.03,83.27,99,98,18.48,13.24,36.41,22.58,47,41,9.85,17.14,16.48,42.45,21,68,4.75,26.88,7.17,77.22,10,109,.95,10.6.07,20.48,3,26,4.58,8.63,21.26,10.87,26,20,1.44-3.22.95-8.39,1-13-6.23-8.59-21-11.96-24-25-.83-3.6.22-8.35,0-12-1.76-29.68-10.16-65.3-10-92,2.71,22.41,7.23,47.58,10,71,1.44,12.21-1.34,23.54,2,34,3.09,9.68,15.31,13.86,22,20-1.94-60.37-9.14-129.86-15-183,9.03,47.86,11.81,104.84,16,157,4.15-115.71,6.62-220.17-12-316-7.71-22.59-10.21-49.65-21-70ZM246,122.09c-4.14,6.53-7.92,13.42-9,23-1.43-6.38,2.55-18.58,9-23ZM244,128.09c-.12,3.57-1.94,14.04-6,17,1.4-6.26,3.19-12.14,6-17ZM208,210.09c1.81,3.49,5.99,8.93,5,12-2.01-3.29-6.9-8.01-5-12ZM179,204.09c4-1.97,6.33,6.31,7,11-3.57-3.46-4.5-8.94-7-11ZM185,205.09c4.99,2.34,5.04,9.63,8,14-5.28-2.05-5.8-8.87-8-14ZM199,221.09c-2.36-4.31-4.48-8.86-6-14,3.62,1.93,8.12,12.92,6,14ZM201,209.09c4.56,2.1,3.98,9.36,8,12-4.97,2.27-6.39-7.59-8-12ZM239,301.09c-8.17.35-18.81-6.85-30-4,7.17-7.7,20.39-4.44,32-2-4.98,2.28-10.8-1.39-19-1,4.1,3.9,12.17,3.83,17,7ZM226,286.09c6.31-.31,10.03,1.97,15,3-3.67,1.63-12.72.08-15-3ZM246,133.09c.15,6.85-3.29,14.14-4,22-1.78-5.45,1.14-15.57,4-22ZM246,151.09c-.88,11.49-1.91-8.57,1-9,2.09,1.51-.52,6.75-1,9ZM272,291.09c5.76,16.6,11.27,44.03,13,58-4.65-19.02-8.7-38.64-13-58ZM288,368.09c-1.71-3.62-2.11-8.56-2-14,2.4,2.93,2.02,8.65,2,14Z"/>
      <path class="cls-1" d="M145.57,259.15c.35.44.83.75,1.43.94-.49-.29-.96-.61-1.43-.94Z"/>
      <path class="cls-1" d="M254,391.09c-1.93-7.07-4.27-13.73-7-20,.26,8.91-1.67,15.19-2,21,3.13-.2,7.34.67,9-1Z"/>
      <path class="cls-2" d="M218,14.09c.79-3.85-4.79-3.85-4,0h4Z"/>
      <path class="cls-2" d="M205,16.09c-1.22-2.47-13.04-3.79-14,0,6.3-2.6,11.78,5.05,14,0Z"/>
      <path class="cls-2" d="M212,51.09c-3.14-3.2-4.86-7.8-8-11,3.08,10.19,5.14,15.35,1,26h5c4.11-7.46-2.55-15.15,2-15Z"/>
      <path class="cls-2" d="M174,69.09c-8.11-3.68.6-13.83-2-24-3.48-.65-8.34-3.68-12-1-.06,4.39,4.45-.68,8,1,5.29,4.38,1.04,14.3,0,21,.84,1.57,3.93,5.96,6,3Z"/>
      <path class="cls-2" d="M196,49.09c-1-5.45-13.59-8.45-18-4,8.26-.93,12.6,2.07,18,4Z"/>
      <path class="cls-2" d="M182,46.09c-2.03,3.73-1.86,4.07-1,8,4.07-.29,5.82-3.51,10-1-.58-4.75-5.34-5.32-9-7Z"/>
      <path class="cls-2" d="M179,64.09c.48,3.15-4.58.75-5,3,2.98,1.02,6.4,1.6,9,3-.08-3.25-1.28-5.39-4-6Z"/>
      <path class="cls-2" d="M194,67.09c-.84,1.16-1.32,2.68-1,5,1.38-.04,2.2.47,3,1,2.53-2.51-.43-4.65-2-6Z"/>
      <path class="cls-2" d="M210,73.09c-1.61,4.39-3.9,8.1-6,12,3.88-2.24,7.63-1.72,10-7-1.99-1.01-2.28-3.72-4-5Z"/>
      <path class="cls-2" d="M166,77.09c6.84-1.36,3.88,1.87,7,3,.48-5.71,7,.13,8-4-4.82-.95-12.59-3.43-15,1Z"/>
      <path class="cls-2" d="M244,128.09c-2.81,4.86-4.6,10.74-6,17,4.06-2.96,5.88-13.43,6-17Z"/>
      <path class="cls-2" d="M247,142.09c-2.91.43-1.88,20.49-1,9,.48-2.25,3.09-7.49,1-9Z"/>
      <path class="cls-2" d="M179,204.09c2.5,2.06,3.43,7.54,7,11-.67-4.69-3-12.97-7-11Z"/>
      <path class="cls-2" d="M185,205.09c2.2,5.13,2.72,11.95,8,14-2.96-4.37-3.01-11.66-8-14Z"/>
      <path class="cls-2" d="M69,223.09c-2.3-5.04-4.18-10.49-7-15,.69,6.64,2.75,11.92,7,15Z"/>
      <path class="cls-2" d="M57,209.09c3.25,10.75,6.56,21.44,13,29-4.08-9.92-7.81-20.19-13-29Z"/>
      <path class="cls-2" d="M201,209.09c1.61,4.41,3.03,14.27,8,12-4.02-2.64-3.44-9.9-8-12Z"/>
      <path class="cls-2" d="M208,210.09c-1.9,3.99,2.99,8.71,5,12,.99-3.07-3.19-8.51-5-12Z"/>
      <path class="cls-2" d="M97,259.09c.48,3.15-3.07,2.26-2,6,2.57.48,5.43-6.85,2-6Z"/>
      <path class="cls-2" d="M226,286.09c2.28,3.08,11.33,4.63,15,3-4.97-1.03-8.69-3.31-15-3Z"/>
      <path class="cls-2" d="M105,288.09c1.82,11.18,3.54,22.46,8,31-3.15-9.85-3.63-22.37-8-31Z"/>
      <path class="cls-2" d="M241,295.09c-11.61-2.44-24.83-5.7-32,2,11.19-2.85,21.83,4.35,30,4-4.83-3.17-12.9-3.1-17-7,8.2-.39,14.02,3.28,19,1Z"/>
      <path class="cls-2" d="M125,329.09c-.33,7.24-1.45,8.53,0,14,.09-4.09,4.42-11.71,0-14Z"/>
      <path class="cls-2" d="M197,362.09v-11c-2.4-.61-4.56-1.44-8-1,.67,5.01-.93,7.74-1,12-2.35.32-3.75,1.58-7,1-.87,4.06-.58,4.8,0,10,2.07.59,6.57-1.24,7,1-.1,4.1-.2,8.2,1,11h6c1.04-2.63,1.2-6.14,1-10,2.51-2.56,3.35-.58,7-2v-8c-1.28-1.72-5.98-.02-6-3ZM202,371.09c-2.66.01-5.71-.38-7,1-.62,3.71,1.63,10.29-2,11-5.73.73-1.13-8.87-4-11-.12-2.21-4.24-.42-6-1-1.12-3.15-.09-2.26,0-6,3.47.8,3.84-1.49,7-1-.02-4.35-.33-9,1-12,6.91.5,3.93,6.01,4,12,2.75,1.91,9.02.31,7,7Z"/>
      <path class="cls-2" d="M288,368.09c.02-5.35.4-11.07-2-14-.11,5.44.29,10.38,2,14Z"/>
      <path class="cls-2" d="M233,402.09c1.83-11.51,1.52-29.72-1-35,.66,11.34-1.33,25.33,1,35Z"/>
      <path class="cls-2" d="M128,633.09c-.85-73.54,3.41-172.14,5-242-5.16,70.61-7.7,172.56-6,245,6.33.2,12.48-.27,18,0,3.4.17,11.68,4.41,13-2-4.88,1.17-21.42.4-30-1Z"/>
      <path class="cls-2" d="M163,400.09c-.34,27.07-3.74,60.63-3,97,.05,2.65.27,11.6,1,9,2.8-9.92.9-18.72,1-28,.28-26.66,2.13-54.69,1-78Z"/>
      <path class="cls-2" d="M257,436.09c-1.01-3.33,2.21-10.88-2-11,1.6,4.78-.71,7.32,2,11Z"/>
      <path class="cls-2" d="M170,451.09c.56-4.34,2.17-9.6-1-12,.64,3.7-1.29,9.96,1,12Z"/>
      <path class="cls-2" d="M248,497.09c-.16,1.18.17,2.84-1,3,.45,14.88,1.89,28.78,2,44v5c.84,3.18,1.32-1.77,1-3-.03-19.02-.31-31.65-2-49Z"/>
      <path class="cls-2" d="M246,611.09c.03-29.57,1.76-86.79-2-110,1.38,35.67-.63,70.6,2,110Z"/>
      <path class="cls-2" d="M160,509.09c-1.85,1.97-.31,6.18,1,8-.52-4.33.3-6.19-1-8Z"/>
      <path class="cls-2" d="M193,563.09c-1.33-3-1.02-7.65-1-12-2.16-.84-3.41-2.59-7-2v14c-2.36,1.31-6.91.42-9,2v8c1.79,1.21,5.82.18,7,2-.39,5.51,1.08,6.94,0,11,1.62,1.72,4.18,2.48,8,2,1.52-4.15,2.53-8.8,2-15,2.46-.13,4.82-.15,6,1,1.04-2.63,1.2-6.14,1-10-2.75-1.64-5.09.65-7-1ZM192,570.09c-2.8,3.53,1.23,13.89-3,16-6.79,1.13-3.03-8.31-4-13-1.88-3.25-4.57.11-8-2-.72-5.39,4.07-5.26,9-5,2.01-2.99.57-9.43,1-14h3c1.13,4.74.23,6.43,1,13,.86,2.47,6.96-.29,8,2-1.08,3.91-2.76,4.22-7,3Z"/>
      <path class="cls-2" d="M131,572.09c2.68,1.86,4.43-1.36,7,2v11c1.45,1.55,5.12.88,8,1,1.44-3.22.95-8.39,1-13,4.39-.52,3.28-.31,7-1v-8c-2.75-1.64-5.09.65-7-1-.68-3.65-1.4-7.27-1-12-9.81-4-6.43,10.19-8,13-2.95-.86-4.05-.86-7,0v8ZM139,566.09c1.29-3.71,1.63-8.37,2-13h3c-.56,4.56,1.77,6.23,1,11-.55,4.21,7.82-.49,7,4,.81,4.15-6.16.5-7,3-.42,4.58,1.29,11.29-2,13-5.3.3-2.15-7.85-3-12-.88-3.12-8.04.04-8-4-.8-3.8,4.73-1.27,7-2Z"/>
      <path class="cls-2" d="M245,614.09c.35,2.76-2.87,7.02,0,9,1.15-1.27,2.01-7.88,0-9Z"/>
      <path class="cls-2" d="M273,658.09c-.14,4.01-6.78-.64-11,1-.01,4.44-5.27,11.63-1,14,3.25-5.54,1.97-9.12,3-12,5.24-.12-.62,8.65,2,9,2.04-1.96.1-7.9,4-8,.61,2.39-1.25,7.25,1,8,2.14-2.2-.18-8.84,4-9,.62,2.71-1.27,7.94,1,9,1.73-3.24,1.43-11.73-3-12Z"/>
      <path class="cls-2" d="M206.18,309.22c-2.38-2.29-4.83-4.55-7.5-6.6,2.44,2.37,4.86,4.59,7.32,6.47.06.04.12.08.18.13Z"/>
      <path class="cls-2" d="M285,168.09c-3.43-12.85-7.97-25.93-14-36-12.46-20.8-35.49-28.94-47-52,11.5-9.62,22.06-30.17,17-50-2.2-8.61-10.31-14.09-13-21-8.26-1.91-14.37-8.34-23-9-22.56-1.72-50.16,20.6-51,42-.15,3.72,2.3,7.98,3,12,3.3,19.02,2.35,31.31,10,43,3.63,1.37,9.4.6,11,4-14.23,22.12-43.27,38.05-54,67-1.77.23-5.01-1.01-4,2-7.91,12.42-9.3,31.36-24,37-7.85-8.45-13.71-19.46-21-31-6.12-9.7-19.55-23.97-21-34-3.5-24.12-7.64-41.58-21-56-3.5-3.77-8.42-10.6-15-10-2.27,1.06-.38,6.29-1,9-3.2.14-7.65-.99-7,3,.85,11.26,11.59,6.46,16,14-1.19,2.81-4.28,3.72-6,6-4.88-2.34-13.86-8.22-20-3,.01,10.65,11.66,9.67,17,15,.31,14.07,10.75,24.78,16,38,4.03,10.15,6.34,24,10,37,3.57,12.66,11.44,26.51,12,38,.31,6.27-2.88,14.98-4,23-2.45,17.47-3.86,34.05-3,53,2.73,60.14,7.75,123.41,26,176,.98,2.35,4.3,2.37,6,4,4.45,18.25.58,35.83,8,52,4.42,9.63,15.08,16.19,16,27,.37,4.36-1.57,8.77-2,13-3.55,34.61-3.25,72.49-6,106,1.75,2.58,6.97,1.7,10,3-5.12,4.76-8.78,14.45-6,24,21.85,6.43,33.47-9.4,47-19-3.28,6.18-8.59,15.98-4,24,1.72-.05,2.56.77,3,2,21.22-1.78,30.59-15.41,43-26,15.46-.37,29.9-4.91,42-3,6.14-5.28,15.05-5.7,24-6,2.15-8.27,2.01-16.83,2-29,18.86-8.52,34.64-18.21,50-32-1.12-39.54,1.06-69.04,3-104,3.07-55.49,3.86-126.05,2-178-2.13-59.55-14.59-128.46-27-175ZM196,119.09c-3.42,17.66-12.7,35.35-16,52-1.46,7.38-.58,15.86-8,22-1.18,5.85,2.5,6.83,2,12-8.74,4.59-3.43,23.24-14,26-4.53-7.19-6.23-21.57,2-26-.95-5.05-2.87-9.13-3-15,16.72-17.3,16.35-52.34,25-70-.28-5.72-5.37-6.63-5-13,4.89,2.11,7.51,6.49,13,8-12.99,23.58-12.73,55.74-28,78,7.85,11.65-3.98,16.84-4,29,3.16-9.05,13.17-17.14,6-28,14.41-23.65,15.32-54.66,28-80,15.1-2.57,22.94-12.4,30-23,2.36,17.16-16.89,21.01-28,28ZM183,103.09c11.4,6.59,26.42,2,34-11,2.56,7.86-26.35,28.79-34,11ZM171,95.09c-7.79-9.54-10.42-24.25-11-41,4.36.36,5.34-2.66,9-3-2.87-5.34-5.69-3.96-10-1-2.85-14.38,15.25-15.94,26-20-7.78-2.32-22.32,4.68-27,12-2.82-1.01.28-4.25,0-6,9.76-2.26,21.32-10.42,35-12-1.68,1.98-5.74,1.59-7,4,3.03,2.31,7.29-2.67,11-3-.78-.89-1.08-2.26-1-4-14.22,2.11-24.3,8.37-36,13,6.55-23.49,48.63-41.09,68-20,.98,1.07,5.16,9.93,2,7-2.15-2.51-4.49-4.85-7-7,.54,4.81,10.49,8.83,12,16-2.2-1.14-3.32-3.34-6-4,3.72,5.29,11.93,10.27,9,19-3.39-5.79-8.44-17.18-18-20,9.22,8.25,16,22.68,14,39-4.38-4.62-4.55-13.45-8-19,3.21-.88,1.37,3.3,4,3-4.96-12.38-19.81-14.86-28-24,2.22,8.12,16.94,12.39,24,19-.83,10.65,3.98,21.29,0,30-1.3-2.37-1.67-5.66-3-8-1.34.2-1.86,4.15-2,0-2.4-.4.55,4.55-3,3,10.86,24.64-18.68,44.76-37,31,3.41-4.59,10.67-5.33,13-11-7,3-11.09,8.91-23,7ZM13,90.09c-.16-1.16.22-1.78,1-2,10-.57,17.27,9.99,20,20-5.43-7.57-11.39-14.61-21-18ZM25,108.09c3.37,3.18,4.56,13.14,3,18-3.33-3.55-4.85-12.38-3-18ZM38,155.09c-16.71-10.62-12.18-42.49-35-47,14.1-5.69,21.13,11.17,24,21,5.44-.78,3.75-6.19,3-11,5.43,3.9,2.03,16.64,10,18-2.88-6.79-8.04-19.96-12-29,8.69,4.31,11.15,14.85,17,22-4.34-16.66-15.77-34.89-26-49,21.4,9.28,29.36,40.63,34,70-3.53,4.62-9.97,11.16-18,8-.6-2.6.4-3.6,3-3ZM38,163.09c8.27-.21,13.42-8.39,20-7-4.2,8.18-10.39,8.23-19,12-.84-1.16-1.32-2.68-1-5ZM39,171.09c5.6-4.73,16.59-4.08,19-12,2.04.29,1.96,2.71,4,3-2.77,2.98-1.9,6.84,0,10,3.08.75,1.92-2.75,5-2,14.15,12.55-3.67,27.05-20,27-3.81-7.52-3.44-19.22-8-26ZM73,184.09h3c2.48,12.67-16.68,22.44-28,18,7.58-6.75,22.42-6.24,25-18ZM50,206.09c13.38-1.28,23.68-5.65,28-16,10.53,15.44,26.26,28.84,27,51,2.96-1.75-.58-5.33,0-8,4.48,4.74-.09,16.16,0,23-2.78-6.95-3.67,6.34-5,10,2.73-.94,2.29-5.04,3-8,1.09.25.68,1.99,2,2,1.52-6.48,4.19-11.81,4-20,5.7,6.64,9.36,15.3,16,21-5.17,13.69-15.71,21.58-31,19-24.58-4.15-36.12-50.37-44-74ZM85,281.09c3.97,2.49.71,19.24,0,7-.13-2.3.09-3.22,0-7ZM77,483.09c-18.58-64.31-29.49-153.76-20-241,8.46,12.21,13.04,28.3,26,36,4.45,51.34,13.45,88.27,26,129-6.98-37.5-19.34-69.69-22-112,5.57,31.76,12.45,62.22,23,89-6.99-30.34-19.96-63.37-22-102,12.31,5.7,27.98-2.66,34-6-6.72,77.49-7.05,155.92-16,229-8.12-42.64-20.15-89.27-27-138-2.26-16.11-6.24-31.68-8-47-2.44-21.22-.61-33.01-5-47,1.96,66.75,22.44,150.86,37,230-5.81-9.52-12.88-17.79-26-20ZM98,498.09c-2.97,5.03-7.23,8.77-10,14-3.55-4.2-2.77-14.95-4-24,7.25.75,8.85,7.15,14,10ZM98,501.09c2.82-.16,2.51,2.83,4,4-2.56,8.78-10.63,12.04-12,22-7.07-11.13,3.33-18.21,8-26ZM104,555.09c-4.69-5.31-8.85-11.15-13-17-1.4-16.73,8.2-22.47,14-32,2.82,14.31-1.16,37.19-1,49ZM102,710.09c.3-2.48-.42-4.71,0-7,3.51-18.93,24.34-17.82,41-11-8.23,10.39-23.65,23.28-41,18ZM145,716.09c-1.04-13.37,4.99-19.68,11-26,9.54,1.46,17.99,4.01,28,5-10.84,9.16-19.53,20.47-39,21ZM253,507.09c.42,52.21,2.47,113.48-2,176-4.65.47-6.67,1.35-11,0,3.56-55.53.87-106.19,1.59-159.57-1.28,23.96-4.71,50.02-2.59,72.57,2.43,25.82,1.21,54.12-1,87-4.15,1.61-6.8,7.47-13,4,0-7.95-1.16-21.72-2-32-3.96,9.17,3.72,22.06-2,31,.59-12.59-.72-23.28-1-35,1.44.23.35,2.98,2,3-3.36-36.1-.44-80.96-3-121-1.57,29.49-.1,55.31,0,83-4.57-11.44-1.51-21.38-4-39-1.63,41.97,5.72,66.71,5,110-10.55,1.11-19.59,3.74-31,4-.62-8.92,1.41-15.21,0-20-2.88,7.8-.77-.84-3-4-2.81,8.25,1.64,13.72,0,23-12.53.86-21.92-1.42-29-6-12.3,9.47-23.13-1.55-41,0-3.5-12.43-1.43-28.8-1-45-4.09,16-2.32,25.97-3,45-5.17-.5-6.15,3.18-12,2,5.35-111.97,13.45-215.31,22-321,1.16-14.29-1.51-29.37,0-44,1.5-14.59,2.67-18.23,4-29,7.4,3.43-.16,14.2,1,21,3.96-1.04.7-9.3,3-12,1.69,11.76-1.66,25.54-3,43-2.78,36.15-1.59,70.91-4,105-1.16,16.42-2.32,34.39-2,52,.73,40.03-1.7,98.05-3,139,10.73,4.6,31.92-1.25,41,5-2.18,10.48-.44,24.89-1,37,4.59-11.6.2-26.62,4-38,14.29-.94,32.03.59,49,0,.6-79.84,1.81-161,3-234,.14-8.51-1.52-36.8,0-55,.59-7.1,3.28-17.94,2-28,18.89,9.54,8.35,42.34,13,66,4.74-17.45-3.76-40.86,1-55-.14,7.69.68,16.3,1,26,2.32-5.35.34-14.99,1-22,3.44,5.42,10.34,9.98,12,18,4.81,23.21-9.57,55.88-11,76,9.98,1.64,8.91-7.75,14-11,3.12,14.8,2.73,32.78,7,47,3.31,11.01-1.11,21.03-1,35ZM127,267.09c8.2,2.14,11.02,9.64,17,14-4.77,1.9-12.62.71-18,2,1.69-3.98.78-10.55,1-16ZM151,288.09c-9.44-.77-16.04,1.29-25,1,.56-7.97,22.93-6.69,25-1ZM164,399.09c2.77-33.95,2.83-66.42,7-97,4.78,6.77,1.21,16.09,1,24-.88,33.63-3.38,56.28-5,91-3.62,77.83-2.73,169.48-5,222-14.26.59-22.3-1.75-40-1,2.2-46.75,1.89-99.03,2-120,.15-28.77,4.45-101.08,7-157,.87-19.1,1.81-37.75,4-56,.49-4.08-2.44-10.15,3-13,.62,20.69-4.74,47.02-5,71-.1,9.42,1.25,16.19,0,26,3.68-6.15-.59-14.45,5-19,.44,1.48,1.28-.39,3,0,5.68.32.02,11.98,6,12,7.61-.68,3.64-6.59,4-11,.84-2.16,6.38.38,7-2,1.46-8.62-3.46-5.53-7-8,0-3.62,1.88-8.09-1-11-11.59-1.24-1.9,13.22-13,13-2.48-23.45.93-47.96,4-71,13.63-1.63,21.28,2.72,28,8-1.94,34.3-6.16,64.47-5,99ZM207,349.09c2.99-6.68,3.03-16.3,3-26,5.18,15.76.47,33.94,0,52-.69,26.32,1.31,55.15-2,80-.83-38.62-.76-72.02,0-105-5.3,43.27-.47,91.2-3,139,2.54-5.46-.35-16.35,2-22,2.83,34.13-1.2,82.91,0,120,.49,15.06,1.58,34.68,1,53h-44c3.35-54.23-.34-115.67,2-169,.59-13.34,3.3-26.53,2-38,5.68.97.85-3.9,3-5,.9,5.92,3.54,22.19-2,25-1.01,58.15-1.26,118.56-1,183,9.83,3.02,21.81.3,35,1,.16-57.07,2.75-86.72,2-142-4.02,41.64-.86,91.08-4,140-12.34-.4-20.62.43-30,1,.34-96.04.78-222.99,10-328,10.62,3.06,23.77,8.89,28,15-.36,10.42-2.56,12.96-2,26ZM169,424.09v-14c.37-3.86.17-8.42,1-14,1.72,4.5.35,9.59,0,14-.64,4.36,1.3,11.3-1,14ZM171,521.09c-3.11-.22-1.69-4.98-2-8,3.11.22,1.69,4.98,2,8ZM175,371.09c-2.75-14.43.17-31.83,2-45,.23,5.76-1.27,30.79-2,45ZM175,328.09c-2.16-8.3-.88-16.63,1-23,2.54,3.97-1.46,17.1-1,23ZM174,373.09c.45,13.82-.33,33.19-1,47-1.78-9.85-1.95-35.24,1-47ZM146,352.09c1.62-.28,1.72.95,3,1v10c1.29,2.77,6.49.91,7,2,1.17,5.17-6.2,1.8-7,5v10c-5.23.23-3.86-6.14-4-11-.43-2.24-4.93-.41-7-1-.44-4.44,2.56-5.44,7-5,.33-3.67-.85-8.85,1-11ZM247,371.09c2.73,6.27,5.07,12.93,7,20-1.66,1.67-5.87.8-9,1,.33-5.81,2.26-12.09,2-21ZM254,394.09c.8,1.87,1.67,3.66,2,6-5.04.71-5.59-3.08-11-2v-4h9ZM264,448.09c-5.3.7-3.34,8.66-6,12-2.96-5.18,1.92-9.28-1-14-.17,4.36-1.07,10.23-3,17-.98-17.02-3.3-32.7-6-48-7.05,2.61-3.24,16.1-11,18,1.24-7.53,2.85-23.08,7-31,24.02-2.02,11.19,32.81,20,46ZM257,652.09c4.51-49.16-1.68-103.49,0-155,.16-4.76,2.05-8.69,2-13-.13-11.36-4.71-21.54,6-28-1.73,34.79,10.45,68.82,6,99-3,20.39-8.52,37.65-11,57,5.65-15.65,8.7-37.15,13-59,2.99,20.69-7.12,49.85-10,68,8.24-19.96,9.29-41.43,14-64,8.94,11.43-.84,35.28,12,43,1.04,2.63,1.2,6.14,1,10,2.41,6.26,9.26,8.07,11,15-12.39,10.64-30.22,21.08-44,27ZM300,598.09c-3.26,1.01-13.69-2.96-14-11,2.93.26,3.07-2.26,6-2,2.87,2.13,5.47,4.53,7,8,1.58-1.14-.81-6.26,0-12,5.34,6.71,3.8,20.1,3,28-4.82-1.8-1.79-7.54-2-11ZM293,599.09c7.23-.06,4.26,6.9,2,10-2.78-1.22-1.86-6.14-2-10ZM286,585.09c-.86-11.17-3.21-14.66-1-25,7.72,3.28,13.81,8.19,17,16-3.02,5.31-10.82,5.84-16,9ZM303,619.09c-3.64-2.54-10.01-6.6-6-11,2.6.4,3.02,2.98,6,3v8ZM305,528.09c-4.19-52.16-6.97-109.14-16-157,5.86,53.14,13.06,122.63,15,183-6.69-6.14-18.91-10.32-22-20-3.34-10.46-.56-21.79-2-34-2.77-23.42-7.29-48.59-10-71-.16,26.7,8.24,62.32,10,92,.22,3.65-.83,8.4,0,12,3,13.04,17.77,16.41,24,25-.05,4.61.44,9.78-1,13-4.74-9.13-21.42-11.37-26-20-2.93-5.52-2.05-15.4-3-26-2.83-31.78-5.25-82.12-10-109-4.52-25.55-11.15-50.86-21-68-10.59-18.42-28.52-27.76-47-41-46.97-14.73-77.79-54.18-99-98,11.93,4.13,20.05,14.5,27,24,7.22,9.87,12.7,21.31,21,30,15.65,16.38,35.38,25.86,53,39,.23.17.45.36.68.53-3.76-3.65-7.58-7.69-11.68-11.53-4.25-3.98-8.64-7.61-13-11-2.02,2.41,3.61,5.68,6,7-13.65-4.02-24.61-19.39-35-30-.02.9.19,1.57.57,2.06.47.33.93.65,1.43.94-.59-.19-1.08-.5-1.43-.94-9.17-6.42-13.74-19.76-21.57-30.06-6.14-8.07-14.07-13.74-20-21,7.32-8.35,10.32-21.01,17-30,3.01,10.2,8.58,14.79,14,18,.83-2.53-4.02-7.96-5-12-2.35.84.06,5.16,1,6-3.33-1.36-5.99-12-11-15,.34-4.66,5.68-4.32,8-7,10.53-24.8,31.21-39.46,48-58,3.38,1.62,3.65,6.35,6,9-8.77,22.29-8.4,56-26,72,1.28,3.89,4.29,7.87,4,12-.33,4.77-5.39,7.24-6,12-1.08,8.46,3.9,11.09,7,20,3.89-6.76,10.62-7.69,8-19,1.82-3.85,5.04-6.3,7-10-2.92-8.37-2.28-16.98,5-20,.46-22.61,11.13-43.49,16-65,11.73-7.27,27.56-10.44,30-27,16.11,14.5,33.78,26.84,45,48,10.79,20.35,13.29,47.41,21,70,18.62,95.83,16.15,200.29,12,316Z"/>
      <path class="cls-2" d="M242,504.09c-.2,6.53-.33,13-.41,19.43.36-6.68.56-13.2.41-19.43Z"/>
      <path class="cls-2" d="M269,428.09c.84-48.51-16.81-86.53-45-109-5.12-4.08-12.19-5.64-17.82-9.87,7,6.76,13.39,13.84,22.82,16.87,24.09,25.15,38.6,55.8,40,102Z"/>
      <path class="cls-2" d="M199.96,28.7c-.62-.9-1.27-1.78-1.96-2.61.6.93,1.26,1.78,1.96,2.61Z"/>
      <path class="cls-2" d="M199.96,28.7c5.21,7.6,8.1,17.52,16.04,22.39-1.18.48-2.27,1.07-3,2,.61,1.73,4.74-.08,5,2,.33,3.62.29,14.74-8,13-.95,3.61,3.94,1.39,6,2,2.26-5.08,6.76-13.98,2-20,1.43.24,1.69,1.65,3,2,.27-3.98-5.64-6.97-4-9,2.3,2.03,4.43,4.24,7,6-6.03-8.78-17.23-12.39-24.04-20.39ZM218,48.09c-2.72,1.67-6.88-3.76-8-7,3.66,1.34,4.66,5.34,8,7Z"/>
      <path class="cls-2" d="M246,122.09c-6.45,4.42-10.43,16.62-9,23,1.08-9.58,4.86-16.47,9-23Z"/>
      <path class="cls-2" d="M242,155.09c.71-7.86,4.15-15.15,4-22-2.86,6.43-5.78,16.55-4,22Z"/>
      <path class="cls-2" d="M116,251.09c-3.69,4.26-3.91,15.75-3,19,5.52-3.29,2.85-11.38,3-19Z"/>
      <path class="cls-2" d="M193,207.09c1.52,5.14,3.64,9.69,6,14,2.12-1.08-2.38-12.07-6-14Z"/>
      <path class="cls-2" d="M71,250.09c-6.63-13.03-11.72-27.61-18-41,4.34,15.32,9.59,29.75,18,41Z"/>
      <path class="cls-2" d="M67,271.09c-2.93-1.4.93-9.6-2-11-2.38,2.59-.12,13.04,2,11Z"/>
      <path class="cls-2" d="M101,285.09c3.55,16.12,5.96,33.37,13,46-5.07-14.6-6.98-32.35-13-46Z"/>
      <path class="cls-2" d="M285,349.09c-1.73-13.97-7.24-41.4-13-58,4.3,19.36,8.35,38.98,13,58Z"/>
      <path class="cls-2" d="M161,532.09c.07-2.63-1.03-7.28-1-9,.21-12.77-1.91,7.71,1,9Z"/>
      <path class="cls-2" d="M160,533.09c-1.64,4.21-1.26,9.04,1,11-1.18-6.49.4-6.88-1-11Z"/>
      <path class="cls-2" d="M159,590.09c-.16,12.33-1.3,24.61,0,36,2.9-36.95.64-49.2,2-75-4.07,9.5-1.85,27.78-2,39Z"/>
    </g>
  </g>
</svg>