<?xml version="1.0" encoding="UTF-8"?>
<svg id="Layer_2" data-name="Layer 2" xmlns="http://www.w3.org/2000/svg" viewBox="0 0 323.39 522.28">
  <defs>
    <style>
      .cls-1 {
        fill-rule: evenodd;
      }
    </style>
  </defs>
  <g id="Layer_1-2" data-name="Layer 1">
    <g>
      <path class="cls-1" d="M152.1,41.77c2.32,3.12,1.19,8.63.69,12.33-2.72-.02-2.84-2.64-4.11-4.11-1.75.53-.15,4.42-2.74,4.11v-11.65c3.04.84,2.51,5.26,4.8,6.85,1.83-1.14-.38-6.32,1.37-7.54Z"/>
      <path class="cls-1" d="M139.77,42.45c3.61,2.24,2.06,5.43,2.74,10.28-1.23-.09-1.45.84-2.74.69-1.67-1.85-.82-7.68,0-10.96Z"/>
      <path class="cls-1" d="M176.08,42.45c1.11-.19,1.18.65,2.06.69.82,2.05,1.76,9.29-.69,10.28-3.03-1.09-.58-7.64-1.37-10.96Z"/>
      <path class="cls-1" d="M161.01,45.88c1.4.2,1.34,1.85,2.74,2.06-.01,1.88-3.23,1.63-4.11.69-.5-1.87,1.36-1.38,1.37-2.74Z"/>
      <path class="cls-1" d="M180.19,84.25c2.57-.52,1.49,2.62,3.43,2.74-.31,1.74-4.81-.7-3.43,2.74-2.21-.53-3.58-1.9-4.11-4.11,1.35.22,4.89,2.12,4.11-1.37Z"/>
      <path class="cls-1" d="M32.89,106.86c-2.13.07-1.96-2.16-4.8-1.37.53-2.53,4.65-.6,4.8,1.37Z"/>
      <path class="cls-1" d="M159.64,134.95c2.16-.33,2.68.98,4.11,1.37.28,1.65-1.25,1.49-.69,3.43h-3.43c-.98-.91-.98-3.88,0-4.8Z"/>
      <path class="cls-1" d="M154.84,186.33c3.15,2.44-1.68,8.23-1.37,12.33-2.8-2.38,1.68-8.01,1.37-12.33Z"/>
      <path class="cls-1" d="M158.27,219.91c3.4,4.14,2.68,12.39,3.43,19.18-3.7-2.73-.9-13.54-3.43-19.18Z"/>
      <path class="cls-1" d="M117.16,232.93c-.63,1.2-1.27,2.38-3.43,2.06-.36-.55-.71-1.11-.69-2.06.88-.94,3.23-.94,4.11,0Z"/>
      <path class="cls-1" d="M137.03,241.15h2.06c-.32,4.49-.13,13.24-.69,17.13-2.5-4.7.06-10.79-1.37-17.13Z"/>
      <path class="cls-1" d="M167.86,378.86h2.74v3.43c-2.15.1-2.35-1.76-2.74-3.43Z"/>
      <path class="cls-1" d="M154.84,500.13c-3.11,1.03-5.02-.15-5.48-3.43,2.18-1.51,6.46-.38,5.48,3.43Z"/>
      <path class="cls-1" d="M159.64,496.02c.76,2.8.85,4.88-1.37,6.17-3.08-.49-2.83-7.16,1.37-6.17Z"/>
      <path class="cls-1" d="M154.16,501.5c1.42.41,2.59,1.06,2.06,3.43-2.14.31-2.19-1.46-2.06-3.43Z"/>
      <path class="cls-1" d="M175.4.66c3.29,11.58.06,20.77.69,33.57,4.73,2.4,8.93-.3,15.76,1.37-1.45,8.91-.93,15.55-.69,23.98-4.87.38-11.32-.81-15.07.69-1.98,6.47,4.16,7.41,6.85,9.59,3.7,3.01,5.38,7.16,8.91,10.28-.07,3.27,1.28,5.12,2.06,7.54,39.99.5,84.75,1.26,129.49,2.06-2.75,10.27-5.99,20.05-7.54,31.52-19.35,3.79-37.6-2.88-58.24,0-7.88,1.1-15.22,5.74-23.3,6.85-11.2,1.55-21.84-.71-31.52,2.06-12.29,12.88-17.05,35.22-19.87,55.5.53,1.92,3.01,3.99,3.43,5.48,1.11,3.97-1.4,6.19-2.06,10.28-2.73,17.08.81,41.23.69,62.35-.04,6.22-.31,12.52,0,19.18.36,7.67,1.27,16.89,0,21.92-1.03,4.09-6.94,7.96-4.11,13.7-4.5,1.07-4.08-2.77-6.85-3.43-1.68,18.33-3.01,41.15,0,57.55,10.42-.53,20.94.21,28.78.69-4.5,9.43-7.44,20.43-10.96,30.83-5,1.85-14.21-.51-19.18,1.37.07,11.29-.89,26.69-.69,41.79,7.66,6.73,12.77,16.01,18.5,24.67-.41,1.64-.98,3.13-.69,5.48,8.37,17.98,33.54,20.16,34.26,43.85-53.59-.64-127.46,1.61-150.73.69,3.27-19.34,18.59-26.63,31.52-36.31-1.02-15.28,10.96-23.22,18.5-32.2,2.44,1.22,4.14-.96,7.54-.69,1.43-3.36,3.95-5.64,8.22-6.17,1.12-13.63-.33-25.4,1.37-39.74-5.98-4.9-19.69-.55-26.04-2.74,5.2-9.87,7.82-22.32,13.02-32.2,2.88-1.46,8.35-.33,12.33-.69,2.02-7.53,1.52-19.8,2.06-31.52.42-9.22-.03-18.95-1.37-27.41-2.1,2.69-4.32,5.27-5.48,8.91-6.04-28.66-6.23-61.89-6.85-90.44-.2-9.06,2.07-18.6,1.37-26.04-.22-2.32-1.77-3.98-1.37-6.17.77-4.16,4.85-5.02,6.85-8.22.76-1.21,4.32-9.35,4.8-10.96,1.45-4.89.2-11.41,0-17.13-4.01,3.26-2.7,10.79-2.74,16.44-5.09-6.89-.18-15,2.74-20.55-4.88-.99-6.84,6.86-7.54,12.33-2.76-7.56,3.47-12.05,6.85-15.76-6.33-.39-7.25,4.63-9.59,8.22.3-7.29,6.25-9.22,10.28-10.96.54-8.88-2.98-17.47-8.91-21.92-9.27-2.28-18.45-2.38-28.78-3.43-14.18-1.44-28.02-7.9-41.79-8.91-18.16-1.32-38.35,1.02-60.29,0,3.63-10.55,4.32-21.15,8.91-31.52,47.08-.45,90.75,1.7,115.11.69,2.29-6.62,6.43-11.38,10.28-16.44,4.98-1.87,10.07-3.63,12.33-8.22-.81-5.13-10.1-1.78-15.07-2.74-1.46-6.51-2.02-14.62-.69-23.98,3.75-1.5,10.2-.3,15.07-.69,1.55-11.59,1.08-23.91,1.37-34.26,8.66-.98,19.32-.78,28.09,0ZM150.73,34.92h21.92c-.6-13.13-.48-19.46.69-29.46-6.19-1.35-14.67-.41-21.92-.69-1.56,10.13-.76,19.67-.69,30.15ZM133.6,38.34c.4,5.76-.84,13.17.69,17.81,16.95,1.22,35.69,1.31,52.76,0-1.23-6.53-.09-11.36-.69-17.13-19.07-1.34-37.01-.66-52.76-.69ZM149.36,62.32c2.93,1.21,7.46-.23,12.33,0,4.08.19,10.43,3.25,10.96-1.37-5.95-1.68-20.83-3.42-23.3,1.37ZM151.42,67.8c2.19,3,3.29,9.01,6.85,11.65,1.65,1.22,8.14,3.46,9.59,3.43,5.4-.13,8.48-5.73,12.33-8.22-7.74-6.41-18.95-10.3-28.78-6.85ZM152.1,71.91c-1.56-.5-.2-3.91-2.74-3.43.02,1.64,1.76,5.02,2.74,3.43ZM147.99,68.49c-6.7.15-8.43,5.28-13.02,7.54,2.33,4.3,5.94,7.31,8.91,10.96,3.96-1.52,5.61-5.36,10.28-6.17-2.09-4.08-4.78-7.56-6.17-12.33ZM132.92,78.77c-6.95,4.19-7.3,19.79-4.8,27.41,5.31-1.09,7.16-5.63,12.33-6.85-.74-4.85,1-7.22,2.06-10.28-2.79-3.83-4.19-9.06-9.59-10.28ZM170.6,86.99c3.09,1.94,3.73,6.32,6.17,8.91,3.68-2.03,6.12-5.3,12.33-4.8.19-6.36-2.41-9.92-6.17-12.33-4.28,2.58-10,3.71-12.33,8.22ZM154.84,84.25c3.33-.42,3.52-.42,6.85,0,.29-2.15-5.38-1.57-6.85,0ZM162.38,88.36c-1.87.06-1.38-1.14-2.74,0,1.03,2.55,2.06,4.05,5.48,5.48,2.17-4.99-1.19-7.83-4.8-6.85.81.33,1.55.73,2.06,1.37ZM11.65,89.73c-2.97,8.2-5.36,16.63-5.48,24.67,17-.7,30.84,1.55,41.79-.69-12.05-1.77-35.57-2.38-26.04-17.13,4.54-.33,7.32-.47,10.96-2.74,9.36,3.72,15.91,8.02,26.04,9.59,18.65,2.89,43.82,7.72,65.77,4.11-1.05-5.47-2.05-10.17-1.37-15.76-34.18-1.61-84.89-1.11-111.68-2.06ZM195.27,91.78c.29,6.9-.13,12.41,0,17.13,28.24,6.94,57.1-3.03,82.22-6.85,3.01-3.62,9.07-4.18,10.96-8.91-28.03-1.12-67.35-1.5-93.18-1.37ZM188.42,91.78c-4.48,1.91-10.11,2.67-12.33,6.85,4.51,4.17,4.96,12.4,13.7,12.33.5-8.03,4.33-14.82-1.37-19.18ZM302.84,105.49c-10.17,6.88-27.21,2.77-34.94,11.65,14.21,1.34,32.22.41,43.16,1.37,5.07-6.75,1.99-19.79,8.91-23.3-4.13-4.25-15.07-1.27-20.55-2.06,3.91,2.02,4.61,6.94,3.43,12.33ZM157.58,95.21c-4.05-4.74-8.37.15-11.65,2.06-.5,5.98.44,10.53,4.8,11.65,4.38-2.24,6.8-6.44,13.02-6.85-.51,2.11,2.36.84,1.37,3.43-2.65.6-2.44-1.67-4.11-2.06-1.31,2.35-3.47,3.84-6.17,4.8,1.01,2.41,2.94,3.91,4.11,6.17,3.39-1.72,6.61-.63,8.91-.69.53-5.32-1.05-8.54-.69-13.7-4.09.65-8.58-1.9-7.54-4.11,2.41-.12,2.25,2.31,4.11,2.74-.31-2.89-3.11-3.29-4.8-4.8-.08.84-.2,1.62-1.37,1.37ZM41.79,105.49c-4.56-1.84-8.42-4.37-13.7-5.48-.69,2.41-1.98,1.77-4.11.69-.96,2.4,4.15,2.16,2.06,3.43-.42-.2-2.64-1.7-2.74,0,6,3.14,12.67,5.6,22.61,4.8,11.37,4.19,28.16,10.45,43.85,12.33,14.38,1.73,29.57,3.64,40.42,3.43-1.69-.41-5.32-2.4-4.11-3.43,9.92,1.7,10.38,19.5,20.55,16.44,1.33,1.03-1.2,2.89,1.37,3.43,7.23,1.29,18-.94,30.83-.69.44-1.49-1.94-2.18.69-2.06,2.61-1.01.13,3.06,2.74,2.06,10.07,1.14,11.68-8.35,17.81-12.33,9.79-6.36,23.02-2.34,32.2-3.43,6.8-.8,11.98-5.12,19.18-4.8,4.11-4.11,9.43-3.47,14.39-5.48,3.93-1.59,7.57-5.73,12.33-6.85,7.14-1.68,17.21,2.26,21.24-3.43-3.12-.84-2.69,1.88-5.48,1.37-1.31-2.49-.79-2.54-2.06-4.8,1.81-1.84,6.07-1.24,6.85-4.11-3.66,1.8-10.24,2.4-13.02,6.85.42-2.1,1.45-3.57,2.06-5.48-15.44,11.36-37.11,10.62-56.87,16.44-1.02.81-1.07,2.59-2.06,3.43.88-2.7-2-1.66-2.06-3.43-13.9.13-27.74-2.94-37.68-2.74-.95.42-.1,2.64-1.37,2.74-1.71-.39-4.29-3.43-6.17-1.37,1.93,1.04,3.9,2.03,4.11,4.8-5.03-1.65-9.16-3.4-13.7-6.85-2.27,3.89-.83,11.5-6.17,12.33-5.14-1.25-8.46-4.33-13.02-6.17-2.25,1.18-3,3.85-5.48,4.8-.31-3.28-.31-2.89,0-6.17-2.15.59-2.86,2.62-4.11,4.11-1.8-2.14.5-4.57.69-6.85-17.83-1.99-33.85-2.09-50.02.69-17.96-7.04-44.11-6.77-56.87-13.7,1.83,1.16,5.69,3.87,4.8,5.48ZM133.6,107.54c-1.03,1.03-2.89,1.23-3.43,2.74,3.88.92,11.94,1.3,15.76,0-2.7-2.77-4.28-7.19-7.54-7.54,1.18.04,1.76-.53,2.06-1.37-2.71,1.45-11.84,5.45-6.85,6.17ZM294.62,103.43c1.27,1.07,4.24-.31,4.8-2.06-1.76.53-3.88.68-4.8,2.06ZM158.27,116.45c-2.07-2.5-2.45-6.68-6.17-7.54-1.14,3.18,1.52,7.91,6.17,7.54ZM166.49,115.76c-.48-.54-3.82-1.52-4.11,0,2.49.62.42,2.02.69,4.11,1.7.1,3.32.13,3.43-1.37-2.35-1.76-2.17-2.52,0-2.74ZM152.1,167.15c1.52-1.67,3.34-3.05,6.17-3.43,1.28-3.74-.64-10.69,2.06-13.02-2.47,9.65.78,16.8,6.85,19.87.6-9.51-2.68-15.14-4.8-21.92-1.31-.32-2.95,2.11-2.74-.69-5.12,1.96-5.53,8.63-8.22,13.02-.59-6.37,4.13-13.18,9.59-15.76,8.48,6.39,6.75,25.33,6.85,36.31-1.58-6.41-3.25-12.73-8.22-15.76-2.02,4.61-1.57,11.67-2.74,17.13,4.76-.19,6.03,3.1,10.96,2.74.2-1.19-2.19-3.68.69-3.43-.91,7.53,3.93,9.32,4.8,15.07,5.62-2.48,5.65-7.66,6.17-14.39,1.14-14.77,6.78-30.88,10.96-42.48-2.99-.48-3.05,1.98-5.48,2.06-16.95-1.31-31.05,4.41-43.85-2.06.03,4.53,1.06,8.07,1.37,12.33,3.18-.21,4.74,1.2,4.8,4.11-2.37-.54-2.89.76-4.11,1.37-.13,9.77.3,16.61-.69,24.67-3.02,2.69-10.8,14.19-3.43,16.44,2.67-.53.65-5.74,4.11-5.48-.37,2.59-2.23,3.71-2.06,6.85,3.35.53,5.23,2.53,9.59,2.06,1.54-.28-.1-3.76,2.06-3.43-.61,2.89.7,3.87,2.06,4.8,4.62-3.51,11.62-2.53,17.81-5.48-2.7-10.32-10.28-15.39-23.3-13.7-2.36,2.66-4.19,5.86-6.85,8.22,5.12-6.72,3.75-16.2,8.22-23.98-1.3-2.81-2.11-5.8.69-8.22.42,1.86-.87,5.44.69,6.17ZM147.99,183.59c2.06-.91,5.24-.7,8.22-.69-1.17-6.89,1.77-13.29.69-17.81-5.43,3.71-8.15,10.12-8.91,18.5ZM178.14,198.67c.57-1.08,2.96-3.82,1.37-4.8-3.65,4.12-6.87,8.66-15.07,8.22,6.49,7.7,21.92.56,17.81-10.28-1.37,2.28-.64,6.66-4.11,6.85ZM135.66,207.57c-1.77.06-.72,2.93-3.43,2.06-1.86,26.22-.08,47.11,1.37,66.46,4.04-.3,4.42-4.26,5.48-7.54-1.82-.01-4.03.38-4.11-1.37.84-11.13-2.49-16.12,0-23.3.88,8.97-.76,16.27,2.06,23.3.44-2.53-.89-6.83.69-8.22,2.15,1.04,1.14,5.25,1.37,8.22,2.45-.29,3.66-1.83,6.85-1.37,1.95-5.04-.32-12.84,1.37-17.81,1.07,3.69-.42,11.23,0,14.39,2.34.62,6.82-.38,10.96,0-.02-11.08-2.92-16.7-2.06-26.72,2.66,8.01,2.69,21.74,2.74,30.15,4.48-.6,6.5,1.27,9.59,2.06.77-3.73-.25-5.12,1.37-7.54-2.18-8.6-3.25-24.22-4.8-32.89-1.04-5.79-1.35-13.94-6.85-15.07-.5,2.62,3.03,5.13,0,6.17-1.73-1.29,1.44-3.56-1.37-4.11-1.96,3.75.62,12.03-1.37,15.76-1.28-5.27,2.46-12.88-2.74-15.07-1.35,2.99.08,8.76-2.06,10.96.47-3.46.22-7.08,0-9.59-3.35,9.61-.47,23.5-4.11,30.83.08-5.99,2.49-23.26,0-27.41.09,3.74,0,7.31-1.37,9.59-2.08-2.62,2.62-7.2,0-10.28-1.1,2.32-.47,6.38-2.74,7.54-.42-6.18,5.49-13.3,0-16.44h-2.06c-2.3,5.69-.39,15.6-2.06,21.92-1.81-8.07.81-13.68.69-22.61-3.11,1.28-.93-2.72-3.43-2.06ZM144.57,206.2c-1.03-.12-2.53.24-2.74-.69,1.71-.35,4.13.02,4.11-2.06-4.27-1.92-7.34,2.21-9.59-.69,1-1.59,2.17,1.34,2.06-1.37-4.86.75-2.1-6.12-4.8-7.54-.2,2.31-3.04,1.99-3.43,4.11,1.01.13.63,1.66.69,2.74,3.93,1.51,8.13,12.3,13.7,5.48ZM158.27,204.83c.82,3.06,7,.77,8.22,3.43-2.44,2.11-7.02-2.32-9.59,0,.8.12.74,1.08.69,2.06,4.64,1.63,12.84,1.67,14.39-3.43-5.25.13-9.14-3.66-13.7-2.06ZM177.45,206.2c-.28,17.58,3.15,26.49,1.37,42.48-2.7-9.47-.23-22.64-2.74-32.89-1.58,1.93.86,3.92-1.37,5.48-4.51-2.35,1.31-8.15-1.37-12.33-2.95,1.62-5.32,3.81-9.59,4.11,2.57,19.38,7.3,36.15,6.85,56.87-.07,1.76-2.67.98-2.74,2.74,3.81,2.36,7.97,4.36,10.96,7.54,2.87-13.89-3.09-22.49.69-30.83.13,5.37.32,12.92.69,19.18.15,2.51.72,10.12,1.37,8.91v-3.43c.48-27.73.97-45.41-.69-68.52-.15-.77-.76-1.07-1.37-1.37-.38.99-1.07,1.67-2.06,2.06ZM146.62,213.06c3.61.41,1.31-5.08,4.8-4.8.79,2.84-1.44,2.67-1.37,4.8,4.17,4.61,8.58-4.06,4.8-7.54-6.03-1.11-11.02,2.06-8.22,7.54ZM156.21,283.63v4.11c1.64.41,3.13.98,5.48.69.61-1.45,2.09-2.03,2.06-4.11-2.82-1.95-4.2-2.01-7.54-.69ZM155.53,289.11c-1.39,13.93,2.21,27.93.69,39.05-1.95-22.28-2.74-35.54-4.8-58.92-.99-.38-1.67-1.07-2.06-2.06-8.05-1.12-12.17,5.1-9.59,12.33,2.55.04,1.71-3.32,4.8-2.74,3.26,2.22,4.86,6.1,6.85,9.59-.57,3.27-4.58,6.12-8.22,4.11-1.47,31.2,10.66,52.32,8.22,82.22-2.45.52-2.65,3.28-4.11,4.8,1,.6,2.65.54,2.06,2.74-2.16.78-1.66-1.08-2.74-1.37-1.48,4.91-5.5,7.29-7.54,11.65,10.81,3.57,12.56-10.29,20.55-13.7.33-14.91-3.01-31.11-2.74-47.96,4.11,15.9,2.14,35.39,4.8,50.02,5.12,2.42,7.7,7.37,10.28,12.33,2.55-.31,4.98-.35,7.54-2.06-4.25-5.11-7.69-11.03-10.96-17.13-1.81-12.73-1.09-29.11,0-42.48.64-7.83.94-15.75,1.37-20.55-3-8.9-3.23-21.78-2.06-32.89-.31-1.98-2.95-1.62-3.43-3.43.82-1.46,3.23-1.34,3.43-3.43-3.74-2.88-12.17-.37-15.07-.69v9.59c2.17-1.72,3.5-4.26,7.54-4.11,6.12,3.37,5.52,21.9-4.8,15.07ZM155.53,280.89c2.82-.15,5.83-.11,6.85-2.06-1.01-3.82-8.15-3.76-6.85,2.06ZM169.23,276.09c-2.46,10.78-.47,21.57,2.06,30.83,1.65-.87-.38-5.4,1.37-6.17.27,2.44.24,4.11.69,4.8,2.36-8.01,0-12.78,1.37-20.55.09,1.28.45,2.29,1.37,2.74.49-4.83-.05-8.63-3.43-9.59-.91,6.48,1.41,15.36-.69,21.24-1.12-9.64,2.39-20.38-2.74-23.3ZM134.97,308.98c10.16-4.7,7.62-21.85,2.06-30.15,1.72,13.09-2.08,17.92-2.06,30.15ZM142.51,283.63c2.59.08,3.68-1.34,4.11-3.43-1.22-.61-1.74-1.91-4.11-1.37v4.8ZM182.25,301.44c-.1-7.47.04-17.15-1.37-21.24.44,6.88-7.65,16.65,1.37,21.24ZM135.66,287.74c.15-3.02,1.07-4.72-.69-6.85.7,2.82-2.34,5.83.69,6.85ZM177.45,287.05c1.81.21,1.77-1.43,2.06-2.74-.98-.16-1.16-1.13-2.06-1.37v4.11ZM143.2,288.42c2.32,2.24,6.59.84,6.85-2.74-1.53-3.3-7.75-2.13-6.85,2.74ZM134.97,297.33c-.38-2.49,2.26-5.91-.69-6.85.43,2.08-.88,5.9.69,6.85ZM177.45,311.72c-.67-4.6,1.72-15.87-2.06-15.07,2.28,2.08-3.84,13.62,2.06,15.07ZM145.25,371.33c5.73-4.83,2.29-18.29.69-26.04-.29,10.34.14,16.52-.69,26.04ZM130.86,374.75c-3.26,8.38-7.38,15.92-9.59,25.35,19.76-.03,48.07,2.08,66.46,0,3.09-7.18,6.08-14.47,7.54-23.3-7.34-.52-11.83-.83-18.5,0,.61,3.97,7.16,7.91,6.17,15.76-5.68,1.96-9.67,2.7-15.07,0-1.3-5.08-4.34-11.34-10.96-8.91-3.26,1.33-2.45,6.46-5.48,8.91-4.91,3.97-14.75,3.76-16.44-.69-2.27-5.95,10.58-8.86,8.22-16.44-4.5-.42-6.42-.05-12.33-.69ZM143.88,405.58c.59,16.45-1.14,30.63,0,43.16,2.61,1.58,4.71-2.35,8.91-1.37,4.83,4.08,7.75,1.84,14.39,3.43,2.04-15.96,2.43-31.24,1.37-45.91-8.02.43-17.77-.87-24.67.69ZM177.45,470.67c-1.05-1.49-4.45-4.19-2.74-6.17,3.18,2.53,3.1,8.32,9.59,7.54-2.61-6.76-8.17-10.56-10.28-17.81-1.94.57-1.78-.97-3.43-.69-3.49,2.34-6.44,3.44-10.28.69-3.47,2.01-2.45,8.51-7.54,8.91,8.48-5.53-1.77-15.98-8.22-8.22-2.25-.72-2.84-3.1-4.8-4.11-6.2,1.34-5.91,9.17-15.76,6.85-5.78,6.33-12.05,12.16-14.39,21.92,2.06-.91,5.24-.7,8.22-.69,2.7-3.1,5.06-9.88,8.91-9.59-1.85,3.4-5.3,5.21-6.17,9.59,3.93,1.09,9.47.58,14.39.69,2.99-2.72,3.2-8.22,7.54-9.59.07,3.12-5.67,5.9-2.74,7.54,6.09,2.09,11.34-4.5,15.76-10.96,1.71,1.94,1.79,5.52,4.8,6.17.33.51,4.88-.56,5.48-2.06-1.46-1.05-1.98-3.04-2.74-4.8,3.65,3.72,9.54,11.82,14.39,4.8ZM196.64,498.08c-7.4-4.48-11.28-12.47-18.5-17.13,2.26,8.78,7.01,22.12,18.5,17.13ZM185.68,500.13c-1.71-6.69-13.47-14.43-8.22-26.04-3.43-.23-4.79,1.6-8.22,1.37-.8-4.21-7.35-1.99-9.59,0,1.96,12.11,13.94,23.61,26.04,24.67ZM198.69,498.76c-1.09,1.65-1.87,3.61-4.11,4.11-1.66-1.33-4.14-2.25-6.17-1.37-.5,2.38.75,6.5,0,6.85-1.76-1.21-2.43-3.51-2.06-6.85-3.97.75-10.97,1.47-10.96,4.8,0,2.3,3.34,1.61,6.85,4.11,2.16,1.54,2.94,3.59,4.8,4.11,7.37,2.08,17.06-1.6,20.55-1.37-3.46-2.71-9.72-6.25-10.28-9.59,5.16,2.84,9.33,6.66,13.02,10.96,2.23-1.07,4.74.38,7.54-.69-5.22-18.1-32.27-17.95-31.52-39.74-1.3-1.22-4.53-.5-6.85-.69.46,11.78,13.03,17.02,19.18,25.35ZM146.62,478.89h-8.22c-5.35,8.12-13.81,13.14-19.18,21.24h5.48c.46-2.74,2.29-4.1,3.43-6.17,2.12,2.2-3.05,4.41-1.37,6.17,10.82-2.43,16.02-10.47,21.92-17.81-.99-.84-1.04-2.61-2.06-3.43ZM102.09,516.58c15.76,1.26,24.68,2.65,32.89-7.54-1.91-3.34-3.53-6.97-8.22-7.54-.47,2.79,2.09,6.08.69,7.54-.93-2.27-2.23-4.16-2.74-6.85-2.78-.54-3.67-.5-6.17,0,.38,2.62.88,8.85-3.43,10.28.36-2.38,1.86-3.63,2.74-5.48-3.69-4.93-.07-8.62.69-14.39-5.6,7.88-12.26,14.69-16.44,23.98ZM101.4,515.89c3.27-12.75,18.59-19.89,15.76-34.26-3.4-.76-4.24-.19-9.59,0-2.07,18.49-25.12,15.99-27.41,34.26,8.71,4.92,8.79-5.44,14.39-7.54-1.64,2.7-3.87,4.81-4.8,8.22,3,1.37,9.43.94,11.65-.69ZM119.9,481.64c-.78,3.95-.14,11.34,0,15.07,4.48-5.11,10.14-9.04,13.7-15.07-5.69.44-11.36-.79-13.7,0ZM147.31,493.28c-.43,4.77,1.08,7.6,2.74,10.28,1.7.89,2.84-2.01,3.43,0-.59,1.24-1.76,1.89-2.06,3.43,1.41,4.3,4.65,2.92,8.22,1.37.88-3.02-3.28-2.81-1.37-4.8.93.22,1.31.98,2.74.69,3.32-6,.76-15.08-4.8-16.44-3.37,2-5.58,2.57-8.91,5.48Z"/>
      <path class="cls-1" d="M169.23,41.77c.61.42,1.23.83,1.37,0,2.98,2.9,1.57,6.1,3.43,10.28-1.71.57-2.69,1.88-4.8,2.06-2.1-1.96-2.1-10.37,0-12.33Z"/>
      <path class="cls-1" d="M142.51,73.97c3.7.19,5.29,2.48,4.8,6.85-2.46.17-2.51-2.06-4.8-2.06v-4.8Z"/>
    </g>
  </g>
</svg>